<?xml version="1.0" standalone="no"?>
 <!DOCTYPE svg PUBLIC "-//W3C//DTD SVG 1.1//EN" 
 "http://www.w3.org/Graphics/SVG/1.1/DTD/svg11.dtd"> 
<svg
  xmlns:svg="http://www.w3.org/2000/svg"
  xmlns="http://www.w3.org/2000/svg"
  xmlns:xlink="http://www.w3.org/1999/xlink"
  version="1.1"
  width="210.0072mm" height="148.0058mm" viewBox="0.0000 0.0000 210.0072 148.0058">
<title>SVG Image created as modulo_seguidor-F_Silkscreen.svg date 2025/09/09 17:11:40 </title>
  <desc>Image generated by PCBNEW </desc>
<g style="fill:#000000; fill-opacity:1.0000;stroke:#000000; stroke-opacity:1.0000;
stroke-linecap:round; stroke-linejoin:round;"
 transform="translate(0 0) scale(1 1)">
</g>
<g style="fill:none; 
stroke:#000000; stroke-width:0.1500; stroke-opacity:1; 
stroke-linecap:round; stroke-linejoin:round;">
<path d="M90.0072 104.0058
L198.0072 104.0058
L198.0072 136.0058
L90.0072 136.0058
L90.0072 104.0058
" />
</g>
<g style="fill:none; 
stroke:#000000; stroke-width:0.1500; stroke-opacity:1; 
stroke-linecap:round; stroke-linejoin:round;">
<path d="M10.0000 10.0000
L200.0072 10.0000
L200.0072 138.0058
L10.0000 138.0058
L10.0000 10.0000
" />
</g>
<g style="fill:none; 
stroke:#000000; stroke-width:0.1500; stroke-opacity:1; 
stroke-linecap:round; stroke-linejoin:round;">
<path d="M12.0000 12.0000
L198.0072 12.0000
L198.0072 136.0058
L12.0000 136.0058
L12.0000 12.0000
" />
</g>
<g style="fill:none; 
stroke:#000000; stroke-width:0.1500; stroke-opacity:1; 
stroke-linecap:round; stroke-linejoin:round;">
<path d="M60.0000 12.0000
L60.0000 10.0000
" />
</g>
<g style="fill:none; 
stroke:#000000; stroke-width:0.1500; stroke-opacity:1; 
stroke-linecap:round; stroke-linejoin:round;">
<path d="M110.0000 12.0000
L110.0000 10.0000
" />
</g>
<g style="fill:none; 
stroke:#000000; stroke-width:0.1500; stroke-opacity:1; 
stroke-linecap:round; stroke-linejoin:round;">
<path d="M160.0000 12.0000
L160.0000 10.0000
" />
</g>
<g style="fill:none; 
stroke:#000000; stroke-width:0.1500; stroke-opacity:1; 
stroke-linecap:round; stroke-linejoin:round;">
<text x="35.0000" y="11.6500"
textLength="1.4281" font-size="1.7333" lengthAdjust="spacingAndGlyphs"
text-anchor="start" opacity="0" stroke-opacity="0">1</text>
<g class="stroked-text"><desc>1</desc>
<path d="M36.0892 11.5936
L35.3463 11.5936
" />
<path d="M35.7177 11.5936
L35.7177 10.2936
" />
<path d="M35.7177 10.2936
L35.5939 10.4793
" />
<path d="M35.5939 10.4793
L35.4701 10.6031
" />
<path d="M35.4701 10.6031
L35.3463 10.6650
" />
</g></g>
<g style="fill:none; 
stroke:#000000; stroke-width:0.1500; stroke-opacity:1; 
stroke-linecap:round; stroke-linejoin:round;">
<text x="85.0000" y="11.6500"
textLength="1.4281" font-size="1.7333" lengthAdjust="spacingAndGlyphs"
text-anchor="start" opacity="0" stroke-opacity="0">2</text>
<g class="stroked-text"><desc>2</desc>
<path d="M85.3463 10.4174
L85.4082 10.3555
" />
<path d="M85.4082 10.3555
L85.5320 10.2936
" />
<path d="M85.5320 10.2936
L85.8415 10.2936
" />
<path d="M85.8415 10.2936
L85.9654 10.3555
" />
<path d="M85.9654 10.3555
L86.0273 10.4174
" />
<path d="M86.0273 10.4174
L86.0892 10.5412
" />
<path d="M86.0892 10.5412
L86.0892 10.6650
" />
<path d="M86.0892 10.6650
L86.0273 10.8507
" />
<path d="M86.0273 10.8507
L85.2844 11.5936
" />
<path d="M85.2844 11.5936
L86.0892 11.5936
" />
</g></g>
<g style="fill:none; 
stroke:#000000; stroke-width:0.1500; stroke-opacity:1; 
stroke-linecap:round; stroke-linejoin:round;">
<text x="135.0000" y="11.6500"
textLength="1.4281" font-size="1.7333" lengthAdjust="spacingAndGlyphs"
text-anchor="start" opacity="0" stroke-opacity="0">3</text>
<g class="stroked-text"><desc>3</desc>
<path d="M135.2844 10.2936
L136.0892 10.2936
" />
<path d="M136.0892 10.2936
L135.6558 10.7888
" />
<path d="M135.6558 10.7888
L135.8415 10.7888
" />
<path d="M135.8415 10.7888
L135.9654 10.8507
" />
<path d="M135.9654 10.8507
L136.0273 10.9127
" />
<path d="M136.0273 10.9127
L136.0892 11.0365
" />
<path d="M136.0892 11.0365
L136.0892 11.3460
" />
<path d="M136.0892 11.3460
L136.0273 11.4698
" />
<path d="M136.0273 11.4698
L135.9654 11.5317
" />
<path d="M135.9654 11.5317
L135.8415 11.5936
" />
<path d="M135.8415 11.5936
L135.4701 11.5936
" />
<path d="M135.4701 11.5936
L135.3463 11.5317
" />
<path d="M135.3463 11.5317
L135.2844 11.4698
" />
</g></g>
<g style="fill:none; 
stroke:#000000; stroke-width:0.1500; stroke-opacity:1; 
stroke-linecap:round; stroke-linejoin:round;">
<text x="185.0000" y="11.6500"
textLength="1.4281" font-size="1.7333" lengthAdjust="spacingAndGlyphs"
text-anchor="start" opacity="0" stroke-opacity="0">4</text>
<g class="stroked-text"><desc>4</desc>
<path d="M185.9654 10.7269
L185.9654 11.5936
" />
<path d="M185.6558 10.2317
L185.3463 11.1603
" />
<path d="M185.3463 11.1603
L186.1511 11.1603
" />
</g></g>
<g style="fill:none; 
stroke:#000000; stroke-width:0.1500; stroke-opacity:1; 
stroke-linecap:round; stroke-linejoin:round;">
<path d="M60.0000 136.0058
L60.0000 138.0058
" />
</g>
<g style="fill:none; 
stroke:#000000; stroke-width:0.1500; stroke-opacity:1; 
stroke-linecap:round; stroke-linejoin:round;">
<path d="M110.0000 136.0058
L110.0000 138.0058
" />
</g>
<g style="fill:none; 
stroke:#000000; stroke-width:0.1500; stroke-opacity:1; 
stroke-linecap:round; stroke-linejoin:round;">
<path d="M160.0000 136.0058
L160.0000 138.0058
" />
</g>
<g style="fill:none; 
stroke:#000000; stroke-width:0.1500; stroke-opacity:1; 
stroke-linecap:round; stroke-linejoin:round;">
<text x="35.0000" y="137.6558"
textLength="1.4281" font-size="1.7333" lengthAdjust="spacingAndGlyphs"
text-anchor="start" opacity="0" stroke-opacity="0">1</text>
<g class="stroked-text"><desc>1</desc>
<path d="M36.0892 137.5994
L35.3463 137.5994
" />
<path d="M35.7177 137.5994
L35.7177 136.2994
" />
<path d="M35.7177 136.2994
L35.5939 136.4851
" />
<path d="M35.5939 136.4851
L35.4701 136.6089
" />
<path d="M35.4701 136.6089
L35.3463 136.6708
" />
</g></g>
<g style="fill:none; 
stroke:#000000; stroke-width:0.1500; stroke-opacity:1; 
stroke-linecap:round; stroke-linejoin:round;">
<text x="85.0000" y="137.6558"
textLength="1.4281" font-size="1.7333" lengthAdjust="spacingAndGlyphs"
text-anchor="start" opacity="0" stroke-opacity="0">2</text>
<g class="stroked-text"><desc>2</desc>
<path d="M85.3463 136.4232
L85.4082 136.3613
" />
<path d="M85.4082 136.3613
L85.5320 136.2994
" />
<path d="M85.5320 136.2994
L85.8415 136.2994
" />
<path d="M85.8415 136.2994
L85.9654 136.3613
" />
<path d="M85.9654 136.3613
L86.0273 136.4232
" />
<path d="M86.0273 136.4232
L86.0892 136.5470
" />
<path d="M86.0892 136.5470
L86.0892 136.6708
" />
<path d="M86.0892 136.6708
L86.0273 136.8565
" />
<path d="M86.0273 136.8565
L85.2844 137.5994
" />
<path d="M85.2844 137.5994
L86.0892 137.5994
" />
</g></g>
<g style="fill:none; 
stroke:#000000; stroke-width:0.1500; stroke-opacity:1; 
stroke-linecap:round; stroke-linejoin:round;">
<text x="135.0000" y="137.6558"
textLength="1.4281" font-size="1.7333" lengthAdjust="spacingAndGlyphs"
text-anchor="start" opacity="0" stroke-opacity="0">3</text>
<g class="stroked-text"><desc>3</desc>
<path d="M135.2844 136.2994
L136.0892 136.2994
" />
<path d="M136.0892 136.2994
L135.6558 136.7946
" />
<path d="M135.6558 136.7946
L135.8415 136.7946
" />
<path d="M135.8415 136.7946
L135.9654 136.8565
" />
<path d="M135.9654 136.8565
L136.0273 136.9185
" />
<path d="M136.0273 136.9185
L136.0892 137.0423
" />
<path d="M136.0892 137.0423
L136.0892 137.3518
" />
<path d="M136.0892 137.3518
L136.0273 137.4756
" />
<path d="M136.0273 137.4756
L135.9654 137.5375
" />
<path d="M135.9654 137.5375
L135.8415 137.5994
" />
<path d="M135.8415 137.5994
L135.4701 137.5994
" />
<path d="M135.4701 137.5994
L135.3463 137.5375
" />
<path d="M135.3463 137.5375
L135.2844 137.4756
" />
</g></g>
<g style="fill:none; 
stroke:#000000; stroke-width:0.1500; stroke-opacity:1; 
stroke-linecap:round; stroke-linejoin:round;">
<text x="185.0000" y="137.6558"
textLength="1.4281" font-size="1.7333" lengthAdjust="spacingAndGlyphs"
text-anchor="start" opacity="0" stroke-opacity="0">4</text>
<g class="stroked-text"><desc>4</desc>
<path d="M185.9654 136.7327
L185.9654 137.5994
" />
<path d="M185.6558 136.2375
L185.3463 137.1661
" />
<path d="M185.3463 137.1661
L186.1511 137.1661
" />
</g></g>
<g style="fill:none; 
stroke:#000000; stroke-width:0.1500; stroke-opacity:1; 
stroke-linecap:round; stroke-linejoin:round;">
<path d="M10.0000 60.0000
L12.0000 60.0000
" />
</g>
<g style="fill:none; 
stroke:#000000; stroke-width:0.1500; stroke-opacity:1; 
stroke-linecap:round; stroke-linejoin:round;">
<path d="M10.0000 110.0000
L12.0000 110.0000
" />
</g>
<g style="fill:none; 
stroke:#000000; stroke-width:0.1500; stroke-opacity:1; 
stroke-linecap:round; stroke-linejoin:round;">
<text x="11.0000" y="35.6500"
textLength="1.3043" font-size="1.7333" lengthAdjust="spacingAndGlyphs"
text-anchor="middle" opacity="0" stroke-opacity="0">A</text>
<g class="stroked-text"><desc>A</desc>
<path d="M10.6905 35.2222
L11.3095 35.2222
" />
<path d="M10.5667 35.5936
L11.0000 34.2936
" />
<path d="M11.0000 34.2936
L11.4333 35.5936
" />
</g></g>
<g style="fill:none; 
stroke:#000000; stroke-width:0.1500; stroke-opacity:1; 
stroke-linecap:round; stroke-linejoin:round;">
<text x="11.0000" y="85.6500"
textLength="1.4900" font-size="1.7333" lengthAdjust="spacingAndGlyphs"
text-anchor="middle" opacity="0" stroke-opacity="0">B</text>
<g class="stroked-text"><desc>B</desc>
<path d="M11.0929 84.9127
L11.2786 84.9746
" />
<path d="M11.2786 84.9746
L11.3405 85.0365
" />
<path d="M11.3405 85.0365
L11.4024 85.1603
" />
<path d="M11.4024 85.1603
L11.4024 85.3460
" />
<path d="M11.4024 85.3460
L11.3405 85.4698
" />
<path d="M11.3405 85.4698
L11.2786 85.5317
" />
<path d="M11.2786 85.5317
L11.1548 85.5936
" />
<path d="M11.1548 85.5936
L10.6595 85.5936
" />
<path d="M10.6595 85.5936
L10.6595 84.2936
" />
<path d="M10.6595 84.2936
L11.0929 84.2936
" />
<path d="M11.0929 84.2936
L11.2167 84.3555
" />
<path d="M11.2167 84.3555
L11.2786 84.4174
" />
<path d="M11.2786 84.4174
L11.3405 84.5412
" />
<path d="M11.3405 84.5412
L11.3405 84.6650
" />
<path d="M11.3405 84.6650
L11.2786 84.7888
" />
<path d="M11.2786 84.7888
L11.2167 84.8507
" />
<path d="M11.2167 84.8507
L11.0929 84.9127
" />
<path d="M11.0929 84.9127
L10.6595 84.9127
" />
</g></g>
<g style="fill:none; 
stroke:#000000; stroke-width:0.1500; stroke-opacity:1; 
stroke-linecap:round; stroke-linejoin:round;">
<text x="11.0000" y="135.6500"
textLength="1.4900" font-size="1.7333" lengthAdjust="spacingAndGlyphs"
text-anchor="middle" opacity="0" stroke-opacity="0">C</text>
<g class="stroked-text"><desc>C</desc>
<path d="M11.4024 135.4698
L11.3405 135.5317
" />
<path d="M11.3405 135.5317
L11.1548 135.5936
" />
<path d="M11.1548 135.5936
L11.0310 135.5936
" />
<path d="M11.0310 135.5936
L10.8452 135.5317
" />
<path d="M10.8452 135.5317
L10.7214 135.4079
" />
<path d="M10.7214 135.4079
L10.6595 135.2841
" />
<path d="M10.6595 135.2841
L10.5976 135.0365
" />
<path d="M10.5976 135.0365
L10.5976 134.8507
" />
<path d="M10.5976 134.8507
L10.6595 134.6031
" />
<path d="M10.6595 134.6031
L10.7214 134.4793
" />
<path d="M10.7214 134.4793
L10.8452 134.3555
" />
<path d="M10.8452 134.3555
L11.0310 134.2936
" />
<path d="M11.0310 134.2936
L11.1548 134.2936
" />
<path d="M11.1548 134.2936
L11.3405 134.3555
" />
<path d="M11.3405 134.3555
L11.4024 134.4174
" />
</g></g>
<g style="fill:none; 
stroke:#000000; stroke-width:0.1500; stroke-opacity:1; 
stroke-linecap:round; stroke-linejoin:round;">
<path d="M200.0072 60.0000
L198.0072 60.0000
" />
</g>
<g style="fill:none; 
stroke:#000000; stroke-width:0.1500; stroke-opacity:1; 
stroke-linecap:round; stroke-linejoin:round;">
<path d="M200.0072 110.0000
L198.0072 110.0000
" />
</g>
<g style="fill:none; 
stroke:#000000; stroke-width:0.1500; stroke-opacity:1; 
stroke-linecap:round; stroke-linejoin:round;">
<text x="199.0072" y="35.6500"
textLength="1.3043" font-size="1.7333" lengthAdjust="spacingAndGlyphs"
text-anchor="middle" opacity="0" stroke-opacity="0">A</text>
<g class="stroked-text"><desc>A</desc>
<path d="M198.6977 35.2222
L199.3167 35.2222
" />
<path d="M198.5739 35.5936
L199.0072 34.2936
" />
<path d="M199.0072 34.2936
L199.4405 35.5936
" />
</g></g>
<g style="fill:none; 
stroke:#000000; stroke-width:0.1500; stroke-opacity:1; 
stroke-linecap:round; stroke-linejoin:round;">
<text x="199.0072" y="85.6500"
textLength="1.4900" font-size="1.7333" lengthAdjust="spacingAndGlyphs"
text-anchor="middle" opacity="0" stroke-opacity="0">B</text>
<g class="stroked-text"><desc>B</desc>
<path d="M199.1001 84.9127
L199.2858 84.9746
" />
<path d="M199.2858 84.9746
L199.3477 85.0365
" />
<path d="M199.3477 85.0365
L199.4096 85.1603
" />
<path d="M199.4096 85.1603
L199.4096 85.3460
" />
<path d="M199.4096 85.3460
L199.3477 85.4698
" />
<path d="M199.3477 85.4698
L199.2858 85.5317
" />
<path d="M199.2858 85.5317
L199.1620 85.5936
" />
<path d="M199.1620 85.5936
L198.6667 85.5936
" />
<path d="M198.6667 85.5936
L198.6667 84.2936
" />
<path d="M198.6667 84.2936
L199.1001 84.2936
" />
<path d="M199.1001 84.2936
L199.2239 84.3555
" />
<path d="M199.2239 84.3555
L199.2858 84.4174
" />
<path d="M199.2858 84.4174
L199.3477 84.5412
" />
<path d="M199.3477 84.5412
L199.3477 84.6650
" />
<path d="M199.3477 84.6650
L199.2858 84.7888
" />
<path d="M199.2858 84.7888
L199.2239 84.8507
" />
<path d="M199.2239 84.8507
L199.1001 84.9127
" />
<path d="M199.1001 84.9127
L198.6667 84.9127
" />
</g></g>
<g style="fill:none; 
stroke:#000000; stroke-width:0.1500; stroke-opacity:1; 
stroke-linecap:round; stroke-linejoin:round;">
<text x="199.0072" y="135.6500"
textLength="1.4900" font-size="1.7333" lengthAdjust="spacingAndGlyphs"
text-anchor="middle" opacity="0" stroke-opacity="0">C</text>
<g class="stroked-text"><desc>C</desc>
<path d="M199.4096 135.4698
L199.3477 135.5317
" />
<path d="M199.3477 135.5317
L199.1620 135.5936
" />
<path d="M199.1620 135.5936
L199.0382 135.5936
" />
<path d="M199.0382 135.5936
L198.8524 135.5317
" />
<path d="M198.8524 135.5317
L198.7286 135.4079
" />
<path d="M198.7286 135.4079
L198.6667 135.2841
" />
<path d="M198.6667 135.2841
L198.6048 135.0365
" />
<path d="M198.6048 135.0365
L198.6048 134.8507
" />
<path d="M198.6048 134.8507
L198.6667 134.6031
" />
<path d="M198.6667 134.6031
L198.7286 134.4793
" />
<path d="M198.7286 134.4793
L198.8524 134.3555
" />
<path d="M198.8524 134.3555
L199.0382 134.2936
" />
<path d="M199.0382 134.2936
L199.1620 134.2936
" />
<path d="M199.1620 134.2936
L199.3477 134.3555
" />
<path d="M199.3477 134.3555
L199.4096 134.4174
" />
</g></g>
<g style="fill:none; 
stroke:#000000; stroke-width:0.1500; stroke-opacity:1; 
stroke-linecap:round; stroke-linejoin:round;">
<text x="113.0072" y="131.8558"
textLength="7.0071" font-size="2.0000" lengthAdjust="spacingAndGlyphs"
text-anchor="start" opacity="0" stroke-opacity="0">Date: </text>
<g class="stroked-text"><desc>Date: </desc>
<path d="M113.4630 131.7919
L113.4630 130.2919
" />
<path d="M113.4630 130.2919
L113.8202 130.2919
" />
<path d="M113.8202 130.2919
L114.0345 130.3634
" />
<path d="M114.0345 130.3634
L114.1773 130.5062
" />
<path d="M114.1773 130.5062
L114.2487 130.6491
" />
<path d="M114.2487 130.6491
L114.3202 130.9348
" />
<path d="M114.3202 130.9348
L114.3202 131.1491
" />
<path d="M114.3202 131.1491
L114.2487 131.4348
" />
<path d="M114.2487 131.4348
L114.1773 131.5776
" />
<path d="M114.1773 131.5776
L114.0345 131.7205
" />
<path d="M114.0345 131.7205
L113.8202 131.7919
" />
<path d="M113.8202 131.7919
L113.4630 131.7919
" />
<path d="M115.6059 131.7919
L115.6059 131.0062
" />
<path d="M115.6059 131.0062
L115.5345 130.8634
" />
<path d="M115.5345 130.8634
L115.3916 130.7919
" />
<path d="M115.3916 130.7919
L115.1059 130.7919
" />
<path d="M115.1059 130.7919
L114.9630 130.8634
" />
<path d="M115.6059 131.7205
L115.4630 131.7919
" />
<path d="M115.4630 131.7919
L115.1059 131.7919
" />
<path d="M115.1059 131.7919
L114.9630 131.7205
" />
<path d="M114.9630 131.7205
L114.8916 131.5776
" />
<path d="M114.8916 131.5776
L114.8916 131.4348
" />
<path d="M114.8916 131.4348
L114.9630 131.2919
" />
<path d="M114.9630 131.2919
L115.1059 131.2205
" />
<path d="M115.1059 131.2205
L115.4630 131.2205
" />
<path d="M115.4630 131.2205
L115.6059 131.1491
" />
<path d="M116.1059 130.7919
L116.6773 130.7919
" />
<path d="M116.3202 130.2919
L116.3202 131.5776
" />
<path d="M116.3202 131.5776
L116.3916 131.7205
" />
<path d="M116.3916 131.7205
L116.5345 131.7919
" />
<path d="M116.5345 131.7919
L116.6773 131.7919
" />
<path d="M117.7487 131.7205
L117.6059 131.7919
" />
<path d="M117.6059 131.7919
L117.3202 131.7919
" />
<path d="M117.3202 131.7919
L117.1773 131.7205
" />
<path d="M117.1773 131.7205
L117.1059 131.5776
" />
<path d="M117.1059 131.5776
L117.1059 131.0062
" />
<path d="M117.1059 131.0062
L117.1773 130.8634
" />
<path d="M117.1773 130.8634
L117.3202 130.7919
" />
<path d="M117.3202 130.7919
L117.6059 130.7919
" />
<path d="M117.6059 130.7919
L117.7487 130.8634
" />
<path d="M117.7487 130.8634
L117.8202 131.0062
" />
<path d="M117.8202 131.0062
L117.8202 131.1491
" />
<path d="M117.8202 131.1491
L117.1059 131.2919
" />
<path d="M118.4630 131.6491
L118.5345 131.7205
" />
<path d="M118.5345 131.7205
L118.4630 131.7919
" />
<path d="M118.4630 131.7919
L118.3916 131.7205
" />
<path d="M118.3916 131.7205
L118.4630 131.6491
" />
<path d="M118.4630 131.6491
L118.4630 131.7919
" />
<path d="M118.4630 130.8634
L118.5345 130.9348
" />
<path d="M118.5345 130.9348
L118.4630 131.0062
" />
<path d="M118.4630 131.0062
L118.3916 130.9348
" />
<path d="M118.3916 130.9348
L118.4630 130.8634
" />
<path d="M118.4630 130.8634
L118.4630 131.0062
" />
</g></g>
<g style="fill:none; 
stroke:#000000; stroke-width:0.1500; stroke-opacity:1; 
stroke-linecap:round; stroke-linejoin:round;">
<path d="M90.0072 132.5058
L198.0072 132.5058
" />
</g>
<g style="fill:none; 
stroke:#000000; stroke-width:0.1500; stroke-opacity:1; 
stroke-linecap:round; stroke-linejoin:round;">
<text x="91.0072" y="134.6558"
textLength="20.6500" font-size="2.0000" lengthAdjust="spacingAndGlyphs"
text-anchor="start" opacity="0" stroke-opacity="0">${KICAD_VERSION}</text>
<g class="stroked-text"><desc>${KICAD_VERSION}</desc>
<path d="M91.3916 134.5205
L91.6059 134.5919
" />
<path d="M91.6059 134.5919
L91.9630 134.5919
" />
<path d="M91.9630 134.5919
L92.1059 134.5205
" />
<path d="M92.1059 134.5205
L92.1773 134.4491
" />
<path d="M92.1773 134.4491
L92.2487 134.3062
" />
<path d="M92.2487 134.3062
L92.2487 134.1634
" />
<path d="M92.2487 134.1634
L92.1773 134.0205
" />
<path d="M92.1773 134.0205
L92.1059 133.9491
" />
<path d="M92.1059 133.9491
L91.9630 133.8776
" />
<path d="M91.9630 133.8776
L91.6773 133.8062
" />
<path d="M91.6773 133.8062
L91.5345 133.7348
" />
<path d="M91.5345 133.7348
L91.4630 133.6634
" />
<path d="M91.4630 133.6634
L91.3916 133.5205
" />
<path d="M91.3916 133.5205
L91.3916 133.3776
" />
<path d="M91.3916 133.3776
L91.4630 133.2348
" />
<path d="M91.4630 133.2348
L91.5345 133.1634
" />
<path d="M91.5345 133.1634
L91.6773 133.0919
" />
<path d="M91.6773 133.0919
L92.0345 133.0919
" />
<path d="M92.0345 133.0919
L92.2487 133.1634
" />
<path d="M91.8202 132.8776
L91.8202 134.8062
" />
<path d="M93.3202 135.1634
L93.2487 135.1634
" />
<path d="M93.2487 135.1634
L93.1059 135.0919
" />
<path d="M93.1059 135.0919
L93.0345 134.9491
" />
<path d="M93.0345 134.9491
L93.0345 134.2348
" />
<path d="M93.0345 134.2348
L92.9630 134.0919
" />
<path d="M92.9630 134.0919
L92.8202 134.0205
" />
<path d="M92.8202 134.0205
L92.9630 133.9491
" />
<path d="M92.9630 133.9491
L93.0345 133.8062
" />
<path d="M93.0345 133.8062
L93.0345 133.0919
" />
<path d="M93.0345 133.0919
L93.1059 132.9491
" />
<path d="M93.1059 132.9491
L93.2487 132.8776
" />
<path d="M93.2487 132.8776
L93.3202 132.8776
" />
<path d="M93.8916 134.5919
L93.8916 133.0919
" />
<path d="M94.7487 134.5919
L94.1059 133.7348
" />
<path d="M94.7487 133.0919
L93.8916 133.9491
" />
<path d="M95.3916 134.5919
L95.3916 133.0919
" />
<path d="M96.9630 134.4491
L96.8916 134.5205
" />
<path d="M96.8916 134.5205
L96.6773 134.5919
" />
<path d="M96.6773 134.5919
L96.5345 134.5919
" />
<path d="M96.5345 134.5919
L96.3202 134.5205
" />
<path d="M96.3202 134.5205
L96.1773 134.3776
" />
<path d="M96.1773 134.3776
L96.1059 134.2348
" />
<path d="M96.1059 134.2348
L96.0345 133.9491
" />
<path d="M96.0345 133.9491
L96.0345 133.7348
" />
<path d="M96.0345 133.7348
L96.1059 133.4491
" />
<path d="M96.1059 133.4491
L96.1773 133.3062
" />
<path d="M96.1773 133.3062
L96.3202 133.1634
" />
<path d="M96.3202 133.1634
L96.5345 133.0919
" />
<path d="M96.5345 133.0919
L96.6773 133.0919
" />
<path d="M96.6773 133.0919
L96.8916 133.1634
" />
<path d="M96.8916 133.1634
L96.9630 133.2348
" />
<path d="M97.5345 134.1634
L98.2487 134.1634
" />
<path d="M97.3916 134.5919
L97.8916 133.0919
" />
<path d="M97.8916 133.0919
L98.3916 134.5919
" />
<path d="M98.8916 134.5919
L98.8916 133.0919
" />
<path d="M98.8916 133.0919
L99.2487 133.0919
" />
<path d="M99.2487 133.0919
L99.4630 133.1634
" />
<path d="M99.4630 133.1634
L99.6059 133.3062
" />
<path d="M99.6059 133.3062
L99.6773 133.4491
" />
<path d="M99.6773 133.4491
L99.7487 133.7348
" />
<path d="M99.7487 133.7348
L99.7487 133.9491
" />
<path d="M99.7487 133.9491
L99.6773 134.2348
" />
<path d="M99.6773 134.2348
L99.6059 134.3776
" />
<path d="M99.6059 134.3776
L99.4630 134.5205
" />
<path d="M99.4630 134.5205
L99.2487 134.5919
" />
<path d="M99.2487 134.5919
L98.8916 134.5919
" />
<path d="M100.0345 134.7348
L101.1773 134.7348
" />
<path d="M101.3202 133.0919
L101.8202 134.5919
" />
<path d="M101.8202 134.5919
L102.3202 133.0919
" />
<path d="M102.8202 133.8062
L103.3202 133.8062
" />
<path d="M103.5345 134.5919
L102.8202 134.5919
" />
<path d="M102.8202 134.5919
L102.8202 133.0919
" />
<path d="M102.8202 133.0919
L103.5345 133.0919
" />
<path d="M105.0345 134.5919
L104.5345 133.8776
" />
<path d="M104.1773 134.5919
L104.1773 133.0919
" />
<path d="M104.1773 133.0919
L104.7487 133.0919
" />
<path d="M104.7487 133.0919
L104.8916 133.1634
" />
<path d="M104.8916 133.1634
L104.9630 133.2348
" />
<path d="M104.9630 133.2348
L105.0345 133.3776
" />
<path d="M105.0345 133.3776
L105.0345 133.5919
" />
<path d="M105.0345 133.5919
L104.9630 133.7348
" />
<path d="M104.9630 133.7348
L104.8916 133.8062
" />
<path d="M104.8916 133.8062
L104.7487 133.8776
" />
<path d="M104.7487 133.8776
L104.1773 133.8776
" />
<path d="M105.6059 134.5205
L105.8202 134.5919
" />
<path d="M105.8202 134.5919
L106.1773 134.5919
" />
<path d="M106.1773 134.5919
L106.3202 134.5205
" />
<path d="M106.3202 134.5205
L106.3916 134.4491
" />
<path d="M106.3916 134.4491
L106.4630 134.3062
" />
<path d="M106.4630 134.3062
L106.4630 134.1634
" />
<path d="M106.4630 134.1634
L106.3916 134.0205
" />
<path d="M106.3916 134.0205
L106.3202 133.9491
" />
<path d="M106.3202 133.9491
L106.1773 133.8776
" />
<path d="M106.1773 133.8776
L105.8916 133.8062
" />
<path d="M105.8916 133.8062
L105.7487 133.7348
" />
<path d="M105.7487 133.7348
L105.6773 133.6634
" />
<path d="M105.6773 133.6634
L105.6059 133.5205
" />
<path d="M105.6059 133.5205
L105.6059 133.3776
" />
<path d="M105.6059 133.3776
L105.6773 133.2348
" />
<path d="M105.6773 133.2348
L105.7487 133.1634
" />
<path d="M105.7487 133.1634
L105.8916 133.0919
" />
<path d="M105.8916 133.0919
L106.2487 133.0919
" />
<path d="M106.2487 133.0919
L106.4630 133.1634
" />
<path d="M107.1059 134.5919
L107.1059 133.0919
" />
<path d="M108.1059 133.0919
L108.3916 133.0919
" />
<path d="M108.3916 133.0919
L108.5345 133.1634
" />
<path d="M108.5345 133.1634
L108.6773 133.3062
" />
<path d="M108.6773 133.3062
L108.7487 133.5919
" />
<path d="M108.7487 133.5919
L108.7487 134.0919
" />
<path d="M108.7487 134.0919
L108.6773 134.3776
" />
<path d="M108.6773 134.3776
L108.5345 134.5205
" />
<path d="M108.5345 134.5205
L108.3916 134.5919
" />
<path d="M108.3916 134.5919
L108.1059 134.5919
" />
<path d="M108.1059 134.5919
L107.9630 134.5205
" />
<path d="M107.9630 134.5205
L107.8202 134.3776
" />
<path d="M107.8202 134.3776
L107.7487 134.0919
" />
<path d="M107.7487 134.0919
L107.7487 133.5919
" />
<path d="M107.7487 133.5919
L107.8202 133.3062
" />
<path d="M107.8202 133.3062
L107.9630 133.1634
" />
<path d="M107.9630 133.1634
L108.1059 133.0919
" />
<path d="M109.3916 134.5919
L109.3916 133.0919
" />
<path d="M109.3916 133.0919
L110.2487 134.5919
" />
<path d="M110.2487 134.5919
L110.2487 133.0919
" />
<path d="M110.8202 135.1634
L110.8916 135.1634
" />
<path d="M110.8916 135.1634
L111.0345 135.0919
" />
<path d="M111.0345 135.0919
L111.1059 134.9491
" />
<path d="M111.1059 134.9491
L111.1059 134.2348
" />
<path d="M111.1059 134.2348
L111.1773 134.0919
" />
<path d="M111.1773 134.0919
L111.3202 134.0205
" />
<path d="M111.3202 134.0205
L111.1773 133.9491
" />
<path d="M111.1773 133.9491
L111.1059 133.8062
" />
<path d="M111.1059 133.8062
L111.1059 133.0919
" />
<path d="M111.1059 133.0919
L111.0345 132.9491
" />
<path d="M111.0345 132.9491
L110.8916 132.8776
" />
<path d="M110.8916 132.8776
L110.8202 132.8776
" />
</g></g>
<g style="fill:none; 
stroke:#000000; stroke-width:0.1500; stroke-opacity:1; 
stroke-linecap:round; stroke-linejoin:round;">
<path d="M90.0072 129.5058
L198.0072 129.5058
" />
</g>
<g style="fill:none; 
stroke:#000000; stroke-width:0.3000; stroke-opacity:1; 
stroke-linecap:round; stroke-linejoin:round;">
<text x="176.0072" y="131.8558"
textLength="6.3857" font-size="2.0000" lengthAdjust="spacingAndGlyphs"
text-anchor="start" opacity="0" stroke-opacity="0">Rev: </text>
<g class="stroked-text"><desc>Rev: </desc>
<path d="M177.4189 131.7841
L176.9189 131.0698
" />
<path d="M176.5617 131.7841
L176.5617 130.2841
" />
<path d="M176.5617 130.2841
L177.1331 130.2841
" />
<path d="M177.1331 130.2841
L177.2760 130.3556
" />
<path d="M177.2760 130.3556
L177.3474 130.4270
" />
<path d="M177.3474 130.4270
L177.4189 130.5698
" />
<path d="M177.4189 130.5698
L177.4189 130.7841
" />
<path d="M177.4189 130.7841
L177.3474 130.9270
" />
<path d="M177.3474 130.9270
L177.2760 130.9984
" />
<path d="M177.2760 130.9984
L177.1331 131.0698
" />
<path d="M177.1331 131.0698
L176.5617 131.0698
" />
<path d="M178.6331 131.7127
L178.4903 131.7841
" />
<path d="M178.4903 131.7841
L178.2046 131.7841
" />
<path d="M178.2046 131.7841
L178.0617 131.7127
" />
<path d="M178.0617 131.7127
L177.9903 131.5698
" />
<path d="M177.9903 131.5698
L177.9903 130.9984
" />
<path d="M177.9903 130.9984
L178.0617 130.8556
" />
<path d="M178.0617 130.8556
L178.2046 130.7841
" />
<path d="M178.2046 130.7841
L178.4903 130.7841
" />
<path d="M178.4903 130.7841
L178.6331 130.8556
" />
<path d="M178.6331 130.8556
L178.7046 130.9984
" />
<path d="M178.7046 130.9984
L178.7046 131.1413
" />
<path d="M178.7046 131.1413
L177.9903 131.2841
" />
<path d="M179.2046 130.7841
L179.5617 131.7841
" />
<path d="M179.5617 131.7841
L179.9189 130.7841
" />
<path d="M180.4903 131.6413
L180.5617 131.7127
" />
<path d="M180.5617 131.7127
L180.4903 131.7841
" />
<path d="M180.4903 131.7841
L180.4189 131.7127
" />
<path d="M180.4189 131.7127
L180.4903 131.6413
" />
<path d="M180.4903 131.6413
L180.4903 131.7841
" />
<path d="M180.4903 130.8556
L180.5617 130.9270
" />
<path d="M180.5617 130.9270
L180.4903 130.9984
" />
<path d="M180.4903 130.9984
L180.4189 130.9270
" />
<path d="M180.4189 130.9270
L180.4903 130.8556
" />
<path d="M180.4903 130.8556
L180.4903 130.9984
" />
</g></g>
<g style="fill:none; 
stroke:#000000; stroke-width:0.1500; stroke-opacity:1; 
stroke-linecap:round; stroke-linejoin:round;">
<text x="91.0072" y="131.8558"
textLength="9.3643" font-size="2.0000" lengthAdjust="spacingAndGlyphs"
text-anchor="start" opacity="0" stroke-opacity="0">Size: A5</text>
<g class="stroked-text"><desc>Size: A5</desc>
<path d="M91.3916 131.7205
L91.6059 131.7919
" />
<path d="M91.6059 131.7919
L91.9630 131.7919
" />
<path d="M91.9630 131.7919
L92.1059 131.7205
" />
<path d="M92.1059 131.7205
L92.1773 131.6491
" />
<path d="M92.1773 131.6491
L92.2487 131.5062
" />
<path d="M92.2487 131.5062
L92.2487 131.3634
" />
<path d="M92.2487 131.3634
L92.1773 131.2205
" />
<path d="M92.1773 131.2205
L92.1059 131.1491
" />
<path d="M92.1059 131.1491
L91.9630 131.0776
" />
<path d="M91.9630 131.0776
L91.6773 131.0062
" />
<path d="M91.6773 131.0062
L91.5345 130.9348
" />
<path d="M91.5345 130.9348
L91.4630 130.8634
" />
<path d="M91.4630 130.8634
L91.3916 130.7205
" />
<path d="M91.3916 130.7205
L91.3916 130.5776
" />
<path d="M91.3916 130.5776
L91.4630 130.4348
" />
<path d="M91.4630 130.4348
L91.5345 130.3634
" />
<path d="M91.5345 130.3634
L91.6773 130.2919
" />
<path d="M91.6773 130.2919
L92.0345 130.2919
" />
<path d="M92.0345 130.2919
L92.2487 130.3634
" />
<path d="M92.8916 131.7919
L92.8916 130.7919
" />
<path d="M92.8916 130.2919
L92.8202 130.3634
" />
<path d="M92.8202 130.3634
L92.8916 130.4348
" />
<path d="M92.8916 130.4348
L92.9630 130.3634
" />
<path d="M92.9630 130.3634
L92.8916 130.2919
" />
<path d="M92.8916 130.2919
L92.8916 130.4348
" />
<path d="M93.4630 130.7919
L94.2487 130.7919
" />
<path d="M94.2487 130.7919
L93.4630 131.7919
" />
<path d="M93.4630 131.7919
L94.2487 131.7919
" />
<path d="M95.3916 131.7205
L95.2487 131.7919
" />
<path d="M95.2487 131.7919
L94.9630 131.7919
" />
<path d="M94.9630 131.7919
L94.8202 131.7205
" />
<path d="M94.8202 131.7205
L94.7487 131.5776
" />
<path d="M94.7487 131.5776
L94.7487 131.0062
" />
<path d="M94.7487 131.0062
L94.8202 130.8634
" />
<path d="M94.8202 130.8634
L94.9630 130.7919
" />
<path d="M94.9630 130.7919
L95.2487 130.7919
" />
<path d="M95.2487 130.7919
L95.3916 130.8634
" />
<path d="M95.3916 130.8634
L95.4630 131.0062
" />
<path d="M95.4630 131.0062
L95.4630 131.1491
" />
<path d="M95.4630 131.1491
L94.7487 131.2919
" />
<path d="M96.1059 131.6491
L96.1773 131.7205
" />
<path d="M96.1773 131.7205
L96.1059 131.7919
" />
<path d="M96.1059 131.7919
L96.0345 131.7205
" />
<path d="M96.0345 131.7205
L96.1059 131.6491
" />
<path d="M96.1059 131.6491
L96.1059 131.7919
" />
<path d="M96.1059 130.8634
L96.1773 130.9348
" />
<path d="M96.1773 130.9348
L96.1059 131.0062
" />
<path d="M96.1059 131.0062
L96.0345 130.9348
" />
<path d="M96.0345 130.9348
L96.1059 130.8634
" />
<path d="M96.1059 130.8634
L96.1059 131.0062
" />
<path d="M97.8916 131.3634
L98.6059 131.3634
" />
<path d="M97.7487 131.7919
L98.2487 130.2919
" />
<path d="M98.2487 130.2919
L98.7487 131.7919
" />
<path d="M99.9630 130.2919
L99.2487 130.2919
" />
<path d="M99.2487 130.2919
L99.1773 131.0062
" />
<path d="M99.1773 131.0062
L99.2487 130.9348
" />
<path d="M99.2487 130.9348
L99.3916 130.8634
" />
<path d="M99.3916 130.8634
L99.7487 130.8634
" />
<path d="M99.7487 130.8634
L99.8916 130.9348
" />
<path d="M99.8916 130.9348
L99.9630 131.0062
" />
<path d="M99.9630 131.0062
L100.0345 131.1491
" />
<path d="M100.0345 131.1491
L100.0345 131.5062
" />
<path d="M100.0345 131.5062
L99.9630 131.6491
" />
<path d="M99.9630 131.6491
L99.8916 131.7205
" />
<path d="M99.8916 131.7205
L99.7487 131.7919
" />
<path d="M99.7487 131.7919
L99.3916 131.7919
" />
<path d="M99.3916 131.7919
L99.2487 131.7205
" />
<path d="M99.2487 131.7205
L99.1773 131.6491
" />
</g></g>
<g style="fill:none; 
stroke:#000000; stroke-width:0.1500; stroke-opacity:1; 
stroke-linecap:round; stroke-linejoin:round;">
<text x="176.0072" y="134.6558"
textLength="7.0786" font-size="2.0000" lengthAdjust="spacingAndGlyphs"
text-anchor="start" opacity="0" stroke-opacity="0">Id: /1</text>
<g class="stroked-text"><desc>Id: /1</desc>
<path d="M176.4630 134.5919
L176.4630 133.0919
" />
<path d="M177.8202 134.5919
L177.8202 133.0919
" />
<path d="M177.8202 134.5205
L177.6773 134.5919
" />
<path d="M177.6773 134.5919
L177.3916 134.5919
" />
<path d="M177.3916 134.5919
L177.2487 134.5205
" />
<path d="M177.2487 134.5205
L177.1773 134.4491
" />
<path d="M177.1773 134.4491
L177.1059 134.3062
" />
<path d="M177.1059 134.3062
L177.1059 133.8776
" />
<path d="M177.1059 133.8776
L177.1773 133.7348
" />
<path d="M177.1773 133.7348
L177.2487 133.6634
" />
<path d="M177.2487 133.6634
L177.3916 133.5919
" />
<path d="M177.3916 133.5919
L177.6773 133.5919
" />
<path d="M177.6773 133.5919
L177.8202 133.6634
" />
<path d="M178.5345 134.4491
L178.6059 134.5205
" />
<path d="M178.6059 134.5205
L178.5345 134.5919
" />
<path d="M178.5345 134.5919
L178.4630 134.5205
" />
<path d="M178.4630 134.5205
L178.5345 134.4491
" />
<path d="M178.5345 134.4491
L178.5345 134.5919
" />
<path d="M178.5345 133.6634
L178.6059 133.7348
" />
<path d="M178.6059 133.7348
L178.5345 133.8062
" />
<path d="M178.5345 133.8062
L178.4630 133.7348
" />
<path d="M178.4630 133.7348
L178.5345 133.6634
" />
<path d="M178.5345 133.6634
L178.5345 133.8062
" />
<path d="M181.4630 133.0205
L180.1773 134.9491
" />
<path d="M182.7487 134.5919
L181.8916 134.5919
" />
<path d="M182.3202 134.5919
L182.3202 133.0919
" />
<path d="M182.3202 133.0919
L182.1773 133.3062
" />
<path d="M182.1773 133.3062
L182.0345 133.4491
" />
<path d="M182.0345 133.4491
L181.8916 133.5205
" />
</g></g>
<g style="fill:none; 
stroke:#000000; stroke-width:0.1500; stroke-opacity:1; 
stroke-linecap:round; stroke-linejoin:round;">
<path d="M90.0072 125.5058
L198.0072 125.5058
" />
</g>
<g style="fill:none; 
stroke:#000000; stroke-width:0.4000; stroke-opacity:1; 
stroke-linecap:round; stroke-linejoin:round;">
<text x="91.0072" y="128.3058"
textLength="9.6571" font-size="2.6667" lengthAdjust="spacingAndGlyphs"
text-anchor="start" opacity="0" stroke-opacity="0">Title: </text>
<g class="stroked-text"><desc>Title: </desc>
<path d="M91.6989 126.2102
L92.8418 126.2102
" />
<path d="M92.0204 128.2102
L92.2704 126.2102
" />
<path d="M93.2585 128.2102
L93.4251 126.8769
" />
<path d="M93.5085 126.2102
L93.4013 126.3055
" />
<path d="M93.4013 126.3055
L93.4846 126.4007
" />
<path d="M93.4846 126.4007
L93.5918 126.3055
" />
<path d="M93.5918 126.3055
L93.5085 126.2102
" />
<path d="M93.5085 126.2102
L93.4846 126.4007
" />
<path d="M94.0918 126.8769
L94.8537 126.8769
" />
<path d="M94.4608 126.2102
L94.2465 127.9245
" />
<path d="M94.2465 127.9245
L94.3180 128.1150
" />
<path d="M94.3180 128.1150
L94.4965 128.2102
" />
<path d="M94.4965 128.2102
L94.6870 128.2102
" />
<path d="M95.6394 128.2102
L95.4608 128.1150
" />
<path d="M95.4608 128.1150
L95.3894 127.9245
" />
<path d="M95.3894 127.9245
L95.6037 126.2102
" />
<path d="M97.1751 128.1150
L96.9727 128.2102
" />
<path d="M96.9727 128.2102
L96.5918 128.2102
" />
<path d="M96.5918 128.2102
L96.4132 128.1150
" />
<path d="M96.4132 128.1150
L96.3418 127.9245
" />
<path d="M96.3418 127.9245
L96.4370 127.1626
" />
<path d="M96.4370 127.1626
L96.5561 126.9721
" />
<path d="M96.5561 126.9721
L96.7585 126.8769
" />
<path d="M96.7585 126.8769
L97.1394 126.8769
" />
<path d="M97.1394 126.8769
L97.3180 126.9721
" />
<path d="M97.3180 126.9721
L97.3894 127.1626
" />
<path d="M97.3894 127.1626
L97.3656 127.3531
" />
<path d="M97.3656 127.3531
L96.3894 127.5436
" />
<path d="M98.1394 128.0198
L98.2227 128.1150
" />
<path d="M98.2227 128.1150
L98.1156 128.2102
" />
<path d="M98.1156 128.2102
L98.0323 128.1150
" />
<path d="M98.0323 128.1150
L98.1394 128.0198
" />
<path d="M98.1394 128.0198
L98.1156 128.2102
" />
<path d="M98.2704 126.9721
L98.3537 127.0674
" />
<path d="M98.3537 127.0674
L98.2465 127.1626
" />
<path d="M98.2465 127.1626
L98.1632 127.0674
" />
<path d="M98.1632 127.0674
L98.2704 126.9721
" />
<path d="M98.2704 126.9721
L98.2465 127.1626
" />
</g></g>
<g style="fill:none; 
stroke:#000000; stroke-width:0.1500; stroke-opacity:1; 
stroke-linecap:round; stroke-linejoin:round;">
<text x="91.0072" y="124.4558"
textLength="36.7929" font-size="2.0000" lengthAdjust="spacingAndGlyphs"
text-anchor="start" opacity="0" stroke-opacity="0">File: modulo_seguidor.kicad_pcb</text>
<g class="stroked-text"><desc>File: modulo_seguidor.kicad_pcb</desc>
<path d="M91.9630 123.6062
L91.4630 123.6062
" />
<path d="M91.4630 124.3919
L91.4630 122.8919
" />
<path d="M91.4630 122.8919
L92.1773 122.8919
" />
<path d="M92.7487 124.3919
L92.7487 123.3919
" />
<path d="M92.7487 122.8919
L92.6773 122.9634
" />
<path d="M92.6773 122.9634
L92.7487 123.0348
" />
<path d="M92.7487 123.0348
L92.8202 122.9634
" />
<path d="M92.8202 122.9634
L92.7487 122.8919
" />
<path d="M92.7487 122.8919
L92.7487 123.0348
" />
<path d="M93.6773 124.3919
L93.5345 124.3205
" />
<path d="M93.5345 124.3205
L93.4630 124.1776
" />
<path d="M93.4630 124.1776
L93.4630 122.8919
" />
<path d="M94.8202 124.3205
L94.6773 124.3919
" />
<path d="M94.6773 124.3919
L94.3916 124.3919
" />
<path d="M94.3916 124.3919
L94.2487 124.3205
" />
<path d="M94.2487 124.3205
L94.1773 124.1776
" />
<path d="M94.1773 124.1776
L94.1773 123.6062
" />
<path d="M94.1773 123.6062
L94.2487 123.4634
" />
<path d="M94.2487 123.4634
L94.3916 123.3919
" />
<path d="M94.3916 123.3919
L94.6773 123.3919
" />
<path d="M94.6773 123.3919
L94.8202 123.4634
" />
<path d="M94.8202 123.4634
L94.8916 123.6062
" />
<path d="M94.8916 123.6062
L94.8916 123.7491
" />
<path d="M94.8916 123.7491
L94.1773 123.8919
" />
<path d="M95.5345 124.2491
L95.6059 124.3205
" />
<path d="M95.6059 124.3205
L95.5345 124.3919
" />
<path d="M95.5345 124.3919
L95.4630 124.3205
" />
<path d="M95.4630 124.3205
L95.5345 124.2491
" />
<path d="M95.5345 124.2491
L95.5345 124.3919
" />
<path d="M95.5345 123.4634
L95.6059 123.5348
" />
<path d="M95.6059 123.5348
L95.5345 123.6062
" />
<path d="M95.5345 123.6062
L95.4630 123.5348
" />
<path d="M95.4630 123.5348
L95.5345 123.4634
" />
<path d="M95.5345 123.4634
L95.5345 123.6062
" />
<path d="M97.3916 124.3919
L97.3916 123.3919
" />
<path d="M97.3916 123.5348
L97.4630 123.4634
" />
<path d="M97.4630 123.4634
L97.6059 123.3919
" />
<path d="M97.6059 123.3919
L97.8202 123.3919
" />
<path d="M97.8202 123.3919
L97.9630 123.4634
" />
<path d="M97.9630 123.4634
L98.0345 123.6062
" />
<path d="M98.0345 123.6062
L98.0345 124.3919
" />
<path d="M98.0345 123.6062
L98.1059 123.4634
" />
<path d="M98.1059 123.4634
L98.2487 123.3919
" />
<path d="M98.2487 123.3919
L98.4630 123.3919
" />
<path d="M98.4630 123.3919
L98.6059 123.4634
" />
<path d="M98.6059 123.4634
L98.6773 123.6062
" />
<path d="M98.6773 123.6062
L98.6773 124.3919
" />
<path d="M99.6059 124.3919
L99.4630 124.3205
" />
<path d="M99.4630 124.3205
L99.3916 124.2491
" />
<path d="M99.3916 124.2491
L99.3202 124.1062
" />
<path d="M99.3202 124.1062
L99.3202 123.6776
" />
<path d="M99.3202 123.6776
L99.3916 123.5348
" />
<path d="M99.3916 123.5348
L99.4630 123.4634
" />
<path d="M99.4630 123.4634
L99.6059 123.3919
" />
<path d="M99.6059 123.3919
L99.8202 123.3919
" />
<path d="M99.8202 123.3919
L99.9630 123.4634
" />
<path d="M99.9630 123.4634
L100.0345 123.5348
" />
<path d="M100.0345 123.5348
L100.1059 123.6776
" />
<path d="M100.1059 123.6776
L100.1059 124.1062
" />
<path d="M100.1059 124.1062
L100.0345 124.2491
" />
<path d="M100.0345 124.2491
L99.9630 124.3205
" />
<path d="M99.9630 124.3205
L99.8202 124.3919
" />
<path d="M99.8202 124.3919
L99.6059 124.3919
" />
<path d="M101.3916 124.3919
L101.3916 122.8919
" />
<path d="M101.3916 124.3205
L101.2487 124.3919
" />
<path d="M101.2487 124.3919
L100.9630 124.3919
" />
<path d="M100.9630 124.3919
L100.8202 124.3205
" />
<path d="M100.8202 124.3205
L100.7487 124.2491
" />
<path d="M100.7487 124.2491
L100.6773 124.1062
" />
<path d="M100.6773 124.1062
L100.6773 123.6776
" />
<path d="M100.6773 123.6776
L100.7487 123.5348
" />
<path d="M100.7487 123.5348
L100.8202 123.4634
" />
<path d="M100.8202 123.4634
L100.9630 123.3919
" />
<path d="M100.9630 123.3919
L101.2487 123.3919
" />
<path d="M101.2487 123.3919
L101.3916 123.4634
" />
<path d="M102.7487 123.3919
L102.7487 124.3919
" />
<path d="M102.1059 123.3919
L102.1059 124.1776
" />
<path d="M102.1059 124.1776
L102.1773 124.3205
" />
<path d="M102.1773 124.3205
L102.3202 124.3919
" />
<path d="M102.3202 124.3919
L102.5345 124.3919
" />
<path d="M102.5345 124.3919
L102.6773 124.3205
" />
<path d="M102.6773 124.3205
L102.7487 124.2491
" />
<path d="M103.6773 124.3919
L103.5345 124.3205
" />
<path d="M103.5345 124.3205
L103.4630 124.1776
" />
<path d="M103.4630 124.1776
L103.4630 122.8919
" />
<path d="M104.4630 124.3919
L104.3202 124.3205
" />
<path d="M104.3202 124.3205
L104.2487 124.2491
" />
<path d="M104.2487 124.2491
L104.1773 124.1062
" />
<path d="M104.1773 124.1062
L104.1773 123.6776
" />
<path d="M104.1773 123.6776
L104.2487 123.5348
" />
<path d="M104.2487 123.5348
L104.3202 123.4634
" />
<path d="M104.3202 123.4634
L104.4630 123.3919
" />
<path d="M104.4630 123.3919
L104.6773 123.3919
" />
<path d="M104.6773 123.3919
L104.8202 123.4634
" />
<path d="M104.8202 123.4634
L104.8916 123.5348
" />
<path d="M104.8916 123.5348
L104.9630 123.6776
" />
<path d="M104.9630 123.6776
L104.9630 124.1062
" />
<path d="M104.9630 124.1062
L104.8916 124.2491
" />
<path d="M104.8916 124.2491
L104.8202 124.3205
" />
<path d="M104.8202 124.3205
L104.6773 124.3919
" />
<path d="M104.6773 124.3919
L104.4630 124.3919
" />
<path d="M105.2487 124.5348
L106.3916 124.5348
" />
<path d="M106.6773 124.3205
L106.8202 124.3919
" />
<path d="M106.8202 124.3919
L107.1059 124.3919
" />
<path d="M107.1059 124.3919
L107.2487 124.3205
" />
<path d="M107.2487 124.3205
L107.3202 124.1776
" />
<path d="M107.3202 124.1776
L107.3202 124.1062
" />
<path d="M107.3202 124.1062
L107.2487 123.9634
" />
<path d="M107.2487 123.9634
L107.1059 123.8919
" />
<path d="M107.1059 123.8919
L106.8916 123.8919
" />
<path d="M106.8916 123.8919
L106.7487 123.8205
" />
<path d="M106.7487 123.8205
L106.6773 123.6776
" />
<path d="M106.6773 123.6776
L106.6773 123.6062
" />
<path d="M106.6773 123.6062
L106.7487 123.4634
" />
<path d="M106.7487 123.4634
L106.8916 123.3919
" />
<path d="M106.8916 123.3919
L107.1059 123.3919
" />
<path d="M107.1059 123.3919
L107.2487 123.4634
" />
<path d="M108.5345 124.3205
L108.3916 124.3919
" />
<path d="M108.3916 124.3919
L108.1059 124.3919
" />
<path d="M108.1059 124.3919
L107.9630 124.3205
" />
<path d="M107.9630 124.3205
L107.8916 124.1776
" />
<path d="M107.8916 124.1776
L107.8916 123.6062
" />
<path d="M107.8916 123.6062
L107.9630 123.4634
" />
<path d="M107.9630 123.4634
L108.1059 123.3919
" />
<path d="M108.1059 123.3919
L108.3916 123.3919
" />
<path d="M108.3916 123.3919
L108.5345 123.4634
" />
<path d="M108.5345 123.4634
L108.6059 123.6062
" />
<path d="M108.6059 123.6062
L108.6059 123.7491
" />
<path d="M108.6059 123.7491
L107.8916 123.8919
" />
<path d="M109.8916 123.3919
L109.8916 124.6062
" />
<path d="M109.8916 124.6062
L109.8202 124.7491
" />
<path d="M109.8202 124.7491
L109.7487 124.8205
" />
<path d="M109.7487 124.8205
L109.6059 124.8919
" />
<path d="M109.6059 124.8919
L109.3916 124.8919
" />
<path d="M109.3916 124.8919
L109.2487 124.8205
" />
<path d="M109.8916 124.3205
L109.7487 124.3919
" />
<path d="M109.7487 124.3919
L109.4630 124.3919
" />
<path d="M109.4630 124.3919
L109.3202 124.3205
" />
<path d="M109.3202 124.3205
L109.2487 124.2491
" />
<path d="M109.2487 124.2491
L109.1773 124.1062
" />
<path d="M109.1773 124.1062
L109.1773 123.6776
" />
<path d="M109.1773 123.6776
L109.2487 123.5348
" />
<path d="M109.2487 123.5348
L109.3202 123.4634
" />
<path d="M109.3202 123.4634
L109.4630 123.3919
" />
<path d="M109.4630 123.3919
L109.7487 123.3919
" />
<path d="M109.7487 123.3919
L109.8916 123.4634
" />
<path d="M111.2487 123.3919
L111.2487 124.3919
" />
<path d="M110.6059 123.3919
L110.6059 124.1776
" />
<path d="M110.6059 124.1776
L110.6773 124.3205
" />
<path d="M110.6773 124.3205
L110.8202 124.3919
" />
<path d="M110.8202 124.3919
L111.0345 124.3919
" />
<path d="M111.0345 124.3919
L111.1773 124.3205
" />
<path d="M111.1773 124.3205
L111.2487 124.2491
" />
<path d="M111.9630 124.3919
L111.9630 123.3919
" />
<path d="M111.9630 122.8919
L111.8916 122.9634
" />
<path d="M111.8916 122.9634
L111.9630 123.0348
" />
<path d="M111.9630 123.0348
L112.0345 122.9634
" />
<path d="M112.0345 122.9634
L111.9630 122.8919
" />
<path d="M111.9630 122.8919
L111.9630 123.0348
" />
<path d="M113.3202 124.3919
L113.3202 122.8919
" />
<path d="M113.3202 124.3205
L113.1773 124.3919
" />
<path d="M113.1773 124.3919
L112.8916 124.3919
" />
<path d="M112.8916 124.3919
L112.7487 124.3205
" />
<path d="M112.7487 124.3205
L112.6773 124.2491
" />
<path d="M112.6773 124.2491
L112.6059 124.1062
" />
<path d="M112.6059 124.1062
L112.6059 123.6776
" />
<path d="M112.6059 123.6776
L112.6773 123.5348
" />
<path d="M112.6773 123.5348
L112.7487 123.4634
" />
<path d="M112.7487 123.4634
L112.8916 123.3919
" />
<path d="M112.8916 123.3919
L113.1773 123.3919
" />
<path d="M113.1773 123.3919
L113.3202 123.4634
" />
<path d="M114.2487 124.3919
L114.1059 124.3205
" />
<path d="M114.1059 124.3205
L114.0345 124.2491
" />
<path d="M114.0345 124.2491
L113.9630 124.1062
" />
<path d="M113.9630 124.1062
L113.9630 123.6776
" />
<path d="M113.9630 123.6776
L114.0345 123.5348
" />
<path d="M114.0345 123.5348
L114.1059 123.4634
" />
<path d="M114.1059 123.4634
L114.2487 123.3919
" />
<path d="M114.2487 123.3919
L114.4630 123.3919
" />
<path d="M114.4630 123.3919
L114.6059 123.4634
" />
<path d="M114.6059 123.4634
L114.6773 123.5348
" />
<path d="M114.6773 123.5348
L114.7487 123.6776
" />
<path d="M114.7487 123.6776
L114.7487 124.1062
" />
<path d="M114.7487 124.1062
L114.6773 124.2491
" />
<path d="M114.6773 124.2491
L114.6059 124.3205
" />
<path d="M114.6059 124.3205
L114.4630 124.3919
" />
<path d="M114.4630 124.3919
L114.2487 124.3919
" />
<path d="M115.3916 124.3919
L115.3916 123.3919
" />
<path d="M115.3916 123.6776
L115.4630 123.5348
" />
<path d="M115.4630 123.5348
L115.5345 123.4634
" />
<path d="M115.5345 123.4634
L115.6773 123.3919
" />
<path d="M115.6773 123.3919
L115.8202 123.3919
" />
<path d="M116.3202 124.2491
L116.3916 124.3205
" />
<path d="M116.3916 124.3205
L116.3202 124.3919
" />
<path d="M116.3202 124.3919
L116.2487 124.3205
" />
<path d="M116.2487 124.3205
L116.3202 124.2491
" />
<path d="M116.3202 124.2491
L116.3202 124.3919
" />
<path d="M117.0345 124.3919
L117.0345 122.8919
" />
<path d="M117.1773 123.8205
L117.6059 124.3919
" />
<path d="M117.6059 123.3919
L117.0345 123.9634
" />
<path d="M118.2487 124.3919
L118.2487 123.3919
" />
<path d="M118.2487 122.8919
L118.1773 122.9634
" />
<path d="M118.1773 122.9634
L118.2487 123.0348
" />
<path d="M118.2487 123.0348
L118.3202 122.9634
" />
<path d="M118.3202 122.9634
L118.2487 122.8919
" />
<path d="M118.2487 122.8919
L118.2487 123.0348
" />
<path d="M119.6059 124.3205
L119.4630 124.3919
" />
<path d="M119.4630 124.3919
L119.1773 124.3919
" />
<path d="M119.1773 124.3919
L119.0345 124.3205
" />
<path d="M119.0345 124.3205
L118.9630 124.2491
" />
<path d="M118.9630 124.2491
L118.8916 124.1062
" />
<path d="M118.8916 124.1062
L118.8916 123.6776
" />
<path d="M118.8916 123.6776
L118.9630 123.5348
" />
<path d="M118.9630 123.5348
L119.0345 123.4634
" />
<path d="M119.0345 123.4634
L119.1773 123.3919
" />
<path d="M119.1773 123.3919
L119.4630 123.3919
" />
<path d="M119.4630 123.3919
L119.6059 123.4634
" />
<path d="M120.8916 124.3919
L120.8916 123.6062
" />
<path d="M120.8916 123.6062
L120.8202 123.4634
" />
<path d="M120.8202 123.4634
L120.6773 123.3919
" />
<path d="M120.6773 123.3919
L120.3916 123.3919
" />
<path d="M120.3916 123.3919
L120.2487 123.4634
" />
<path d="M120.8916 124.3205
L120.7487 124.3919
" />
<path d="M120.7487 124.3919
L120.3916 124.3919
" />
<path d="M120.3916 124.3919
L120.2487 124.3205
" />
<path d="M120.2487 124.3205
L120.1773 124.1776
" />
<path d="M120.1773 124.1776
L120.1773 124.0348
" />
<path d="M120.1773 124.0348
L120.2487 123.8919
" />
<path d="M120.2487 123.8919
L120.3916 123.8205
" />
<path d="M120.3916 123.8205
L120.7487 123.8205
" />
<path d="M120.7487 123.8205
L120.8916 123.7491
" />
<path d="M122.2487 124.3919
L122.2487 122.8919
" />
<path d="M122.2487 124.3205
L122.1059 124.3919
" />
<path d="M122.1059 124.3919
L121.8202 124.3919
" />
<path d="M121.8202 124.3919
L121.6773 124.3205
" />
<path d="M121.6773 124.3205
L121.6059 124.2491
" />
<path d="M121.6059 124.2491
L121.5345 124.1062
" />
<path d="M121.5345 124.1062
L121.5345 123.6776
" />
<path d="M121.5345 123.6776
L121.6059 123.5348
" />
<path d="M121.6059 123.5348
L121.6773 123.4634
" />
<path d="M121.6773 123.4634
L121.8202 123.3919
" />
<path d="M121.8202 123.3919
L122.1059 123.3919
" />
<path d="M122.1059 123.3919
L122.2487 123.4634
" />
<path d="M122.6059 124.5348
L123.7487 124.5348
" />
<path d="M124.1059 123.3919
L124.1059 124.8919
" />
<path d="M124.1059 123.4634
L124.2487 123.3919
" />
<path d="M124.2487 123.3919
L124.5345 123.3919
" />
<path d="M124.5345 123.3919
L124.6773 123.4634
" />
<path d="M124.6773 123.4634
L124.7487 123.5348
" />
<path d="M124.7487 123.5348
L124.8202 123.6776
" />
<path d="M124.8202 123.6776
L124.8202 124.1062
" />
<path d="M124.8202 124.1062
L124.7487 124.2491
" />
<path d="M124.7487 124.2491
L124.6773 124.3205
" />
<path d="M124.6773 124.3205
L124.5345 124.3919
" />
<path d="M124.5345 124.3919
L124.2487 124.3919
" />
<path d="M124.2487 124.3919
L124.1059 124.3205
" />
<path d="M126.1059 124.3205
L125.9630 124.3919
" />
<path d="M125.9630 124.3919
L125.6773 124.3919
" />
<path d="M125.6773 124.3919
L125.5345 124.3205
" />
<path d="M125.5345 124.3205
L125.4630 124.2491
" />
<path d="M125.4630 124.2491
L125.3916 124.1062
" />
<path d="M125.3916 124.1062
L125.3916 123.6776
" />
<path d="M125.3916 123.6776
L125.4630 123.5348
" />
<path d="M125.4630 123.5348
L125.5345 123.4634
" />
<path d="M125.5345 123.4634
L125.6773 123.3919
" />
<path d="M125.6773 123.3919
L125.9630 123.3919
" />
<path d="M125.9630 123.3919
L126.1059 123.4634
" />
<path d="M126.7487 124.3919
L126.7487 122.8919
" />
<path d="M126.7487 123.4634
L126.8916 123.3919
" />
<path d="M126.8916 123.3919
L127.1773 123.3919
" />
<path d="M127.1773 123.3919
L127.3202 123.4634
" />
<path d="M127.3202 123.4634
L127.3916 123.5348
" />
<path d="M127.3916 123.5348
L127.4630 123.6776
" />
<path d="M127.4630 123.6776
L127.4630 124.1062
" />
<path d="M127.4630 124.1062
L127.3916 124.2491
" />
<path d="M127.3916 124.2491
L127.3202 124.3205
" />
<path d="M127.3202 124.3205
L127.1773 124.3919
" />
<path d="M127.1773 124.3919
L126.8916 124.3919
" />
<path d="M126.8916 124.3919
L126.7487 124.3205
" />
</g></g>
<g style="fill:none; 
stroke:#000000; stroke-width:0.1500; stroke-opacity:1; 
stroke-linecap:round; stroke-linejoin:round;">
<path d="M90.0072 119.5058
L198.0072 119.5058
" />
</g>
<g style="fill:none; 
stroke:#000000; stroke-width:0.1500; stroke-opacity:1; 
stroke-linecap:round; stroke-linejoin:round;">
<text x="91.0072" y="121.7558"
textLength="8.2214" font-size="2.0000" lengthAdjust="spacingAndGlyphs"
text-anchor="start" opacity="0" stroke-opacity="0">Sheet: </text>
<g class="stroked-text"><desc>Sheet: </desc>
<path d="M91.3916 121.6205
L91.6059 121.6919
" />
<path d="M91.6059 121.6919
L91.9630 121.6919
" />
<path d="M91.9630 121.6919
L92.1059 121.6205
" />
<path d="M92.1059 121.6205
L92.1773 121.5491
" />
<path d="M92.1773 121.5491
L92.2487 121.4062
" />
<path d="M92.2487 121.4062
L92.2487 121.2634
" />
<path d="M92.2487 121.2634
L92.1773 121.1205
" />
<path d="M92.1773 121.1205
L92.1059 121.0491
" />
<path d="M92.1059 121.0491
L91.9630 120.9776
" />
<path d="M91.9630 120.9776
L91.6773 120.9062
" />
<path d="M91.6773 120.9062
L91.5345 120.8348
" />
<path d="M91.5345 120.8348
L91.4630 120.7634
" />
<path d="M91.4630 120.7634
L91.3916 120.6205
" />
<path d="M91.3916 120.6205
L91.3916 120.4776
" />
<path d="M91.3916 120.4776
L91.4630 120.3348
" />
<path d="M91.4630 120.3348
L91.5345 120.2634
" />
<path d="M91.5345 120.2634
L91.6773 120.1919
" />
<path d="M91.6773 120.1919
L92.0345 120.1919
" />
<path d="M92.0345 120.1919
L92.2487 120.2634
" />
<path d="M92.8916 121.6919
L92.8916 120.1919
" />
<path d="M93.5345 121.6919
L93.5345 120.9062
" />
<path d="M93.5345 120.9062
L93.4630 120.7634
" />
<path d="M93.4630 120.7634
L93.3202 120.6919
" />
<path d="M93.3202 120.6919
L93.1059 120.6919
" />
<path d="M93.1059 120.6919
L92.9630 120.7634
" />
<path d="M92.9630 120.7634
L92.8916 120.8348
" />
<path d="M94.8202 121.6205
L94.6773 121.6919
" />
<path d="M94.6773 121.6919
L94.3916 121.6919
" />
<path d="M94.3916 121.6919
L94.2487 121.6205
" />
<path d="M94.2487 121.6205
L94.1773 121.4776
" />
<path d="M94.1773 121.4776
L94.1773 120.9062
" />
<path d="M94.1773 120.9062
L94.2487 120.7634
" />
<path d="M94.2487 120.7634
L94.3916 120.6919
" />
<path d="M94.3916 120.6919
L94.6773 120.6919
" />
<path d="M94.6773 120.6919
L94.8202 120.7634
" />
<path d="M94.8202 120.7634
L94.8916 120.9062
" />
<path d="M94.8916 120.9062
L94.8916 121.0491
" />
<path d="M94.8916 121.0491
L94.1773 121.1919
" />
<path d="M96.1059 121.6205
L95.9630 121.6919
" />
<path d="M95.9630 121.6919
L95.6773 121.6919
" />
<path d="M95.6773 121.6919
L95.5345 121.6205
" />
<path d="M95.5345 121.6205
L95.4630 121.4776
" />
<path d="M95.4630 121.4776
L95.4630 120.9062
" />
<path d="M95.4630 120.9062
L95.5345 120.7634
" />
<path d="M95.5345 120.7634
L95.6773 120.6919
" />
<path d="M95.6773 120.6919
L95.9630 120.6919
" />
<path d="M95.9630 120.6919
L96.1059 120.7634
" />
<path d="M96.1059 120.7634
L96.1773 120.9062
" />
<path d="M96.1773 120.9062
L96.1773 121.0491
" />
<path d="M96.1773 121.0491
L95.4630 121.1919
" />
<path d="M96.6059 120.6919
L97.1773 120.6919
" />
<path d="M96.8202 120.1919
L96.8202 121.4776
" />
<path d="M96.8202 121.4776
L96.8916 121.6205
" />
<path d="M96.8916 121.6205
L97.0345 121.6919
" />
<path d="M97.0345 121.6919
L97.1773 121.6919
" />
<path d="M97.6773 121.5491
L97.7487 121.6205
" />
<path d="M97.7487 121.6205
L97.6773 121.6919
" />
<path d="M97.6773 121.6919
L97.6059 121.6205
" />
<path d="M97.6059 121.6205
L97.6773 121.5491
" />
<path d="M97.6773 121.5491
L97.6773 121.6919
" />
<path d="M97.6773 120.7634
L97.7487 120.8348
" />
<path d="M97.7487 120.8348
L97.6773 120.9062
" />
<path d="M97.6773 120.9062
L97.6059 120.8348
" />
<path d="M97.6059 120.8348
L97.6773 120.7634
" />
<path d="M97.6773 120.7634
L97.6773 120.9062
" />
</g></g>
<g style="fill:none; 
stroke:#000000; stroke-width:0.3000; stroke-opacity:1; 
stroke-linecap:round; stroke-linejoin:round;">
<text x="91.0072" y="118.7558"
textLength="0.9000" font-size="2.0000" lengthAdjust="spacingAndGlyphs"
text-anchor="start" opacity="0" stroke-opacity="0"></text>
<g class="stroked-text"><desc></desc>
</g></g>
<g style="fill:none; 
stroke:#000000; stroke-width:0.1500; stroke-opacity:1; 
stroke-linecap:round; stroke-linejoin:round;">
<text x="91.0072" y="115.7558"
textLength="0.4500" font-size="2.0000" lengthAdjust="spacingAndGlyphs"
text-anchor="start" opacity="0" stroke-opacity="0"></text>
<g class="stroked-text"><desc></desc>
</g></g>
<g style="fill:none; 
stroke:#000000; stroke-width:0.1500; stroke-opacity:1; 
stroke-linecap:round; stroke-linejoin:round;">
<text x="91.0072" y="112.7558"
textLength="0.4500" font-size="2.0000" lengthAdjust="spacingAndGlyphs"
text-anchor="start" opacity="0" stroke-opacity="0"></text>
<g class="stroked-text"><desc></desc>
</g></g>
<g style="fill:none; 
stroke:#000000; stroke-width:0.1500; stroke-opacity:1; 
stroke-linecap:round; stroke-linejoin:round;">
<text x="91.0072" y="109.7558"
textLength="0.4500" font-size="2.0000" lengthAdjust="spacingAndGlyphs"
text-anchor="start" opacity="0" stroke-opacity="0"></text>
<g class="stroked-text"><desc></desc>
</g></g>
<g style="fill:none; 
stroke:#000000; stroke-width:0.1500; stroke-opacity:1; 
stroke-linecap:round; stroke-linejoin:round;">
<text x="91.0072" y="106.7558"
textLength="0.4500" font-size="2.0000" lengthAdjust="spacingAndGlyphs"
text-anchor="start" opacity="0" stroke-opacity="0"></text>
<g class="stroked-text"><desc></desc>
</g></g>
<g style="fill:none; 
stroke:#000000; stroke-width:0.1500; stroke-opacity:1; 
stroke-linecap:round; stroke-linejoin:round;">
<path d="M110.0072 129.5058
L110.0072 132.5058
" />
</g>
<g style="fill:none; 
stroke:#000000; stroke-width:0.1500; stroke-opacity:1; 
stroke-linecap:round; stroke-linejoin:round;">
<path d="M174.0072 129.5058
L174.0072 136.0058
" />
<path style="fill:none; 
stroke:#000000; stroke-width:0.0500; stroke-opacity:1; 
stroke-linecap:round; stroke-linejoin:round;fill:none"
d="M 50.0000,50.0000
150.0000,50.0000
150.0000,100.0000
50.0000,100.0000
Z" /> 
</g>
<g style="fill:none; 
stroke:#000000; stroke-width:0.1500; stroke-opacity:1; 
stroke-linecap:round; stroke-linejoin:round;">
<g transform="rotate(-90.000000 59.3800 64.7700)">
<text x="59.3800" y="65.2700"
textLength="1.9643" font-size="1.3333" lengthAdjust="spacingAndGlyphs"
text-anchor="middle" opacity="0" stroke-opacity="0">J1</text>
</g>
<g class="stroked-text"><desc>J1</desc>
<path d="M58.8348 65.1033
L59.5491 65.1033
" />
<path d="M59.5491 65.1033
L59.6920 65.1510
" />
<path d="M59.6920 65.1510
L59.7872 65.2462
" />
<path d="M59.7872 65.2462
L59.8348 65.3890
" />
<path d="M59.8348 65.3890
L59.8348 65.4843
" />
<path d="M59.8348 64.1033
L59.8348 64.6748
" />
<path d="M59.8348 64.3890
L58.8348 64.3890
" />
<path d="M58.8348 64.3890
L58.9777 64.4843
" />
<path d="M58.9777 64.4843
L59.0729 64.5795
" />
<path d="M59.0729 64.5795
L59.1205 64.6748
" />
</g><text x="114.3000" y="87.0700"
textLength="1.9643" font-size="1.3333" lengthAdjust="spacingAndGlyphs"
text-anchor="middle" opacity="0" stroke-opacity="0">J4</text>
<g class="stroked-text"><desc>J4</desc>
<path d="M113.9667 86.0248
L113.9667 86.7391
" />
<path d="M113.9667 86.7391
L113.9190 86.8820
" />
<path d="M113.9190 86.8820
L113.8238 86.9772
" />
<path d="M113.8238 86.9772
L113.6810 87.0248
" />
<path d="M113.6810 87.0248
L113.5857 87.0248
" />
<path d="M114.8714 86.3582
L114.8714 87.0248
" />
<path d="M114.6333 85.9772
L114.3952 86.6915
" />
<path d="M114.3952 86.6915
L115.0143 86.6915
" />
</g><g transform="rotate(-90.000000 76.2000 73.6600)">
<text x="76.2000" y="74.1600"
textLength="2.0595" font-size="1.3333" lengthAdjust="spacingAndGlyphs"
text-anchor="middle" opacity="0" stroke-opacity="0">A2</text>
</g>
<g class="stroked-text"><desc>A2</desc>
<path d="M76.3691 74.3743
L76.3691 73.8981
" />
<path d="M76.6548 74.4695
L75.6548 74.1362
" />
<path d="M75.6548 74.1362
L76.6548 73.8029
" />
<path d="M75.7501 73.5171
L75.7024 73.4695
" />
<path d="M75.7024 73.4695
L75.6548 73.3743
" />
<path d="M75.6548 73.3743
L75.6548 73.1362
" />
<path d="M75.6548 73.1362
L75.7024 73.0410
" />
<path d="M75.7024 73.0410
L75.7501 72.9933
" />
<path d="M75.7501 72.9933
L75.8453 72.9457
" />
<path d="M75.8453 72.9457
L75.9405 72.9457
" />
<path d="M75.9405 72.9457
L76.0834 72.9933
" />
<path d="M76.0834 72.9933
L76.6548 73.5648
" />
<path d="M76.6548 73.5648
L76.6548 72.9457
" />
</g><text x="83.8200" y="79.8750"
textLength="2.2024" font-size="1.3333" lengthAdjust="spacingAndGlyphs"
text-anchor="middle" opacity="0" stroke-opacity="0">D0</text>
<g class="stroked-text"><desc>D0</desc>
<path d="M83.0819 79.8298
L83.0819 78.8298
" />
<path d="M83.0819 78.8298
L83.3200 78.8298
" />
<path d="M83.3200 78.8298
L83.4629 78.8774
" />
<path d="M83.4629 78.8774
L83.5581 78.9727
" />
<path d="M83.5581 78.9727
L83.6057 79.0679
" />
<path d="M83.6057 79.0679
L83.6533 79.2584
" />
<path d="M83.6533 79.2584
L83.6533 79.4012
" />
<path d="M83.6533 79.4012
L83.6057 79.5917
" />
<path d="M83.6057 79.5917
L83.5581 79.6870
" />
<path d="M83.5581 79.6870
L83.4629 79.7822
" />
<path d="M83.4629 79.7822
L83.3200 79.8298
" />
<path d="M83.3200 79.8298
L83.0819 79.8298
" />
<path d="M84.2724 78.8298
L84.3676 78.8298
" />
<path d="M84.3676 78.8298
L84.4629 78.8774
" />
<path d="M84.4629 78.8774
L84.5105 78.9251
" />
<path d="M84.5105 78.9251
L84.5581 79.0203
" />
<path d="M84.5581 79.0203
L84.6057 79.2108
" />
<path d="M84.6057 79.2108
L84.6057 79.4489
" />
<path d="M84.6057 79.4489
L84.5581 79.6393
" />
<path d="M84.5581 79.6393
L84.5105 79.7346
" />
<path d="M84.5105 79.7346
L84.4629 79.7822
" />
<path d="M84.4629 79.7822
L84.3676 79.8298
" />
<path d="M84.3676 79.8298
L84.2724 79.8298
" />
<path d="M84.2724 79.8298
L84.1771 79.7822
" />
<path d="M84.1771 79.7822
L84.1295 79.7346
" />
<path d="M84.1295 79.7346
L84.0819 79.6393
" />
<path d="M84.0819 79.6393
L84.0343 79.4489
" />
<path d="M84.0343 79.4489
L84.0343 79.2108
" />
<path d="M84.0343 79.2108
L84.0819 79.0203
" />
<path d="M84.0819 79.0203
L84.1295 78.9251
" />
<path d="M84.1295 78.9251
L84.1771 78.8774
" />
<path d="M84.1771 78.8774
L84.2724 78.8298
" />
</g><g transform="rotate(-90.000000 118.2600 57.1500)">
<text x="118.2600" y="57.6500"
textLength="2.2024" font-size="1.3333" lengthAdjust="spacingAndGlyphs"
text-anchor="middle" opacity="0" stroke-opacity="0">D1</text>
</g>
<g class="stroked-text"><desc>D1</desc>
<path d="M118.7148 57.8881
L117.7148 57.8881
" />
<path d="M117.7148 57.8881
L117.7148 57.6500
" />
<path d="M117.7148 57.6500
L117.7624 57.5071
" />
<path d="M117.7624 57.5071
L117.8577 57.4119
" />
<path d="M117.8577 57.4119
L117.9529 57.3643
" />
<path d="M117.9529 57.3643
L118.1434 57.3167
" />
<path d="M118.1434 57.3167
L118.2862 57.3167
" />
<path d="M118.2862 57.3167
L118.4767 57.3643
" />
<path d="M118.4767 57.3643
L118.5720 57.4119
" />
<path d="M118.5720 57.4119
L118.6672 57.5071
" />
<path d="M118.6672 57.5071
L118.7148 57.6500
" />
<path d="M118.7148 57.6500
L118.7148 57.8881
" />
<path d="M118.7148 56.3643
L118.7148 56.9357
" />
<path d="M118.7148 56.6500
L117.7148 56.6500
" />
<path d="M117.7148 56.6500
L117.8577 56.7452
" />
<path d="M117.8577 56.7452
L117.9529 56.8405
" />
<path d="M117.9529 56.8405
L118.0005 56.9357
" />
</g><text x="109.2200" y="87.0700"
textLength="1.9643" font-size="1.3333" lengthAdjust="spacingAndGlyphs"
text-anchor="middle" opacity="0" stroke-opacity="0">J5</text>
<g class="stroked-text"><desc>J5</desc>
<path d="M108.8867 86.0248
L108.8867 86.7391
" />
<path d="M108.8867 86.7391
L108.8390 86.8820
" />
<path d="M108.8390 86.8820
L108.7438 86.9772
" />
<path d="M108.7438 86.9772
L108.6010 87.0248
" />
<path d="M108.6010 87.0248
L108.5057 87.0248
" />
<path d="M109.8390 86.0248
L109.3629 86.0248
" />
<path d="M109.3629 86.0248
L109.3152 86.5010
" />
<path d="M109.3152 86.5010
L109.3629 86.4534
" />
<path d="M109.3629 86.4534
L109.4581 86.4058
" />
<path d="M109.4581 86.4058
L109.6962 86.4058
" />
<path d="M109.6962 86.4058
L109.7914 86.4534
" />
<path d="M109.7914 86.4534
L109.8390 86.5010
" />
<path d="M109.8390 86.5010
L109.8867 86.5962
" />
<path d="M109.8867 86.5962
L109.8867 86.8343
" />
<path d="M109.8867 86.8343
L109.8390 86.9296
" />
<path d="M109.8390 86.9296
L109.7914 86.9772
" />
<path d="M109.7914 86.9772
L109.6962 87.0248
" />
<path d="M109.6962 87.0248
L109.4581 87.0248
" />
<path d="M109.4581 87.0248
L109.3629 86.9772
" />
<path d="M109.3629 86.9772
L109.3152 86.9296
" />
</g><g transform="rotate(-90.000000 73.6200 63.5400)">
<text x="73.6200" y="64.0400"
textLength="2.2024" font-size="1.3333" lengthAdjust="spacingAndGlyphs"
text-anchor="middle" opacity="0" stroke-opacity="0">C1</text>
</g>
<g class="stroked-text"><desc>C1</desc>
<path d="M73.9796 63.7067
L74.0272 63.7543
" />
<path d="M74.0272 63.7543
L74.0748 63.8971
" />
<path d="M74.0748 63.8971
L74.0748 63.9924
" />
<path d="M74.0748 63.9924
L74.0272 64.1352
" />
<path d="M74.0272 64.1352
L73.9320 64.2305
" />
<path d="M73.9320 64.2305
L73.8367 64.2781
" />
<path d="M73.8367 64.2781
L73.6462 64.3257
" />
<path d="M73.6462 64.3257
L73.5034 64.3257
" />
<path d="M73.5034 64.3257
L73.3129 64.2781
" />
<path d="M73.3129 64.2781
L73.2177 64.2305
" />
<path d="M73.2177 64.2305
L73.1224 64.1352
" />
<path d="M73.1224 64.1352
L73.0748 63.9924
" />
<path d="M73.0748 63.9924
L73.0748 63.8971
" />
<path d="M73.0748 63.8971
L73.1224 63.7543
" />
<path d="M73.1224 63.7543
L73.1701 63.7067
" />
<path d="M74.0748 62.7543
L74.0748 63.3257
" />
<path d="M74.0748 63.0400
L73.0748 63.0400
" />
<path d="M73.0748 63.0400
L73.2177 63.1352
" />
<path d="M73.2177 63.1352
L73.3129 63.2305
" />
<path d="M73.3129 63.2305
L73.3605 63.3257
" />
</g><text x="151.7050" y="64.2700"
textLength="1.9643" font-size="1.3333" lengthAdjust="spacingAndGlyphs"
text-anchor="middle" opacity="0" stroke-opacity="0">J6</text>
<g class="stroked-text"><desc>J6</desc>
<path d="M151.3717 63.2248
L151.3717 63.9391
" />
<path d="M151.3717 63.9391
L151.3240 64.0820
" />
<path d="M151.3240 64.0820
L151.2288 64.1772
" />
<path d="M151.2288 64.1772
L151.0860 64.2248
" />
<path d="M151.0860 64.2248
L150.9907 64.2248
" />
<path d="M152.2764 63.2248
L152.0860 63.2248
" />
<path d="M152.0860 63.2248
L151.9907 63.2724
" />
<path d="M151.9907 63.2724
L151.9431 63.3201
" />
<path d="M151.9431 63.3201
L151.8479 63.4629
" />
<path d="M151.8479 63.4629
L151.8002 63.6534
" />
<path d="M151.8002 63.6534
L151.8002 64.0343
" />
<path d="M151.8002 64.0343
L151.8479 64.1296
" />
<path d="M151.8479 64.1296
L151.8955 64.1772
" />
<path d="M151.8955 64.1772
L151.9907 64.2248
" />
<path d="M151.9907 64.2248
L152.1812 64.2248
" />
<path d="M152.1812 64.2248
L152.2764 64.1772
" />
<path d="M152.2764 64.1772
L152.3240 64.1296
" />
<path d="M152.3240 64.1296
L152.3717 64.0343
" />
<path d="M152.3717 64.0343
L152.3717 63.7962
" />
<path d="M152.3717 63.7962
L152.3240 63.7010
" />
<path d="M152.3240 63.7010
L152.2764 63.6534
" />
<path d="M152.2764 63.6534
L152.1812 63.6058
" />
<path d="M152.1812 63.6058
L151.9907 63.6058
" />
<path d="M151.9907 63.6058
L151.8955 63.6534
" />
<path d="M151.8955 63.6534
L151.8479 63.7010
" />
<path d="M151.8479 63.7010
L151.8002 63.7962
" />
</g><text x="127.0000" y="53.4600"
textLength="2.2024" font-size="1.3333" lengthAdjust="spacingAndGlyphs"
text-anchor="middle" opacity="0" stroke-opacity="0">R2</text>
<g class="stroked-text"><desc>R2</desc>
<path d="M126.8333 53.4148
L126.5000 52.9386
" />
<path d="M126.2619 53.4148
L126.2619 52.4148
" />
<path d="M126.2619 52.4148
L126.6429 52.4148
" />
<path d="M126.6429 52.4148
L126.7381 52.4624
" />
<path d="M126.7381 52.4624
L126.7857 52.5101
" />
<path d="M126.7857 52.5101
L126.8333 52.6053
" />
<path d="M126.8333 52.6053
L126.8333 52.7482
" />
<path d="M126.8333 52.7482
L126.7857 52.8434
" />
<path d="M126.7857 52.8434
L126.7381 52.8910
" />
<path d="M126.7381 52.8910
L126.6429 52.9386
" />
<path d="M126.6429 52.9386
L126.2619 52.9386
" />
<path d="M127.2143 52.5101
L127.2619 52.4624
" />
<path d="M127.2619 52.4624
L127.3571 52.4148
" />
<path d="M127.3571 52.4148
L127.5952 52.4148
" />
<path d="M127.5952 52.4148
L127.6905 52.4624
" />
<path d="M127.6905 52.4624
L127.7381 52.5101
" />
<path d="M127.7381 52.5101
L127.7857 52.6053
" />
<path d="M127.7857 52.6053
L127.7857 52.7005
" />
<path d="M127.7857 52.7005
L127.7381 52.8434
" />
<path d="M127.7381 52.8434
L127.1667 53.4148
" />
<path d="M127.1667 53.4148
L127.7857 53.4148
" />
</g><text x="83.8200" y="89.0200"
textLength="2.2024" font-size="1.3333" lengthAdjust="spacingAndGlyphs"
text-anchor="middle" opacity="0" stroke-opacity="0">R1</text>
<g class="stroked-text"><desc>R1</desc>
<path d="M83.6533 88.9748
L83.3200 88.4986
" />
<path d="M83.0819 88.9748
L83.0819 87.9748
" />
<path d="M83.0819 87.9748
L83.4629 87.9748
" />
<path d="M83.4629 87.9748
L83.5581 88.0224
" />
<path d="M83.5581 88.0224
L83.6057 88.0701
" />
<path d="M83.6057 88.0701
L83.6533 88.1653
" />
<path d="M83.6533 88.1653
L83.6533 88.3082
" />
<path d="M83.6533 88.3082
L83.6057 88.4034
" />
<path d="M83.6057 88.4034
L83.5581 88.4510
" />
<path d="M83.5581 88.4510
L83.4629 88.4986
" />
<path d="M83.4629 88.4986
L83.0819 88.4986
" />
<path d="M84.6057 88.9748
L84.0343 88.9748
" />
<path d="M84.3200 88.9748
L84.3200 87.9748
" />
<path d="M84.3200 87.9748
L84.2248 88.1177
" />
<path d="M84.2248 88.1177
L84.1295 88.2129
" />
<path d="M84.1295 88.2129
L84.0343 88.2605
" />
</g><g transform="rotate(-90.000000 104.1800 55.9200)">
<text x="104.1800" y="56.4200"
textLength="2.2024" font-size="1.3333" lengthAdjust="spacingAndGlyphs"
text-anchor="middle" opacity="0" stroke-opacity="0">C2</text>
</g>
<g class="stroked-text"><desc>C2</desc>
<path d="M104.5396 56.0867
L104.5872 56.1343
" />
<path d="M104.5872 56.1343
L104.6348 56.2771
" />
<path d="M104.6348 56.2771
L104.6348 56.3724
" />
<path d="M104.6348 56.3724
L104.5872 56.5152
" />
<path d="M104.5872 56.5152
L104.4920 56.6105
" />
<path d="M104.4920 56.6105
L104.3967 56.6581
" />
<path d="M104.3967 56.6581
L104.2062 56.7057
" />
<path d="M104.2062 56.7057
L104.0634 56.7057
" />
<path d="M104.0634 56.7057
L103.8729 56.6581
" />
<path d="M103.8729 56.6581
L103.7777 56.6105
" />
<path d="M103.7777 56.6105
L103.6824 56.5152
" />
<path d="M103.6824 56.5152
L103.6348 56.3724
" />
<path d="M103.6348 56.3724
L103.6348 56.2771
" />
<path d="M103.6348 56.2771
L103.6824 56.1343
" />
<path d="M103.6824 56.1343
L103.7301 56.0867
" />
<path d="M103.7301 55.7057
L103.6824 55.6581
" />
<path d="M103.6824 55.6581
L103.6348 55.5629
" />
<path d="M103.6348 55.5629
L103.6348 55.3248
" />
<path d="M103.6348 55.3248
L103.6824 55.2295
" />
<path d="M103.6824 55.2295
L103.7301 55.1819
" />
<path d="M103.7301 55.1819
L103.8253 55.1343
" />
<path d="M103.8253 55.1343
L103.9205 55.1343
" />
<path d="M103.9205 55.1343
L104.0634 55.1819
" />
<path d="M104.0634 55.1819
L104.6348 55.7533
" />
<path d="M104.6348 55.7533
L104.6348 55.1343
" />
</g><g transform="rotate(-90.000000 92.0700 56.7100)">
<text x="92.0700" y="57.2100"
textLength="2.2500" font-size="1.3333" lengthAdjust="spacingAndGlyphs"
text-anchor="middle" opacity="0" stroke-opacity="0">U1</text>
</g>
<g class="stroked-text"><desc>U1</desc>
<path d="M91.5248 57.4719
L92.3343 57.4719
" />
<path d="M92.3343 57.4719
L92.4296 57.4243
" />
<path d="M92.4296 57.4243
L92.4772 57.3767
" />
<path d="M92.4772 57.3767
L92.5248 57.2814
" />
<path d="M92.5248 57.2814
L92.5248 57.0910
" />
<path d="M92.5248 57.0910
L92.4772 56.9957
" />
<path d="M92.4772 56.9957
L92.4296 56.9481
" />
<path d="M92.4296 56.9481
L92.3343 56.9005
" />
<path d="M92.3343 56.9005
L91.5248 56.9005
" />
<path d="M92.5248 55.9005
L92.5248 56.4719
" />
<path d="M92.5248 56.1862
L91.5248 56.1862
" />
<path d="M91.5248 56.1862
L91.6677 56.2814
" />
<path d="M91.6677 56.2814
L91.7629 56.3767
" />
<path d="M91.7629 56.3767
L91.8105 56.4719
" />
</g><text x="62.4180" y="77.4996"
textLength="3.2976" font-size="1.3333" lengthAdjust="spacingAndGlyphs"
text-anchor="middle" opacity="0" stroke-opacity="0">SW1</text>
<g class="stroked-text"><desc>SW1</desc>
<path d="M61.0847 77.4068
L61.2276 77.4545
" />
<path d="M61.2276 77.4545
L61.4657 77.4545
" />
<path d="M61.4657 77.4545
L61.5609 77.4068
" />
<path d="M61.5609 77.4068
L61.6085 77.3592
" />
<path d="M61.6085 77.3592
L61.6561 77.2640
" />
<path d="M61.6561 77.2640
L61.6561 77.1687
" />
<path d="M61.6561 77.1687
L61.6085 77.0735
" />
<path d="M61.6085 77.0735
L61.5609 77.0259
" />
<path d="M61.5609 77.0259
L61.4657 76.9783
" />
<path d="M61.4657 76.9783
L61.2752 76.9307
" />
<path d="M61.2752 76.9307
L61.1799 76.8830
" />
<path d="M61.1799 76.8830
L61.1323 76.8354
" />
<path d="M61.1323 76.8354
L61.0847 76.7402
" />
<path d="M61.0847 76.7402
L61.0847 76.6449
" />
<path d="M61.0847 76.6449
L61.1323 76.5497
" />
<path d="M61.1323 76.5497
L61.1799 76.5021
" />
<path d="M61.1799 76.5021
L61.2752 76.4545
" />
<path d="M61.2752 76.4545
L61.5133 76.4545
" />
<path d="M61.5133 76.4545
L61.6561 76.5021
" />
<path d="M61.9895 76.4545
L62.2276 77.4545
" />
<path d="M62.2276 77.4545
L62.4180 76.7402
" />
<path d="M62.4180 76.7402
L62.6085 77.4545
" />
<path d="M62.6085 77.4545
L62.8466 76.4545
" />
<path d="M63.7514 77.4545
L63.1799 77.4545
" />
<path d="M63.4657 77.4545
L63.4657 76.4545
" />
<path d="M63.4657 76.4545
L63.3704 76.5973
" />
<path d="M63.3704 76.5973
L63.2752 76.6926
" />
<path d="M63.2752 76.6926
L63.1799 76.7402
" />
</g></g>
<g style="fill:none; 
stroke:#000000; stroke-width:0.1200; stroke-opacity:1; 
stroke-linecap:round; stroke-linejoin:round;">
<path d="M60.4700 62.1200
L60.4700 67.4200
" />
<path d="M60.4700 64.3000
L61.0700 64.3000
" />
<path d="M60.4700 66.8400
L61.0700 66.8400
" />
<path d="M60.4700 67.4200
L66.4900 67.4200
" />
<path d="M61.0700 62.7000
L60.4700 62.7000
" />
<path d="M61.0700 64.3000
L61.0700 62.7000
" />
<path d="M61.0700 65.2400
L60.4700 65.2400
" />
<path d="M61.0700 66.8400
L61.0700 65.2400
" />
<path d="M61.5000 67.7100
L65.5000 67.7100
" />
<path d="M64.9600 63.7500
L65.4900 63.5000
" />
<path d="M64.9600 65.7900
L64.9600 63.7500
" />
<path d="M65.4900 63.5000
L66.4900 63.5000
" />
<path d="M65.4900 66.0400
L64.9600 65.7900
" />
<path d="M65.4900 66.0400
L65.4900 63.5000
" />
<path d="M66.4900 62.1200
L60.4700 62.1200
" />
<path d="M66.4900 63.7500
L65.4900 63.7500
" />
<path d="M66.4900 65.7900
L65.4900 65.7900
" />
<path d="M66.4900 66.0400
L65.4900 66.0400
" />
<path d="M66.4900 67.4200
L66.4900 62.1200
" />
<path d="M112.9700 87.5700
L114.3000 87.5700
" />
<path d="M112.9700 88.9000
L112.9700 87.5700
" />
<path d="M112.9700 90.1700
L112.9700 95.3100
" />
<path d="M112.9700 90.1700
L115.6300 90.1700
" />
<path d="M112.9700 95.3100
L115.6300 95.3100
" />
<path d="M115.6300 90.1700
L115.6300 95.3100
" />
</g>
<g style="fill:none; 
stroke:#000000; stroke-width:0.1500; stroke-opacity:1; 
stroke-linecap:round; stroke-linejoin:round;">
<path d="M77.4700 64.7700
L120.6500 64.7700
" />
<path d="M77.4700 82.5500
L77.4700 64.7700
" />
<path d="M77.4700 82.5500
L120.6500 82.5500
" />
<path d="M120.6500 82.5500
L120.6500 64.7700
" />
</g>
<g style="fill:none; 
stroke:#000000; stroke-width:0.1200; stroke-opacity:1; 
stroke-linecap:round; stroke-linejoin:round;">
<path d="M115.8450 54.5900
L112.7550 54.5900
" />
<path d="M112.7552 54.5900 A2.9900 2.9900 0.0 0 0 114.3005 60.1400" />
<path d="M114.2995 60.1400 A2.9900 2.9900 0.0 0 0 115.8448 54.5900" />
<circle cx="114.3000" cy="57.1500" r="2.5000" /> 
<path d="M107.8900 87.5700
L109.2200 87.5700
" />
<path d="M107.8900 88.9000
L107.8900 87.5700
" />
<path d="M107.8900 90.1700
L107.8900 95.3100
" />
<path d="M107.8900 90.1700
L110.5500 90.1700
" />
<path d="M107.8900 95.3100
L110.5500 95.3100
" />
<path d="M110.5500 90.1700
L110.5500 95.3100
" />
<path d="M69.7500 59.9200
L69.7500 67.1600
" />
<path d="M72.4900 59.9200
L69.7500 59.9200
" />
<path d="M72.4900 59.9200
L72.4900 67.1600
" />
<path d="M72.4900 67.1600
L69.7500 67.1600
" />
<path d="M146.0500 64.7700
L147.3200 64.7700
" />
<path d="M146.0500 66.0400
L146.0500 64.7700
" />
<path d="M148.3629 68.2000
L148.7600 68.2000
" />
<path d="M148.3629 68.9600
L148.7600 68.9600
" />
<path d="M148.3629 70.7400
L148.7600 70.7400
" />
<path d="M148.3629 71.5000
L148.7600 71.5000
" />
<path d="M148.3629 73.2800
L148.7600 73.2800
" />
<path d="M148.3629 74.0400
L148.7600 74.0400
" />
<path d="M148.3629 75.8200
L148.7600 75.8200
" />
<path d="M148.3629 76.5800
L148.7600 76.5800
" />
<path d="M148.3629 78.3600
L148.7600 78.3600
" />
<path d="M148.3629 79.1200
L148.7600 79.1200
" />
<path d="M148.3629 80.9000
L148.7600 80.9000
" />
<path d="M148.3629 81.6600
L148.7600 81.6600
" />
<path d="M148.3629 83.4400
L148.7600 83.4400
" />
<path d="M148.3629 84.2000
L148.7600 84.2000
" />
<path d="M148.4300 65.6600
L148.7600 65.6600
" />
<path d="M148.4300 66.4200
L148.7600 66.4200
" />
<path d="M148.7600 64.7100
L148.7600 85.1500
" />
<path d="M148.7600 67.3100
L151.4200 67.3100
" />
<path d="M148.7600 69.8500
L151.4200 69.8500
" />
<path d="M148.7600 72.3900
L151.4200 72.3900
" />
<path d="M148.7600 74.9300
L151.4200 74.9300
" />
<path d="M148.7600 77.4700
L151.4200 77.4700
" />
<path d="M148.7600 80.0100
L151.4200 80.0100
" />
<path d="M148.7600 82.5500
L151.4200 82.5500
" />
<path d="M148.7600 85.1500
L151.4200 85.1500
" />
<path d="M151.4200 64.7100
L148.7600 64.7100
" />
<path d="M151.4200 65.6600
L157.4200 65.6600
" />
<path d="M151.4200 65.7200
L157.4200 65.7200
" />
<path d="M151.4200 65.8400
L157.4200 65.8400
" />
<path d="M151.4200 65.9600
L157.4200 65.9600
" />
<path d="M151.4200 66.0800
L157.4200 66.0800
" />
<path d="M151.4200 66.2000
L157.4200 66.2000
" />
<path d="M151.4200 66.3200
L157.4200 66.3200
" />
<path d="M151.4200 68.2000
L157.4200 68.2000
" />
<path d="M151.4200 70.7400
L157.4200 70.7400
" />
<path d="M151.4200 73.2800
L157.4200 73.2800
" />
<path d="M151.4200 75.8200
L157.4200 75.8200
" />
<path d="M151.4200 78.3600
L157.4200 78.3600
" />
<path d="M151.4200 80.9000
L157.4200 80.9000
" />
<path d="M151.4200 83.4400
L157.4200 83.4400
" />
<path d="M151.4200 85.1500
L151.4200 64.7100
" />
<path d="M157.4200 65.6600
L157.4200 66.4200
" />
<path d="M157.4200 66.4200
L151.4200 66.4200
" />
<path d="M157.4200 68.2000
L157.4200 68.9600
" />
<path d="M157.4200 68.9600
L151.4200 68.9600
" />
<path d="M157.4200 70.7400
L157.4200 71.5000
" />
<path d="M157.4200 71.5000
L151.4200 71.5000
" />
<path d="M157.4200 73.2800
L157.4200 74.0400
" />
<path d="M157.4200 74.0400
L151.4200 74.0400
" />
<path d="M157.4200 75.8200
L157.4200 76.5800
" />
<path d="M157.4200 76.5800
L151.4200 76.5800
" />
<path d="M157.4200 78.3600
L157.4200 79.1200
" />
<path d="M157.4200 79.1200
L151.4200 79.1200
" />
<path d="M157.4200 80.9000
L157.4200 81.6600
" />
<path d="M157.4200 81.6600
L151.4200 81.6600
" />
<path d="M157.4200 83.4400
L157.4200 84.2000
" />
<path d="M157.4200 84.2000
L151.4200 84.2000
" />
<path d="M121.9300 53.9600
L132.0700 53.9600
" />
<path d="M121.9300 54.4400
L121.9300 53.9600
" />
<path d="M121.9300 57.3200
L121.9300 57.8000
" />
<path d="M121.9300 57.8000
L132.0700 57.8000
" />
<path d="M132.0700 53.9600
L132.0700 54.4400
" />
<path d="M132.0700 57.8000
L132.0700 57.3200
" />
<path d="M78.7500 89.5200
L88.8900 89.5200
" />
<path d="M78.7500 90.0000
L78.7500 89.5200
" />
<path d="M78.7500 92.8800
L78.7500 93.3600
" />
<path d="M78.7500 93.3600
L88.8900 93.3600
" />
<path d="M88.8900 89.5200
L88.8900 90.0000
" />
<path d="M88.8900 93.3600
L88.8900 92.8800
" />
<path d="M105.3100 52.3000
L108.0500 52.3000
" />
<path d="M105.3100 59.5400
L105.3100 52.3000
" />
<path d="M105.3100 59.5400
L108.0500 59.5400
" />
<path d="M108.0500 59.5400
L108.0500 52.3000
" />
<path d="M86.4290 51.5900
L86.4290 61.8300
" />
<path d="M89.5600 51.5900
L89.5600 61.8300
" />
<path d="M91.0700 51.5900
L86.4290 51.5900
" />
<path d="M91.0700 51.5900
L91.0700 61.8300
" />
<path d="M91.0700 54.8600
L89.5600 54.8600
" />
<path d="M91.0700 58.5610
L89.5600 58.5610
" />
<path d="M91.0700 61.8300
L86.4290 61.8300
" />
<path d="M58.9180 80.4996
L58.9180 81.9996
" />
<path d="M60.1680 84.4996
L64.6680 84.4996
" />
<path d="M64.6680 77.9996
L60.1680 77.9996
" />
<path d="M65.9180 81.9996
L65.9180 80.4996
" />
</g> 
</svg>
