<?xml version="1.0" standalone="no"?>
 <!DOCTYPE svg PUBLIC "-//W3C//DTD SVG 1.1//EN" 
 "http://www.w3.org/Graphics/SVG/1.1/DTD/svg11.dtd"> 
<svg
  xmlns:svg="http://www.w3.org/2000/svg"
  xmlns="http://www.w3.org/2000/svg"
  xmlns:xlink="http://www.w3.org/1999/xlink"
  version="1.1"
  width="210.0072mm" height="148.0058mm" viewBox="0.0000 0.0000 210.0072 148.0058">
<title>SVG Image created as modulo_seguidor-B_Silkscreen.svg date 2025/09/09 17:11:33 </title>
  <desc>Image generated by PCBNEW </desc>
<g style="fill:#000000; fill-opacity:1.0000;stroke:#000000; stroke-opacity:1.0000;
stroke-linecap:round; stroke-linejoin:round;"
 transform="translate(0 0) scale(1 1)">
</g>
<g style="fill:none; 
stroke:#000000; stroke-width:0.1500; stroke-opacity:1; 
stroke-linecap:round; stroke-linejoin:round;">
<path d="M90.0072 104.0058
L198.0072 104.0058
L198.0072 136.0058
L90.0072 136.0058
L90.0072 104.0058
" />
</g>
<g style="fill:none; 
stroke:#000000; stroke-width:0.1500; stroke-opacity:1; 
stroke-linecap:round; stroke-linejoin:round;">
<path d="M10.0000 10.0000
L200.0072 10.0000
L200.0072 138.0058
L10.0000 138.0058
L10.0000 10.0000
" />
</g>
<g style="fill:none; 
stroke:#000000; stroke-width:0.1500; stroke-opacity:1; 
stroke-linecap:round; stroke-linejoin:round;">
<path d="M12.0000 12.0000
L198.0072 12.0000
L198.0072 136.0058
L12.0000 136.0058
L12.0000 12.0000
" />
</g>
<g style="fill:none; 
stroke:#000000; stroke-width:0.1500; stroke-opacity:1; 
stroke-linecap:round; stroke-linejoin:round;">
<path d="M60.0000 12.0000
L60.0000 10.0000
" />
</g>
<g style="fill:none; 
stroke:#000000; stroke-width:0.1500; stroke-opacity:1; 
stroke-linecap:round; stroke-linejoin:round;">
<path d="M110.0000 12.0000
L110.0000 10.0000
" />
</g>
<g style="fill:none; 
stroke:#000000; stroke-width:0.1500; stroke-opacity:1; 
stroke-linecap:round; stroke-linejoin:round;">
<path d="M160.0000 12.0000
L160.0000 10.0000
" />
</g>
<g style="fill:none; 
stroke:#000000; stroke-width:0.1500; stroke-opacity:1; 
stroke-linecap:round; stroke-linejoin:round;">
<text x="35.0000" y="11.6500"
textLength="1.4281" font-size="1.7333" lengthAdjust="spacingAndGlyphs"
text-anchor="start" opacity="0" stroke-opacity="0">1</text>
<g class="stroked-text"><desc>1</desc>
<path d="M36.0892 11.5936
L35.3463 11.5936
" />
<path d="M35.7177 11.5936
L35.7177 10.2936
" />
<path d="M35.7177 10.2936
L35.5939 10.4793
" />
<path d="M35.5939 10.4793
L35.4701 10.6031
" />
<path d="M35.4701 10.6031
L35.3463 10.6650
" />
</g></g>
<g style="fill:none; 
stroke:#000000; stroke-width:0.1500; stroke-opacity:1; 
stroke-linecap:round; stroke-linejoin:round;">
<text x="85.0000" y="11.6500"
textLength="1.4281" font-size="1.7333" lengthAdjust="spacingAndGlyphs"
text-anchor="start" opacity="0" stroke-opacity="0">2</text>
<g class="stroked-text"><desc>2</desc>
<path d="M85.3463 10.4174
L85.4082 10.3555
" />
<path d="M85.4082 10.3555
L85.5320 10.2936
" />
<path d="M85.5320 10.2936
L85.8415 10.2936
" />
<path d="M85.8415 10.2936
L85.9654 10.3555
" />
<path d="M85.9654 10.3555
L86.0273 10.4174
" />
<path d="M86.0273 10.4174
L86.0892 10.5412
" />
<path d="M86.0892 10.5412
L86.0892 10.6650
" />
<path d="M86.0892 10.6650
L86.0273 10.8507
" />
<path d="M86.0273 10.8507
L85.2844 11.5936
" />
<path d="M85.2844 11.5936
L86.0892 11.5936
" />
</g></g>
<g style="fill:none; 
stroke:#000000; stroke-width:0.1500; stroke-opacity:1; 
stroke-linecap:round; stroke-linejoin:round;">
<text x="135.0000" y="11.6500"
textLength="1.4281" font-size="1.7333" lengthAdjust="spacingAndGlyphs"
text-anchor="start" opacity="0" stroke-opacity="0">3</text>
<g class="stroked-text"><desc>3</desc>
<path d="M135.2844 10.2936
L136.0892 10.2936
" />
<path d="M136.0892 10.2936
L135.6558 10.7888
" />
<path d="M135.6558 10.7888
L135.8415 10.7888
" />
<path d="M135.8415 10.7888
L135.9654 10.8507
" />
<path d="M135.9654 10.8507
L136.0273 10.9127
" />
<path d="M136.0273 10.9127
L136.0892 11.0365
" />
<path d="M136.0892 11.0365
L136.0892 11.3460
" />
<path d="M136.0892 11.3460
L136.0273 11.4698
" />
<path d="M136.0273 11.4698
L135.9654 11.5317
" />
<path d="M135.9654 11.5317
L135.8415 11.5936
" />
<path d="M135.8415 11.5936
L135.4701 11.5936
" />
<path d="M135.4701 11.5936
L135.3463 11.5317
" />
<path d="M135.3463 11.5317
L135.2844 11.4698
" />
</g></g>
<g style="fill:none; 
stroke:#000000; stroke-width:0.1500; stroke-opacity:1; 
stroke-linecap:round; stroke-linejoin:round;">
<text x="185.0000" y="11.6500"
textLength="1.4281" font-size="1.7333" lengthAdjust="spacingAndGlyphs"
text-anchor="start" opacity="0" stroke-opacity="0">4</text>
<g class="stroked-text"><desc>4</desc>
<path d="M185.9654 10.7269
L185.9654 11.5936
" />
<path d="M185.6558 10.2317
L185.3463 11.1603
" />
<path d="M185.3463 11.1603
L186.1511 11.1603
" />
</g></g>
<g style="fill:none; 
stroke:#000000; stroke-width:0.1500; stroke-opacity:1; 
stroke-linecap:round; stroke-linejoin:round;">
<path d="M60.0000 136.0058
L60.0000 138.0058
" />
</g>
<g style="fill:none; 
stroke:#000000; stroke-width:0.1500; stroke-opacity:1; 
stroke-linecap:round; stroke-linejoin:round;">
<path d="M110.0000 136.0058
L110.0000 138.0058
" />
</g>
<g style="fill:none; 
stroke:#000000; stroke-width:0.1500; stroke-opacity:1; 
stroke-linecap:round; stroke-linejoin:round;">
<path d="M160.0000 136.0058
L160.0000 138.0058
" />
</g>
<g style="fill:none; 
stroke:#000000; stroke-width:0.1500; stroke-opacity:1; 
stroke-linecap:round; stroke-linejoin:round;">
<text x="35.0000" y="137.6558"
textLength="1.4281" font-size="1.7333" lengthAdjust="spacingAndGlyphs"
text-anchor="start" opacity="0" stroke-opacity="0">1</text>
<g class="stroked-text"><desc>1</desc>
<path d="M36.0892 137.5994
L35.3463 137.5994
" />
<path d="M35.7177 137.5994
L35.7177 136.2994
" />
<path d="M35.7177 136.2994
L35.5939 136.4851
" />
<path d="M35.5939 136.4851
L35.4701 136.6089
" />
<path d="M35.4701 136.6089
L35.3463 136.6708
" />
</g></g>
<g style="fill:none; 
stroke:#000000; stroke-width:0.1500; stroke-opacity:1; 
stroke-linecap:round; stroke-linejoin:round;">
<text x="85.0000" y="137.6558"
textLength="1.4281" font-size="1.7333" lengthAdjust="spacingAndGlyphs"
text-anchor="start" opacity="0" stroke-opacity="0">2</text>
<g class="stroked-text"><desc>2</desc>
<path d="M85.3463 136.4232
L85.4082 136.3613
" />
<path d="M85.4082 136.3613
L85.5320 136.2994
" />
<path d="M85.5320 136.2994
L85.8415 136.2994
" />
<path d="M85.8415 136.2994
L85.9654 136.3613
" />
<path d="M85.9654 136.3613
L86.0273 136.4232
" />
<path d="M86.0273 136.4232
L86.0892 136.5470
" />
<path d="M86.0892 136.5470
L86.0892 136.6708
" />
<path d="M86.0892 136.6708
L86.0273 136.8565
" />
<path d="M86.0273 136.8565
L85.2844 137.5994
" />
<path d="M85.2844 137.5994
L86.0892 137.5994
" />
</g></g>
<g style="fill:none; 
stroke:#000000; stroke-width:0.1500; stroke-opacity:1; 
stroke-linecap:round; stroke-linejoin:round;">
<text x="135.0000" y="137.6558"
textLength="1.4281" font-size="1.7333" lengthAdjust="spacingAndGlyphs"
text-anchor="start" opacity="0" stroke-opacity="0">3</text>
<g class="stroked-text"><desc>3</desc>
<path d="M135.2844 136.2994
L136.0892 136.2994
" />
<path d="M136.0892 136.2994
L135.6558 136.7946
" />
<path d="M135.6558 136.7946
L135.8415 136.7946
" />
<path d="M135.8415 136.7946
L135.9654 136.8565
" />
<path d="M135.9654 136.8565
L136.0273 136.9185
" />
<path d="M136.0273 136.9185
L136.0892 137.0423
" />
<path d="M136.0892 137.0423
L136.0892 137.3518
" />
<path d="M136.0892 137.3518
L136.0273 137.4756
" />
<path d="M136.0273 137.4756
L135.9654 137.5375
" />
<path d="M135.9654 137.5375
L135.8415 137.5994
" />
<path d="M135.8415 137.5994
L135.4701 137.5994
" />
<path d="M135.4701 137.5994
L135.3463 137.5375
" />
<path d="M135.3463 137.5375
L135.2844 137.4756
" />
</g></g>
<g style="fill:none; 
stroke:#000000; stroke-width:0.1500; stroke-opacity:1; 
stroke-linecap:round; stroke-linejoin:round;">
<text x="185.0000" y="137.6558"
textLength="1.4281" font-size="1.7333" lengthAdjust="spacingAndGlyphs"
text-anchor="start" opacity="0" stroke-opacity="0">4</text>
<g class="stroked-text"><desc>4</desc>
<path d="M185.9654 136.7327
L185.9654 137.5994
" />
<path d="M185.6558 136.2375
L185.3463 137.1661
" />
<path d="M185.3463 137.1661
L186.1511 137.1661
" />
</g></g>
<g style="fill:none; 
stroke:#000000; stroke-width:0.1500; stroke-opacity:1; 
stroke-linecap:round; stroke-linejoin:round;">
<path d="M10.0000 60.0000
L12.0000 60.0000
" />
</g>
<g style="fill:none; 
stroke:#000000; stroke-width:0.1500; stroke-opacity:1; 
stroke-linecap:round; stroke-linejoin:round;">
<path d="M10.0000 110.0000
L12.0000 110.0000
" />
</g>
<g style="fill:none; 
stroke:#000000; stroke-width:0.1500; stroke-opacity:1; 
stroke-linecap:round; stroke-linejoin:round;">
<text x="11.0000" y="35.6500"
textLength="1.3043" font-size="1.7333" lengthAdjust="spacingAndGlyphs"
text-anchor="middle" opacity="0" stroke-opacity="0">A</text>
<g class="stroked-text"><desc>A</desc>
<path d="M10.6905 35.2222
L11.3095 35.2222
" />
<path d="M10.5667 35.5936
L11.0000 34.2936
" />
<path d="M11.0000 34.2936
L11.4333 35.5936
" />
</g></g>
<g style="fill:none; 
stroke:#000000; stroke-width:0.1500; stroke-opacity:1; 
stroke-linecap:round; stroke-linejoin:round;">
<text x="11.0000" y="85.6500"
textLength="1.4900" font-size="1.7333" lengthAdjust="spacingAndGlyphs"
text-anchor="middle" opacity="0" stroke-opacity="0">B</text>
<g class="stroked-text"><desc>B</desc>
<path d="M11.0929 84.9127
L11.2786 84.9746
" />
<path d="M11.2786 84.9746
L11.3405 85.0365
" />
<path d="M11.3405 85.0365
L11.4024 85.1603
" />
<path d="M11.4024 85.1603
L11.4024 85.3460
" />
<path d="M11.4024 85.3460
L11.3405 85.4698
" />
<path d="M11.3405 85.4698
L11.2786 85.5317
" />
<path d="M11.2786 85.5317
L11.1548 85.5936
" />
<path d="M11.1548 85.5936
L10.6595 85.5936
" />
<path d="M10.6595 85.5936
L10.6595 84.2936
" />
<path d="M10.6595 84.2936
L11.0929 84.2936
" />
<path d="M11.0929 84.2936
L11.2167 84.3555
" />
<path d="M11.2167 84.3555
L11.2786 84.4174
" />
<path d="M11.2786 84.4174
L11.3405 84.5412
" />
<path d="M11.3405 84.5412
L11.3405 84.6650
" />
<path d="M11.3405 84.6650
L11.2786 84.7888
" />
<path d="M11.2786 84.7888
L11.2167 84.8507
" />
<path d="M11.2167 84.8507
L11.0929 84.9127
" />
<path d="M11.0929 84.9127
L10.6595 84.9127
" />
</g></g>
<g style="fill:none; 
stroke:#000000; stroke-width:0.1500; stroke-opacity:1; 
stroke-linecap:round; stroke-linejoin:round;">
<text x="11.0000" y="135.6500"
textLength="1.4900" font-size="1.7333" lengthAdjust="spacingAndGlyphs"
text-anchor="middle" opacity="0" stroke-opacity="0">C</text>
<g class="stroked-text"><desc>C</desc>
<path d="M11.4024 135.4698
L11.3405 135.5317
" />
<path d="M11.3405 135.5317
L11.1548 135.5936
" />
<path d="M11.1548 135.5936
L11.0310 135.5936
" />
<path d="M11.0310 135.5936
L10.8452 135.5317
" />
<path d="M10.8452 135.5317
L10.7214 135.4079
" />
<path d="M10.7214 135.4079
L10.6595 135.2841
" />
<path d="M10.6595 135.2841
L10.5976 135.0365
" />
<path d="M10.5976 135.0365
L10.5976 134.8507
" />
<path d="M10.5976 134.8507
L10.6595 134.6031
" />
<path d="M10.6595 134.6031
L10.7214 134.4793
" />
<path d="M10.7214 134.4793
L10.8452 134.3555
" />
<path d="M10.8452 134.3555
L11.0310 134.2936
" />
<path d="M11.0310 134.2936
L11.1548 134.2936
" />
<path d="M11.1548 134.2936
L11.3405 134.3555
" />
<path d="M11.3405 134.3555
L11.4024 134.4174
" />
</g></g>
<g style="fill:none; 
stroke:#000000; stroke-width:0.1500; stroke-opacity:1; 
stroke-linecap:round; stroke-linejoin:round;">
<path d="M200.0072 60.0000
L198.0072 60.0000
" />
</g>
<g style="fill:none; 
stroke:#000000; stroke-width:0.1500; stroke-opacity:1; 
stroke-linecap:round; stroke-linejoin:round;">
<path d="M200.0072 110.0000
L198.0072 110.0000
" />
</g>
<g style="fill:none; 
stroke:#000000; stroke-width:0.1500; stroke-opacity:1; 
stroke-linecap:round; stroke-linejoin:round;">
<text x="199.0072" y="35.6500"
textLength="1.3043" font-size="1.7333" lengthAdjust="spacingAndGlyphs"
text-anchor="middle" opacity="0" stroke-opacity="0">A</text>
<g class="stroked-text"><desc>A</desc>
<path d="M198.6977 35.2222
L199.3167 35.2222
" />
<path d="M198.5739 35.5936
L199.0072 34.2936
" />
<path d="M199.0072 34.2936
L199.4405 35.5936
" />
</g></g>
<g style="fill:none; 
stroke:#000000; stroke-width:0.1500; stroke-opacity:1; 
stroke-linecap:round; stroke-linejoin:round;">
<text x="199.0072" y="85.6500"
textLength="1.4900" font-size="1.7333" lengthAdjust="spacingAndGlyphs"
text-anchor="middle" opacity="0" stroke-opacity="0">B</text>
<g class="stroked-text"><desc>B</desc>
<path d="M199.1001 84.9127
L199.2858 84.9746
" />
<path d="M199.2858 84.9746
L199.3477 85.0365
" />
<path d="M199.3477 85.0365
L199.4096 85.1603
" />
<path d="M199.4096 85.1603
L199.4096 85.3460
" />
<path d="M199.4096 85.3460
L199.3477 85.4698
" />
<path d="M199.3477 85.4698
L199.2858 85.5317
" />
<path d="M199.2858 85.5317
L199.1620 85.5936
" />
<path d="M199.1620 85.5936
L198.6667 85.5936
" />
<path d="M198.6667 85.5936
L198.6667 84.2936
" />
<path d="M198.6667 84.2936
L199.1001 84.2936
" />
<path d="M199.1001 84.2936
L199.2239 84.3555
" />
<path d="M199.2239 84.3555
L199.2858 84.4174
" />
<path d="M199.2858 84.4174
L199.3477 84.5412
" />
<path d="M199.3477 84.5412
L199.3477 84.6650
" />
<path d="M199.3477 84.6650
L199.2858 84.7888
" />
<path d="M199.2858 84.7888
L199.2239 84.8507
" />
<path d="M199.2239 84.8507
L199.1001 84.9127
" />
<path d="M199.1001 84.9127
L198.6667 84.9127
" />
</g></g>
<g style="fill:none; 
stroke:#000000; stroke-width:0.1500; stroke-opacity:1; 
stroke-linecap:round; stroke-linejoin:round;">
<text x="199.0072" y="135.6500"
textLength="1.4900" font-size="1.7333" lengthAdjust="spacingAndGlyphs"
text-anchor="middle" opacity="0" stroke-opacity="0">C</text>
<g class="stroked-text"><desc>C</desc>
<path d="M199.4096 135.4698
L199.3477 135.5317
" />
<path d="M199.3477 135.5317
L199.1620 135.5936
" />
<path d="M199.1620 135.5936
L199.0382 135.5936
" />
<path d="M199.0382 135.5936
L198.8524 135.5317
" />
<path d="M198.8524 135.5317
L198.7286 135.4079
" />
<path d="M198.7286 135.4079
L198.6667 135.2841
" />
<path d="M198.6667 135.2841
L198.6048 135.0365
" />
<path d="M198.6048 135.0365
L198.6048 134.8507
" />
<path d="M198.6048 134.8507
L198.6667 134.6031
" />
<path d="M198.6667 134.6031
L198.7286 134.4793
" />
<path d="M198.7286 134.4793
L198.8524 134.3555
" />
<path d="M198.8524 134.3555
L199.0382 134.2936
" />
<path d="M199.0382 134.2936
L199.1620 134.2936
" />
<path d="M199.1620 134.2936
L199.3477 134.3555
" />
<path d="M199.3477 134.3555
L199.4096 134.4174
" />
</g></g>
<g style="fill:none; 
stroke:#000000; stroke-width:0.1500; stroke-opacity:1; 
stroke-linecap:round; stroke-linejoin:round;">
<text x="113.0072" y="131.8558"
textLength="7.0071" font-size="2.0000" lengthAdjust="spacingAndGlyphs"
text-anchor="start" opacity="0" stroke-opacity="0">Date: </text>
<g class="stroked-text"><desc>Date: </desc>
<path d="M113.4630 131.7919
L113.4630 130.2919
" />
<path d="M113.4630 130.2919
L113.8202 130.2919
" />
<path d="M113.8202 130.2919
L114.0345 130.3634
" />
<path d="M114.0345 130.3634
L114.1773 130.5062
" />
<path d="M114.1773 130.5062
L114.2487 130.6491
" />
<path d="M114.2487 130.6491
L114.3202 130.9348
" />
<path d="M114.3202 130.9348
L114.3202 131.1491
" />
<path d="M114.3202 131.1491
L114.2487 131.4348
" />
<path d="M114.2487 131.4348
L114.1773 131.5776
" />
<path d="M114.1773 131.5776
L114.0345 131.7205
" />
<path d="M114.0345 131.7205
L113.8202 131.7919
" />
<path d="M113.8202 131.7919
L113.4630 131.7919
" />
<path d="M115.6059 131.7919
L115.6059 131.0062
" />
<path d="M115.6059 131.0062
L115.5345 130.8634
" />
<path d="M115.5345 130.8634
L115.3916 130.7919
" />
<path d="M115.3916 130.7919
L115.1059 130.7919
" />
<path d="M115.1059 130.7919
L114.9630 130.8634
" />
<path d="M115.6059 131.7205
L115.4630 131.7919
" />
<path d="M115.4630 131.7919
L115.1059 131.7919
" />
<path d="M115.1059 131.7919
L114.9630 131.7205
" />
<path d="M114.9630 131.7205
L114.8916 131.5776
" />
<path d="M114.8916 131.5776
L114.8916 131.4348
" />
<path d="M114.8916 131.4348
L114.9630 131.2919
" />
<path d="M114.9630 131.2919
L115.1059 131.2205
" />
<path d="M115.1059 131.2205
L115.4630 131.2205
" />
<path d="M115.4630 131.2205
L115.6059 131.1491
" />
<path d="M116.1059 130.7919
L116.6773 130.7919
" />
<path d="M116.3202 130.2919
L116.3202 131.5776
" />
<path d="M116.3202 131.5776
L116.3916 131.7205
" />
<path d="M116.3916 131.7205
L116.5345 131.7919
" />
<path d="M116.5345 131.7919
L116.6773 131.7919
" />
<path d="M117.7487 131.7205
L117.6059 131.7919
" />
<path d="M117.6059 131.7919
L117.3202 131.7919
" />
<path d="M117.3202 131.7919
L117.1773 131.7205
" />
<path d="M117.1773 131.7205
L117.1059 131.5776
" />
<path d="M117.1059 131.5776
L117.1059 131.0062
" />
<path d="M117.1059 131.0062
L117.1773 130.8634
" />
<path d="M117.1773 130.8634
L117.3202 130.7919
" />
<path d="M117.3202 130.7919
L117.6059 130.7919
" />
<path d="M117.6059 130.7919
L117.7487 130.8634
" />
<path d="M117.7487 130.8634
L117.8202 131.0062
" />
<path d="M117.8202 131.0062
L117.8202 131.1491
" />
<path d="M117.8202 131.1491
L117.1059 131.2919
" />
<path d="M118.4630 131.6491
L118.5345 131.7205
" />
<path d="M118.5345 131.7205
L118.4630 131.7919
" />
<path d="M118.4630 131.7919
L118.3916 131.7205
" />
<path d="M118.3916 131.7205
L118.4630 131.6491
" />
<path d="M118.4630 131.6491
L118.4630 131.7919
" />
<path d="M118.4630 130.8634
L118.5345 130.9348
" />
<path d="M118.5345 130.9348
L118.4630 131.0062
" />
<path d="M118.4630 131.0062
L118.3916 130.9348
" />
<path d="M118.3916 130.9348
L118.4630 130.8634
" />
<path d="M118.4630 130.8634
L118.4630 131.0062
" />
</g></g>
<g style="fill:none; 
stroke:#000000; stroke-width:0.1500; stroke-opacity:1; 
stroke-linecap:round; stroke-linejoin:round;">
<path d="M90.0072 132.5058
L198.0072 132.5058
" />
</g>
<g style="fill:none; 
stroke:#000000; stroke-width:0.1500; stroke-opacity:1; 
stroke-linecap:round; stroke-linejoin:round;">
<text x="91.0072" y="134.6558"
textLength="20.6500" font-size="2.0000" lengthAdjust="spacingAndGlyphs"
text-anchor="start" opacity="0" stroke-opacity="0">${KICAD_VERSION}</text>
<g class="stroked-text"><desc>${KICAD_VERSION}</desc>
<path d="M91.3916 134.5205
L91.6059 134.5919
" />
<path d="M91.6059 134.5919
L91.9630 134.5919
" />
<path d="M91.9630 134.5919
L92.1059 134.5205
" />
<path d="M92.1059 134.5205
L92.1773 134.4491
" />
<path d="M92.1773 134.4491
L92.2487 134.3062
" />
<path d="M92.2487 134.3062
L92.2487 134.1634
" />
<path d="M92.2487 134.1634
L92.1773 134.0205
" />
<path d="M92.1773 134.0205
L92.1059 133.9491
" />
<path d="M92.1059 133.9491
L91.9630 133.8776
" />
<path d="M91.9630 133.8776
L91.6773 133.8062
" />
<path d="M91.6773 133.8062
L91.5345 133.7348
" />
<path d="M91.5345 133.7348
L91.4630 133.6634
" />
<path d="M91.4630 133.6634
L91.3916 133.5205
" />
<path d="M91.3916 133.5205
L91.3916 133.3776
" />
<path d="M91.3916 133.3776
L91.4630 133.2348
" />
<path d="M91.4630 133.2348
L91.5345 133.1634
" />
<path d="M91.5345 133.1634
L91.6773 133.0919
" />
<path d="M91.6773 133.0919
L92.0345 133.0919
" />
<path d="M92.0345 133.0919
L92.2487 133.1634
" />
<path d="M91.8202 132.8776
L91.8202 134.8062
" />
<path d="M93.3202 135.1634
L93.2487 135.1634
" />
<path d="M93.2487 135.1634
L93.1059 135.0919
" />
<path d="M93.1059 135.0919
L93.0345 134.9491
" />
<path d="M93.0345 134.9491
L93.0345 134.2348
" />
<path d="M93.0345 134.2348
L92.9630 134.0919
" />
<path d="M92.9630 134.0919
L92.8202 134.0205
" />
<path d="M92.8202 134.0205
L92.9630 133.9491
" />
<path d="M92.9630 133.9491
L93.0345 133.8062
" />
<path d="M93.0345 133.8062
L93.0345 133.0919
" />
<path d="M93.0345 133.0919
L93.1059 132.9491
" />
<path d="M93.1059 132.9491
L93.2487 132.8776
" />
<path d="M93.2487 132.8776
L93.3202 132.8776
" />
<path d="M93.8916 134.5919
L93.8916 133.0919
" />
<path d="M94.7487 134.5919
L94.1059 133.7348
" />
<path d="M94.7487 133.0919
L93.8916 133.9491
" />
<path d="M95.3916 134.5919
L95.3916 133.0919
" />
<path d="M96.9630 134.4491
L96.8916 134.5205
" />
<path d="M96.8916 134.5205
L96.6773 134.5919
" />
<path d="M96.6773 134.5919
L96.5345 134.5919
" />
<path d="M96.5345 134.5919
L96.3202 134.5205
" />
<path d="M96.3202 134.5205
L96.1773 134.3776
" />
<path d="M96.1773 134.3776
L96.1059 134.2348
" />
<path d="M96.1059 134.2348
L96.0345 133.9491
" />
<path d="M96.0345 133.9491
L96.0345 133.7348
" />
<path d="M96.0345 133.7348
L96.1059 133.4491
" />
<path d="M96.1059 133.4491
L96.1773 133.3062
" />
<path d="M96.1773 133.3062
L96.3202 133.1634
" />
<path d="M96.3202 133.1634
L96.5345 133.0919
" />
<path d="M96.5345 133.0919
L96.6773 133.0919
" />
<path d="M96.6773 133.0919
L96.8916 133.1634
" />
<path d="M96.8916 133.1634
L96.9630 133.2348
" />
<path d="M97.5345 134.1634
L98.2487 134.1634
" />
<path d="M97.3916 134.5919
L97.8916 133.0919
" />
<path d="M97.8916 133.0919
L98.3916 134.5919
" />
<path d="M98.8916 134.5919
L98.8916 133.0919
" />
<path d="M98.8916 133.0919
L99.2487 133.0919
" />
<path d="M99.2487 133.0919
L99.4630 133.1634
" />
<path d="M99.4630 133.1634
L99.6059 133.3062
" />
<path d="M99.6059 133.3062
L99.6773 133.4491
" />
<path d="M99.6773 133.4491
L99.7487 133.7348
" />
<path d="M99.7487 133.7348
L99.7487 133.9491
" />
<path d="M99.7487 133.9491
L99.6773 134.2348
" />
<path d="M99.6773 134.2348
L99.6059 134.3776
" />
<path d="M99.6059 134.3776
L99.4630 134.5205
" />
<path d="M99.4630 134.5205
L99.2487 134.5919
" />
<path d="M99.2487 134.5919
L98.8916 134.5919
" />
<path d="M100.0345 134.7348
L101.1773 134.7348
" />
<path d="M101.3202 133.0919
L101.8202 134.5919
" />
<path d="M101.8202 134.5919
L102.3202 133.0919
" />
<path d="M102.8202 133.8062
L103.3202 133.8062
" />
<path d="M103.5345 134.5919
L102.8202 134.5919
" />
<path d="M102.8202 134.5919
L102.8202 133.0919
" />
<path d="M102.8202 133.0919
L103.5345 133.0919
" />
<path d="M105.0345 134.5919
L104.5345 133.8776
" />
<path d="M104.1773 134.5919
L104.1773 133.0919
" />
<path d="M104.1773 133.0919
L104.7487 133.0919
" />
<path d="M104.7487 133.0919
L104.8916 133.1634
" />
<path d="M104.8916 133.1634
L104.9630 133.2348
" />
<path d="M104.9630 133.2348
L105.0345 133.3776
" />
<path d="M105.0345 133.3776
L105.0345 133.5919
" />
<path d="M105.0345 133.5919
L104.9630 133.7348
" />
<path d="M104.9630 133.7348
L104.8916 133.8062
" />
<path d="M104.8916 133.8062
L104.7487 133.8776
" />
<path d="M104.7487 133.8776
L104.1773 133.8776
" />
<path d="M105.6059 134.5205
L105.8202 134.5919
" />
<path d="M105.8202 134.5919
L106.1773 134.5919
" />
<path d="M106.1773 134.5919
L106.3202 134.5205
" />
<path d="M106.3202 134.5205
L106.3916 134.4491
" />
<path d="M106.3916 134.4491
L106.4630 134.3062
" />
<path d="M106.4630 134.3062
L106.4630 134.1634
" />
<path d="M106.4630 134.1634
L106.3916 134.0205
" />
<path d="M106.3916 134.0205
L106.3202 133.9491
" />
<path d="M106.3202 133.9491
L106.1773 133.8776
" />
<path d="M106.1773 133.8776
L105.8916 133.8062
" />
<path d="M105.8916 133.8062
L105.7487 133.7348
" />
<path d="M105.7487 133.7348
L105.6773 133.6634
" />
<path d="M105.6773 133.6634
L105.6059 133.5205
" />
<path d="M105.6059 133.5205
L105.6059 133.3776
" />
<path d="M105.6059 133.3776
L105.6773 133.2348
" />
<path d="M105.6773 133.2348
L105.7487 133.1634
" />
<path d="M105.7487 133.1634
L105.8916 133.0919
" />
<path d="M105.8916 133.0919
L106.2487 133.0919
" />
<path d="M106.2487 133.0919
L106.4630 133.1634
" />
<path d="M107.1059 134.5919
L107.1059 133.0919
" />
<path d="M108.1059 133.0919
L108.3916 133.0919
" />
<path d="M108.3916 133.0919
L108.5345 133.1634
" />
<path d="M108.5345 133.1634
L108.6773 133.3062
" />
<path d="M108.6773 133.3062
L108.7487 133.5919
" />
<path d="M108.7487 133.5919
L108.7487 134.0919
" />
<path d="M108.7487 134.0919
L108.6773 134.3776
" />
<path d="M108.6773 134.3776
L108.5345 134.5205
" />
<path d="M108.5345 134.5205
L108.3916 134.5919
" />
<path d="M108.3916 134.5919
L108.1059 134.5919
" />
<path d="M108.1059 134.5919
L107.9630 134.5205
" />
<path d="M107.9630 134.5205
L107.8202 134.3776
" />
<path d="M107.8202 134.3776
L107.7487 134.0919
" />
<path d="M107.7487 134.0919
L107.7487 133.5919
" />
<path d="M107.7487 133.5919
L107.8202 133.3062
" />
<path d="M107.8202 133.3062
L107.9630 133.1634
" />
<path d="M107.9630 133.1634
L108.1059 133.0919
" />
<path d="M109.3916 134.5919
L109.3916 133.0919
" />
<path d="M109.3916 133.0919
L110.2487 134.5919
" />
<path d="M110.2487 134.5919
L110.2487 133.0919
" />
<path d="M110.8202 135.1634
L110.8916 135.1634
" />
<path d="M110.8916 135.1634
L111.0345 135.0919
" />
<path d="M111.0345 135.0919
L111.1059 134.9491
" />
<path d="M111.1059 134.9491
L111.1059 134.2348
" />
<path d="M111.1059 134.2348
L111.1773 134.0919
" />
<path d="M111.1773 134.0919
L111.3202 134.0205
" />
<path d="M111.3202 134.0205
L111.1773 133.9491
" />
<path d="M111.1773 133.9491
L111.1059 133.8062
" />
<path d="M111.1059 133.8062
L111.1059 133.0919
" />
<path d="M111.1059 133.0919
L111.0345 132.9491
" />
<path d="M111.0345 132.9491
L110.8916 132.8776
" />
<path d="M110.8916 132.8776
L110.8202 132.8776
" />
</g></g>
<g style="fill:none; 
stroke:#000000; stroke-width:0.1500; stroke-opacity:1; 
stroke-linecap:round; stroke-linejoin:round;">
<path d="M90.0072 129.5058
L198.0072 129.5058
" />
</g>
<g style="fill:none; 
stroke:#000000; stroke-width:0.3000; stroke-opacity:1; 
stroke-linecap:round; stroke-linejoin:round;">
<text x="176.0072" y="131.8558"
textLength="6.3857" font-size="2.0000" lengthAdjust="spacingAndGlyphs"
text-anchor="start" opacity="0" stroke-opacity="0">Rev: </text>
<g class="stroked-text"><desc>Rev: </desc>
<path d="M177.4189 131.7841
L176.9189 131.0698
" />
<path d="M176.5617 131.7841
L176.5617 130.2841
" />
<path d="M176.5617 130.2841
L177.1331 130.2841
" />
<path d="M177.1331 130.2841
L177.2760 130.3556
" />
<path d="M177.2760 130.3556
L177.3474 130.4270
" />
<path d="M177.3474 130.4270
L177.4189 130.5698
" />
<path d="M177.4189 130.5698
L177.4189 130.7841
" />
<path d="M177.4189 130.7841
L177.3474 130.9270
" />
<path d="M177.3474 130.9270
L177.2760 130.9984
" />
<path d="M177.2760 130.9984
L177.1331 131.0698
" />
<path d="M177.1331 131.0698
L176.5617 131.0698
" />
<path d="M178.6331 131.7127
L178.4903 131.7841
" />
<path d="M178.4903 131.7841
L178.2046 131.7841
" />
<path d="M178.2046 131.7841
L178.0617 131.7127
" />
<path d="M178.0617 131.7127
L177.9903 131.5698
" />
<path d="M177.9903 131.5698
L177.9903 130.9984
" />
<path d="M177.9903 130.9984
L178.0617 130.8556
" />
<path d="M178.0617 130.8556
L178.2046 130.7841
" />
<path d="M178.2046 130.7841
L178.4903 130.7841
" />
<path d="M178.4903 130.7841
L178.6331 130.8556
" />
<path d="M178.6331 130.8556
L178.7046 130.9984
" />
<path d="M178.7046 130.9984
L178.7046 131.1413
" />
<path d="M178.7046 131.1413
L177.9903 131.2841
" />
<path d="M179.2046 130.7841
L179.5617 131.7841
" />
<path d="M179.5617 131.7841
L179.9189 130.7841
" />
<path d="M180.4903 131.6413
L180.5617 131.7127
" />
<path d="M180.5617 131.7127
L180.4903 131.7841
" />
<path d="M180.4903 131.7841
L180.4189 131.7127
" />
<path d="M180.4189 131.7127
L180.4903 131.6413
" />
<path d="M180.4903 131.6413
L180.4903 131.7841
" />
<path d="M180.4903 130.8556
L180.5617 130.9270
" />
<path d="M180.5617 130.9270
L180.4903 130.9984
" />
<path d="M180.4903 130.9984
L180.4189 130.9270
" />
<path d="M180.4189 130.9270
L180.4903 130.8556
" />
<path d="M180.4903 130.8556
L180.4903 130.9984
" />
</g></g>
<g style="fill:none; 
stroke:#000000; stroke-width:0.1500; stroke-opacity:1; 
stroke-linecap:round; stroke-linejoin:round;">
<text x="91.0072" y="131.8558"
textLength="9.3643" font-size="2.0000" lengthAdjust="spacingAndGlyphs"
text-anchor="start" opacity="0" stroke-opacity="0">Size: A5</text>
<g class="stroked-text"><desc>Size: A5</desc>
<path d="M91.3916 131.7205
L91.6059 131.7919
" />
<path d="M91.6059 131.7919
L91.9630 131.7919
" />
<path d="M91.9630 131.7919
L92.1059 131.7205
" />
<path d="M92.1059 131.7205
L92.1773 131.6491
" />
<path d="M92.1773 131.6491
L92.2487 131.5062
" />
<path d="M92.2487 131.5062
L92.2487 131.3634
" />
<path d="M92.2487 131.3634
L92.1773 131.2205
" />
<path d="M92.1773 131.2205
L92.1059 131.1491
" />
<path d="M92.1059 131.1491
L91.9630 131.0776
" />
<path d="M91.9630 131.0776
L91.6773 131.0062
" />
<path d="M91.6773 131.0062
L91.5345 130.9348
" />
<path d="M91.5345 130.9348
L91.4630 130.8634
" />
<path d="M91.4630 130.8634
L91.3916 130.7205
" />
<path d="M91.3916 130.7205
L91.3916 130.5776
" />
<path d="M91.3916 130.5776
L91.4630 130.4348
" />
<path d="M91.4630 130.4348
L91.5345 130.3634
" />
<path d="M91.5345 130.3634
L91.6773 130.2919
" />
<path d="M91.6773 130.2919
L92.0345 130.2919
" />
<path d="M92.0345 130.2919
L92.2487 130.3634
" />
<path d="M92.8916 131.7919
L92.8916 130.7919
" />
<path d="M92.8916 130.2919
L92.8202 130.3634
" />
<path d="M92.8202 130.3634
L92.8916 130.4348
" />
<path d="M92.8916 130.4348
L92.9630 130.3634
" />
<path d="M92.9630 130.3634
L92.8916 130.2919
" />
<path d="M92.8916 130.2919
L92.8916 130.4348
" />
<path d="M93.4630 130.7919
L94.2487 130.7919
" />
<path d="M94.2487 130.7919
L93.4630 131.7919
" />
<path d="M93.4630 131.7919
L94.2487 131.7919
" />
<path d="M95.3916 131.7205
L95.2487 131.7919
" />
<path d="M95.2487 131.7919
L94.9630 131.7919
" />
<path d="M94.9630 131.7919
L94.8202 131.7205
" />
<path d="M94.8202 131.7205
L94.7487 131.5776
" />
<path d="M94.7487 131.5776
L94.7487 131.0062
" />
<path d="M94.7487 131.0062
L94.8202 130.8634
" />
<path d="M94.8202 130.8634
L94.9630 130.7919
" />
<path d="M94.9630 130.7919
L95.2487 130.7919
" />
<path d="M95.2487 130.7919
L95.3916 130.8634
" />
<path d="M95.3916 130.8634
L95.4630 131.0062
" />
<path d="M95.4630 131.0062
L95.4630 131.1491
" />
<path d="M95.4630 131.1491
L94.7487 131.2919
" />
<path d="M96.1059 131.6491
L96.1773 131.7205
" />
<path d="M96.1773 131.7205
L96.1059 131.7919
" />
<path d="M96.1059 131.7919
L96.0345 131.7205
" />
<path d="M96.0345 131.7205
L96.1059 131.6491
" />
<path d="M96.1059 131.6491
L96.1059 131.7919
" />
<path d="M96.1059 130.8634
L96.1773 130.9348
" />
<path d="M96.1773 130.9348
L96.1059 131.0062
" />
<path d="M96.1059 131.0062
L96.0345 130.9348
" />
<path d="M96.0345 130.9348
L96.1059 130.8634
" />
<path d="M96.1059 130.8634
L96.1059 131.0062
" />
<path d="M97.8916 131.3634
L98.6059 131.3634
" />
<path d="M97.7487 131.7919
L98.2487 130.2919
" />
<path d="M98.2487 130.2919
L98.7487 131.7919
" />
<path d="M99.9630 130.2919
L99.2487 130.2919
" />
<path d="M99.2487 130.2919
L99.1773 131.0062
" />
<path d="M99.1773 131.0062
L99.2487 130.9348
" />
<path d="M99.2487 130.9348
L99.3916 130.8634
" />
<path d="M99.3916 130.8634
L99.7487 130.8634
" />
<path d="M99.7487 130.8634
L99.8916 130.9348
" />
<path d="M99.8916 130.9348
L99.9630 131.0062
" />
<path d="M99.9630 131.0062
L100.0345 131.1491
" />
<path d="M100.0345 131.1491
L100.0345 131.5062
" />
<path d="M100.0345 131.5062
L99.9630 131.6491
" />
<path d="M99.9630 131.6491
L99.8916 131.7205
" />
<path d="M99.8916 131.7205
L99.7487 131.7919
" />
<path d="M99.7487 131.7919
L99.3916 131.7919
" />
<path d="M99.3916 131.7919
L99.2487 131.7205
" />
<path d="M99.2487 131.7205
L99.1773 131.6491
" />
</g></g>
<g style="fill:none; 
stroke:#000000; stroke-width:0.1500; stroke-opacity:1; 
stroke-linecap:round; stroke-linejoin:round;">
<text x="176.0072" y="134.6558"
textLength="7.0786" font-size="2.0000" lengthAdjust="spacingAndGlyphs"
text-anchor="start" opacity="0" stroke-opacity="0">Id: /1</text>
<g class="stroked-text"><desc>Id: /1</desc>
<path d="M176.4630 134.5919
L176.4630 133.0919
" />
<path d="M177.8202 134.5919
L177.8202 133.0919
" />
<path d="M177.8202 134.5205
L177.6773 134.5919
" />
<path d="M177.6773 134.5919
L177.3916 134.5919
" />
<path d="M177.3916 134.5919
L177.2487 134.5205
" />
<path d="M177.2487 134.5205
L177.1773 134.4491
" />
<path d="M177.1773 134.4491
L177.1059 134.3062
" />
<path d="M177.1059 134.3062
L177.1059 133.8776
" />
<path d="M177.1059 133.8776
L177.1773 133.7348
" />
<path d="M177.1773 133.7348
L177.2487 133.6634
" />
<path d="M177.2487 133.6634
L177.3916 133.5919
" />
<path d="M177.3916 133.5919
L177.6773 133.5919
" />
<path d="M177.6773 133.5919
L177.8202 133.6634
" />
<path d="M178.5345 134.4491
L178.6059 134.5205
" />
<path d="M178.6059 134.5205
L178.5345 134.5919
" />
<path d="M178.5345 134.5919
L178.4630 134.5205
" />
<path d="M178.4630 134.5205
L178.5345 134.4491
" />
<path d="M178.5345 134.4491
L178.5345 134.5919
" />
<path d="M178.5345 133.6634
L178.6059 133.7348
" />
<path d="M178.6059 133.7348
L178.5345 133.8062
" />
<path d="M178.5345 133.8062
L178.4630 133.7348
" />
<path d="M178.4630 133.7348
L178.5345 133.6634
" />
<path d="M178.5345 133.6634
L178.5345 133.8062
" />
<path d="M181.4630 133.0205
L180.1773 134.9491
" />
<path d="M182.7487 134.5919
L181.8916 134.5919
" />
<path d="M182.3202 134.5919
L182.3202 133.0919
" />
<path d="M182.3202 133.0919
L182.1773 133.3062
" />
<path d="M182.1773 133.3062
L182.0345 133.4491
" />
<path d="M182.0345 133.4491
L181.8916 133.5205
" />
</g></g>
<g style="fill:none; 
stroke:#000000; stroke-width:0.1500; stroke-opacity:1; 
stroke-linecap:round; stroke-linejoin:round;">
<path d="M90.0072 125.5058
L198.0072 125.5058
" />
</g>
<g style="fill:none; 
stroke:#000000; stroke-width:0.4000; stroke-opacity:1; 
stroke-linecap:round; stroke-linejoin:round;">
<text x="91.0072" y="128.3058"
textLength="9.6571" font-size="2.6667" lengthAdjust="spacingAndGlyphs"
text-anchor="start" opacity="0" stroke-opacity="0">Title: </text>
<g class="stroked-text"><desc>Title: </desc>
<path d="M91.6989 126.2102
L92.8418 126.2102
" />
<path d="M92.0204 128.2102
L92.2704 126.2102
" />
<path d="M93.2585 128.2102
L93.4251 126.8769
" />
<path d="M93.5085 126.2102
L93.4013 126.3055
" />
<path d="M93.4013 126.3055
L93.4846 126.4007
" />
<path d="M93.4846 126.4007
L93.5918 126.3055
" />
<path d="M93.5918 126.3055
L93.5085 126.2102
" />
<path d="M93.5085 126.2102
L93.4846 126.4007
" />
<path d="M94.0918 126.8769
L94.8537 126.8769
" />
<path d="M94.4608 126.2102
L94.2465 127.9245
" />
<path d="M94.2465 127.9245
L94.3180 128.1150
" />
<path d="M94.3180 128.1150
L94.4965 128.2102
" />
<path d="M94.4965 128.2102
L94.6870 128.2102
" />
<path d="M95.6394 128.2102
L95.4608 128.1150
" />
<path d="M95.4608 128.1150
L95.3894 127.9245
" />
<path d="M95.3894 127.9245
L95.6037 126.2102
" />
<path d="M97.1751 128.1150
L96.9727 128.2102
" />
<path d="M96.9727 128.2102
L96.5918 128.2102
" />
<path d="M96.5918 128.2102
L96.4132 128.1150
" />
<path d="M96.4132 128.1150
L96.3418 127.9245
" />
<path d="M96.3418 127.9245
L96.4370 127.1626
" />
<path d="M96.4370 127.1626
L96.5561 126.9721
" />
<path d="M96.5561 126.9721
L96.7585 126.8769
" />
<path d="M96.7585 126.8769
L97.1394 126.8769
" />
<path d="M97.1394 126.8769
L97.3180 126.9721
" />
<path d="M97.3180 126.9721
L97.3894 127.1626
" />
<path d="M97.3894 127.1626
L97.3656 127.3531
" />
<path d="M97.3656 127.3531
L96.3894 127.5436
" />
<path d="M98.1394 128.0198
L98.2227 128.1150
" />
<path d="M98.2227 128.1150
L98.1156 128.2102
" />
<path d="M98.1156 128.2102
L98.0323 128.1150
" />
<path d="M98.0323 128.1150
L98.1394 128.0198
" />
<path d="M98.1394 128.0198
L98.1156 128.2102
" />
<path d="M98.2704 126.9721
L98.3537 127.0674
" />
<path d="M98.3537 127.0674
L98.2465 127.1626
" />
<path d="M98.2465 127.1626
L98.1632 127.0674
" />
<path d="M98.1632 127.0674
L98.2704 126.9721
" />
<path d="M98.2704 126.9721
L98.2465 127.1626
" />
</g></g>
<g style="fill:none; 
stroke:#000000; stroke-width:0.1500; stroke-opacity:1; 
stroke-linecap:round; stroke-linejoin:round;">
<text x="91.0072" y="124.4558"
textLength="36.7929" font-size="2.0000" lengthAdjust="spacingAndGlyphs"
text-anchor="start" opacity="0" stroke-opacity="0">File: modulo_seguidor.kicad_pcb</text>
<g class="stroked-text"><desc>File: modulo_seguidor.kicad_pcb</desc>
<path d="M91.9630 123.6062
L91.4630 123.6062
" />
<path d="M91.4630 124.3919
L91.4630 122.8919
" />
<path d="M91.4630 122.8919
L92.1773 122.8919
" />
<path d="M92.7487 124.3919
L92.7487 123.3919
" />
<path d="M92.7487 122.8919
L92.6773 122.9634
" />
<path d="M92.6773 122.9634
L92.7487 123.0348
" />
<path d="M92.7487 123.0348
L92.8202 122.9634
" />
<path d="M92.8202 122.9634
L92.7487 122.8919
" />
<path d="M92.7487 122.8919
L92.7487 123.0348
" />
<path d="M93.6773 124.3919
L93.5345 124.3205
" />
<path d="M93.5345 124.3205
L93.4630 124.1776
" />
<path d="M93.4630 124.1776
L93.4630 122.8919
" />
<path d="M94.8202 124.3205
L94.6773 124.3919
" />
<path d="M94.6773 124.3919
L94.3916 124.3919
" />
<path d="M94.3916 124.3919
L94.2487 124.3205
" />
<path d="M94.2487 124.3205
L94.1773 124.1776
" />
<path d="M94.1773 124.1776
L94.1773 123.6062
" />
<path d="M94.1773 123.6062
L94.2487 123.4634
" />
<path d="M94.2487 123.4634
L94.3916 123.3919
" />
<path d="M94.3916 123.3919
L94.6773 123.3919
" />
<path d="M94.6773 123.3919
L94.8202 123.4634
" />
<path d="M94.8202 123.4634
L94.8916 123.6062
" />
<path d="M94.8916 123.6062
L94.8916 123.7491
" />
<path d="M94.8916 123.7491
L94.1773 123.8919
" />
<path d="M95.5345 124.2491
L95.6059 124.3205
" />
<path d="M95.6059 124.3205
L95.5345 124.3919
" />
<path d="M95.5345 124.3919
L95.4630 124.3205
" />
<path d="M95.4630 124.3205
L95.5345 124.2491
" />
<path d="M95.5345 124.2491
L95.5345 124.3919
" />
<path d="M95.5345 123.4634
L95.6059 123.5348
" />
<path d="M95.6059 123.5348
L95.5345 123.6062
" />
<path d="M95.5345 123.6062
L95.4630 123.5348
" />
<path d="M95.4630 123.5348
L95.5345 123.4634
" />
<path d="M95.5345 123.4634
L95.5345 123.6062
" />
<path d="M97.3916 124.3919
L97.3916 123.3919
" />
<path d="M97.3916 123.5348
L97.4630 123.4634
" />
<path d="M97.4630 123.4634
L97.6059 123.3919
" />
<path d="M97.6059 123.3919
L97.8202 123.3919
" />
<path d="M97.8202 123.3919
L97.9630 123.4634
" />
<path d="M97.9630 123.4634
L98.0345 123.6062
" />
<path d="M98.0345 123.6062
L98.0345 124.3919
" />
<path d="M98.0345 123.6062
L98.1059 123.4634
" />
<path d="M98.1059 123.4634
L98.2487 123.3919
" />
<path d="M98.2487 123.3919
L98.4630 123.3919
" />
<path d="M98.4630 123.3919
L98.6059 123.4634
" />
<path d="M98.6059 123.4634
L98.6773 123.6062
" />
<path d="M98.6773 123.6062
L98.6773 124.3919
" />
<path d="M99.6059 124.3919
L99.4630 124.3205
" />
<path d="M99.4630 124.3205
L99.3916 124.2491
" />
<path d="M99.3916 124.2491
L99.3202 124.1062
" />
<path d="M99.3202 124.1062
L99.3202 123.6776
" />
<path d="M99.3202 123.6776
L99.3916 123.5348
" />
<path d="M99.3916 123.5348
L99.4630 123.4634
" />
<path d="M99.4630 123.4634
L99.6059 123.3919
" />
<path d="M99.6059 123.3919
L99.8202 123.3919
" />
<path d="M99.8202 123.3919
L99.9630 123.4634
" />
<path d="M99.9630 123.4634
L100.0345 123.5348
" />
<path d="M100.0345 123.5348
L100.1059 123.6776
" />
<path d="M100.1059 123.6776
L100.1059 124.1062
" />
<path d="M100.1059 124.1062
L100.0345 124.2491
" />
<path d="M100.0345 124.2491
L99.9630 124.3205
" />
<path d="M99.9630 124.3205
L99.8202 124.3919
" />
<path d="M99.8202 124.3919
L99.6059 124.3919
" />
<path d="M101.3916 124.3919
L101.3916 122.8919
" />
<path d="M101.3916 124.3205
L101.2487 124.3919
" />
<path d="M101.2487 124.3919
L100.9630 124.3919
" />
<path d="M100.9630 124.3919
L100.8202 124.3205
" />
<path d="M100.8202 124.3205
L100.7487 124.2491
" />
<path d="M100.7487 124.2491
L100.6773 124.1062
" />
<path d="M100.6773 124.1062
L100.6773 123.6776
" />
<path d="M100.6773 123.6776
L100.7487 123.5348
" />
<path d="M100.7487 123.5348
L100.8202 123.4634
" />
<path d="M100.8202 123.4634
L100.9630 123.3919
" />
<path d="M100.9630 123.3919
L101.2487 123.3919
" />
<path d="M101.2487 123.3919
L101.3916 123.4634
" />
<path d="M102.7487 123.3919
L102.7487 124.3919
" />
<path d="M102.1059 123.3919
L102.1059 124.1776
" />
<path d="M102.1059 124.1776
L102.1773 124.3205
" />
<path d="M102.1773 124.3205
L102.3202 124.3919
" />
<path d="M102.3202 124.3919
L102.5345 124.3919
" />
<path d="M102.5345 124.3919
L102.6773 124.3205
" />
<path d="M102.6773 124.3205
L102.7487 124.2491
" />
<path d="M103.6773 124.3919
L103.5345 124.3205
" />
<path d="M103.5345 124.3205
L103.4630 124.1776
" />
<path d="M103.4630 124.1776
L103.4630 122.8919
" />
<path d="M104.4630 124.3919
L104.3202 124.3205
" />
<path d="M104.3202 124.3205
L104.2487 124.2491
" />
<path d="M104.2487 124.2491
L104.1773 124.1062
" />
<path d="M104.1773 124.1062
L104.1773 123.6776
" />
<path d="M104.1773 123.6776
L104.2487 123.5348
" />
<path d="M104.2487 123.5348
L104.3202 123.4634
" />
<path d="M104.3202 123.4634
L104.4630 123.3919
" />
<path d="M104.4630 123.3919
L104.6773 123.3919
" />
<path d="M104.6773 123.3919
L104.8202 123.4634
" />
<path d="M104.8202 123.4634
L104.8916 123.5348
" />
<path d="M104.8916 123.5348
L104.9630 123.6776
" />
<path d="M104.9630 123.6776
L104.9630 124.1062
" />
<path d="M104.9630 124.1062
L104.8916 124.2491
" />
<path d="M104.8916 124.2491
L104.8202 124.3205
" />
<path d="M104.8202 124.3205
L104.6773 124.3919
" />
<path d="M104.6773 124.3919
L104.4630 124.3919
" />
<path d="M105.2487 124.5348
L106.3916 124.5348
" />
<path d="M106.6773 124.3205
L106.8202 124.3919
" />
<path d="M106.8202 124.3919
L107.1059 124.3919
" />
<path d="M107.1059 124.3919
L107.2487 124.3205
" />
<path d="M107.2487 124.3205
L107.3202 124.1776
" />
<path d="M107.3202 124.1776
L107.3202 124.1062
" />
<path d="M107.3202 124.1062
L107.2487 123.9634
" />
<path d="M107.2487 123.9634
L107.1059 123.8919
" />
<path d="M107.1059 123.8919
L106.8916 123.8919
" />
<path d="M106.8916 123.8919
L106.7487 123.8205
" />
<path d="M106.7487 123.8205
L106.6773 123.6776
" />
<path d="M106.6773 123.6776
L106.6773 123.6062
" />
<path d="M106.6773 123.6062
L106.7487 123.4634
" />
<path d="M106.7487 123.4634
L106.8916 123.3919
" />
<path d="M106.8916 123.3919
L107.1059 123.3919
" />
<path d="M107.1059 123.3919
L107.2487 123.4634
" />
<path d="M108.5345 124.3205
L108.3916 124.3919
" />
<path d="M108.3916 124.3919
L108.1059 124.3919
" />
<path d="M108.1059 124.3919
L107.9630 124.3205
" />
<path d="M107.9630 124.3205
L107.8916 124.1776
" />
<path d="M107.8916 124.1776
L107.8916 123.6062
" />
<path d="M107.8916 123.6062
L107.9630 123.4634
" />
<path d="M107.9630 123.4634
L108.1059 123.3919
" />
<path d="M108.1059 123.3919
L108.3916 123.3919
" />
<path d="M108.3916 123.3919
L108.5345 123.4634
" />
<path d="M108.5345 123.4634
L108.6059 123.6062
" />
<path d="M108.6059 123.6062
L108.6059 123.7491
" />
<path d="M108.6059 123.7491
L107.8916 123.8919
" />
<path d="M109.8916 123.3919
L109.8916 124.6062
" />
<path d="M109.8916 124.6062
L109.8202 124.7491
" />
<path d="M109.8202 124.7491
L109.7487 124.8205
" />
<path d="M109.7487 124.8205
L109.6059 124.8919
" />
<path d="M109.6059 124.8919
L109.3916 124.8919
" />
<path d="M109.3916 124.8919
L109.2487 124.8205
" />
<path d="M109.8916 124.3205
L109.7487 124.3919
" />
<path d="M109.7487 124.3919
L109.4630 124.3919
" />
<path d="M109.4630 124.3919
L109.3202 124.3205
" />
<path d="M109.3202 124.3205
L109.2487 124.2491
" />
<path d="M109.2487 124.2491
L109.1773 124.1062
" />
<path d="M109.1773 124.1062
L109.1773 123.6776
" />
<path d="M109.1773 123.6776
L109.2487 123.5348
" />
<path d="M109.2487 123.5348
L109.3202 123.4634
" />
<path d="M109.3202 123.4634
L109.4630 123.3919
" />
<path d="M109.4630 123.3919
L109.7487 123.3919
" />
<path d="M109.7487 123.3919
L109.8916 123.4634
" />
<path d="M111.2487 123.3919
L111.2487 124.3919
" />
<path d="M110.6059 123.3919
L110.6059 124.1776
" />
<path d="M110.6059 124.1776
L110.6773 124.3205
" />
<path d="M110.6773 124.3205
L110.8202 124.3919
" />
<path d="M110.8202 124.3919
L111.0345 124.3919
" />
<path d="M111.0345 124.3919
L111.1773 124.3205
" />
<path d="M111.1773 124.3205
L111.2487 124.2491
" />
<path d="M111.9630 124.3919
L111.9630 123.3919
" />
<path d="M111.9630 122.8919
L111.8916 122.9634
" />
<path d="M111.8916 122.9634
L111.9630 123.0348
" />
<path d="M111.9630 123.0348
L112.0345 122.9634
" />
<path d="M112.0345 122.9634
L111.9630 122.8919
" />
<path d="M111.9630 122.8919
L111.9630 123.0348
" />
<path d="M113.3202 124.3919
L113.3202 122.8919
" />
<path d="M113.3202 124.3205
L113.1773 124.3919
" />
<path d="M113.1773 124.3919
L112.8916 124.3919
" />
<path d="M112.8916 124.3919
L112.7487 124.3205
" />
<path d="M112.7487 124.3205
L112.6773 124.2491
" />
<path d="M112.6773 124.2491
L112.6059 124.1062
" />
<path d="M112.6059 124.1062
L112.6059 123.6776
" />
<path d="M112.6059 123.6776
L112.6773 123.5348
" />
<path d="M112.6773 123.5348
L112.7487 123.4634
" />
<path d="M112.7487 123.4634
L112.8916 123.3919
" />
<path d="M112.8916 123.3919
L113.1773 123.3919
" />
<path d="M113.1773 123.3919
L113.3202 123.4634
" />
<path d="M114.2487 124.3919
L114.1059 124.3205
" />
<path d="M114.1059 124.3205
L114.0345 124.2491
" />
<path d="M114.0345 124.2491
L113.9630 124.1062
" />
<path d="M113.9630 124.1062
L113.9630 123.6776
" />
<path d="M113.9630 123.6776
L114.0345 123.5348
" />
<path d="M114.0345 123.5348
L114.1059 123.4634
" />
<path d="M114.1059 123.4634
L114.2487 123.3919
" />
<path d="M114.2487 123.3919
L114.4630 123.3919
" />
<path d="M114.4630 123.3919
L114.6059 123.4634
" />
<path d="M114.6059 123.4634
L114.6773 123.5348
" />
<path d="M114.6773 123.5348
L114.7487 123.6776
" />
<path d="M114.7487 123.6776
L114.7487 124.1062
" />
<path d="M114.7487 124.1062
L114.6773 124.2491
" />
<path d="M114.6773 124.2491
L114.6059 124.3205
" />
<path d="M114.6059 124.3205
L114.4630 124.3919
" />
<path d="M114.4630 124.3919
L114.2487 124.3919
" />
<path d="M115.3916 124.3919
L115.3916 123.3919
" />
<path d="M115.3916 123.6776
L115.4630 123.5348
" />
<path d="M115.4630 123.5348
L115.5345 123.4634
" />
<path d="M115.5345 123.4634
L115.6773 123.3919
" />
<path d="M115.6773 123.3919
L115.8202 123.3919
" />
<path d="M116.3202 124.2491
L116.3916 124.3205
" />
<path d="M116.3916 124.3205
L116.3202 124.3919
" />
<path d="M116.3202 124.3919
L116.2487 124.3205
" />
<path d="M116.2487 124.3205
L116.3202 124.2491
" />
<path d="M116.3202 124.2491
L116.3202 124.3919
" />
<path d="M117.0345 124.3919
L117.0345 122.8919
" />
<path d="M117.1773 123.8205
L117.6059 124.3919
" />
<path d="M117.6059 123.3919
L117.0345 123.9634
" />
<path d="M118.2487 124.3919
L118.2487 123.3919
" />
<path d="M118.2487 122.8919
L118.1773 122.9634
" />
<path d="M118.1773 122.9634
L118.2487 123.0348
" />
<path d="M118.2487 123.0348
L118.3202 122.9634
" />
<path d="M118.3202 122.9634
L118.2487 122.8919
" />
<path d="M118.2487 122.8919
L118.2487 123.0348
" />
<path d="M119.6059 124.3205
L119.4630 124.3919
" />
<path d="M119.4630 124.3919
L119.1773 124.3919
" />
<path d="M119.1773 124.3919
L119.0345 124.3205
" />
<path d="M119.0345 124.3205
L118.9630 124.2491
" />
<path d="M118.9630 124.2491
L118.8916 124.1062
" />
<path d="M118.8916 124.1062
L118.8916 123.6776
" />
<path d="M118.8916 123.6776
L118.9630 123.5348
" />
<path d="M118.9630 123.5348
L119.0345 123.4634
" />
<path d="M119.0345 123.4634
L119.1773 123.3919
" />
<path d="M119.1773 123.3919
L119.4630 123.3919
" />
<path d="M119.4630 123.3919
L119.6059 123.4634
" />
<path d="M120.8916 124.3919
L120.8916 123.6062
" />
<path d="M120.8916 123.6062
L120.8202 123.4634
" />
<path d="M120.8202 123.4634
L120.6773 123.3919
" />
<path d="M120.6773 123.3919
L120.3916 123.3919
" />
<path d="M120.3916 123.3919
L120.2487 123.4634
" />
<path d="M120.8916 124.3205
L120.7487 124.3919
" />
<path d="M120.7487 124.3919
L120.3916 124.3919
" />
<path d="M120.3916 124.3919
L120.2487 124.3205
" />
<path d="M120.2487 124.3205
L120.1773 124.1776
" />
<path d="M120.1773 124.1776
L120.1773 124.0348
" />
<path d="M120.1773 124.0348
L120.2487 123.8919
" />
<path d="M120.2487 123.8919
L120.3916 123.8205
" />
<path d="M120.3916 123.8205
L120.7487 123.8205
" />
<path d="M120.7487 123.8205
L120.8916 123.7491
" />
<path d="M122.2487 124.3919
L122.2487 122.8919
" />
<path d="M122.2487 124.3205
L122.1059 124.3919
" />
<path d="M122.1059 124.3919
L121.8202 124.3919
" />
<path d="M121.8202 124.3919
L121.6773 124.3205
" />
<path d="M121.6773 124.3205
L121.6059 124.2491
" />
<path d="M121.6059 124.2491
L121.5345 124.1062
" />
<path d="M121.5345 124.1062
L121.5345 123.6776
" />
<path d="M121.5345 123.6776
L121.6059 123.5348
" />
<path d="M121.6059 123.5348
L121.6773 123.4634
" />
<path d="M121.6773 123.4634
L121.8202 123.3919
" />
<path d="M121.8202 123.3919
L122.1059 123.3919
" />
<path d="M122.1059 123.3919
L122.2487 123.4634
" />
<path d="M122.6059 124.5348
L123.7487 124.5348
" />
<path d="M124.1059 123.3919
L124.1059 124.8919
" />
<path d="M124.1059 123.4634
L124.2487 123.3919
" />
<path d="M124.2487 123.3919
L124.5345 123.3919
" />
<path d="M124.5345 123.3919
L124.6773 123.4634
" />
<path d="M124.6773 123.4634
L124.7487 123.5348
" />
<path d="M124.7487 123.5348
L124.8202 123.6776
" />
<path d="M124.8202 123.6776
L124.8202 124.1062
" />
<path d="M124.8202 124.1062
L124.7487 124.2491
" />
<path d="M124.7487 124.2491
L124.6773 124.3205
" />
<path d="M124.6773 124.3205
L124.5345 124.3919
" />
<path d="M124.5345 124.3919
L124.2487 124.3919
" />
<path d="M124.2487 124.3919
L124.1059 124.3205
" />
<path d="M126.1059 124.3205
L125.9630 124.3919
" />
<path d="M125.9630 124.3919
L125.6773 124.3919
" />
<path d="M125.6773 124.3919
L125.5345 124.3205
" />
<path d="M125.5345 124.3205
L125.4630 124.2491
" />
<path d="M125.4630 124.2491
L125.3916 124.1062
" />
<path d="M125.3916 124.1062
L125.3916 123.6776
" />
<path d="M125.3916 123.6776
L125.4630 123.5348
" />
<path d="M125.4630 123.5348
L125.5345 123.4634
" />
<path d="M125.5345 123.4634
L125.6773 123.3919
" />
<path d="M125.6773 123.3919
L125.9630 123.3919
" />
<path d="M125.9630 123.3919
L126.1059 123.4634
" />
<path d="M126.7487 124.3919
L126.7487 122.8919
" />
<path d="M126.7487 123.4634
L126.8916 123.3919
" />
<path d="M126.8916 123.3919
L127.1773 123.3919
" />
<path d="M127.1773 123.3919
L127.3202 123.4634
" />
<path d="M127.3202 123.4634
L127.3916 123.5348
" />
<path d="M127.3916 123.5348
L127.4630 123.6776
" />
<path d="M127.4630 123.6776
L127.4630 124.1062
" />
<path d="M127.4630 124.1062
L127.3916 124.2491
" />
<path d="M127.3916 124.2491
L127.3202 124.3205
" />
<path d="M127.3202 124.3205
L127.1773 124.3919
" />
<path d="M127.1773 124.3919
L126.8916 124.3919
" />
<path d="M126.8916 124.3919
L126.7487 124.3205
" />
</g></g>
<g style="fill:none; 
stroke:#000000; stroke-width:0.1500; stroke-opacity:1; 
stroke-linecap:round; stroke-linejoin:round;">
<path d="M90.0072 119.5058
L198.0072 119.5058
" />
</g>
<g style="fill:none; 
stroke:#000000; stroke-width:0.1500; stroke-opacity:1; 
stroke-linecap:round; stroke-linejoin:round;">
<text x="91.0072" y="121.7558"
textLength="8.2214" font-size="2.0000" lengthAdjust="spacingAndGlyphs"
text-anchor="start" opacity="0" stroke-opacity="0">Sheet: </text>
<g class="stroked-text"><desc>Sheet: </desc>
<path d="M91.3916 121.6205
L91.6059 121.6919
" />
<path d="M91.6059 121.6919
L91.9630 121.6919
" />
<path d="M91.9630 121.6919
L92.1059 121.6205
" />
<path d="M92.1059 121.6205
L92.1773 121.5491
" />
<path d="M92.1773 121.5491
L92.2487 121.4062
" />
<path d="M92.2487 121.4062
L92.2487 121.2634
" />
<path d="M92.2487 121.2634
L92.1773 121.1205
" />
<path d="M92.1773 121.1205
L92.1059 121.0491
" />
<path d="M92.1059 121.0491
L91.9630 120.9776
" />
<path d="M91.9630 120.9776
L91.6773 120.9062
" />
<path d="M91.6773 120.9062
L91.5345 120.8348
" />
<path d="M91.5345 120.8348
L91.4630 120.7634
" />
<path d="M91.4630 120.7634
L91.3916 120.6205
" />
<path d="M91.3916 120.6205
L91.3916 120.4776
" />
<path d="M91.3916 120.4776
L91.4630 120.3348
" />
<path d="M91.4630 120.3348
L91.5345 120.2634
" />
<path d="M91.5345 120.2634
L91.6773 120.1919
" />
<path d="M91.6773 120.1919
L92.0345 120.1919
" />
<path d="M92.0345 120.1919
L92.2487 120.2634
" />
<path d="M92.8916 121.6919
L92.8916 120.1919
" />
<path d="M93.5345 121.6919
L93.5345 120.9062
" />
<path d="M93.5345 120.9062
L93.4630 120.7634
" />
<path d="M93.4630 120.7634
L93.3202 120.6919
" />
<path d="M93.3202 120.6919
L93.1059 120.6919
" />
<path d="M93.1059 120.6919
L92.9630 120.7634
" />
<path d="M92.9630 120.7634
L92.8916 120.8348
" />
<path d="M94.8202 121.6205
L94.6773 121.6919
" />
<path d="M94.6773 121.6919
L94.3916 121.6919
" />
<path d="M94.3916 121.6919
L94.2487 121.6205
" />
<path d="M94.2487 121.6205
L94.1773 121.4776
" />
<path d="M94.1773 121.4776
L94.1773 120.9062
" />
<path d="M94.1773 120.9062
L94.2487 120.7634
" />
<path d="M94.2487 120.7634
L94.3916 120.6919
" />
<path d="M94.3916 120.6919
L94.6773 120.6919
" />
<path d="M94.6773 120.6919
L94.8202 120.7634
" />
<path d="M94.8202 120.7634
L94.8916 120.9062
" />
<path d="M94.8916 120.9062
L94.8916 121.0491
" />
<path d="M94.8916 121.0491
L94.1773 121.1919
" />
<path d="M96.1059 121.6205
L95.9630 121.6919
" />
<path d="M95.9630 121.6919
L95.6773 121.6919
" />
<path d="M95.6773 121.6919
L95.5345 121.6205
" />
<path d="M95.5345 121.6205
L95.4630 121.4776
" />
<path d="M95.4630 121.4776
L95.4630 120.9062
" />
<path d="M95.4630 120.9062
L95.5345 120.7634
" />
<path d="M95.5345 120.7634
L95.6773 120.6919
" />
<path d="M95.6773 120.6919
L95.9630 120.6919
" />
<path d="M95.9630 120.6919
L96.1059 120.7634
" />
<path d="M96.1059 120.7634
L96.1773 120.9062
" />
<path d="M96.1773 120.9062
L96.1773 121.0491
" />
<path d="M96.1773 121.0491
L95.4630 121.1919
" />
<path d="M96.6059 120.6919
L97.1773 120.6919
" />
<path d="M96.8202 120.1919
L96.8202 121.4776
" />
<path d="M96.8202 121.4776
L96.8916 121.6205
" />
<path d="M96.8916 121.6205
L97.0345 121.6919
" />
<path d="M97.0345 121.6919
L97.1773 121.6919
" />
<path d="M97.6773 121.5491
L97.7487 121.6205
" />
<path d="M97.7487 121.6205
L97.6773 121.6919
" />
<path d="M97.6773 121.6919
L97.6059 121.6205
" />
<path d="M97.6059 121.6205
L97.6773 121.5491
" />
<path d="M97.6773 121.5491
L97.6773 121.6919
" />
<path d="M97.6773 120.7634
L97.7487 120.8348
" />
<path d="M97.7487 120.8348
L97.6773 120.9062
" />
<path d="M97.6773 120.9062
L97.6059 120.8348
" />
<path d="M97.6059 120.8348
L97.6773 120.7634
" />
<path d="M97.6773 120.7634
L97.6773 120.9062
" />
</g></g>
<g style="fill:none; 
stroke:#000000; stroke-width:0.3000; stroke-opacity:1; 
stroke-linecap:round; stroke-linejoin:round;">
<text x="91.0072" y="118.7558"
textLength="0.9000" font-size="2.0000" lengthAdjust="spacingAndGlyphs"
text-anchor="start" opacity="0" stroke-opacity="0"></text>
<g class="stroked-text"><desc></desc>
</g></g>
<g style="fill:none; 
stroke:#000000; stroke-width:0.1500; stroke-opacity:1; 
stroke-linecap:round; stroke-linejoin:round;">
<text x="91.0072" y="115.7558"
textLength="0.4500" font-size="2.0000" lengthAdjust="spacingAndGlyphs"
text-anchor="start" opacity="0" stroke-opacity="0"></text>
<g class="stroked-text"><desc></desc>
</g></g>
<g style="fill:none; 
stroke:#000000; stroke-width:0.1500; stroke-opacity:1; 
stroke-linecap:round; stroke-linejoin:round;">
<text x="91.0072" y="112.7558"
textLength="0.4500" font-size="2.0000" lengthAdjust="spacingAndGlyphs"
text-anchor="start" opacity="0" stroke-opacity="0"></text>
<g class="stroked-text"><desc></desc>
</g></g>
<g style="fill:none; 
stroke:#000000; stroke-width:0.1500; stroke-opacity:1; 
stroke-linecap:round; stroke-linejoin:round;">
<text x="91.0072" y="109.7558"
textLength="0.4500" font-size="2.0000" lengthAdjust="spacingAndGlyphs"
text-anchor="start" opacity="0" stroke-opacity="0"></text>
<g class="stroked-text"><desc></desc>
</g></g>
<g style="fill:none; 
stroke:#000000; stroke-width:0.1500; stroke-opacity:1; 
stroke-linecap:round; stroke-linejoin:round;">
<text x="91.0072" y="106.7558"
textLength="0.4500" font-size="2.0000" lengthAdjust="spacingAndGlyphs"
text-anchor="start" opacity="0" stroke-opacity="0"></text>
<g class="stroked-text"><desc></desc>
</g></g>
<g style="fill:none; 
stroke:#000000; stroke-width:0.1500; stroke-opacity:1; 
stroke-linecap:round; stroke-linejoin:round;">
<path d="M110.0072 129.5058
L110.0072 132.5058
" />
</g>
<g style="fill:none; 
stroke:#000000; stroke-width:0.1500; stroke-opacity:1; 
stroke-linecap:round; stroke-linejoin:round;">
<path d="M174.0072 129.5058
L174.0072 136.0058
" />
<path style="fill:none; 
stroke:#000000; stroke-width:0.0500; stroke-opacity:1; 
stroke-linecap:round; stroke-linejoin:round;fill:none"
d="M 50.0000,50.0000
150.0000,50.0000
150.0000,100.0000
50.0000,100.0000
Z" /> 
</g>
<g style="fill:none; 
stroke:#000000; stroke-width:0.1500; stroke-opacity:1; 
stroke-linecap:round; stroke-linejoin:round;">
<g transform="rotate(-180.000000 129.5400 65.4050)">
<text x="129.5400" y="65.9050"
transform="scale(-1 1) translate(-259.080000 0)"
textLength="2.2024" font-size="1.3333" lengthAdjust="spacingAndGlyphs"
text-anchor="middle" opacity="0" stroke-opacity="0">D0</text>
</g>
<g class="stroked-text"><desc>D0</desc>
<path d="M128.8019 64.9502
L128.8019 65.9502
" />
<path d="M128.8019 65.9502
L129.0400 65.9502
" />
<path d="M129.0400 65.9502
L129.1829 65.9026
" />
<path d="M129.1829 65.9026
L129.2781 65.8073
" />
<path d="M129.2781 65.8073
L129.3257 65.7121
" />
<path d="M129.3257 65.7121
L129.3733 65.5216
" />
<path d="M129.3733 65.5216
L129.3733 65.3788
" />
<path d="M129.3733 65.3788
L129.3257 65.1883
" />
<path d="M129.3257 65.1883
L129.2781 65.0930
" />
<path d="M129.2781 65.0930
L129.1829 64.9978
" />
<path d="M129.1829 64.9978
L129.0400 64.9502
" />
<path d="M129.0400 64.9502
L128.8019 64.9502
" />
<path d="M129.9924 65.9502
L130.0876 65.9502
" />
<path d="M130.0876 65.9502
L130.1829 65.9026
" />
<path d="M130.1829 65.9026
L130.2305 65.8549
" />
<path d="M130.2305 65.8549
L130.2781 65.7597
" />
<path d="M130.2781 65.7597
L130.3257 65.5692
" />
<path d="M130.3257 65.5692
L130.3257 65.3311
" />
<path d="M130.3257 65.3311
L130.2781 65.1407
" />
<path d="M130.2781 65.1407
L130.2305 65.0454
" />
<path d="M130.2305 65.0454
L130.1829 64.9978
" />
<path d="M130.1829 64.9978
L130.0876 64.9502
" />
<path d="M130.0876 64.9502
L129.9924 64.9502
" />
<path d="M129.9924 64.9502
L129.8971 64.9978
" />
<path d="M129.8971 64.9978
L129.8495 65.0454
" />
<path d="M129.8495 65.0454
L129.8019 65.1407
" />
<path d="M129.8019 65.1407
L129.7543 65.3311
" />
<path d="M129.7543 65.3311
L129.7543 65.5692
" />
<path d="M129.7543 65.5692
L129.8019 65.7597
" />
<path d="M129.8019 65.7597
L129.8495 65.8549
" />
<path d="M129.8495 65.8549
L129.8971 65.9026
" />
<path d="M129.8971 65.9026
L129.9924 65.9502
" />
</g></g> 
</svg>
