<?xml version="1.0" standalone="no"?>
 <!DOCTYPE svg PUBLIC "-//W3C//DTD SVG 1.1//EN" 
 "http://www.w3.org/Graphics/SVG/1.1/DTD/svg11.dtd"> 
<svg
  xmlns:svg="http://www.w3.org/2000/svg"
  xmlns="http://www.w3.org/2000/svg"
  xmlns:xlink="http://www.w3.org/1999/xlink"
  version="1.1"
  width="210.0072mm" height="148.0058mm" viewBox="0.0000 0.0000 210.0072 148.0058">
<title>SVG Image created as modulo_seguidor-F_Silkscreen.svg date 2025/09/09 17:03:40 </title>
  <desc>Image generated by PCBNEW </desc>
<g style="fill:#000000; fill-opacity:1.0000;stroke:#000000; stroke-opacity:1.0000;
stroke-linecap:round; stroke-linejoin:round;"
 transform="translate(0 0) scale(1 1)">
</g>
<g style="fill:none; 
stroke:#000000; stroke-width:0.1500; stroke-opacity:1; 
stroke-linecap:round; stroke-linejoin:round;">
<path d="M90.0072 104.0058
L198.0072 104.0058
L198.0072 136.0058
L90.0072 136.0058
L90.0072 104.0058
" />
</g>
<g style="fill:none; 
stroke:#000000; stroke-width:0.1500; stroke-opacity:1; 
stroke-linecap:round; stroke-linejoin:round;">
<path d="M10.0000 10.0000
L200.0072 10.0000
L200.0072 138.0058
L10.0000 138.0058
L10.0000 10.0000
" />
</g>
<g style="fill:none; 
stroke:#000000; stroke-width:0.1500; stroke-opacity:1; 
stroke-linecap:round; stroke-linejoin:round;">
<path d="M12.0000 12.0000
L198.0072 12.0000
L198.0072 136.0058
L12.0000 136.0058
L12.0000 12.0000
" />
</g>
<g style="fill:none; 
stroke:#000000; stroke-width:0.1500; stroke-opacity:1; 
stroke-linecap:round; stroke-linejoin:round;">
<path d="M60.0000 12.0000
L60.0000 10.0000
" />
</g>
<g style="fill:none; 
stroke:#000000; stroke-width:0.1500; stroke-opacity:1; 
stroke-linecap:round; stroke-linejoin:round;">
<path d="M110.0000 12.0000
L110.0000 10.0000
" />
</g>
<g style="fill:none; 
stroke:#000000; stroke-width:0.1500; stroke-opacity:1; 
stroke-linecap:round; stroke-linejoin:round;">
<path d="M160.0000 12.0000
L160.0000 10.0000
" />
</g>
<g style="fill:none; 
stroke:#000000; stroke-width:0.1500; stroke-opacity:1; 
stroke-linecap:round; stroke-linejoin:round;">
<text x="35.0000" y="11.6500"
textLength="1.4281" font-size="1.7333" lengthAdjust="spacingAndGlyphs"
text-anchor="start" opacity="0" stroke-opacity="0">1</text>
<g class="stroked-text"><desc>1</desc>
<path d="M36.0892 11.5936
L35.3463 11.5936
" />
<path d="M35.7177 11.5936
L35.7177 10.2936
" />
<path d="M35.7177 10.2936
L35.5939 10.4793
" />
<path d="M35.5939 10.4793
L35.4701 10.6031
" />
<path d="M35.4701 10.6031
L35.3463 10.6650
" />
</g></g>
<g style="fill:none; 
stroke:#000000; stroke-width:0.1500; stroke-opacity:1; 
stroke-linecap:round; stroke-linejoin:round;">
<text x="85.0000" y="11.6500"
textLength="1.4281" font-size="1.7333" lengthAdjust="spacingAndGlyphs"
text-anchor="start" opacity="0" stroke-opacity="0">2</text>
<g class="stroked-text"><desc>2</desc>
<path d="M85.3463 10.4174
L85.4082 10.3555
" />
<path d="M85.4082 10.3555
L85.5320 10.2936
" />
<path d="M85.5320 10.2936
L85.8415 10.2936
" />
<path d="M85.8415 10.2936
L85.9654 10.3555
" />
<path d="M85.9654 10.3555
L86.0273 10.4174
" />
<path d="M86.0273 10.4174
L86.0892 10.5412
" />
<path d="M86.0892 10.5412
L86.0892 10.6650
" />
<path d="M86.0892 10.6650
L86.0273 10.8507
" />
<path d="M86.0273 10.8507
L85.2844 11.5936
" />
<path d="M85.2844 11.5936
L86.0892 11.5936
" />
</g></g>
<g style="fill:none; 
stroke:#000000; stroke-width:0.1500; stroke-opacity:1; 
stroke-linecap:round; stroke-linejoin:round;">
<text x="135.0000" y="11.6500"
textLength="1.4281" font-size="1.7333" lengthAdjust="spacingAndGlyphs"
text-anchor="start" opacity="0" stroke-opacity="0">3</text>
<g class="stroked-text"><desc>3</desc>
<path d="M135.2844 10.2936
L136.0892 10.2936
" />
<path d="M136.0892 10.2936
L135.6558 10.7888
" />
<path d="M135.6558 10.7888
L135.8415 10.7888
" />
<path d="M135.8415 10.7888
L135.9654 10.8507
" />
<path d="M135.9654 10.8507
L136.0273 10.9127
" />
<path d="M136.0273 10.9127
L136.0892 11.0365
" />
<path d="M136.0892 11.0365
L136.0892 11.3460
" />
<path d="M136.0892 11.3460
L136.0273 11.4698
" />
<path d="M136.0273 11.4698
L135.9654 11.5317
" />
<path d="M135.9654 11.5317
L135.8415 11.5936
" />
<path d="M135.8415 11.5936
L135.4701 11.5936
" />
<path d="M135.4701 11.5936
L135.3463 11.5317
" />
<path d="M135.3463 11.5317
L135.2844 11.4698
" />
</g></g>
<g style="fill:none; 
stroke:#000000; stroke-width:0.1500; stroke-opacity:1; 
stroke-linecap:round; stroke-linejoin:round;">
<text x="185.0000" y="11.6500"
textLength="1.4281" font-size="1.7333" lengthAdjust="spacingAndGlyphs"
text-anchor="start" opacity="0" stroke-opacity="0">4</text>
<g class="stroked-text"><desc>4</desc>
<path d="M185.9654 10.7269
L185.9654 11.5936
" />
<path d="M185.6558 10.2317
L185.3463 11.1603
" />
<path d="M185.3463 11.1603
L186.1511 11.1603
" />
</g></g>
<g style="fill:none; 
stroke:#000000; stroke-width:0.1500; stroke-opacity:1; 
stroke-linecap:round; stroke-linejoin:round;">
<path d="M60.0000 136.0058
L60.0000 138.0058
" />
</g>
<g style="fill:none; 
stroke:#000000; stroke-width:0.1500; stroke-opacity:1; 
stroke-linecap:round; stroke-linejoin:round;">
<path d="M110.0000 136.0058
L110.0000 138.0058
" />
</g>
<g style="fill:none; 
stroke:#000000; stroke-width:0.1500; stroke-opacity:1; 
stroke-linecap:round; stroke-linejoin:round;">
<path d="M160.0000 136.0058
L160.0000 138.0058
" />
</g>
<g style="fill:none; 
stroke:#000000; stroke-width:0.1500; stroke-opacity:1; 
stroke-linecap:round; stroke-linejoin:round;">
<text x="35.0000" y="137.6558"
textLength="1.4281" font-size="1.7333" lengthAdjust="spacingAndGlyphs"
text-anchor="start" opacity="0" stroke-opacity="0">1</text>
<g class="stroked-text"><desc>1</desc>
<path d="M36.0892 137.5994
L35.3463 137.5994
" />
<path d="M35.7177 137.5994
L35.7177 136.2994
" />
<path d="M35.7177 136.2994
L35.5939 136.4851
" />
<path d="M35.5939 136.4851
L35.4701 136.6089
" />
<path d="M35.4701 136.6089
L35.3463 136.6708
" />
</g></g>
<g style="fill:none; 
stroke:#000000; stroke-width:0.1500; stroke-opacity:1; 
stroke-linecap:round; stroke-linejoin:round;">
<text x="85.0000" y="137.6558"
textLength="1.4281" font-size="1.7333" lengthAdjust="spacingAndGlyphs"
text-anchor="start" opacity="0" stroke-opacity="0">2</text>
<g class="stroked-text"><desc>2</desc>
<path d="M85.3463 136.4232
L85.4082 136.3613
" />
<path d="M85.4082 136.3613
L85.5320 136.2994
" />
<path d="M85.5320 136.2994
L85.8415 136.2994
" />
<path d="M85.8415 136.2994
L85.9654 136.3613
" />
<path d="M85.9654 136.3613
L86.0273 136.4232
" />
<path d="M86.0273 136.4232
L86.0892 136.5470
" />
<path d="M86.0892 136.5470
L86.0892 136.6708
" />
<path d="M86.0892 136.6708
L86.0273 136.8565
" />
<path d="M86.0273 136.8565
L85.2844 137.5994
" />
<path d="M85.2844 137.5994
L86.0892 137.5994
" />
</g></g>
<g style="fill:none; 
stroke:#000000; stroke-width:0.1500; stroke-opacity:1; 
stroke-linecap:round; stroke-linejoin:round;">
<text x="135.0000" y="137.6558"
textLength="1.4281" font-size="1.7333" lengthAdjust="spacingAndGlyphs"
text-anchor="start" opacity="0" stroke-opacity="0">3</text>
<g class="stroked-text"><desc>3</desc>
<path d="M135.2844 136.2994
L136.0892 136.2994
" />
<path d="M136.0892 136.2994
L135.6558 136.7946
" />
<path d="M135.6558 136.7946
L135.8415 136.7946
" />
<path d="M135.8415 136.7946
L135.9654 136.8565
" />
<path d="M135.9654 136.8565
L136.0273 136.9185
" />
<path d="M136.0273 136.9185
L136.0892 137.0423
" />
<path d="M136.0892 137.0423
L136.0892 137.3518
" />
<path d="M136.0892 137.3518
L136.0273 137.4756
" />
<path d="M136.0273 137.4756
L135.9654 137.5375
" />
<path d="M135.9654 137.5375
L135.8415 137.5994
" />
<path d="M135.8415 137.5994
L135.4701 137.5994
" />
<path d="M135.4701 137.5994
L135.3463 137.5375
" />
<path d="M135.3463 137.5375
L135.2844 137.4756
" />
</g></g>
<g style="fill:none; 
stroke:#000000; stroke-width:0.1500; stroke-opacity:1; 
stroke-linecap:round; stroke-linejoin:round;">
<text x="185.0000" y="137.6558"
textLength="1.4281" font-size="1.7333" lengthAdjust="spacingAndGlyphs"
text-anchor="start" opacity="0" stroke-opacity="0">4</text>
<g class="stroked-text"><desc>4</desc>
<path d="M185.9654 136.7327
L185.9654 137.5994
" />
<path d="M185.6558 136.2375
L185.3463 137.1661
" />
<path d="M185.3463 137.1661
L186.1511 137.1661
" />
</g></g>
<g style="fill:none; 
stroke:#000000; stroke-width:0.1500; stroke-opacity:1; 
stroke-linecap:round; stroke-linejoin:round;">
<path d="M10.0000 60.0000
L12.0000 60.0000
" />
</g>
<g style="fill:none; 
stroke:#000000; stroke-width:0.1500; stroke-opacity:1; 
stroke-linecap:round; stroke-linejoin:round;">
<path d="M10.0000 110.0000
L12.0000 110.0000
" />
</g>
<g style="fill:none; 
stroke:#000000; stroke-width:0.1500; stroke-opacity:1; 
stroke-linecap:round; stroke-linejoin:round;">
<text x="11.0000" y="35.6500"
textLength="1.3043" font-size="1.7333" lengthAdjust="spacingAndGlyphs"
text-anchor="middle" opacity="0" stroke-opacity="0">A</text>
<g class="stroked-text"><desc>A</desc>
<path d="M10.6905 35.2222
L11.3095 35.2222
" />
<path d="M10.5667 35.5936
L11.0000 34.2936
" />
<path d="M11.0000 34.2936
L11.4333 35.5936
" />
</g></g>
<g style="fill:none; 
stroke:#000000; stroke-width:0.1500; stroke-opacity:1; 
stroke-linecap:round; stroke-linejoin:round;">
<text x="11.0000" y="85.6500"
textLength="1.4900" font-size="1.7333" lengthAdjust="spacingAndGlyphs"
text-anchor="middle" opacity="0" stroke-opacity="0">B</text>
<g class="stroked-text"><desc>B</desc>
<path d="M11.0929 84.9127
L11.2786 84.9746
" />
<path d="M11.2786 84.9746
L11.3405 85.0365
" />
<path d="M11.3405 85.0365
L11.4024 85.1603
" />
<path d="M11.4024 85.1603
L11.4024 85.3460
" />
<path d="M11.4024 85.3460
L11.3405 85.4698
" />
<path d="M11.3405 85.4698
L11.2786 85.5317
" />
<path d="M11.2786 85.5317
L11.1548 85.5936
" />
<path d="M11.1548 85.5936
L10.6595 85.5936
" />
<path d="M10.6595 85.5936
L10.6595 84.2936
" />
<path d="M10.6595 84.2936
L11.0929 84.2936
" />
<path d="M11.0929 84.2936
L11.2167 84.3555
" />
<path d="M11.2167 84.3555
L11.2786 84.4174
" />
<path d="M11.2786 84.4174
L11.3405 84.5412
" />
<path d="M11.3405 84.5412
L11.3405 84.6650
" />
<path d="M11.3405 84.6650
L11.2786 84.7888
" />
<path d="M11.2786 84.7888
L11.2167 84.8507
" />
<path d="M11.2167 84.8507
L11.0929 84.9127
" />
<path d="M11.0929 84.9127
L10.6595 84.9127
" />
</g></g>
<g style="fill:none; 
stroke:#000000; stroke-width:0.1500; stroke-opacity:1; 
stroke-linecap:round; stroke-linejoin:round;">
<text x="11.0000" y="135.6500"
textLength="1.4900" font-size="1.7333" lengthAdjust="spacingAndGlyphs"
text-anchor="middle" opacity="0" stroke-opacity="0">C</text>
<g class="stroked-text"><desc>C</desc>
<path d="M11.4024 135.4698
L11.3405 135.5317
" />
<path d="M11.3405 135.5317
L11.1548 135.5936
" />
<path d="M11.1548 135.5936
L11.0310 135.5936
" />
<path d="M11.0310 135.5936
L10.8452 135.5317
" />
<path d="M10.8452 135.5317
L10.7214 135.4079
" />
<path d="M10.7214 135.4079
L10.6595 135.2841
" />
<path d="M10.6595 135.2841
L10.5976 135.0365
" />
<path d="M10.5976 135.0365
L10.5976 134.8507
" />
<path d="M10.5976 134.8507
L10.6595 134.6031
" />
<path d="M10.6595 134.6031
L10.7214 134.4793
" />
<path d="M10.7214 134.4793
L10.8452 134.3555
" />
<path d="M10.8452 134.3555
L11.0310 134.2936
" />
<path d="M11.0310 134.2936
L11.1548 134.2936
" />
<path d="M11.1548 134.2936
L11.3405 134.3555
" />
<path d="M11.3405 134.3555
L11.4024 134.4174
" />
</g></g>
<g style="fill:none; 
stroke:#000000; stroke-width:0.1500; stroke-opacity:1; 
stroke-linecap:round; stroke-linejoin:round;">
<path d="M200.0072 60.0000
L198.0072 60.0000
" />
</g>
<g style="fill:none; 
stroke:#000000; stroke-width:0.1500; stroke-opacity:1; 
stroke-linecap:round; stroke-linejoin:round;">
<path d="M200.0072 110.0000
L198.0072 110.0000
" />
</g>
<g style="fill:none; 
stroke:#000000; stroke-width:0.1500; stroke-opacity:1; 
stroke-linecap:round; stroke-linejoin:round;">
<text x="199.0072" y="35.6500"
textLength="1.3043" font-size="1.7333" lengthAdjust="spacingAndGlyphs"
text-anchor="middle" opacity="0" stroke-opacity="0">A</text>
<g class="stroked-text"><desc>A</desc>
<path d="M198.6977 35.2222
L199.3167 35.2222
" />
<path d="M198.5739 35.5936
L199.0072 34.2936
" />
<path d="M199.0072 34.2936
L199.4405 35.5936
" />
</g></g>
<g style="fill:none; 
stroke:#000000; stroke-width:0.1500; stroke-opacity:1; 
stroke-linecap:round; stroke-linejoin:round;">
<text x="199.0072" y="85.6500"
textLength="1.4900" font-size="1.7333" lengthAdjust="spacingAndGlyphs"
text-anchor="middle" opacity="0" stroke-opacity="0">B</text>
<g class="stroked-text"><desc>B</desc>
<path d="M199.1001 84.9127
L199.2858 84.9746
" />
<path d="M199.2858 84.9746
L199.3477 85.0365
" />
<path d="M199.3477 85.0365
L199.4096 85.1603
" />
<path d="M199.4096 85.1603
L199.4096 85.3460
" />
<path d="M199.4096 85.3460
L199.3477 85.4698
" />
<path d="M199.3477 85.4698
L199.2858 85.5317
" />
<path d="M199.2858 85.5317
L199.1620 85.5936
" />
<path d="M199.1620 85.5936
L198.6667 85.5936
" />
<path d="M198.6667 85.5936
L198.6667 84.2936
" />
<path d="M198.6667 84.2936
L199.1001 84.2936
" />
<path d="M199.1001 84.2936
L199.2239 84.3555
" />
<path d="M199.2239 84.3555
L199.2858 84.4174
" />
<path d="M199.2858 84.4174
L199.3477 84.5412
" />
<path d="M199.3477 84.5412
L199.3477 84.6650
" />
<path d="M199.3477 84.6650
L199.2858 84.7888
" />
<path d="M199.2858 84.7888
L199.2239 84.8507
" />
<path d="M199.2239 84.8507
L199.1001 84.9127
" />
<path d="M199.1001 84.9127
L198.6667 84.9127
" />
</g></g>
<g style="fill:none; 
stroke:#000000; stroke-width:0.1500; stroke-opacity:1; 
stroke-linecap:round; stroke-linejoin:round;">
<text x="199.0072" y="135.6500"
textLength="1.4900" font-size="1.7333" lengthAdjust="spacingAndGlyphs"
text-anchor="middle" opacity="0" stroke-opacity="0">C</text>
<g class="stroked-text"><desc>C</desc>
<path d="M199.4096 135.4698
L199.3477 135.5317
" />
<path d="M199.3477 135.5317
L199.1620 135.5936
" />
<path d="M199.1620 135.5936
L199.0382 135.5936
" />
<path d="M199.0382 135.5936
L198.8524 135.5317
" />
<path d="M198.8524 135.5317
L198.7286 135.4079
" />
<path d="M198.7286 135.4079
L198.6667 135.2841
" />
<path d="M198.6667 135.2841
L198.6048 135.0365
" />
<path d="M198.6048 135.0365
L198.6048 134.8507
" />
<path d="M198.6048 134.8507
L198.6667 134.6031
" />
<path d="M198.6667 134.6031
L198.7286 134.4793
" />
<path d="M198.7286 134.4793
L198.8524 134.3555
" />
<path d="M198.8524 134.3555
L199.0382 134.2936
" />
<path d="M199.0382 134.2936
L199.1620 134.2936
" />
<path d="M199.1620 134.2936
L199.3477 134.3555
" />
<path d="M199.3477 134.3555
L199.4096 134.4174
" />
</g></g>
<g style="fill:none; 
stroke:#000000; stroke-width:0.1500; stroke-opacity:1; 
stroke-linecap:round; stroke-linejoin:round;">
<text x="113.0072" y="131.8558"
textLength="7.0071" font-size="2.0000" lengthAdjust="spacingAndGlyphs"
text-anchor="start" opacity="0" stroke-opacity="0">Date: </text>
<g class="stroked-text"><desc>Date: </desc>
<path d="M113.4630 131.7919
L113.4630 130.2919
" />
<path d="M113.4630 130.2919
L113.8202 130.2919
" />
<path d="M113.8202 130.2919
L114.0345 130.3634
" />
<path d="M114.0345 130.3634
L114.1773 130.5062
" />
<path d="M114.1773 130.5062
L114.2487 130.6491
" />
<path d="M114.2487 130.6491
L114.3202 130.9348
" />
<path d="M114.3202 130.9348
L114.3202 131.1491
" />
<path d="M114.3202 131.1491
L114.2487 131.4348
" />
<path d="M114.2487 131.4348
L114.1773 131.5776
" />
<path d="M114.1773 131.5776
L114.0345 131.7205
" />
<path d="M114.0345 131.7205
L113.8202 131.7919
" />
<path d="M113.8202 131.7919
L113.4630 131.7919
" />
<path d="M115.6059 131.7919
L115.6059 131.0062
" />
<path d="M115.6059 131.0062
L115.5345 130.8634
" />
<path d="M115.5345 130.8634
L115.3916 130.7919
" />
<path d="M115.3916 130.7919
L115.1059 130.7919
" />
<path d="M115.1059 130.7919
L114.9630 130.8634
" />
<path d="M115.6059 131.7205
L115.4630 131.7919
" />
<path d="M115.4630 131.7919
L115.1059 131.7919
" />
<path d="M115.1059 131.7919
L114.9630 131.7205
" />
<path d="M114.9630 131.7205
L114.8916 131.5776
" />
<path d="M114.8916 131.5776
L114.8916 131.4348
" />
<path d="M114.8916 131.4348
L114.9630 131.2919
" />
<path d="M114.9630 131.2919
L115.1059 131.2205
" />
<path d="M115.1059 131.2205
L115.4630 131.2205
" />
<path d="M115.4630 131.2205
L115.6059 131.1491
" />
<path d="M116.1059 130.7919
L116.6773 130.7919
" />
<path d="M116.3202 130.2919
L116.3202 131.5776
" />
<path d="M116.3202 131.5776
L116.3916 131.7205
" />
<path d="M116.3916 131.7205
L116.5345 131.7919
" />
<path d="M116.5345 131.7919
L116.6773 131.7919
" />
<path d="M117.7487 131.7205
L117.6059 131.7919
" />
<path d="M117.6059 131.7919
L117.3202 131.7919
" />
<path d="M117.3202 131.7919
L117.1773 131.7205
" />
<path d="M117.1773 131.7205
L117.1059 131.5776
" />
<path d="M117.1059 131.5776
L117.1059 131.0062
" />
<path d="M117.1059 131.0062
L117.1773 130.8634
" />
<path d="M117.1773 130.8634
L117.3202 130.7919
" />
<path d="M117.3202 130.7919
L117.6059 130.7919
" />
<path d="M117.6059 130.7919
L117.7487 130.8634
" />
<path d="M117.7487 130.8634
L117.8202 131.0062
" />
<path d="M117.8202 131.0062
L117.8202 131.1491
" />
<path d="M117.8202 131.1491
L117.1059 131.2919
" />
<path d="M118.4630 131.6491
L118.5345 131.7205
" />
<path d="M118.5345 131.7205
L118.4630 131.7919
" />
<path d="M118.4630 131.7919
L118.3916 131.7205
" />
<path d="M118.3916 131.7205
L118.4630 131.6491
" />
<path d="M118.4630 131.6491
L118.4630 131.7919
" />
<path d="M118.4630 130.8634
L118.5345 130.9348
" />
<path d="M118.5345 130.9348
L118.4630 131.0062
" />
<path d="M118.4630 131.0062
L118.3916 130.9348
" />
<path d="M118.3916 130.9348
L118.4630 130.8634
" />
<path d="M118.4630 130.8634
L118.4630 131.0062
" />
</g></g>
<g style="fill:none; 
stroke:#000000; stroke-width:0.1500; stroke-opacity:1; 
stroke-linecap:round; stroke-linejoin:round;">
<path d="M90.0072 132.5058
L198.0072 132.5058
" />
</g>
<g style="fill:none; 
stroke:#000000; stroke-width:0.1500; stroke-opacity:1; 
stroke-linecap:round; stroke-linejoin:round;">
<text x="91.0072" y="134.6558"
textLength="20.6500" font-size="2.0000" lengthAdjust="spacingAndGlyphs"
text-anchor="start" opacity="0" stroke-opacity="0">${KICAD_VERSION}</text>
<g class="stroked-text"><desc>${KICAD_VERSION}</desc>
<path d="M91.3916 134.5205
L91.6059 134.5919
" />
<path d="M91.6059 134.5919
L91.9630 134.5919
" />
<path d="M91.9630 134.5919
L92.1059 134.5205
" />
<path d="M92.1059 134.5205
L92.1773 134.4491
" />
<path d="M92.1773 134.4491
L92.2487 134.3062
" />
<path d="M92.2487 134.3062
L92.2487 134.1634
" />
<path d="M92.2487 134.1634
L92.1773 134.0205
" />
<path d="M92.1773 134.0205
L92.1059 133.9491
" />
<path d="M92.1059 133.9491
L91.9630 133.8776
" />
<path d="M91.9630 133.8776
L91.6773 133.8062
" />
<path d="M91.6773 133.8062
L91.5345 133.7348
" />
<path d="M91.5345 133.7348
L91.4630 133.6634
" />
<path d="M91.4630 133.6634
L91.3916 133.5205
" />
<path d="M91.3916 133.5205
L91.3916 133.3776
" />
<path d="M91.3916 133.3776
L91.4630 133.2348
" />
<path d="M91.4630 133.2348
L91.5345 133.1634
" />
<path d="M91.5345 133.1634
L91.6773 133.0919
" />
<path d="M91.6773 133.0919
L92.0345 133.0919
" />
<path d="M92.0345 133.0919
L92.2487 133.1634
" />
<path d="M91.8202 132.8776
L91.8202 134.8062
" />
<path d="M93.3202 135.1634
L93.2487 135.1634
" />
<path d="M93.2487 135.1634
L93.1059 135.0919
" />
<path d="M93.1059 135.0919
L93.0345 134.9491
" />
<path d="M93.0345 134.9491
L93.0345 134.2348
" />
<path d="M93.0345 134.2348
L92.9630 134.0919
" />
<path d="M92.9630 134.0919
L92.8202 134.0205
" />
<path d="M92.8202 134.0205
L92.9630 133.9491
" />
<path d="M92.9630 133.9491
L93.0345 133.8062
" />
<path d="M93.0345 133.8062
L93.0345 133.0919
" />
<path d="M93.0345 133.0919
L93.1059 132.9491
" />
<path d="M93.1059 132.9491
L93.2487 132.8776
" />
<path d="M93.2487 132.8776
L93.3202 132.8776
" />
<path d="M93.8916 134.5919
L93.8916 133.0919
" />
<path d="M94.7487 134.5919
L94.1059 133.7348
" />
<path d="M94.7487 133.0919
L93.8916 133.9491
" />
<path d="M95.3916 134.5919
L95.3916 133.0919
" />
<path d="M96.9630 134.4491
L96.8916 134.5205
" />
<path d="M96.8916 134.5205
L96.6773 134.5919
" />
<path d="M96.6773 134.5919
L96.5345 134.5919
" />
<path d="M96.5345 134.5919
L96.3202 134.5205
" />
<path d="M96.3202 134.5205
L96.1773 134.3776
" />
<path d="M96.1773 134.3776
L96.1059 134.2348
" />
<path d="M96.1059 134.2348
L96.0345 133.9491
" />
<path d="M96.0345 133.9491
L96.0345 133.7348
" />
<path d="M96.0345 133.7348
L96.1059 133.4491
" />
<path d="M96.1059 133.4491
L96.1773 133.3062
" />
<path d="M96.1773 133.3062
L96.3202 133.1634
" />
<path d="M96.3202 133.1634
L96.5345 133.0919
" />
<path d="M96.5345 133.0919
L96.6773 133.0919
" />
<path d="M96.6773 133.0919
L96.8916 133.1634
" />
<path d="M96.8916 133.1634
L96.9630 133.2348
" />
<path d="M97.5345 134.1634
L98.2487 134.1634
" />
<path d="M97.3916 134.5919
L97.8916 133.0919
" />
<path d="M97.8916 133.0919
L98.3916 134.5919
" />
<path d="M98.8916 134.5919
L98.8916 133.0919
" />
<path d="M98.8916 133.0919
L99.2487 133.0919
" />
<path d="M99.2487 133.0919
L99.4630 133.1634
" />
<path d="M99.4630 133.1634
L99.6059 133.3062
" />
<path d="M99.6059 133.3062
L99.6773 133.4491
" />
<path d="M99.6773 133.4491
L99.7487 133.7348
" />
<path d="M99.7487 133.7348
L99.7487 133.9491
" />
<path d="M99.7487 133.9491
L99.6773 134.2348
" />
<path d="M99.6773 134.2348
L99.6059 134.3776
" />
<path d="M99.6059 134.3776
L99.4630 134.5205
" />
<path d="M99.4630 134.5205
L99.2487 134.5919
" />
<path d="M99.2487 134.5919
L98.8916 134.5919
" />
<path d="M100.0345 134.7348
L101.1773 134.7348
" />
<path d="M101.3202 133.0919
L101.8202 134.5919
" />
<path d="M101.8202 134.5919
L102.3202 133.0919
" />
<path d="M102.8202 133.8062
L103.3202 133.8062
" />
<path d="M103.5345 134.5919
L102.8202 134.5919
" />
<path d="M102.8202 134.5919
L102.8202 133.0919
" />
<path d="M102.8202 133.0919
L103.5345 133.0919
" />
<path d="M105.0345 134.5919
L104.5345 133.8776
" />
<path d="M104.1773 134.5919
L104.1773 133.0919
" />
<path d="M104.1773 133.0919
L104.7487 133.0919
" />
<path d="M104.7487 133.0919
L104.8916 133.1634
" />
<path d="M104.8916 133.1634
L104.9630 133.2348
" />
<path d="M104.9630 133.2348
L105.0345 133.3776
" />
<path d="M105.0345 133.3776
L105.0345 133.5919
" />
<path d="M105.0345 133.5919
L104.9630 133.7348
" />
<path d="M104.9630 133.7348
L104.8916 133.8062
" />
<path d="M104.8916 133.8062
L104.7487 133.8776
" />
<path d="M104.7487 133.8776
L104.1773 133.8776
" />
<path d="M105.6059 134.5205
L105.8202 134.5919
" />
<path d="M105.8202 134.5919
L106.1773 134.5919
" />
<path d="M106.1773 134.5919
L106.3202 134.5205
" />
<path d="M106.3202 134.5205
L106.3916 134.4491
" />
<path d="M106.3916 134.4491
L106.4630 134.3062
" />
<path d="M106.4630 134.3062
L106.4630 134.1634
" />
<path d="M106.4630 134.1634
L106.3916 134.0205
" />
<path d="M106.3916 134.0205
L106.3202 133.9491
" />
<path d="M106.3202 133.9491
L106.1773 133.8776
" />
<path d="M106.1773 133.8776
L105.8916 133.8062
" />
<path d="M105.8916 133.8062
L105.7487 133.7348
" />
<path d="M105.7487 133.7348
L105.6773 133.6634
" />
<path d="M105.6773 133.6634
L105.6059 133.5205
" />
<path d="M105.6059 133.5205
L105.6059 133.3776
" />
<path d="M105.6059 133.3776
L105.6773 133.2348
" />
<path d="M105.6773 133.2348
L105.7487 133.1634
" />
<path d="M105.7487 133.1634
L105.8916 133.0919
" />
<path d="M105.8916 133.0919
L106.2487 133.0919
" />
<path d="M106.2487 133.0919
L106.4630 133.1634
" />
<path d="M107.1059 134.5919
L107.1059 133.0919
" />
<path d="M108.1059 133.0919
L108.3916 133.0919
" />
<path d="M108.3916 133.0919
L108.5345 133.1634
" />
<path d="M108.5345 133.1634
L108.6773 133.3062
" />
<path d="M108.6773 133.3062
L108.7487 133.5919
" />
<path d="M108.7487 133.5919
L108.7487 134.0919
" />
<path d="M108.7487 134.0919
L108.6773 134.3776
" />
<path d="M108.6773 134.3776
L108.5345 134.5205
" />
<path d="M108.5345 134.5205
L108.3916 134.5919
" />
<path d="M108.3916 134.5919
L108.1059 134.5919
" />
<path d="M108.1059 134.5919
L107.9630 134.5205
" />
<path d="M107.9630 134.5205
L107.8202 134.3776
" />
<path d="M107.8202 134.3776
L107.7487 134.0919
" />
<path d="M107.7487 134.0919
L107.7487 133.5919
" />
<path d="M107.7487 133.5919
L107.8202 133.3062
" />
<path d="M107.8202 133.3062
L107.9630 133.1634
" />
<path d="M107.9630 133.1634
L108.1059 133.0919
" />
<path d="M109.3916 134.5919
L109.3916 133.0919
" />
<path d="M109.3916 133.0919
L110.2487 134.5919
" />
<path d="M110.2487 134.5919
L110.2487 133.0919
" />
<path d="M110.8202 135.1634
L110.8916 135.1634
" />
<path d="M110.8916 135.1634
L111.0345 135.0919
" />
<path d="M111.0345 135.0919
L111.1059 134.9491
" />
<path d="M111.1059 134.9491
L111.1059 134.2348
" />
<path d="M111.1059 134.2348
L111.1773 134.0919
" />
<path d="M111.1773 134.0919
L111.3202 134.0205
" />
<path d="M111.3202 134.0205
L111.1773 133.9491
" />
<path d="M111.1773 133.9491
L111.1059 133.8062
" />
<path d="M111.1059 133.8062
L111.1059 133.0919
" />
<path d="M111.1059 133.0919
L111.0345 132.9491
" />
<path d="M111.0345 132.9491
L110.8916 132.8776
" />
<path d="M110.8916 132.8776
L110.8202 132.8776
" />
</g></g>
<g style="fill:none; 
stroke:#000000; stroke-width:0.1500; stroke-opacity:1; 
stroke-linecap:round; stroke-linejoin:round;">
<path d="M90.0072 129.5058
L198.0072 129.5058
" />
</g>
<g style="fill:none; 
stroke:#000000; stroke-width:0.3000; stroke-opacity:1; 
stroke-linecap:round; stroke-linejoin:round;">
<text x="176.0072" y="131.8558"
textLength="6.3857" font-size="2.0000" lengthAdjust="spacingAndGlyphs"
text-anchor="start" opacity="0" stroke-opacity="0">Rev: </text>
<g class="stroked-text"><desc>Rev: </desc>
<path d="M177.4189 131.7841
L176.9189 131.0698
" />
<path d="M176.5617 131.7841
L176.5617 130.2841
" />
<path d="M176.5617 130.2841
L177.1331 130.2841
" />
<path d="M177.1331 130.2841
L177.2760 130.3556
" />
<path d="M177.2760 130.3556
L177.3474 130.4270
" />
<path d="M177.3474 130.4270
L177.4189 130.5698
" />
<path d="M177.4189 130.5698
L177.4189 130.7841
" />
<path d="M177.4189 130.7841
L177.3474 130.9270
" />
<path d="M177.3474 130.9270
L177.2760 130.9984
" />
<path d="M177.2760 130.9984
L177.1331 131.0698
" />
<path d="M177.1331 131.0698
L176.5617 131.0698
" />
<path d="M178.6331 131.7127
L178.4903 131.7841
" />
<path d="M178.4903 131.7841
L178.2046 131.7841
" />
<path d="M178.2046 131.7841
L178.0617 131.7127
" />
<path d="M178.0617 131.7127
L177.9903 131.5698
" />
<path d="M177.9903 131.5698
L177.9903 130.9984
" />
<path d="M177.9903 130.9984
L178.0617 130.8556
" />
<path d="M178.0617 130.8556
L178.2046 130.7841
" />
<path d="M178.2046 130.7841
L178.4903 130.7841
" />
<path d="M178.4903 130.7841
L178.6331 130.8556
" />
<path d="M178.6331 130.8556
L178.7046 130.9984
" />
<path d="M178.7046 130.9984
L178.7046 131.1413
" />
<path d="M178.7046 131.1413
L177.9903 131.2841
" />
<path d="M179.2046 130.7841
L179.5617 131.7841
" />
<path d="M179.5617 131.7841
L179.9189 130.7841
" />
<path d="M180.4903 131.6413
L180.5617 131.7127
" />
<path d="M180.5617 131.7127
L180.4903 131.7841
" />
<path d="M180.4903 131.7841
L180.4189 131.7127
" />
<path d="M180.4189 131.7127
L180.4903 131.6413
" />
<path d="M180.4903 131.6413
L180.4903 131.7841
" />
<path d="M180.4903 130.8556
L180.5617 130.9270
" />
<path d="M180.5617 130.9270
L180.4903 130.9984
" />
<path d="M180.4903 130.9984
L180.4189 130.9270
" />
<path d="M180.4189 130.9270
L180.4903 130.8556
" />
<path d="M180.4903 130.8556
L180.4903 130.9984
" />
</g></g>
<g style="fill:none; 
stroke:#000000; stroke-width:0.1500; stroke-opacity:1; 
stroke-linecap:round; stroke-linejoin:round;">
<text x="91.0072" y="131.8558"
textLength="9.3643" font-size="2.0000" lengthAdjust="spacingAndGlyphs"
text-anchor="start" opacity="0" stroke-opacity="0">Size: A5</text>
<g class="stroked-text"><desc>Size: A5</desc>
<path d="M91.3916 131.7205
L91.6059 131.7919
" />
<path d="M91.6059 131.7919
L91.9630 131.7919
" />
<path d="M91.9630 131.7919
L92.1059 131.7205
" />
<path d="M92.1059 131.7205
L92.1773 131.6491
" />
<path d="M92.1773 131.6491
L92.2487 131.5062
" />
<path d="M92.2487 131.5062
L92.2487 131.3634
" />
<path d="M92.2487 131.3634
L92.1773 131.2205
" />
<path d="M92.1773 131.2205
L92.1059 131.1491
" />
<path d="M92.1059 131.1491
L91.9630 131.0776
" />
<path d="M91.9630 131.0776
L91.6773 131.0062
" />
<path d="M91.6773 131.0062
L91.5345 130.9348
" />
<path d="M91.5345 130.9348
L91.4630 130.8634
" />
<path d="M91.4630 130.8634
L91.3916 130.7205
" />
<path d="M91.3916 130.7205
L91.3916 130.5776
" />
<path d="M91.3916 130.5776
L91.4630 130.4348
" />
<path d="M91.4630 130.4348
L91.5345 130.3634
" />
<path d="M91.5345 130.3634
L91.6773 130.2919
" />
<path d="M91.6773 130.2919
L92.0345 130.2919
" />
<path d="M92.0345 130.2919
L92.2487 130.3634
" />
<path d="M92.8916 131.7919
L92.8916 130.7919
" />
<path d="M92.8916 130.2919
L92.8202 130.3634
" />
<path d="M92.8202 130.3634
L92.8916 130.4348
" />
<path d="M92.8916 130.4348
L92.9630 130.3634
" />
<path d="M92.9630 130.3634
L92.8916 130.2919
" />
<path d="M92.8916 130.2919
L92.8916 130.4348
" />
<path d="M93.4630 130.7919
L94.2487 130.7919
" />
<path d="M94.2487 130.7919
L93.4630 131.7919
" />
<path d="M93.4630 131.7919
L94.2487 131.7919
" />
<path d="M95.3916 131.7205
L95.2487 131.7919
" />
<path d="M95.2487 131.7919
L94.9630 131.7919
" />
<path d="M94.9630 131.7919
L94.8202 131.7205
" />
<path d="M94.8202 131.7205
L94.7487 131.5776
" />
<path d="M94.7487 131.5776
L94.7487 131.0062
" />
<path d="M94.7487 131.0062
L94.8202 130.8634
" />
<path d="M94.8202 130.8634
L94.9630 130.7919
" />
<path d="M94.9630 130.7919
L95.2487 130.7919
" />
<path d="M95.2487 130.7919
L95.3916 130.8634
" />
<path d="M95.3916 130.8634
L95.4630 131.0062
" />
<path d="M95.4630 131.0062
L95.4630 131.1491
" />
<path d="M95.4630 131.1491
L94.7487 131.2919
" />
<path d="M96.1059 131.6491
L96.1773 131.7205
" />
<path d="M96.1773 131.7205
L96.1059 131.7919
" />
<path d="M96.1059 131.7919
L96.0345 131.7205
" />
<path d="M96.0345 131.7205
L96.1059 131.6491
" />
<path d="M96.1059 131.6491
L96.1059 131.7919
" />
<path d="M96.1059 130.8634
L96.1773 130.9348
" />
<path d="M96.1773 130.9348
L96.1059 131.0062
" />
<path d="M96.1059 131.0062
L96.0345 130.9348
" />
<path d="M96.0345 130.9348
L96.1059 130.8634
" />
<path d="M96.1059 130.8634
L96.1059 131.0062
" />
<path d="M97.8916 131.3634
L98.6059 131.3634
" />
<path d="M97.7487 131.7919
L98.2487 130.2919
" />
<path d="M98.2487 130.2919
L98.7487 131.7919
" />
<path d="M99.9630 130.2919
L99.2487 130.2919
" />
<path d="M99.2487 130.2919
L99.1773 131.0062
" />
<path d="M99.1773 131.0062
L99.2487 130.9348
" />
<path d="M99.2487 130.9348
L99.3916 130.8634
" />
<path d="M99.3916 130.8634
L99.7487 130.8634
" />
<path d="M99.7487 130.8634
L99.8916 130.9348
" />
<path d="M99.8916 130.9348
L99.9630 131.0062
" />
<path d="M99.9630 131.0062
L100.0345 131.1491
" />
<path d="M100.0345 131.1491
L100.0345 131.5062
" />
<path d="M100.0345 131.5062
L99.9630 131.6491
" />
<path d="M99.9630 131.6491
L99.8916 131.7205
" />
<path d="M99.8916 131.7205
L99.7487 131.7919
" />
<path d="M99.7487 131.7919
L99.3916 131.7919
" />
<path d="M99.3916 131.7919
L99.2487 131.7205
" />
<path d="M99.2487 131.7205
L99.1773 131.6491
" />
</g></g>
<g style="fill:none; 
stroke:#000000; stroke-width:0.1500; stroke-opacity:1; 
stroke-linecap:round; stroke-linejoin:round;">
<text x="176.0072" y="134.6558"
textLength="7.0786" font-size="2.0000" lengthAdjust="spacingAndGlyphs"
text-anchor="start" opacity="0" stroke-opacity="0">Id: /1</text>
<g class="stroked-text"><desc>Id: /1</desc>
<path d="M176.4630 134.5919
L176.4630 133.0919
" />
<path d="M177.8202 134.5919
L177.8202 133.0919
" />
<path d="M177.8202 134.5205
L177.6773 134.5919
" />
<path d="M177.6773 134.5919
L177.3916 134.5919
" />
<path d="M177.3916 134.5919
L177.2487 134.5205
" />
<path d="M177.2487 134.5205
L177.1773 134.4491
" />
<path d="M177.1773 134.4491
L177.1059 134.3062
" />
<path d="M177.1059 134.3062
L177.1059 133.8776
" />
<path d="M177.1059 133.8776
L177.1773 133.7348
" />
<path d="M177.1773 133.7348
L177.2487 133.6634
" />
<path d="M177.2487 133.6634
L177.3916 133.5919
" />
<path d="M177.3916 133.5919
L177.6773 133.5919
" />
<path d="M177.6773 133.5919
L177.8202 133.6634
" />
<path d="M178.5345 134.4491
L178.6059 134.5205
" />
<path d="M178.6059 134.5205
L178.5345 134.5919
" />
<path d="M178.5345 134.5919
L178.4630 134.5205
" />
<path d="M178.4630 134.5205
L178.5345 134.4491
" />
<path d="M178.5345 134.4491
L178.5345 134.5919
" />
<path d="M178.5345 133.6634
L178.6059 133.7348
" />
<path d="M178.6059 133.7348
L178.5345 133.8062
" />
<path d="M178.5345 133.8062
L178.4630 133.7348
" />
<path d="M178.4630 133.7348
L178.5345 133.6634
" />
<path d="M178.5345 133.6634
L178.5345 133.8062
" />
<path d="M181.4630 133.0205
L180.1773 134.9491
" />
<path d="M182.7487 134.5919
L181.8916 134.5919
" />
<path d="M182.3202 134.5919
L182.3202 133.0919
" />
<path d="M182.3202 133.0919
L182.1773 133.3062
" />
<path d="M182.1773 133.3062
L182.0345 133.4491
" />
<path d="M182.0345 133.4491
L181.8916 133.5205
" />
</g></g>
<g style="fill:none; 
stroke:#000000; stroke-width:0.1500; stroke-opacity:1; 
stroke-linecap:round; stroke-linejoin:round;">
<path d="M90.0072 125.5058
L198.0072 125.5058
" />
</g>
<g style="fill:none; 
stroke:#000000; stroke-width:0.4000; stroke-opacity:1; 
stroke-linecap:round; stroke-linejoin:round;">
<text x="91.0072" y="128.3058"
textLength="9.6571" font-size="2.6667" lengthAdjust="spacingAndGlyphs"
text-anchor="start" opacity="0" stroke-opacity="0">Title: </text>
<g class="stroked-text"><desc>Title: </desc>
<path d="M91.6989 126.2102
L92.8418 126.2102
" />
<path d="M92.0204 128.2102
L92.2704 126.2102
" />
<path d="M93.2585 128.2102
L93.4251 126.8769
" />
<path d="M93.5085 126.2102
L93.4013 126.3055
" />
<path d="M93.4013 126.3055
L93.4846 126.4007
" />
<path d="M93.4846 126.4007
L93.5918 126.3055
" />
<path d="M93.5918 126.3055
L93.5085 126.2102
" />
<path d="M93.5085 126.2102
L93.4846 126.4007
" />
<path d="M94.0918 126.8769
L94.8537 126.8769
" />
<path d="M94.4608 126.2102
L94.2465 127.9245
" />
<path d="M94.2465 127.9245
L94.3180 128.1150
" />
<path d="M94.3180 128.1150
L94.4965 128.2102
" />
<path d="M94.4965 128.2102
L94.6870 128.2102
" />
<path d="M95.6394 128.2102
L95.4608 128.1150
" />
<path d="M95.4608 128.1150
L95.3894 127.9245
" />
<path d="M95.3894 127.9245
L95.6037 126.2102
" />
<path d="M97.1751 128.1150
L96.9727 128.2102
" />
<path d="M96.9727 128.2102
L96.5918 128.2102
" />
<path d="M96.5918 128.2102
L96.4132 128.1150
" />
<path d="M96.4132 128.1150
L96.3418 127.9245
" />
<path d="M96.3418 127.9245
L96.4370 127.1626
" />
<path d="M96.4370 127.1626
L96.5561 126.9721
" />
<path d="M96.5561 126.9721
L96.7585 126.8769
" />
<path d="M96.7585 126.8769
L97.1394 126.8769
" />
<path d="M97.1394 126.8769
L97.3180 126.9721
" />
<path d="M97.3180 126.9721
L97.3894 127.1626
" />
<path d="M97.3894 127.1626
L97.3656 127.3531
" />
<path d="M97.3656 127.3531
L96.3894 127.5436
" />
<path d="M98.1394 128.0198
L98.2227 128.1150
" />
<path d="M98.2227 128.1150
L98.1156 128.2102
" />
<path d="M98.1156 128.2102
L98.0323 128.1150
" />
<path d="M98.0323 128.1150
L98.1394 128.0198
" />
<path d="M98.1394 128.0198
L98.1156 128.2102
" />
<path d="M98.2704 126.9721
L98.3537 127.0674
" />
<path d="M98.3537 127.0674
L98.2465 127.1626
" />
<path d="M98.2465 127.1626
L98.1632 127.0674
" />
<path d="M98.1632 127.0674
L98.2704 126.9721
" />
<path d="M98.2704 126.9721
L98.2465 127.1626
" />
</g></g>
<g style="fill:none; 
stroke:#000000; stroke-width:0.1500; stroke-opacity:1; 
stroke-linecap:round; stroke-linejoin:round;">
<text x="91.0072" y="124.4558"
textLength="36.7929" font-size="2.0000" lengthAdjust="spacingAndGlyphs"
text-anchor="start" opacity="0" stroke-opacity="0">File: modulo_seguidor.kicad_pcb</text>
<g class="stroked-text"><desc>File: modulo_seguidor.kicad_pcb</desc>
<path d="M91.9630 123.6062
L91.4630 123.6062
" />
<path d="M91.4630 124.3919
L91.4630 122.8919
" />
<path d="M91.4630 122.8919
L92.1773 122.8919
" />
<path d="M92.7487 124.3919
L92.7487 123.3919
" />
<path d="M92.7487 122.8919
L92.6773 122.9634
" />
<path d="M92.6773 122.9634
L92.7487 123.0348
" />
<path d="M92.7487 123.0348
L92.8202 122.9634
" />
<path d="M92.8202 122.9634
L92.7487 122.8919
" />
<path d="M92.7487 122.8919
L92.7487 123.0348
" />
<path d="M93.6773 124.3919
L93.5345 124.3205
" />
<path d="M93.5345 124.3205
L93.4630 124.1776
" />
<path d="M93.4630 124.1776
L93.4630 122.8919
" />
<path d="M94.8202 124.3205
L94.6773 124.3919
" />
<path d="M94.6773 124.3919
L94.3916 124.3919
" />
<path d="M94.3916 124.3919
L94.2487 124.3205
" />
<path d="M94.2487 124.3205
L94.1773 124.1776
" />
<path d="M94.1773 124.1776
L94.1773 123.6062
" />
<path d="M94.1773 123.6062
L94.2487 123.4634
" />
<path d="M94.2487 123.4634
L94.3916 123.3919
" />
<path d="M94.3916 123.3919
L94.6773 123.3919
" />
<path d="M94.6773 123.3919
L94.8202 123.4634
" />
<path d="M94.8202 123.4634
L94.8916 123.6062
" />
<path d="M94.8916 123.6062
L94.8916 123.7491
" />
<path d="M94.8916 123.7491
L94.1773 123.8919
" />
<path d="M95.5345 124.2491
L95.6059 124.3205
" />
<path d="M95.6059 124.3205
L95.5345 124.3919
" />
<path d="M95.5345 124.3919
L95.4630 124.3205
" />
<path d="M95.4630 124.3205
L95.5345 124.2491
" />
<path d="M95.5345 124.2491
L95.5345 124.3919
" />
<path d="M95.5345 123.4634
L95.6059 123.5348
" />
<path d="M95.6059 123.5348
L95.5345 123.6062
" />
<path d="M95.5345 123.6062
L95.4630 123.5348
" />
<path d="M95.4630 123.5348
L95.5345 123.4634
" />
<path d="M95.5345 123.4634
L95.5345 123.6062
" />
<path d="M97.3916 124.3919
L97.3916 123.3919
" />
<path d="M97.3916 123.5348
L97.4630 123.4634
" />
<path d="M97.4630 123.4634
L97.6059 123.3919
" />
<path d="M97.6059 123.3919
L97.8202 123.3919
" />
<path d="M97.8202 123.3919
L97.9630 123.4634
" />
<path d="M97.9630 123.4634
L98.0345 123.6062
" />
<path d="M98.0345 123.6062
L98.0345 124.3919
" />
<path d="M98.0345 123.6062
L98.1059 123.4634
" />
<path d="M98.1059 123.4634
L98.2487 123.3919
" />
<path d="M98.2487 123.3919
L98.4630 123.3919
" />
<path d="M98.4630 123.3919
L98.6059 123.4634
" />
<path d="M98.6059 123.4634
L98.6773 123.6062
" />
<path d="M98.6773 123.6062
L98.6773 124.3919
" />
<path d="M99.6059 124.3919
L99.4630 124.3205
" />
<path d="M99.4630 124.3205
L99.3916 124.2491
" />
<path d="M99.3916 124.2491
L99.3202 124.1062
" />
<path d="M99.3202 124.1062
L99.3202 123.6776
" />
<path d="M99.3202 123.6776
L99.3916 123.5348
" />
<path d="M99.3916 123.5348
L99.4630 123.4634
" />
<path d="M99.4630 123.4634
L99.6059 123.3919
" />
<path d="M99.6059 123.3919
L99.8202 123.3919
" />
<path d="M99.8202 123.3919
L99.9630 123.4634
" />
<path d="M99.9630 123.4634
L100.0345 123.5348
" />
<path d="M100.0345 123.5348
L100.1059 123.6776
" />
<path d="M100.1059 123.6776
L100.1059 124.1062
" />
<path d="M100.1059 124.1062
L100.0345 124.2491
" />
<path d="M100.0345 124.2491
L99.9630 124.3205
" />
<path d="M99.9630 124.3205
L99.8202 124.3919
" />
<path d="M99.8202 124.3919
L99.6059 124.3919
" />
<path d="M101.3916 124.3919
L101.3916 122.8919
" />
<path d="M101.3916 124.3205
L101.2487 124.3919
" />
<path d="M101.2487 124.3919
L100.9630 124.3919
" />
<path d="M100.9630 124.3919
L100.8202 124.3205
" />
<path d="M100.8202 124.3205
L100.7487 124.2491
" />
<path d="M100.7487 124.2491
L100.6773 124.1062
" />
<path d="M100.6773 124.1062
L100.6773 123.6776
" />
<path d="M100.6773 123.6776
L100.7487 123.5348
" />
<path d="M100.7487 123.5348
L100.8202 123.4634
" />
<path d="M100.8202 123.4634
L100.9630 123.3919
" />
<path d="M100.9630 123.3919
L101.2487 123.3919
" />
<path d="M101.2487 123.3919
L101.3916 123.4634
" />
<path d="M102.7487 123.3919
L102.7487 124.3919
" />
<path d="M102.1059 123.3919
L102.1059 124.1776
" />
<path d="M102.1059 124.1776
L102.1773 124.3205
" />
<path d="M102.1773 124.3205
L102.3202 124.3919
" />
<path d="M102.3202 124.3919
L102.5345 124.3919
" />
<path d="M102.5345 124.3919
L102.6773 124.3205
" />
<path d="M102.6773 124.3205
L102.7487 124.2491
" />
<path d="M103.6773 124.3919
L103.5345 124.3205
" />
<path d="M103.5345 124.3205
L103.4630 124.1776
" />
<path d="M103.4630 124.1776
L103.4630 122.8919
" />
<path d="M104.4630 124.3919
L104.3202 124.3205
" />
<path d="M104.3202 124.3205
L104.2487 124.2491
" />
<path d="M104.2487 124.2491
L104.1773 124.1062
" />
<path d="M104.1773 124.1062
L104.1773 123.6776
" />
<path d="M104.1773 123.6776
L104.2487 123.5348
" />
<path d="M104.2487 123.5348
L104.3202 123.4634
" />
<path d="M104.3202 123.4634
L104.4630 123.3919
" />
<path d="M104.4630 123.3919
L104.6773 123.3919
" />
<path d="M104.6773 123.3919
L104.8202 123.4634
" />
<path d="M104.8202 123.4634
L104.8916 123.5348
" />
<path d="M104.8916 123.5348
L104.9630 123.6776
" />
<path d="M104.9630 123.6776
L104.9630 124.1062
" />
<path d="M104.9630 124.1062
L104.8916 124.2491
" />
<path d="M104.8916 124.2491
L104.8202 124.3205
" />
<path d="M104.8202 124.3205
L104.6773 124.3919
" />
<path d="M104.6773 124.3919
L104.4630 124.3919
" />
<path d="M105.2487 124.5348
L106.3916 124.5348
" />
<path d="M106.6773 124.3205
L106.8202 124.3919
" />
<path d="M106.8202 124.3919
L107.1059 124.3919
" />
<path d="M107.1059 124.3919
L107.2487 124.3205
" />
<path d="M107.2487 124.3205
L107.3202 124.1776
" />
<path d="M107.3202 124.1776
L107.3202 124.1062
" />
<path d="M107.3202 124.1062
L107.2487 123.9634
" />
<path d="M107.2487 123.9634
L107.1059 123.8919
" />
<path d="M107.1059 123.8919
L106.8916 123.8919
" />
<path d="M106.8916 123.8919
L106.7487 123.8205
" />
<path d="M106.7487 123.8205
L106.6773 123.6776
" />
<path d="M106.6773 123.6776
L106.6773 123.6062
" />
<path d="M106.6773 123.6062
L106.7487 123.4634
" />
<path d="M106.7487 123.4634
L106.8916 123.3919
" />
<path d="M106.8916 123.3919
L107.1059 123.3919
" />
<path d="M107.1059 123.3919
L107.2487 123.4634
" />
<path d="M108.5345 124.3205
L108.3916 124.3919
" />
<path d="M108.3916 124.3919
L108.1059 124.3919
" />
<path d="M108.1059 124.3919
L107.9630 124.3205
" />
<path d="M107.9630 124.3205
L107.8916 124.1776
" />
<path d="M107.8916 124.1776
L107.8916 123.6062
" />
<path d="M107.8916 123.6062
L107.9630 123.4634
" />
<path d="M107.9630 123.4634
L108.1059 123.3919
" />
<path d="M108.1059 123.3919
L108.3916 123.3919
" />
<path d="M108.3916 123.3919
L108.5345 123.4634
" />
<path d="M108.5345 123.4634
L108.6059 123.6062
" />
<path d="M108.6059 123.6062
L108.6059 123.7491
" />
<path d="M108.6059 123.7491
L107.8916 123.8919
" />
<path d="M109.8916 123.3919
L109.8916 124.6062
" />
<path d="M109.8916 124.6062
L109.8202 124.7491
" />
<path d="M109.8202 124.7491
L109.7487 124.8205
" />
<path d="M109.7487 124.8205
L109.6059 124.8919
" />
<path d="M109.6059 124.8919
L109.3916 124.8919
" />
<path d="M109.3916 124.8919
L109.2487 124.8205
" />
<path d="M109.8916 124.3205
L109.7487 124.3919
" />
<path d="M109.7487 124.3919
L109.4630 124.3919
" />
<path d="M109.4630 124.3919
L109.3202 124.3205
" />
<path d="M109.3202 124.3205
L109.2487 124.2491
" />
<path d="M109.2487 124.2491
L109.1773 124.1062
" />
<path d="M109.1773 124.1062
L109.1773 123.6776
" />
<path d="M109.1773 123.6776
L109.2487 123.5348
" />
<path d="M109.2487 123.5348
L109.3202 123.4634
" />
<path d="M109.3202 123.4634
L109.4630 123.3919
" />
<path d="M109.4630 123.3919
L109.7487 123.3919
" />
<path d="M109.7487 123.3919
L109.8916 123.4634
" />
<path d="M111.2487 123.3919
L111.2487 124.3919
" />
<path d="M110.6059 123.3919
L110.6059 124.1776
" />
<path d="M110.6059 124.1776
L110.6773 124.3205
" />
<path d="M110.6773 124.3205
L110.8202 124.3919
" />
<path d="M110.8202 124.3919
L111.0345 124.3919
" />
<path d="M111.0345 124.3919
L111.1773 124.3205
" />
<path d="M111.1773 124.3205
L111.2487 124.2491
" />
<path d="M111.9630 124.3919
L111.9630 123.3919
" />
<path d="M111.9630 122.8919
L111.8916 122.9634
" />
<path d="M111.8916 122.9634
L111.9630 123.0348
" />
<path d="M111.9630 123.0348
L112.0345 122.9634
" />
<path d="M112.0345 122.9634
L111.9630 122.8919
" />
<path d="M111.9630 122.8919
L111.9630 123.0348
" />
<path d="M113.3202 124.3919
L113.3202 122.8919
" />
<path d="M113.3202 124.3205
L113.1773 124.3919
" />
<path d="M113.1773 124.3919
L112.8916 124.3919
" />
<path d="M112.8916 124.3919
L112.7487 124.3205
" />
<path d="M112.7487 124.3205
L112.6773 124.2491
" />
<path d="M112.6773 124.2491
L112.6059 124.1062
" />
<path d="M112.6059 124.1062
L112.6059 123.6776
" />
<path d="M112.6059 123.6776
L112.6773 123.5348
" />
<path d="M112.6773 123.5348
L112.7487 123.4634
" />
<path d="M112.7487 123.4634
L112.8916 123.3919
" />
<path d="M112.8916 123.3919
L113.1773 123.3919
" />
<path d="M113.1773 123.3919
L113.3202 123.4634
" />
<path d="M114.2487 124.3919
L114.1059 124.3205
" />
<path d="M114.1059 124.3205
L114.0345 124.2491
" />
<path d="M114.0345 124.2491
L113.9630 124.1062
" />
<path d="M113.9630 124.1062
L113.9630 123.6776
" />
<path d="M113.9630 123.6776
L114.0345 123.5348
" />
<path d="M114.0345 123.5348
L114.1059 123.4634
" />
<path d="M114.1059 123.4634
L114.2487 123.3919
" />
<path d="M114.2487 123.3919
L114.4630 123.3919
" />
<path d="M114.4630 123.3919
L114.6059 123.4634
" />
<path d="M114.6059 123.4634
L114.6773 123.5348
" />
<path d="M114.6773 123.5348
L114.7487 123.6776
" />
<path d="M114.7487 123.6776
L114.7487 124.1062
" />
<path d="M114.7487 124.1062
L114.6773 124.2491
" />
<path d="M114.6773 124.2491
L114.6059 124.3205
" />
<path d="M114.6059 124.3205
L114.4630 124.3919
" />
<path d="M114.4630 124.3919
L114.2487 124.3919
" />
<path d="M115.3916 124.3919
L115.3916 123.3919
" />
<path d="M115.3916 123.6776
L115.4630 123.5348
" />
<path d="M115.4630 123.5348
L115.5345 123.4634
" />
<path d="M115.5345 123.4634
L115.6773 123.3919
" />
<path d="M115.6773 123.3919
L115.8202 123.3919
" />
<path d="M116.3202 124.2491
L116.3916 124.3205
" />
<path d="M116.3916 124.3205
L116.3202 124.3919
" />
<path d="M116.3202 124.3919
L116.2487 124.3205
" />
<path d="M116.2487 124.3205
L116.3202 124.2491
" />
<path d="M116.3202 124.2491
L116.3202 124.3919
" />
<path d="M117.0345 124.3919
L117.0345 122.8919
" />
<path d="M117.1773 123.8205
L117.6059 124.3919
" />
<path d="M117.6059 123.3919
L117.0345 123.9634
" />
<path d="M118.2487 124.3919
L118.2487 123.3919
" />
<path d="M118.2487 122.8919
L118.1773 122.9634
" />
<path d="M118.1773 122.9634
L118.2487 123.0348
" />
<path d="M118.2487 123.0348
L118.3202 122.9634
" />
<path d="M118.3202 122.9634
L118.2487 122.8919
" />
<path d="M118.2487 122.8919
L118.2487 123.0348
" />
<path d="M119.6059 124.3205
L119.4630 124.3919
" />
<path d="M119.4630 124.3919
L119.1773 124.3919
" />
<path d="M119.1773 124.3919
L119.0345 124.3205
" />
<path d="M119.0345 124.3205
L118.9630 124.2491
" />
<path d="M118.9630 124.2491
L118.8916 124.1062
" />
<path d="M118.8916 124.1062
L118.8916 123.6776
" />
<path d="M118.8916 123.6776
L118.9630 123.5348
" />
<path d="M118.9630 123.5348
L119.0345 123.4634
" />
<path d="M119.0345 123.4634
L119.1773 123.3919
" />
<path d="M119.1773 123.3919
L119.4630 123.3919
" />
<path d="M119.4630 123.3919
L119.6059 123.4634
" />
<path d="M120.8916 124.3919
L120.8916 123.6062
" />
<path d="M120.8916 123.6062
L120.8202 123.4634
" />
<path d="M120.8202 123.4634
L120.6773 123.3919
" />
<path d="M120.6773 123.3919
L120.3916 123.3919
" />
<path d="M120.3916 123.3919
L120.2487 123.4634
" />
<path d="M120.8916 124.3205
L120.7487 124.3919
" />
<path d="M120.7487 124.3919
L120.3916 124.3919
" />
<path d="M120.3916 124.3919
L120.2487 124.3205
" />
<path d="M120.2487 124.3205
L120.1773 124.1776
" />
<path d="M120.1773 124.1776
L120.1773 124.0348
" />
<path d="M120.1773 124.0348
L120.2487 123.8919
" />
<path d="M120.2487 123.8919
L120.3916 123.8205
" />
<path d="M120.3916 123.8205
L120.7487 123.8205
" />
<path d="M120.7487 123.8205
L120.8916 123.7491
" />
<path d="M122.2487 124.3919
L122.2487 122.8919
" />
<path d="M122.2487 124.3205
L122.1059 124.3919
" />
<path d="M122.1059 124.3919
L121.8202 124.3919
" />
<path d="M121.8202 124.3919
L121.6773 124.3205
" />
<path d="M121.6773 124.3205
L121.6059 124.2491
" />
<path d="M121.6059 124.2491
L121.5345 124.1062
" />
<path d="M121.5345 124.1062
L121.5345 123.6776
" />
<path d="M121.5345 123.6776
L121.6059 123.5348
" />
<path d="M121.6059 123.5348
L121.6773 123.4634
" />
<path d="M121.6773 123.4634
L121.8202 123.3919
" />
<path d="M121.8202 123.3919
L122.1059 123.3919
" />
<path d="M122.1059 123.3919
L122.2487 123.4634
" />
<path d="M122.6059 124.5348
L123.7487 124.5348
" />
<path d="M124.1059 123.3919
L124.1059 124.8919
" />
<path d="M124.1059 123.4634
L124.2487 123.3919
" />
<path d="M124.2487 123.3919
L124.5345 123.3919
" />
<path d="M124.5345 123.3919
L124.6773 123.4634
" />
<path d="M124.6773 123.4634
L124.7487 123.5348
" />
<path d="M124.7487 123.5348
L124.8202 123.6776
" />
<path d="M124.8202 123.6776
L124.8202 124.1062
" />
<path d="M124.8202 124.1062
L124.7487 124.2491
" />
<path d="M124.7487 124.2491
L124.6773 124.3205
" />
<path d="M124.6773 124.3205
L124.5345 124.3919
" />
<path d="M124.5345 124.3919
L124.2487 124.3919
" />
<path d="M124.2487 124.3919
L124.1059 124.3205
" />
<path d="M126.1059 124.3205
L125.9630 124.3919
" />
<path d="M125.9630 124.3919
L125.6773 124.3919
" />
<path d="M125.6773 124.3919
L125.5345 124.3205
" />
<path d="M125.5345 124.3205
L125.4630 124.2491
" />
<path d="M125.4630 124.2491
L125.3916 124.1062
" />
<path d="M125.3916 124.1062
L125.3916 123.6776
" />
<path d="M125.3916 123.6776
L125.4630 123.5348
" />
<path d="M125.4630 123.5348
L125.5345 123.4634
" />
<path d="M125.5345 123.4634
L125.6773 123.3919
" />
<path d="M125.6773 123.3919
L125.9630 123.3919
" />
<path d="M125.9630 123.3919
L126.1059 123.4634
" />
<path d="M126.7487 124.3919
L126.7487 122.8919
" />
<path d="M126.7487 123.4634
L126.8916 123.3919
" />
<path d="M126.8916 123.3919
L127.1773 123.3919
" />
<path d="M127.1773 123.3919
L127.3202 123.4634
" />
<path d="M127.3202 123.4634
L127.3916 123.5348
" />
<path d="M127.3916 123.5348
L127.4630 123.6776
" />
<path d="M127.4630 123.6776
L127.4630 124.1062
" />
<path d="M127.4630 124.1062
L127.3916 124.2491
" />
<path d="M127.3916 124.2491
L127.3202 124.3205
" />
<path d="M127.3202 124.3205
L127.1773 124.3919
" />
<path d="M127.1773 124.3919
L126.8916 124.3919
" />
<path d="M126.8916 124.3919
L126.7487 124.3205
" />
</g></g>
<g style="fill:none; 
stroke:#000000; stroke-width:0.1500; stroke-opacity:1; 
stroke-linecap:round; stroke-linejoin:round;">
<path d="M90.0072 119.5058
L198.0072 119.5058
" />
</g>
<g style="fill:none; 
stroke:#000000; stroke-width:0.1500; stroke-opacity:1; 
stroke-linecap:round; stroke-linejoin:round;">
<text x="91.0072" y="121.7558"
textLength="8.2214" font-size="2.0000" lengthAdjust="spacingAndGlyphs"
text-anchor="start" opacity="0" stroke-opacity="0">Sheet: </text>
<g class="stroked-text"><desc>Sheet: </desc>
<path d="M91.3916 121.6205
L91.6059 121.6919
" />
<path d="M91.6059 121.6919
L91.9630 121.6919
" />
<path d="M91.9630 121.6919
L92.1059 121.6205
" />
<path d="M92.1059 121.6205
L92.1773 121.5491
" />
<path d="M92.1773 121.5491
L92.2487 121.4062
" />
<path d="M92.2487 121.4062
L92.2487 121.2634
" />
<path d="M92.2487 121.2634
L92.1773 121.1205
" />
<path d="M92.1773 121.1205
L92.1059 121.0491
" />
<path d="M92.1059 121.0491
L91.9630 120.9776
" />
<path d="M91.9630 120.9776
L91.6773 120.9062
" />
<path d="M91.6773 120.9062
L91.5345 120.8348
" />
<path d="M91.5345 120.8348
L91.4630 120.7634
" />
<path d="M91.4630 120.7634
L91.3916 120.6205
" />
<path d="M91.3916 120.6205
L91.3916 120.4776
" />
<path d="M91.3916 120.4776
L91.4630 120.3348
" />
<path d="M91.4630 120.3348
L91.5345 120.2634
" />
<path d="M91.5345 120.2634
L91.6773 120.1919
" />
<path d="M91.6773 120.1919
L92.0345 120.1919
" />
<path d="M92.0345 120.1919
L92.2487 120.2634
" />
<path d="M92.8916 121.6919
L92.8916 120.1919
" />
<path d="M93.5345 121.6919
L93.5345 120.9062
" />
<path d="M93.5345 120.9062
L93.4630 120.7634
" />
<path d="M93.4630 120.7634
L93.3202 120.6919
" />
<path d="M93.3202 120.6919
L93.1059 120.6919
" />
<path d="M93.1059 120.6919
L92.9630 120.7634
" />
<path d="M92.9630 120.7634
L92.8916 120.8348
" />
<path d="M94.8202 121.6205
L94.6773 121.6919
" />
<path d="M94.6773 121.6919
L94.3916 121.6919
" />
<path d="M94.3916 121.6919
L94.2487 121.6205
" />
<path d="M94.2487 121.6205
L94.1773 121.4776
" />
<path d="M94.1773 121.4776
L94.1773 120.9062
" />
<path d="M94.1773 120.9062
L94.2487 120.7634
" />
<path d="M94.2487 120.7634
L94.3916 120.6919
" />
<path d="M94.3916 120.6919
L94.6773 120.6919
" />
<path d="M94.6773 120.6919
L94.8202 120.7634
" />
<path d="M94.8202 120.7634
L94.8916 120.9062
" />
<path d="M94.8916 120.9062
L94.8916 121.0491
" />
<path d="M94.8916 121.0491
L94.1773 121.1919
" />
<path d="M96.1059 121.6205
L95.9630 121.6919
" />
<path d="M95.9630 121.6919
L95.6773 121.6919
" />
<path d="M95.6773 121.6919
L95.5345 121.6205
" />
<path d="M95.5345 121.6205
L95.4630 121.4776
" />
<path d="M95.4630 121.4776
L95.4630 120.9062
" />
<path d="M95.4630 120.9062
L95.5345 120.7634
" />
<path d="M95.5345 120.7634
L95.6773 120.6919
" />
<path d="M95.6773 120.6919
L95.9630 120.6919
" />
<path d="M95.9630 120.6919
L96.1059 120.7634
" />
<path d="M96.1059 120.7634
L96.1773 120.9062
" />
<path d="M96.1773 120.9062
L96.1773 121.0491
" />
<path d="M96.1773 121.0491
L95.4630 121.1919
" />
<path d="M96.6059 120.6919
L97.1773 120.6919
" />
<path d="M96.8202 120.1919
L96.8202 121.4776
" />
<path d="M96.8202 121.4776
L96.8916 121.6205
" />
<path d="M96.8916 121.6205
L97.0345 121.6919
" />
<path d="M97.0345 121.6919
L97.1773 121.6919
" />
<path d="M97.6773 121.5491
L97.7487 121.6205
" />
<path d="M97.7487 121.6205
L97.6773 121.6919
" />
<path d="M97.6773 121.6919
L97.6059 121.6205
" />
<path d="M97.6059 121.6205
L97.6773 121.5491
" />
<path d="M97.6773 121.5491
L97.6773 121.6919
" />
<path d="M97.6773 120.7634
L97.7487 120.8348
" />
<path d="M97.7487 120.8348
L97.6773 120.9062
" />
<path d="M97.6773 120.9062
L97.6059 120.8348
" />
<path d="M97.6059 120.8348
L97.6773 120.7634
" />
<path d="M97.6773 120.7634
L97.6773 120.9062
" />
</g></g>
<g style="fill:none; 
stroke:#000000; stroke-width:0.3000; stroke-opacity:1; 
stroke-linecap:round; stroke-linejoin:round;">
<text x="91.0072" y="118.7558"
textLength="0.9000" font-size="2.0000" lengthAdjust="spacingAndGlyphs"
text-anchor="start" opacity="0" stroke-opacity="0"></text>
<g class="stroked-text"><desc></desc>
</g></g>
<g style="fill:none; 
stroke:#000000; stroke-width:0.1500; stroke-opacity:1; 
stroke-linecap:round; stroke-linejoin:round;">
<text x="91.0072" y="115.7558"
textLength="0.4500" font-size="2.0000" lengthAdjust="spacingAndGlyphs"
text-anchor="start" opacity="0" stroke-opacity="0"></text>
<g class="stroked-text"><desc></desc>
</g></g>
<g style="fill:none; 
stroke:#000000; stroke-width:0.1500; stroke-opacity:1; 
stroke-linecap:round; stroke-linejoin:round;">
<text x="91.0072" y="112.7558"
textLength="0.4500" font-size="2.0000" lengthAdjust="spacingAndGlyphs"
text-anchor="start" opacity="0" stroke-opacity="0"></text>
<g class="stroked-text"><desc></desc>
</g></g>
<g style="fill:none; 
stroke:#000000; stroke-width:0.1500; stroke-opacity:1; 
stroke-linecap:round; stroke-linejoin:round;">
<text x="91.0072" y="109.7558"
textLength="0.4500" font-size="2.0000" lengthAdjust="spacingAndGlyphs"
text-anchor="start" opacity="0" stroke-opacity="0"></text>
<g class="stroked-text"><desc></desc>
</g></g>
<g style="fill:none; 
stroke:#000000; stroke-width:0.1500; stroke-opacity:1; 
stroke-linecap:round; stroke-linejoin:round;">
<text x="91.0072" y="106.7558"
textLength="0.4500" font-size="2.0000" lengthAdjust="spacingAndGlyphs"
text-anchor="start" opacity="0" stroke-opacity="0"></text>
<g class="stroked-text"><desc></desc>
</g></g>
<g style="fill:none; 
stroke:#000000; stroke-width:0.1500; stroke-opacity:1; 
stroke-linecap:round; stroke-linejoin:round;">
<path d="M110.0072 129.5058
L110.0072 132.5058
" />
</g>
<g style="fill:none; 
stroke:#000000; stroke-width:0.1500; stroke-opacity:1; 
stroke-linecap:round; stroke-linejoin:round;">
<path d="M174.0072 129.5058
L174.0072 136.0058
" />
<path style="fill:none; 
stroke:#000000; stroke-width:0.0500; stroke-opacity:1; 
stroke-linecap:round; stroke-linejoin:round;fill:none"
d="M 50.0000,50.0000
150.0000,50.0000
150.0000,100.0000
50.0000,100.0000
Z" /> 
</g>
<g style="fill:none; 
stroke:#000000; stroke-width:0.1500; stroke-opacity:1; 
stroke-linecap:round; stroke-linejoin:round;">
<g transform="rotate(-90.000000 87.9400 87.6300)">
<text x="87.9400" y="88.1300"
textLength="1.9643" font-size="1.3333" lengthAdjust="spacingAndGlyphs"
text-anchor="middle" opacity="0" stroke-opacity="0">J1</text>
</g>
<g class="stroked-text"><desc>J1</desc>
<path d="M87.3948 87.9633
L88.1091 87.9633
" />
<path d="M88.1091 87.9633
L88.2520 88.0110
" />
<path d="M88.2520 88.0110
L88.3472 88.1062
" />
<path d="M88.3472 88.1062
L88.3948 88.2490
" />
<path d="M88.3948 88.2490
L88.3948 88.3443
" />
<path d="M88.3948 86.9633
L88.3948 87.5348
" />
<path d="M88.3948 87.2490
L87.3948 87.2490
" />
<path d="M87.3948 87.2490
L87.5377 87.3443
" />
<path d="M87.5377 87.3443
L87.6329 87.4395
" />
<path d="M87.6329 87.4395
L87.6805 87.5348
" />
</g><g transform="rotate(-90.000000 91.2300 68.5800)">
<text x="91.2300" y="69.0800"
textLength="1.9643" font-size="1.3333" lengthAdjust="spacingAndGlyphs"
text-anchor="middle" opacity="0" stroke-opacity="0">J4</text>
</g>
<g class="stroked-text"><desc>J4</desc>
<path d="M90.6848 68.9133
L91.3991 68.9133
" />
<path d="M91.3991 68.9133
L91.5420 68.9610
" />
<path d="M91.5420 68.9610
L91.6372 69.0562
" />
<path d="M91.6372 69.0562
L91.6848 69.1990
" />
<path d="M91.6848 69.1990
L91.6848 69.2943
" />
<path d="M91.0182 68.0086
L91.6848 68.0086
" />
<path d="M90.6372 68.2467
L91.3515 68.4848
" />
<path d="M91.3515 68.4848
L91.3515 67.8657
" />
</g><g transform="rotate(-90.000000 139.7000 71.1200)">
<text x="139.7000" y="71.6200"
textLength="2.0595" font-size="1.3333" lengthAdjust="spacingAndGlyphs"
text-anchor="middle" opacity="0" stroke-opacity="0">A2</text>
</g>
<g class="stroked-text"><desc>A2</desc>
<path d="M139.8691 71.8343
L139.8691 71.3581
" />
<path d="M140.1548 71.9295
L139.1548 71.5962
" />
<path d="M139.1548 71.5962
L140.1548 71.2629
" />
<path d="M139.2501 70.9771
L139.2024 70.9295
" />
<path d="M139.2024 70.9295
L139.1548 70.8343
" />
<path d="M139.1548 70.8343
L139.1548 70.5962
" />
<path d="M139.1548 70.5962
L139.2024 70.5010
" />
<path d="M139.2024 70.5010
L139.2501 70.4533
" />
<path d="M139.2501 70.4533
L139.3453 70.4057
" />
<path d="M139.3453 70.4057
L139.4405 70.4057
" />
<path d="M139.4405 70.4057
L139.5834 70.4533
" />
<path d="M139.5834 70.4533
L140.1548 71.0248
" />
<path d="M140.1548 71.0248
L140.1548 70.4057
" />
</g><g transform="rotate(-180.000000 132.0800 65.4050)">
<text x="132.0800" y="65.9050"
textLength="2.2024" font-size="1.3333" lengthAdjust="spacingAndGlyphs"
text-anchor="middle" opacity="0" stroke-opacity="0">D0</text>
</g>
<g class="stroked-text"><desc>D0</desc>
<path d="M132.8181 64.9502
L132.8181 65.9502
" />
<path d="M132.8181 65.9502
L132.5800 65.9502
" />
<path d="M132.5800 65.9502
L132.4371 65.9026
" />
<path d="M132.4371 65.9026
L132.3419 65.8073
" />
<path d="M132.3419 65.8073
L132.2943 65.7121
" />
<path d="M132.2943 65.7121
L132.2467 65.5216
" />
<path d="M132.2467 65.5216
L132.2467 65.3788
" />
<path d="M132.2467 65.3788
L132.2943 65.1883
" />
<path d="M132.2943 65.1883
L132.3419 65.0930
" />
<path d="M132.3419 65.0930
L132.4371 64.9978
" />
<path d="M132.4371 64.9978
L132.5800 64.9502
" />
<path d="M132.5800 64.9502
L132.8181 64.9502
" />
<path d="M131.6276 65.9502
L131.5324 65.9502
" />
<path d="M131.5324 65.9502
L131.4371 65.9026
" />
<path d="M131.4371 65.9026
L131.3895 65.8549
" />
<path d="M131.3895 65.8549
L131.3419 65.7597
" />
<path d="M131.3419 65.7597
L131.2943 65.5692
" />
<path d="M131.2943 65.5692
L131.2943 65.3311
" />
<path d="M131.2943 65.3311
L131.3419 65.1407
" />
<path d="M131.3419 65.1407
L131.3895 65.0454
" />
<path d="M131.3895 65.0454
L131.4371 64.9978
" />
<path d="M131.4371 64.9978
L131.5324 64.9502
" />
<path d="M131.5324 64.9502
L131.6276 64.9502
" />
<path d="M131.6276 64.9502
L131.7229 64.9978
" />
<path d="M131.7229 64.9978
L131.7705 65.0454
" />
<path d="M131.7705 65.0454
L131.8181 65.1407
" />
<path d="M131.8181 65.1407
L131.8657 65.3311
" />
<path d="M131.8657 65.3311
L131.8657 65.5692
" />
<path d="M131.8657 65.5692
L131.8181 65.7597
" />
<path d="M131.8181 65.7597
L131.7705 65.8549
" />
<path d="M131.7705 65.8549
L131.7229 65.9026
" />
<path d="M131.7229 65.9026
L131.6276 65.9502
" />
</g><g transform="rotate(-90.000000 120.5000 85.0900)">
<text x="120.5000" y="85.5900"
textLength="2.2024" font-size="1.3333" lengthAdjust="spacingAndGlyphs"
text-anchor="middle" opacity="0" stroke-opacity="0">D1</text>
</g>
<g class="stroked-text"><desc>D1</desc>
<path d="M120.9548 85.8281
L119.9548 85.8281
" />
<path d="M119.9548 85.8281
L119.9548 85.5900
" />
<path d="M119.9548 85.5900
L120.0024 85.4471
" />
<path d="M120.0024 85.4471
L120.0977 85.3519
" />
<path d="M120.0977 85.3519
L120.1929 85.3043
" />
<path d="M120.1929 85.3043
L120.3834 85.2567
" />
<path d="M120.3834 85.2567
L120.5262 85.2567
" />
<path d="M120.5262 85.2567
L120.7167 85.3043
" />
<path d="M120.7167 85.3043
L120.8120 85.3519
" />
<path d="M120.8120 85.3519
L120.9072 85.4471
" />
<path d="M120.9072 85.4471
L120.9548 85.5900
" />
<path d="M120.9548 85.5900
L120.9548 85.8281
" />
<path d="M120.9548 84.3043
L120.9548 84.8757
" />
<path d="M120.9548 84.5900
L119.9548 84.5900
" />
<path d="M119.9548 84.5900
L120.0977 84.6852
" />
<path d="M120.0977 84.6852
L120.1929 84.7805
" />
<path d="M120.1929 84.7805
L120.2405 84.8757
" />
</g><g transform="rotate(-90.000000 91.2300 73.6600)">
<text x="91.2300" y="74.1600"
textLength="1.9643" font-size="1.3333" lengthAdjust="spacingAndGlyphs"
text-anchor="middle" opacity="0" stroke-opacity="0">J5</text>
</g>
<g class="stroked-text"><desc>J5</desc>
<path d="M90.6848 73.9933
L91.3991 73.9933
" />
<path d="M91.3991 73.9933
L91.5420 74.0410
" />
<path d="M91.5420 74.0410
L91.6372 74.1362
" />
<path d="M91.6372 74.1362
L91.6848 74.2790
" />
<path d="M91.6848 74.2790
L91.6848 74.3743
" />
<path d="M90.6848 73.0410
L90.6848 73.5171
" />
<path d="M90.6848 73.5171
L91.1610 73.5648
" />
<path d="M91.1610 73.5648
L91.1134 73.5171
" />
<path d="M91.1134 73.5171
L91.0658 73.4219
" />
<path d="M91.0658 73.4219
L91.0658 73.1838
" />
<path d="M91.0658 73.1838
L91.1134 73.0886
" />
<path d="M91.1134 73.0886
L91.1610 73.0410
" />
<path d="M91.1610 73.0410
L91.2562 72.9933
" />
<path d="M91.2562 72.9933
L91.4943 72.9933
" />
<path d="M91.4943 72.9933
L91.5896 73.0410
" />
<path d="M91.5896 73.0410
L91.6372 73.0886
" />
<path d="M91.6372 73.0886
L91.6848 73.1838
" />
<path d="M91.6848 73.1838
L91.6848 73.4219
" />
<path d="M91.6848 73.4219
L91.6372 73.5171
" />
<path d="M91.6372 73.5171
L91.5896 73.5648
" />
</g><g transform="rotate(-90.000000 91.4800 88.9400)">
<text x="91.4800" y="89.4400"
textLength="2.2024" font-size="1.3333" lengthAdjust="spacingAndGlyphs"
text-anchor="middle" opacity="0" stroke-opacity="0">C1</text>
</g>
<g class="stroked-text"><desc>C1</desc>
<path d="M91.8396 89.1067
L91.8872 89.1543
" />
<path d="M91.8872 89.1543
L91.9348 89.2971
" />
<path d="M91.9348 89.2971
L91.9348 89.3924
" />
<path d="M91.9348 89.3924
L91.8872 89.5352
" />
<path d="M91.8872 89.5352
L91.7920 89.6305
" />
<path d="M91.7920 89.6305
L91.6967 89.6781
" />
<path d="M91.6967 89.6781
L91.5062 89.7257
" />
<path d="M91.5062 89.7257
L91.3634 89.7257
" />
<path d="M91.3634 89.7257
L91.1729 89.6781
" />
<path d="M91.1729 89.6781
L91.0777 89.6305
" />
<path d="M91.0777 89.6305
L90.9824 89.5352
" />
<path d="M90.9824 89.5352
L90.9348 89.3924
" />
<path d="M90.9348 89.3924
L90.9348 89.2971
" />
<path d="M90.9348 89.2971
L90.9824 89.1543
" />
<path d="M90.9824 89.1543
L91.0301 89.1067
" />
<path d="M91.9348 88.1543
L91.9348 88.7257
" />
<path d="M91.9348 88.4400
L90.9348 88.4400
" />
<path d="M90.9348 88.4400
L91.0777 88.5352
" />
<path d="M91.0777 88.5352
L91.1729 88.6305
" />
<path d="M91.1729 88.6305
L91.2205 88.7257
" />
</g><text x="149.1650" y="64.2700"
textLength="1.9643" font-size="1.3333" lengthAdjust="spacingAndGlyphs"
text-anchor="middle" opacity="0" stroke-opacity="0">J6</text>
<g class="stroked-text"><desc>J6</desc>
<path d="M148.8317 63.2248
L148.8317 63.9391
" />
<path d="M148.8317 63.9391
L148.7840 64.0820
" />
<path d="M148.7840 64.0820
L148.6888 64.1772
" />
<path d="M148.6888 64.1772
L148.5460 64.2248
" />
<path d="M148.5460 64.2248
L148.4507 64.2248
" />
<path d="M149.7364 63.2248
L149.5460 63.2248
" />
<path d="M149.5460 63.2248
L149.4507 63.2724
" />
<path d="M149.4507 63.2724
L149.4031 63.3201
" />
<path d="M149.4031 63.3201
L149.3079 63.4629
" />
<path d="M149.3079 63.4629
L149.2602 63.6534
" />
<path d="M149.2602 63.6534
L149.2602 64.0343
" />
<path d="M149.2602 64.0343
L149.3079 64.1296
" />
<path d="M149.3079 64.1296
L149.3555 64.1772
" />
<path d="M149.3555 64.1772
L149.4507 64.2248
" />
<path d="M149.4507 64.2248
L149.6412 64.2248
" />
<path d="M149.6412 64.2248
L149.7364 64.1772
" />
<path d="M149.7364 64.1772
L149.7840 64.1296
" />
<path d="M149.7840 64.1296
L149.8317 64.0343
" />
<path d="M149.8317 64.0343
L149.8317 63.7962
" />
<path d="M149.8317 63.7962
L149.7840 63.7010
" />
<path d="M149.7840 63.7010
L149.7364 63.6534
" />
<path d="M149.7364 63.6534
L149.6412 63.6058
" />
<path d="M149.6412 63.6058
L149.4507 63.6058
" />
<path d="M149.4507 63.6058
L149.3555 63.6534
" />
<path d="M149.3555 63.6534
L149.3079 63.7010
" />
<path d="M149.3079 63.7010
L149.2602 63.7962
" />
</g><text x="138.4300" y="86.4825"
textLength="2.2024" font-size="1.3333" lengthAdjust="spacingAndGlyphs"
text-anchor="middle" opacity="0" stroke-opacity="0">R2</text>
<g class="stroked-text"><desc>R2</desc>
<path d="M138.2633 86.4373
L137.9300 85.9611
" />
<path d="M137.6919 86.4373
L137.6919 85.4373
" />
<path d="M137.6919 85.4373
L138.0729 85.4373
" />
<path d="M138.0729 85.4373
L138.1681 85.4849
" />
<path d="M138.1681 85.4849
L138.2157 85.5326
" />
<path d="M138.2157 85.5326
L138.2633 85.6278
" />
<path d="M138.2633 85.6278
L138.2633 85.7707
" />
<path d="M138.2633 85.7707
L138.2157 85.8659
" />
<path d="M138.2157 85.8659
L138.1681 85.9135
" />
<path d="M138.1681 85.9135
L138.0729 85.9611
" />
<path d="M138.0729 85.9611
L137.6919 85.9611
" />
<path d="M138.6443 85.5326
L138.6919 85.4849
" />
<path d="M138.6919 85.4849
L138.7871 85.4373
" />
<path d="M138.7871 85.4373
L139.0252 85.4373
" />
<path d="M139.0252 85.4373
L139.1205 85.4849
" />
<path d="M139.1205 85.4849
L139.1681 85.5326
" />
<path d="M139.1681 85.5326
L139.2157 85.6278
" />
<path d="M139.2157 85.6278
L139.2157 85.7230
" />
<path d="M139.2157 85.7230
L139.1681 85.8659
" />
<path d="M139.1681 85.8659
L138.5967 86.4373
" />
<path d="M138.5967 86.4373
L139.2157 86.4373
" />
</g><text x="114.3000" y="56.0000"
textLength="2.2024" font-size="1.3333" lengthAdjust="spacingAndGlyphs"
text-anchor="middle" opacity="0" stroke-opacity="0">R1</text>
<g class="stroked-text"><desc>R1</desc>
<path d="M114.1333 55.9548
L113.8000 55.4786
" />
<path d="M113.5619 55.9548
L113.5619 54.9548
" />
<path d="M113.5619 54.9548
L113.9429 54.9548
" />
<path d="M113.9429 54.9548
L114.0381 55.0024
" />
<path d="M114.0381 55.0024
L114.0857 55.0501
" />
<path d="M114.0857 55.0501
L114.1333 55.1453
" />
<path d="M114.1333 55.1453
L114.1333 55.2882
" />
<path d="M114.1333 55.2882
L114.0857 55.3834
" />
<path d="M114.0857 55.3834
L114.0381 55.4310
" />
<path d="M114.0381 55.4310
L113.9429 55.4786
" />
<path d="M113.9429 55.4786
L113.5619 55.4786
" />
<path d="M115.0857 55.9548
L114.5143 55.9548
" />
<path d="M114.8000 55.9548
L114.8000 54.9548
" />
<path d="M114.8000 54.9548
L114.7048 55.0977
" />
<path d="M114.7048 55.0977
L114.6095 55.1929
" />
<path d="M114.6095 55.1929
L114.5143 55.2405
" />
</g><g transform="rotate(-90.000000 116.8000 88.8600)">
<text x="116.8000" y="89.3600"
textLength="2.2024" font-size="1.3333" lengthAdjust="spacingAndGlyphs"
text-anchor="middle" opacity="0" stroke-opacity="0">C2</text>
</g>
<g class="stroked-text"><desc>C2</desc>
<path d="M117.1596 89.0267
L117.2072 89.0743
" />
<path d="M117.2072 89.0743
L117.2548 89.2171
" />
<path d="M117.2548 89.2171
L117.2548 89.3124
" />
<path d="M117.2548 89.3124
L117.2072 89.4552
" />
<path d="M117.2072 89.4552
L117.1120 89.5505
" />
<path d="M117.1120 89.5505
L117.0167 89.5981
" />
<path d="M117.0167 89.5981
L116.8262 89.6457
" />
<path d="M116.8262 89.6457
L116.6834 89.6457
" />
<path d="M116.6834 89.6457
L116.4929 89.5981
" />
<path d="M116.4929 89.5981
L116.3977 89.5505
" />
<path d="M116.3977 89.5505
L116.3024 89.4552
" />
<path d="M116.3024 89.4552
L116.2548 89.3124
" />
<path d="M116.2548 89.3124
L116.2548 89.2171
" />
<path d="M116.2548 89.2171
L116.3024 89.0743
" />
<path d="M116.3024 89.0743
L116.3501 89.0267
" />
<path d="M116.3501 88.6457
L116.3024 88.5981
" />
<path d="M116.3024 88.5981
L116.2548 88.5029
" />
<path d="M116.2548 88.5029
L116.2548 88.2648
" />
<path d="M116.2548 88.2648
L116.3024 88.1695
" />
<path d="M116.3024 88.1695
L116.3501 88.1219
" />
<path d="M116.3501 88.1219
L116.4453 88.0743
" />
<path d="M116.4453 88.0743
L116.5405 88.0743
" />
<path d="M116.5405 88.0743
L116.6834 88.1219
" />
<path d="M116.6834 88.1219
L117.2548 88.6933
" />
<path d="M117.2548 88.6933
L117.2548 88.0743
" />
</g><g transform="rotate(-90.000000 102.4870 88.9083)">
<text x="102.4870" y="89.4083"
textLength="2.2500" font-size="1.3333" lengthAdjust="spacingAndGlyphs"
text-anchor="middle" opacity="0" stroke-opacity="0">U1</text>
</g>
<g class="stroked-text"><desc>U1</desc>
<path d="M101.9418 89.6702
L102.7513 89.6702
" />
<path d="M102.7513 89.6702
L102.8466 89.6225
" />
<path d="M102.8466 89.6225
L102.8942 89.5749
" />
<path d="M102.8942 89.5749
L102.9418 89.4797
" />
<path d="M102.9418 89.4797
L102.9418 89.2892
" />
<path d="M102.9418 89.2892
L102.8942 89.1940
" />
<path d="M102.8942 89.1940
L102.8466 89.1464
" />
<path d="M102.8466 89.1464
L102.7513 89.0987
" />
<path d="M102.7513 89.0987
L101.9418 89.0987
" />
<path d="M102.9418 88.0987
L102.9418 88.6702
" />
<path d="M102.9418 88.3845
L101.9418 88.3845
" />
<path d="M101.9418 88.3845
L102.0847 88.4797
" />
<path d="M102.0847 88.4797
L102.1799 88.5749
" />
<path d="M102.1799 88.5749
L102.2275 88.6702
" />
</g><g transform="rotate(-90.000000 94.7565 55.1668)">
<text x="94.7565" y="55.6668"
textLength="3.2976" font-size="1.3333" lengthAdjust="spacingAndGlyphs"
text-anchor="middle" opacity="0" stroke-opacity="0">SW1</text>
</g>
<g class="stroked-text"><desc>SW1</desc>
<path d="M95.1637 56.5002
L95.2113 56.3573
" />
<path d="M95.2113 56.3573
L95.2113 56.1192
" />
<path d="M95.2113 56.1192
L95.1637 56.0240
" />
<path d="M95.1637 56.0240
L95.1160 55.9764
" />
<path d="M95.1160 55.9764
L95.0208 55.9287
" />
<path d="M95.0208 55.9287
L94.9256 55.9287
" />
<path d="M94.9256 55.9287
L94.8303 55.9764
" />
<path d="M94.8303 55.9764
L94.7827 56.0240
" />
<path d="M94.7827 56.0240
L94.7351 56.1192
" />
<path d="M94.7351 56.1192
L94.6875 56.3097
" />
<path d="M94.6875 56.3097
L94.6399 56.4049
" />
<path d="M94.6399 56.4049
L94.5922 56.4526
" />
<path d="M94.5922 56.4526
L94.4970 56.5002
" />
<path d="M94.4970 56.5002
L94.4018 56.5002
" />
<path d="M94.4018 56.5002
L94.3065 56.4526
" />
<path d="M94.3065 56.4526
L94.2589 56.4049
" />
<path d="M94.2589 56.4049
L94.2113 56.3097
" />
<path d="M94.2113 56.3097
L94.2113 56.0716
" />
<path d="M94.2113 56.0716
L94.2589 55.9287
" />
<path d="M94.2113 55.5954
L95.2113 55.3573
" />
<path d="M95.2113 55.3573
L94.4970 55.1668
" />
<path d="M94.4970 55.1668
L95.2113 54.9764
" />
<path d="M95.2113 54.9764
L94.2113 54.7383
" />
<path d="M95.2113 53.8335
L95.2113 54.4049
" />
<path d="M95.2113 54.1192
L94.2113 54.1192
" />
<path d="M94.2113 54.1192
L94.3541 54.2145
" />
<path d="M94.3541 54.2145
L94.4494 54.3097
" />
<path d="M94.4494 54.3097
L94.4970 54.4049
" />
</g></g>
<g style="fill:none; 
stroke:#000000; stroke-width:0.1200; stroke-opacity:1; 
stroke-linecap:round; stroke-linejoin:round;">
<path d="M80.8300 84.9800
L80.8300 90.2800
" />
<path d="M80.8300 86.3600
L81.8300 86.3600
" />
<path d="M80.8300 86.6100
L81.8300 86.6100
" />
<path d="M80.8300 88.6500
L81.8300 88.6500
" />
<path d="M80.8300 90.2800
L86.8500 90.2800
" />
<path d="M81.8300 86.3600
L81.8300 88.9000
" />
<path d="M81.8300 86.3600
L82.3600 86.6100
" />
<path d="M81.8300 88.9000
L80.8300 88.9000
" />
<path d="M82.3600 86.6100
L82.3600 88.6500
" />
<path d="M82.3600 88.6500
L81.8300 88.9000
" />
<path d="M85.8200 84.6900
L81.8200 84.6900
" />
<path d="M86.2500 85.5600
L86.2500 87.1600
" />
<path d="M86.2500 87.1600
L86.8500 87.1600
" />
<path d="M86.2500 88.1000
L86.2500 89.7000
" />
<path d="M86.2500 89.7000
L86.8500 89.7000
" />
<path d="M86.8500 84.9800
L80.8300 84.9800
" />
<path d="M86.8500 85.5600
L86.2500 85.5600
" />
<path d="M86.8500 88.1000
L86.2500 88.1000
" />
<path d="M86.8500 90.2800
L86.8500 84.9800
" />
<path d="M82.4900 67.2500
L82.4900 69.9100
" />
<path d="M87.6300 67.2500
L82.4900 67.2500
" />
<path d="M87.6300 67.2500
L87.6300 69.9100
" />
<path d="M87.6300 69.9100
L82.4900 69.9100
" />
<path d="M88.9000 67.2500
L90.2300 67.2500
" />
<path d="M90.2300 67.2500
L90.2300 68.5800
" />
</g>
<g style="fill:none; 
stroke:#000000; stroke-width:0.1500; stroke-opacity:1; 
stroke-linecap:round; stroke-linejoin:round;">
<path d="M95.2500 62.2300
L95.2500 80.0100
" />
<path d="M138.4300 62.2300
L95.2500 62.2300
" />
<path d="M138.4300 62.2300
L138.4300 80.0100
" />
<path d="M138.4300 80.0100
L95.2500 80.0100
" />
</g>
<g style="fill:none; 
stroke:#000000; stroke-width:0.1200; stroke-opacity:1; 
stroke-linecap:round; stroke-linejoin:round;">
<path d="M122.9150 87.6500
L126.0050 87.6500
" />
<path d="M124.4605 82.1000 A2.9900 2.9900 0.0 0 0 122.9152 87.6500" />
<path d="M126.0048 87.6500 A2.9900 2.9900 0.0 0 0 124.4595 82.1000" />
<circle cx="124.4600" cy="85.0900" r="2.5000" /> 
<path d="M82.4900 72.3300
L82.4900 74.9900
" />
<path d="M87.6300 72.3300
L82.4900 72.3300
" />
<path d="M87.6300 72.3300
L87.6300 74.9900
" />
<path d="M87.6300 74.9900
L82.4900 74.9900
" />
<path d="M88.9000 72.3300
L90.2300 72.3300
" />
<path d="M90.2300 72.3300
L90.2300 73.6600
" />
<path d="M92.6100 85.3200
L95.3500 85.3200
" />
<path d="M92.6100 92.5600
L92.6100 85.3200
" />
<path d="M92.6100 92.5600
L95.3500 92.5600
" />
<path d="M95.3500 92.5600
L95.3500 85.3200
" />
<path d="M143.5100 64.7700
L144.7800 64.7700
" />
<path d="M143.5100 66.0400
L143.5100 64.7700
" />
<path d="M145.8229 68.2000
L146.2200 68.2000
" />
<path d="M145.8229 68.9600
L146.2200 68.9600
" />
<path d="M145.8229 70.7400
L146.2200 70.7400
" />
<path d="M145.8229 71.5000
L146.2200 71.5000
" />
<path d="M145.8229 73.2800
L146.2200 73.2800
" />
<path d="M145.8229 74.0400
L146.2200 74.0400
" />
<path d="M145.8229 75.8200
L146.2200 75.8200
" />
<path d="M145.8229 76.5800
L146.2200 76.5800
" />
<path d="M145.8229 78.3600
L146.2200 78.3600
" />
<path d="M145.8229 79.1200
L146.2200 79.1200
" />
<path d="M145.8229 80.9000
L146.2200 80.9000
" />
<path d="M145.8229 81.6600
L146.2200 81.6600
" />
<path d="M145.8229 83.4400
L146.2200 83.4400
" />
<path d="M145.8229 84.2000
L146.2200 84.2000
" />
<path d="M145.8900 65.6600
L146.2200 65.6600
" />
<path d="M145.8900 66.4200
L146.2200 66.4200
" />
<path d="M146.2200 64.7100
L146.2200 85.1500
" />
<path d="M146.2200 67.3100
L148.8800 67.3100
" />
<path d="M146.2200 69.8500
L148.8800 69.8500
" />
<path d="M146.2200 72.3900
L148.8800 72.3900
" />
<path d="M146.2200 74.9300
L148.8800 74.9300
" />
<path d="M146.2200 77.4700
L148.8800 77.4700
" />
<path d="M146.2200 80.0100
L148.8800 80.0100
" />
<path d="M146.2200 82.5500
L148.8800 82.5500
" />
<path d="M146.2200 85.1500
L148.8800 85.1500
" />
<path d="M148.8800 64.7100
L146.2200 64.7100
" />
<path d="M148.8800 65.6600
L154.8800 65.6600
" />
<path d="M148.8800 65.7200
L154.8800 65.7200
" />
<path d="M148.8800 65.8400
L154.8800 65.8400
" />
<path d="M148.8800 65.9600
L154.8800 65.9600
" />
<path d="M148.8800 66.0800
L154.8800 66.0800
" />
<path d="M148.8800 66.2000
L154.8800 66.2000
" />
<path d="M148.8800 66.3200
L154.8800 66.3200
" />
<path d="M148.8800 68.2000
L154.8800 68.2000
" />
<path d="M148.8800 70.7400
L154.8800 70.7400
" />
<path d="M148.8800 73.2800
L154.8800 73.2800
" />
<path d="M148.8800 75.8200
L154.8800 75.8200
" />
<path d="M148.8800 78.3600
L154.8800 78.3600
" />
<path d="M148.8800 80.9000
L154.8800 80.9000
" />
<path d="M148.8800 83.4400
L154.8800 83.4400
" />
<path d="M148.8800 85.1500
L148.8800 64.7100
" />
<path d="M154.8800 65.6600
L154.8800 66.4200
" />
<path d="M154.8800 66.4200
L148.8800 66.4200
" />
<path d="M154.8800 68.2000
L154.8800 68.9600
" />
<path d="M154.8800 68.9600
L148.8800 68.9600
" />
<path d="M154.8800 70.7400
L154.8800 71.5000
" />
<path d="M154.8800 71.5000
L148.8800 71.5000
" />
<path d="M154.8800 73.2800
L154.8800 74.0400
" />
<path d="M154.8800 74.0400
L148.8800 74.0400
" />
<path d="M154.8800 75.8200
L154.8800 76.5800
" />
<path d="M154.8800 76.5800
L148.8800 76.5800
" />
<path d="M154.8800 78.3600
L154.8800 79.1200
" />
<path d="M154.8800 79.1200
L148.8800 79.1200
" />
<path d="M154.8800 80.9000
L154.8800 81.6600
" />
<path d="M154.8800 81.6600
L148.8800 81.6600
" />
<path d="M154.8800 83.4400
L154.8800 84.2000
" />
<path d="M154.8800 84.2000
L148.8800 84.2000
" />
<path d="M133.3600 86.9825
L143.5000 86.9825
" />
<path d="M133.3600 87.4625
L133.3600 86.9825
" />
<path d="M133.3600 90.3425
L133.3600 90.8225
" />
<path d="M133.3600 90.8225
L143.5000 90.8225
" />
<path d="M143.5000 86.9825
L143.5000 87.4625
" />
<path d="M143.5000 90.8225
L143.5000 90.3425
" />
<path d="M109.2300 56.5000
L119.3700 56.5000
" />
<path d="M109.2300 56.9800
L109.2300 56.5000
" />
<path d="M109.2300 59.8600
L109.2300 60.3400
" />
<path d="M109.2300 60.3400
L119.3700 60.3400
" />
<path d="M119.3700 56.5000
L119.3700 56.9800
" />
<path d="M119.3700 60.3400
L119.3700 59.8600
" />
<path d="M112.9300 85.2400
L112.9300 92.4800
" />
<path d="M115.6700 85.2400
L112.9300 85.2400
" />
<path d="M115.6700 85.2400
L115.6700 92.4800
" />
<path d="M115.6700 92.4800
L112.9300 92.4800
" />
<path d="M103.4100 81.2400
L108.0510 81.2400
" />
<path d="M103.4100 84.5090
L104.9200 84.5090
" />
<path d="M103.4100 88.2100
L104.9200 88.2100
" />
<path d="M103.4100 91.4800
L103.4100 81.2400
" />
<path d="M103.4100 91.4800
L108.0510 91.4800
" />
<path d="M104.9200 91.4800
L104.9200 81.2400
" />
<path d="M108.0510 91.4800
L108.0510 81.2400
" />
<path d="M95.7565 52.9168
L95.7565 57.4168
" />
<path d="M98.2565 58.6668
L99.7565 58.6668
" />
<path d="M99.7565 51.6668
L98.2565 51.6668
" />
<path d="M102.2565 57.4168
L102.2565 52.9168
" />
</g> 
</svg>
