<?xml version="1.0" standalone="no"?>
 <!DOCTYPE svg PUBLIC "-//W3C//DTD SVG 1.1//EN" 
 "http://www.w3.org/Graphics/SVG/1.1/DTD/svg11.dtd"> 
<svg
  xmlns:svg="http://www.w3.org/2000/svg"
  xmlns="http://www.w3.org/2000/svg"
  xmlns:xlink="http://www.w3.org/1999/xlink"
  version="1.1"
  width="297.0022mm" height="210.0072mm" viewBox="0.0000 0.0000 297.0022 210.0072">
<title>SVG Image created as modulo_seguidor-B_Fab.svg date 2025/09/09 17:03:13 </title>
  <desc>Image generated by PCBNEW </desc>
<g style="fill:#000000; fill-opacity:1.0000;stroke:#000000; stroke-opacity:1.0000;
stroke-linecap:round; stroke-linejoin:round;"
 transform="translate(0 0) scale(1 1)">
</g>
<g style="fill:none; 
stroke:#000000; stroke-width:0.1500; stroke-opacity:1; 
stroke-linecap:round; stroke-linejoin:round;">
<path d="M177.0022 166.0072
L285.0022 166.0072
L285.0022 198.0072
L177.0022 198.0072
L177.0022 166.0072
" />
</g>
<g style="fill:none; 
stroke:#000000; stroke-width:0.1500; stroke-opacity:1; 
stroke-linecap:round; stroke-linejoin:round;">
<path d="M10.0000 10.0000
L287.0022 10.0000
L287.0022 200.0072
L10.0000 200.0072
L10.0000 10.0000
" />
</g>
<g style="fill:none; 
stroke:#000000; stroke-width:0.1500; stroke-opacity:1; 
stroke-linecap:round; stroke-linejoin:round;">
<path d="M12.0000 12.0000
L285.0022 12.0000
L285.0022 198.0072
L12.0000 198.0072
L12.0000 12.0000
" />
</g>
<g style="fill:none; 
stroke:#000000; stroke-width:0.1500; stroke-opacity:1; 
stroke-linecap:round; stroke-linejoin:round;">
<path d="M60.0000 12.0000
L60.0000 10.0000
" />
</g>
<g style="fill:none; 
stroke:#000000; stroke-width:0.1500; stroke-opacity:1; 
stroke-linecap:round; stroke-linejoin:round;">
<path d="M110.0000 12.0000
L110.0000 10.0000
" />
</g>
<g style="fill:none; 
stroke:#000000; stroke-width:0.1500; stroke-opacity:1; 
stroke-linecap:round; stroke-linejoin:round;">
<path d="M160.0000 12.0000
L160.0000 10.0000
" />
</g>
<g style="fill:none; 
stroke:#000000; stroke-width:0.1500; stroke-opacity:1; 
stroke-linecap:round; stroke-linejoin:round;">
<path d="M210.0000 12.0000
L210.0000 10.0000
" />
</g>
<g style="fill:none; 
stroke:#000000; stroke-width:0.1500; stroke-opacity:1; 
stroke-linecap:round; stroke-linejoin:round;">
<path d="M260.0000 12.0000
L260.0000 10.0000
" />
</g>
<g style="fill:none; 
stroke:#000000; stroke-width:0.1500; stroke-opacity:1; 
stroke-linecap:round; stroke-linejoin:round;">
<text x="35.0000" y="11.6500"
textLength="1.4281" font-size="1.7333" lengthAdjust="spacingAndGlyphs"
text-anchor="start" opacity="0" stroke-opacity="0">1</text>
<g class="stroked-text"><desc>1</desc>
<path d="M36.0892 11.5936
L35.3463 11.5936
" />
<path d="M35.7177 11.5936
L35.7177 10.2936
" />
<path d="M35.7177 10.2936
L35.5939 10.4793
" />
<path d="M35.5939 10.4793
L35.4701 10.6031
" />
<path d="M35.4701 10.6031
L35.3463 10.6650
" />
</g></g>
<g style="fill:none; 
stroke:#000000; stroke-width:0.1500; stroke-opacity:1; 
stroke-linecap:round; stroke-linejoin:round;">
<text x="85.0000" y="11.6500"
textLength="1.4281" font-size="1.7333" lengthAdjust="spacingAndGlyphs"
text-anchor="start" opacity="0" stroke-opacity="0">2</text>
<g class="stroked-text"><desc>2</desc>
<path d="M85.3463 10.4174
L85.4082 10.3555
" />
<path d="M85.4082 10.3555
L85.5320 10.2936
" />
<path d="M85.5320 10.2936
L85.8415 10.2936
" />
<path d="M85.8415 10.2936
L85.9654 10.3555
" />
<path d="M85.9654 10.3555
L86.0273 10.4174
" />
<path d="M86.0273 10.4174
L86.0892 10.5412
" />
<path d="M86.0892 10.5412
L86.0892 10.6650
" />
<path d="M86.0892 10.6650
L86.0273 10.8507
" />
<path d="M86.0273 10.8507
L85.2844 11.5936
" />
<path d="M85.2844 11.5936
L86.0892 11.5936
" />
</g></g>
<g style="fill:none; 
stroke:#000000; stroke-width:0.1500; stroke-opacity:1; 
stroke-linecap:round; stroke-linejoin:round;">
<text x="135.0000" y="11.6500"
textLength="1.4281" font-size="1.7333" lengthAdjust="spacingAndGlyphs"
text-anchor="start" opacity="0" stroke-opacity="0">3</text>
<g class="stroked-text"><desc>3</desc>
<path d="M135.2844 10.2936
L136.0892 10.2936
" />
<path d="M136.0892 10.2936
L135.6558 10.7888
" />
<path d="M135.6558 10.7888
L135.8415 10.7888
" />
<path d="M135.8415 10.7888
L135.9654 10.8507
" />
<path d="M135.9654 10.8507
L136.0273 10.9127
" />
<path d="M136.0273 10.9127
L136.0892 11.0365
" />
<path d="M136.0892 11.0365
L136.0892 11.3460
" />
<path d="M136.0892 11.3460
L136.0273 11.4698
" />
<path d="M136.0273 11.4698
L135.9654 11.5317
" />
<path d="M135.9654 11.5317
L135.8415 11.5936
" />
<path d="M135.8415 11.5936
L135.4701 11.5936
" />
<path d="M135.4701 11.5936
L135.3463 11.5317
" />
<path d="M135.3463 11.5317
L135.2844 11.4698
" />
</g></g>
<g style="fill:none; 
stroke:#000000; stroke-width:0.1500; stroke-opacity:1; 
stroke-linecap:round; stroke-linejoin:round;">
<text x="185.0000" y="11.6500"
textLength="1.4281" font-size="1.7333" lengthAdjust="spacingAndGlyphs"
text-anchor="start" opacity="0" stroke-opacity="0">4</text>
<g class="stroked-text"><desc>4</desc>
<path d="M185.9654 10.7269
L185.9654 11.5936
" />
<path d="M185.6558 10.2317
L185.3463 11.1603
" />
<path d="M185.3463 11.1603
L186.1511 11.1603
" />
</g></g>
<g style="fill:none; 
stroke:#000000; stroke-width:0.1500; stroke-opacity:1; 
stroke-linecap:round; stroke-linejoin:round;">
<text x="235.0000" y="11.6500"
textLength="1.4281" font-size="1.7333" lengthAdjust="spacingAndGlyphs"
text-anchor="start" opacity="0" stroke-opacity="0">5</text>
<g class="stroked-text"><desc>5</desc>
<path d="M236.0273 10.2936
L235.4082 10.2936
" />
<path d="M235.4082 10.2936
L235.3463 10.9127
" />
<path d="M235.3463 10.9127
L235.4082 10.8507
" />
<path d="M235.4082 10.8507
L235.5320 10.7888
" />
<path d="M235.5320 10.7888
L235.8415 10.7888
" />
<path d="M235.8415 10.7888
L235.9654 10.8507
" />
<path d="M235.9654 10.8507
L236.0273 10.9127
" />
<path d="M236.0273 10.9127
L236.0892 11.0365
" />
<path d="M236.0892 11.0365
L236.0892 11.3460
" />
<path d="M236.0892 11.3460
L236.0273 11.4698
" />
<path d="M236.0273 11.4698
L235.9654 11.5317
" />
<path d="M235.9654 11.5317
L235.8415 11.5936
" />
<path d="M235.8415 11.5936
L235.5320 11.5936
" />
<path d="M235.5320 11.5936
L235.4082 11.5317
" />
<path d="M235.4082 11.5317
L235.3463 11.4698
" />
</g></g>
<g style="fill:none; 
stroke:#000000; stroke-width:0.1500; stroke-opacity:1; 
stroke-linecap:round; stroke-linejoin:round;">
<text x="285.0000" y="11.6500"
textLength="1.4281" font-size="1.7333" lengthAdjust="spacingAndGlyphs"
text-anchor="start" opacity="0" stroke-opacity="0">6</text>
<g class="stroked-text"><desc>6</desc>
<path d="M285.9654 10.2936
L285.7177 10.2936
" />
<path d="M285.7177 10.2936
L285.5939 10.3555
" />
<path d="M285.5939 10.3555
L285.5320 10.4174
" />
<path d="M285.5320 10.4174
L285.4082 10.6031
" />
<path d="M285.4082 10.6031
L285.3463 10.8507
" />
<path d="M285.3463 10.8507
L285.3463 11.3460
" />
<path d="M285.3463 11.3460
L285.4082 11.4698
" />
<path d="M285.4082 11.4698
L285.4701 11.5317
" />
<path d="M285.4701 11.5317
L285.5939 11.5936
" />
<path d="M285.5939 11.5936
L285.8415 11.5936
" />
<path d="M285.8415 11.5936
L285.9654 11.5317
" />
<path d="M285.9654 11.5317
L286.0273 11.4698
" />
<path d="M286.0273 11.4698
L286.0892 11.3460
" />
<path d="M286.0892 11.3460
L286.0892 11.0365
" />
<path d="M286.0892 11.0365
L286.0273 10.9127
" />
<path d="M286.0273 10.9127
L285.9654 10.8507
" />
<path d="M285.9654 10.8507
L285.8415 10.7888
" />
<path d="M285.8415 10.7888
L285.5939 10.7888
" />
<path d="M285.5939 10.7888
L285.4701 10.8507
" />
<path d="M285.4701 10.8507
L285.4082 10.9127
" />
<path d="M285.4082 10.9127
L285.3463 11.0365
" />
</g></g>
<g style="fill:none; 
stroke:#000000; stroke-width:0.1500; stroke-opacity:1; 
stroke-linecap:round; stroke-linejoin:round;">
<path d="M60.0000 198.0072
L60.0000 200.0072
" />
</g>
<g style="fill:none; 
stroke:#000000; stroke-width:0.1500; stroke-opacity:1; 
stroke-linecap:round; stroke-linejoin:round;">
<path d="M110.0000 198.0072
L110.0000 200.0072
" />
</g>
<g style="fill:none; 
stroke:#000000; stroke-width:0.1500; stroke-opacity:1; 
stroke-linecap:round; stroke-linejoin:round;">
<path d="M160.0000 198.0072
L160.0000 200.0072
" />
</g>
<g style="fill:none; 
stroke:#000000; stroke-width:0.1500; stroke-opacity:1; 
stroke-linecap:round; stroke-linejoin:round;">
<path d="M210.0000 198.0072
L210.0000 200.0072
" />
</g>
<g style="fill:none; 
stroke:#000000; stroke-width:0.1500; stroke-opacity:1; 
stroke-linecap:round; stroke-linejoin:round;">
<path d="M260.0000 198.0072
L260.0000 200.0072
" />
</g>
<g style="fill:none; 
stroke:#000000; stroke-width:0.1500; stroke-opacity:1; 
stroke-linecap:round; stroke-linejoin:round;">
<text x="35.0000" y="199.6572"
textLength="1.4281" font-size="1.7333" lengthAdjust="spacingAndGlyphs"
text-anchor="start" opacity="0" stroke-opacity="0">1</text>
<g class="stroked-text"><desc>1</desc>
<path d="M36.0892 199.6008
L35.3463 199.6008
" />
<path d="M35.7177 199.6008
L35.7177 198.3008
" />
<path d="M35.7177 198.3008
L35.5939 198.4865
" />
<path d="M35.5939 198.4865
L35.4701 198.6103
" />
<path d="M35.4701 198.6103
L35.3463 198.6722
" />
</g></g>
<g style="fill:none; 
stroke:#000000; stroke-width:0.1500; stroke-opacity:1; 
stroke-linecap:round; stroke-linejoin:round;">
<text x="85.0000" y="199.6572"
textLength="1.4281" font-size="1.7333" lengthAdjust="spacingAndGlyphs"
text-anchor="start" opacity="0" stroke-opacity="0">2</text>
<g class="stroked-text"><desc>2</desc>
<path d="M85.3463 198.4246
L85.4082 198.3627
" />
<path d="M85.4082 198.3627
L85.5320 198.3008
" />
<path d="M85.5320 198.3008
L85.8415 198.3008
" />
<path d="M85.8415 198.3008
L85.9654 198.3627
" />
<path d="M85.9654 198.3627
L86.0273 198.4246
" />
<path d="M86.0273 198.4246
L86.0892 198.5484
" />
<path d="M86.0892 198.5484
L86.0892 198.6722
" />
<path d="M86.0892 198.6722
L86.0273 198.8579
" />
<path d="M86.0273 198.8579
L85.2844 199.6008
" />
<path d="M85.2844 199.6008
L86.0892 199.6008
" />
</g></g>
<g style="fill:none; 
stroke:#000000; stroke-width:0.1500; stroke-opacity:1; 
stroke-linecap:round; stroke-linejoin:round;">
<text x="135.0000" y="199.6572"
textLength="1.4281" font-size="1.7333" lengthAdjust="spacingAndGlyphs"
text-anchor="start" opacity="0" stroke-opacity="0">3</text>
<g class="stroked-text"><desc>3</desc>
<path d="M135.2844 198.3008
L136.0892 198.3008
" />
<path d="M136.0892 198.3008
L135.6558 198.7960
" />
<path d="M135.6558 198.7960
L135.8415 198.7960
" />
<path d="M135.8415 198.7960
L135.9654 198.8579
" />
<path d="M135.9654 198.8579
L136.0273 198.9199
" />
<path d="M136.0273 198.9199
L136.0892 199.0437
" />
<path d="M136.0892 199.0437
L136.0892 199.3532
" />
<path d="M136.0892 199.3532
L136.0273 199.4770
" />
<path d="M136.0273 199.4770
L135.9654 199.5389
" />
<path d="M135.9654 199.5389
L135.8415 199.6008
" />
<path d="M135.8415 199.6008
L135.4701 199.6008
" />
<path d="M135.4701 199.6008
L135.3463 199.5389
" />
<path d="M135.3463 199.5389
L135.2844 199.4770
" />
</g></g>
<g style="fill:none; 
stroke:#000000; stroke-width:0.1500; stroke-opacity:1; 
stroke-linecap:round; stroke-linejoin:round;">
<text x="185.0000" y="199.6572"
textLength="1.4281" font-size="1.7333" lengthAdjust="spacingAndGlyphs"
text-anchor="start" opacity="0" stroke-opacity="0">4</text>
<g class="stroked-text"><desc>4</desc>
<path d="M185.9654 198.7341
L185.9654 199.6008
" />
<path d="M185.6558 198.2389
L185.3463 199.1675
" />
<path d="M185.3463 199.1675
L186.1511 199.1675
" />
</g></g>
<g style="fill:none; 
stroke:#000000; stroke-width:0.1500; stroke-opacity:1; 
stroke-linecap:round; stroke-linejoin:round;">
<text x="235.0000" y="199.6572"
textLength="1.4281" font-size="1.7333" lengthAdjust="spacingAndGlyphs"
text-anchor="start" opacity="0" stroke-opacity="0">5</text>
<g class="stroked-text"><desc>5</desc>
<path d="M236.0273 198.3008
L235.4082 198.3008
" />
<path d="M235.4082 198.3008
L235.3463 198.9199
" />
<path d="M235.3463 198.9199
L235.4082 198.8579
" />
<path d="M235.4082 198.8579
L235.5320 198.7960
" />
<path d="M235.5320 198.7960
L235.8415 198.7960
" />
<path d="M235.8415 198.7960
L235.9654 198.8579
" />
<path d="M235.9654 198.8579
L236.0273 198.9199
" />
<path d="M236.0273 198.9199
L236.0892 199.0437
" />
<path d="M236.0892 199.0437
L236.0892 199.3532
" />
<path d="M236.0892 199.3532
L236.0273 199.4770
" />
<path d="M236.0273 199.4770
L235.9654 199.5389
" />
<path d="M235.9654 199.5389
L235.8415 199.6008
" />
<path d="M235.8415 199.6008
L235.5320 199.6008
" />
<path d="M235.5320 199.6008
L235.4082 199.5389
" />
<path d="M235.4082 199.5389
L235.3463 199.4770
" />
</g></g>
<g style="fill:none; 
stroke:#000000; stroke-width:0.1500; stroke-opacity:1; 
stroke-linecap:round; stroke-linejoin:round;">
<text x="285.0000" y="199.6572"
textLength="1.4281" font-size="1.7333" lengthAdjust="spacingAndGlyphs"
text-anchor="start" opacity="0" stroke-opacity="0">6</text>
<g class="stroked-text"><desc>6</desc>
<path d="M285.9654 198.3008
L285.7177 198.3008
" />
<path d="M285.7177 198.3008
L285.5939 198.3627
" />
<path d="M285.5939 198.3627
L285.5320 198.4246
" />
<path d="M285.5320 198.4246
L285.4082 198.6103
" />
<path d="M285.4082 198.6103
L285.3463 198.8579
" />
<path d="M285.3463 198.8579
L285.3463 199.3532
" />
<path d="M285.3463 199.3532
L285.4082 199.4770
" />
<path d="M285.4082 199.4770
L285.4701 199.5389
" />
<path d="M285.4701 199.5389
L285.5939 199.6008
" />
<path d="M285.5939 199.6008
L285.8415 199.6008
" />
<path d="M285.8415 199.6008
L285.9654 199.5389
" />
<path d="M285.9654 199.5389
L286.0273 199.4770
" />
<path d="M286.0273 199.4770
L286.0892 199.3532
" />
<path d="M286.0892 199.3532
L286.0892 199.0437
" />
<path d="M286.0892 199.0437
L286.0273 198.9199
" />
<path d="M286.0273 198.9199
L285.9654 198.8579
" />
<path d="M285.9654 198.8579
L285.8415 198.7960
" />
<path d="M285.8415 198.7960
L285.5939 198.7960
" />
<path d="M285.5939 198.7960
L285.4701 198.8579
" />
<path d="M285.4701 198.8579
L285.4082 198.9199
" />
<path d="M285.4082 198.9199
L285.3463 199.0437
" />
</g></g>
<g style="fill:none; 
stroke:#000000; stroke-width:0.1500; stroke-opacity:1; 
stroke-linecap:round; stroke-linejoin:round;">
<path d="M10.0000 60.0000
L12.0000 60.0000
" />
</g>
<g style="fill:none; 
stroke:#000000; stroke-width:0.1500; stroke-opacity:1; 
stroke-linecap:round; stroke-linejoin:round;">
<path d="M10.0000 110.0000
L12.0000 110.0000
" />
</g>
<g style="fill:none; 
stroke:#000000; stroke-width:0.1500; stroke-opacity:1; 
stroke-linecap:round; stroke-linejoin:round;">
<path d="M10.0000 160.0000
L12.0000 160.0000
" />
</g>
<g style="fill:none; 
stroke:#000000; stroke-width:0.1500; stroke-opacity:1; 
stroke-linecap:round; stroke-linejoin:round;">
<text x="11.0000" y="35.6500"
textLength="1.3043" font-size="1.7333" lengthAdjust="spacingAndGlyphs"
text-anchor="middle" opacity="0" stroke-opacity="0">A</text>
<g class="stroked-text"><desc>A</desc>
<path d="M10.6905 35.2222
L11.3095 35.2222
" />
<path d="M10.5667 35.5936
L11.0000 34.2936
" />
<path d="M11.0000 34.2936
L11.4333 35.5936
" />
</g></g>
<g style="fill:none; 
stroke:#000000; stroke-width:0.1500; stroke-opacity:1; 
stroke-linecap:round; stroke-linejoin:round;">
<text x="11.0000" y="85.6500"
textLength="1.4900" font-size="1.7333" lengthAdjust="spacingAndGlyphs"
text-anchor="middle" opacity="0" stroke-opacity="0">B</text>
<g class="stroked-text"><desc>B</desc>
<path d="M11.0929 84.9127
L11.2786 84.9746
" />
<path d="M11.2786 84.9746
L11.3405 85.0365
" />
<path d="M11.3405 85.0365
L11.4024 85.1603
" />
<path d="M11.4024 85.1603
L11.4024 85.3460
" />
<path d="M11.4024 85.3460
L11.3405 85.4698
" />
<path d="M11.3405 85.4698
L11.2786 85.5317
" />
<path d="M11.2786 85.5317
L11.1548 85.5936
" />
<path d="M11.1548 85.5936
L10.6595 85.5936
" />
<path d="M10.6595 85.5936
L10.6595 84.2936
" />
<path d="M10.6595 84.2936
L11.0929 84.2936
" />
<path d="M11.0929 84.2936
L11.2167 84.3555
" />
<path d="M11.2167 84.3555
L11.2786 84.4174
" />
<path d="M11.2786 84.4174
L11.3405 84.5412
" />
<path d="M11.3405 84.5412
L11.3405 84.6650
" />
<path d="M11.3405 84.6650
L11.2786 84.7888
" />
<path d="M11.2786 84.7888
L11.2167 84.8507
" />
<path d="M11.2167 84.8507
L11.0929 84.9127
" />
<path d="M11.0929 84.9127
L10.6595 84.9127
" />
</g></g>
<g style="fill:none; 
stroke:#000000; stroke-width:0.1500; stroke-opacity:1; 
stroke-linecap:round; stroke-linejoin:round;">
<text x="11.0000" y="135.6500"
textLength="1.4900" font-size="1.7333" lengthAdjust="spacingAndGlyphs"
text-anchor="middle" opacity="0" stroke-opacity="0">C</text>
<g class="stroked-text"><desc>C</desc>
<path d="M11.4024 135.4698
L11.3405 135.5317
" />
<path d="M11.3405 135.5317
L11.1548 135.5936
" />
<path d="M11.1548 135.5936
L11.0310 135.5936
" />
<path d="M11.0310 135.5936
L10.8452 135.5317
" />
<path d="M10.8452 135.5317
L10.7214 135.4079
" />
<path d="M10.7214 135.4079
L10.6595 135.2841
" />
<path d="M10.6595 135.2841
L10.5976 135.0365
" />
<path d="M10.5976 135.0365
L10.5976 134.8507
" />
<path d="M10.5976 134.8507
L10.6595 134.6031
" />
<path d="M10.6595 134.6031
L10.7214 134.4793
" />
<path d="M10.7214 134.4793
L10.8452 134.3555
" />
<path d="M10.8452 134.3555
L11.0310 134.2936
" />
<path d="M11.0310 134.2936
L11.1548 134.2936
" />
<path d="M11.1548 134.2936
L11.3405 134.3555
" />
<path d="M11.3405 134.3555
L11.4024 134.4174
" />
</g></g>
<g style="fill:none; 
stroke:#000000; stroke-width:0.1500; stroke-opacity:1; 
stroke-linecap:round; stroke-linejoin:round;">
<text x="11.0000" y="185.6500"
textLength="1.4900" font-size="1.7333" lengthAdjust="spacingAndGlyphs"
text-anchor="middle" opacity="0" stroke-opacity="0">D</text>
<g class="stroked-text"><desc>D</desc>
<path d="M10.6595 185.5936
L10.6595 184.2936
" />
<path d="M10.6595 184.2936
L10.9690 184.2936
" />
<path d="M10.9690 184.2936
L11.1548 184.3555
" />
<path d="M11.1548 184.3555
L11.2786 184.4793
" />
<path d="M11.2786 184.4793
L11.3405 184.6031
" />
<path d="M11.3405 184.6031
L11.4024 184.8507
" />
<path d="M11.4024 184.8507
L11.4024 185.0365
" />
<path d="M11.4024 185.0365
L11.3405 185.2841
" />
<path d="M11.3405 185.2841
L11.2786 185.4079
" />
<path d="M11.2786 185.4079
L11.1548 185.5317
" />
<path d="M11.1548 185.5317
L10.9690 185.5936
" />
<path d="M10.9690 185.5936
L10.6595 185.5936
" />
</g></g>
<g style="fill:none; 
stroke:#000000; stroke-width:0.1500; stroke-opacity:1; 
stroke-linecap:round; stroke-linejoin:round;">
<path d="M287.0022 60.0000
L285.0022 60.0000
" />
</g>
<g style="fill:none; 
stroke:#000000; stroke-width:0.1500; stroke-opacity:1; 
stroke-linecap:round; stroke-linejoin:round;">
<path d="M287.0022 110.0000
L285.0022 110.0000
" />
</g>
<g style="fill:none; 
stroke:#000000; stroke-width:0.1500; stroke-opacity:1; 
stroke-linecap:round; stroke-linejoin:round;">
<path d="M287.0022 160.0000
L285.0022 160.0000
" />
</g>
<g style="fill:none; 
stroke:#000000; stroke-width:0.1500; stroke-opacity:1; 
stroke-linecap:round; stroke-linejoin:round;">
<text x="286.0022" y="35.6500"
textLength="1.3043" font-size="1.7333" lengthAdjust="spacingAndGlyphs"
text-anchor="middle" opacity="0" stroke-opacity="0">A</text>
<g class="stroked-text"><desc>A</desc>
<path d="M285.6927 35.2222
L286.3117 35.2222
" />
<path d="M285.5689 35.5936
L286.0022 34.2936
" />
<path d="M286.0022 34.2936
L286.4355 35.5936
" />
</g></g>
<g style="fill:none; 
stroke:#000000; stroke-width:0.1500; stroke-opacity:1; 
stroke-linecap:round; stroke-linejoin:round;">
<text x="286.0022" y="85.6500"
textLength="1.4900" font-size="1.7333" lengthAdjust="spacingAndGlyphs"
text-anchor="middle" opacity="0" stroke-opacity="0">B</text>
<g class="stroked-text"><desc>B</desc>
<path d="M286.0951 84.9127
L286.2808 84.9746
" />
<path d="M286.2808 84.9746
L286.3427 85.0365
" />
<path d="M286.3427 85.0365
L286.4046 85.1603
" />
<path d="M286.4046 85.1603
L286.4046 85.3460
" />
<path d="M286.4046 85.3460
L286.3427 85.4698
" />
<path d="M286.3427 85.4698
L286.2808 85.5317
" />
<path d="M286.2808 85.5317
L286.1570 85.5936
" />
<path d="M286.1570 85.5936
L285.6617 85.5936
" />
<path d="M285.6617 85.5936
L285.6617 84.2936
" />
<path d="M285.6617 84.2936
L286.0951 84.2936
" />
<path d="M286.0951 84.2936
L286.2189 84.3555
" />
<path d="M286.2189 84.3555
L286.2808 84.4174
" />
<path d="M286.2808 84.4174
L286.3427 84.5412
" />
<path d="M286.3427 84.5412
L286.3427 84.6650
" />
<path d="M286.3427 84.6650
L286.2808 84.7888
" />
<path d="M286.2808 84.7888
L286.2189 84.8507
" />
<path d="M286.2189 84.8507
L286.0951 84.9127
" />
<path d="M286.0951 84.9127
L285.6617 84.9127
" />
</g></g>
<g style="fill:none; 
stroke:#000000; stroke-width:0.1500; stroke-opacity:1; 
stroke-linecap:round; stroke-linejoin:round;">
<text x="286.0022" y="135.6500"
textLength="1.4900" font-size="1.7333" lengthAdjust="spacingAndGlyphs"
text-anchor="middle" opacity="0" stroke-opacity="0">C</text>
<g class="stroked-text"><desc>C</desc>
<path d="M286.4046 135.4698
L286.3427 135.5317
" />
<path d="M286.3427 135.5317
L286.1570 135.5936
" />
<path d="M286.1570 135.5936
L286.0332 135.5936
" />
<path d="M286.0332 135.5936
L285.8474 135.5317
" />
<path d="M285.8474 135.5317
L285.7236 135.4079
" />
<path d="M285.7236 135.4079
L285.6617 135.2841
" />
<path d="M285.6617 135.2841
L285.5998 135.0365
" />
<path d="M285.5998 135.0365
L285.5998 134.8507
" />
<path d="M285.5998 134.8507
L285.6617 134.6031
" />
<path d="M285.6617 134.6031
L285.7236 134.4793
" />
<path d="M285.7236 134.4793
L285.8474 134.3555
" />
<path d="M285.8474 134.3555
L286.0332 134.2936
" />
<path d="M286.0332 134.2936
L286.1570 134.2936
" />
<path d="M286.1570 134.2936
L286.3427 134.3555
" />
<path d="M286.3427 134.3555
L286.4046 134.4174
" />
</g></g>
<g style="fill:none; 
stroke:#000000; stroke-width:0.1500; stroke-opacity:1; 
stroke-linecap:round; stroke-linejoin:round;">
<text x="286.0022" y="185.6500"
textLength="1.4900" font-size="1.7333" lengthAdjust="spacingAndGlyphs"
text-anchor="middle" opacity="0" stroke-opacity="0">D</text>
<g class="stroked-text"><desc>D</desc>
<path d="M285.6617 185.5936
L285.6617 184.2936
" />
<path d="M285.6617 184.2936
L285.9712 184.2936
" />
<path d="M285.9712 184.2936
L286.1570 184.3555
" />
<path d="M286.1570 184.3555
L286.2808 184.4793
" />
<path d="M286.2808 184.4793
L286.3427 184.6031
" />
<path d="M286.3427 184.6031
L286.4046 184.8507
" />
<path d="M286.4046 184.8507
L286.4046 185.0365
" />
<path d="M286.4046 185.0365
L286.3427 185.2841
" />
<path d="M286.3427 185.2841
L286.2808 185.4079
" />
<path d="M286.2808 185.4079
L286.1570 185.5317
" />
<path d="M286.1570 185.5317
L285.9712 185.5936
" />
<path d="M285.9712 185.5936
L285.6617 185.5936
" />
</g></g>
<g style="fill:none; 
stroke:#000000; stroke-width:0.1500; stroke-opacity:1; 
stroke-linecap:round; stroke-linejoin:round;">
<text x="200.0022" y="193.8572"
textLength="7.0071" font-size="2.0000" lengthAdjust="spacingAndGlyphs"
text-anchor="start" opacity="0" stroke-opacity="0">Date: </text>
<g class="stroked-text"><desc>Date: </desc>
<path d="M200.4580 193.7933
L200.4580 192.2933
" />
<path d="M200.4580 192.2933
L200.8152 192.2933
" />
<path d="M200.8152 192.2933
L201.0295 192.3648
" />
<path d="M201.0295 192.3648
L201.1723 192.5076
" />
<path d="M201.1723 192.5076
L201.2437 192.6505
" />
<path d="M201.2437 192.6505
L201.3152 192.9362
" />
<path d="M201.3152 192.9362
L201.3152 193.1505
" />
<path d="M201.3152 193.1505
L201.2437 193.4362
" />
<path d="M201.2437 193.4362
L201.1723 193.5790
" />
<path d="M201.1723 193.5790
L201.0295 193.7219
" />
<path d="M201.0295 193.7219
L200.8152 193.7933
" />
<path d="M200.8152 193.7933
L200.4580 193.7933
" />
<path d="M202.6009 193.7933
L202.6009 193.0076
" />
<path d="M202.6009 193.0076
L202.5295 192.8648
" />
<path d="M202.5295 192.8648
L202.3866 192.7933
" />
<path d="M202.3866 192.7933
L202.1009 192.7933
" />
<path d="M202.1009 192.7933
L201.9580 192.8648
" />
<path d="M202.6009 193.7219
L202.4580 193.7933
" />
<path d="M202.4580 193.7933
L202.1009 193.7933
" />
<path d="M202.1009 193.7933
L201.9580 193.7219
" />
<path d="M201.9580 193.7219
L201.8866 193.5790
" />
<path d="M201.8866 193.5790
L201.8866 193.4362
" />
<path d="M201.8866 193.4362
L201.9580 193.2933
" />
<path d="M201.9580 193.2933
L202.1009 193.2219
" />
<path d="M202.1009 193.2219
L202.4580 193.2219
" />
<path d="M202.4580 193.2219
L202.6009 193.1505
" />
<path d="M203.1009 192.7933
L203.6723 192.7933
" />
<path d="M203.3152 192.2933
L203.3152 193.5790
" />
<path d="M203.3152 193.5790
L203.3866 193.7219
" />
<path d="M203.3866 193.7219
L203.5295 193.7933
" />
<path d="M203.5295 193.7933
L203.6723 193.7933
" />
<path d="M204.7437 193.7219
L204.6009 193.7933
" />
<path d="M204.6009 193.7933
L204.3152 193.7933
" />
<path d="M204.3152 193.7933
L204.1723 193.7219
" />
<path d="M204.1723 193.7219
L204.1009 193.5790
" />
<path d="M204.1009 193.5790
L204.1009 193.0076
" />
<path d="M204.1009 193.0076
L204.1723 192.8648
" />
<path d="M204.1723 192.8648
L204.3152 192.7933
" />
<path d="M204.3152 192.7933
L204.6009 192.7933
" />
<path d="M204.6009 192.7933
L204.7437 192.8648
" />
<path d="M204.7437 192.8648
L204.8152 193.0076
" />
<path d="M204.8152 193.0076
L204.8152 193.1505
" />
<path d="M204.8152 193.1505
L204.1009 193.2933
" />
<path d="M205.4580 193.6505
L205.5295 193.7219
" />
<path d="M205.5295 193.7219
L205.4580 193.7933
" />
<path d="M205.4580 193.7933
L205.3866 193.7219
" />
<path d="M205.3866 193.7219
L205.4580 193.6505
" />
<path d="M205.4580 193.6505
L205.4580 193.7933
" />
<path d="M205.4580 192.8648
L205.5295 192.9362
" />
<path d="M205.5295 192.9362
L205.4580 193.0076
" />
<path d="M205.4580 193.0076
L205.3866 192.9362
" />
<path d="M205.3866 192.9362
L205.4580 192.8648
" />
<path d="M205.4580 192.8648
L205.4580 193.0076
" />
</g></g>
<g style="fill:none; 
stroke:#000000; stroke-width:0.1500; stroke-opacity:1; 
stroke-linecap:round; stroke-linejoin:round;">
<path d="M177.0022 194.5072
L285.0022 194.5072
" />
</g>
<g style="fill:none; 
stroke:#000000; stroke-width:0.1500; stroke-opacity:1; 
stroke-linecap:round; stroke-linejoin:round;">
<text x="178.0022" y="196.6572"
textLength="20.6500" font-size="2.0000" lengthAdjust="spacingAndGlyphs"
text-anchor="start" opacity="0" stroke-opacity="0">${KICAD_VERSION}</text>
<g class="stroked-text"><desc>${KICAD_VERSION}</desc>
<path d="M178.3866 196.5219
L178.6009 196.5933
" />
<path d="M178.6009 196.5933
L178.9580 196.5933
" />
<path d="M178.9580 196.5933
L179.1009 196.5219
" />
<path d="M179.1009 196.5219
L179.1723 196.4505
" />
<path d="M179.1723 196.4505
L179.2437 196.3076
" />
<path d="M179.2437 196.3076
L179.2437 196.1648
" />
<path d="M179.2437 196.1648
L179.1723 196.0219
" />
<path d="M179.1723 196.0219
L179.1009 195.9505
" />
<path d="M179.1009 195.9505
L178.9580 195.8790
" />
<path d="M178.9580 195.8790
L178.6723 195.8076
" />
<path d="M178.6723 195.8076
L178.5295 195.7362
" />
<path d="M178.5295 195.7362
L178.4580 195.6648
" />
<path d="M178.4580 195.6648
L178.3866 195.5219
" />
<path d="M178.3866 195.5219
L178.3866 195.3790
" />
<path d="M178.3866 195.3790
L178.4580 195.2362
" />
<path d="M178.4580 195.2362
L178.5295 195.1648
" />
<path d="M178.5295 195.1648
L178.6723 195.0933
" />
<path d="M178.6723 195.0933
L179.0295 195.0933
" />
<path d="M179.0295 195.0933
L179.2437 195.1648
" />
<path d="M178.8152 194.8790
L178.8152 196.8076
" />
<path d="M180.3152 197.1648
L180.2437 197.1648
" />
<path d="M180.2437 197.1648
L180.1009 197.0933
" />
<path d="M180.1009 197.0933
L180.0295 196.9505
" />
<path d="M180.0295 196.9505
L180.0295 196.2362
" />
<path d="M180.0295 196.2362
L179.9580 196.0933
" />
<path d="M179.9580 196.0933
L179.8152 196.0219
" />
<path d="M179.8152 196.0219
L179.9580 195.9505
" />
<path d="M179.9580 195.9505
L180.0295 195.8076
" />
<path d="M180.0295 195.8076
L180.0295 195.0933
" />
<path d="M180.0295 195.0933
L180.1009 194.9505
" />
<path d="M180.1009 194.9505
L180.2437 194.8790
" />
<path d="M180.2437 194.8790
L180.3152 194.8790
" />
<path d="M180.8866 196.5933
L180.8866 195.0933
" />
<path d="M181.7437 196.5933
L181.1009 195.7362
" />
<path d="M181.7437 195.0933
L180.8866 195.9505
" />
<path d="M182.3866 196.5933
L182.3866 195.0933
" />
<path d="M183.9580 196.4505
L183.8866 196.5219
" />
<path d="M183.8866 196.5219
L183.6723 196.5933
" />
<path d="M183.6723 196.5933
L183.5295 196.5933
" />
<path d="M183.5295 196.5933
L183.3152 196.5219
" />
<path d="M183.3152 196.5219
L183.1723 196.3790
" />
<path d="M183.1723 196.3790
L183.1009 196.2362
" />
<path d="M183.1009 196.2362
L183.0295 195.9505
" />
<path d="M183.0295 195.9505
L183.0295 195.7362
" />
<path d="M183.0295 195.7362
L183.1009 195.4505
" />
<path d="M183.1009 195.4505
L183.1723 195.3076
" />
<path d="M183.1723 195.3076
L183.3152 195.1648
" />
<path d="M183.3152 195.1648
L183.5295 195.0933
" />
<path d="M183.5295 195.0933
L183.6723 195.0933
" />
<path d="M183.6723 195.0933
L183.8866 195.1648
" />
<path d="M183.8866 195.1648
L183.9580 195.2362
" />
<path d="M184.5295 196.1648
L185.2437 196.1648
" />
<path d="M184.3866 196.5933
L184.8866 195.0933
" />
<path d="M184.8866 195.0933
L185.3866 196.5933
" />
<path d="M185.8866 196.5933
L185.8866 195.0933
" />
<path d="M185.8866 195.0933
L186.2437 195.0933
" />
<path d="M186.2437 195.0933
L186.4580 195.1648
" />
<path d="M186.4580 195.1648
L186.6009 195.3076
" />
<path d="M186.6009 195.3076
L186.6723 195.4505
" />
<path d="M186.6723 195.4505
L186.7437 195.7362
" />
<path d="M186.7437 195.7362
L186.7437 195.9505
" />
<path d="M186.7437 195.9505
L186.6723 196.2362
" />
<path d="M186.6723 196.2362
L186.6009 196.3790
" />
<path d="M186.6009 196.3790
L186.4580 196.5219
" />
<path d="M186.4580 196.5219
L186.2437 196.5933
" />
<path d="M186.2437 196.5933
L185.8866 196.5933
" />
<path d="M187.0295 196.7362
L188.1723 196.7362
" />
<path d="M188.3152 195.0933
L188.8152 196.5933
" />
<path d="M188.8152 196.5933
L189.3152 195.0933
" />
<path d="M189.8152 195.8076
L190.3152 195.8076
" />
<path d="M190.5295 196.5933
L189.8152 196.5933
" />
<path d="M189.8152 196.5933
L189.8152 195.0933
" />
<path d="M189.8152 195.0933
L190.5295 195.0933
" />
<path d="M192.0295 196.5933
L191.5295 195.8790
" />
<path d="M191.1723 196.5933
L191.1723 195.0933
" />
<path d="M191.1723 195.0933
L191.7437 195.0933
" />
<path d="M191.7437 195.0933
L191.8866 195.1648
" />
<path d="M191.8866 195.1648
L191.9580 195.2362
" />
<path d="M191.9580 195.2362
L192.0295 195.3790
" />
<path d="M192.0295 195.3790
L192.0295 195.5933
" />
<path d="M192.0295 195.5933
L191.9580 195.7362
" />
<path d="M191.9580 195.7362
L191.8866 195.8076
" />
<path d="M191.8866 195.8076
L191.7437 195.8790
" />
<path d="M191.7437 195.8790
L191.1723 195.8790
" />
<path d="M192.6009 196.5219
L192.8152 196.5933
" />
<path d="M192.8152 196.5933
L193.1723 196.5933
" />
<path d="M193.1723 196.5933
L193.3152 196.5219
" />
<path d="M193.3152 196.5219
L193.3866 196.4505
" />
<path d="M193.3866 196.4505
L193.4580 196.3076
" />
<path d="M193.4580 196.3076
L193.4580 196.1648
" />
<path d="M193.4580 196.1648
L193.3866 196.0219
" />
<path d="M193.3866 196.0219
L193.3152 195.9505
" />
<path d="M193.3152 195.9505
L193.1723 195.8790
" />
<path d="M193.1723 195.8790
L192.8866 195.8076
" />
<path d="M192.8866 195.8076
L192.7437 195.7362
" />
<path d="M192.7437 195.7362
L192.6723 195.6648
" />
<path d="M192.6723 195.6648
L192.6009 195.5219
" />
<path d="M192.6009 195.5219
L192.6009 195.3790
" />
<path d="M192.6009 195.3790
L192.6723 195.2362
" />
<path d="M192.6723 195.2362
L192.7437 195.1648
" />
<path d="M192.7437 195.1648
L192.8866 195.0933
" />
<path d="M192.8866 195.0933
L193.2437 195.0933
" />
<path d="M193.2437 195.0933
L193.4580 195.1648
" />
<path d="M194.1009 196.5933
L194.1009 195.0933
" />
<path d="M195.1009 195.0933
L195.3866 195.0933
" />
<path d="M195.3866 195.0933
L195.5295 195.1648
" />
<path d="M195.5295 195.1648
L195.6723 195.3076
" />
<path d="M195.6723 195.3076
L195.7437 195.5933
" />
<path d="M195.7437 195.5933
L195.7437 196.0933
" />
<path d="M195.7437 196.0933
L195.6723 196.3790
" />
<path d="M195.6723 196.3790
L195.5295 196.5219
" />
<path d="M195.5295 196.5219
L195.3866 196.5933
" />
<path d="M195.3866 196.5933
L195.1009 196.5933
" />
<path d="M195.1009 196.5933
L194.9580 196.5219
" />
<path d="M194.9580 196.5219
L194.8152 196.3790
" />
<path d="M194.8152 196.3790
L194.7437 196.0933
" />
<path d="M194.7437 196.0933
L194.7437 195.5933
" />
<path d="M194.7437 195.5933
L194.8152 195.3076
" />
<path d="M194.8152 195.3076
L194.9580 195.1648
" />
<path d="M194.9580 195.1648
L195.1009 195.0933
" />
<path d="M196.3866 196.5933
L196.3866 195.0933
" />
<path d="M196.3866 195.0933
L197.2437 196.5933
" />
<path d="M197.2437 196.5933
L197.2437 195.0933
" />
<path d="M197.8152 197.1648
L197.8866 197.1648
" />
<path d="M197.8866 197.1648
L198.0295 197.0933
" />
<path d="M198.0295 197.0933
L198.1009 196.9505
" />
<path d="M198.1009 196.9505
L198.1009 196.2362
" />
<path d="M198.1009 196.2362
L198.1723 196.0933
" />
<path d="M198.1723 196.0933
L198.3152 196.0219
" />
<path d="M198.3152 196.0219
L198.1723 195.9505
" />
<path d="M198.1723 195.9505
L198.1009 195.8076
" />
<path d="M198.1009 195.8076
L198.1009 195.0933
" />
<path d="M198.1009 195.0933
L198.0295 194.9505
" />
<path d="M198.0295 194.9505
L197.8866 194.8790
" />
<path d="M197.8866 194.8790
L197.8152 194.8790
" />
</g></g>
<g style="fill:none; 
stroke:#000000; stroke-width:0.1500; stroke-opacity:1; 
stroke-linecap:round; stroke-linejoin:round;">
<path d="M177.0022 191.5072
L285.0022 191.5072
" />
</g>
<g style="fill:none; 
stroke:#000000; stroke-width:0.3000; stroke-opacity:1; 
stroke-linecap:round; stroke-linejoin:round;">
<text x="263.0022" y="193.8572"
textLength="6.3857" font-size="2.0000" lengthAdjust="spacingAndGlyphs"
text-anchor="start" opacity="0" stroke-opacity="0">Rev: </text>
<g class="stroked-text"><desc>Rev: </desc>
<path d="M264.4139 193.7855
L263.9139 193.0712
" />
<path d="M263.5567 193.7855
L263.5567 192.2855
" />
<path d="M263.5567 192.2855
L264.1281 192.2855
" />
<path d="M264.1281 192.2855
L264.2710 192.3570
" />
<path d="M264.2710 192.3570
L264.3424 192.4284
" />
<path d="M264.3424 192.4284
L264.4139 192.5712
" />
<path d="M264.4139 192.5712
L264.4139 192.7855
" />
<path d="M264.4139 192.7855
L264.3424 192.9284
" />
<path d="M264.3424 192.9284
L264.2710 192.9998
" />
<path d="M264.2710 192.9998
L264.1281 193.0712
" />
<path d="M264.1281 193.0712
L263.5567 193.0712
" />
<path d="M265.6281 193.7141
L265.4853 193.7855
" />
<path d="M265.4853 193.7855
L265.1996 193.7855
" />
<path d="M265.1996 193.7855
L265.0567 193.7141
" />
<path d="M265.0567 193.7141
L264.9853 193.5712
" />
<path d="M264.9853 193.5712
L264.9853 192.9998
" />
<path d="M264.9853 192.9998
L265.0567 192.8570
" />
<path d="M265.0567 192.8570
L265.1996 192.7855
" />
<path d="M265.1996 192.7855
L265.4853 192.7855
" />
<path d="M265.4853 192.7855
L265.6281 192.8570
" />
<path d="M265.6281 192.8570
L265.6996 192.9998
" />
<path d="M265.6996 192.9998
L265.6996 193.1427
" />
<path d="M265.6996 193.1427
L264.9853 193.2855
" />
<path d="M266.1996 192.7855
L266.5567 193.7855
" />
<path d="M266.5567 193.7855
L266.9139 192.7855
" />
<path d="M267.4853 193.6427
L267.5567 193.7141
" />
<path d="M267.5567 193.7141
L267.4853 193.7855
" />
<path d="M267.4853 193.7855
L267.4139 193.7141
" />
<path d="M267.4139 193.7141
L267.4853 193.6427
" />
<path d="M267.4853 193.6427
L267.4853 193.7855
" />
<path d="M267.4853 192.8570
L267.5567 192.9284
" />
<path d="M267.5567 192.9284
L267.4853 192.9998
" />
<path d="M267.4853 192.9998
L267.4139 192.9284
" />
<path d="M267.4139 192.9284
L267.4853 192.8570
" />
<path d="M267.4853 192.8570
L267.4853 192.9998
" />
</g></g>
<g style="fill:none; 
stroke:#000000; stroke-width:0.1500; stroke-opacity:1; 
stroke-linecap:round; stroke-linejoin:round;">
<text x="178.0022" y="193.8572"
textLength="9.3643" font-size="2.0000" lengthAdjust="spacingAndGlyphs"
text-anchor="start" opacity="0" stroke-opacity="0">Size: A4</text>
<g class="stroked-text"><desc>Size: A4</desc>
<path d="M178.3866 193.7219
L178.6009 193.7933
" />
<path d="M178.6009 193.7933
L178.9580 193.7933
" />
<path d="M178.9580 193.7933
L179.1009 193.7219
" />
<path d="M179.1009 193.7219
L179.1723 193.6505
" />
<path d="M179.1723 193.6505
L179.2437 193.5076
" />
<path d="M179.2437 193.5076
L179.2437 193.3648
" />
<path d="M179.2437 193.3648
L179.1723 193.2219
" />
<path d="M179.1723 193.2219
L179.1009 193.1505
" />
<path d="M179.1009 193.1505
L178.9580 193.0790
" />
<path d="M178.9580 193.0790
L178.6723 193.0076
" />
<path d="M178.6723 193.0076
L178.5295 192.9362
" />
<path d="M178.5295 192.9362
L178.4580 192.8648
" />
<path d="M178.4580 192.8648
L178.3866 192.7219
" />
<path d="M178.3866 192.7219
L178.3866 192.5790
" />
<path d="M178.3866 192.5790
L178.4580 192.4362
" />
<path d="M178.4580 192.4362
L178.5295 192.3648
" />
<path d="M178.5295 192.3648
L178.6723 192.2933
" />
<path d="M178.6723 192.2933
L179.0295 192.2933
" />
<path d="M179.0295 192.2933
L179.2437 192.3648
" />
<path d="M179.8866 193.7933
L179.8866 192.7933
" />
<path d="M179.8866 192.2933
L179.8152 192.3648
" />
<path d="M179.8152 192.3648
L179.8866 192.4362
" />
<path d="M179.8866 192.4362
L179.9580 192.3648
" />
<path d="M179.9580 192.3648
L179.8866 192.2933
" />
<path d="M179.8866 192.2933
L179.8866 192.4362
" />
<path d="M180.4580 192.7933
L181.2437 192.7933
" />
<path d="M181.2437 192.7933
L180.4580 193.7933
" />
<path d="M180.4580 193.7933
L181.2437 193.7933
" />
<path d="M182.3866 193.7219
L182.2437 193.7933
" />
<path d="M182.2437 193.7933
L181.9580 193.7933
" />
<path d="M181.9580 193.7933
L181.8152 193.7219
" />
<path d="M181.8152 193.7219
L181.7437 193.5790
" />
<path d="M181.7437 193.5790
L181.7437 193.0076
" />
<path d="M181.7437 193.0076
L181.8152 192.8648
" />
<path d="M181.8152 192.8648
L181.9580 192.7933
" />
<path d="M181.9580 192.7933
L182.2437 192.7933
" />
<path d="M182.2437 192.7933
L182.3866 192.8648
" />
<path d="M182.3866 192.8648
L182.4580 193.0076
" />
<path d="M182.4580 193.0076
L182.4580 193.1505
" />
<path d="M182.4580 193.1505
L181.7437 193.2933
" />
<path d="M183.1009 193.6505
L183.1723 193.7219
" />
<path d="M183.1723 193.7219
L183.1009 193.7933
" />
<path d="M183.1009 193.7933
L183.0295 193.7219
" />
<path d="M183.0295 193.7219
L183.1009 193.6505
" />
<path d="M183.1009 193.6505
L183.1009 193.7933
" />
<path d="M183.1009 192.8648
L183.1723 192.9362
" />
<path d="M183.1723 192.9362
L183.1009 193.0076
" />
<path d="M183.1009 193.0076
L183.0295 192.9362
" />
<path d="M183.0295 192.9362
L183.1009 192.8648
" />
<path d="M183.1009 192.8648
L183.1009 193.0076
" />
<path d="M184.8866 193.3648
L185.6009 193.3648
" />
<path d="M184.7437 193.7933
L185.2437 192.2933
" />
<path d="M185.2437 192.2933
L185.7437 193.7933
" />
<path d="M186.8866 192.7933
L186.8866 193.7933
" />
<path d="M186.5295 192.2219
L186.1723 193.2933
" />
<path d="M186.1723 193.2933
L187.1009 193.2933
" />
</g></g>
<g style="fill:none; 
stroke:#000000; stroke-width:0.1500; stroke-opacity:1; 
stroke-linecap:round; stroke-linejoin:round;">
<text x="263.0022" y="196.6572"
textLength="7.0786" font-size="2.0000" lengthAdjust="spacingAndGlyphs"
text-anchor="start" opacity="0" stroke-opacity="0">Id: /1</text>
<g class="stroked-text"><desc>Id: /1</desc>
<path d="M263.4580 196.5933
L263.4580 195.0933
" />
<path d="M264.8152 196.5933
L264.8152 195.0933
" />
<path d="M264.8152 196.5219
L264.6723 196.5933
" />
<path d="M264.6723 196.5933
L264.3866 196.5933
" />
<path d="M264.3866 196.5933
L264.2437 196.5219
" />
<path d="M264.2437 196.5219
L264.1723 196.4505
" />
<path d="M264.1723 196.4505
L264.1009 196.3076
" />
<path d="M264.1009 196.3076
L264.1009 195.8790
" />
<path d="M264.1009 195.8790
L264.1723 195.7362
" />
<path d="M264.1723 195.7362
L264.2437 195.6648
" />
<path d="M264.2437 195.6648
L264.3866 195.5933
" />
<path d="M264.3866 195.5933
L264.6723 195.5933
" />
<path d="M264.6723 195.5933
L264.8152 195.6648
" />
<path d="M265.5295 196.4505
L265.6009 196.5219
" />
<path d="M265.6009 196.5219
L265.5295 196.5933
" />
<path d="M265.5295 196.5933
L265.4580 196.5219
" />
<path d="M265.4580 196.5219
L265.5295 196.4505
" />
<path d="M265.5295 196.4505
L265.5295 196.5933
" />
<path d="M265.5295 195.6648
L265.6009 195.7362
" />
<path d="M265.6009 195.7362
L265.5295 195.8076
" />
<path d="M265.5295 195.8076
L265.4580 195.7362
" />
<path d="M265.4580 195.7362
L265.5295 195.6648
" />
<path d="M265.5295 195.6648
L265.5295 195.8076
" />
<path d="M268.4580 195.0219
L267.1723 196.9505
" />
<path d="M269.7437 196.5933
L268.8866 196.5933
" />
<path d="M269.3152 196.5933
L269.3152 195.0933
" />
<path d="M269.3152 195.0933
L269.1723 195.3076
" />
<path d="M269.1723 195.3076
L269.0295 195.4505
" />
<path d="M269.0295 195.4505
L268.8866 195.5219
" />
</g></g>
<g style="fill:none; 
stroke:#000000; stroke-width:0.1500; stroke-opacity:1; 
stroke-linecap:round; stroke-linejoin:round;">
<path d="M177.0022 187.5072
L285.0022 187.5072
" />
</g>
<g style="fill:none; 
stroke:#000000; stroke-width:0.4000; stroke-opacity:1; 
stroke-linecap:round; stroke-linejoin:round;">
<text x="178.0022" y="190.3072"
textLength="9.6571" font-size="2.6667" lengthAdjust="spacingAndGlyphs"
text-anchor="start" opacity="0" stroke-opacity="0">Title: </text>
<g class="stroked-text"><desc>Title: </desc>
<path d="M178.6939 188.2116
L179.8368 188.2116
" />
<path d="M179.0154 190.2116
L179.2654 188.2116
" />
<path d="M180.2535 190.2116
L180.4201 188.8783
" />
<path d="M180.5035 188.2116
L180.3963 188.3069
" />
<path d="M180.3963 188.3069
L180.4796 188.4021
" />
<path d="M180.4796 188.4021
L180.5868 188.3069
" />
<path d="M180.5868 188.3069
L180.5035 188.2116
" />
<path d="M180.5035 188.2116
L180.4796 188.4021
" />
<path d="M181.0868 188.8783
L181.8487 188.8783
" />
<path d="M181.4558 188.2116
L181.2415 189.9259
" />
<path d="M181.2415 189.9259
L181.3130 190.1164
" />
<path d="M181.3130 190.1164
L181.4915 190.2116
" />
<path d="M181.4915 190.2116
L181.6820 190.2116
" />
<path d="M182.6344 190.2116
L182.4558 190.1164
" />
<path d="M182.4558 190.1164
L182.3844 189.9259
" />
<path d="M182.3844 189.9259
L182.5987 188.2116
" />
<path d="M184.1701 190.1164
L183.9677 190.2116
" />
<path d="M183.9677 190.2116
L183.5868 190.2116
" />
<path d="M183.5868 190.2116
L183.4082 190.1164
" />
<path d="M183.4082 190.1164
L183.3368 189.9259
" />
<path d="M183.3368 189.9259
L183.4320 189.1640
" />
<path d="M183.4320 189.1640
L183.5511 188.9735
" />
<path d="M183.5511 188.9735
L183.7535 188.8783
" />
<path d="M183.7535 188.8783
L184.1344 188.8783
" />
<path d="M184.1344 188.8783
L184.3130 188.9735
" />
<path d="M184.3130 188.9735
L184.3844 189.1640
" />
<path d="M184.3844 189.1640
L184.3606 189.3545
" />
<path d="M184.3606 189.3545
L183.3844 189.5450
" />
<path d="M185.1344 190.0212
L185.2177 190.1164
" />
<path d="M185.2177 190.1164
L185.1106 190.2116
" />
<path d="M185.1106 190.2116
L185.0273 190.1164
" />
<path d="M185.0273 190.1164
L185.1344 190.0212
" />
<path d="M185.1344 190.0212
L185.1106 190.2116
" />
<path d="M185.2654 188.9735
L185.3487 189.0688
" />
<path d="M185.3487 189.0688
L185.2415 189.1640
" />
<path d="M185.2415 189.1640
L185.1582 189.0688
" />
<path d="M185.1582 189.0688
L185.2654 188.9735
" />
<path d="M185.2654 188.9735
L185.2415 189.1640
" />
</g></g>
<g style="fill:none; 
stroke:#000000; stroke-width:0.1500; stroke-opacity:1; 
stroke-linecap:round; stroke-linejoin:round;">
<text x="178.0022" y="186.4572"
textLength="36.7929" font-size="2.0000" lengthAdjust="spacingAndGlyphs"
text-anchor="start" opacity="0" stroke-opacity="0">File: modulo_seguidor.kicad_pcb</text>
<g class="stroked-text"><desc>File: modulo_seguidor.kicad_pcb</desc>
<path d="M178.9580 185.6076
L178.4580 185.6076
" />
<path d="M178.4580 186.3933
L178.4580 184.8933
" />
<path d="M178.4580 184.8933
L179.1723 184.8933
" />
<path d="M179.7437 186.3933
L179.7437 185.3933
" />
<path d="M179.7437 184.8933
L179.6723 184.9648
" />
<path d="M179.6723 184.9648
L179.7437 185.0362
" />
<path d="M179.7437 185.0362
L179.8152 184.9648
" />
<path d="M179.8152 184.9648
L179.7437 184.8933
" />
<path d="M179.7437 184.8933
L179.7437 185.0362
" />
<path d="M180.6723 186.3933
L180.5295 186.3219
" />
<path d="M180.5295 186.3219
L180.4580 186.1790
" />
<path d="M180.4580 186.1790
L180.4580 184.8933
" />
<path d="M181.8152 186.3219
L181.6723 186.3933
" />
<path d="M181.6723 186.3933
L181.3866 186.3933
" />
<path d="M181.3866 186.3933
L181.2437 186.3219
" />
<path d="M181.2437 186.3219
L181.1723 186.1790
" />
<path d="M181.1723 186.1790
L181.1723 185.6076
" />
<path d="M181.1723 185.6076
L181.2437 185.4648
" />
<path d="M181.2437 185.4648
L181.3866 185.3933
" />
<path d="M181.3866 185.3933
L181.6723 185.3933
" />
<path d="M181.6723 185.3933
L181.8152 185.4648
" />
<path d="M181.8152 185.4648
L181.8866 185.6076
" />
<path d="M181.8866 185.6076
L181.8866 185.7505
" />
<path d="M181.8866 185.7505
L181.1723 185.8933
" />
<path d="M182.5295 186.2505
L182.6009 186.3219
" />
<path d="M182.6009 186.3219
L182.5295 186.3933
" />
<path d="M182.5295 186.3933
L182.4580 186.3219
" />
<path d="M182.4580 186.3219
L182.5295 186.2505
" />
<path d="M182.5295 186.2505
L182.5295 186.3933
" />
<path d="M182.5295 185.4648
L182.6009 185.5362
" />
<path d="M182.6009 185.5362
L182.5295 185.6076
" />
<path d="M182.5295 185.6076
L182.4580 185.5362
" />
<path d="M182.4580 185.5362
L182.5295 185.4648
" />
<path d="M182.5295 185.4648
L182.5295 185.6076
" />
<path d="M184.3866 186.3933
L184.3866 185.3933
" />
<path d="M184.3866 185.5362
L184.4580 185.4648
" />
<path d="M184.4580 185.4648
L184.6009 185.3933
" />
<path d="M184.6009 185.3933
L184.8152 185.3933
" />
<path d="M184.8152 185.3933
L184.9580 185.4648
" />
<path d="M184.9580 185.4648
L185.0295 185.6076
" />
<path d="M185.0295 185.6076
L185.0295 186.3933
" />
<path d="M185.0295 185.6076
L185.1009 185.4648
" />
<path d="M185.1009 185.4648
L185.2437 185.3933
" />
<path d="M185.2437 185.3933
L185.4580 185.3933
" />
<path d="M185.4580 185.3933
L185.6009 185.4648
" />
<path d="M185.6009 185.4648
L185.6723 185.6076
" />
<path d="M185.6723 185.6076
L185.6723 186.3933
" />
<path d="M186.6009 186.3933
L186.4580 186.3219
" />
<path d="M186.4580 186.3219
L186.3866 186.2505
" />
<path d="M186.3866 186.2505
L186.3152 186.1076
" />
<path d="M186.3152 186.1076
L186.3152 185.6790
" />
<path d="M186.3152 185.6790
L186.3866 185.5362
" />
<path d="M186.3866 185.5362
L186.4580 185.4648
" />
<path d="M186.4580 185.4648
L186.6009 185.3933
" />
<path d="M186.6009 185.3933
L186.8152 185.3933
" />
<path d="M186.8152 185.3933
L186.9580 185.4648
" />
<path d="M186.9580 185.4648
L187.0295 185.5362
" />
<path d="M187.0295 185.5362
L187.1009 185.6790
" />
<path d="M187.1009 185.6790
L187.1009 186.1076
" />
<path d="M187.1009 186.1076
L187.0295 186.2505
" />
<path d="M187.0295 186.2505
L186.9580 186.3219
" />
<path d="M186.9580 186.3219
L186.8152 186.3933
" />
<path d="M186.8152 186.3933
L186.6009 186.3933
" />
<path d="M188.3866 186.3933
L188.3866 184.8933
" />
<path d="M188.3866 186.3219
L188.2437 186.3933
" />
<path d="M188.2437 186.3933
L187.9580 186.3933
" />
<path d="M187.9580 186.3933
L187.8152 186.3219
" />
<path d="M187.8152 186.3219
L187.7437 186.2505
" />
<path d="M187.7437 186.2505
L187.6723 186.1076
" />
<path d="M187.6723 186.1076
L187.6723 185.6790
" />
<path d="M187.6723 185.6790
L187.7437 185.5362
" />
<path d="M187.7437 185.5362
L187.8152 185.4648
" />
<path d="M187.8152 185.4648
L187.9580 185.3933
" />
<path d="M187.9580 185.3933
L188.2437 185.3933
" />
<path d="M188.2437 185.3933
L188.3866 185.4648
" />
<path d="M189.7437 185.3933
L189.7437 186.3933
" />
<path d="M189.1009 185.3933
L189.1009 186.1790
" />
<path d="M189.1009 186.1790
L189.1723 186.3219
" />
<path d="M189.1723 186.3219
L189.3152 186.3933
" />
<path d="M189.3152 186.3933
L189.5295 186.3933
" />
<path d="M189.5295 186.3933
L189.6723 186.3219
" />
<path d="M189.6723 186.3219
L189.7437 186.2505
" />
<path d="M190.6723 186.3933
L190.5295 186.3219
" />
<path d="M190.5295 186.3219
L190.4580 186.1790
" />
<path d="M190.4580 186.1790
L190.4580 184.8933
" />
<path d="M191.4580 186.3933
L191.3152 186.3219
" />
<path d="M191.3152 186.3219
L191.2437 186.2505
" />
<path d="M191.2437 186.2505
L191.1723 186.1076
" />
<path d="M191.1723 186.1076
L191.1723 185.6790
" />
<path d="M191.1723 185.6790
L191.2437 185.5362
" />
<path d="M191.2437 185.5362
L191.3152 185.4648
" />
<path d="M191.3152 185.4648
L191.4580 185.3933
" />
<path d="M191.4580 185.3933
L191.6723 185.3933
" />
<path d="M191.6723 185.3933
L191.8152 185.4648
" />
<path d="M191.8152 185.4648
L191.8866 185.5362
" />
<path d="M191.8866 185.5362
L191.9580 185.6790
" />
<path d="M191.9580 185.6790
L191.9580 186.1076
" />
<path d="M191.9580 186.1076
L191.8866 186.2505
" />
<path d="M191.8866 186.2505
L191.8152 186.3219
" />
<path d="M191.8152 186.3219
L191.6723 186.3933
" />
<path d="M191.6723 186.3933
L191.4580 186.3933
" />
<path d="M192.2437 186.5362
L193.3866 186.5362
" />
<path d="M193.6723 186.3219
L193.8152 186.3933
" />
<path d="M193.8152 186.3933
L194.1009 186.3933
" />
<path d="M194.1009 186.3933
L194.2437 186.3219
" />
<path d="M194.2437 186.3219
L194.3152 186.1790
" />
<path d="M194.3152 186.1790
L194.3152 186.1076
" />
<path d="M194.3152 186.1076
L194.2437 185.9648
" />
<path d="M194.2437 185.9648
L194.1009 185.8933
" />
<path d="M194.1009 185.8933
L193.8866 185.8933
" />
<path d="M193.8866 185.8933
L193.7437 185.8219
" />
<path d="M193.7437 185.8219
L193.6723 185.6790
" />
<path d="M193.6723 185.6790
L193.6723 185.6076
" />
<path d="M193.6723 185.6076
L193.7437 185.4648
" />
<path d="M193.7437 185.4648
L193.8866 185.3933
" />
<path d="M193.8866 185.3933
L194.1009 185.3933
" />
<path d="M194.1009 185.3933
L194.2437 185.4648
" />
<path d="M195.5295 186.3219
L195.3866 186.3933
" />
<path d="M195.3866 186.3933
L195.1009 186.3933
" />
<path d="M195.1009 186.3933
L194.9580 186.3219
" />
<path d="M194.9580 186.3219
L194.8866 186.1790
" />
<path d="M194.8866 186.1790
L194.8866 185.6076
" />
<path d="M194.8866 185.6076
L194.9580 185.4648
" />
<path d="M194.9580 185.4648
L195.1009 185.3933
" />
<path d="M195.1009 185.3933
L195.3866 185.3933
" />
<path d="M195.3866 185.3933
L195.5295 185.4648
" />
<path d="M195.5295 185.4648
L195.6009 185.6076
" />
<path d="M195.6009 185.6076
L195.6009 185.7505
" />
<path d="M195.6009 185.7505
L194.8866 185.8933
" />
<path d="M196.8866 185.3933
L196.8866 186.6076
" />
<path d="M196.8866 186.6076
L196.8152 186.7505
" />
<path d="M196.8152 186.7505
L196.7437 186.8219
" />
<path d="M196.7437 186.8219
L196.6009 186.8933
" />
<path d="M196.6009 186.8933
L196.3866 186.8933
" />
<path d="M196.3866 186.8933
L196.2437 186.8219
" />
<path d="M196.8866 186.3219
L196.7437 186.3933
" />
<path d="M196.7437 186.3933
L196.4580 186.3933
" />
<path d="M196.4580 186.3933
L196.3152 186.3219
" />
<path d="M196.3152 186.3219
L196.2437 186.2505
" />
<path d="M196.2437 186.2505
L196.1723 186.1076
" />
<path d="M196.1723 186.1076
L196.1723 185.6790
" />
<path d="M196.1723 185.6790
L196.2437 185.5362
" />
<path d="M196.2437 185.5362
L196.3152 185.4648
" />
<path d="M196.3152 185.4648
L196.4580 185.3933
" />
<path d="M196.4580 185.3933
L196.7437 185.3933
" />
<path d="M196.7437 185.3933
L196.8866 185.4648
" />
<path d="M198.2437 185.3933
L198.2437 186.3933
" />
<path d="M197.6009 185.3933
L197.6009 186.1790
" />
<path d="M197.6009 186.1790
L197.6723 186.3219
" />
<path d="M197.6723 186.3219
L197.8152 186.3933
" />
<path d="M197.8152 186.3933
L198.0295 186.3933
" />
<path d="M198.0295 186.3933
L198.1723 186.3219
" />
<path d="M198.1723 186.3219
L198.2437 186.2505
" />
<path d="M198.9580 186.3933
L198.9580 185.3933
" />
<path d="M198.9580 184.8933
L198.8866 184.9648
" />
<path d="M198.8866 184.9648
L198.9580 185.0362
" />
<path d="M198.9580 185.0362
L199.0295 184.9648
" />
<path d="M199.0295 184.9648
L198.9580 184.8933
" />
<path d="M198.9580 184.8933
L198.9580 185.0362
" />
<path d="M200.3152 186.3933
L200.3152 184.8933
" />
<path d="M200.3152 186.3219
L200.1723 186.3933
" />
<path d="M200.1723 186.3933
L199.8866 186.3933
" />
<path d="M199.8866 186.3933
L199.7437 186.3219
" />
<path d="M199.7437 186.3219
L199.6723 186.2505
" />
<path d="M199.6723 186.2505
L199.6009 186.1076
" />
<path d="M199.6009 186.1076
L199.6009 185.6790
" />
<path d="M199.6009 185.6790
L199.6723 185.5362
" />
<path d="M199.6723 185.5362
L199.7437 185.4648
" />
<path d="M199.7437 185.4648
L199.8866 185.3933
" />
<path d="M199.8866 185.3933
L200.1723 185.3933
" />
<path d="M200.1723 185.3933
L200.3152 185.4648
" />
<path d="M201.2437 186.3933
L201.1009 186.3219
" />
<path d="M201.1009 186.3219
L201.0295 186.2505
" />
<path d="M201.0295 186.2505
L200.9580 186.1076
" />
<path d="M200.9580 186.1076
L200.9580 185.6790
" />
<path d="M200.9580 185.6790
L201.0295 185.5362
" />
<path d="M201.0295 185.5362
L201.1009 185.4648
" />
<path d="M201.1009 185.4648
L201.2437 185.3933
" />
<path d="M201.2437 185.3933
L201.4580 185.3933
" />
<path d="M201.4580 185.3933
L201.6009 185.4648
" />
<path d="M201.6009 185.4648
L201.6723 185.5362
" />
<path d="M201.6723 185.5362
L201.7437 185.6790
" />
<path d="M201.7437 185.6790
L201.7437 186.1076
" />
<path d="M201.7437 186.1076
L201.6723 186.2505
" />
<path d="M201.6723 186.2505
L201.6009 186.3219
" />
<path d="M201.6009 186.3219
L201.4580 186.3933
" />
<path d="M201.4580 186.3933
L201.2437 186.3933
" />
<path d="M202.3866 186.3933
L202.3866 185.3933
" />
<path d="M202.3866 185.6790
L202.4580 185.5362
" />
<path d="M202.4580 185.5362
L202.5295 185.4648
" />
<path d="M202.5295 185.4648
L202.6723 185.3933
" />
<path d="M202.6723 185.3933
L202.8152 185.3933
" />
<path d="M203.3152 186.2505
L203.3866 186.3219
" />
<path d="M203.3866 186.3219
L203.3152 186.3933
" />
<path d="M203.3152 186.3933
L203.2437 186.3219
" />
<path d="M203.2437 186.3219
L203.3152 186.2505
" />
<path d="M203.3152 186.2505
L203.3152 186.3933
" />
<path d="M204.0295 186.3933
L204.0295 184.8933
" />
<path d="M204.1723 185.8219
L204.6009 186.3933
" />
<path d="M204.6009 185.3933
L204.0295 185.9648
" />
<path d="M205.2437 186.3933
L205.2437 185.3933
" />
<path d="M205.2437 184.8933
L205.1723 184.9648
" />
<path d="M205.1723 184.9648
L205.2437 185.0362
" />
<path d="M205.2437 185.0362
L205.3152 184.9648
" />
<path d="M205.3152 184.9648
L205.2437 184.8933
" />
<path d="M205.2437 184.8933
L205.2437 185.0362
" />
<path d="M206.6009 186.3219
L206.4580 186.3933
" />
<path d="M206.4580 186.3933
L206.1723 186.3933
" />
<path d="M206.1723 186.3933
L206.0295 186.3219
" />
<path d="M206.0295 186.3219
L205.9580 186.2505
" />
<path d="M205.9580 186.2505
L205.8866 186.1076
" />
<path d="M205.8866 186.1076
L205.8866 185.6790
" />
<path d="M205.8866 185.6790
L205.9580 185.5362
" />
<path d="M205.9580 185.5362
L206.0295 185.4648
" />
<path d="M206.0295 185.4648
L206.1723 185.3933
" />
<path d="M206.1723 185.3933
L206.4580 185.3933
" />
<path d="M206.4580 185.3933
L206.6009 185.4648
" />
<path d="M207.8866 186.3933
L207.8866 185.6076
" />
<path d="M207.8866 185.6076
L207.8152 185.4648
" />
<path d="M207.8152 185.4648
L207.6723 185.3933
" />
<path d="M207.6723 185.3933
L207.3866 185.3933
" />
<path d="M207.3866 185.3933
L207.2437 185.4648
" />
<path d="M207.8866 186.3219
L207.7437 186.3933
" />
<path d="M207.7437 186.3933
L207.3866 186.3933
" />
<path d="M207.3866 186.3933
L207.2437 186.3219
" />
<path d="M207.2437 186.3219
L207.1723 186.1790
" />
<path d="M207.1723 186.1790
L207.1723 186.0362
" />
<path d="M207.1723 186.0362
L207.2437 185.8933
" />
<path d="M207.2437 185.8933
L207.3866 185.8219
" />
<path d="M207.3866 185.8219
L207.7437 185.8219
" />
<path d="M207.7437 185.8219
L207.8866 185.7505
" />
<path d="M209.2437 186.3933
L209.2437 184.8933
" />
<path d="M209.2437 186.3219
L209.1009 186.3933
" />
<path d="M209.1009 186.3933
L208.8152 186.3933
" />
<path d="M208.8152 186.3933
L208.6723 186.3219
" />
<path d="M208.6723 186.3219
L208.6009 186.2505
" />
<path d="M208.6009 186.2505
L208.5295 186.1076
" />
<path d="M208.5295 186.1076
L208.5295 185.6790
" />
<path d="M208.5295 185.6790
L208.6009 185.5362
" />
<path d="M208.6009 185.5362
L208.6723 185.4648
" />
<path d="M208.6723 185.4648
L208.8152 185.3933
" />
<path d="M208.8152 185.3933
L209.1009 185.3933
" />
<path d="M209.1009 185.3933
L209.2437 185.4648
" />
<path d="M209.6009 186.5362
L210.7437 186.5362
" />
<path d="M211.1009 185.3933
L211.1009 186.8933
" />
<path d="M211.1009 185.4648
L211.2437 185.3933
" />
<path d="M211.2437 185.3933
L211.5295 185.3933
" />
<path d="M211.5295 185.3933
L211.6723 185.4648
" />
<path d="M211.6723 185.4648
L211.7437 185.5362
" />
<path d="M211.7437 185.5362
L211.8152 185.6790
" />
<path d="M211.8152 185.6790
L211.8152 186.1076
" />
<path d="M211.8152 186.1076
L211.7437 186.2505
" />
<path d="M211.7437 186.2505
L211.6723 186.3219
" />
<path d="M211.6723 186.3219
L211.5295 186.3933
" />
<path d="M211.5295 186.3933
L211.2437 186.3933
" />
<path d="M211.2437 186.3933
L211.1009 186.3219
" />
<path d="M213.1009 186.3219
L212.9580 186.3933
" />
<path d="M212.9580 186.3933
L212.6723 186.3933
" />
<path d="M212.6723 186.3933
L212.5295 186.3219
" />
<path d="M212.5295 186.3219
L212.4580 186.2505
" />
<path d="M212.4580 186.2505
L212.3866 186.1076
" />
<path d="M212.3866 186.1076
L212.3866 185.6790
" />
<path d="M212.3866 185.6790
L212.4580 185.5362
" />
<path d="M212.4580 185.5362
L212.5295 185.4648
" />
<path d="M212.5295 185.4648
L212.6723 185.3933
" />
<path d="M212.6723 185.3933
L212.9580 185.3933
" />
<path d="M212.9580 185.3933
L213.1009 185.4648
" />
<path d="M213.7437 186.3933
L213.7437 184.8933
" />
<path d="M213.7437 185.4648
L213.8866 185.3933
" />
<path d="M213.8866 185.3933
L214.1723 185.3933
" />
<path d="M214.1723 185.3933
L214.3152 185.4648
" />
<path d="M214.3152 185.4648
L214.3866 185.5362
" />
<path d="M214.3866 185.5362
L214.4580 185.6790
" />
<path d="M214.4580 185.6790
L214.4580 186.1076
" />
<path d="M214.4580 186.1076
L214.3866 186.2505
" />
<path d="M214.3866 186.2505
L214.3152 186.3219
" />
<path d="M214.3152 186.3219
L214.1723 186.3933
" />
<path d="M214.1723 186.3933
L213.8866 186.3933
" />
<path d="M213.8866 186.3933
L213.7437 186.3219
" />
</g></g>
<g style="fill:none; 
stroke:#000000; stroke-width:0.1500; stroke-opacity:1; 
stroke-linecap:round; stroke-linejoin:round;">
<path d="M177.0022 181.5072
L285.0022 181.5072
" />
</g>
<g style="fill:none; 
stroke:#000000; stroke-width:0.1500; stroke-opacity:1; 
stroke-linecap:round; stroke-linejoin:round;">
<text x="178.0022" y="183.7572"
textLength="8.2214" font-size="2.0000" lengthAdjust="spacingAndGlyphs"
text-anchor="start" opacity="0" stroke-opacity="0">Sheet: </text>
<g class="stroked-text"><desc>Sheet: </desc>
<path d="M178.3866 183.6219
L178.6009 183.6933
" />
<path d="M178.6009 183.6933
L178.9580 183.6933
" />
<path d="M178.9580 183.6933
L179.1009 183.6219
" />
<path d="M179.1009 183.6219
L179.1723 183.5505
" />
<path d="M179.1723 183.5505
L179.2437 183.4076
" />
<path d="M179.2437 183.4076
L179.2437 183.2648
" />
<path d="M179.2437 183.2648
L179.1723 183.1219
" />
<path d="M179.1723 183.1219
L179.1009 183.0505
" />
<path d="M179.1009 183.0505
L178.9580 182.9790
" />
<path d="M178.9580 182.9790
L178.6723 182.9076
" />
<path d="M178.6723 182.9076
L178.5295 182.8362
" />
<path d="M178.5295 182.8362
L178.4580 182.7648
" />
<path d="M178.4580 182.7648
L178.3866 182.6219
" />
<path d="M178.3866 182.6219
L178.3866 182.4790
" />
<path d="M178.3866 182.4790
L178.4580 182.3362
" />
<path d="M178.4580 182.3362
L178.5295 182.2648
" />
<path d="M178.5295 182.2648
L178.6723 182.1933
" />
<path d="M178.6723 182.1933
L179.0295 182.1933
" />
<path d="M179.0295 182.1933
L179.2437 182.2648
" />
<path d="M179.8866 183.6933
L179.8866 182.1933
" />
<path d="M180.5295 183.6933
L180.5295 182.9076
" />
<path d="M180.5295 182.9076
L180.4580 182.7648
" />
<path d="M180.4580 182.7648
L180.3152 182.6933
" />
<path d="M180.3152 182.6933
L180.1009 182.6933
" />
<path d="M180.1009 182.6933
L179.9580 182.7648
" />
<path d="M179.9580 182.7648
L179.8866 182.8362
" />
<path d="M181.8152 183.6219
L181.6723 183.6933
" />
<path d="M181.6723 183.6933
L181.3866 183.6933
" />
<path d="M181.3866 183.6933
L181.2437 183.6219
" />
<path d="M181.2437 183.6219
L181.1723 183.4790
" />
<path d="M181.1723 183.4790
L181.1723 182.9076
" />
<path d="M181.1723 182.9076
L181.2437 182.7648
" />
<path d="M181.2437 182.7648
L181.3866 182.6933
" />
<path d="M181.3866 182.6933
L181.6723 182.6933
" />
<path d="M181.6723 182.6933
L181.8152 182.7648
" />
<path d="M181.8152 182.7648
L181.8866 182.9076
" />
<path d="M181.8866 182.9076
L181.8866 183.0505
" />
<path d="M181.8866 183.0505
L181.1723 183.1933
" />
<path d="M183.1009 183.6219
L182.9580 183.6933
" />
<path d="M182.9580 183.6933
L182.6723 183.6933
" />
<path d="M182.6723 183.6933
L182.5295 183.6219
" />
<path d="M182.5295 183.6219
L182.4580 183.4790
" />
<path d="M182.4580 183.4790
L182.4580 182.9076
" />
<path d="M182.4580 182.9076
L182.5295 182.7648
" />
<path d="M182.5295 182.7648
L182.6723 182.6933
" />
<path d="M182.6723 182.6933
L182.9580 182.6933
" />
<path d="M182.9580 182.6933
L183.1009 182.7648
" />
<path d="M183.1009 182.7648
L183.1723 182.9076
" />
<path d="M183.1723 182.9076
L183.1723 183.0505
" />
<path d="M183.1723 183.0505
L182.4580 183.1933
" />
<path d="M183.6009 182.6933
L184.1723 182.6933
" />
<path d="M183.8152 182.1933
L183.8152 183.4790
" />
<path d="M183.8152 183.4790
L183.8866 183.6219
" />
<path d="M183.8866 183.6219
L184.0295 183.6933
" />
<path d="M184.0295 183.6933
L184.1723 183.6933
" />
<path d="M184.6723 183.5505
L184.7437 183.6219
" />
<path d="M184.7437 183.6219
L184.6723 183.6933
" />
<path d="M184.6723 183.6933
L184.6009 183.6219
" />
<path d="M184.6009 183.6219
L184.6723 183.5505
" />
<path d="M184.6723 183.5505
L184.6723 183.6933
" />
<path d="M184.6723 182.7648
L184.7437 182.8362
" />
<path d="M184.7437 182.8362
L184.6723 182.9076
" />
<path d="M184.6723 182.9076
L184.6009 182.8362
" />
<path d="M184.6009 182.8362
L184.6723 182.7648
" />
<path d="M184.6723 182.7648
L184.6723 182.9076
" />
</g></g>
<g style="fill:none; 
stroke:#000000; stroke-width:0.3000; stroke-opacity:1; 
stroke-linecap:round; stroke-linejoin:round;">
<text x="178.0022" y="180.7572"
textLength="0.9000" font-size="2.0000" lengthAdjust="spacingAndGlyphs"
text-anchor="start" opacity="0" stroke-opacity="0"></text>
<g class="stroked-text"><desc></desc>
</g></g>
<g style="fill:none; 
stroke:#000000; stroke-width:0.1500; stroke-opacity:1; 
stroke-linecap:round; stroke-linejoin:round;">
<text x="178.0022" y="177.7572"
textLength="0.4500" font-size="2.0000" lengthAdjust="spacingAndGlyphs"
text-anchor="start" opacity="0" stroke-opacity="0"></text>
<g class="stroked-text"><desc></desc>
</g></g>
<g style="fill:none; 
stroke:#000000; stroke-width:0.1500; stroke-opacity:1; 
stroke-linecap:round; stroke-linejoin:round;">
<text x="178.0022" y="174.7572"
textLength="0.4500" font-size="2.0000" lengthAdjust="spacingAndGlyphs"
text-anchor="start" opacity="0" stroke-opacity="0"></text>
<g class="stroked-text"><desc></desc>
</g></g>
<g style="fill:none; 
stroke:#000000; stroke-width:0.1500; stroke-opacity:1; 
stroke-linecap:round; stroke-linejoin:round;">
<text x="178.0022" y="171.7572"
textLength="0.4500" font-size="2.0000" lengthAdjust="spacingAndGlyphs"
text-anchor="start" opacity="0" stroke-opacity="0"></text>
<g class="stroked-text"><desc></desc>
</g></g>
<g style="fill:none; 
stroke:#000000; stroke-width:0.1500; stroke-opacity:1; 
stroke-linecap:round; stroke-linejoin:round;">
<text x="178.0022" y="168.7572"
textLength="0.4500" font-size="2.0000" lengthAdjust="spacingAndGlyphs"
text-anchor="start" opacity="0" stroke-opacity="0"></text>
<g class="stroked-text"><desc></desc>
</g></g>
<g style="fill:none; 
stroke:#000000; stroke-width:0.1500; stroke-opacity:1; 
stroke-linecap:round; stroke-linejoin:round;">
<path d="M197.0022 191.5072
L197.0022 194.5072
" />
</g>
<g style="fill:none; 
stroke:#000000; stroke-width:0.1500; stroke-opacity:1; 
stroke-linecap:round; stroke-linejoin:round;">
<path d="M261.0022 191.5072
L261.0022 198.0072
" />
<path style="fill:none; 
stroke:#000000; stroke-width:0.2000; stroke-opacity:1; 
stroke-linecap:round; stroke-linejoin:round;fill:none"
d="M 167.6400,88.2360
224.6045,88.2360
224.6045,113.0300
167.6400,113.0300
139.7000,140.7288
74.6045,140.7288
74.6045,60.9696
142.2400,60.9696
Z" /> 
</g>
<g style="fill:none; 
stroke:#000000; stroke-width:0.1500; stroke-opacity:1; 
stroke-linecap:round; stroke-linejoin:round;">
<text x="113.6675" y="92.7679"
transform="scale(-1 1) translate(-227.335022 0)"
textLength="4.8690" font-size="1.3333" lengthAdjust="spacingAndGlyphs"
text-anchor="middle" opacity="0" stroke-opacity="0">100nF</text>
<g class="stroked-text"><desc>100nF</desc>
<path d="M115.2151 92.7227
L115.7866 92.7227
" />
<path d="M115.5008 92.7227
L115.5008 91.7227
" />
<path d="M115.5008 91.7227
L115.5961 91.8656
" />
<path d="M115.5961 91.8656
L115.6913 91.9608
" />
<path d="M115.6913 91.9608
L115.7866 92.0084
" />
<path d="M114.5961 91.7227
L114.5008 91.7227
" />
<path d="M114.5008 91.7227
L114.4056 91.7703
" />
<path d="M114.4056 91.7703
L114.3580 91.8180
" />
<path d="M114.3580 91.8180
L114.3104 91.9132
" />
<path d="M114.3104 91.9132
L114.2627 92.1037
" />
<path d="M114.2627 92.1037
L114.2627 92.3418
" />
<path d="M114.2627 92.3418
L114.3104 92.5323
" />
<path d="M114.3104 92.5323
L114.3580 92.6275
" />
<path d="M114.3580 92.6275
L114.4056 92.6751
" />
<path d="M114.4056 92.6751
L114.5008 92.7227
" />
<path d="M114.5008 92.7227
L114.5961 92.7227
" />
<path d="M114.5961 92.7227
L114.6913 92.6751
" />
<path d="M114.6913 92.6751
L114.7389 92.6275
" />
<path d="M114.7389 92.6275
L114.7866 92.5323
" />
<path d="M114.7866 92.5323
L114.8342 92.3418
" />
<path d="M114.8342 92.3418
L114.8342 92.1037
" />
<path d="M114.8342 92.1037
L114.7866 91.9132
" />
<path d="M114.7866 91.9132
L114.7389 91.8180
" />
<path d="M114.7389 91.8180
L114.6913 91.7703
" />
<path d="M114.6913 91.7703
L114.5961 91.7227
" />
<path d="M113.6437 91.7227
L113.5485 91.7227
" />
<path d="M113.5485 91.7227
L113.4532 91.7703
" />
<path d="M113.4532 91.7703
L113.4056 91.8180
" />
<path d="M113.4056 91.8180
L113.3580 91.9132
" />
<path d="M113.3580 91.9132
L113.3104 92.1037
" />
<path d="M113.3104 92.1037
L113.3104 92.3418
" />
<path d="M113.3104 92.3418
L113.3580 92.5323
" />
<path d="M113.3580 92.5323
L113.4056 92.6275
" />
<path d="M113.4056 92.6275
L113.4532 92.6751
" />
<path d="M113.4532 92.6751
L113.5485 92.7227
" />
<path d="M113.5485 92.7227
L113.6437 92.7227
" />
<path d="M113.6437 92.7227
L113.7389 92.6751
" />
<path d="M113.7389 92.6751
L113.7866 92.6275
" />
<path d="M113.7866 92.6275
L113.8342 92.5323
" />
<path d="M113.8342 92.5323
L113.8818 92.3418
" />
<path d="M113.8818 92.3418
L113.8818 92.1037
" />
<path d="M113.8818 92.1037
L113.8342 91.9132
" />
<path d="M113.8342 91.9132
L113.7866 91.8180
" />
<path d="M113.7866 91.8180
L113.7389 91.7703
" />
<path d="M113.7389 91.7703
L113.6437 91.7227
" />
<path d="M112.8818 92.0561
L112.8818 92.7227
" />
<path d="M112.8818 92.1513
L112.8342 92.1037
" />
<path d="M112.8342 92.1037
L112.7389 92.0561
" />
<path d="M112.7389 92.0561
L112.5961 92.0561
" />
<path d="M112.5961 92.0561
L112.5008 92.1037
" />
<path d="M112.5008 92.1037
L112.4532 92.1989
" />
<path d="M112.4532 92.1989
L112.4532 92.7227
" />
<path d="M111.6437 92.1989
L111.9770 92.1989
" />
<path d="M111.9770 92.7227
L111.9770 91.7227
" />
<path d="M111.9770 91.7227
L111.5008 91.7227
" />
</g></g>
<g style="fill:none; 
stroke:#000000; stroke-width:0.1200; stroke-opacity:1; 
stroke-linecap:round; stroke-linejoin:round;">
<text x="113.6675" y="94.5179"
transform="scale(-1 1) translate(-227.335022 0)"
textLength="1.7619" font-size="1.0667" lengthAdjust="spacingAndGlyphs"
text-anchor="middle" opacity="0" stroke-opacity="0">C4</text>
<g class="stroked-text"><desc>C4</desc>
<path d="M113.8008 94.4056
L113.8389 94.4437
" />
<path d="M113.8389 94.4437
L113.9532 94.4818
" />
<path d="M113.9532 94.4818
L114.0294 94.4818
" />
<path d="M114.0294 94.4818
L114.1437 94.4437
" />
<path d="M114.1437 94.4437
L114.2199 94.3675
" />
<path d="M114.2199 94.3675
L114.2580 94.2913
" />
<path d="M114.2580 94.2913
L114.2961 94.1389
" />
<path d="M114.2961 94.1389
L114.2961 94.0246
" />
<path d="M114.2961 94.0246
L114.2580 93.8722
" />
<path d="M114.2580 93.8722
L114.2199 93.7961
" />
<path d="M114.2199 93.7961
L114.1437 93.7199
" />
<path d="M114.1437 93.7199
L114.0294 93.6818
" />
<path d="M114.0294 93.6818
L113.9532 93.6818
" />
<path d="M113.9532 93.6818
L113.8389 93.7199
" />
<path d="M113.8389 93.7199
L113.8008 93.7580
" />
<path d="M113.1151 93.9484
L113.1151 94.4818
" />
<path d="M113.3056 93.6437
L113.4961 94.2151
" />
<path d="M113.4961 94.2151
L113.0008 94.2151
" />
</g></g>
<g style="fill:none; 
stroke:#000000; stroke-width:0.1500; stroke-opacity:1; 
stroke-linecap:round; stroke-linejoin:round;">
<g transform="rotate(-90.000000 122.6300 110.7700)">
<text x="122.6300" y="111.2700"
transform="scale(-1 1) translate(-245.260000 0)"
textLength="3.1071" font-size="1.3333" lengthAdjust="spacingAndGlyphs"
text-anchor="middle" opacity="0" stroke-opacity="0">330</text>
</g>
<g class="stroked-text"><desc>330</desc>
<path d="M122.0848 109.4843
L122.0848 110.1033
" />
<path d="M122.0848 110.1033
L122.4658 109.7700
" />
<path d="M122.4658 109.7700
L122.4658 109.9129
" />
<path d="M122.4658 109.9129
L122.5134 110.0081
" />
<path d="M122.5134 110.0081
L122.5610 110.0557
" />
<path d="M122.5610 110.0557
L122.6562 110.1033
" />
<path d="M122.6562 110.1033
L122.8943 110.1033
" />
<path d="M122.8943 110.1033
L122.9896 110.0557
" />
<path d="M122.9896 110.0557
L123.0372 110.0081
" />
<path d="M123.0372 110.0081
L123.0848 109.9129
" />
<path d="M123.0848 109.9129
L123.0848 109.6271
" />
<path d="M123.0848 109.6271
L123.0372 109.5319
" />
<path d="M123.0372 109.5319
L122.9896 109.4843
" />
<path d="M122.0848 110.4367
L122.0848 111.0557
" />
<path d="M122.0848 111.0557
L122.4658 110.7224
" />
<path d="M122.4658 110.7224
L122.4658 110.8652
" />
<path d="M122.4658 110.8652
L122.5134 110.9605
" />
<path d="M122.5134 110.9605
L122.5610 111.0081
" />
<path d="M122.5610 111.0081
L122.6562 111.0557
" />
<path d="M122.6562 111.0557
L122.8943 111.0557
" />
<path d="M122.8943 111.0557
L122.9896 111.0081
" />
<path d="M122.9896 111.0081
L123.0372 110.9605
" />
<path d="M123.0372 110.9605
L123.0848 110.8652
" />
<path d="M123.0848 110.8652
L123.0848 110.5795
" />
<path d="M123.0848 110.5795
L123.0372 110.4843
" />
<path d="M123.0372 110.4843
L122.9896 110.4367
" />
<path d="M122.0848 111.6748
L122.0848 111.7700
" />
<path d="M122.0848 111.7700
L122.1324 111.8652
" />
<path d="M122.1324 111.8652
L122.1801 111.9129
" />
<path d="M122.1801 111.9129
L122.2753 111.9605
" />
<path d="M122.2753 111.9605
L122.4658 112.0081
" />
<path d="M122.4658 112.0081
L122.7039 112.0081
" />
<path d="M122.7039 112.0081
L122.8943 111.9605
" />
<path d="M122.8943 111.9605
L122.9896 111.9129
" />
<path d="M122.9896 111.9129
L123.0372 111.8652
" />
<path d="M123.0372 111.8652
L123.0848 111.7700
" />
<path d="M123.0848 111.7700
L123.0848 111.6748
" />
<path d="M123.0848 111.6748
L123.0372 111.5795
" />
<path d="M123.0372 111.5795
L122.9896 111.5319
" />
<path d="M122.9896 111.5319
L122.8943 111.4843
" />
<path d="M122.8943 111.4843
L122.7039 111.4367
" />
<path d="M122.7039 111.4367
L122.4658 111.4367
" />
<path d="M122.4658 111.4367
L122.2753 111.4843
" />
<path d="M122.2753 111.4843
L122.1801 111.5319
" />
<path d="M122.1801 111.5319
L122.1324 111.5795
" />
<path d="M122.1324 111.5795
L122.0848 111.6748
" />
</g></g>
<g style="fill:none; 
stroke:#000000; stroke-width:0.1200; stroke-opacity:1; 
stroke-linecap:round; stroke-linejoin:round;">
<g transform="rotate(-90.000000 124.4600 110.7700)">
<text x="124.4600" y="111.1700"
transform="scale(-1 1) translate(-248.920000 0)"
textLength="1.7619" font-size="1.0667" lengthAdjust="spacingAndGlyphs"
text-anchor="middle" opacity="0" stroke-opacity="0">R2</text>
</g>
<g class="stroked-text"><desc>R2</desc>
<path d="M124.8239 110.6367
L124.4429 110.3700
" />
<path d="M124.8239 110.1795
L124.0239 110.1795
" />
<path d="M124.0239 110.1795
L124.0239 110.4843
" />
<path d="M124.0239 110.4843
L124.0619 110.5605
" />
<path d="M124.0619 110.5605
L124.1000 110.5986
" />
<path d="M124.1000 110.5986
L124.1762 110.6367
" />
<path d="M124.1762 110.6367
L124.2905 110.6367
" />
<path d="M124.2905 110.6367
L124.3667 110.5986
" />
<path d="M124.3667 110.5986
L124.4048 110.5605
" />
<path d="M124.4048 110.5605
L124.4429 110.4843
" />
<path d="M124.4429 110.4843
L124.4429 110.1795
" />
<path d="M124.1000 110.9414
L124.0619 110.9795
" />
<path d="M124.0619 110.9795
L124.0239 111.0557
" />
<path d="M124.0239 111.0557
L124.0239 111.2462
" />
<path d="M124.0239 111.2462
L124.0619 111.3224
" />
<path d="M124.0619 111.3224
L124.1000 111.3605
" />
<path d="M124.1000 111.3605
L124.1762 111.3986
" />
<path d="M124.1762 111.3986
L124.2524 111.3986
" />
<path d="M124.2524 111.3986
L124.3667 111.3605
" />
<path d="M124.3667 111.3605
L124.8239 110.9033
" />
<path d="M124.8239 110.9033
L124.8239 111.3986
" />
</g></g>
<g style="fill:none; 
stroke:#000000; stroke-width:0.1500; stroke-opacity:1; 
stroke-linecap:round; stroke-linejoin:round;">
<text x="84.2839" y="106.3460"
transform="scale(-1 1) translate(-168.567882 0)"
textLength="4.8690" font-size="1.3333" lengthAdjust="spacingAndGlyphs"
text-anchor="middle" opacity="0" stroke-opacity="0">100nF</text>
<g class="stroked-text"><desc>100nF</desc>
<path d="M85.8316 106.3008
L86.4030 106.3008
" />
<path d="M86.1173 106.3008
L86.1173 105.3008
" />
<path d="M86.1173 105.3008
L86.2125 105.4437
" />
<path d="M86.2125 105.4437
L86.3077 105.5389
" />
<path d="M86.3077 105.5389
L86.4030 105.5865
" />
<path d="M85.2125 105.3008
L85.1173 105.3008
" />
<path d="M85.1173 105.3008
L85.0220 105.3484
" />
<path d="M85.0220 105.3484
L84.9744 105.3961
" />
<path d="M84.9744 105.3961
L84.9268 105.4913
" />
<path d="M84.9268 105.4913
L84.8792 105.6818
" />
<path d="M84.8792 105.6818
L84.8792 105.9199
" />
<path d="M84.8792 105.9199
L84.9268 106.1103
" />
<path d="M84.9268 106.1103
L84.9744 106.2056
" />
<path d="M84.9744 106.2056
L85.0220 106.2532
" />
<path d="M85.0220 106.2532
L85.1173 106.3008
" />
<path d="M85.1173 106.3008
L85.2125 106.3008
" />
<path d="M85.2125 106.3008
L85.3077 106.2532
" />
<path d="M85.3077 106.2532
L85.3554 106.2056
" />
<path d="M85.3554 106.2056
L85.4030 106.1103
" />
<path d="M85.4030 106.1103
L85.4506 105.9199
" />
<path d="M85.4506 105.9199
L85.4506 105.6818
" />
<path d="M85.4506 105.6818
L85.4030 105.4913
" />
<path d="M85.4030 105.4913
L85.3554 105.3961
" />
<path d="M85.3554 105.3961
L85.3077 105.3484
" />
<path d="M85.3077 105.3484
L85.2125 105.3008
" />
<path d="M84.2601 105.3008
L84.1649 105.3008
" />
<path d="M84.1649 105.3008
L84.0697 105.3484
" />
<path d="M84.0697 105.3484
L84.0220 105.3961
" />
<path d="M84.0220 105.3961
L83.9744 105.4913
" />
<path d="M83.9744 105.4913
L83.9268 105.6818
" />
<path d="M83.9268 105.6818
L83.9268 105.9199
" />
<path d="M83.9268 105.9199
L83.9744 106.1103
" />
<path d="M83.9744 106.1103
L84.0220 106.2056
" />
<path d="M84.0220 106.2056
L84.0697 106.2532
" />
<path d="M84.0697 106.2532
L84.1649 106.3008
" />
<path d="M84.1649 106.3008
L84.2601 106.3008
" />
<path d="M84.2601 106.3008
L84.3554 106.2532
" />
<path d="M84.3554 106.2532
L84.4030 106.2056
" />
<path d="M84.4030 106.2056
L84.4506 106.1103
" />
<path d="M84.4506 106.1103
L84.4982 105.9199
" />
<path d="M84.4982 105.9199
L84.4982 105.6818
" />
<path d="M84.4982 105.6818
L84.4506 105.4913
" />
<path d="M84.4506 105.4913
L84.4030 105.3961
" />
<path d="M84.4030 105.3961
L84.3554 105.3484
" />
<path d="M84.3554 105.3484
L84.2601 105.3008
" />
<path d="M83.4982 105.6342
L83.4982 106.3008
" />
<path d="M83.4982 105.7294
L83.4506 105.6818
" />
<path d="M83.4506 105.6818
L83.3554 105.6342
" />
<path d="M83.3554 105.6342
L83.2125 105.6342
" />
<path d="M83.2125 105.6342
L83.1173 105.6818
" />
<path d="M83.1173 105.6818
L83.0697 105.7770
" />
<path d="M83.0697 105.7770
L83.0697 106.3008
" />
<path d="M82.2601 105.7770
L82.5935 105.7770
" />
<path d="M82.5935 106.3008
L82.5935 105.3008
" />
<path d="M82.5935 105.3008
L82.1173 105.3008
" />
</g></g>
<g style="fill:none; 
stroke:#000000; stroke-width:0.1200; stroke-opacity:1; 
stroke-linecap:round; stroke-linejoin:round;">
<text x="84.2839" y="108.0960"
transform="scale(-1 1) translate(-168.567882 0)"
textLength="1.7619" font-size="1.0667" lengthAdjust="spacingAndGlyphs"
text-anchor="middle" opacity="0" stroke-opacity="0">C3</text>
<g class="stroked-text"><desc>C3</desc>
<path d="M84.4173 107.9837
L84.4554 108.0218
" />
<path d="M84.4554 108.0218
L84.5697 108.0599
" />
<path d="M84.5697 108.0599
L84.6458 108.0599
" />
<path d="M84.6458 108.0599
L84.7601 108.0218
" />
<path d="M84.7601 108.0218
L84.8363 107.9456
" />
<path d="M84.8363 107.9456
L84.8744 107.8694
" />
<path d="M84.8744 107.8694
L84.9125 107.7170
" />
<path d="M84.9125 107.7170
L84.9125 107.6027
" />
<path d="M84.9125 107.6027
L84.8744 107.4503
" />
<path d="M84.8744 107.4503
L84.8363 107.3741
" />
<path d="M84.8363 107.3741
L84.7601 107.2980
" />
<path d="M84.7601 107.2980
L84.6458 107.2599
" />
<path d="M84.6458 107.2599
L84.5697 107.2599
" />
<path d="M84.5697 107.2599
L84.4554 107.2980
" />
<path d="M84.4554 107.2980
L84.4173 107.3360
" />
<path d="M84.1506 107.2599
L83.6554 107.2599
" />
<path d="M83.6554 107.2599
L83.9220 107.5646
" />
<path d="M83.9220 107.5646
L83.8077 107.5646
" />
<path d="M83.8077 107.5646
L83.7316 107.6027
" />
<path d="M83.7316 107.6027
L83.6935 107.6408
" />
<path d="M83.6935 107.6408
L83.6554 107.7170
" />
<path d="M83.6554 107.7170
L83.6554 107.9075
" />
<path d="M83.6554 107.9075
L83.6935 107.9837
" />
<path d="M83.6935 107.9837
L83.7316 108.0218
" />
<path d="M83.7316 108.0218
L83.8077 108.0599
" />
<path d="M83.8077 108.0599
L84.0363 108.0599
" />
<path d="M84.0363 108.0599
L84.1125 108.0218
" />
<path d="M84.1125 108.0218
L84.1506 107.9837
" />
</g></g>
<g style="fill:none; 
stroke:#000000; stroke-width:0.1500; stroke-opacity:1; 
stroke-linecap:round; stroke-linejoin:round;">
<text x="132.7936" y="121.7100"
transform="scale(-1 1) translate(-265.587134 0)"
textLength="2.0119" font-size="1.3333" lengthAdjust="spacingAndGlyphs"
text-anchor="middle" opacity="0" stroke-opacity="0">1k</text>
<g class="stroked-text"><desc>1k</desc>
<path d="M132.9126 121.6648
L133.4840 121.6648
" />
<path d="M133.1983 121.6648
L133.1983 120.6648
" />
<path d="M133.1983 120.6648
L133.2936 120.8077
" />
<path d="M133.2936 120.8077
L133.3888 120.9029
" />
<path d="M133.3888 120.9029
L133.4840 120.9505
" />
<path d="M132.4840 121.6648
L132.4840 120.6648
" />
<path d="M132.3888 121.2839
L132.1031 121.6648
" />
<path d="M132.1031 120.9982
L132.4840 121.3791
" />
</g></g>
<g style="fill:none; 
stroke:#000000; stroke-width:0.1200; stroke-opacity:1; 
stroke-linecap:round; stroke-linejoin:round;">
<text x="132.7936" y="119.7800"
transform="scale(-1 1) translate(-265.587134 0)"
textLength="1.7619" font-size="1.0667" lengthAdjust="spacingAndGlyphs"
text-anchor="middle" opacity="0" stroke-opacity="0">R1</text>
<g class="stroked-text"><desc>R1</desc>
<path d="M132.9269 119.7439
L133.1936 119.3629
" />
<path d="M133.3840 119.7439
L133.3840 118.9439
" />
<path d="M133.3840 118.9439
L133.0793 118.9439
" />
<path d="M133.0793 118.9439
L133.0031 118.9819
" />
<path d="M133.0031 118.9819
L132.9650 119.0200
" />
<path d="M132.9650 119.0200
L132.9269 119.0962
" />
<path d="M132.9269 119.0962
L132.9269 119.2105
" />
<path d="M132.9269 119.2105
L132.9650 119.2867
" />
<path d="M132.9650 119.2867
L133.0031 119.3248
" />
<path d="M133.0031 119.3248
L133.0793 119.3629
" />
<path d="M133.0793 119.3629
L133.3840 119.3629
" />
<path d="M132.1650 119.7439
L132.6221 119.7439
" />
<path d="M132.3936 119.7439
L132.3936 118.9439
" />
<path d="M132.3936 118.9439
L132.4698 119.0581
" />
<path d="M132.4698 119.0581
L132.5459 119.1343
" />
<path d="M132.5459 119.1343
L132.6221 119.1724
" />
</g></g>
<g style="fill:none; 
stroke:#000000; stroke-width:0.1500; stroke-opacity:1; 
stroke-linecap:round; stroke-linejoin:round;">
<g transform="rotate(-90.000000 78.6029 116.3160)">
<text x="78.6029" y="116.8160"
transform="scale(-1 1) translate(-157.205764 0)"
textLength="4.0119" font-size="1.3333" lengthAdjust="spacingAndGlyphs"
text-anchor="middle" opacity="0" stroke-opacity="0">R_US</text>
</g>
<g class="stroked-text"><desc>R_US</desc>
<path d="M79.0577 115.2446
L78.5815 114.9112
" />
<path d="M79.0577 114.6731
L78.0577 114.6731
" />
<path d="M78.0577 114.6731
L78.0577 115.0541
" />
<path d="M78.0577 115.0541
L78.1053 115.1493
" />
<path d="M78.1053 115.1493
L78.1529 115.1970
" />
<path d="M78.1529 115.1970
L78.2482 115.2446
" />
<path d="M78.2482 115.2446
L78.3910 115.2446
" />
<path d="M78.3910 115.2446
L78.4863 115.1970
" />
<path d="M78.4863 115.1970
L78.5339 115.1493
" />
<path d="M78.5339 115.1493
L78.5815 115.0541
" />
<path d="M78.5815 115.0541
L78.5815 114.6731
" />
<path d="M79.1529 115.4350
L79.1529 116.1970
" />
<path d="M78.0577 116.4350
L78.8672 116.4350
" />
<path d="M78.8672 116.4350
L78.9625 116.4827
" />
<path d="M78.9625 116.4827
L79.0101 116.5303
" />
<path d="M79.0101 116.5303
L79.0577 116.6255
" />
<path d="M79.0577 116.6255
L79.0577 116.8160
" />
<path d="M79.0577 116.8160
L79.0101 116.9112
" />
<path d="M79.0101 116.9112
L78.9625 116.9589
" />
<path d="M78.9625 116.9589
L78.8672 117.0065
" />
<path d="M78.8672 117.0065
L78.0577 117.0065
" />
<path d="M79.0101 117.4350
L79.0577 117.5779
" />
<path d="M79.0577 117.5779
L79.0577 117.8160
" />
<path d="M79.0577 117.8160
L79.0101 117.9112
" />
<path d="M79.0101 117.9112
L78.9625 117.9589
" />
<path d="M78.9625 117.9589
L78.8672 118.0065
" />
<path d="M78.8672 118.0065
L78.7720 118.0065
" />
<path d="M78.7720 118.0065
L78.6767 117.9589
" />
<path d="M78.6767 117.9589
L78.6291 117.9112
" />
<path d="M78.6291 117.9112
L78.5815 117.8160
" />
<path d="M78.5815 117.8160
L78.5339 117.6255
" />
<path d="M78.5339 117.6255
L78.4863 117.5303
" />
<path d="M78.4863 117.5303
L78.4387 117.4827
" />
<path d="M78.4387 117.4827
L78.3434 117.4350
" />
<path d="M78.3434 117.4350
L78.2482 117.4350
" />
<path d="M78.2482 117.4350
L78.1529 117.4827
" />
<path d="M78.1529 117.4827
L78.1053 117.5303
" />
<path d="M78.1053 117.5303
L78.0577 117.6255
" />
<path d="M78.0577 117.6255
L78.0577 117.8636
" />
<path d="M78.0577 117.8636
L78.1053 118.0065
" />
</g></g>
<g style="fill:none; 
stroke:#000000; stroke-width:0.0800; stroke-opacity:1; 
stroke-linecap:round; stroke-linejoin:round;">
<g transform="rotate(-90.000000 80.2529 116.3160)">
<text x="80.2529" y="116.5660"
transform="scale(-1 1) translate(-160.505764 0)"
textLength="1.1162" font-size="0.6667" lengthAdjust="spacingAndGlyphs"
text-anchor="middle" opacity="0" stroke-opacity="0">R4</text>
</g>
<g class="stroked-text"><desc>R4</desc>
<path d="M80.4800 116.2327
L80.2419 116.0660
" />
<path d="M80.4800 115.9470
L79.9800 115.9470
" />
<path d="M79.9800 115.9470
L79.9800 116.1374
" />
<path d="M79.9800 116.1374
L80.0038 116.1850
" />
<path d="M80.0038 116.1850
L80.0276 116.2089
" />
<path d="M80.0276 116.2089
L80.0753 116.2327
" />
<path d="M80.0753 116.2327
L80.1467 116.2327
" />
<path d="M80.1467 116.2327
L80.1943 116.2089
" />
<path d="M80.1943 116.2089
L80.2181 116.1850
" />
<path d="M80.2181 116.1850
L80.2419 116.1374
" />
<path d="M80.2419 116.1374
L80.2419 115.9470
" />
<path d="M80.1467 116.6612
L80.4800 116.6612
" />
<path d="M79.9562 116.5422
L80.3134 116.4231
" />
<path d="M80.3134 116.4231
L80.3134 116.7327
" />
</g></g>
<g style="fill:none; 
stroke:#000000; stroke-width:0.1500; stroke-opacity:1; 
stroke-linecap:round; stroke-linejoin:round;">
<g transform="rotate(-90.000000 100.9100 67.6025)">
<text x="100.9100" y="68.1025"
transform="scale(-1 1) translate(-201.820000 0)"
textLength="2.1071" font-size="1.3333" lengthAdjust="spacingAndGlyphs"
text-anchor="middle" opacity="0" stroke-opacity="0">1u</text>
</g>
<g class="stroked-text"><desc>1u</desc>
<path d="M101.3648 67.4358
L101.3648 66.8644
" />
<path d="M101.3648 67.1501
L100.3648 67.1501
" />
<path d="M100.3648 67.1501
L100.5077 67.0549
" />
<path d="M100.5077 67.0549
L100.6029 66.9596
" />
<path d="M100.6029 66.9596
L100.6505 66.8644
" />
<path d="M100.6982 68.2930
L101.3648 68.2930
" />
<path d="M100.6982 67.8644
L101.2220 67.8644
" />
<path d="M101.2220 67.8644
L101.3172 67.9120
" />
<path d="M101.3172 67.9120
L101.3648 68.0073
" />
<path d="M101.3648 68.0073
L101.3648 68.1501
" />
<path d="M101.3648 68.1501
L101.3172 68.2454
" />
<path d="M101.3172 68.2454
L101.2696 68.2930
" />
</g></g>
<g style="fill:none; 
stroke:#000000; stroke-width:0.1200; stroke-opacity:1; 
stroke-linecap:round; stroke-linejoin:round;">
<g transform="rotate(-90.000000 99.0600 67.6025)">
<text x="99.0600" y="68.0025"
transform="scale(-1 1) translate(-198.120000 0)"
textLength="1.7619" font-size="1.0667" lengthAdjust="spacingAndGlyphs"
text-anchor="middle" opacity="0" stroke-opacity="0">C1</text>
</g>
<g class="stroked-text"><desc>C1</desc>
<path d="M99.3477 67.4692
L99.3858 67.4311
" />
<path d="M99.3858 67.4311
L99.4239 67.3168
" />
<path d="M99.4239 67.3168
L99.4239 67.2406
" />
<path d="M99.4239 67.2406
L99.3858 67.1263
" />
<path d="M99.3858 67.1263
L99.3096 67.0501
" />
<path d="M99.3096 67.0501
L99.2334 67.0120
" />
<path d="M99.2334 67.0120
L99.0810 66.9739
" />
<path d="M99.0810 66.9739
L98.9667 66.9739
" />
<path d="M98.9667 66.9739
L98.8143 67.0120
" />
<path d="M98.8143 67.0120
L98.7381 67.0501
" />
<path d="M98.7381 67.0501
L98.6619 67.1263
" />
<path d="M98.6619 67.1263
L98.6239 67.2406
" />
<path d="M98.6239 67.2406
L98.6239 67.3168
" />
<path d="M98.6239 67.3168
L98.6619 67.4311
" />
<path d="M98.6619 67.4311
L98.7000 67.4692
" />
<path d="M99.4239 68.2311
L99.4239 67.7739
" />
<path d="M99.4239 68.0025
L98.6239 68.0025
" />
<path d="M98.6239 68.0025
L98.7381 67.9263
" />
<path d="M98.7381 67.9263
L98.8143 67.8501
" />
<path d="M98.8143 67.8501
L98.8524 67.7739
" />
</g></g>
<g style="fill:none; 
stroke:#000000; stroke-width:0.1500; stroke-opacity:1; 
stroke-linecap:round; stroke-linejoin:round;">
<text x="108.2807" y="92.7390"
transform="scale(-1 1) translate(-216.561448 0)"
textLength="2.1071" font-size="1.3333" lengthAdjust="spacingAndGlyphs"
text-anchor="middle" opacity="0" stroke-opacity="0">1u</text>
<g class="stroked-text"><desc>1u</desc>
<path d="M108.4474 92.6938
L109.0188 92.6938
" />
<path d="M108.7331 92.6938
L108.7331 91.6938
" />
<path d="M108.7331 91.6938
L108.8283 91.8367
" />
<path d="M108.8283 91.8367
L108.9236 91.9319
" />
<path d="M108.9236 91.9319
L109.0188 91.9796
" />
<path d="M107.5902 92.0272
L107.5902 92.6938
" />
<path d="M108.0188 92.0272
L108.0188 92.5510
" />
<path d="M108.0188 92.5510
L107.9712 92.6462
" />
<path d="M107.9712 92.6462
L107.8760 92.6938
" />
<path d="M107.8760 92.6938
L107.7331 92.6938
" />
<path d="M107.7331 92.6938
L107.6379 92.6462
" />
<path d="M107.6379 92.6462
L107.5902 92.5986
" />
</g></g>
<g style="fill:none; 
stroke:#000000; stroke-width:0.1200; stroke-opacity:1; 
stroke-linecap:round; stroke-linejoin:round;">
<text x="108.2807" y="94.4890"
transform="scale(-1 1) translate(-216.561448 0)"
textLength="1.7619" font-size="1.0667" lengthAdjust="spacingAndGlyphs"
text-anchor="middle" opacity="0" stroke-opacity="0">C2</text>
<g class="stroked-text"><desc>C2</desc>
<path d="M108.4141 94.3767
L108.4522 94.4148
" />
<path d="M108.4522 94.4148
L108.5664 94.4529
" />
<path d="M108.5664 94.4529
L108.6426 94.4529
" />
<path d="M108.6426 94.4529
L108.7569 94.4148
" />
<path d="M108.7569 94.4148
L108.8331 94.3386
" />
<path d="M108.8331 94.3386
L108.8712 94.2624
" />
<path d="M108.8712 94.2624
L108.9093 94.1100
" />
<path d="M108.9093 94.1100
L108.9093 93.9957
" />
<path d="M108.9093 93.9957
L108.8712 93.8434
" />
<path d="M108.8712 93.8434
L108.8331 93.7672
" />
<path d="M108.8331 93.7672
L108.7569 93.6910
" />
<path d="M108.7569 93.6910
L108.6426 93.6529
" />
<path d="M108.6426 93.6529
L108.5664 93.6529
" />
<path d="M108.5664 93.6529
L108.4522 93.6910
" />
<path d="M108.4522 93.6910
L108.4141 93.7291
" />
<path d="M108.1093 93.7291
L108.0712 93.6910
" />
<path d="M108.0712 93.6910
L107.9950 93.6529
" />
<path d="M107.9950 93.6529
L107.8045 93.6529
" />
<path d="M107.8045 93.6529
L107.7283 93.6910
" />
<path d="M107.7283 93.6910
L107.6902 93.7291
" />
<path d="M107.6902 93.7291
L107.6522 93.8053
" />
<path d="M107.6522 93.8053
L107.6522 93.8815
" />
<path d="M107.6522 93.8815
L107.6902 93.9957
" />
<path d="M107.6902 93.9957
L108.1474 94.4529
" />
<path d="M108.1474 94.4529
L107.6522 94.4529
" />
</g></g>
<g style="fill:none; 
stroke:#000000; stroke-width:0.1500; stroke-opacity:1; 
stroke-linecap:round; stroke-linejoin:round;">
<text x="77.7129" y="89.5260"
transform="scale(-1 1) translate(-155.425764 0)"
textLength="4.0119" font-size="1.3333" lengthAdjust="spacingAndGlyphs"
text-anchor="middle" opacity="0" stroke-opacity="0">R_US</text>
<g class="stroked-text"><desc>R_US</desc>
<path d="M78.7843 89.4808
L79.1176 89.0046
" />
<path d="M79.3557 89.4808
L79.3557 88.4808
" />
<path d="M79.3557 88.4808
L78.9748 88.4808
" />
<path d="M78.9748 88.4808
L78.8795 88.5284
" />
<path d="M78.8795 88.5284
L78.8319 88.5761
" />
<path d="M78.8319 88.5761
L78.7843 88.6713
" />
<path d="M78.7843 88.6713
L78.7843 88.8142
" />
<path d="M78.7843 88.8142
L78.8319 88.9094
" />
<path d="M78.8319 88.9094
L78.8795 88.9570
" />
<path d="M78.8795 88.9570
L78.9748 89.0046
" />
<path d="M78.9748 89.0046
L79.3557 89.0046
" />
<path d="M78.5938 89.5761
L77.8319 89.5761
" />
<path d="M77.5938 88.4808
L77.5938 89.2903
" />
<path d="M77.5938 89.2903
L77.5462 89.3856
" />
<path d="M77.5462 89.3856
L77.4986 89.4332
" />
<path d="M77.4986 89.4332
L77.4034 89.4808
" />
<path d="M77.4034 89.4808
L77.2129 89.4808
" />
<path d="M77.2129 89.4808
L77.1176 89.4332
" />
<path d="M77.1176 89.4332
L77.0700 89.3856
" />
<path d="M77.0700 89.3856
L77.0224 89.2903
" />
<path d="M77.0224 89.2903
L77.0224 88.4808
" />
<path d="M76.5938 89.4332
L76.4510 89.4808
" />
<path d="M76.4510 89.4808
L76.2129 89.4808
" />
<path d="M76.2129 89.4808
L76.1176 89.4332
" />
<path d="M76.1176 89.4332
L76.0700 89.3856
" />
<path d="M76.0700 89.3856
L76.0224 89.2903
" />
<path d="M76.0224 89.2903
L76.0224 89.1951
" />
<path d="M76.0224 89.1951
L76.0700 89.0999
" />
<path d="M76.0700 89.0999
L76.1176 89.0522
" />
<path d="M76.1176 89.0522
L76.2129 89.0046
" />
<path d="M76.2129 89.0046
L76.4034 88.9570
" />
<path d="M76.4034 88.9570
L76.4986 88.9094
" />
<path d="M76.4986 88.9094
L76.5462 88.8618
" />
<path d="M76.5462 88.8618
L76.5938 88.7665
" />
<path d="M76.5938 88.7665
L76.5938 88.6713
" />
<path d="M76.5938 88.6713
L76.5462 88.5761
" />
<path d="M76.5462 88.5761
L76.4986 88.5284
" />
<path d="M76.4986 88.5284
L76.4034 88.4808
" />
<path d="M76.4034 88.4808
L76.1653 88.4808
" />
<path d="M76.1653 88.4808
L76.0224 88.5284
" />
</g></g>
<g style="fill:none; 
stroke:#000000; stroke-width:0.0800; stroke-opacity:1; 
stroke-linecap:round; stroke-linejoin:round;">
<text x="77.7129" y="87.6260"
transform="scale(-1 1) translate(-155.425764 0)"
textLength="1.1162" font-size="0.6667" lengthAdjust="spacingAndGlyphs"
text-anchor="middle" opacity="0" stroke-opacity="0">R3</text>
<g class="stroked-text"><desc>R3</desc>
<path d="M77.7962 87.6031
L77.9629 87.3651
" />
<path d="M78.0819 87.6031
L78.0819 87.1031
" />
<path d="M78.0819 87.1031
L77.8915 87.1031
" />
<path d="M77.8915 87.1031
L77.8438 87.1270
" />
<path d="M77.8438 87.1270
L77.8200 87.1508
" />
<path d="M77.8200 87.1508
L77.7962 87.1984
" />
<path d="M77.7962 87.1984
L77.7962 87.2698
" />
<path d="M77.7962 87.2698
L77.8200 87.3174
" />
<path d="M77.8200 87.3174
L77.8438 87.3412
" />
<path d="M77.8438 87.3412
L77.8915 87.3651
" />
<path d="M77.8915 87.3651
L78.0819 87.3651
" />
<path d="M77.6295 87.1031
L77.3200 87.1031
" />
<path d="M77.3200 87.1031
L77.4867 87.2936
" />
<path d="M77.4867 87.2936
L77.4153 87.2936
" />
<path d="M77.4153 87.2936
L77.3676 87.3174
" />
<path d="M77.3676 87.3174
L77.3438 87.3412
" />
<path d="M77.3438 87.3412
L77.3200 87.3889
" />
<path d="M77.3200 87.3889
L77.3200 87.5079
" />
<path d="M77.3200 87.5079
L77.3438 87.5555
" />
<path d="M77.3438 87.5555
L77.3676 87.5793
" />
<path d="M77.3676 87.5793
L77.4153 87.6031
" />
<path d="M77.4153 87.6031
L77.5581 87.6031
" />
<path d="M77.5581 87.6031
L77.6057 87.5793
" />
<path d="M77.6057 87.5793
L77.6295 87.5555
" />
</g></g>
<g style="fill:none; 
stroke:#000000; stroke-width:0.1000; stroke-opacity:1; 
stroke-linecap:round; stroke-linejoin:round;">
<path d="M112.0675 93.3179
L112.0675 94.9179
" />
<path d="M112.0675 94.9179
L115.2675 94.9179
" />
<path d="M115.2675 93.3179
L112.0675 93.3179
" />
<path d="M115.2675 94.9179
L115.2675 93.3179
" />
<path d="M123.6600 109.1700
L123.6600 112.3700
" />
<path d="M123.6600 112.3700
L125.2600 112.3700
" />
<path d="M125.2600 109.1700
L123.6600 109.1700
" />
<path d="M125.2600 112.3700
L125.2600 109.1700
" />
<path d="M82.6839 106.8960
L82.6839 108.4960
" />
<path d="M82.6839 108.4960
L85.8839 108.4960
" />
<path d="M85.8839 106.8960
L82.6839 106.8960
" />
<path d="M85.8839 108.4960
L85.8839 106.8960
" />
<path d="M131.1936 118.5800
L131.1936 120.1800
" />
<path d="M131.1936 120.1800
L134.3936 120.1800
" />
<path d="M134.3936 118.5800
L131.1936 118.5800
" />
<path d="M134.3936 120.1800
L134.3936 118.5800
" />
<path d="M79.6279 115.3160
L79.6279 117.3160
" />
<path d="M79.6279 117.3160
L80.8779 117.3160
" />
<path d="M80.8779 115.3160
L79.6279 115.3160
" />
<path d="M80.8779 117.3160
L80.8779 115.3160
" />
<path d="M98.2600 66.0025
L98.2600 69.2025
" />
<path d="M98.2600 69.2025
L99.8600 69.2025
" />
<path d="M99.8600 66.0025
L98.2600 66.0025
" />
<path d="M99.8600 69.2025
L99.8600 66.0025
" />
<path d="M106.6807 93.2890
L106.6807 94.8890
" />
<path d="M106.6807 94.8890
L109.8807 94.8890
" />
<path d="M109.8807 93.2890
L106.6807 93.2890
" />
<path d="M109.8807 94.8890
L109.8807 93.2890
" />
<path d="M76.7129 86.7510
L76.7129 88.0010
" />
<path d="M76.7129 88.0010
L78.7129 88.0010
" />
<path d="M78.7129 86.7510
L76.7129 86.7510
" />
<path d="M78.7129 88.0010
L78.7129 86.7510
" />
</g> 
</svg>
