<?xml version="1.0" standalone="no"?>
 <!DOCTYPE svg PUBLIC "-//W3C//DTD SVG 1.1//EN" 
 "http://www.w3.org/Graphics/SVG/1.1/DTD/svg11.dtd"> 
<svg
  xmlns:svg="http://www.w3.org/2000/svg"
  xmlns="http://www.w3.org/2000/svg"
  xmlns:xlink="http://www.w3.org/1999/xlink"
  version="1.1"
  width="210.0072mm" height="148.0058mm" viewBox="0.0000 0.0000 210.0072 148.0058">
<title>SVG Image created as modulo_seguidor-F_Silkscreen.svg date 2025/09/09 17:11:39 </title>
  <desc>Image generated by PCBNEW </desc>
<g style="fill:#000000; fill-opacity:1.0000;stroke:#000000; stroke-opacity:1.0000;
stroke-linecap:round; stroke-linejoin:round;"
 transform="translate(0 0) scale(1 1)">
</g>
<g style="fill:none; 
stroke:#000000; stroke-width:0.1500; stroke-opacity:1; 
stroke-linecap:round; stroke-linejoin:round;">
<path d="M90.0072 104.0058
L198.0072 104.0058
L198.0072 136.0058
L90.0072 136.0058
L90.0072 104.0058
" />
</g>
<g style="fill:none; 
stroke:#000000; stroke-width:0.1500; stroke-opacity:1; 
stroke-linecap:round; stroke-linejoin:round;">
<path d="M10.0000 10.0000
L200.0072 10.0000
L200.0072 138.0058
L10.0000 138.0058
L10.0000 10.0000
" />
</g>
<g style="fill:none; 
stroke:#000000; stroke-width:0.1500; stroke-opacity:1; 
stroke-linecap:round; stroke-linejoin:round;">
<path d="M12.0000 12.0000
L198.0072 12.0000
L198.0072 136.0058
L12.0000 136.0058
L12.0000 12.0000
" />
</g>
<g style="fill:none; 
stroke:#000000; stroke-width:0.1500; stroke-opacity:1; 
stroke-linecap:round; stroke-linejoin:round;">
<path d="M60.0000 12.0000
L60.0000 10.0000
" />
</g>
<g style="fill:none; 
stroke:#000000; stroke-width:0.1500; stroke-opacity:1; 
stroke-linecap:round; stroke-linejoin:round;">
<path d="M110.0000 12.0000
L110.0000 10.0000
" />
</g>
<g style="fill:none; 
stroke:#000000; stroke-width:0.1500; stroke-opacity:1; 
stroke-linecap:round; stroke-linejoin:round;">
<path d="M160.0000 12.0000
L160.0000 10.0000
" />
</g>
<g style="fill:none; 
stroke:#000000; stroke-width:0.1500; stroke-opacity:1; 
stroke-linecap:round; stroke-linejoin:round;">
<text x="35.0000" y="11.6500"
textLength="1.4281" font-size="1.7333" lengthAdjust="spacingAndGlyphs"
text-anchor="start" opacity="0" stroke-opacity="0">1</text>
<g class="stroked-text"><desc>1</desc>
<path d="M36.0892 11.5936
L35.3463 11.5936
" />
<path d="M35.7177 11.5936
L35.7177 10.2936
" />
<path d="M35.7177 10.2936
L35.5939 10.4793
" />
<path d="M35.5939 10.4793
L35.4701 10.6031
" />
<path d="M35.4701 10.6031
L35.3463 10.6650
" />
</g></g>
<g style="fill:none; 
stroke:#000000; stroke-width:0.1500; stroke-opacity:1; 
stroke-linecap:round; stroke-linejoin:round;">
<text x="85.0000" y="11.6500"
textLength="1.4281" font-size="1.7333" lengthAdjust="spacingAndGlyphs"
text-anchor="start" opacity="0" stroke-opacity="0">2</text>
<g class="stroked-text"><desc>2</desc>
<path d="M85.3463 10.4174
L85.4082 10.3555
" />
<path d="M85.4082 10.3555
L85.5320 10.2936
" />
<path d="M85.5320 10.2936
L85.8415 10.2936
" />
<path d="M85.8415 10.2936
L85.9654 10.3555
" />
<path d="M85.9654 10.3555
L86.0273 10.4174
" />
<path d="M86.0273 10.4174
L86.0892 10.5412
" />
<path d="M86.0892 10.5412
L86.0892 10.6650
" />
<path d="M86.0892 10.6650
L86.0273 10.8507
" />
<path d="M86.0273 10.8507
L85.2844 11.5936
" />
<path d="M85.2844 11.5936
L86.0892 11.5936
" />
</g></g>
<g style="fill:none; 
stroke:#000000; stroke-width:0.1500; stroke-opacity:1; 
stroke-linecap:round; stroke-linejoin:round;">
<text x="135.0000" y="11.6500"
textLength="1.4281" font-size="1.7333" lengthAdjust="spacingAndGlyphs"
text-anchor="start" opacity="0" stroke-opacity="0">3</text>
<g class="stroked-text"><desc>3</desc>
<path d="M135.2844 10.2936
L136.0892 10.2936
" />
<path d="M136.0892 10.2936
L135.6558 10.7888
" />
<path d="M135.6558 10.7888
L135.8415 10.7888
" />
<path d="M135.8415 10.7888
L135.9654 10.8507
" />
<path d="M135.9654 10.8507
L136.0273 10.9127
" />
<path d="M136.0273 10.9127
L136.0892 11.0365
" />
<path d="M136.0892 11.0365
L136.0892 11.3460
" />
<path d="M136.0892 11.3460
L136.0273 11.4698
" />
<path d="M136.0273 11.4698
L135.9654 11.5317
" />
<path d="M135.9654 11.5317
L135.8415 11.5936
" />
<path d="M135.8415 11.5936
L135.4701 11.5936
" />
<path d="M135.4701 11.5936
L135.3463 11.5317
" />
<path d="M135.3463 11.5317
L135.2844 11.4698
" />
</g></g>
<g style="fill:none; 
stroke:#000000; stroke-width:0.1500; stroke-opacity:1; 
stroke-linecap:round; stroke-linejoin:round;">
<text x="185.0000" y="11.6500"
textLength="1.4281" font-size="1.7333" lengthAdjust="spacingAndGlyphs"
text-anchor="start" opacity="0" stroke-opacity="0">4</text>
<g class="stroked-text"><desc>4</desc>
<path d="M185.9654 10.7269
L185.9654 11.5936
" />
<path d="M185.6558 10.2317
L185.3463 11.1603
" />
<path d="M185.3463 11.1603
L186.1511 11.1603
" />
</g></g>
<g style="fill:none; 
stroke:#000000; stroke-width:0.1500; stroke-opacity:1; 
stroke-linecap:round; stroke-linejoin:round;">
<path d="M60.0000 136.0058
L60.0000 138.0058
" />
</g>
<g style="fill:none; 
stroke:#000000; stroke-width:0.1500; stroke-opacity:1; 
stroke-linecap:round; stroke-linejoin:round;">
<path d="M110.0000 136.0058
L110.0000 138.0058
" />
</g>
<g style="fill:none; 
stroke:#000000; stroke-width:0.1500; stroke-opacity:1; 
stroke-linecap:round; stroke-linejoin:round;">
<path d="M160.0000 136.0058
L160.0000 138.0058
" />
</g>
<g style="fill:none; 
stroke:#000000; stroke-width:0.1500; stroke-opacity:1; 
stroke-linecap:round; stroke-linejoin:round;">
<text x="35.0000" y="137.6558"
textLength="1.4281" font-size="1.7333" lengthAdjust="spacingAndGlyphs"
text-anchor="start" opacity="0" stroke-opacity="0">1</text>
<g class="stroked-text"><desc>1</desc>
<path d="M36.0892 137.5994
L35.3463 137.5994
" />
<path d="M35.7177 137.5994
L35.7177 136.2994
" />
<path d="M35.7177 136.2994
L35.5939 136.4851
" />
<path d="M35.5939 136.4851
L35.4701 136.6089
" />
<path d="M35.4701 136.6089
L35.3463 136.6708
" />
</g></g>
<g style="fill:none; 
stroke:#000000; stroke-width:0.1500; stroke-opacity:1; 
stroke-linecap:round; stroke-linejoin:round;">
<text x="85.0000" y="137.6558"
textLength="1.4281" font-size="1.7333" lengthAdjust="spacingAndGlyphs"
text-anchor="start" opacity="0" stroke-opacity="0">2</text>
<g class="stroked-text"><desc>2</desc>
<path d="M85.3463 136.4232
L85.4082 136.3613
" />
<path d="M85.4082 136.3613
L85.5320 136.2994
" />
<path d="M85.5320 136.2994
L85.8415 136.2994
" />
<path d="M85.8415 136.2994
L85.9654 136.3613
" />
<path d="M85.9654 136.3613
L86.0273 136.4232
" />
<path d="M86.0273 136.4232
L86.0892 136.5470
" />
<path d="M86.0892 136.5470
L86.0892 136.6708
" />
<path d="M86.0892 136.6708
L86.0273 136.8565
" />
<path d="M86.0273 136.8565
L85.2844 137.5994
" />
<path d="M85.2844 137.5994
L86.0892 137.5994
" />
</g></g>
<g style="fill:none; 
stroke:#000000; stroke-width:0.1500; stroke-opacity:1; 
stroke-linecap:round; stroke-linejoin:round;">
<text x="135.0000" y="137.6558"
textLength="1.4281" font-size="1.7333" lengthAdjust="spacingAndGlyphs"
text-anchor="start" opacity="0" stroke-opacity="0">3</text>
<g class="stroked-text"><desc>3</desc>
<path d="M135.2844 136.2994
L136.0892 136.2994
" />
<path d="M136.0892 136.2994
L135.6558 136.7946
" />
<path d="M135.6558 136.7946
L135.8415 136.7946
" />
<path d="M135.8415 136.7946
L135.9654 136.8565
" />
<path d="M135.9654 136.8565
L136.0273 136.9185
" />
<path d="M136.0273 136.9185
L136.0892 137.0423
" />
<path d="M136.0892 137.0423
L136.0892 137.3518
" />
<path d="M136.0892 137.3518
L136.0273 137.4756
" />
<path d="M136.0273 137.4756
L135.9654 137.5375
" />
<path d="M135.9654 137.5375
L135.8415 137.5994
" />
<path d="M135.8415 137.5994
L135.4701 137.5994
" />
<path d="M135.4701 137.5994
L135.3463 137.5375
" />
<path d="M135.3463 137.5375
L135.2844 137.4756
" />
</g></g>
<g style="fill:none; 
stroke:#000000; stroke-width:0.1500; stroke-opacity:1; 
stroke-linecap:round; stroke-linejoin:round;">
<text x="185.0000" y="137.6558"
textLength="1.4281" font-size="1.7333" lengthAdjust="spacingAndGlyphs"
text-anchor="start" opacity="0" stroke-opacity="0">4</text>
<g class="stroked-text"><desc>4</desc>
<path d="M185.9654 136.7327
L185.9654 137.5994
" />
<path d="M185.6558 136.2375
L185.3463 137.1661
" />
<path d="M185.3463 137.1661
L186.1511 137.1661
" />
</g></g>
<g style="fill:none; 
stroke:#000000; stroke-width:0.1500; stroke-opacity:1; 
stroke-linecap:round; stroke-linejoin:round;">
<path d="M10.0000 60.0000
L12.0000 60.0000
" />
</g>
<g style="fill:none; 
stroke:#000000; stroke-width:0.1500; stroke-opacity:1; 
stroke-linecap:round; stroke-linejoin:round;">
<path d="M10.0000 110.0000
L12.0000 110.0000
" />
</g>
<g style="fill:none; 
stroke:#000000; stroke-width:0.1500; stroke-opacity:1; 
stroke-linecap:round; stroke-linejoin:round;">
<text x="11.0000" y="35.6500"
textLength="1.3043" font-size="1.7333" lengthAdjust="spacingAndGlyphs"
text-anchor="middle" opacity="0" stroke-opacity="0">A</text>
<g class="stroked-text"><desc>A</desc>
<path d="M10.6905 35.2222
L11.3095 35.2222
" />
<path d="M10.5667 35.5936
L11.0000 34.2936
" />
<path d="M11.0000 34.2936
L11.4333 35.5936
" />
</g></g>
<g style="fill:none; 
stroke:#000000; stroke-width:0.1500; stroke-opacity:1; 
stroke-linecap:round; stroke-linejoin:round;">
<text x="11.0000" y="85.6500"
textLength="1.4900" font-size="1.7333" lengthAdjust="spacingAndGlyphs"
text-anchor="middle" opacity="0" stroke-opacity="0">B</text>
<g class="stroked-text"><desc>B</desc>
<path d="M11.0929 84.9127
L11.2786 84.9746
" />
<path d="M11.2786 84.9746
L11.3405 85.0365
" />
<path d="M11.3405 85.0365
L11.4024 85.1603
" />
<path d="M11.4024 85.1603
L11.4024 85.3460
" />
<path d="M11.4024 85.3460
L11.3405 85.4698
" />
<path d="M11.3405 85.4698
L11.2786 85.5317
" />
<path d="M11.2786 85.5317
L11.1548 85.5936
" />
<path d="M11.1548 85.5936
L10.6595 85.5936
" />
<path d="M10.6595 85.5936
L10.6595 84.2936
" />
<path d="M10.6595 84.2936
L11.0929 84.2936
" />
<path d="M11.0929 84.2936
L11.2167 84.3555
" />
<path d="M11.2167 84.3555
L11.2786 84.4174
" />
<path d="M11.2786 84.4174
L11.3405 84.5412
" />
<path d="M11.3405 84.5412
L11.3405 84.6650
" />
<path d="M11.3405 84.6650
L11.2786 84.7888
" />
<path d="M11.2786 84.7888
L11.2167 84.8507
" />
<path d="M11.2167 84.8507
L11.0929 84.9127
" />
<path d="M11.0929 84.9127
L10.6595 84.9127
" />
</g></g>
<g style="fill:none; 
stroke:#000000; stroke-width:0.1500; stroke-opacity:1; 
stroke-linecap:round; stroke-linejoin:round;">
<text x="11.0000" y="135.6500"
textLength="1.4900" font-size="1.7333" lengthAdjust="spacingAndGlyphs"
text-anchor="middle" opacity="0" stroke-opacity="0">C</text>
<g class="stroked-text"><desc>C</desc>
<path d="M11.4024 135.4698
L11.3405 135.5317
" />
<path d="M11.3405 135.5317
L11.1548 135.5936
" />
<path d="M11.1548 135.5936
L11.0310 135.5936
" />
<path d="M11.0310 135.5936
L10.8452 135.5317
" />
<path d="M10.8452 135.5317
L10.7214 135.4079
" />
<path d="M10.7214 135.4079
L10.6595 135.2841
" />
<path d="M10.6595 135.2841
L10.5976 135.0365
" />
<path d="M10.5976 135.0365
L10.5976 134.8507
" />
<path d="M10.5976 134.8507
L10.6595 134.6031
" />
<path d="M10.6595 134.6031
L10.7214 134.4793
" />
<path d="M10.7214 134.4793
L10.8452 134.3555
" />
<path d="M10.8452 134.3555
L11.0310 134.2936
" />
<path d="M11.0310 134.2936
L11.1548 134.2936
" />
<path d="M11.1548 134.2936
L11.3405 134.3555
" />
<path d="M11.3405 134.3555
L11.4024 134.4174
" />
</g></g>
<g style="fill:none; 
stroke:#000000; stroke-width:0.1500; stroke-opacity:1; 
stroke-linecap:round; stroke-linejoin:round;">
<path d="M200.0072 60.0000
L198.0072 60.0000
" />
</g>
<g style="fill:none; 
stroke:#000000; stroke-width:0.1500; stroke-opacity:1; 
stroke-linecap:round; stroke-linejoin:round;">
<path d="M200.0072 110.0000
L198.0072 110.0000
" />
</g>
<g style="fill:none; 
stroke:#000000; stroke-width:0.1500; stroke-opacity:1; 
stroke-linecap:round; stroke-linejoin:round;">
<text x="199.0072" y="35.6500"
textLength="1.3043" font-size="1.7333" lengthAdjust="spacingAndGlyphs"
text-anchor="middle" opacity="0" stroke-opacity="0">A</text>
<g class="stroked-text"><desc>A</desc>
<path d="M198.6977 35.2222
L199.3167 35.2222
" />
<path d="M198.5739 35.5936
L199.0072 34.2936
" />
<path d="M199.0072 34.2936
L199.4405 35.5936
" />
</g></g>
<g style="fill:none; 
stroke:#000000; stroke-width:0.1500; stroke-opacity:1; 
stroke-linecap:round; stroke-linejoin:round;">
<text x="199.0072" y="85.6500"
textLength="1.4900" font-size="1.7333" lengthAdjust="spacingAndGlyphs"
text-anchor="middle" opacity="0" stroke-opacity="0">B</text>
<g class="stroked-text"><desc>B</desc>
<path d="M199.1001 84.9127
L199.2858 84.9746
" />
<path d="M199.2858 84.9746
L199.3477 85.0365
" />
<path d="M199.3477 85.0365
L199.4096 85.1603
" />
<path d="M199.4096 85.1603
L199.4096 85.3460
" />
<path d="M199.4096 85.3460
L199.3477 85.4698
" />
<path d="M199.3477 85.4698
L199.2858 85.5317
" />
<path d="M199.2858 85.5317
L199.1620 85.5936
" />
<path d="M199.1620 85.5936
L198.6667 85.5936
" />
<path d="M198.6667 85.5936
L198.6667 84.2936
" />
<path d="M198.6667 84.2936
L199.1001 84.2936
" />
<path d="M199.1001 84.2936
L199.2239 84.3555
" />
<path d="M199.2239 84.3555
L199.2858 84.4174
" />
<path d="M199.2858 84.4174
L199.3477 84.5412
" />
<path d="M199.3477 84.5412
L199.3477 84.6650
" />
<path d="M199.3477 84.6650
L199.2858 84.7888
" />
<path d="M199.2858 84.7888
L199.2239 84.8507
" />
<path d="M199.2239 84.8507
L199.1001 84.9127
" />
<path d="M199.1001 84.9127
L198.6667 84.9127
" />
</g></g>
<g style="fill:none; 
stroke:#000000; stroke-width:0.1500; stroke-opacity:1; 
stroke-linecap:round; stroke-linejoin:round;">
<text x="199.0072" y="135.6500"
textLength="1.4900" font-size="1.7333" lengthAdjust="spacingAndGlyphs"
text-anchor="middle" opacity="0" stroke-opacity="0">C</text>
<g class="stroked-text"><desc>C</desc>
<path d="M199.4096 135.4698
L199.3477 135.5317
" />
<path d="M199.3477 135.5317
L199.1620 135.5936
" />
<path d="M199.1620 135.5936
L199.0382 135.5936
" />
<path d="M199.0382 135.5936
L198.8524 135.5317
" />
<path d="M198.8524 135.5317
L198.7286 135.4079
" />
<path d="M198.7286 135.4079
L198.6667 135.2841
" />
<path d="M198.6667 135.2841
L198.6048 135.0365
" />
<path d="M198.6048 135.0365
L198.6048 134.8507
" />
<path d="M198.6048 134.8507
L198.6667 134.6031
" />
<path d="M198.6667 134.6031
L198.7286 134.4793
" />
<path d="M198.7286 134.4793
L198.8524 134.3555
" />
<path d="M198.8524 134.3555
L199.0382 134.2936
" />
<path d="M199.0382 134.2936
L199.1620 134.2936
" />
<path d="M199.1620 134.2936
L199.3477 134.3555
" />
<path d="M199.3477 134.3555
L199.4096 134.4174
" />
</g></g>
<g style="fill:none; 
stroke:#000000; stroke-width:0.1500; stroke-opacity:1; 
stroke-linecap:round; stroke-linejoin:round;">
<text x="113.0072" y="131.8558"
textLength="7.0071" font-size="2.0000" lengthAdjust="spacingAndGlyphs"
text-anchor="start" opacity="0" stroke-opacity="0">Date: </text>
<g class="stroked-text"><desc>Date: </desc>
<path d="M113.4630 131.7919
L113.4630 130.2919
" />
<path d="M113.4630 130.2919
L113.8202 130.2919
" />
<path d="M113.8202 130.2919
L114.0345 130.3634
" />
<path d="M114.0345 130.3634
L114.1773 130.5062
" />
<path d="M114.1773 130.5062
L114.2487 130.6491
" />
<path d="M114.2487 130.6491
L114.3202 130.9348
" />
<path d="M114.3202 130.9348
L114.3202 131.1491
" />
<path d="M114.3202 131.1491
L114.2487 131.4348
" />
<path d="M114.2487 131.4348
L114.1773 131.5776
" />
<path d="M114.1773 131.5776
L114.0345 131.7205
" />
<path d="M114.0345 131.7205
L113.8202 131.7919
" />
<path d="M113.8202 131.7919
L113.4630 131.7919
" />
<path d="M115.6059 131.7919
L115.6059 131.0062
" />
<path d="M115.6059 131.0062
L115.5345 130.8634
" />
<path d="M115.5345 130.8634
L115.3916 130.7919
" />
<path d="M115.3916 130.7919
L115.1059 130.7919
" />
<path d="M115.1059 130.7919
L114.9630 130.8634
" />
<path d="M115.6059 131.7205
L115.4630 131.7919
" />
<path d="M115.4630 131.7919
L115.1059 131.7919
" />
<path d="M115.1059 131.7919
L114.9630 131.7205
" />
<path d="M114.9630 131.7205
L114.8916 131.5776
" />
<path d="M114.8916 131.5776
L114.8916 131.4348
" />
<path d="M114.8916 131.4348
L114.9630 131.2919
" />
<path d="M114.9630 131.2919
L115.1059 131.2205
" />
<path d="M115.1059 131.2205
L115.4630 131.2205
" />
<path d="M115.4630 131.2205
L115.6059 131.1491
" />
<path d="M116.1059 130.7919
L116.6773 130.7919
" />
<path d="M116.3202 130.2919
L116.3202 131.5776
" />
<path d="M116.3202 131.5776
L116.3916 131.7205
" />
<path d="M116.3916 131.7205
L116.5345 131.7919
" />
<path d="M116.5345 131.7919
L116.6773 131.7919
" />
<path d="M117.7487 131.7205
L117.6059 131.7919
" />
<path d="M117.6059 131.7919
L117.3202 131.7919
" />
<path d="M117.3202 131.7919
L117.1773 131.7205
" />
<path d="M117.1773 131.7205
L117.1059 131.5776
" />
<path d="M117.1059 131.5776
L117.1059 131.0062
" />
<path d="M117.1059 131.0062
L117.1773 130.8634
" />
<path d="M117.1773 130.8634
L117.3202 130.7919
" />
<path d="M117.3202 130.7919
L117.6059 130.7919
" />
<path d="M117.6059 130.7919
L117.7487 130.8634
" />
<path d="M117.7487 130.8634
L117.8202 131.0062
" />
<path d="M117.8202 131.0062
L117.8202 131.1491
" />
<path d="M117.8202 131.1491
L117.1059 131.2919
" />
<path d="M118.4630 131.6491
L118.5345 131.7205
" />
<path d="M118.5345 131.7205
L118.4630 131.7919
" />
<path d="M118.4630 131.7919
L118.3916 131.7205
" />
<path d="M118.3916 131.7205
L118.4630 131.6491
" />
<path d="M118.4630 131.6491
L118.4630 131.7919
" />
<path d="M118.4630 130.8634
L118.5345 130.9348
" />
<path d="M118.5345 130.9348
L118.4630 131.0062
" />
<path d="M118.4630 131.0062
L118.3916 130.9348
" />
<path d="M118.3916 130.9348
L118.4630 130.8634
" />
<path d="M118.4630 130.8634
L118.4630 131.0062
" />
</g></g>
<g style="fill:none; 
stroke:#000000; stroke-width:0.1500; stroke-opacity:1; 
stroke-linecap:round; stroke-linejoin:round;">
<path d="M90.0072 132.5058
L198.0072 132.5058
" />
</g>
<g style="fill:none; 
stroke:#000000; stroke-width:0.1500; stroke-opacity:1; 
stroke-linecap:round; stroke-linejoin:round;">
<text x="91.0072" y="134.6558"
textLength="20.6500" font-size="2.0000" lengthAdjust="spacingAndGlyphs"
text-anchor="start" opacity="0" stroke-opacity="0">${KICAD_VERSION}</text>
<g class="stroked-text"><desc>${KICAD_VERSION}</desc>
<path d="M91.3916 134.5205
L91.6059 134.5919
" />
<path d="M91.6059 134.5919
L91.9630 134.5919
" />
<path d="M91.9630 134.5919
L92.1059 134.5205
" />
<path d="M92.1059 134.5205
L92.1773 134.4491
" />
<path d="M92.1773 134.4491
L92.2487 134.3062
" />
<path d="M92.2487 134.3062
L92.2487 134.1634
" />
<path d="M92.2487 134.1634
L92.1773 134.0205
" />
<path d="M92.1773 134.0205
L92.1059 133.9491
" />
<path d="M92.1059 133.9491
L91.9630 133.8776
" />
<path d="M91.9630 133.8776
L91.6773 133.8062
" />
<path d="M91.6773 133.8062
L91.5345 133.7348
" />
<path d="M91.5345 133.7348
L91.4630 133.6634
" />
<path d="M91.4630 133.6634
L91.3916 133.5205
" />
<path d="M91.3916 133.5205
L91.3916 133.3776
" />
<path d="M91.3916 133.3776
L91.4630 133.2348
" />
<path d="M91.4630 133.2348
L91.5345 133.1634
" />
<path d="M91.5345 133.1634
L91.6773 133.0919
" />
<path d="M91.6773 133.0919
L92.0345 133.0919
" />
<path d="M92.0345 133.0919
L92.2487 133.1634
" />
<path d="M91.8202 132.8776
L91.8202 134.8062
" />
<path d="M93.3202 135.1634
L93.2487 135.1634
" />
<path d="M93.2487 135.1634
L93.1059 135.0919
" />
<path d="M93.1059 135.0919
L93.0345 134.9491
" />
<path d="M93.0345 134.9491
L93.0345 134.2348
" />
<path d="M93.0345 134.2348
L92.9630 134.0919
" />
<path d="M92.9630 134.0919
L92.8202 134.0205
" />
<path d="M92.8202 134.0205
L92.9630 133.9491
" />
<path d="M92.9630 133.9491
L93.0345 133.8062
" />
<path d="M93.0345 133.8062
L93.0345 133.0919
" />
<path d="M93.0345 133.0919
L93.1059 132.9491
" />
<path d="M93.1059 132.9491
L93.2487 132.8776
" />
<path d="M93.2487 132.8776
L93.3202 132.8776
" />
<path d="M93.8916 134.5919
L93.8916 133.0919
" />
<path d="M94.7487 134.5919
L94.1059 133.7348
" />
<path d="M94.7487 133.0919
L93.8916 133.9491
" />
<path d="M95.3916 134.5919
L95.3916 133.0919
" />
<path d="M96.9630 134.4491
L96.8916 134.5205
" />
<path d="M96.8916 134.5205
L96.6773 134.5919
" />
<path d="M96.6773 134.5919
L96.5345 134.5919
" />
<path d="M96.5345 134.5919
L96.3202 134.5205
" />
<path d="M96.3202 134.5205
L96.1773 134.3776
" />
<path d="M96.1773 134.3776
L96.1059 134.2348
" />
<path d="M96.1059 134.2348
L96.0345 133.9491
" />
<path d="M96.0345 133.9491
L96.0345 133.7348
" />
<path d="M96.0345 133.7348
L96.1059 133.4491
" />
<path d="M96.1059 133.4491
L96.1773 133.3062
" />
<path d="M96.1773 133.3062
L96.3202 133.1634
" />
<path d="M96.3202 133.1634
L96.5345 133.0919
" />
<path d="M96.5345 133.0919
L96.6773 133.0919
" />
<path d="M96.6773 133.0919
L96.8916 133.1634
" />
<path d="M96.8916 133.1634
L96.9630 133.2348
" />
<path d="M97.5345 134.1634
L98.2487 134.1634
" />
<path d="M97.3916 134.5919
L97.8916 133.0919
" />
<path d="M97.8916 133.0919
L98.3916 134.5919
" />
<path d="M98.8916 134.5919
L98.8916 133.0919
" />
<path d="M98.8916 133.0919
L99.2487 133.0919
" />
<path d="M99.2487 133.0919
L99.4630 133.1634
" />
<path d="M99.4630 133.1634
L99.6059 133.3062
" />
<path d="M99.6059 133.3062
L99.6773 133.4491
" />
<path d="M99.6773 133.4491
L99.7487 133.7348
" />
<path d="M99.7487 133.7348
L99.7487 133.9491
" />
<path d="M99.7487 133.9491
L99.6773 134.2348
" />
<path d="M99.6773 134.2348
L99.6059 134.3776
" />
<path d="M99.6059 134.3776
L99.4630 134.5205
" />
<path d="M99.4630 134.5205
L99.2487 134.5919
" />
<path d="M99.2487 134.5919
L98.8916 134.5919
" />
<path d="M100.0345 134.7348
L101.1773 134.7348
" />
<path d="M101.3202 133.0919
L101.8202 134.5919
" />
<path d="M101.8202 134.5919
L102.3202 133.0919
" />
<path d="M102.8202 133.8062
L103.3202 133.8062
" />
<path d="M103.5345 134.5919
L102.8202 134.5919
" />
<path d="M102.8202 134.5919
L102.8202 133.0919
" />
<path d="M102.8202 133.0919
L103.5345 133.0919
" />
<path d="M105.0345 134.5919
L104.5345 133.8776
" />
<path d="M104.1773 134.5919
L104.1773 133.0919
" />
<path d="M104.1773 133.0919
L104.7487 133.0919
" />
<path d="M104.7487 133.0919
L104.8916 133.1634
" />
<path d="M104.8916 133.1634
L104.9630 133.2348
" />
<path d="M104.9630 133.2348
L105.0345 133.3776
" />
<path d="M105.0345 133.3776
L105.0345 133.5919
" />
<path d="M105.0345 133.5919
L104.9630 133.7348
" />
<path d="M104.9630 133.7348
L104.8916 133.8062
" />
<path d="M104.8916 133.8062
L104.7487 133.8776
" />
<path d="M104.7487 133.8776
L104.1773 133.8776
" />
<path d="M105.6059 134.5205
L105.8202 134.5919
" />
<path d="M105.8202 134.5919
L106.1773 134.5919
" />
<path d="M106.1773 134.5919
L106.3202 134.5205
" />
<path d="M106.3202 134.5205
L106.3916 134.4491
" />
<path d="M106.3916 134.4491
L106.4630 134.3062
" />
<path d="M106.4630 134.3062
L106.4630 134.1634
" />
<path d="M106.4630 134.1634
L106.3916 134.0205
" />
<path d="M106.3916 134.0205
L106.3202 133.9491
" />
<path d="M106.3202 133.9491
L106.1773 133.8776
" />
<path d="M106.1773 133.8776
L105.8916 133.8062
" />
<path d="M105.8916 133.8062
L105.7487 133.7348
" />
<path d="M105.7487 133.7348
L105.6773 133.6634
" />
<path d="M105.6773 133.6634
L105.6059 133.5205
" />
<path d="M105.6059 133.5205
L105.6059 133.3776
" />
<path d="M105.6059 133.3776
L105.6773 133.2348
" />
<path d="M105.6773 133.2348
L105.7487 133.1634
" />
<path d="M105.7487 133.1634
L105.8916 133.0919
" />
<path d="M105.8916 133.0919
L106.2487 133.0919
" />
<path d="M106.2487 133.0919
L106.4630 133.1634
" />
<path d="M107.1059 134.5919
L107.1059 133.0919
" />
<path d="M108.1059 133.0919
L108.3916 133.0919
" />
<path d="M108.3916 133.0919
L108.5345 133.1634
" />
<path d="M108.5345 133.1634
L108.6773 133.3062
" />
<path d="M108.6773 133.3062
L108.7487 133.5919
" />
<path d="M108.7487 133.5919
L108.7487 134.0919
" />
<path d="M108.7487 134.0919
L108.6773 134.3776
" />
<path d="M108.6773 134.3776
L108.5345 134.5205
" />
<path d="M108.5345 134.5205
L108.3916 134.5919
" />
<path d="M108.3916 134.5919
L108.1059 134.5919
" />
<path d="M108.1059 134.5919
L107.9630 134.5205
" />
<path d="M107.9630 134.5205
L107.8202 134.3776
" />
<path d="M107.8202 134.3776
L107.7487 134.0919
" />
<path d="M107.7487 134.0919
L107.7487 133.5919
" />
<path d="M107.7487 133.5919
L107.8202 133.3062
" />
<path d="M107.8202 133.3062
L107.9630 133.1634
" />
<path d="M107.9630 133.1634
L108.1059 133.0919
" />
<path d="M109.3916 134.5919
L109.3916 133.0919
" />
<path d="M109.3916 133.0919
L110.2487 134.5919
" />
<path d="M110.2487 134.5919
L110.2487 133.0919
" />
<path d="M110.8202 135.1634
L110.8916 135.1634
" />
<path d="M110.8916 135.1634
L111.0345 135.0919
" />
<path d="M111.0345 135.0919
L111.1059 134.9491
" />
<path d="M111.1059 134.9491
L111.1059 134.2348
" />
<path d="M111.1059 134.2348
L111.1773 134.0919
" />
<path d="M111.1773 134.0919
L111.3202 134.0205
" />
<path d="M111.3202 134.0205
L111.1773 133.9491
" />
<path d="M111.1773 133.9491
L111.1059 133.8062
" />
<path d="M111.1059 133.8062
L111.1059 133.0919
" />
<path d="M111.1059 133.0919
L111.0345 132.9491
" />
<path d="M111.0345 132.9491
L110.8916 132.8776
" />
<path d="M110.8916 132.8776
L110.8202 132.8776
" />
</g></g>
<g style="fill:none; 
stroke:#000000; stroke-width:0.1500; stroke-opacity:1; 
stroke-linecap:round; stroke-linejoin:round;">
<path d="M90.0072 129.5058
L198.0072 129.5058
" />
</g>
<g style="fill:none; 
stroke:#000000; stroke-width:0.3000; stroke-opacity:1; 
stroke-linecap:round; stroke-linejoin:round;">
<text x="176.0072" y="131.8558"
textLength="6.3857" font-size="2.0000" lengthAdjust="spacingAndGlyphs"
text-anchor="start" opacity="0" stroke-opacity="0">Rev: </text>
<g class="stroked-text"><desc>Rev: </desc>
<path d="M177.4189 131.7841
L176.9189 131.0698
" />
<path d="M176.5617 131.7841
L176.5617 130.2841
" />
<path d="M176.5617 130.2841
L177.1331 130.2841
" />
<path d="M177.1331 130.2841
L177.2760 130.3556
" />
<path d="M177.2760 130.3556
L177.3474 130.4270
" />
<path d="M177.3474 130.4270
L177.4189 130.5698
" />
<path d="M177.4189 130.5698
L177.4189 130.7841
" />
<path d="M177.4189 130.7841
L177.3474 130.9270
" />
<path d="M177.3474 130.9270
L177.2760 130.9984
" />
<path d="M177.2760 130.9984
L177.1331 131.0698
" />
<path d="M177.1331 131.0698
L176.5617 131.0698
" />
<path d="M178.6331 131.7127
L178.4903 131.7841
" />
<path d="M178.4903 131.7841
L178.2046 131.7841
" />
<path d="M178.2046 131.7841
L178.0617 131.7127
" />
<path d="M178.0617 131.7127
L177.9903 131.5698
" />
<path d="M177.9903 131.5698
L177.9903 130.9984
" />
<path d="M177.9903 130.9984
L178.0617 130.8556
" />
<path d="M178.0617 130.8556
L178.2046 130.7841
" />
<path d="M178.2046 130.7841
L178.4903 130.7841
" />
<path d="M178.4903 130.7841
L178.6331 130.8556
" />
<path d="M178.6331 130.8556
L178.7046 130.9984
" />
<path d="M178.7046 130.9984
L178.7046 131.1413
" />
<path d="M178.7046 131.1413
L177.9903 131.2841
" />
<path d="M179.2046 130.7841
L179.5617 131.7841
" />
<path d="M179.5617 131.7841
L179.9189 130.7841
" />
<path d="M180.4903 131.6413
L180.5617 131.7127
" />
<path d="M180.5617 131.7127
L180.4903 131.7841
" />
<path d="M180.4903 131.7841
L180.4189 131.7127
" />
<path d="M180.4189 131.7127
L180.4903 131.6413
" />
<path d="M180.4903 131.6413
L180.4903 131.7841
" />
<path d="M180.4903 130.8556
L180.5617 130.9270
" />
<path d="M180.5617 130.9270
L180.4903 130.9984
" />
<path d="M180.4903 130.9984
L180.4189 130.9270
" />
<path d="M180.4189 130.9270
L180.4903 130.8556
" />
<path d="M180.4903 130.8556
L180.4903 130.9984
" />
</g></g>
<g style="fill:none; 
stroke:#000000; stroke-width:0.1500; stroke-opacity:1; 
stroke-linecap:round; stroke-linejoin:round;">
<text x="91.0072" y="131.8558"
textLength="9.3643" font-size="2.0000" lengthAdjust="spacingAndGlyphs"
text-anchor="start" opacity="0" stroke-opacity="0">Size: A5</text>
<g class="stroked-text"><desc>Size: A5</desc>
<path d="M91.3916 131.7205
L91.6059 131.7919
" />
<path d="M91.6059 131.7919
L91.9630 131.7919
" />
<path d="M91.9630 131.7919
L92.1059 131.7205
" />
<path d="M92.1059 131.7205
L92.1773 131.6491
" />
<path d="M92.1773 131.6491
L92.2487 131.5062
" />
<path d="M92.2487 131.5062
L92.2487 131.3634
" />
<path d="M92.2487 131.3634
L92.1773 131.2205
" />
<path d="M92.1773 131.2205
L92.1059 131.1491
" />
<path d="M92.1059 131.1491
L91.9630 131.0776
" />
<path d="M91.9630 131.0776
L91.6773 131.0062
" />
<path d="M91.6773 131.0062
L91.5345 130.9348
" />
<path d="M91.5345 130.9348
L91.4630 130.8634
" />
<path d="M91.4630 130.8634
L91.3916 130.7205
" />
<path d="M91.3916 130.7205
L91.3916 130.5776
" />
<path d="M91.3916 130.5776
L91.4630 130.4348
" />
<path d="M91.4630 130.4348
L91.5345 130.3634
" />
<path d="M91.5345 130.3634
L91.6773 130.2919
" />
<path d="M91.6773 130.2919
L92.0345 130.2919
" />
<path d="M92.0345 130.2919
L92.2487 130.3634
" />
<path d="M92.8916 131.7919
L92.8916 130.7919
" />
<path d="M92.8916 130.2919
L92.8202 130.3634
" />
<path d="M92.8202 130.3634
L92.8916 130.4348
" />
<path d="M92.8916 130.4348
L92.9630 130.3634
" />
<path d="M92.9630 130.3634
L92.8916 130.2919
" />
<path d="M92.8916 130.2919
L92.8916 130.4348
" />
<path d="M93.4630 130.7919
L94.2487 130.7919
" />
<path d="M94.2487 130.7919
L93.4630 131.7919
" />
<path d="M93.4630 131.7919
L94.2487 131.7919
" />
<path d="M95.3916 131.7205
L95.2487 131.7919
" />
<path d="M95.2487 131.7919
L94.9630 131.7919
" />
<path d="M94.9630 131.7919
L94.8202 131.7205
" />
<path d="M94.8202 131.7205
L94.7487 131.5776
" />
<path d="M94.7487 131.5776
L94.7487 131.0062
" />
<path d="M94.7487 131.0062
L94.8202 130.8634
" />
<path d="M94.8202 130.8634
L94.9630 130.7919
" />
<path d="M94.9630 130.7919
L95.2487 130.7919
" />
<path d="M95.2487 130.7919
L95.3916 130.8634
" />
<path d="M95.3916 130.8634
L95.4630 131.0062
" />
<path d="M95.4630 131.0062
L95.4630 131.1491
" />
<path d="M95.4630 131.1491
L94.7487 131.2919
" />
<path d="M96.1059 131.6491
L96.1773 131.7205
" />
<path d="M96.1773 131.7205
L96.1059 131.7919
" />
<path d="M96.1059 131.7919
L96.0345 131.7205
" />
<path d="M96.0345 131.7205
L96.1059 131.6491
" />
<path d="M96.1059 131.6491
L96.1059 131.7919
" />
<path d="M96.1059 130.8634
L96.1773 130.9348
" />
<path d="M96.1773 130.9348
L96.1059 131.0062
" />
<path d="M96.1059 131.0062
L96.0345 130.9348
" />
<path d="M96.0345 130.9348
L96.1059 130.8634
" />
<path d="M96.1059 130.8634
L96.1059 131.0062
" />
<path d="M97.8916 131.3634
L98.6059 131.3634
" />
<path d="M97.7487 131.7919
L98.2487 130.2919
" />
<path d="M98.2487 130.2919
L98.7487 131.7919
" />
<path d="M99.9630 130.2919
L99.2487 130.2919
" />
<path d="M99.2487 130.2919
L99.1773 131.0062
" />
<path d="M99.1773 131.0062
L99.2487 130.9348
" />
<path d="M99.2487 130.9348
L99.3916 130.8634
" />
<path d="M99.3916 130.8634
L99.7487 130.8634
" />
<path d="M99.7487 130.8634
L99.8916 130.9348
" />
<path d="M99.8916 130.9348
L99.9630 131.0062
" />
<path d="M99.9630 131.0062
L100.0345 131.1491
" />
<path d="M100.0345 131.1491
L100.0345 131.5062
" />
<path d="M100.0345 131.5062
L99.9630 131.6491
" />
<path d="M99.9630 131.6491
L99.8916 131.7205
" />
<path d="M99.8916 131.7205
L99.7487 131.7919
" />
<path d="M99.7487 131.7919
L99.3916 131.7919
" />
<path d="M99.3916 131.7919
L99.2487 131.7205
" />
<path d="M99.2487 131.7205
L99.1773 131.6491
" />
</g></g>
<g style="fill:none; 
stroke:#000000; stroke-width:0.1500; stroke-opacity:1; 
stroke-linecap:round; stroke-linejoin:round;">
<text x="176.0072" y="134.6558"
textLength="7.0786" font-size="2.0000" lengthAdjust="spacingAndGlyphs"
text-anchor="start" opacity="0" stroke-opacity="0">Id: /1</text>
<g class="stroked-text"><desc>Id: /1</desc>
<path d="M176.4630 134.5919
L176.4630 133.0919
" />
<path d="M177.8202 134.5919
L177.8202 133.0919
" />
<path d="M177.8202 134.5205
L177.6773 134.5919
" />
<path d="M177.6773 134.5919
L177.3916 134.5919
" />
<path d="M177.3916 134.5919
L177.2487 134.5205
" />
<path d="M177.2487 134.5205
L177.1773 134.4491
" />
<path d="M177.1773 134.4491
L177.1059 134.3062
" />
<path d="M177.1059 134.3062
L177.1059 133.8776
" />
<path d="M177.1059 133.8776
L177.1773 133.7348
" />
<path d="M177.1773 133.7348
L177.2487 133.6634
" />
<path d="M177.2487 133.6634
L177.3916 133.5919
" />
<path d="M177.3916 133.5919
L177.6773 133.5919
" />
<path d="M177.6773 133.5919
L177.8202 133.6634
" />
<path d="M178.5345 134.4491
L178.6059 134.5205
" />
<path d="M178.6059 134.5205
L178.5345 134.5919
" />
<path d="M178.5345 134.5919
L178.4630 134.5205
" />
<path d="M178.4630 134.5205
L178.5345 134.4491
" />
<path d="M178.5345 134.4491
L178.5345 134.5919
" />
<path d="M178.5345 133.6634
L178.6059 133.7348
" />
<path d="M178.6059 133.7348
L178.5345 133.8062
" />
<path d="M178.5345 133.8062
L178.4630 133.7348
" />
<path d="M178.4630 133.7348
L178.5345 133.6634
" />
<path d="M178.5345 133.6634
L178.5345 133.8062
" />
<path d="M181.4630 133.0205
L180.1773 134.9491
" />
<path d="M182.7487 134.5919
L181.8916 134.5919
" />
<path d="M182.3202 134.5919
L182.3202 133.0919
" />
<path d="M182.3202 133.0919
L182.1773 133.3062
" />
<path d="M182.1773 133.3062
L182.0345 133.4491
" />
<path d="M182.0345 133.4491
L181.8916 133.5205
" />
</g></g>
<g style="fill:none; 
stroke:#000000; stroke-width:0.1500; stroke-opacity:1; 
stroke-linecap:round; stroke-linejoin:round;">
<path d="M90.0072 125.5058
L198.0072 125.5058
" />
</g>
<g style="fill:none; 
stroke:#000000; stroke-width:0.4000; stroke-opacity:1; 
stroke-linecap:round; stroke-linejoin:round;">
<text x="91.0072" y="128.3058"
textLength="9.6571" font-size="2.6667" lengthAdjust="spacingAndGlyphs"
text-anchor="start" opacity="0" stroke-opacity="0">Title: </text>
<g class="stroked-text"><desc>Title: </desc>
<path d="M91.6989 126.2102
L92.8418 126.2102
" />
<path d="M92.0204 128.2102
L92.2704 126.2102
" />
<path d="M93.2585 128.2102
L93.4251 126.8769
" />
<path d="M93.5085 126.2102
L93.4013 126.3055
" />
<path d="M93.4013 126.3055
L93.4846 126.4007
" />
<path d="M93.4846 126.4007
L93.5918 126.3055
" />
<path d="M93.5918 126.3055
L93.5085 126.2102
" />
<path d="M93.5085 126.2102
L93.4846 126.4007
" />
<path d="M94.0918 126.8769
L94.8537 126.8769
" />
<path d="M94.4608 126.2102
L94.2465 127.9245
" />
<path d="M94.2465 127.9245
L94.3180 128.1150
" />
<path d="M94.3180 128.1150
L94.4965 128.2102
" />
<path d="M94.4965 128.2102
L94.6870 128.2102
" />
<path d="M95.6394 128.2102
L95.4608 128.1150
" />
<path d="M95.4608 128.1150
L95.3894 127.9245
" />
<path d="M95.3894 127.9245
L95.6037 126.2102
" />
<path d="M97.1751 128.1150
L96.9727 128.2102
" />
<path d="M96.9727 128.2102
L96.5918 128.2102
" />
<path d="M96.5918 128.2102
L96.4132 128.1150
" />
<path d="M96.4132 128.1150
L96.3418 127.9245
" />
<path d="M96.3418 127.9245
L96.4370 127.1626
" />
<path d="M96.4370 127.1626
L96.5561 126.9721
" />
<path d="M96.5561 126.9721
L96.7585 126.8769
" />
<path d="M96.7585 126.8769
L97.1394 126.8769
" />
<path d="M97.1394 126.8769
L97.3180 126.9721
" />
<path d="M97.3180 126.9721
L97.3894 127.1626
" />
<path d="M97.3894 127.1626
L97.3656 127.3531
" />
<path d="M97.3656 127.3531
L96.3894 127.5436
" />
<path d="M98.1394 128.0198
L98.2227 128.1150
" />
<path d="M98.2227 128.1150
L98.1156 128.2102
" />
<path d="M98.1156 128.2102
L98.0323 128.1150
" />
<path d="M98.0323 128.1150
L98.1394 128.0198
" />
<path d="M98.1394 128.0198
L98.1156 128.2102
" />
<path d="M98.2704 126.9721
L98.3537 127.0674
" />
<path d="M98.3537 127.0674
L98.2465 127.1626
" />
<path d="M98.2465 127.1626
L98.1632 127.0674
" />
<path d="M98.1632 127.0674
L98.2704 126.9721
" />
<path d="M98.2704 126.9721
L98.2465 127.1626
" />
</g></g>
<g style="fill:none; 
stroke:#000000; stroke-width:0.1500; stroke-opacity:1; 
stroke-linecap:round; stroke-linejoin:round;">
<text x="91.0072" y="124.4558"
textLength="36.7929" font-size="2.0000" lengthAdjust="spacingAndGlyphs"
text-anchor="start" opacity="0" stroke-opacity="0">File: modulo_seguidor.kicad_pcb</text>
<g class="stroked-text"><desc>File: modulo_seguidor.kicad_pcb</desc>
<path d="M91.9630 123.6062
L91.4630 123.6062
" />
<path d="M91.4630 124.3919
L91.4630 122.8919
" />
<path d="M91.4630 122.8919
L92.1773 122.8919
" />
<path d="M92.7487 124.3919
L92.7487 123.3919
" />
<path d="M92.7487 122.8919
L92.6773 122.9634
" />
<path d="M92.6773 122.9634
L92.7487 123.0348
" />
<path d="M92.7487 123.0348
L92.8202 122.9634
" />
<path d="M92.8202 122.9634
L92.7487 122.8919
" />
<path d="M92.7487 122.8919
L92.7487 123.0348
" />
<path d="M93.6773 124.3919
L93.5345 124.3205
" />
<path d="M93.5345 124.3205
L93.4630 124.1776
" />
<path d="M93.4630 124.1776
L93.4630 122.8919
" />
<path d="M94.8202 124.3205
L94.6773 124.3919
" />
<path d="M94.6773 124.3919
L94.3916 124.3919
" />
<path d="M94.3916 124.3919
L94.2487 124.3205
" />
<path d="M94.2487 124.3205
L94.1773 124.1776
" />
<path d="M94.1773 124.1776
L94.1773 123.6062
" />
<path d="M94.1773 123.6062
L94.2487 123.4634
" />
<path d="M94.2487 123.4634
L94.3916 123.3919
" />
<path d="M94.3916 123.3919
L94.6773 123.3919
" />
<path d="M94.6773 123.3919
L94.8202 123.4634
" />
<path d="M94.8202 123.4634
L94.8916 123.6062
" />
<path d="M94.8916 123.6062
L94.8916 123.7491
" />
<path d="M94.8916 123.7491
L94.1773 123.8919
" />
<path d="M95.5345 124.2491
L95.6059 124.3205
" />
<path d="M95.6059 124.3205
L95.5345 124.3919
" />
<path d="M95.5345 124.3919
L95.4630 124.3205
" />
<path d="M95.4630 124.3205
L95.5345 124.2491
" />
<path d="M95.5345 124.2491
L95.5345 124.3919
" />
<path d="M95.5345 123.4634
L95.6059 123.5348
" />
<path d="M95.6059 123.5348
L95.5345 123.6062
" />
<path d="M95.5345 123.6062
L95.4630 123.5348
" />
<path d="M95.4630 123.5348
L95.5345 123.4634
" />
<path d="M95.5345 123.4634
L95.5345 123.6062
" />
<path d="M97.3916 124.3919
L97.3916 123.3919
" />
<path d="M97.3916 123.5348
L97.4630 123.4634
" />
<path d="M97.4630 123.4634
L97.6059 123.3919
" />
<path d="M97.6059 123.3919
L97.8202 123.3919
" />
<path d="M97.8202 123.3919
L97.9630 123.4634
" />
<path d="M97.9630 123.4634
L98.0345 123.6062
" />
<path d="M98.0345 123.6062
L98.0345 124.3919
" />
<path d="M98.0345 123.6062
L98.1059 123.4634
" />
<path d="M98.1059 123.4634
L98.2487 123.3919
" />
<path d="M98.2487 123.3919
L98.4630 123.3919
" />
<path d="M98.4630 123.3919
L98.6059 123.4634
" />
<path d="M98.6059 123.4634
L98.6773 123.6062
" />
<path d="M98.6773 123.6062
L98.6773 124.3919
" />
<path d="M99.6059 124.3919
L99.4630 124.3205
" />
<path d="M99.4630 124.3205
L99.3916 124.2491
" />
<path d="M99.3916 124.2491
L99.3202 124.1062
" />
<path d="M99.3202 124.1062
L99.3202 123.6776
" />
<path d="M99.3202 123.6776
L99.3916 123.5348
" />
<path d="M99.3916 123.5348
L99.4630 123.4634
" />
<path d="M99.4630 123.4634
L99.6059 123.3919
" />
<path d="M99.6059 123.3919
L99.8202 123.3919
" />
<path d="M99.8202 123.3919
L99.9630 123.4634
" />
<path d="M99.9630 123.4634
L100.0345 123.5348
" />
<path d="M100.0345 123.5348
L100.1059 123.6776
" />
<path d="M100.1059 123.6776
L100.1059 124.1062
" />
<path d="M100.1059 124.1062
L100.0345 124.2491
" />
<path d="M100.0345 124.2491
L99.9630 124.3205
" />
<path d="M99.9630 124.3205
L99.8202 124.3919
" />
<path d="M99.8202 124.3919
L99.6059 124.3919
" />
<path d="M101.3916 124.3919
L101.3916 122.8919
" />
<path d="M101.3916 124.3205
L101.2487 124.3919
" />
<path d="M101.2487 124.3919
L100.9630 124.3919
" />
<path d="M100.9630 124.3919
L100.8202 124.3205
" />
<path d="M100.8202 124.3205
L100.7487 124.2491
" />
<path d="M100.7487 124.2491
L100.6773 124.1062
" />
<path d="M100.6773 124.1062
L100.6773 123.6776
" />
<path d="M100.6773 123.6776
L100.7487 123.5348
" />
<path d="M100.7487 123.5348
L100.8202 123.4634
" />
<path d="M100.8202 123.4634
L100.9630 123.3919
" />
<path d="M100.9630 123.3919
L101.2487 123.3919
" />
<path d="M101.2487 123.3919
L101.3916 123.4634
" />
<path d="M102.7487 123.3919
L102.7487 124.3919
" />
<path d="M102.1059 123.3919
L102.1059 124.1776
" />
<path d="M102.1059 124.1776
L102.1773 124.3205
" />
<path d="M102.1773 124.3205
L102.3202 124.3919
" />
<path d="M102.3202 124.3919
L102.5345 124.3919
" />
<path d="M102.5345 124.3919
L102.6773 124.3205
" />
<path d="M102.6773 124.3205
L102.7487 124.2491
" />
<path d="M103.6773 124.3919
L103.5345 124.3205
" />
<path d="M103.5345 124.3205
L103.4630 124.1776
" />
<path d="M103.4630 124.1776
L103.4630 122.8919
" />
<path d="M104.4630 124.3919
L104.3202 124.3205
" />
<path d="M104.3202 124.3205
L104.2487 124.2491
" />
<path d="M104.2487 124.2491
L104.1773 124.1062
" />
<path d="M104.1773 124.1062
L104.1773 123.6776
" />
<path d="M104.1773 123.6776
L104.2487 123.5348
" />
<path d="M104.2487 123.5348
L104.3202 123.4634
" />
<path d="M104.3202 123.4634
L104.4630 123.3919
" />
<path d="M104.4630 123.3919
L104.6773 123.3919
" />
<path d="M104.6773 123.3919
L104.8202 123.4634
" />
<path d="M104.8202 123.4634
L104.8916 123.5348
" />
<path d="M104.8916 123.5348
L104.9630 123.6776
" />
<path d="M104.9630 123.6776
L104.9630 124.1062
" />
<path d="M104.9630 124.1062
L104.8916 124.2491
" />
<path d="M104.8916 124.2491
L104.8202 124.3205
" />
<path d="M104.8202 124.3205
L104.6773 124.3919
" />
<path d="M104.6773 124.3919
L104.4630 124.3919
" />
<path d="M105.2487 124.5348
L106.3916 124.5348
" />
<path d="M106.6773 124.3205
L106.8202 124.3919
" />
<path d="M106.8202 124.3919
L107.1059 124.3919
" />
<path d="M107.1059 124.3919
L107.2487 124.3205
" />
<path d="M107.2487 124.3205
L107.3202 124.1776
" />
<path d="M107.3202 124.1776
L107.3202 124.1062
" />
<path d="M107.3202 124.1062
L107.2487 123.9634
" />
<path d="M107.2487 123.9634
L107.1059 123.8919
" />
<path d="M107.1059 123.8919
L106.8916 123.8919
" />
<path d="M106.8916 123.8919
L106.7487 123.8205
" />
<path d="M106.7487 123.8205
L106.6773 123.6776
" />
<path d="M106.6773 123.6776
L106.6773 123.6062
" />
<path d="M106.6773 123.6062
L106.7487 123.4634
" />
<path d="M106.7487 123.4634
L106.8916 123.3919
" />
<path d="M106.8916 123.3919
L107.1059 123.3919
" />
<path d="M107.1059 123.3919
L107.2487 123.4634
" />
<path d="M108.5345 124.3205
L108.3916 124.3919
" />
<path d="M108.3916 124.3919
L108.1059 124.3919
" />
<path d="M108.1059 124.3919
L107.9630 124.3205
" />
<path d="M107.9630 124.3205
L107.8916 124.1776
" />
<path d="M107.8916 124.1776
L107.8916 123.6062
" />
<path d="M107.8916 123.6062
L107.9630 123.4634
" />
<path d="M107.9630 123.4634
L108.1059 123.3919
" />
<path d="M108.1059 123.3919
L108.3916 123.3919
" />
<path d="M108.3916 123.3919
L108.5345 123.4634
" />
<path d="M108.5345 123.4634
L108.6059 123.6062
" />
<path d="M108.6059 123.6062
L108.6059 123.7491
" />
<path d="M108.6059 123.7491
L107.8916 123.8919
" />
<path d="M109.8916 123.3919
L109.8916 124.6062
" />
<path d="M109.8916 124.6062
L109.8202 124.7491
" />
<path d="M109.8202 124.7491
L109.7487 124.8205
" />
<path d="M109.7487 124.8205
L109.6059 124.8919
" />
<path d="M109.6059 124.8919
L109.3916 124.8919
" />
<path d="M109.3916 124.8919
L109.2487 124.8205
" />
<path d="M109.8916 124.3205
L109.7487 124.3919
" />
<path d="M109.7487 124.3919
L109.4630 124.3919
" />
<path d="M109.4630 124.3919
L109.3202 124.3205
" />
<path d="M109.3202 124.3205
L109.2487 124.2491
" />
<path d="M109.2487 124.2491
L109.1773 124.1062
" />
<path d="M109.1773 124.1062
L109.1773 123.6776
" />
<path d="M109.1773 123.6776
L109.2487 123.5348
" />
<path d="M109.2487 123.5348
L109.3202 123.4634
" />
<path d="M109.3202 123.4634
L109.4630 123.3919
" />
<path d="M109.4630 123.3919
L109.7487 123.3919
" />
<path d="M109.7487 123.3919
L109.8916 123.4634
" />
<path d="M111.2487 123.3919
L111.2487 124.3919
" />
<path d="M110.6059 123.3919
L110.6059 124.1776
" />
<path d="M110.6059 124.1776
L110.6773 124.3205
" />
<path d="M110.6773 124.3205
L110.8202 124.3919
" />
<path d="M110.8202 124.3919
L111.0345 124.3919
" />
<path d="M111.0345 124.3919
L111.1773 124.3205
" />
<path d="M111.1773 124.3205
L111.2487 124.2491
" />
<path d="M111.9630 124.3919
L111.9630 123.3919
" />
<path d="M111.9630 122.8919
L111.8916 122.9634
" />
<path d="M111.8916 122.9634
L111.9630 123.0348
" />
<path d="M111.9630 123.0348
L112.0345 122.9634
" />
<path d="M112.0345 122.9634
L111.9630 122.8919
" />
<path d="M111.9630 122.8919
L111.9630 123.0348
" />
<path d="M113.3202 124.3919
L113.3202 122.8919
" />
<path d="M113.3202 124.3205
L113.1773 124.3919
" />
<path d="M113.1773 124.3919
L112.8916 124.3919
" />
<path d="M112.8916 124.3919
L112.7487 124.3205
" />
<path d="M112.7487 124.3205
L112.6773 124.2491
" />
<path d="M112.6773 124.2491
L112.6059 124.1062
" />
<path d="M112.6059 124.1062
L112.6059 123.6776
" />
<path d="M112.6059 123.6776
L112.6773 123.5348
" />
<path d="M112.6773 123.5348
L112.7487 123.4634
" />
<path d="M112.7487 123.4634
L112.8916 123.3919
" />
<path d="M112.8916 123.3919
L113.1773 123.3919
" />
<path d="M113.1773 123.3919
L113.3202 123.4634
" />
<path d="M114.2487 124.3919
L114.1059 124.3205
" />
<path d="M114.1059 124.3205
L114.0345 124.2491
" />
<path d="M114.0345 124.2491
L113.9630 124.1062
" />
<path d="M113.9630 124.1062
L113.9630 123.6776
" />
<path d="M113.9630 123.6776
L114.0345 123.5348
" />
<path d="M114.0345 123.5348
L114.1059 123.4634
" />
<path d="M114.1059 123.4634
L114.2487 123.3919
" />
<path d="M114.2487 123.3919
L114.4630 123.3919
" />
<path d="M114.4630 123.3919
L114.6059 123.4634
" />
<path d="M114.6059 123.4634
L114.6773 123.5348
" />
<path d="M114.6773 123.5348
L114.7487 123.6776
" />
<path d="M114.7487 123.6776
L114.7487 124.1062
" />
<path d="M114.7487 124.1062
L114.6773 124.2491
" />
<path d="M114.6773 124.2491
L114.6059 124.3205
" />
<path d="M114.6059 124.3205
L114.4630 124.3919
" />
<path d="M114.4630 124.3919
L114.2487 124.3919
" />
<path d="M115.3916 124.3919
L115.3916 123.3919
" />
<path d="M115.3916 123.6776
L115.4630 123.5348
" />
<path d="M115.4630 123.5348
L115.5345 123.4634
" />
<path d="M115.5345 123.4634
L115.6773 123.3919
" />
<path d="M115.6773 123.3919
L115.8202 123.3919
" />
<path d="M116.3202 124.2491
L116.3916 124.3205
" />
<path d="M116.3916 124.3205
L116.3202 124.3919
" />
<path d="M116.3202 124.3919
L116.2487 124.3205
" />
<path d="M116.2487 124.3205
L116.3202 124.2491
" />
<path d="M116.3202 124.2491
L116.3202 124.3919
" />
<path d="M117.0345 124.3919
L117.0345 122.8919
" />
<path d="M117.1773 123.8205
L117.6059 124.3919
" />
<path d="M117.6059 123.3919
L117.0345 123.9634
" />
<path d="M118.2487 124.3919
L118.2487 123.3919
" />
<path d="M118.2487 122.8919
L118.1773 122.9634
" />
<path d="M118.1773 122.9634
L118.2487 123.0348
" />
<path d="M118.2487 123.0348
L118.3202 122.9634
" />
<path d="M118.3202 122.9634
L118.2487 122.8919
" />
<path d="M118.2487 122.8919
L118.2487 123.0348
" />
<path d="M119.6059 124.3205
L119.4630 124.3919
" />
<path d="M119.4630 124.3919
L119.1773 124.3919
" />
<path d="M119.1773 124.3919
L119.0345 124.3205
" />
<path d="M119.0345 124.3205
L118.9630 124.2491
" />
<path d="M118.9630 124.2491
L118.8916 124.1062
" />
<path d="M118.8916 124.1062
L118.8916 123.6776
" />
<path d="M118.8916 123.6776
L118.9630 123.5348
" />
<path d="M118.9630 123.5348
L119.0345 123.4634
" />
<path d="M119.0345 123.4634
L119.1773 123.3919
" />
<path d="M119.1773 123.3919
L119.4630 123.3919
" />
<path d="M119.4630 123.3919
L119.6059 123.4634
" />
<path d="M120.8916 124.3919
L120.8916 123.6062
" />
<path d="M120.8916 123.6062
L120.8202 123.4634
" />
<path d="M120.8202 123.4634
L120.6773 123.3919
" />
<path d="M120.6773 123.3919
L120.3916 123.3919
" />
<path d="M120.3916 123.3919
L120.2487 123.4634
" />
<path d="M120.8916 124.3205
L120.7487 124.3919
" />
<path d="M120.7487 124.3919
L120.3916 124.3919
" />
<path d="M120.3916 124.3919
L120.2487 124.3205
" />
<path d="M120.2487 124.3205
L120.1773 124.1776
" />
<path d="M120.1773 124.1776
L120.1773 124.0348
" />
<path d="M120.1773 124.0348
L120.2487 123.8919
" />
<path d="M120.2487 123.8919
L120.3916 123.8205
" />
<path d="M120.3916 123.8205
L120.7487 123.8205
" />
<path d="M120.7487 123.8205
L120.8916 123.7491
" />
<path d="M122.2487 124.3919
L122.2487 122.8919
" />
<path d="M122.2487 124.3205
L122.1059 124.3919
" />
<path d="M122.1059 124.3919
L121.8202 124.3919
" />
<path d="M121.8202 124.3919
L121.6773 124.3205
" />
<path d="M121.6773 124.3205
L121.6059 124.2491
" />
<path d="M121.6059 124.2491
L121.5345 124.1062
" />
<path d="M121.5345 124.1062
L121.5345 123.6776
" />
<path d="M121.5345 123.6776
L121.6059 123.5348
" />
<path d="M121.6059 123.5348
L121.6773 123.4634
" />
<path d="M121.6773 123.4634
L121.8202 123.3919
" />
<path d="M121.8202 123.3919
L122.1059 123.3919
" />
<path d="M122.1059 123.3919
L122.2487 123.4634
" />
<path d="M122.6059 124.5348
L123.7487 124.5348
" />
<path d="M124.1059 123.3919
L124.1059 124.8919
" />
<path d="M124.1059 123.4634
L124.2487 123.3919
" />
<path d="M124.2487 123.3919
L124.5345 123.3919
" />
<path d="M124.5345 123.3919
L124.6773 123.4634
" />
<path d="M124.6773 123.4634
L124.7487 123.5348
" />
<path d="M124.7487 123.5348
L124.8202 123.6776
" />
<path d="M124.8202 123.6776
L124.8202 124.1062
" />
<path d="M124.8202 124.1062
L124.7487 124.2491
" />
<path d="M124.7487 124.2491
L124.6773 124.3205
" />
<path d="M124.6773 124.3205
L124.5345 124.3919
" />
<path d="M124.5345 124.3919
L124.2487 124.3919
" />
<path d="M124.2487 124.3919
L124.1059 124.3205
" />
<path d="M126.1059 124.3205
L125.9630 124.3919
" />
<path d="M125.9630 124.3919
L125.6773 124.3919
" />
<path d="M125.6773 124.3919
L125.5345 124.3205
" />
<path d="M125.5345 124.3205
L125.4630 124.2491
" />
<path d="M125.4630 124.2491
L125.3916 124.1062
" />
<path d="M125.3916 124.1062
L125.3916 123.6776
" />
<path d="M125.3916 123.6776
L125.4630 123.5348
" />
<path d="M125.4630 123.5348
L125.5345 123.4634
" />
<path d="M125.5345 123.4634
L125.6773 123.3919
" />
<path d="M125.6773 123.3919
L125.9630 123.3919
" />
<path d="M125.9630 123.3919
L126.1059 123.4634
" />
<path d="M126.7487 124.3919
L126.7487 122.8919
" />
<path d="M126.7487 123.4634
L126.8916 123.3919
" />
<path d="M126.8916 123.3919
L127.1773 123.3919
" />
<path d="M127.1773 123.3919
L127.3202 123.4634
" />
<path d="M127.3202 123.4634
L127.3916 123.5348
" />
<path d="M127.3916 123.5348
L127.4630 123.6776
" />
<path d="M127.4630 123.6776
L127.4630 124.1062
" />
<path d="M127.4630 124.1062
L127.3916 124.2491
" />
<path d="M127.3916 124.2491
L127.3202 124.3205
" />
<path d="M127.3202 124.3205
L127.1773 124.3919
" />
<path d="M127.1773 124.3919
L126.8916 124.3919
" />
<path d="M126.8916 124.3919
L126.7487 124.3205
" />
</g></g>
<g style="fill:none; 
stroke:#000000; stroke-width:0.1500; stroke-opacity:1; 
stroke-linecap:round; stroke-linejoin:round;">
<path d="M90.0072 119.5058
L198.0072 119.5058
" />
</g>
<g style="fill:none; 
stroke:#000000; stroke-width:0.1500; stroke-opacity:1; 
stroke-linecap:round; stroke-linejoin:round;">
<text x="91.0072" y="121.7558"
textLength="8.2214" font-size="2.0000" lengthAdjust="spacingAndGlyphs"
text-anchor="start" opacity="0" stroke-opacity="0">Sheet: </text>
<g class="stroked-text"><desc>Sheet: </desc>
<path d="M91.3916 121.6205
L91.6059 121.6919
" />
<path d="M91.6059 121.6919
L91.9630 121.6919
" />
<path d="M91.9630 121.6919
L92.1059 121.6205
" />
<path d="M92.1059 121.6205
L92.1773 121.5491
" />
<path d="M92.1773 121.5491
L92.2487 121.4062
" />
<path d="M92.2487 121.4062
L92.2487 121.2634
" />
<path d="M92.2487 121.2634
L92.1773 121.1205
" />
<path d="M92.1773 121.1205
L92.1059 121.0491
" />
<path d="M92.1059 121.0491
L91.9630 120.9776
" />
<path d="M91.9630 120.9776
L91.6773 120.9062
" />
<path d="M91.6773 120.9062
L91.5345 120.8348
" />
<path d="M91.5345 120.8348
L91.4630 120.7634
" />
<path d="M91.4630 120.7634
L91.3916 120.6205
" />
<path d="M91.3916 120.6205
L91.3916 120.4776
" />
<path d="M91.3916 120.4776
L91.4630 120.3348
" />
<path d="M91.4630 120.3348
L91.5345 120.2634
" />
<path d="M91.5345 120.2634
L91.6773 120.1919
" />
<path d="M91.6773 120.1919
L92.0345 120.1919
" />
<path d="M92.0345 120.1919
L92.2487 120.2634
" />
<path d="M92.8916 121.6919
L92.8916 120.1919
" />
<path d="M93.5345 121.6919
L93.5345 120.9062
" />
<path d="M93.5345 120.9062
L93.4630 120.7634
" />
<path d="M93.4630 120.7634
L93.3202 120.6919
" />
<path d="M93.3202 120.6919
L93.1059 120.6919
" />
<path d="M93.1059 120.6919
L92.9630 120.7634
" />
<path d="M92.9630 120.7634
L92.8916 120.8348
" />
<path d="M94.8202 121.6205
L94.6773 121.6919
" />
<path d="M94.6773 121.6919
L94.3916 121.6919
" />
<path d="M94.3916 121.6919
L94.2487 121.6205
" />
<path d="M94.2487 121.6205
L94.1773 121.4776
" />
<path d="M94.1773 121.4776
L94.1773 120.9062
" />
<path d="M94.1773 120.9062
L94.2487 120.7634
" />
<path d="M94.2487 120.7634
L94.3916 120.6919
" />
<path d="M94.3916 120.6919
L94.6773 120.6919
" />
<path d="M94.6773 120.6919
L94.8202 120.7634
" />
<path d="M94.8202 120.7634
L94.8916 120.9062
" />
<path d="M94.8916 120.9062
L94.8916 121.0491
" />
<path d="M94.8916 121.0491
L94.1773 121.1919
" />
<path d="M96.1059 121.6205
L95.9630 121.6919
" />
<path d="M95.9630 121.6919
L95.6773 121.6919
" />
<path d="M95.6773 121.6919
L95.5345 121.6205
" />
<path d="M95.5345 121.6205
L95.4630 121.4776
" />
<path d="M95.4630 121.4776
L95.4630 120.9062
" />
<path d="M95.4630 120.9062
L95.5345 120.7634
" />
<path d="M95.5345 120.7634
L95.6773 120.6919
" />
<path d="M95.6773 120.6919
L95.9630 120.6919
" />
<path d="M95.9630 120.6919
L96.1059 120.7634
" />
<path d="M96.1059 120.7634
L96.1773 120.9062
" />
<path d="M96.1773 120.9062
L96.1773 121.0491
" />
<path d="M96.1773 121.0491
L95.4630 121.1919
" />
<path d="M96.6059 120.6919
L97.1773 120.6919
" />
<path d="M96.8202 120.1919
L96.8202 121.4776
" />
<path d="M96.8202 121.4776
L96.8916 121.6205
" />
<path d="M96.8916 121.6205
L97.0345 121.6919
" />
<path d="M97.0345 121.6919
L97.1773 121.6919
" />
<path d="M97.6773 121.5491
L97.7487 121.6205
" />
<path d="M97.7487 121.6205
L97.6773 121.6919
" />
<path d="M97.6773 121.6919
L97.6059 121.6205
" />
<path d="M97.6059 121.6205
L97.6773 121.5491
" />
<path d="M97.6773 121.5491
L97.6773 121.6919
" />
<path d="M97.6773 120.7634
L97.7487 120.8348
" />
<path d="M97.7487 120.8348
L97.6773 120.9062
" />
<path d="M97.6773 120.9062
L97.6059 120.8348
" />
<path d="M97.6059 120.8348
L97.6773 120.7634
" />
<path d="M97.6773 120.7634
L97.6773 120.9062
" />
</g></g>
<g style="fill:none; 
stroke:#000000; stroke-width:0.3000; stroke-opacity:1; 
stroke-linecap:round; stroke-linejoin:round;">
<text x="91.0072" y="118.7558"
textLength="0.9000" font-size="2.0000" lengthAdjust="spacingAndGlyphs"
text-anchor="start" opacity="0" stroke-opacity="0"></text>
<g class="stroked-text"><desc></desc>
</g></g>
<g style="fill:none; 
stroke:#000000; stroke-width:0.1500; stroke-opacity:1; 
stroke-linecap:round; stroke-linejoin:round;">
<text x="91.0072" y="115.7558"
textLength="0.4500" font-size="2.0000" lengthAdjust="spacingAndGlyphs"
text-anchor="start" opacity="0" stroke-opacity="0"></text>
<g class="stroked-text"><desc></desc>
</g></g>
<g style="fill:none; 
stroke:#000000; stroke-width:0.1500; stroke-opacity:1; 
stroke-linecap:round; stroke-linejoin:round;">
<text x="91.0072" y="112.7558"
textLength="0.4500" font-size="2.0000" lengthAdjust="spacingAndGlyphs"
text-anchor="start" opacity="0" stroke-opacity="0"></text>
<g class="stroked-text"><desc></desc>
</g></g>
<g style="fill:none; 
stroke:#000000; stroke-width:0.1500; stroke-opacity:1; 
stroke-linecap:round; stroke-linejoin:round;">
<text x="91.0072" y="109.7558"
textLength="0.4500" font-size="2.0000" lengthAdjust="spacingAndGlyphs"
text-anchor="start" opacity="0" stroke-opacity="0"></text>
<g class="stroked-text"><desc></desc>
</g></g>
<g style="fill:none; 
stroke:#000000; stroke-width:0.1500; stroke-opacity:1; 
stroke-linecap:round; stroke-linejoin:round;">
<text x="91.0072" y="106.7558"
textLength="0.4500" font-size="2.0000" lengthAdjust="spacingAndGlyphs"
text-anchor="start" opacity="0" stroke-opacity="0"></text>
<g class="stroked-text"><desc></desc>
</g></g>
<g style="fill:none; 
stroke:#000000; stroke-width:0.1500; stroke-opacity:1; 
stroke-linecap:round; stroke-linejoin:round;">
<path d="M110.0072 129.5058
L110.0072 132.5058
" />
</g>
<g style="fill:none; 
stroke:#000000; stroke-width:0.1500; stroke-opacity:1; 
stroke-linecap:round; stroke-linejoin:round;">
<path d="M174.0072 129.5058
L174.0072 136.0058
" />
<path style="fill:none; 
stroke:#000000; stroke-width:0.0500; stroke-opacity:1; 
stroke-linecap:round; stroke-linejoin:round;fill:none"
d="M 50.0000,50.0000
150.0000,50.0000
150.0000,100.0000
50.0000,100.0000
Z" /> 
</g>
<g style="fill:none; 
stroke:#000000; stroke-width:0.1500; stroke-opacity:1; 
stroke-linecap:round; stroke-linejoin:round;">
<text x="64.7700" y="90.9800"
textLength="1.9643" font-size="1.3333" lengthAdjust="spacingAndGlyphs"
text-anchor="middle" opacity="0" stroke-opacity="0">J1</text>
<g class="stroked-text"><desc>J1</desc>
<path d="M64.4367 89.9348
L64.4367 90.6491
" />
<path d="M64.4367 90.6491
L64.3890 90.7920
" />
<path d="M64.3890 90.7920
L64.2938 90.8872
" />
<path d="M64.2938 90.8872
L64.1510 90.9348
" />
<path d="M64.1510 90.9348
L64.0557 90.9348
" />
<path d="M65.4367 90.9348
L64.8652 90.9348
" />
<path d="M65.1510 90.9348
L65.1510 89.9348
" />
<path d="M65.1510 89.9348
L65.0557 90.0777
" />
<path d="M65.0557 90.0777
L64.9605 90.1729
" />
<path d="M64.9605 90.1729
L64.8652 90.2205
" />
</g><g transform="rotate(-90.000000 73.4500 71.1200)">
<text x="73.4500" y="71.6200"
textLength="1.9643" font-size="1.3333" lengthAdjust="spacingAndGlyphs"
text-anchor="middle" opacity="0" stroke-opacity="0">J4</text>
</g>
<g class="stroked-text"><desc>J4</desc>
<path d="M72.9048 71.4533
L73.6191 71.4533
" />
<path d="M73.6191 71.4533
L73.7620 71.5010
" />
<path d="M73.7620 71.5010
L73.8572 71.5962
" />
<path d="M73.8572 71.5962
L73.9048 71.7390
" />
<path d="M73.9048 71.7390
L73.9048 71.8343
" />
<path d="M73.2382 70.5486
L73.9048 70.5486
" />
<path d="M72.8572 70.7867
L73.5715 71.0248
" />
<path d="M73.5715 71.0248
L73.5715 70.4057
" />
</g><g transform="rotate(-90.000000 129.5400 71.1200)">
<text x="129.5400" y="71.6200"
textLength="2.0595" font-size="1.3333" lengthAdjust="spacingAndGlyphs"
text-anchor="middle" opacity="0" stroke-opacity="0">A2</text>
</g>
<g class="stroked-text"><desc>A2</desc>
<path d="M129.7091 71.8343
L129.7091 71.3581
" />
<path d="M129.9948 71.9295
L128.9948 71.5962
" />
<path d="M128.9948 71.5962
L129.9948 71.2629
" />
<path d="M129.0901 70.9771
L129.0424 70.9295
" />
<path d="M129.0424 70.9295
L128.9948 70.8343
" />
<path d="M128.9948 70.8343
L128.9948 70.5962
" />
<path d="M128.9948 70.5962
L129.0424 70.5010
" />
<path d="M129.0424 70.5010
L129.0901 70.4533
" />
<path d="M129.0901 70.4533
L129.1853 70.4057
" />
<path d="M129.1853 70.4057
L129.2805 70.4057
" />
<path d="M129.2805 70.4057
L129.4234 70.4533
" />
<path d="M129.4234 70.4533
L129.9948 71.0248
" />
<path d="M129.9948 71.0248
L129.9948 70.4057
" />
</g><g transform="rotate(-180.000000 121.9200 65.4050)">
<text x="121.9200" y="65.9050"
textLength="2.2024" font-size="1.3333" lengthAdjust="spacingAndGlyphs"
text-anchor="middle" opacity="0" stroke-opacity="0">D0</text>
</g>
<g class="stroked-text"><desc>D0</desc>
<path d="M122.6581 64.9502
L122.6581 65.9502
" />
<path d="M122.6581 65.9502
L122.4200 65.9502
" />
<path d="M122.4200 65.9502
L122.2771 65.9026
" />
<path d="M122.2771 65.9026
L122.1819 65.8073
" />
<path d="M122.1819 65.8073
L122.1343 65.7121
" />
<path d="M122.1343 65.7121
L122.0867 65.5216
" />
<path d="M122.0867 65.5216
L122.0867 65.3788
" />
<path d="M122.0867 65.3788
L122.1343 65.1883
" />
<path d="M122.1343 65.1883
L122.1819 65.0930
" />
<path d="M122.1819 65.0930
L122.2771 64.9978
" />
<path d="M122.2771 64.9978
L122.4200 64.9502
" />
<path d="M122.4200 64.9502
L122.6581 64.9502
" />
<path d="M121.4676 65.9502
L121.3724 65.9502
" />
<path d="M121.3724 65.9502
L121.2771 65.9026
" />
<path d="M121.2771 65.9026
L121.2295 65.8549
" />
<path d="M121.2295 65.8549
L121.1819 65.7597
" />
<path d="M121.1819 65.7597
L121.1343 65.5692
" />
<path d="M121.1343 65.5692
L121.1343 65.3311
" />
<path d="M121.1343 65.3311
L121.1819 65.1407
" />
<path d="M121.1819 65.1407
L121.2295 65.0454
" />
<path d="M121.2295 65.0454
L121.2771 64.9978
" />
<path d="M121.2771 64.9978
L121.3724 64.9502
" />
<path d="M121.3724 64.9502
L121.4676 64.9502
" />
<path d="M121.4676 64.9502
L121.5629 64.9978
" />
<path d="M121.5629 64.9978
L121.6105 65.0454
" />
<path d="M121.6105 65.0454
L121.6581 65.1407
" />
<path d="M121.6581 65.1407
L121.7057 65.3311
" />
<path d="M121.7057 65.3311
L121.7057 65.5692
" />
<path d="M121.7057 65.5692
L121.6581 65.7597
" />
<path d="M121.6581 65.7597
L121.6105 65.8549
" />
<path d="M121.6105 65.8549
L121.5629 65.9026
" />
<path d="M121.5629 65.9026
L121.4676 65.9502
" />
</g><g transform="rotate(-90.000000 112.8800 87.6300)">
<text x="112.8800" y="88.1300"
textLength="2.2024" font-size="1.3333" lengthAdjust="spacingAndGlyphs"
text-anchor="middle" opacity="0" stroke-opacity="0">D1</text>
</g>
<g class="stroked-text"><desc>D1</desc>
<path d="M113.3348 88.3681
L112.3348 88.3681
" />
<path d="M112.3348 88.3681
L112.3348 88.1300
" />
<path d="M112.3348 88.1300
L112.3824 87.9871
" />
<path d="M112.3824 87.9871
L112.4777 87.8919
" />
<path d="M112.4777 87.8919
L112.5729 87.8443
" />
<path d="M112.5729 87.8443
L112.7634 87.7967
" />
<path d="M112.7634 87.7967
L112.9062 87.7967
" />
<path d="M112.9062 87.7967
L113.0967 87.8443
" />
<path d="M113.0967 87.8443
L113.1920 87.8919
" />
<path d="M113.1920 87.8919
L113.2872 87.9871
" />
<path d="M113.2872 87.9871
L113.3348 88.1300
" />
<path d="M113.3348 88.1300
L113.3348 88.3681
" />
<path d="M113.3348 86.8443
L113.3348 87.4157
" />
<path d="M113.3348 87.1300
L112.3348 87.1300
" />
<path d="M112.3348 87.1300
L112.4777 87.2252
" />
<path d="M112.4777 87.2252
L112.5729 87.3205
" />
<path d="M112.5729 87.3205
L112.6205 87.4157
" />
</g><g transform="rotate(-90.000000 73.4500 78.7400)">
<text x="73.4500" y="79.2400"
textLength="1.9643" font-size="1.3333" lengthAdjust="spacingAndGlyphs"
text-anchor="middle" opacity="0" stroke-opacity="0">J5</text>
</g>
<g class="stroked-text"><desc>J5</desc>
<path d="M72.9048 79.0733
L73.6191 79.0733
" />
<path d="M73.6191 79.0733
L73.7620 79.1210
" />
<path d="M73.7620 79.1210
L73.8572 79.2162
" />
<path d="M73.8572 79.2162
L73.9048 79.3590
" />
<path d="M73.9048 79.3590
L73.9048 79.4543
" />
<path d="M72.9048 78.1210
L72.9048 78.5971
" />
<path d="M72.9048 78.5971
L73.3810 78.6448
" />
<path d="M73.3810 78.6448
L73.3334 78.5971
" />
<path d="M73.3334 78.5971
L73.2858 78.5019
" />
<path d="M73.2858 78.5019
L73.2858 78.2638
" />
<path d="M73.2858 78.2638
L73.3334 78.1686
" />
<path d="M73.3334 78.1686
L73.3810 78.1210
" />
<path d="M73.3810 78.1210
L73.4762 78.0733
" />
<path d="M73.4762 78.0733
L73.7143 78.0733
" />
<path d="M73.7143 78.0733
L73.8096 78.1210
" />
<path d="M73.8096 78.1210
L73.8572 78.1686
" />
<path d="M73.8572 78.1686
L73.9048 78.2638
" />
<path d="M73.9048 78.2638
L73.9048 78.5019
" />
<path d="M73.9048 78.5019
L73.8572 78.5971
" />
<path d="M73.8572 78.5971
L73.8096 78.6448
" />
</g><g transform="rotate(-90.000000 71.1600 91.4000)">
<text x="71.1600" y="91.9000"
textLength="2.2024" font-size="1.3333" lengthAdjust="spacingAndGlyphs"
text-anchor="middle" opacity="0" stroke-opacity="0">C1</text>
</g>
<g class="stroked-text"><desc>C1</desc>
<path d="M71.5196 91.5667
L71.5672 91.6143
" />
<path d="M71.5672 91.6143
L71.6148 91.7571
" />
<path d="M71.6148 91.7571
L71.6148 91.8524
" />
<path d="M71.6148 91.8524
L71.5672 91.9952
" />
<path d="M71.5672 91.9952
L71.4720 92.0905
" />
<path d="M71.4720 92.0905
L71.3767 92.1381
" />
<path d="M71.3767 92.1381
L71.1862 92.1857
" />
<path d="M71.1862 92.1857
L71.0434 92.1857
" />
<path d="M71.0434 92.1857
L70.8529 92.1381
" />
<path d="M70.8529 92.1381
L70.7577 92.0905
" />
<path d="M70.7577 92.0905
L70.6624 91.9952
" />
<path d="M70.6624 91.9952
L70.6148 91.8524
" />
<path d="M70.6148 91.8524
L70.6148 91.7571
" />
<path d="M70.6148 91.7571
L70.6624 91.6143
" />
<path d="M70.6624 91.6143
L70.7101 91.5667
" />
<path d="M71.6148 90.6143
L71.6148 91.1857
" />
<path d="M71.6148 90.9000
L70.6148 90.9000
" />
<path d="M70.6148 90.9000
L70.7577 90.9952
" />
<path d="M70.7577 90.9952
L70.8529 91.0905
" />
<path d="M70.8529 91.0905
L70.9005 91.1857
" />
</g><text x="151.7050" y="64.2700"
textLength="1.9643" font-size="1.3333" lengthAdjust="spacingAndGlyphs"
text-anchor="middle" opacity="0" stroke-opacity="0">J6</text>
<g class="stroked-text"><desc>J6</desc>
<path d="M151.3717 63.2248
L151.3717 63.9391
" />
<path d="M151.3717 63.9391
L151.3240 64.0820
" />
<path d="M151.3240 64.0820
L151.2288 64.1772
" />
<path d="M151.2288 64.1772
L151.0860 64.2248
" />
<path d="M151.0860 64.2248
L150.9907 64.2248
" />
<path d="M152.2764 63.2248
L152.0860 63.2248
" />
<path d="M152.0860 63.2248
L151.9907 63.2724
" />
<path d="M151.9907 63.2724
L151.9431 63.3201
" />
<path d="M151.9431 63.3201
L151.8479 63.4629
" />
<path d="M151.8479 63.4629
L151.8002 63.6534
" />
<path d="M151.8002 63.6534
L151.8002 64.0343
" />
<path d="M151.8002 64.0343
L151.8479 64.1296
" />
<path d="M151.8479 64.1296
L151.8955 64.1772
" />
<path d="M151.8955 64.1772
L151.9907 64.2248
" />
<path d="M151.9907 64.2248
L152.1812 64.2248
" />
<path d="M152.1812 64.2248
L152.2764 64.1772
" />
<path d="M152.2764 64.1772
L152.3240 64.1296
" />
<path d="M152.3240 64.1296
L152.3717 64.0343
" />
<path d="M152.3717 64.0343
L152.3717 63.7962
" />
<path d="M152.3717 63.7962
L152.3240 63.7010
" />
<path d="M152.3240 63.7010
L152.2764 63.6534
" />
<path d="M152.2764 63.6534
L152.1812 63.6058
" />
<path d="M152.1812 63.6058
L151.9907 63.6058
" />
<path d="M151.9907 63.6058
L151.8955 63.6534
" />
<path d="M151.8955 63.6534
L151.8479 63.7010
" />
<path d="M151.8479 63.7010
L151.8002 63.7962
" />
</g><text x="130.8498" y="86.4825"
textLength="2.2024" font-size="1.3333" lengthAdjust="spacingAndGlyphs"
text-anchor="middle" opacity="0" stroke-opacity="0">R2</text>
<g class="stroked-text"><desc>R2</desc>
<path d="M130.6831 86.4373
L130.3498 85.9611
" />
<path d="M130.1117 86.4373
L130.1117 85.4373
" />
<path d="M130.1117 85.4373
L130.4926 85.4373
" />
<path d="M130.4926 85.4373
L130.5879 85.4849
" />
<path d="M130.5879 85.4849
L130.6355 85.5326
" />
<path d="M130.6355 85.5326
L130.6831 85.6278
" />
<path d="M130.6831 85.6278
L130.6831 85.7707
" />
<path d="M130.6831 85.7707
L130.6355 85.8659
" />
<path d="M130.6355 85.8659
L130.5879 85.9135
" />
<path d="M130.5879 85.9135
L130.4926 85.9611
" />
<path d="M130.4926 85.9611
L130.1117 85.9611
" />
<path d="M131.0641 85.5326
L131.1117 85.4849
" />
<path d="M131.1117 85.4849
L131.2069 85.4373
" />
<path d="M131.2069 85.4373
L131.4450 85.4373
" />
<path d="M131.4450 85.4373
L131.5403 85.4849
" />
<path d="M131.5403 85.4849
L131.5879 85.5326
" />
<path d="M131.5879 85.5326
L131.6355 85.6278
" />
<path d="M131.6355 85.6278
L131.6355 85.7230
" />
<path d="M131.6355 85.7230
L131.5879 85.8659
" />
<path d="M131.5879 85.8659
L131.0165 86.4373
" />
<path d="M131.0165 86.4373
L131.6355 86.4373
" />
</g><text x="73.6600" y="64.3800"
textLength="2.2024" font-size="1.3333" lengthAdjust="spacingAndGlyphs"
text-anchor="middle" opacity="0" stroke-opacity="0">R1</text>
<g class="stroked-text"><desc>R1</desc>
<path d="M73.4933 64.3348
L73.1600 63.8586
" />
<path d="M72.9219 64.3348
L72.9219 63.3348
" />
<path d="M72.9219 63.3348
L73.3029 63.3348
" />
<path d="M73.3029 63.3348
L73.3981 63.3824
" />
<path d="M73.3981 63.3824
L73.4457 63.4301
" />
<path d="M73.4457 63.4301
L73.4933 63.5253
" />
<path d="M73.4933 63.5253
L73.4933 63.6682
" />
<path d="M73.4933 63.6682
L73.4457 63.7634
" />
<path d="M73.4457 63.7634
L73.3981 63.8110
" />
<path d="M73.3981 63.8110
L73.3029 63.8586
" />
<path d="M73.3029 63.8586
L72.9219 63.8586
" />
<path d="M74.4457 64.3348
L73.8743 64.3348
" />
<path d="M74.1600 64.3348
L74.1600 63.3348
" />
<path d="M74.1600 63.3348
L74.0648 63.4777
" />
<path d="M74.0648 63.4777
L73.9695 63.5729
" />
<path d="M73.9695 63.5729
L73.8743 63.6205
" />
</g><g transform="rotate(-90.000000 111.7200 88.8600)">
<text x="111.7200" y="89.3600"
textLength="2.2024" font-size="1.3333" lengthAdjust="spacingAndGlyphs"
text-anchor="middle" opacity="0" stroke-opacity="0">C2</text>
</g>
<g class="stroked-text"><desc>C2</desc>
<path d="M112.0796 89.0267
L112.1272 89.0743
" />
<path d="M112.1272 89.0743
L112.1748 89.2171
" />
<path d="M112.1748 89.2171
L112.1748 89.3124
" />
<path d="M112.1748 89.3124
L112.1272 89.4552
" />
<path d="M112.1272 89.4552
L112.0320 89.5505
" />
<path d="M112.0320 89.5505
L111.9367 89.5981
" />
<path d="M111.9367 89.5981
L111.7462 89.6457
" />
<path d="M111.7462 89.6457
L111.6034 89.6457
" />
<path d="M111.6034 89.6457
L111.4129 89.5981
" />
<path d="M111.4129 89.5981
L111.3177 89.5505
" />
<path d="M111.3177 89.5505
L111.2224 89.4552
" />
<path d="M111.2224 89.4552
L111.1748 89.3124
" />
<path d="M111.1748 89.3124
L111.1748 89.2171
" />
<path d="M111.1748 89.2171
L111.2224 89.0743
" />
<path d="M111.2224 89.0743
L111.2701 89.0267
" />
<path d="M111.2701 88.6457
L111.2224 88.5981
" />
<path d="M111.2224 88.5981
L111.1748 88.5029
" />
<path d="M111.1748 88.5029
L111.1748 88.2648
" />
<path d="M111.1748 88.2648
L111.2224 88.1695
" />
<path d="M111.2224 88.1695
L111.2701 88.1219
" />
<path d="M111.2701 88.1219
L111.3653 88.0743
" />
<path d="M111.3653 88.0743
L111.4605 88.0743
" />
<path d="M111.4605 88.0743
L111.6034 88.1219
" />
<path d="M111.6034 88.1219
L112.1748 88.6933
" />
<path d="M112.1748 88.6933
L112.1748 88.0743
" />
</g><g transform="rotate(-90.000000 92.3270 88.9083)">
<text x="92.3270" y="89.4083"
textLength="2.2500" font-size="1.3333" lengthAdjust="spacingAndGlyphs"
text-anchor="middle" opacity="0" stroke-opacity="0">U1</text>
</g>
<g class="stroked-text"><desc>U1</desc>
<path d="M91.7818 89.6702
L92.5913 89.6702
" />
<path d="M92.5913 89.6702
L92.6866 89.6225
" />
<path d="M92.6866 89.6225
L92.7342 89.5749
" />
<path d="M92.7342 89.5749
L92.7818 89.4797
" />
<path d="M92.7818 89.4797
L92.7818 89.2892
" />
<path d="M92.7818 89.2892
L92.7342 89.1940
" />
<path d="M92.7342 89.1940
L92.6866 89.1464
" />
<path d="M92.6866 89.1464
L92.5913 89.0987
" />
<path d="M92.5913 89.0987
L91.7818 89.0987
" />
<path d="M92.7818 88.0987
L92.7818 88.6702
" />
<path d="M92.7818 88.3845
L91.7818 88.3845
" />
<path d="M91.7818 88.3845
L91.9247 88.4797
" />
<path d="M91.9247 88.4797
L92.0199 88.5749
" />
<path d="M92.0199 88.5749
L92.0675 88.6702
" />
</g><text x="88.1900" y="60.3400"
textLength="3.2976" font-size="1.3333" lengthAdjust="spacingAndGlyphs"
text-anchor="middle" opacity="0" stroke-opacity="0">SW1</text>
<g class="stroked-text"><desc>SW1</desc>
<path d="M86.8567 60.2472
L86.9995 60.2948
" />
<path d="M86.9995 60.2948
L87.2376 60.2948
" />
<path d="M87.2376 60.2948
L87.3329 60.2472
" />
<path d="M87.3329 60.2472
L87.3805 60.1996
" />
<path d="M87.3805 60.1996
L87.4281 60.1043
" />
<path d="M87.4281 60.1043
L87.4281 60.0091
" />
<path d="M87.4281 60.0091
L87.3805 59.9139
" />
<path d="M87.3805 59.9139
L87.3329 59.8662
" />
<path d="M87.3329 59.8662
L87.2376 59.8186
" />
<path d="M87.2376 59.8186
L87.0471 59.7710
" />
<path d="M87.0471 59.7710
L86.9519 59.7234
" />
<path d="M86.9519 59.7234
L86.9043 59.6758
" />
<path d="M86.9043 59.6758
L86.8567 59.5805
" />
<path d="M86.8567 59.5805
L86.8567 59.4853
" />
<path d="M86.8567 59.4853
L86.9043 59.3901
" />
<path d="M86.9043 59.3901
L86.9519 59.3424
" />
<path d="M86.9519 59.3424
L87.0471 59.2948
" />
<path d="M87.0471 59.2948
L87.2852 59.2948
" />
<path d="M87.2852 59.2948
L87.4281 59.3424
" />
<path d="M87.7614 59.2948
L87.9995 60.2948
" />
<path d="M87.9995 60.2948
L88.1900 59.5805
" />
<path d="M88.1900 59.5805
L88.3805 60.2948
" />
<path d="M88.3805 60.2948
L88.6186 59.2948
" />
<path d="M89.5233 60.2948
L88.9519 60.2948
" />
<path d="M89.2376 60.2948
L89.2376 59.2948
" />
<path d="M89.2376 59.2948
L89.1424 59.4377
" />
<path d="M89.1424 59.4377
L89.0471 59.5329
" />
<path d="M89.0471 59.5329
L88.9519 59.5805
" />
</g></g>
<g style="fill:none; 
stroke:#000000; stroke-width:0.1200; stroke-opacity:1; 
stroke-linecap:round; stroke-linejoin:round;">
<path d="M62.1200 83.3700
L62.1200 89.3900
" />
<path d="M62.1200 89.3900
L67.4200 89.3900
" />
<path d="M62.7000 88.7900
L62.7000 89.3900
" />
<path d="M63.5000 84.3700
L63.5000 83.3700
" />
<path d="M63.7500 83.3700
L63.7500 84.3700
" />
<path d="M63.7500 84.9000
L63.5000 84.3700
" />
<path d="M64.3000 88.7900
L62.7000 88.7900
" />
<path d="M64.3000 89.3900
L64.3000 88.7900
" />
<path d="M65.2400 88.7900
L65.2400 89.3900
" />
<path d="M65.7900 83.3700
L65.7900 84.3700
" />
<path d="M65.7900 84.9000
L63.7500 84.9000
" />
<path d="M66.0400 83.3700
L66.0400 84.3700
" />
<path d="M66.0400 84.3700
L63.5000 84.3700
" />
<path d="M66.0400 84.3700
L65.7900 84.9000
" />
<path d="M66.8400 88.7900
L65.2400 88.7900
" />
<path d="M66.8400 89.3900
L66.8400 88.7900
" />
<path d="M67.4200 83.3700
L62.1200 83.3700
" />
<path d="M67.4200 89.3900
L67.4200 83.3700
" />
<path d="M67.7100 88.3600
L67.7100 84.3600
" />
<path d="M64.7100 69.7900
L64.7100 72.4500
" />
<path d="M69.8500 69.7900
L64.7100 69.7900
" />
<path d="M69.8500 69.7900
L69.8500 72.4500
" />
<path d="M69.8500 72.4500
L64.7100 72.4500
" />
<path d="M71.1200 69.7900
L72.4500 69.7900
" />
<path d="M72.4500 69.7900
L72.4500 71.1200
" />
</g>
<g style="fill:none; 
stroke:#000000; stroke-width:0.1500; stroke-opacity:1; 
stroke-linecap:round; stroke-linejoin:round;">
<path d="M85.0900 62.2300
L85.0900 80.0100
" />
<path d="M128.2700 62.2300
L85.0900 62.2300
" />
<path d="M128.2700 62.2300
L128.2700 80.0100
" />
<path d="M128.2700 80.0100
L85.0900 80.0100
" />
</g>
<g style="fill:none; 
stroke:#000000; stroke-width:0.1200; stroke-opacity:1; 
stroke-linecap:round; stroke-linejoin:round;">
<path d="M115.2950 90.1900
L118.3850 90.1900
" />
<path d="M116.8405 84.6400 A2.9900 2.9900 0.0 0 0 115.2952 90.1900" />
<path d="M118.3848 90.1900 A2.9900 2.9900 0.0 0 0 116.8395 84.6400" />
<circle cx="116.8400" cy="87.6300" r="2.5000" /> 
<path d="M64.7100 77.4100
L64.7100 80.0700
" />
<path d="M69.8500 77.4100
L64.7100 77.4100
" />
<path d="M69.8500 77.4100
L69.8500 80.0700
" />
<path d="M69.8500 80.0700
L64.7100 80.0700
" />
<path d="M71.1200 77.4100
L72.4500 77.4100
" />
<path d="M72.4500 77.4100
L72.4500 78.7400
" />
<path d="M72.2900 87.7800
L75.0300 87.7800
" />
<path d="M72.2900 95.0200
L72.2900 87.7800
" />
<path d="M72.2900 95.0200
L75.0300 95.0200
" />
<path d="M75.0300 95.0200
L75.0300 87.7800
" />
<path d="M146.0500 64.7700
L147.3200 64.7700
" />
<path d="M146.0500 66.0400
L146.0500 64.7700
" />
<path d="M148.3629 68.2000
L148.7600 68.2000
" />
<path d="M148.3629 68.9600
L148.7600 68.9600
" />
<path d="M148.3629 70.7400
L148.7600 70.7400
" />
<path d="M148.3629 71.5000
L148.7600 71.5000
" />
<path d="M148.3629 73.2800
L148.7600 73.2800
" />
<path d="M148.3629 74.0400
L148.7600 74.0400
" />
<path d="M148.3629 75.8200
L148.7600 75.8200
" />
<path d="M148.3629 76.5800
L148.7600 76.5800
" />
<path d="M148.3629 78.3600
L148.7600 78.3600
" />
<path d="M148.3629 79.1200
L148.7600 79.1200
" />
<path d="M148.3629 80.9000
L148.7600 80.9000
" />
<path d="M148.3629 81.6600
L148.7600 81.6600
" />
<path d="M148.3629 83.4400
L148.7600 83.4400
" />
<path d="M148.3629 84.2000
L148.7600 84.2000
" />
<path d="M148.4300 65.6600
L148.7600 65.6600
" />
<path d="M148.4300 66.4200
L148.7600 66.4200
" />
<path d="M148.7600 64.7100
L148.7600 85.1500
" />
<path d="M148.7600 67.3100
L151.4200 67.3100
" />
<path d="M148.7600 69.8500
L151.4200 69.8500
" />
<path d="M148.7600 72.3900
L151.4200 72.3900
" />
<path d="M148.7600 74.9300
L151.4200 74.9300
" />
<path d="M148.7600 77.4700
L151.4200 77.4700
" />
<path d="M148.7600 80.0100
L151.4200 80.0100
" />
<path d="M148.7600 82.5500
L151.4200 82.5500
" />
<path d="M148.7600 85.1500
L151.4200 85.1500
" />
<path d="M151.4200 64.7100
L148.7600 64.7100
" />
<path d="M151.4200 65.6600
L157.4200 65.6600
" />
<path d="M151.4200 65.7200
L157.4200 65.7200
" />
<path d="M151.4200 65.8400
L157.4200 65.8400
" />
<path d="M151.4200 65.9600
L157.4200 65.9600
" />
<path d="M151.4200 66.0800
L157.4200 66.0800
" />
<path d="M151.4200 66.2000
L157.4200 66.2000
" />
<path d="M151.4200 66.3200
L157.4200 66.3200
" />
<path d="M151.4200 68.2000
L157.4200 68.2000
" />
<path d="M151.4200 70.7400
L157.4200 70.7400
" />
<path d="M151.4200 73.2800
L157.4200 73.2800
" />
<path d="M151.4200 75.8200
L157.4200 75.8200
" />
<path d="M151.4200 78.3600
L157.4200 78.3600
" />
<path d="M151.4200 80.9000
L157.4200 80.9000
" />
<path d="M151.4200 83.4400
L157.4200 83.4400
" />
<path d="M151.4200 85.1500
L151.4200 64.7100
" />
<path d="M157.4200 65.6600
L157.4200 66.4200
" />
<path d="M157.4200 66.4200
L151.4200 66.4200
" />
<path d="M157.4200 68.2000
L157.4200 68.9600
" />
<path d="M157.4200 68.9600
L151.4200 68.9600
" />
<path d="M157.4200 70.7400
L157.4200 71.5000
" />
<path d="M157.4200 71.5000
L151.4200 71.5000
" />
<path d="M157.4200 73.2800
L157.4200 74.0400
" />
<path d="M157.4200 74.0400
L151.4200 74.0400
" />
<path d="M157.4200 75.8200
L157.4200 76.5800
" />
<path d="M157.4200 76.5800
L151.4200 76.5800
" />
<path d="M157.4200 78.3600
L157.4200 79.1200
" />
<path d="M157.4200 79.1200
L151.4200 79.1200
" />
<path d="M157.4200 80.9000
L157.4200 81.6600
" />
<path d="M157.4200 81.6600
L151.4200 81.6600
" />
<path d="M157.4200 83.4400
L157.4200 84.2000
" />
<path d="M157.4200 84.2000
L151.4200 84.2000
" />
<path d="M125.7798 86.9825
L135.9198 86.9825
" />
<path d="M125.7798 87.4625
L125.7798 86.9825
" />
<path d="M125.7798 90.3425
L125.7798 90.8225
" />
<path d="M125.7798 90.8225
L135.9198 90.8225
" />
<path d="M135.9198 86.9825
L135.9198 87.4625
" />
<path d="M135.9198 90.8225
L135.9198 90.3425
" />
<path d="M68.5900 59.0400
L68.5900 59.5200
" />
<path d="M68.5900 62.8800
L68.5900 62.4000
" />
<path d="M78.7300 59.0400
L68.5900 59.0400
" />
<path d="M78.7300 59.5200
L78.7300 59.0400
" />
<path d="M78.7300 62.4000
L78.7300 62.8800
" />
<path d="M78.7300 62.8800
L68.5900 62.8800
" />
<path d="M107.8500 85.2400
L107.8500 92.4800
" />
<path d="M110.5900 85.2400
L107.8500 85.2400
" />
<path d="M110.5900 85.2400
L110.5900 92.4800
" />
<path d="M110.5900 92.4800
L107.8500 92.4800
" />
<path d="M93.2500 81.2400
L97.8910 81.2400
" />
<path d="M93.2500 84.5090
L94.7600 84.5090
" />
<path d="M93.2500 88.2100
L94.7600 88.2100
" />
<path d="M93.2500 91.4800
L93.2500 81.2400
" />
<path d="M93.2500 91.4800
L97.8910 91.4800
" />
<path d="M94.7600 91.4800
L94.7600 81.2400
" />
<path d="M97.8910 91.4800
L97.8910 81.2400
" />
<path d="M84.6900 54.8400
L84.6900 56.3400
" />
<path d="M85.9400 58.8400
L90.4400 58.8400
" />
<path d="M90.4400 52.3400
L85.9400 52.3400
" />
<path d="M91.6900 56.3400
L91.6900 54.8400
" />
</g> 
</svg>
