<?xml version="1.0" standalone="no"?>
 <!DOCTYPE svg PUBLIC "-//W3C//DTD SVG 1.1//EN" 
 "http://www.w3.org/Graphics/SVG/1.1/DTD/svg11.dtd"> 
<svg
  xmlns:svg="http://www.w3.org/2000/svg"
  xmlns="http://www.w3.org/2000/svg"
  xmlns:xlink="http://www.w3.org/1999/xlink"
  version="1.1"
  width="297.0022mm" height="210.0072mm" viewBox="0.0000 0.0000 297.0022 210.0072">
<title>SVG Image created as modulo_seguidor-B_Mask.svg date 2025/09/09 17:03:14 </title>
  <desc>Image generated by PCBNEW </desc>
<g style="fill:#000000; fill-opacity:1.0000;stroke:#000000; stroke-opacity:1.0000;
stroke-linecap:round; stroke-linejoin:round;"
 transform="translate(0 0) scale(1 1)">
</g>
<g style="fill:none; 
stroke:#000000; stroke-width:0.1500; stroke-opacity:1; 
stroke-linecap:round; stroke-linejoin:round;">
<path d="M177.0022 166.0072
L285.0022 166.0072
L285.0022 198.0072
L177.0022 198.0072
L177.0022 166.0072
" />
</g>
<g style="fill:none; 
stroke:#000000; stroke-width:0.1500; stroke-opacity:1; 
stroke-linecap:round; stroke-linejoin:round;">
<path d="M10.0000 10.0000
L287.0022 10.0000
L287.0022 200.0072
L10.0000 200.0072
L10.0000 10.0000
" />
</g>
<g style="fill:none; 
stroke:#000000; stroke-width:0.1500; stroke-opacity:1; 
stroke-linecap:round; stroke-linejoin:round;">
<path d="M12.0000 12.0000
L285.0022 12.0000
L285.0022 198.0072
L12.0000 198.0072
L12.0000 12.0000
" />
</g>
<g style="fill:none; 
stroke:#000000; stroke-width:0.1500; stroke-opacity:1; 
stroke-linecap:round; stroke-linejoin:round;">
<path d="M60.0000 12.0000
L60.0000 10.0000
" />
</g>
<g style="fill:none; 
stroke:#000000; stroke-width:0.1500; stroke-opacity:1; 
stroke-linecap:round; stroke-linejoin:round;">
<path d="M110.0000 12.0000
L110.0000 10.0000
" />
</g>
<g style="fill:none; 
stroke:#000000; stroke-width:0.1500; stroke-opacity:1; 
stroke-linecap:round; stroke-linejoin:round;">
<path d="M160.0000 12.0000
L160.0000 10.0000
" />
</g>
<g style="fill:none; 
stroke:#000000; stroke-width:0.1500; stroke-opacity:1; 
stroke-linecap:round; stroke-linejoin:round;">
<path d="M210.0000 12.0000
L210.0000 10.0000
" />
</g>
<g style="fill:none; 
stroke:#000000; stroke-width:0.1500; stroke-opacity:1; 
stroke-linecap:round; stroke-linejoin:round;">
<path d="M260.0000 12.0000
L260.0000 10.0000
" />
</g>
<g style="fill:none; 
stroke:#000000; stroke-width:0.1500; stroke-opacity:1; 
stroke-linecap:round; stroke-linejoin:round;">
<text x="35.0000" y="11.6500"
textLength="1.4281" font-size="1.7333" lengthAdjust="spacingAndGlyphs"
text-anchor="start" opacity="0" stroke-opacity="0">1</text>
<g class="stroked-text"><desc>1</desc>
<path d="M36.0892 11.5936
L35.3463 11.5936
" />
<path d="M35.7177 11.5936
L35.7177 10.2936
" />
<path d="M35.7177 10.2936
L35.5939 10.4793
" />
<path d="M35.5939 10.4793
L35.4701 10.6031
" />
<path d="M35.4701 10.6031
L35.3463 10.6650
" />
</g></g>
<g style="fill:none; 
stroke:#000000; stroke-width:0.1500; stroke-opacity:1; 
stroke-linecap:round; stroke-linejoin:round;">
<text x="85.0000" y="11.6500"
textLength="1.4281" font-size="1.7333" lengthAdjust="spacingAndGlyphs"
text-anchor="start" opacity="0" stroke-opacity="0">2</text>
<g class="stroked-text"><desc>2</desc>
<path d="M85.3463 10.4174
L85.4082 10.3555
" />
<path d="M85.4082 10.3555
L85.5320 10.2936
" />
<path d="M85.5320 10.2936
L85.8415 10.2936
" />
<path d="M85.8415 10.2936
L85.9654 10.3555
" />
<path d="M85.9654 10.3555
L86.0273 10.4174
" />
<path d="M86.0273 10.4174
L86.0892 10.5412
" />
<path d="M86.0892 10.5412
L86.0892 10.6650
" />
<path d="M86.0892 10.6650
L86.0273 10.8507
" />
<path d="M86.0273 10.8507
L85.2844 11.5936
" />
<path d="M85.2844 11.5936
L86.0892 11.5936
" />
</g></g>
<g style="fill:none; 
stroke:#000000; stroke-width:0.1500; stroke-opacity:1; 
stroke-linecap:round; stroke-linejoin:round;">
<text x="135.0000" y="11.6500"
textLength="1.4281" font-size="1.7333" lengthAdjust="spacingAndGlyphs"
text-anchor="start" opacity="0" stroke-opacity="0">3</text>
<g class="stroked-text"><desc>3</desc>
<path d="M135.2844 10.2936
L136.0892 10.2936
" />
<path d="M136.0892 10.2936
L135.6558 10.7888
" />
<path d="M135.6558 10.7888
L135.8415 10.7888
" />
<path d="M135.8415 10.7888
L135.9654 10.8507
" />
<path d="M135.9654 10.8507
L136.0273 10.9127
" />
<path d="M136.0273 10.9127
L136.0892 11.0365
" />
<path d="M136.0892 11.0365
L136.0892 11.3460
" />
<path d="M136.0892 11.3460
L136.0273 11.4698
" />
<path d="M136.0273 11.4698
L135.9654 11.5317
" />
<path d="M135.9654 11.5317
L135.8415 11.5936
" />
<path d="M135.8415 11.5936
L135.4701 11.5936
" />
<path d="M135.4701 11.5936
L135.3463 11.5317
" />
<path d="M135.3463 11.5317
L135.2844 11.4698
" />
</g></g>
<g style="fill:none; 
stroke:#000000; stroke-width:0.1500; stroke-opacity:1; 
stroke-linecap:round; stroke-linejoin:round;">
<text x="185.0000" y="11.6500"
textLength="1.4281" font-size="1.7333" lengthAdjust="spacingAndGlyphs"
text-anchor="start" opacity="0" stroke-opacity="0">4</text>
<g class="stroked-text"><desc>4</desc>
<path d="M185.9654 10.7269
L185.9654 11.5936
" />
<path d="M185.6558 10.2317
L185.3463 11.1603
" />
<path d="M185.3463 11.1603
L186.1511 11.1603
" />
</g></g>
<g style="fill:none; 
stroke:#000000; stroke-width:0.1500; stroke-opacity:1; 
stroke-linecap:round; stroke-linejoin:round;">
<text x="235.0000" y="11.6500"
textLength="1.4281" font-size="1.7333" lengthAdjust="spacingAndGlyphs"
text-anchor="start" opacity="0" stroke-opacity="0">5</text>
<g class="stroked-text"><desc>5</desc>
<path d="M236.0273 10.2936
L235.4082 10.2936
" />
<path d="M235.4082 10.2936
L235.3463 10.9127
" />
<path d="M235.3463 10.9127
L235.4082 10.8507
" />
<path d="M235.4082 10.8507
L235.5320 10.7888
" />
<path d="M235.5320 10.7888
L235.8415 10.7888
" />
<path d="M235.8415 10.7888
L235.9654 10.8507
" />
<path d="M235.9654 10.8507
L236.0273 10.9127
" />
<path d="M236.0273 10.9127
L236.0892 11.0365
" />
<path d="M236.0892 11.0365
L236.0892 11.3460
" />
<path d="M236.0892 11.3460
L236.0273 11.4698
" />
<path d="M236.0273 11.4698
L235.9654 11.5317
" />
<path d="M235.9654 11.5317
L235.8415 11.5936
" />
<path d="M235.8415 11.5936
L235.5320 11.5936
" />
<path d="M235.5320 11.5936
L235.4082 11.5317
" />
<path d="M235.4082 11.5317
L235.3463 11.4698
" />
</g></g>
<g style="fill:none; 
stroke:#000000; stroke-width:0.1500; stroke-opacity:1; 
stroke-linecap:round; stroke-linejoin:round;">
<text x="285.0000" y="11.6500"
textLength="1.4281" font-size="1.7333" lengthAdjust="spacingAndGlyphs"
text-anchor="start" opacity="0" stroke-opacity="0">6</text>
<g class="stroked-text"><desc>6</desc>
<path d="M285.9654 10.2936
L285.7177 10.2936
" />
<path d="M285.7177 10.2936
L285.5939 10.3555
" />
<path d="M285.5939 10.3555
L285.5320 10.4174
" />
<path d="M285.5320 10.4174
L285.4082 10.6031
" />
<path d="M285.4082 10.6031
L285.3463 10.8507
" />
<path d="M285.3463 10.8507
L285.3463 11.3460
" />
<path d="M285.3463 11.3460
L285.4082 11.4698
" />
<path d="M285.4082 11.4698
L285.4701 11.5317
" />
<path d="M285.4701 11.5317
L285.5939 11.5936
" />
<path d="M285.5939 11.5936
L285.8415 11.5936
" />
<path d="M285.8415 11.5936
L285.9654 11.5317
" />
<path d="M285.9654 11.5317
L286.0273 11.4698
" />
<path d="M286.0273 11.4698
L286.0892 11.3460
" />
<path d="M286.0892 11.3460
L286.0892 11.0365
" />
<path d="M286.0892 11.0365
L286.0273 10.9127
" />
<path d="M286.0273 10.9127
L285.9654 10.8507
" />
<path d="M285.9654 10.8507
L285.8415 10.7888
" />
<path d="M285.8415 10.7888
L285.5939 10.7888
" />
<path d="M285.5939 10.7888
L285.4701 10.8507
" />
<path d="M285.4701 10.8507
L285.4082 10.9127
" />
<path d="M285.4082 10.9127
L285.3463 11.0365
" />
</g></g>
<g style="fill:none; 
stroke:#000000; stroke-width:0.1500; stroke-opacity:1; 
stroke-linecap:round; stroke-linejoin:round;">
<path d="M60.0000 198.0072
L60.0000 200.0072
" />
</g>
<g style="fill:none; 
stroke:#000000; stroke-width:0.1500; stroke-opacity:1; 
stroke-linecap:round; stroke-linejoin:round;">
<path d="M110.0000 198.0072
L110.0000 200.0072
" />
</g>
<g style="fill:none; 
stroke:#000000; stroke-width:0.1500; stroke-opacity:1; 
stroke-linecap:round; stroke-linejoin:round;">
<path d="M160.0000 198.0072
L160.0000 200.0072
" />
</g>
<g style="fill:none; 
stroke:#000000; stroke-width:0.1500; stroke-opacity:1; 
stroke-linecap:round; stroke-linejoin:round;">
<path d="M210.0000 198.0072
L210.0000 200.0072
" />
</g>
<g style="fill:none; 
stroke:#000000; stroke-width:0.1500; stroke-opacity:1; 
stroke-linecap:round; stroke-linejoin:round;">
<path d="M260.0000 198.0072
L260.0000 200.0072
" />
</g>
<g style="fill:none; 
stroke:#000000; stroke-width:0.1500; stroke-opacity:1; 
stroke-linecap:round; stroke-linejoin:round;">
<text x="35.0000" y="199.6572"
textLength="1.4281" font-size="1.7333" lengthAdjust="spacingAndGlyphs"
text-anchor="start" opacity="0" stroke-opacity="0">1</text>
<g class="stroked-text"><desc>1</desc>
<path d="M36.0892 199.6008
L35.3463 199.6008
" />
<path d="M35.7177 199.6008
L35.7177 198.3008
" />
<path d="M35.7177 198.3008
L35.5939 198.4865
" />
<path d="M35.5939 198.4865
L35.4701 198.6103
" />
<path d="M35.4701 198.6103
L35.3463 198.6722
" />
</g></g>
<g style="fill:none; 
stroke:#000000; stroke-width:0.1500; stroke-opacity:1; 
stroke-linecap:round; stroke-linejoin:round;">
<text x="85.0000" y="199.6572"
textLength="1.4281" font-size="1.7333" lengthAdjust="spacingAndGlyphs"
text-anchor="start" opacity="0" stroke-opacity="0">2</text>
<g class="stroked-text"><desc>2</desc>
<path d="M85.3463 198.4246
L85.4082 198.3627
" />
<path d="M85.4082 198.3627
L85.5320 198.3008
" />
<path d="M85.5320 198.3008
L85.8415 198.3008
" />
<path d="M85.8415 198.3008
L85.9654 198.3627
" />
<path d="M85.9654 198.3627
L86.0273 198.4246
" />
<path d="M86.0273 198.4246
L86.0892 198.5484
" />
<path d="M86.0892 198.5484
L86.0892 198.6722
" />
<path d="M86.0892 198.6722
L86.0273 198.8579
" />
<path d="M86.0273 198.8579
L85.2844 199.6008
" />
<path d="M85.2844 199.6008
L86.0892 199.6008
" />
</g></g>
<g style="fill:none; 
stroke:#000000; stroke-width:0.1500; stroke-opacity:1; 
stroke-linecap:round; stroke-linejoin:round;">
<text x="135.0000" y="199.6572"
textLength="1.4281" font-size="1.7333" lengthAdjust="spacingAndGlyphs"
text-anchor="start" opacity="0" stroke-opacity="0">3</text>
<g class="stroked-text"><desc>3</desc>
<path d="M135.2844 198.3008
L136.0892 198.3008
" />
<path d="M136.0892 198.3008
L135.6558 198.7960
" />
<path d="M135.6558 198.7960
L135.8415 198.7960
" />
<path d="M135.8415 198.7960
L135.9654 198.8579
" />
<path d="M135.9654 198.8579
L136.0273 198.9199
" />
<path d="M136.0273 198.9199
L136.0892 199.0437
" />
<path d="M136.0892 199.0437
L136.0892 199.3532
" />
<path d="M136.0892 199.3532
L136.0273 199.4770
" />
<path d="M136.0273 199.4770
L135.9654 199.5389
" />
<path d="M135.9654 199.5389
L135.8415 199.6008
" />
<path d="M135.8415 199.6008
L135.4701 199.6008
" />
<path d="M135.4701 199.6008
L135.3463 199.5389
" />
<path d="M135.3463 199.5389
L135.2844 199.4770
" />
</g></g>
<g style="fill:none; 
stroke:#000000; stroke-width:0.1500; stroke-opacity:1; 
stroke-linecap:round; stroke-linejoin:round;">
<text x="185.0000" y="199.6572"
textLength="1.4281" font-size="1.7333" lengthAdjust="spacingAndGlyphs"
text-anchor="start" opacity="0" stroke-opacity="0">4</text>
<g class="stroked-text"><desc>4</desc>
<path d="M185.9654 198.7341
L185.9654 199.6008
" />
<path d="M185.6558 198.2389
L185.3463 199.1675
" />
<path d="M185.3463 199.1675
L186.1511 199.1675
" />
</g></g>
<g style="fill:none; 
stroke:#000000; stroke-width:0.1500; stroke-opacity:1; 
stroke-linecap:round; stroke-linejoin:round;">
<text x="235.0000" y="199.6572"
textLength="1.4281" font-size="1.7333" lengthAdjust="spacingAndGlyphs"
text-anchor="start" opacity="0" stroke-opacity="0">5</text>
<g class="stroked-text"><desc>5</desc>
<path d="M236.0273 198.3008
L235.4082 198.3008
" />
<path d="M235.4082 198.3008
L235.3463 198.9199
" />
<path d="M235.3463 198.9199
L235.4082 198.8579
" />
<path d="M235.4082 198.8579
L235.5320 198.7960
" />
<path d="M235.5320 198.7960
L235.8415 198.7960
" />
<path d="M235.8415 198.7960
L235.9654 198.8579
" />
<path d="M235.9654 198.8579
L236.0273 198.9199
" />
<path d="M236.0273 198.9199
L236.0892 199.0437
" />
<path d="M236.0892 199.0437
L236.0892 199.3532
" />
<path d="M236.0892 199.3532
L236.0273 199.4770
" />
<path d="M236.0273 199.4770
L235.9654 199.5389
" />
<path d="M235.9654 199.5389
L235.8415 199.6008
" />
<path d="M235.8415 199.6008
L235.5320 199.6008
" />
<path d="M235.5320 199.6008
L235.4082 199.5389
" />
<path d="M235.4082 199.5389
L235.3463 199.4770
" />
</g></g>
<g style="fill:none; 
stroke:#000000; stroke-width:0.1500; stroke-opacity:1; 
stroke-linecap:round; stroke-linejoin:round;">
<text x="285.0000" y="199.6572"
textLength="1.4281" font-size="1.7333" lengthAdjust="spacingAndGlyphs"
text-anchor="start" opacity="0" stroke-opacity="0">6</text>
<g class="stroked-text"><desc>6</desc>
<path d="M285.9654 198.3008
L285.7177 198.3008
" />
<path d="M285.7177 198.3008
L285.5939 198.3627
" />
<path d="M285.5939 198.3627
L285.5320 198.4246
" />
<path d="M285.5320 198.4246
L285.4082 198.6103
" />
<path d="M285.4082 198.6103
L285.3463 198.8579
" />
<path d="M285.3463 198.8579
L285.3463 199.3532
" />
<path d="M285.3463 199.3532
L285.4082 199.4770
" />
<path d="M285.4082 199.4770
L285.4701 199.5389
" />
<path d="M285.4701 199.5389
L285.5939 199.6008
" />
<path d="M285.5939 199.6008
L285.8415 199.6008
" />
<path d="M285.8415 199.6008
L285.9654 199.5389
" />
<path d="M285.9654 199.5389
L286.0273 199.4770
" />
<path d="M286.0273 199.4770
L286.0892 199.3532
" />
<path d="M286.0892 199.3532
L286.0892 199.0437
" />
<path d="M286.0892 199.0437
L286.0273 198.9199
" />
<path d="M286.0273 198.9199
L285.9654 198.8579
" />
<path d="M285.9654 198.8579
L285.8415 198.7960
" />
<path d="M285.8415 198.7960
L285.5939 198.7960
" />
<path d="M285.5939 198.7960
L285.4701 198.8579
" />
<path d="M285.4701 198.8579
L285.4082 198.9199
" />
<path d="M285.4082 198.9199
L285.3463 199.0437
" />
</g></g>
<g style="fill:none; 
stroke:#000000; stroke-width:0.1500; stroke-opacity:1; 
stroke-linecap:round; stroke-linejoin:round;">
<path d="M10.0000 60.0000
L12.0000 60.0000
" />
</g>
<g style="fill:none; 
stroke:#000000; stroke-width:0.1500; stroke-opacity:1; 
stroke-linecap:round; stroke-linejoin:round;">
<path d="M10.0000 110.0000
L12.0000 110.0000
" />
</g>
<g style="fill:none; 
stroke:#000000; stroke-width:0.1500; stroke-opacity:1; 
stroke-linecap:round; stroke-linejoin:round;">
<path d="M10.0000 160.0000
L12.0000 160.0000
" />
</g>
<g style="fill:none; 
stroke:#000000; stroke-width:0.1500; stroke-opacity:1; 
stroke-linecap:round; stroke-linejoin:round;">
<text x="11.0000" y="35.6500"
textLength="1.3043" font-size="1.7333" lengthAdjust="spacingAndGlyphs"
text-anchor="middle" opacity="0" stroke-opacity="0">A</text>
<g class="stroked-text"><desc>A</desc>
<path d="M10.6905 35.2222
L11.3095 35.2222
" />
<path d="M10.5667 35.5936
L11.0000 34.2936
" />
<path d="M11.0000 34.2936
L11.4333 35.5936
" />
</g></g>
<g style="fill:none; 
stroke:#000000; stroke-width:0.1500; stroke-opacity:1; 
stroke-linecap:round; stroke-linejoin:round;">
<text x="11.0000" y="85.6500"
textLength="1.4900" font-size="1.7333" lengthAdjust="spacingAndGlyphs"
text-anchor="middle" opacity="0" stroke-opacity="0">B</text>
<g class="stroked-text"><desc>B</desc>
<path d="M11.0929 84.9127
L11.2786 84.9746
" />
<path d="M11.2786 84.9746
L11.3405 85.0365
" />
<path d="M11.3405 85.0365
L11.4024 85.1603
" />
<path d="M11.4024 85.1603
L11.4024 85.3460
" />
<path d="M11.4024 85.3460
L11.3405 85.4698
" />
<path d="M11.3405 85.4698
L11.2786 85.5317
" />
<path d="M11.2786 85.5317
L11.1548 85.5936
" />
<path d="M11.1548 85.5936
L10.6595 85.5936
" />
<path d="M10.6595 85.5936
L10.6595 84.2936
" />
<path d="M10.6595 84.2936
L11.0929 84.2936
" />
<path d="M11.0929 84.2936
L11.2167 84.3555
" />
<path d="M11.2167 84.3555
L11.2786 84.4174
" />
<path d="M11.2786 84.4174
L11.3405 84.5412
" />
<path d="M11.3405 84.5412
L11.3405 84.6650
" />
<path d="M11.3405 84.6650
L11.2786 84.7888
" />
<path d="M11.2786 84.7888
L11.2167 84.8507
" />
<path d="M11.2167 84.8507
L11.0929 84.9127
" />
<path d="M11.0929 84.9127
L10.6595 84.9127
" />
</g></g>
<g style="fill:none; 
stroke:#000000; stroke-width:0.1500; stroke-opacity:1; 
stroke-linecap:round; stroke-linejoin:round;">
<text x="11.0000" y="135.6500"
textLength="1.4900" font-size="1.7333" lengthAdjust="spacingAndGlyphs"
text-anchor="middle" opacity="0" stroke-opacity="0">C</text>
<g class="stroked-text"><desc>C</desc>
<path d="M11.4024 135.4698
L11.3405 135.5317
" />
<path d="M11.3405 135.5317
L11.1548 135.5936
" />
<path d="M11.1548 135.5936
L11.0310 135.5936
" />
<path d="M11.0310 135.5936
L10.8452 135.5317
" />
<path d="M10.8452 135.5317
L10.7214 135.4079
" />
<path d="M10.7214 135.4079
L10.6595 135.2841
" />
<path d="M10.6595 135.2841
L10.5976 135.0365
" />
<path d="M10.5976 135.0365
L10.5976 134.8507
" />
<path d="M10.5976 134.8507
L10.6595 134.6031
" />
<path d="M10.6595 134.6031
L10.7214 134.4793
" />
<path d="M10.7214 134.4793
L10.8452 134.3555
" />
<path d="M10.8452 134.3555
L11.0310 134.2936
" />
<path d="M11.0310 134.2936
L11.1548 134.2936
" />
<path d="M11.1548 134.2936
L11.3405 134.3555
" />
<path d="M11.3405 134.3555
L11.4024 134.4174
" />
</g></g>
<g style="fill:none; 
stroke:#000000; stroke-width:0.1500; stroke-opacity:1; 
stroke-linecap:round; stroke-linejoin:round;">
<text x="11.0000" y="185.6500"
textLength="1.4900" font-size="1.7333" lengthAdjust="spacingAndGlyphs"
text-anchor="middle" opacity="0" stroke-opacity="0">D</text>
<g class="stroked-text"><desc>D</desc>
<path d="M10.6595 185.5936
L10.6595 184.2936
" />
<path d="M10.6595 184.2936
L10.9690 184.2936
" />
<path d="M10.9690 184.2936
L11.1548 184.3555
" />
<path d="M11.1548 184.3555
L11.2786 184.4793
" />
<path d="M11.2786 184.4793
L11.3405 184.6031
" />
<path d="M11.3405 184.6031
L11.4024 184.8507
" />
<path d="M11.4024 184.8507
L11.4024 185.0365
" />
<path d="M11.4024 185.0365
L11.3405 185.2841
" />
<path d="M11.3405 185.2841
L11.2786 185.4079
" />
<path d="M11.2786 185.4079
L11.1548 185.5317
" />
<path d="M11.1548 185.5317
L10.9690 185.5936
" />
<path d="M10.9690 185.5936
L10.6595 185.5936
" />
</g></g>
<g style="fill:none; 
stroke:#000000; stroke-width:0.1500; stroke-opacity:1; 
stroke-linecap:round; stroke-linejoin:round;">
<path d="M287.0022 60.0000
L285.0022 60.0000
" />
</g>
<g style="fill:none; 
stroke:#000000; stroke-width:0.1500; stroke-opacity:1; 
stroke-linecap:round; stroke-linejoin:round;">
<path d="M287.0022 110.0000
L285.0022 110.0000
" />
</g>
<g style="fill:none; 
stroke:#000000; stroke-width:0.1500; stroke-opacity:1; 
stroke-linecap:round; stroke-linejoin:round;">
<path d="M287.0022 160.0000
L285.0022 160.0000
" />
</g>
<g style="fill:none; 
stroke:#000000; stroke-width:0.1500; stroke-opacity:1; 
stroke-linecap:round; stroke-linejoin:round;">
<text x="286.0022" y="35.6500"
textLength="1.3043" font-size="1.7333" lengthAdjust="spacingAndGlyphs"
text-anchor="middle" opacity="0" stroke-opacity="0">A</text>
<g class="stroked-text"><desc>A</desc>
<path d="M285.6927 35.2222
L286.3117 35.2222
" />
<path d="M285.5689 35.5936
L286.0022 34.2936
" />
<path d="M286.0022 34.2936
L286.4355 35.5936
" />
</g></g>
<g style="fill:none; 
stroke:#000000; stroke-width:0.1500; stroke-opacity:1; 
stroke-linecap:round; stroke-linejoin:round;">
<text x="286.0022" y="85.6500"
textLength="1.4900" font-size="1.7333" lengthAdjust="spacingAndGlyphs"
text-anchor="middle" opacity="0" stroke-opacity="0">B</text>
<g class="stroked-text"><desc>B</desc>
<path d="M286.0951 84.9127
L286.2808 84.9746
" />
<path d="M286.2808 84.9746
L286.3427 85.0365
" />
<path d="M286.3427 85.0365
L286.4046 85.1603
" />
<path d="M286.4046 85.1603
L286.4046 85.3460
" />
<path d="M286.4046 85.3460
L286.3427 85.4698
" />
<path d="M286.3427 85.4698
L286.2808 85.5317
" />
<path d="M286.2808 85.5317
L286.1570 85.5936
" />
<path d="M286.1570 85.5936
L285.6617 85.5936
" />
<path d="M285.6617 85.5936
L285.6617 84.2936
" />
<path d="M285.6617 84.2936
L286.0951 84.2936
" />
<path d="M286.0951 84.2936
L286.2189 84.3555
" />
<path d="M286.2189 84.3555
L286.2808 84.4174
" />
<path d="M286.2808 84.4174
L286.3427 84.5412
" />
<path d="M286.3427 84.5412
L286.3427 84.6650
" />
<path d="M286.3427 84.6650
L286.2808 84.7888
" />
<path d="M286.2808 84.7888
L286.2189 84.8507
" />
<path d="M286.2189 84.8507
L286.0951 84.9127
" />
<path d="M286.0951 84.9127
L285.6617 84.9127
" />
</g></g>
<g style="fill:none; 
stroke:#000000; stroke-width:0.1500; stroke-opacity:1; 
stroke-linecap:round; stroke-linejoin:round;">
<text x="286.0022" y="135.6500"
textLength="1.4900" font-size="1.7333" lengthAdjust="spacingAndGlyphs"
text-anchor="middle" opacity="0" stroke-opacity="0">C</text>
<g class="stroked-text"><desc>C</desc>
<path d="M286.4046 135.4698
L286.3427 135.5317
" />
<path d="M286.3427 135.5317
L286.1570 135.5936
" />
<path d="M286.1570 135.5936
L286.0332 135.5936
" />
<path d="M286.0332 135.5936
L285.8474 135.5317
" />
<path d="M285.8474 135.5317
L285.7236 135.4079
" />
<path d="M285.7236 135.4079
L285.6617 135.2841
" />
<path d="M285.6617 135.2841
L285.5998 135.0365
" />
<path d="M285.5998 135.0365
L285.5998 134.8507
" />
<path d="M285.5998 134.8507
L285.6617 134.6031
" />
<path d="M285.6617 134.6031
L285.7236 134.4793
" />
<path d="M285.7236 134.4793
L285.8474 134.3555
" />
<path d="M285.8474 134.3555
L286.0332 134.2936
" />
<path d="M286.0332 134.2936
L286.1570 134.2936
" />
<path d="M286.1570 134.2936
L286.3427 134.3555
" />
<path d="M286.3427 134.3555
L286.4046 134.4174
" />
</g></g>
<g style="fill:none; 
stroke:#000000; stroke-width:0.1500; stroke-opacity:1; 
stroke-linecap:round; stroke-linejoin:round;">
<text x="286.0022" y="185.6500"
textLength="1.4900" font-size="1.7333" lengthAdjust="spacingAndGlyphs"
text-anchor="middle" opacity="0" stroke-opacity="0">D</text>
<g class="stroked-text"><desc>D</desc>
<path d="M285.6617 185.5936
L285.6617 184.2936
" />
<path d="M285.6617 184.2936
L285.9712 184.2936
" />
<path d="M285.9712 184.2936
L286.1570 184.3555
" />
<path d="M286.1570 184.3555
L286.2808 184.4793
" />
<path d="M286.2808 184.4793
L286.3427 184.6031
" />
<path d="M286.3427 184.6031
L286.4046 184.8507
" />
<path d="M286.4046 184.8507
L286.4046 185.0365
" />
<path d="M286.4046 185.0365
L286.3427 185.2841
" />
<path d="M286.3427 185.2841
L286.2808 185.4079
" />
<path d="M286.2808 185.4079
L286.1570 185.5317
" />
<path d="M286.1570 185.5317
L285.9712 185.5936
" />
<path d="M285.9712 185.5936
L285.6617 185.5936
" />
</g></g>
<g style="fill:none; 
stroke:#000000; stroke-width:0.1500; stroke-opacity:1; 
stroke-linecap:round; stroke-linejoin:round;">
<text x="200.0022" y="193.8572"
textLength="7.0071" font-size="2.0000" lengthAdjust="spacingAndGlyphs"
text-anchor="start" opacity="0" stroke-opacity="0">Date: </text>
<g class="stroked-text"><desc>Date: </desc>
<path d="M200.4580 193.7933
L200.4580 192.2933
" />
<path d="M200.4580 192.2933
L200.8152 192.2933
" />
<path d="M200.8152 192.2933
L201.0295 192.3648
" />
<path d="M201.0295 192.3648
L201.1723 192.5076
" />
<path d="M201.1723 192.5076
L201.2437 192.6505
" />
<path d="M201.2437 192.6505
L201.3152 192.9362
" />
<path d="M201.3152 192.9362
L201.3152 193.1505
" />
<path d="M201.3152 193.1505
L201.2437 193.4362
" />
<path d="M201.2437 193.4362
L201.1723 193.5790
" />
<path d="M201.1723 193.5790
L201.0295 193.7219
" />
<path d="M201.0295 193.7219
L200.8152 193.7933
" />
<path d="M200.8152 193.7933
L200.4580 193.7933
" />
<path d="M202.6009 193.7933
L202.6009 193.0076
" />
<path d="M202.6009 193.0076
L202.5295 192.8648
" />
<path d="M202.5295 192.8648
L202.3866 192.7933
" />
<path d="M202.3866 192.7933
L202.1009 192.7933
" />
<path d="M202.1009 192.7933
L201.9580 192.8648
" />
<path d="M202.6009 193.7219
L202.4580 193.7933
" />
<path d="M202.4580 193.7933
L202.1009 193.7933
" />
<path d="M202.1009 193.7933
L201.9580 193.7219
" />
<path d="M201.9580 193.7219
L201.8866 193.5790
" />
<path d="M201.8866 193.5790
L201.8866 193.4362
" />
<path d="M201.8866 193.4362
L201.9580 193.2933
" />
<path d="M201.9580 193.2933
L202.1009 193.2219
" />
<path d="M202.1009 193.2219
L202.4580 193.2219
" />
<path d="M202.4580 193.2219
L202.6009 193.1505
" />
<path d="M203.1009 192.7933
L203.6723 192.7933
" />
<path d="M203.3152 192.2933
L203.3152 193.5790
" />
<path d="M203.3152 193.5790
L203.3866 193.7219
" />
<path d="M203.3866 193.7219
L203.5295 193.7933
" />
<path d="M203.5295 193.7933
L203.6723 193.7933
" />
<path d="M204.7437 193.7219
L204.6009 193.7933
" />
<path d="M204.6009 193.7933
L204.3152 193.7933
" />
<path d="M204.3152 193.7933
L204.1723 193.7219
" />
<path d="M204.1723 193.7219
L204.1009 193.5790
" />
<path d="M204.1009 193.5790
L204.1009 193.0076
" />
<path d="M204.1009 193.0076
L204.1723 192.8648
" />
<path d="M204.1723 192.8648
L204.3152 192.7933
" />
<path d="M204.3152 192.7933
L204.6009 192.7933
" />
<path d="M204.6009 192.7933
L204.7437 192.8648
" />
<path d="M204.7437 192.8648
L204.8152 193.0076
" />
<path d="M204.8152 193.0076
L204.8152 193.1505
" />
<path d="M204.8152 193.1505
L204.1009 193.2933
" />
<path d="M205.4580 193.6505
L205.5295 193.7219
" />
<path d="M205.5295 193.7219
L205.4580 193.7933
" />
<path d="M205.4580 193.7933
L205.3866 193.7219
" />
<path d="M205.3866 193.7219
L205.4580 193.6505
" />
<path d="M205.4580 193.6505
L205.4580 193.7933
" />
<path d="M205.4580 192.8648
L205.5295 192.9362
" />
<path d="M205.5295 192.9362
L205.4580 193.0076
" />
<path d="M205.4580 193.0076
L205.3866 192.9362
" />
<path d="M205.3866 192.9362
L205.4580 192.8648
" />
<path d="M205.4580 192.8648
L205.4580 193.0076
" />
</g></g>
<g style="fill:none; 
stroke:#000000; stroke-width:0.1500; stroke-opacity:1; 
stroke-linecap:round; stroke-linejoin:round;">
<path d="M177.0022 194.5072
L285.0022 194.5072
" />
</g>
<g style="fill:none; 
stroke:#000000; stroke-width:0.1500; stroke-opacity:1; 
stroke-linecap:round; stroke-linejoin:round;">
<text x="178.0022" y="196.6572"
textLength="20.6500" font-size="2.0000" lengthAdjust="spacingAndGlyphs"
text-anchor="start" opacity="0" stroke-opacity="0">${KICAD_VERSION}</text>
<g class="stroked-text"><desc>${KICAD_VERSION}</desc>
<path d="M178.3866 196.5219
L178.6009 196.5933
" />
<path d="M178.6009 196.5933
L178.9580 196.5933
" />
<path d="M178.9580 196.5933
L179.1009 196.5219
" />
<path d="M179.1009 196.5219
L179.1723 196.4505
" />
<path d="M179.1723 196.4505
L179.2437 196.3076
" />
<path d="M179.2437 196.3076
L179.2437 196.1648
" />
<path d="M179.2437 196.1648
L179.1723 196.0219
" />
<path d="M179.1723 196.0219
L179.1009 195.9505
" />
<path d="M179.1009 195.9505
L178.9580 195.8790
" />
<path d="M178.9580 195.8790
L178.6723 195.8076
" />
<path d="M178.6723 195.8076
L178.5295 195.7362
" />
<path d="M178.5295 195.7362
L178.4580 195.6648
" />
<path d="M178.4580 195.6648
L178.3866 195.5219
" />
<path d="M178.3866 195.5219
L178.3866 195.3790
" />
<path d="M178.3866 195.3790
L178.4580 195.2362
" />
<path d="M178.4580 195.2362
L178.5295 195.1648
" />
<path d="M178.5295 195.1648
L178.6723 195.0933
" />
<path d="M178.6723 195.0933
L179.0295 195.0933
" />
<path d="M179.0295 195.0933
L179.2437 195.1648
" />
<path d="M178.8152 194.8790
L178.8152 196.8076
" />
<path d="M180.3152 197.1648
L180.2437 197.1648
" />
<path d="M180.2437 197.1648
L180.1009 197.0933
" />
<path d="M180.1009 197.0933
L180.0295 196.9505
" />
<path d="M180.0295 196.9505
L180.0295 196.2362
" />
<path d="M180.0295 196.2362
L179.9580 196.0933
" />
<path d="M179.9580 196.0933
L179.8152 196.0219
" />
<path d="M179.8152 196.0219
L179.9580 195.9505
" />
<path d="M179.9580 195.9505
L180.0295 195.8076
" />
<path d="M180.0295 195.8076
L180.0295 195.0933
" />
<path d="M180.0295 195.0933
L180.1009 194.9505
" />
<path d="M180.1009 194.9505
L180.2437 194.8790
" />
<path d="M180.2437 194.8790
L180.3152 194.8790
" />
<path d="M180.8866 196.5933
L180.8866 195.0933
" />
<path d="M181.7437 196.5933
L181.1009 195.7362
" />
<path d="M181.7437 195.0933
L180.8866 195.9505
" />
<path d="M182.3866 196.5933
L182.3866 195.0933
" />
<path d="M183.9580 196.4505
L183.8866 196.5219
" />
<path d="M183.8866 196.5219
L183.6723 196.5933
" />
<path d="M183.6723 196.5933
L183.5295 196.5933
" />
<path d="M183.5295 196.5933
L183.3152 196.5219
" />
<path d="M183.3152 196.5219
L183.1723 196.3790
" />
<path d="M183.1723 196.3790
L183.1009 196.2362
" />
<path d="M183.1009 196.2362
L183.0295 195.9505
" />
<path d="M183.0295 195.9505
L183.0295 195.7362
" />
<path d="M183.0295 195.7362
L183.1009 195.4505
" />
<path d="M183.1009 195.4505
L183.1723 195.3076
" />
<path d="M183.1723 195.3076
L183.3152 195.1648
" />
<path d="M183.3152 195.1648
L183.5295 195.0933
" />
<path d="M183.5295 195.0933
L183.6723 195.0933
" />
<path d="M183.6723 195.0933
L183.8866 195.1648
" />
<path d="M183.8866 195.1648
L183.9580 195.2362
" />
<path d="M184.5295 196.1648
L185.2437 196.1648
" />
<path d="M184.3866 196.5933
L184.8866 195.0933
" />
<path d="M184.8866 195.0933
L185.3866 196.5933
" />
<path d="M185.8866 196.5933
L185.8866 195.0933
" />
<path d="M185.8866 195.0933
L186.2437 195.0933
" />
<path d="M186.2437 195.0933
L186.4580 195.1648
" />
<path d="M186.4580 195.1648
L186.6009 195.3076
" />
<path d="M186.6009 195.3076
L186.6723 195.4505
" />
<path d="M186.6723 195.4505
L186.7437 195.7362
" />
<path d="M186.7437 195.7362
L186.7437 195.9505
" />
<path d="M186.7437 195.9505
L186.6723 196.2362
" />
<path d="M186.6723 196.2362
L186.6009 196.3790
" />
<path d="M186.6009 196.3790
L186.4580 196.5219
" />
<path d="M186.4580 196.5219
L186.2437 196.5933
" />
<path d="M186.2437 196.5933
L185.8866 196.5933
" />
<path d="M187.0295 196.7362
L188.1723 196.7362
" />
<path d="M188.3152 195.0933
L188.8152 196.5933
" />
<path d="M188.8152 196.5933
L189.3152 195.0933
" />
<path d="M189.8152 195.8076
L190.3152 195.8076
" />
<path d="M190.5295 196.5933
L189.8152 196.5933
" />
<path d="M189.8152 196.5933
L189.8152 195.0933
" />
<path d="M189.8152 195.0933
L190.5295 195.0933
" />
<path d="M192.0295 196.5933
L191.5295 195.8790
" />
<path d="M191.1723 196.5933
L191.1723 195.0933
" />
<path d="M191.1723 195.0933
L191.7437 195.0933
" />
<path d="M191.7437 195.0933
L191.8866 195.1648
" />
<path d="M191.8866 195.1648
L191.9580 195.2362
" />
<path d="M191.9580 195.2362
L192.0295 195.3790
" />
<path d="M192.0295 195.3790
L192.0295 195.5933
" />
<path d="M192.0295 195.5933
L191.9580 195.7362
" />
<path d="M191.9580 195.7362
L191.8866 195.8076
" />
<path d="M191.8866 195.8076
L191.7437 195.8790
" />
<path d="M191.7437 195.8790
L191.1723 195.8790
" />
<path d="M192.6009 196.5219
L192.8152 196.5933
" />
<path d="M192.8152 196.5933
L193.1723 196.5933
" />
<path d="M193.1723 196.5933
L193.3152 196.5219
" />
<path d="M193.3152 196.5219
L193.3866 196.4505
" />
<path d="M193.3866 196.4505
L193.4580 196.3076
" />
<path d="M193.4580 196.3076
L193.4580 196.1648
" />
<path d="M193.4580 196.1648
L193.3866 196.0219
" />
<path d="M193.3866 196.0219
L193.3152 195.9505
" />
<path d="M193.3152 195.9505
L193.1723 195.8790
" />
<path d="M193.1723 195.8790
L192.8866 195.8076
" />
<path d="M192.8866 195.8076
L192.7437 195.7362
" />
<path d="M192.7437 195.7362
L192.6723 195.6648
" />
<path d="M192.6723 195.6648
L192.6009 195.5219
" />
<path d="M192.6009 195.5219
L192.6009 195.3790
" />
<path d="M192.6009 195.3790
L192.6723 195.2362
" />
<path d="M192.6723 195.2362
L192.7437 195.1648
" />
<path d="M192.7437 195.1648
L192.8866 195.0933
" />
<path d="M192.8866 195.0933
L193.2437 195.0933
" />
<path d="M193.2437 195.0933
L193.4580 195.1648
" />
<path d="M194.1009 196.5933
L194.1009 195.0933
" />
<path d="M195.1009 195.0933
L195.3866 195.0933
" />
<path d="M195.3866 195.0933
L195.5295 195.1648
" />
<path d="M195.5295 195.1648
L195.6723 195.3076
" />
<path d="M195.6723 195.3076
L195.7437 195.5933
" />
<path d="M195.7437 195.5933
L195.7437 196.0933
" />
<path d="M195.7437 196.0933
L195.6723 196.3790
" />
<path d="M195.6723 196.3790
L195.5295 196.5219
" />
<path d="M195.5295 196.5219
L195.3866 196.5933
" />
<path d="M195.3866 196.5933
L195.1009 196.5933
" />
<path d="M195.1009 196.5933
L194.9580 196.5219
" />
<path d="M194.9580 196.5219
L194.8152 196.3790
" />
<path d="M194.8152 196.3790
L194.7437 196.0933
" />
<path d="M194.7437 196.0933
L194.7437 195.5933
" />
<path d="M194.7437 195.5933
L194.8152 195.3076
" />
<path d="M194.8152 195.3076
L194.9580 195.1648
" />
<path d="M194.9580 195.1648
L195.1009 195.0933
" />
<path d="M196.3866 196.5933
L196.3866 195.0933
" />
<path d="M196.3866 195.0933
L197.2437 196.5933
" />
<path d="M197.2437 196.5933
L197.2437 195.0933
" />
<path d="M197.8152 197.1648
L197.8866 197.1648
" />
<path d="M197.8866 197.1648
L198.0295 197.0933
" />
<path d="M198.0295 197.0933
L198.1009 196.9505
" />
<path d="M198.1009 196.9505
L198.1009 196.2362
" />
<path d="M198.1009 196.2362
L198.1723 196.0933
" />
<path d="M198.1723 196.0933
L198.3152 196.0219
" />
<path d="M198.3152 196.0219
L198.1723 195.9505
" />
<path d="M198.1723 195.9505
L198.1009 195.8076
" />
<path d="M198.1009 195.8076
L198.1009 195.0933
" />
<path d="M198.1009 195.0933
L198.0295 194.9505
" />
<path d="M198.0295 194.9505
L197.8866 194.8790
" />
<path d="M197.8866 194.8790
L197.8152 194.8790
" />
</g></g>
<g style="fill:none; 
stroke:#000000; stroke-width:0.1500; stroke-opacity:1; 
stroke-linecap:round; stroke-linejoin:round;">
<path d="M177.0022 191.5072
L285.0022 191.5072
" />
</g>
<g style="fill:none; 
stroke:#000000; stroke-width:0.3000; stroke-opacity:1; 
stroke-linecap:round; stroke-linejoin:round;">
<text x="263.0022" y="193.8572"
textLength="6.3857" font-size="2.0000" lengthAdjust="spacingAndGlyphs"
text-anchor="start" opacity="0" stroke-opacity="0">Rev: </text>
<g class="stroked-text"><desc>Rev: </desc>
<path d="M264.4139 193.7855
L263.9139 193.0712
" />
<path d="M263.5567 193.7855
L263.5567 192.2855
" />
<path d="M263.5567 192.2855
L264.1281 192.2855
" />
<path d="M264.1281 192.2855
L264.2710 192.3570
" />
<path d="M264.2710 192.3570
L264.3424 192.4284
" />
<path d="M264.3424 192.4284
L264.4139 192.5712
" />
<path d="M264.4139 192.5712
L264.4139 192.7855
" />
<path d="M264.4139 192.7855
L264.3424 192.9284
" />
<path d="M264.3424 192.9284
L264.2710 192.9998
" />
<path d="M264.2710 192.9998
L264.1281 193.0712
" />
<path d="M264.1281 193.0712
L263.5567 193.0712
" />
<path d="M265.6281 193.7141
L265.4853 193.7855
" />
<path d="M265.4853 193.7855
L265.1996 193.7855
" />
<path d="M265.1996 193.7855
L265.0567 193.7141
" />
<path d="M265.0567 193.7141
L264.9853 193.5712
" />
<path d="M264.9853 193.5712
L264.9853 192.9998
" />
<path d="M264.9853 192.9998
L265.0567 192.8570
" />
<path d="M265.0567 192.8570
L265.1996 192.7855
" />
<path d="M265.1996 192.7855
L265.4853 192.7855
" />
<path d="M265.4853 192.7855
L265.6281 192.8570
" />
<path d="M265.6281 192.8570
L265.6996 192.9998
" />
<path d="M265.6996 192.9998
L265.6996 193.1427
" />
<path d="M265.6996 193.1427
L264.9853 193.2855
" />
<path d="M266.1996 192.7855
L266.5567 193.7855
" />
<path d="M266.5567 193.7855
L266.9139 192.7855
" />
<path d="M267.4853 193.6427
L267.5567 193.7141
" />
<path d="M267.5567 193.7141
L267.4853 193.7855
" />
<path d="M267.4853 193.7855
L267.4139 193.7141
" />
<path d="M267.4139 193.7141
L267.4853 193.6427
" />
<path d="M267.4853 193.6427
L267.4853 193.7855
" />
<path d="M267.4853 192.8570
L267.5567 192.9284
" />
<path d="M267.5567 192.9284
L267.4853 192.9998
" />
<path d="M267.4853 192.9998
L267.4139 192.9284
" />
<path d="M267.4139 192.9284
L267.4853 192.8570
" />
<path d="M267.4853 192.8570
L267.4853 192.9998
" />
</g></g>
<g style="fill:none; 
stroke:#000000; stroke-width:0.1500; stroke-opacity:1; 
stroke-linecap:round; stroke-linejoin:round;">
<text x="178.0022" y="193.8572"
textLength="9.3643" font-size="2.0000" lengthAdjust="spacingAndGlyphs"
text-anchor="start" opacity="0" stroke-opacity="0">Size: A4</text>
<g class="stroked-text"><desc>Size: A4</desc>
<path d="M178.3866 193.7219
L178.6009 193.7933
" />
<path d="M178.6009 193.7933
L178.9580 193.7933
" />
<path d="M178.9580 193.7933
L179.1009 193.7219
" />
<path d="M179.1009 193.7219
L179.1723 193.6505
" />
<path d="M179.1723 193.6505
L179.2437 193.5076
" />
<path d="M179.2437 193.5076
L179.2437 193.3648
" />
<path d="M179.2437 193.3648
L179.1723 193.2219
" />
<path d="M179.1723 193.2219
L179.1009 193.1505
" />
<path d="M179.1009 193.1505
L178.9580 193.0790
" />
<path d="M178.9580 193.0790
L178.6723 193.0076
" />
<path d="M178.6723 193.0076
L178.5295 192.9362
" />
<path d="M178.5295 192.9362
L178.4580 192.8648
" />
<path d="M178.4580 192.8648
L178.3866 192.7219
" />
<path d="M178.3866 192.7219
L178.3866 192.5790
" />
<path d="M178.3866 192.5790
L178.4580 192.4362
" />
<path d="M178.4580 192.4362
L178.5295 192.3648
" />
<path d="M178.5295 192.3648
L178.6723 192.2933
" />
<path d="M178.6723 192.2933
L179.0295 192.2933
" />
<path d="M179.0295 192.2933
L179.2437 192.3648
" />
<path d="M179.8866 193.7933
L179.8866 192.7933
" />
<path d="M179.8866 192.2933
L179.8152 192.3648
" />
<path d="M179.8152 192.3648
L179.8866 192.4362
" />
<path d="M179.8866 192.4362
L179.9580 192.3648
" />
<path d="M179.9580 192.3648
L179.8866 192.2933
" />
<path d="M179.8866 192.2933
L179.8866 192.4362
" />
<path d="M180.4580 192.7933
L181.2437 192.7933
" />
<path d="M181.2437 192.7933
L180.4580 193.7933
" />
<path d="M180.4580 193.7933
L181.2437 193.7933
" />
<path d="M182.3866 193.7219
L182.2437 193.7933
" />
<path d="M182.2437 193.7933
L181.9580 193.7933
" />
<path d="M181.9580 193.7933
L181.8152 193.7219
" />
<path d="M181.8152 193.7219
L181.7437 193.5790
" />
<path d="M181.7437 193.5790
L181.7437 193.0076
" />
<path d="M181.7437 193.0076
L181.8152 192.8648
" />
<path d="M181.8152 192.8648
L181.9580 192.7933
" />
<path d="M181.9580 192.7933
L182.2437 192.7933
" />
<path d="M182.2437 192.7933
L182.3866 192.8648
" />
<path d="M182.3866 192.8648
L182.4580 193.0076
" />
<path d="M182.4580 193.0076
L182.4580 193.1505
" />
<path d="M182.4580 193.1505
L181.7437 193.2933
" />
<path d="M183.1009 193.6505
L183.1723 193.7219
" />
<path d="M183.1723 193.7219
L183.1009 193.7933
" />
<path d="M183.1009 193.7933
L183.0295 193.7219
" />
<path d="M183.0295 193.7219
L183.1009 193.6505
" />
<path d="M183.1009 193.6505
L183.1009 193.7933
" />
<path d="M183.1009 192.8648
L183.1723 192.9362
" />
<path d="M183.1723 192.9362
L183.1009 193.0076
" />
<path d="M183.1009 193.0076
L183.0295 192.9362
" />
<path d="M183.0295 192.9362
L183.1009 192.8648
" />
<path d="M183.1009 192.8648
L183.1009 193.0076
" />
<path d="M184.8866 193.3648
L185.6009 193.3648
" />
<path d="M184.7437 193.7933
L185.2437 192.2933
" />
<path d="M185.2437 192.2933
L185.7437 193.7933
" />
<path d="M186.8866 192.7933
L186.8866 193.7933
" />
<path d="M186.5295 192.2219
L186.1723 193.2933
" />
<path d="M186.1723 193.2933
L187.1009 193.2933
" />
</g></g>
<g style="fill:none; 
stroke:#000000; stroke-width:0.1500; stroke-opacity:1; 
stroke-linecap:round; stroke-linejoin:round;">
<text x="263.0022" y="196.6572"
textLength="7.0786" font-size="2.0000" lengthAdjust="spacingAndGlyphs"
text-anchor="start" opacity="0" stroke-opacity="0">Id: /1</text>
<g class="stroked-text"><desc>Id: /1</desc>
<path d="M263.4580 196.5933
L263.4580 195.0933
" />
<path d="M264.8152 196.5933
L264.8152 195.0933
" />
<path d="M264.8152 196.5219
L264.6723 196.5933
" />
<path d="M264.6723 196.5933
L264.3866 196.5933
" />
<path d="M264.3866 196.5933
L264.2437 196.5219
" />
<path d="M264.2437 196.5219
L264.1723 196.4505
" />
<path d="M264.1723 196.4505
L264.1009 196.3076
" />
<path d="M264.1009 196.3076
L264.1009 195.8790
" />
<path d="M264.1009 195.8790
L264.1723 195.7362
" />
<path d="M264.1723 195.7362
L264.2437 195.6648
" />
<path d="M264.2437 195.6648
L264.3866 195.5933
" />
<path d="M264.3866 195.5933
L264.6723 195.5933
" />
<path d="M264.6723 195.5933
L264.8152 195.6648
" />
<path d="M265.5295 196.4505
L265.6009 196.5219
" />
<path d="M265.6009 196.5219
L265.5295 196.5933
" />
<path d="M265.5295 196.5933
L265.4580 196.5219
" />
<path d="M265.4580 196.5219
L265.5295 196.4505
" />
<path d="M265.5295 196.4505
L265.5295 196.5933
" />
<path d="M265.5295 195.6648
L265.6009 195.7362
" />
<path d="M265.6009 195.7362
L265.5295 195.8076
" />
<path d="M265.5295 195.8076
L265.4580 195.7362
" />
<path d="M265.4580 195.7362
L265.5295 195.6648
" />
<path d="M265.5295 195.6648
L265.5295 195.8076
" />
<path d="M268.4580 195.0219
L267.1723 196.9505
" />
<path d="M269.7437 196.5933
L268.8866 196.5933
" />
<path d="M269.3152 196.5933
L269.3152 195.0933
" />
<path d="M269.3152 195.0933
L269.1723 195.3076
" />
<path d="M269.1723 195.3076
L269.0295 195.4505
" />
<path d="M269.0295 195.4505
L268.8866 195.5219
" />
</g></g>
<g style="fill:none; 
stroke:#000000; stroke-width:0.1500; stroke-opacity:1; 
stroke-linecap:round; stroke-linejoin:round;">
<path d="M177.0022 187.5072
L285.0022 187.5072
" />
</g>
<g style="fill:none; 
stroke:#000000; stroke-width:0.4000; stroke-opacity:1; 
stroke-linecap:round; stroke-linejoin:round;">
<text x="178.0022" y="190.3072"
textLength="9.6571" font-size="2.6667" lengthAdjust="spacingAndGlyphs"
text-anchor="start" opacity="0" stroke-opacity="0">Title: </text>
<g class="stroked-text"><desc>Title: </desc>
<path d="M178.6939 188.2116
L179.8368 188.2116
" />
<path d="M179.0154 190.2116
L179.2654 188.2116
" />
<path d="M180.2535 190.2116
L180.4201 188.8783
" />
<path d="M180.5035 188.2116
L180.3963 188.3069
" />
<path d="M180.3963 188.3069
L180.4796 188.4021
" />
<path d="M180.4796 188.4021
L180.5868 188.3069
" />
<path d="M180.5868 188.3069
L180.5035 188.2116
" />
<path d="M180.5035 188.2116
L180.4796 188.4021
" />
<path d="M181.0868 188.8783
L181.8487 188.8783
" />
<path d="M181.4558 188.2116
L181.2415 189.9259
" />
<path d="M181.2415 189.9259
L181.3130 190.1164
" />
<path d="M181.3130 190.1164
L181.4915 190.2116
" />
<path d="M181.4915 190.2116
L181.6820 190.2116
" />
<path d="M182.6344 190.2116
L182.4558 190.1164
" />
<path d="M182.4558 190.1164
L182.3844 189.9259
" />
<path d="M182.3844 189.9259
L182.5987 188.2116
" />
<path d="M184.1701 190.1164
L183.9677 190.2116
" />
<path d="M183.9677 190.2116
L183.5868 190.2116
" />
<path d="M183.5868 190.2116
L183.4082 190.1164
" />
<path d="M183.4082 190.1164
L183.3368 189.9259
" />
<path d="M183.3368 189.9259
L183.4320 189.1640
" />
<path d="M183.4320 189.1640
L183.5511 188.9735
" />
<path d="M183.5511 188.9735
L183.7535 188.8783
" />
<path d="M183.7535 188.8783
L184.1344 188.8783
" />
<path d="M184.1344 188.8783
L184.3130 188.9735
" />
<path d="M184.3130 188.9735
L184.3844 189.1640
" />
<path d="M184.3844 189.1640
L184.3606 189.3545
" />
<path d="M184.3606 189.3545
L183.3844 189.5450
" />
<path d="M185.1344 190.0212
L185.2177 190.1164
" />
<path d="M185.2177 190.1164
L185.1106 190.2116
" />
<path d="M185.1106 190.2116
L185.0273 190.1164
" />
<path d="M185.0273 190.1164
L185.1344 190.0212
" />
<path d="M185.1344 190.0212
L185.1106 190.2116
" />
<path d="M185.2654 188.9735
L185.3487 189.0688
" />
<path d="M185.3487 189.0688
L185.2415 189.1640
" />
<path d="M185.2415 189.1640
L185.1582 189.0688
" />
<path d="M185.1582 189.0688
L185.2654 188.9735
" />
<path d="M185.2654 188.9735
L185.2415 189.1640
" />
</g></g>
<g style="fill:none; 
stroke:#000000; stroke-width:0.1500; stroke-opacity:1; 
stroke-linecap:round; stroke-linejoin:round;">
<text x="178.0022" y="186.4572"
textLength="36.7929" font-size="2.0000" lengthAdjust="spacingAndGlyphs"
text-anchor="start" opacity="0" stroke-opacity="0">File: modulo_seguidor.kicad_pcb</text>
<g class="stroked-text"><desc>File: modulo_seguidor.kicad_pcb</desc>
<path d="M178.9580 185.6076
L178.4580 185.6076
" />
<path d="M178.4580 186.3933
L178.4580 184.8933
" />
<path d="M178.4580 184.8933
L179.1723 184.8933
" />
<path d="M179.7437 186.3933
L179.7437 185.3933
" />
<path d="M179.7437 184.8933
L179.6723 184.9648
" />
<path d="M179.6723 184.9648
L179.7437 185.0362
" />
<path d="M179.7437 185.0362
L179.8152 184.9648
" />
<path d="M179.8152 184.9648
L179.7437 184.8933
" />
<path d="M179.7437 184.8933
L179.7437 185.0362
" />
<path d="M180.6723 186.3933
L180.5295 186.3219
" />
<path d="M180.5295 186.3219
L180.4580 186.1790
" />
<path d="M180.4580 186.1790
L180.4580 184.8933
" />
<path d="M181.8152 186.3219
L181.6723 186.3933
" />
<path d="M181.6723 186.3933
L181.3866 186.3933
" />
<path d="M181.3866 186.3933
L181.2437 186.3219
" />
<path d="M181.2437 186.3219
L181.1723 186.1790
" />
<path d="M181.1723 186.1790
L181.1723 185.6076
" />
<path d="M181.1723 185.6076
L181.2437 185.4648
" />
<path d="M181.2437 185.4648
L181.3866 185.3933
" />
<path d="M181.3866 185.3933
L181.6723 185.3933
" />
<path d="M181.6723 185.3933
L181.8152 185.4648
" />
<path d="M181.8152 185.4648
L181.8866 185.6076
" />
<path d="M181.8866 185.6076
L181.8866 185.7505
" />
<path d="M181.8866 185.7505
L181.1723 185.8933
" />
<path d="M182.5295 186.2505
L182.6009 186.3219
" />
<path d="M182.6009 186.3219
L182.5295 186.3933
" />
<path d="M182.5295 186.3933
L182.4580 186.3219
" />
<path d="M182.4580 186.3219
L182.5295 186.2505
" />
<path d="M182.5295 186.2505
L182.5295 186.3933
" />
<path d="M182.5295 185.4648
L182.6009 185.5362
" />
<path d="M182.6009 185.5362
L182.5295 185.6076
" />
<path d="M182.5295 185.6076
L182.4580 185.5362
" />
<path d="M182.4580 185.5362
L182.5295 185.4648
" />
<path d="M182.5295 185.4648
L182.5295 185.6076
" />
<path d="M184.3866 186.3933
L184.3866 185.3933
" />
<path d="M184.3866 185.5362
L184.4580 185.4648
" />
<path d="M184.4580 185.4648
L184.6009 185.3933
" />
<path d="M184.6009 185.3933
L184.8152 185.3933
" />
<path d="M184.8152 185.3933
L184.9580 185.4648
" />
<path d="M184.9580 185.4648
L185.0295 185.6076
" />
<path d="M185.0295 185.6076
L185.0295 186.3933
" />
<path d="M185.0295 185.6076
L185.1009 185.4648
" />
<path d="M185.1009 185.4648
L185.2437 185.3933
" />
<path d="M185.2437 185.3933
L185.4580 185.3933
" />
<path d="M185.4580 185.3933
L185.6009 185.4648
" />
<path d="M185.6009 185.4648
L185.6723 185.6076
" />
<path d="M185.6723 185.6076
L185.6723 186.3933
" />
<path d="M186.6009 186.3933
L186.4580 186.3219
" />
<path d="M186.4580 186.3219
L186.3866 186.2505
" />
<path d="M186.3866 186.2505
L186.3152 186.1076
" />
<path d="M186.3152 186.1076
L186.3152 185.6790
" />
<path d="M186.3152 185.6790
L186.3866 185.5362
" />
<path d="M186.3866 185.5362
L186.4580 185.4648
" />
<path d="M186.4580 185.4648
L186.6009 185.3933
" />
<path d="M186.6009 185.3933
L186.8152 185.3933
" />
<path d="M186.8152 185.3933
L186.9580 185.4648
" />
<path d="M186.9580 185.4648
L187.0295 185.5362
" />
<path d="M187.0295 185.5362
L187.1009 185.6790
" />
<path d="M187.1009 185.6790
L187.1009 186.1076
" />
<path d="M187.1009 186.1076
L187.0295 186.2505
" />
<path d="M187.0295 186.2505
L186.9580 186.3219
" />
<path d="M186.9580 186.3219
L186.8152 186.3933
" />
<path d="M186.8152 186.3933
L186.6009 186.3933
" />
<path d="M188.3866 186.3933
L188.3866 184.8933
" />
<path d="M188.3866 186.3219
L188.2437 186.3933
" />
<path d="M188.2437 186.3933
L187.9580 186.3933
" />
<path d="M187.9580 186.3933
L187.8152 186.3219
" />
<path d="M187.8152 186.3219
L187.7437 186.2505
" />
<path d="M187.7437 186.2505
L187.6723 186.1076
" />
<path d="M187.6723 186.1076
L187.6723 185.6790
" />
<path d="M187.6723 185.6790
L187.7437 185.5362
" />
<path d="M187.7437 185.5362
L187.8152 185.4648
" />
<path d="M187.8152 185.4648
L187.9580 185.3933
" />
<path d="M187.9580 185.3933
L188.2437 185.3933
" />
<path d="M188.2437 185.3933
L188.3866 185.4648
" />
<path d="M189.7437 185.3933
L189.7437 186.3933
" />
<path d="M189.1009 185.3933
L189.1009 186.1790
" />
<path d="M189.1009 186.1790
L189.1723 186.3219
" />
<path d="M189.1723 186.3219
L189.3152 186.3933
" />
<path d="M189.3152 186.3933
L189.5295 186.3933
" />
<path d="M189.5295 186.3933
L189.6723 186.3219
" />
<path d="M189.6723 186.3219
L189.7437 186.2505
" />
<path d="M190.6723 186.3933
L190.5295 186.3219
" />
<path d="M190.5295 186.3219
L190.4580 186.1790
" />
<path d="M190.4580 186.1790
L190.4580 184.8933
" />
<path d="M191.4580 186.3933
L191.3152 186.3219
" />
<path d="M191.3152 186.3219
L191.2437 186.2505
" />
<path d="M191.2437 186.2505
L191.1723 186.1076
" />
<path d="M191.1723 186.1076
L191.1723 185.6790
" />
<path d="M191.1723 185.6790
L191.2437 185.5362
" />
<path d="M191.2437 185.5362
L191.3152 185.4648
" />
<path d="M191.3152 185.4648
L191.4580 185.3933
" />
<path d="M191.4580 185.3933
L191.6723 185.3933
" />
<path d="M191.6723 185.3933
L191.8152 185.4648
" />
<path d="M191.8152 185.4648
L191.8866 185.5362
" />
<path d="M191.8866 185.5362
L191.9580 185.6790
" />
<path d="M191.9580 185.6790
L191.9580 186.1076
" />
<path d="M191.9580 186.1076
L191.8866 186.2505
" />
<path d="M191.8866 186.2505
L191.8152 186.3219
" />
<path d="M191.8152 186.3219
L191.6723 186.3933
" />
<path d="M191.6723 186.3933
L191.4580 186.3933
" />
<path d="M192.2437 186.5362
L193.3866 186.5362
" />
<path d="M193.6723 186.3219
L193.8152 186.3933
" />
<path d="M193.8152 186.3933
L194.1009 186.3933
" />
<path d="M194.1009 186.3933
L194.2437 186.3219
" />
<path d="M194.2437 186.3219
L194.3152 186.1790
" />
<path d="M194.3152 186.1790
L194.3152 186.1076
" />
<path d="M194.3152 186.1076
L194.2437 185.9648
" />
<path d="M194.2437 185.9648
L194.1009 185.8933
" />
<path d="M194.1009 185.8933
L193.8866 185.8933
" />
<path d="M193.8866 185.8933
L193.7437 185.8219
" />
<path d="M193.7437 185.8219
L193.6723 185.6790
" />
<path d="M193.6723 185.6790
L193.6723 185.6076
" />
<path d="M193.6723 185.6076
L193.7437 185.4648
" />
<path d="M193.7437 185.4648
L193.8866 185.3933
" />
<path d="M193.8866 185.3933
L194.1009 185.3933
" />
<path d="M194.1009 185.3933
L194.2437 185.4648
" />
<path d="M195.5295 186.3219
L195.3866 186.3933
" />
<path d="M195.3866 186.3933
L195.1009 186.3933
" />
<path d="M195.1009 186.3933
L194.9580 186.3219
" />
<path d="M194.9580 186.3219
L194.8866 186.1790
" />
<path d="M194.8866 186.1790
L194.8866 185.6076
" />
<path d="M194.8866 185.6076
L194.9580 185.4648
" />
<path d="M194.9580 185.4648
L195.1009 185.3933
" />
<path d="M195.1009 185.3933
L195.3866 185.3933
" />
<path d="M195.3866 185.3933
L195.5295 185.4648
" />
<path d="M195.5295 185.4648
L195.6009 185.6076
" />
<path d="M195.6009 185.6076
L195.6009 185.7505
" />
<path d="M195.6009 185.7505
L194.8866 185.8933
" />
<path d="M196.8866 185.3933
L196.8866 186.6076
" />
<path d="M196.8866 186.6076
L196.8152 186.7505
" />
<path d="M196.8152 186.7505
L196.7437 186.8219
" />
<path d="M196.7437 186.8219
L196.6009 186.8933
" />
<path d="M196.6009 186.8933
L196.3866 186.8933
" />
<path d="M196.3866 186.8933
L196.2437 186.8219
" />
<path d="M196.8866 186.3219
L196.7437 186.3933
" />
<path d="M196.7437 186.3933
L196.4580 186.3933
" />
<path d="M196.4580 186.3933
L196.3152 186.3219
" />
<path d="M196.3152 186.3219
L196.2437 186.2505
" />
<path d="M196.2437 186.2505
L196.1723 186.1076
" />
<path d="M196.1723 186.1076
L196.1723 185.6790
" />
<path d="M196.1723 185.6790
L196.2437 185.5362
" />
<path d="M196.2437 185.5362
L196.3152 185.4648
" />
<path d="M196.3152 185.4648
L196.4580 185.3933
" />
<path d="M196.4580 185.3933
L196.7437 185.3933
" />
<path d="M196.7437 185.3933
L196.8866 185.4648
" />
<path d="M198.2437 185.3933
L198.2437 186.3933
" />
<path d="M197.6009 185.3933
L197.6009 186.1790
" />
<path d="M197.6009 186.1790
L197.6723 186.3219
" />
<path d="M197.6723 186.3219
L197.8152 186.3933
" />
<path d="M197.8152 186.3933
L198.0295 186.3933
" />
<path d="M198.0295 186.3933
L198.1723 186.3219
" />
<path d="M198.1723 186.3219
L198.2437 186.2505
" />
<path d="M198.9580 186.3933
L198.9580 185.3933
" />
<path d="M198.9580 184.8933
L198.8866 184.9648
" />
<path d="M198.8866 184.9648
L198.9580 185.0362
" />
<path d="M198.9580 185.0362
L199.0295 184.9648
" />
<path d="M199.0295 184.9648
L198.9580 184.8933
" />
<path d="M198.9580 184.8933
L198.9580 185.0362
" />
<path d="M200.3152 186.3933
L200.3152 184.8933
" />
<path d="M200.3152 186.3219
L200.1723 186.3933
" />
<path d="M200.1723 186.3933
L199.8866 186.3933
" />
<path d="M199.8866 186.3933
L199.7437 186.3219
" />
<path d="M199.7437 186.3219
L199.6723 186.2505
" />
<path d="M199.6723 186.2505
L199.6009 186.1076
" />
<path d="M199.6009 186.1076
L199.6009 185.6790
" />
<path d="M199.6009 185.6790
L199.6723 185.5362
" />
<path d="M199.6723 185.5362
L199.7437 185.4648
" />
<path d="M199.7437 185.4648
L199.8866 185.3933
" />
<path d="M199.8866 185.3933
L200.1723 185.3933
" />
<path d="M200.1723 185.3933
L200.3152 185.4648
" />
<path d="M201.2437 186.3933
L201.1009 186.3219
" />
<path d="M201.1009 186.3219
L201.0295 186.2505
" />
<path d="M201.0295 186.2505
L200.9580 186.1076
" />
<path d="M200.9580 186.1076
L200.9580 185.6790
" />
<path d="M200.9580 185.6790
L201.0295 185.5362
" />
<path d="M201.0295 185.5362
L201.1009 185.4648
" />
<path d="M201.1009 185.4648
L201.2437 185.3933
" />
<path d="M201.2437 185.3933
L201.4580 185.3933
" />
<path d="M201.4580 185.3933
L201.6009 185.4648
" />
<path d="M201.6009 185.4648
L201.6723 185.5362
" />
<path d="M201.6723 185.5362
L201.7437 185.6790
" />
<path d="M201.7437 185.6790
L201.7437 186.1076
" />
<path d="M201.7437 186.1076
L201.6723 186.2505
" />
<path d="M201.6723 186.2505
L201.6009 186.3219
" />
<path d="M201.6009 186.3219
L201.4580 186.3933
" />
<path d="M201.4580 186.3933
L201.2437 186.3933
" />
<path d="M202.3866 186.3933
L202.3866 185.3933
" />
<path d="M202.3866 185.6790
L202.4580 185.5362
" />
<path d="M202.4580 185.5362
L202.5295 185.4648
" />
<path d="M202.5295 185.4648
L202.6723 185.3933
" />
<path d="M202.6723 185.3933
L202.8152 185.3933
" />
<path d="M203.3152 186.2505
L203.3866 186.3219
" />
<path d="M203.3866 186.3219
L203.3152 186.3933
" />
<path d="M203.3152 186.3933
L203.2437 186.3219
" />
<path d="M203.2437 186.3219
L203.3152 186.2505
" />
<path d="M203.3152 186.2505
L203.3152 186.3933
" />
<path d="M204.0295 186.3933
L204.0295 184.8933
" />
<path d="M204.1723 185.8219
L204.6009 186.3933
" />
<path d="M204.6009 185.3933
L204.0295 185.9648
" />
<path d="M205.2437 186.3933
L205.2437 185.3933
" />
<path d="M205.2437 184.8933
L205.1723 184.9648
" />
<path d="M205.1723 184.9648
L205.2437 185.0362
" />
<path d="M205.2437 185.0362
L205.3152 184.9648
" />
<path d="M205.3152 184.9648
L205.2437 184.8933
" />
<path d="M205.2437 184.8933
L205.2437 185.0362
" />
<path d="M206.6009 186.3219
L206.4580 186.3933
" />
<path d="M206.4580 186.3933
L206.1723 186.3933
" />
<path d="M206.1723 186.3933
L206.0295 186.3219
" />
<path d="M206.0295 186.3219
L205.9580 186.2505
" />
<path d="M205.9580 186.2505
L205.8866 186.1076
" />
<path d="M205.8866 186.1076
L205.8866 185.6790
" />
<path d="M205.8866 185.6790
L205.9580 185.5362
" />
<path d="M205.9580 185.5362
L206.0295 185.4648
" />
<path d="M206.0295 185.4648
L206.1723 185.3933
" />
<path d="M206.1723 185.3933
L206.4580 185.3933
" />
<path d="M206.4580 185.3933
L206.6009 185.4648
" />
<path d="M207.8866 186.3933
L207.8866 185.6076
" />
<path d="M207.8866 185.6076
L207.8152 185.4648
" />
<path d="M207.8152 185.4648
L207.6723 185.3933
" />
<path d="M207.6723 185.3933
L207.3866 185.3933
" />
<path d="M207.3866 185.3933
L207.2437 185.4648
" />
<path d="M207.8866 186.3219
L207.7437 186.3933
" />
<path d="M207.7437 186.3933
L207.3866 186.3933
" />
<path d="M207.3866 186.3933
L207.2437 186.3219
" />
<path d="M207.2437 186.3219
L207.1723 186.1790
" />
<path d="M207.1723 186.1790
L207.1723 186.0362
" />
<path d="M207.1723 186.0362
L207.2437 185.8933
" />
<path d="M207.2437 185.8933
L207.3866 185.8219
" />
<path d="M207.3866 185.8219
L207.7437 185.8219
" />
<path d="M207.7437 185.8219
L207.8866 185.7505
" />
<path d="M209.2437 186.3933
L209.2437 184.8933
" />
<path d="M209.2437 186.3219
L209.1009 186.3933
" />
<path d="M209.1009 186.3933
L208.8152 186.3933
" />
<path d="M208.8152 186.3933
L208.6723 186.3219
" />
<path d="M208.6723 186.3219
L208.6009 186.2505
" />
<path d="M208.6009 186.2505
L208.5295 186.1076
" />
<path d="M208.5295 186.1076
L208.5295 185.6790
" />
<path d="M208.5295 185.6790
L208.6009 185.5362
" />
<path d="M208.6009 185.5362
L208.6723 185.4648
" />
<path d="M208.6723 185.4648
L208.8152 185.3933
" />
<path d="M208.8152 185.3933
L209.1009 185.3933
" />
<path d="M209.1009 185.3933
L209.2437 185.4648
" />
<path d="M209.6009 186.5362
L210.7437 186.5362
" />
<path d="M211.1009 185.3933
L211.1009 186.8933
" />
<path d="M211.1009 185.4648
L211.2437 185.3933
" />
<path d="M211.2437 185.3933
L211.5295 185.3933
" />
<path d="M211.5295 185.3933
L211.6723 185.4648
" />
<path d="M211.6723 185.4648
L211.7437 185.5362
" />
<path d="M211.7437 185.5362
L211.8152 185.6790
" />
<path d="M211.8152 185.6790
L211.8152 186.1076
" />
<path d="M211.8152 186.1076
L211.7437 186.2505
" />
<path d="M211.7437 186.2505
L211.6723 186.3219
" />
<path d="M211.6723 186.3219
L211.5295 186.3933
" />
<path d="M211.5295 186.3933
L211.2437 186.3933
" />
<path d="M211.2437 186.3933
L211.1009 186.3219
" />
<path d="M213.1009 186.3219
L212.9580 186.3933
" />
<path d="M212.9580 186.3933
L212.6723 186.3933
" />
<path d="M212.6723 186.3933
L212.5295 186.3219
" />
<path d="M212.5295 186.3219
L212.4580 186.2505
" />
<path d="M212.4580 186.2505
L212.3866 186.1076
" />
<path d="M212.3866 186.1076
L212.3866 185.6790
" />
<path d="M212.3866 185.6790
L212.4580 185.5362
" />
<path d="M212.4580 185.5362
L212.5295 185.4648
" />
<path d="M212.5295 185.4648
L212.6723 185.3933
" />
<path d="M212.6723 185.3933
L212.9580 185.3933
" />
<path d="M212.9580 185.3933
L213.1009 185.4648
" />
<path d="M213.7437 186.3933
L213.7437 184.8933
" />
<path d="M213.7437 185.4648
L213.8866 185.3933
" />
<path d="M213.8866 185.3933
L214.1723 185.3933
" />
<path d="M214.1723 185.3933
L214.3152 185.4648
" />
<path d="M214.3152 185.4648
L214.3866 185.5362
" />
<path d="M214.3866 185.5362
L214.4580 185.6790
" />
<path d="M214.4580 185.6790
L214.4580 186.1076
" />
<path d="M214.4580 186.1076
L214.3866 186.2505
" />
<path d="M214.3866 186.2505
L214.3152 186.3219
" />
<path d="M214.3152 186.3219
L214.1723 186.3933
" />
<path d="M214.1723 186.3933
L213.8866 186.3933
" />
<path d="M213.8866 186.3933
L213.7437 186.3219
" />
</g></g>
<g style="fill:none; 
stroke:#000000; stroke-width:0.1500; stroke-opacity:1; 
stroke-linecap:round; stroke-linejoin:round;">
<path d="M177.0022 181.5072
L285.0022 181.5072
" />
</g>
<g style="fill:none; 
stroke:#000000; stroke-width:0.1500; stroke-opacity:1; 
stroke-linecap:round; stroke-linejoin:round;">
<text x="178.0022" y="183.7572"
textLength="8.2214" font-size="2.0000" lengthAdjust="spacingAndGlyphs"
text-anchor="start" opacity="0" stroke-opacity="0">Sheet: </text>
<g class="stroked-text"><desc>Sheet: </desc>
<path d="M178.3866 183.6219
L178.6009 183.6933
" />
<path d="M178.6009 183.6933
L178.9580 183.6933
" />
<path d="M178.9580 183.6933
L179.1009 183.6219
" />
<path d="M179.1009 183.6219
L179.1723 183.5505
" />
<path d="M179.1723 183.5505
L179.2437 183.4076
" />
<path d="M179.2437 183.4076
L179.2437 183.2648
" />
<path d="M179.2437 183.2648
L179.1723 183.1219
" />
<path d="M179.1723 183.1219
L179.1009 183.0505
" />
<path d="M179.1009 183.0505
L178.9580 182.9790
" />
<path d="M178.9580 182.9790
L178.6723 182.9076
" />
<path d="M178.6723 182.9076
L178.5295 182.8362
" />
<path d="M178.5295 182.8362
L178.4580 182.7648
" />
<path d="M178.4580 182.7648
L178.3866 182.6219
" />
<path d="M178.3866 182.6219
L178.3866 182.4790
" />
<path d="M178.3866 182.4790
L178.4580 182.3362
" />
<path d="M178.4580 182.3362
L178.5295 182.2648
" />
<path d="M178.5295 182.2648
L178.6723 182.1933
" />
<path d="M178.6723 182.1933
L179.0295 182.1933
" />
<path d="M179.0295 182.1933
L179.2437 182.2648
" />
<path d="M179.8866 183.6933
L179.8866 182.1933
" />
<path d="M180.5295 183.6933
L180.5295 182.9076
" />
<path d="M180.5295 182.9076
L180.4580 182.7648
" />
<path d="M180.4580 182.7648
L180.3152 182.6933
" />
<path d="M180.3152 182.6933
L180.1009 182.6933
" />
<path d="M180.1009 182.6933
L179.9580 182.7648
" />
<path d="M179.9580 182.7648
L179.8866 182.8362
" />
<path d="M181.8152 183.6219
L181.6723 183.6933
" />
<path d="M181.6723 183.6933
L181.3866 183.6933
" />
<path d="M181.3866 183.6933
L181.2437 183.6219
" />
<path d="M181.2437 183.6219
L181.1723 183.4790
" />
<path d="M181.1723 183.4790
L181.1723 182.9076
" />
<path d="M181.1723 182.9076
L181.2437 182.7648
" />
<path d="M181.2437 182.7648
L181.3866 182.6933
" />
<path d="M181.3866 182.6933
L181.6723 182.6933
" />
<path d="M181.6723 182.6933
L181.8152 182.7648
" />
<path d="M181.8152 182.7648
L181.8866 182.9076
" />
<path d="M181.8866 182.9076
L181.8866 183.0505
" />
<path d="M181.8866 183.0505
L181.1723 183.1933
" />
<path d="M183.1009 183.6219
L182.9580 183.6933
" />
<path d="M182.9580 183.6933
L182.6723 183.6933
" />
<path d="M182.6723 183.6933
L182.5295 183.6219
" />
<path d="M182.5295 183.6219
L182.4580 183.4790
" />
<path d="M182.4580 183.4790
L182.4580 182.9076
" />
<path d="M182.4580 182.9076
L182.5295 182.7648
" />
<path d="M182.5295 182.7648
L182.6723 182.6933
" />
<path d="M182.6723 182.6933
L182.9580 182.6933
" />
<path d="M182.9580 182.6933
L183.1009 182.7648
" />
<path d="M183.1009 182.7648
L183.1723 182.9076
" />
<path d="M183.1723 182.9076
L183.1723 183.0505
" />
<path d="M183.1723 183.0505
L182.4580 183.1933
" />
<path d="M183.6009 182.6933
L184.1723 182.6933
" />
<path d="M183.8152 182.1933
L183.8152 183.4790
" />
<path d="M183.8152 183.4790
L183.8866 183.6219
" />
<path d="M183.8866 183.6219
L184.0295 183.6933
" />
<path d="M184.0295 183.6933
L184.1723 183.6933
" />
<path d="M184.6723 183.5505
L184.7437 183.6219
" />
<path d="M184.7437 183.6219
L184.6723 183.6933
" />
<path d="M184.6723 183.6933
L184.6009 183.6219
" />
<path d="M184.6009 183.6219
L184.6723 183.5505
" />
<path d="M184.6723 183.5505
L184.6723 183.6933
" />
<path d="M184.6723 182.7648
L184.7437 182.8362
" />
<path d="M184.7437 182.8362
L184.6723 182.9076
" />
<path d="M184.6723 182.9076
L184.6009 182.8362
" />
<path d="M184.6009 182.8362
L184.6723 182.7648
" />
<path d="M184.6723 182.7648
L184.6723 182.9076
" />
</g></g>
<g style="fill:none; 
stroke:#000000; stroke-width:0.3000; stroke-opacity:1; 
stroke-linecap:round; stroke-linejoin:round;">
<text x="178.0022" y="180.7572"
textLength="0.9000" font-size="2.0000" lengthAdjust="spacingAndGlyphs"
text-anchor="start" opacity="0" stroke-opacity="0"></text>
<g class="stroked-text"><desc></desc>
</g></g>
<g style="fill:none; 
stroke:#000000; stroke-width:0.1500; stroke-opacity:1; 
stroke-linecap:round; stroke-linejoin:round;">
<text x="178.0022" y="177.7572"
textLength="0.4500" font-size="2.0000" lengthAdjust="spacingAndGlyphs"
text-anchor="start" opacity="0" stroke-opacity="0"></text>
<g class="stroked-text"><desc></desc>
</g></g>
<g style="fill:none; 
stroke:#000000; stroke-width:0.1500; stroke-opacity:1; 
stroke-linecap:round; stroke-linejoin:round;">
<text x="178.0022" y="174.7572"
textLength="0.4500" font-size="2.0000" lengthAdjust="spacingAndGlyphs"
text-anchor="start" opacity="0" stroke-opacity="0"></text>
<g class="stroked-text"><desc></desc>
</g></g>
<g style="fill:none; 
stroke:#000000; stroke-width:0.1500; stroke-opacity:1; 
stroke-linecap:round; stroke-linejoin:round;">
<text x="178.0022" y="171.7572"
textLength="0.4500" font-size="2.0000" lengthAdjust="spacingAndGlyphs"
text-anchor="start" opacity="0" stroke-opacity="0"></text>
<g class="stroked-text"><desc></desc>
</g></g>
<g style="fill:none; 
stroke:#000000; stroke-width:0.1500; stroke-opacity:1; 
stroke-linecap:round; stroke-linejoin:round;">
<text x="178.0022" y="168.7572"
textLength="0.4500" font-size="2.0000" lengthAdjust="spacingAndGlyphs"
text-anchor="start" opacity="0" stroke-opacity="0"></text>
<g class="stroked-text"><desc></desc>
</g></g>
<g style="fill:none; 
stroke:#000000; stroke-width:0.1500; stroke-opacity:1; 
stroke-linecap:round; stroke-linejoin:round;">
<path d="M197.0022 191.5072
L197.0022 194.5072
" />
</g>
<g style="fill:none; 
stroke:#000000; stroke-width:0.1500; stroke-opacity:1; 
stroke-linecap:round; stroke-linejoin:round;">
<path d="M261.0022 191.5072
L261.0022 198.0072
" />
<path style="fill:none; 
stroke:#000000; stroke-width:0.2000; stroke-opacity:1; 
stroke-linecap:round; stroke-linejoin:round;fill:none"
d="M 167.6400,88.2360
224.6045,88.2360
224.6045,113.0300
167.6400,113.0300
139.7000,140.7288
74.6045,140.7288
74.6045,60.9696
142.2400,60.9696
Z" /> 
</g>
<g style="fill:none; 
stroke:#000000; stroke-width:2.2000; stroke-opacity:1; 
stroke-linecap:round; stroke-linejoin:round;">
<path d="M119.7256 126.8000
L119.7256 127.2000
" />
<path d="M127.3456 126.8000
L127.3456 127.2000
" />
</g>
<g style="fill:#000000; fill-opacity:1.0000; stroke:none;">
<circle cx="137.1600" cy="125.5800" r="1.0000" /> 
</g>
<g style="fill:#000000; fill-opacity:1.0000; stroke:none;">
<circle cx="137.1600" cy="132.0800" r="1.0000" /> 
</g>
<g style="fill:#000000; fill-opacity:1.0000; stroke:none;">
<circle cx="132.6600" cy="125.5800" r="1.0000" /> 
</g>
<g style="fill:#000000; fill-opacity:1.0000; stroke:none;">
<circle cx="132.6600" cy="132.0800" r="1.0000" /> 
</g>
<g style="fill:none; 
stroke:#000000; stroke-width:2.2000; stroke-opacity:1; 
stroke-linecap:round; stroke-linejoin:round;">
<path d="M109.0200 109.2200
L109.4200 109.2200
" />
<path d="M109.0200 106.6800
L109.4200 106.6800
" />
<path style="fill:#000000; fill-opacity:1.0000; stroke:none;fill-rule:evenodd;"
d="M 125.9000,76.0600
125.9000,73.8600
128.1000,73.8600
128.1000,76.0600
Z" /> 
</g>
<g style="fill:none; 
stroke:#000000; stroke-width:2.0000; stroke-opacity:1; 
stroke-linecap:round; stroke-linejoin:round;">
<path d="M134.6200 74.6600
L134.6200 75.2600
" />
</g>
<g style="fill:none; 
stroke:#000000; stroke-width:2.2000; stroke-opacity:1; 
stroke-linecap:round; stroke-linejoin:round;">
<path d="M86.1600 81.2800
L86.5600 81.2800
" />
<path d="M86.1600 78.7400
L86.5600 78.7400
" />
<path d="M131.8800 93.9800
L132.2800 93.9800
" />
<path d="M131.8800 91.4400
L132.2800 91.4400
" />
</g>
<g style="fill:none; 
stroke:#000000; stroke-width:1.8000; stroke-opacity:1; 
stroke-linecap:round; stroke-linejoin:round;">
<path d="M139.5000 81.2800
L139.9000 81.2800
" />
<path d="M139.5000 83.8200
L139.9000 83.8200
" />
<path d="M139.5000 86.3600
L139.9000 86.3600
" />
<path d="M139.5000 88.9000
L139.9000 88.9000
" />
<path d="M139.5000 91.4400
L139.9000 91.4400
" />
<path d="M139.5000 93.9800
L139.9000 93.9800
" />
<path d="M139.5000 96.5200
L139.9000 96.5200
" />
<path d="M139.5000 99.0600
L139.9000 99.0600
" />
<path d="M139.5000 101.6000
L139.9000 101.6000
" />
<path d="M139.5000 104.1400
L139.9000 104.1400
" />
<path d="M139.5000 106.6800
L139.9000 106.6800
" />
<path d="M139.5000 109.2200
L139.9000 109.2200
" />
<path d="M139.5000 111.7600
L139.9000 111.7600
" />
<path d="M139.5000 114.3000
L139.9000 114.3000
" />
<path d="M139.5000 116.8400
L139.9000 116.8400
" />
<path d="M154.7400 116.8400
L155.1400 116.8400
" />
<path d="M154.7400 114.3000
L155.1400 114.3000
" />
<path d="M154.7400 111.7600
L155.1400 111.7600
" />
<path d="M154.7400 109.2200
L155.1400 109.2200
" />
<path d="M154.7400 106.6800
L155.1400 106.6800
" />
<path d="M154.7400 104.1400
L155.1400 104.1400
" />
<path d="M154.7400 101.6000
L155.1400 101.6000
" />
<path d="M154.7400 99.0600
L155.1400 99.0600
" />
<path d="M154.7400 96.5200
L155.1400 96.5200
" />
<path d="M154.7400 93.9800
L155.1400 93.9800
" />
<path d="M154.7400 91.4400
L155.1400 91.4400
" />
<path d="M154.7400 88.9000
L155.1400 88.9000
" />
<path d="M154.7400 86.3600
L155.1400 86.3600
" />
<path d="M154.7400 83.8200
L155.1400 83.8200
" />
<path d="M154.7400 81.2800
L155.1400 81.2800
" />
</g>
<g style="fill:none; 
stroke:#000000; stroke-width:2.2000; stroke-opacity:1; 
stroke-linecap:round; stroke-linejoin:round;">
<path d="M131.8800 114.3000
L132.2800 114.3000
" />
<path d="M131.8800 111.7600
L132.2800 111.7600
" />
<path d="M86.1600 102.8700
L86.5600 102.8700
" />
<path d="M86.1600 100.3300
L86.5600 100.3300
" />
<path style="fill:#000000; fill-opacity:1.0000; stroke:none;fill-rule:evenodd;"
d="M 126.1000,105.0400
126.1000,103.2400
127.9000,103.2400
127.9000,105.0400
Z" /> 
</g>
<g style="fill:#000000; fill-opacity:1.0000; stroke:none;">
<circle cx="129.5400" cy="104.1400" r="0.9000" /> 
<path style="fill:#000000; fill-opacity:1.0000; stroke:none;fill-rule:evenodd;"
d="M 119.7201,76.3099
117.5201,76.3099
117.5201,74.1099
119.7201,74.1099
Z" /> 
</g>
<g style="fill:none; 
stroke:#000000; stroke-width:2.0000; stroke-opacity:1; 
stroke-linecap:round; stroke-linejoin:round;">
<path d="M118.3201 67.5899
L118.9201 67.5899
" />
<path style="fill:#000000; fill-opacity:1.0000; stroke:none;fill-rule:evenodd;"
d="M 114.4700,118.1400
114.4700,115.5400
116.6700,115.5400
116.6700,118.1400
Z" /> 
</g>
<g style="fill:none; 
stroke:#000000; stroke-width:2.2000; stroke-opacity:1; 
stroke-linecap:round; stroke-linejoin:round;">
<path d="M123.1900 116.6400
L123.1900 117.0400
" />
</g>
<g style="fill:none; 
stroke:#000000; stroke-width:2.0000; stroke-opacity:1; 
stroke-linecap:round; stroke-linejoin:round;">
<path d="M94.1800 95.2500
L93.7800 95.2500
" />
<path d="M99.2600 96.5200
L98.8600 96.5200
" />
<path d="M94.1800 97.7900
L93.7800 97.7900
" />
<path d="M99.2600 99.0600
L98.8600 99.0600
" />
<path d="M94.1800 100.3300
L93.7800 100.3300
" />
<path d="M99.2600 101.6000
L98.8600 101.6000
" />
<path d="M94.1800 102.8700
L93.7800 102.8700
" />
<path d="M99.2600 104.1400
L98.8600 104.1400
" />
<path d="M94.1800 105.4100
L93.7800 105.4100
" />
<path d="M99.2600 106.6800
L98.8600 106.6800
" />
<path d="M94.1800 107.9500
L93.7800 107.9500
" />
<path d="M99.2600 109.2200
L98.8600 109.2200
" />
<path d="M94.1800 110.4900
L93.7800 110.4900
" />
<path d="M99.2600 111.7600
L98.8600 111.7600
" />
<path d="M94.1800 113.0300
L93.7800 113.0300
" />
</g>
<g style="fill:none; 
stroke:#000000; stroke-width:1.8000; stroke-opacity:1; 
stroke-linecap:round; stroke-linejoin:round;">
<path d="M213.8550 91.7325
L214.2550 91.7325
" />
<path d="M213.8550 94.2725
L214.2550 94.2725
" />
<path d="M213.8550 96.8125
L214.2550 96.8125
" />
<path d="M213.8550 99.3525
L214.2550 99.3525
" />
<path d="M213.8550 101.8925
L214.2550 101.8925
" />
<path d="M213.8550 104.4325
L214.2550 104.4325
" />
<path d="M213.8550 106.9725
L214.2550 106.9725
" />
<path d="M213.8550 109.5125
L214.2550 109.5125
" />
<path style="fill:#000000; fill-opacity:1.0000; stroke:none;fill-rule:evenodd;"
d="M 127.0646,68.0737
127.0646,65.8737
129.2646,65.8737
129.2646,68.0737
Z" /> 
</g>
<g style="fill:none; 
stroke:#000000; stroke-width:2.0000; stroke-opacity:1; 
stroke-linecap:round; stroke-linejoin:round;">
<path d="M135.7846 66.6737
L135.7846 67.2737
" />
</g>
<g style="fill:none; 
stroke:#000000; stroke-width:2.2000; stroke-opacity:1; 
stroke-linecap:round; stroke-linejoin:round;">
<path d="M111.5600 70.8358
L111.9600 70.8358
" />
<path d="M111.5600 68.2958
L111.9600 68.2958
" />
<path style="fill:#000000; fill-opacity:1.0000; stroke:none;fill-rule:evenodd;"
d="M 127.1700,72.0381
127.1700,69.8381
129.3700,69.8381
129.3700,72.0381
Z" /> 
</g>
<g style="fill:none; 
stroke:#000000; stroke-width:2.0000; stroke-opacity:1; 
stroke-linecap:round; stroke-linejoin:round;">
<path d="M135.8900 70.6381
L135.8900 71.2381
" />
</g>
<g style="fill:none; 
stroke:#000000; stroke-width:2.2000; stroke-opacity:1; 
stroke-linecap:round; stroke-linejoin:round;">
<path d="M118.1100 121.7200
L118.1100 122.1200
" />
<path d="M125.7300 121.7200
L125.7300 122.1200
" />
<path style="fill:#000000; fill-opacity:1.0000; stroke:none;fill-rule:evenodd;"
d="M 109.3694,118.2687
111.9694,118.2687
111.9694,120.4687
109.3694,120.4687
Z" /> 
</g>
<g style="fill:none; 
stroke:#000000; stroke-width:2.2000; stroke-opacity:1; 
stroke-linecap:round; stroke-linejoin:round;">
<path d="M110.8694 126.9887
L110.4694 126.9887
" />
<path style="fill:#000000; fill-opacity:1.0000; stroke:none;fill-rule:evenodd;"
d="M 105.6800,80.3275
107.6800,80.3275
107.6800,82.2325
105.6800,82.2325
Z" /> 
</g>
<g style="fill:none; 
stroke:#000000; stroke-width:1.9050; stroke-opacity:1; 
stroke-linecap:round; stroke-linejoin:round;">
<path d="M106.7275 83.8200
L106.6325 83.8200
" />
<path d="M106.7275 86.3600
L106.6325 86.3600
" />
</g>
<g style="fill:none; 
stroke:#000000; stroke-width:2.2000; stroke-opacity:1; 
stroke-linecap:round; stroke-linejoin:round;">
<path d="M103.9400 127.0000
L104.3400 127.0000
" />
<path d="M103.9400 124.4600
L104.3400 124.4600
" />
</g>
<g style="fill:none; 
stroke:#000000; stroke-width:2.0000; stroke-opacity:1; 
stroke-linecap:round; stroke-linejoin:round;">
<path d="M83.7692 71.9788
L83.7692 71.3788
" />
<path d="M86.3092 71.9788
L86.3092 71.3788
" />
<path d="M88.8492 71.9788
L88.8492 71.3788
" />
<path style="fill:#000000; fill-opacity:1.0000; stroke:none;fill-rule:evenodd;"
d="M 111.4425,93.4679
111.4615,93.3722
111.5157,93.2911
111.5968,93.2369
111.6925,93.2179
112.5175,93.2179
112.6132,93.2369
112.6943,93.2911
112.7485,93.3722
112.7675,93.4679
112.7675,94.7679
112.7485,94.8636
112.6943,94.9447
112.6132,94.9989
112.5175,95.0179
111.6925,95.0179
111.5968,94.9989
111.5157,94.9447
111.4615,94.8636
111.4425,94.7679
Z" /> 
<path style="fill:#000000; fill-opacity:1.0000; stroke:none;fill-rule:evenodd;"
d="M 114.5675,93.4679
114.5865,93.3722
114.6407,93.2911
114.7218,93.2369
114.8175,93.2179
115.6425,93.2179
115.7382,93.2369
115.8193,93.2911
115.8735,93.3722
115.8925,93.4679
115.8925,94.7679
115.8735,94.8636
115.8193,94.9447
115.7382,94.9989
115.6425,95.0179
114.8175,95.0179
114.7218,94.9989
114.6407,94.9447
114.5865,94.8636
114.5675,94.7679
Z" /> 
<path style="fill:#000000; fill-opacity:1.0000; stroke:none;fill-rule:evenodd;"
d="M 123.8350,112.9700
123.7393,112.9510
123.6582,112.8968
123.6040,112.8157
123.5850,112.7200
123.5850,111.9200
123.6040,111.8243
123.6582,111.7432
123.7393,111.6890
123.8350,111.6700
125.0850,111.6700
125.1807,111.6890
125.2618,111.7432
125.3160,111.8243
125.3350,111.9200
125.3350,112.7200
125.3160,112.8157
125.2618,112.8968
125.1807,112.9510
125.0850,112.9700
Z" /> 
<path style="fill:#000000; fill-opacity:1.0000; stroke:none;fill-rule:evenodd;"
d="M 123.8350,109.8700
123.7393,109.8510
123.6582,109.7968
123.6040,109.7157
123.5850,109.6200
123.5850,108.8200
123.6040,108.7243
123.6582,108.6432
123.7393,108.5890
123.8350,108.5700
125.0850,108.5700
125.1807,108.5890
125.2618,108.6432
125.3160,108.7243
125.3350,108.8200
125.3350,109.6200
125.3160,109.7157
125.2618,109.7968
125.1807,109.8510
125.0850,109.8700
Z" /> 
<path style="fill:#000000; fill-opacity:1.0000; stroke:none;fill-rule:evenodd;"
d="M 82.0589,107.0460
82.0780,106.9503
82.1322,106.8692
82.2133,106.8150
82.3089,106.7960
83.1339,106.7960
83.2296,106.8150
83.3107,106.8692
83.3649,106.9503
83.3839,107.0460
83.3839,108.3460
83.3649,108.4417
83.3107,108.5228
83.2296,108.5770
83.1339,108.5960
82.3089,108.5960
82.2133,108.5770
82.1322,108.5228
82.0780,108.4417
82.0589,108.3460
Z" /> 
<path style="fill:#000000; fill-opacity:1.0000; stroke:none;fill-rule:evenodd;"
d="M 85.1839,107.0460
85.2030,106.9503
85.2572,106.8692
85.3383,106.8150
85.4339,106.7960
86.2589,106.7960
86.3546,106.8150
86.4357,106.8692
86.4899,106.9503
86.5089,107.0460
86.5089,108.3460
86.4899,108.4417
86.4357,108.5228
86.3546,108.5770
86.2589,108.5960
85.4339,108.5960
85.3383,108.5770
85.2572,108.5228
85.2030,108.4417
85.1839,108.3460
Z" /> 
<path style="fill:#000000; fill-opacity:1.0000; stroke:none;fill-rule:evenodd;"
d="M 134.9936,120.0050
134.9745,120.1007
134.9203,120.1818
134.8392,120.2360
134.7436,120.2550
133.9436,120.2550
133.8479,120.2360
133.7668,120.1818
133.7126,120.1007
133.6936,120.0050
133.6936,118.7550
133.7126,118.6593
133.7668,118.5782
133.8479,118.5240
133.9436,118.5050
134.7436,118.5050
134.8392,118.5240
134.9203,118.5782
134.9745,118.6593
134.9936,118.7550
Z" /> 
<path style="fill:#000000; fill-opacity:1.0000; stroke:none;fill-rule:evenodd;"
d="M 131.8936,120.0050
131.8745,120.1007
131.8203,120.1818
131.7392,120.2360
131.6436,120.2550
130.8436,120.2550
130.7479,120.2360
130.6668,120.1818
130.6126,120.1007
130.5936,120.0050
130.5936,118.7550
130.6126,118.6593
130.6668,118.5782
130.7479,118.5240
130.8436,118.5050
131.6436,118.5050
131.7392,118.5240
131.8203,118.5782
131.8745,118.6593
131.8936,118.7550
Z" /> 
<path style="fill:#000000; fill-opacity:1.0000; stroke:none;fill-rule:evenodd;"
d="M 79.8029,117.9160
79.7072,117.8970
79.6261,117.8428
79.5719,117.7617
79.5529,117.6660
79.5529,116.9660
79.5719,116.8703
79.6261,116.7892
79.7072,116.7350
79.8029,116.7160
80.7029,116.7160
80.7986,116.7350
80.8797,116.7892
80.9339,116.8703
80.9529,116.9660
80.9529,117.6660
80.9339,117.7617
80.8797,117.8428
80.7986,117.8970
80.7029,117.9160
Z" /> 
<path style="fill:#000000; fill-opacity:1.0000; stroke:none;fill-rule:evenodd;"
d="M 79.8029,115.9160
79.7072,115.8970
79.6261,115.8428
79.5719,115.7617
79.5529,115.6660
79.5529,114.9660
79.5719,114.8703
79.6261,114.7892
79.7072,114.7350
79.8029,114.7160
80.7029,114.7160
80.7986,114.7350
80.8797,114.7892
80.9339,114.8703
80.9529,114.9660
80.9529,115.6660
80.9339,115.7617
80.8797,115.8428
80.7986,115.8970
80.7029,115.9160
Z" /> 
<path style="fill:#000000; fill-opacity:1.0000; stroke:none;fill-rule:evenodd;"
d="M 88.1990,64.5264
88.2180,64.4307
88.2722,64.3496
88.3533,64.2954
88.4490,64.2764
89.2740,64.2764
89.3697,64.2954
89.4508,64.3496
89.5050,64.4307
89.5240,64.5264
89.5240,65.8264
89.5050,65.9221
89.4508,66.0032
89.3697,66.0574
89.2740,66.0764
88.4490,66.0764
88.3533,66.0574
88.2722,66.0032
88.2180,65.9221
88.1990,65.8264
Z" /> 
<path style="fill:#000000; fill-opacity:1.0000; stroke:none;fill-rule:evenodd;"
d="M 91.3240,64.5264
91.3430,64.4307
91.3972,64.3496
91.4783,64.2954
91.5740,64.2764
92.3990,64.2764
92.4947,64.2954
92.5758,64.3496
92.6300,64.4307
92.6490,64.5264
92.6490,65.8264
92.6300,65.9221
92.5758,66.0032
92.4947,66.0574
92.3990,66.0764
91.5740,66.0764
91.4783,66.0574
91.3972,66.0032
91.3430,65.9221
91.3240,65.8264
Z" /> 
<path style="fill:#000000; fill-opacity:1.0000; stroke:none;fill-rule:evenodd;"
d="M 106.0557,93.4390
106.0748,93.3434
106.1289,93.2623
106.2101,93.2081
106.3057,93.1890
107.1307,93.1890
107.2264,93.2081
107.3075,93.2623
107.3617,93.3434
107.3807,93.4390
107.3807,94.7390
107.3617,94.8347
107.3075,94.9158
107.2264,94.9700
107.1307,94.9890
106.3057,94.9890
106.2101,94.9700
106.1289,94.9158
106.0748,94.8347
106.0557,94.7390
Z" /> 
<path style="fill:#000000; fill-opacity:1.0000; stroke:none;fill-rule:evenodd;"
d="M 109.1807,93.4390
109.1998,93.3434
109.2539,93.2623
109.3351,93.2081
109.4307,93.1890
110.2557,93.1890
110.3514,93.2081
110.4325,93.2623
110.4867,93.3434
110.5057,93.4390
110.5057,94.7390
110.4867,94.8347
110.4325,94.9158
110.3514,94.9700
110.2557,94.9890
109.4307,94.9890
109.3351,94.9700
109.2539,94.9158
109.1998,94.8347
109.1807,94.7390
Z" /> 
<path style="fill:#000000; fill-opacity:1.0000; stroke:none;fill-rule:evenodd;"
d="M 79.3129,87.8260
79.2939,87.9217
79.2397,88.0028
79.1586,88.0570
79.0629,88.0760
78.3629,88.0760
78.2672,88.0570
78.1861,88.0028
78.1319,87.9217
78.1129,87.8260
78.1129,86.9260
78.1319,86.8303
78.1861,86.7492
78.2672,86.6950
78.3629,86.6760
79.0629,86.6760
79.1586,86.6950
79.2397,86.7492
79.2939,86.8303
79.3129,86.9260
Z" /> 
<path style="fill:#000000; fill-opacity:1.0000; stroke:none;fill-rule:evenodd;"
d="M 77.3129,87.8260
77.2939,87.9217
77.2397,88.0028
77.1586,88.0570
77.0629,88.0760
76.3629,88.0760
76.2672,88.0570
76.1861,88.0028
76.1319,87.9217
76.1129,87.8260
76.1129,86.9260
76.1319,86.8303
76.1861,86.7492
76.2672,86.6950
76.3629,86.6760
77.0629,86.6760
77.1586,86.6950
77.2397,86.7492
77.2939,86.8303
77.3129,86.9260
Z" /> 
</g> 
</svg>
