<?xml version="1.0" standalone="no"?>
 <!DOCTYPE svg PUBLIC "-//W3C//DTD SVG 1.1//EN" 
 "http://www.w3.org/Graphics/SVG/1.1/DTD/svg11.dtd"> 
<svg
  xmlns:svg="http://www.w3.org/2000/svg"
  xmlns="http://www.w3.org/2000/svg"
  xmlns:xlink="http://www.w3.org/1999/xlink"
  version="1.1"
  width="297.0022mm" height="210.0072mm" viewBox="0.0000 0.0000 297.0022 210.0072">
<title>SVG Image created as modulo_seguidor-B_Silkscreen.svg date 2025/09/09 17:11:10 </title>
  <desc>Image generated by PCBNEW </desc>
<g style="fill:#000000; fill-opacity:1.0000;stroke:#000000; stroke-opacity:1.0000;
stroke-linecap:round; stroke-linejoin:round;"
 transform="translate(0 0) scale(1 1)">
</g>
<g style="fill:none; 
stroke:#000000; stroke-width:0.1500; stroke-opacity:1; 
stroke-linecap:round; stroke-linejoin:round;">
<path d="M177.0022 166.0072
L285.0022 166.0072
L285.0022 198.0072
L177.0022 198.0072
L177.0022 166.0072
" />
</g>
<g style="fill:none; 
stroke:#000000; stroke-width:0.1500; stroke-opacity:1; 
stroke-linecap:round; stroke-linejoin:round;">
<path d="M10.0000 10.0000
L287.0022 10.0000
L287.0022 200.0072
L10.0000 200.0072
L10.0000 10.0000
" />
</g>
<g style="fill:none; 
stroke:#000000; stroke-width:0.1500; stroke-opacity:1; 
stroke-linecap:round; stroke-linejoin:round;">
<path d="M12.0000 12.0000
L285.0022 12.0000
L285.0022 198.0072
L12.0000 198.0072
L12.0000 12.0000
" />
</g>
<g style="fill:none; 
stroke:#000000; stroke-width:0.1500; stroke-opacity:1; 
stroke-linecap:round; stroke-linejoin:round;">
<path d="M60.0000 12.0000
L60.0000 10.0000
" />
</g>
<g style="fill:none; 
stroke:#000000; stroke-width:0.1500; stroke-opacity:1; 
stroke-linecap:round; stroke-linejoin:round;">
<path d="M110.0000 12.0000
L110.0000 10.0000
" />
</g>
<g style="fill:none; 
stroke:#000000; stroke-width:0.1500; stroke-opacity:1; 
stroke-linecap:round; stroke-linejoin:round;">
<path d="M160.0000 12.0000
L160.0000 10.0000
" />
</g>
<g style="fill:none; 
stroke:#000000; stroke-width:0.1500; stroke-opacity:1; 
stroke-linecap:round; stroke-linejoin:round;">
<path d="M210.0000 12.0000
L210.0000 10.0000
" />
</g>
<g style="fill:none; 
stroke:#000000; stroke-width:0.1500; stroke-opacity:1; 
stroke-linecap:round; stroke-linejoin:round;">
<path d="M260.0000 12.0000
L260.0000 10.0000
" />
</g>
<g style="fill:none; 
stroke:#000000; stroke-width:0.1500; stroke-opacity:1; 
stroke-linecap:round; stroke-linejoin:round;">
<text x="35.0000" y="11.6500"
textLength="1.4281" font-size="1.7333" lengthAdjust="spacingAndGlyphs"
text-anchor="start" opacity="0" stroke-opacity="0">1</text>
<g class="stroked-text"><desc>1</desc>
<path d="M36.0892 11.5936
L35.3463 11.5936
" />
<path d="M35.7177 11.5936
L35.7177 10.2936
" />
<path d="M35.7177 10.2936
L35.5939 10.4793
" />
<path d="M35.5939 10.4793
L35.4701 10.6031
" />
<path d="M35.4701 10.6031
L35.3463 10.6650
" />
</g></g>
<g style="fill:none; 
stroke:#000000; stroke-width:0.1500; stroke-opacity:1; 
stroke-linecap:round; stroke-linejoin:round;">
<text x="85.0000" y="11.6500"
textLength="1.4281" font-size="1.7333" lengthAdjust="spacingAndGlyphs"
text-anchor="start" opacity="0" stroke-opacity="0">2</text>
<g class="stroked-text"><desc>2</desc>
<path d="M85.3463 10.4174
L85.4082 10.3555
" />
<path d="M85.4082 10.3555
L85.5320 10.2936
" />
<path d="M85.5320 10.2936
L85.8415 10.2936
" />
<path d="M85.8415 10.2936
L85.9654 10.3555
" />
<path d="M85.9654 10.3555
L86.0273 10.4174
" />
<path d="M86.0273 10.4174
L86.0892 10.5412
" />
<path d="M86.0892 10.5412
L86.0892 10.6650
" />
<path d="M86.0892 10.6650
L86.0273 10.8507
" />
<path d="M86.0273 10.8507
L85.2844 11.5936
" />
<path d="M85.2844 11.5936
L86.0892 11.5936
" />
</g></g>
<g style="fill:none; 
stroke:#000000; stroke-width:0.1500; stroke-opacity:1; 
stroke-linecap:round; stroke-linejoin:round;">
<text x="135.0000" y="11.6500"
textLength="1.4281" font-size="1.7333" lengthAdjust="spacingAndGlyphs"
text-anchor="start" opacity="0" stroke-opacity="0">3</text>
<g class="stroked-text"><desc>3</desc>
<path d="M135.2844 10.2936
L136.0892 10.2936
" />
<path d="M136.0892 10.2936
L135.6558 10.7888
" />
<path d="M135.6558 10.7888
L135.8415 10.7888
" />
<path d="M135.8415 10.7888
L135.9654 10.8507
" />
<path d="M135.9654 10.8507
L136.0273 10.9127
" />
<path d="M136.0273 10.9127
L136.0892 11.0365
" />
<path d="M136.0892 11.0365
L136.0892 11.3460
" />
<path d="M136.0892 11.3460
L136.0273 11.4698
" />
<path d="M136.0273 11.4698
L135.9654 11.5317
" />
<path d="M135.9654 11.5317
L135.8415 11.5936
" />
<path d="M135.8415 11.5936
L135.4701 11.5936
" />
<path d="M135.4701 11.5936
L135.3463 11.5317
" />
<path d="M135.3463 11.5317
L135.2844 11.4698
" />
</g></g>
<g style="fill:none; 
stroke:#000000; stroke-width:0.1500; stroke-opacity:1; 
stroke-linecap:round; stroke-linejoin:round;">
<text x="185.0000" y="11.6500"
textLength="1.4281" font-size="1.7333" lengthAdjust="spacingAndGlyphs"
text-anchor="start" opacity="0" stroke-opacity="0">4</text>
<g class="stroked-text"><desc>4</desc>
<path d="M185.9654 10.7269
L185.9654 11.5936
" />
<path d="M185.6558 10.2317
L185.3463 11.1603
" />
<path d="M185.3463 11.1603
L186.1511 11.1603
" />
</g></g>
<g style="fill:none; 
stroke:#000000; stroke-width:0.1500; stroke-opacity:1; 
stroke-linecap:round; stroke-linejoin:round;">
<text x="235.0000" y="11.6500"
textLength="1.4281" font-size="1.7333" lengthAdjust="spacingAndGlyphs"
text-anchor="start" opacity="0" stroke-opacity="0">5</text>
<g class="stroked-text"><desc>5</desc>
<path d="M236.0273 10.2936
L235.4082 10.2936
" />
<path d="M235.4082 10.2936
L235.3463 10.9127
" />
<path d="M235.3463 10.9127
L235.4082 10.8507
" />
<path d="M235.4082 10.8507
L235.5320 10.7888
" />
<path d="M235.5320 10.7888
L235.8415 10.7888
" />
<path d="M235.8415 10.7888
L235.9654 10.8507
" />
<path d="M235.9654 10.8507
L236.0273 10.9127
" />
<path d="M236.0273 10.9127
L236.0892 11.0365
" />
<path d="M236.0892 11.0365
L236.0892 11.3460
" />
<path d="M236.0892 11.3460
L236.0273 11.4698
" />
<path d="M236.0273 11.4698
L235.9654 11.5317
" />
<path d="M235.9654 11.5317
L235.8415 11.5936
" />
<path d="M235.8415 11.5936
L235.5320 11.5936
" />
<path d="M235.5320 11.5936
L235.4082 11.5317
" />
<path d="M235.4082 11.5317
L235.3463 11.4698
" />
</g></g>
<g style="fill:none; 
stroke:#000000; stroke-width:0.1500; stroke-opacity:1; 
stroke-linecap:round; stroke-linejoin:round;">
<text x="285.0000" y="11.6500"
textLength="1.4281" font-size="1.7333" lengthAdjust="spacingAndGlyphs"
text-anchor="start" opacity="0" stroke-opacity="0">6</text>
<g class="stroked-text"><desc>6</desc>
<path d="M285.9654 10.2936
L285.7177 10.2936
" />
<path d="M285.7177 10.2936
L285.5939 10.3555
" />
<path d="M285.5939 10.3555
L285.5320 10.4174
" />
<path d="M285.5320 10.4174
L285.4082 10.6031
" />
<path d="M285.4082 10.6031
L285.3463 10.8507
" />
<path d="M285.3463 10.8507
L285.3463 11.3460
" />
<path d="M285.3463 11.3460
L285.4082 11.4698
" />
<path d="M285.4082 11.4698
L285.4701 11.5317
" />
<path d="M285.4701 11.5317
L285.5939 11.5936
" />
<path d="M285.5939 11.5936
L285.8415 11.5936
" />
<path d="M285.8415 11.5936
L285.9654 11.5317
" />
<path d="M285.9654 11.5317
L286.0273 11.4698
" />
<path d="M286.0273 11.4698
L286.0892 11.3460
" />
<path d="M286.0892 11.3460
L286.0892 11.0365
" />
<path d="M286.0892 11.0365
L286.0273 10.9127
" />
<path d="M286.0273 10.9127
L285.9654 10.8507
" />
<path d="M285.9654 10.8507
L285.8415 10.7888
" />
<path d="M285.8415 10.7888
L285.5939 10.7888
" />
<path d="M285.5939 10.7888
L285.4701 10.8507
" />
<path d="M285.4701 10.8507
L285.4082 10.9127
" />
<path d="M285.4082 10.9127
L285.3463 11.0365
" />
</g></g>
<g style="fill:none; 
stroke:#000000; stroke-width:0.1500; stroke-opacity:1; 
stroke-linecap:round; stroke-linejoin:round;">
<path d="M60.0000 198.0072
L60.0000 200.0072
" />
</g>
<g style="fill:none; 
stroke:#000000; stroke-width:0.1500; stroke-opacity:1; 
stroke-linecap:round; stroke-linejoin:round;">
<path d="M110.0000 198.0072
L110.0000 200.0072
" />
</g>
<g style="fill:none; 
stroke:#000000; stroke-width:0.1500; stroke-opacity:1; 
stroke-linecap:round; stroke-linejoin:round;">
<path d="M160.0000 198.0072
L160.0000 200.0072
" />
</g>
<g style="fill:none; 
stroke:#000000; stroke-width:0.1500; stroke-opacity:1; 
stroke-linecap:round; stroke-linejoin:round;">
<path d="M210.0000 198.0072
L210.0000 200.0072
" />
</g>
<g style="fill:none; 
stroke:#000000; stroke-width:0.1500; stroke-opacity:1; 
stroke-linecap:round; stroke-linejoin:round;">
<path d="M260.0000 198.0072
L260.0000 200.0072
" />
</g>
<g style="fill:none; 
stroke:#000000; stroke-width:0.1500; stroke-opacity:1; 
stroke-linecap:round; stroke-linejoin:round;">
<text x="35.0000" y="199.6572"
textLength="1.4281" font-size="1.7333" lengthAdjust="spacingAndGlyphs"
text-anchor="start" opacity="0" stroke-opacity="0">1</text>
<g class="stroked-text"><desc>1</desc>
<path d="M36.0892 199.6008
L35.3463 199.6008
" />
<path d="M35.7177 199.6008
L35.7177 198.3008
" />
<path d="M35.7177 198.3008
L35.5939 198.4865
" />
<path d="M35.5939 198.4865
L35.4701 198.6103
" />
<path d="M35.4701 198.6103
L35.3463 198.6722
" />
</g></g>
<g style="fill:none; 
stroke:#000000; stroke-width:0.1500; stroke-opacity:1; 
stroke-linecap:round; stroke-linejoin:round;">
<text x="85.0000" y="199.6572"
textLength="1.4281" font-size="1.7333" lengthAdjust="spacingAndGlyphs"
text-anchor="start" opacity="0" stroke-opacity="0">2</text>
<g class="stroked-text"><desc>2</desc>
<path d="M85.3463 198.4246
L85.4082 198.3627
" />
<path d="M85.4082 198.3627
L85.5320 198.3008
" />
<path d="M85.5320 198.3008
L85.8415 198.3008
" />
<path d="M85.8415 198.3008
L85.9654 198.3627
" />
<path d="M85.9654 198.3627
L86.0273 198.4246
" />
<path d="M86.0273 198.4246
L86.0892 198.5484
" />
<path d="M86.0892 198.5484
L86.0892 198.6722
" />
<path d="M86.0892 198.6722
L86.0273 198.8579
" />
<path d="M86.0273 198.8579
L85.2844 199.6008
" />
<path d="M85.2844 199.6008
L86.0892 199.6008
" />
</g></g>
<g style="fill:none; 
stroke:#000000; stroke-width:0.1500; stroke-opacity:1; 
stroke-linecap:round; stroke-linejoin:round;">
<text x="135.0000" y="199.6572"
textLength="1.4281" font-size="1.7333" lengthAdjust="spacingAndGlyphs"
text-anchor="start" opacity="0" stroke-opacity="0">3</text>
<g class="stroked-text"><desc>3</desc>
<path d="M135.2844 198.3008
L136.0892 198.3008
" />
<path d="M136.0892 198.3008
L135.6558 198.7960
" />
<path d="M135.6558 198.7960
L135.8415 198.7960
" />
<path d="M135.8415 198.7960
L135.9654 198.8579
" />
<path d="M135.9654 198.8579
L136.0273 198.9199
" />
<path d="M136.0273 198.9199
L136.0892 199.0437
" />
<path d="M136.0892 199.0437
L136.0892 199.3532
" />
<path d="M136.0892 199.3532
L136.0273 199.4770
" />
<path d="M136.0273 199.4770
L135.9654 199.5389
" />
<path d="M135.9654 199.5389
L135.8415 199.6008
" />
<path d="M135.8415 199.6008
L135.4701 199.6008
" />
<path d="M135.4701 199.6008
L135.3463 199.5389
" />
<path d="M135.3463 199.5389
L135.2844 199.4770
" />
</g></g>
<g style="fill:none; 
stroke:#000000; stroke-width:0.1500; stroke-opacity:1; 
stroke-linecap:round; stroke-linejoin:round;">
<text x="185.0000" y="199.6572"
textLength="1.4281" font-size="1.7333" lengthAdjust="spacingAndGlyphs"
text-anchor="start" opacity="0" stroke-opacity="0">4</text>
<g class="stroked-text"><desc>4</desc>
<path d="M185.9654 198.7341
L185.9654 199.6008
" />
<path d="M185.6558 198.2389
L185.3463 199.1675
" />
<path d="M185.3463 199.1675
L186.1511 199.1675
" />
</g></g>
<g style="fill:none; 
stroke:#000000; stroke-width:0.1500; stroke-opacity:1; 
stroke-linecap:round; stroke-linejoin:round;">
<text x="235.0000" y="199.6572"
textLength="1.4281" font-size="1.7333" lengthAdjust="spacingAndGlyphs"
text-anchor="start" opacity="0" stroke-opacity="0">5</text>
<g class="stroked-text"><desc>5</desc>
<path d="M236.0273 198.3008
L235.4082 198.3008
" />
<path d="M235.4082 198.3008
L235.3463 198.9199
" />
<path d="M235.3463 198.9199
L235.4082 198.8579
" />
<path d="M235.4082 198.8579
L235.5320 198.7960
" />
<path d="M235.5320 198.7960
L235.8415 198.7960
" />
<path d="M235.8415 198.7960
L235.9654 198.8579
" />
<path d="M235.9654 198.8579
L236.0273 198.9199
" />
<path d="M236.0273 198.9199
L236.0892 199.0437
" />
<path d="M236.0892 199.0437
L236.0892 199.3532
" />
<path d="M236.0892 199.3532
L236.0273 199.4770
" />
<path d="M236.0273 199.4770
L235.9654 199.5389
" />
<path d="M235.9654 199.5389
L235.8415 199.6008
" />
<path d="M235.8415 199.6008
L235.5320 199.6008
" />
<path d="M235.5320 199.6008
L235.4082 199.5389
" />
<path d="M235.4082 199.5389
L235.3463 199.4770
" />
</g></g>
<g style="fill:none; 
stroke:#000000; stroke-width:0.1500; stroke-opacity:1; 
stroke-linecap:round; stroke-linejoin:round;">
<text x="285.0000" y="199.6572"
textLength="1.4281" font-size="1.7333" lengthAdjust="spacingAndGlyphs"
text-anchor="start" opacity="0" stroke-opacity="0">6</text>
<g class="stroked-text"><desc>6</desc>
<path d="M285.9654 198.3008
L285.7177 198.3008
" />
<path d="M285.7177 198.3008
L285.5939 198.3627
" />
<path d="M285.5939 198.3627
L285.5320 198.4246
" />
<path d="M285.5320 198.4246
L285.4082 198.6103
" />
<path d="M285.4082 198.6103
L285.3463 198.8579
" />
<path d="M285.3463 198.8579
L285.3463 199.3532
" />
<path d="M285.3463 199.3532
L285.4082 199.4770
" />
<path d="M285.4082 199.4770
L285.4701 199.5389
" />
<path d="M285.4701 199.5389
L285.5939 199.6008
" />
<path d="M285.5939 199.6008
L285.8415 199.6008
" />
<path d="M285.8415 199.6008
L285.9654 199.5389
" />
<path d="M285.9654 199.5389
L286.0273 199.4770
" />
<path d="M286.0273 199.4770
L286.0892 199.3532
" />
<path d="M286.0892 199.3532
L286.0892 199.0437
" />
<path d="M286.0892 199.0437
L286.0273 198.9199
" />
<path d="M286.0273 198.9199
L285.9654 198.8579
" />
<path d="M285.9654 198.8579
L285.8415 198.7960
" />
<path d="M285.8415 198.7960
L285.5939 198.7960
" />
<path d="M285.5939 198.7960
L285.4701 198.8579
" />
<path d="M285.4701 198.8579
L285.4082 198.9199
" />
<path d="M285.4082 198.9199
L285.3463 199.0437
" />
</g></g>
<g style="fill:none; 
stroke:#000000; stroke-width:0.1500; stroke-opacity:1; 
stroke-linecap:round; stroke-linejoin:round;">
<path d="M10.0000 60.0000
L12.0000 60.0000
" />
</g>
<g style="fill:none; 
stroke:#000000; stroke-width:0.1500; stroke-opacity:1; 
stroke-linecap:round; stroke-linejoin:round;">
<path d="M10.0000 110.0000
L12.0000 110.0000
" />
</g>
<g style="fill:none; 
stroke:#000000; stroke-width:0.1500; stroke-opacity:1; 
stroke-linecap:round; stroke-linejoin:round;">
<path d="M10.0000 160.0000
L12.0000 160.0000
" />
</g>
<g style="fill:none; 
stroke:#000000; stroke-width:0.1500; stroke-opacity:1; 
stroke-linecap:round; stroke-linejoin:round;">
<text x="11.0000" y="35.6500"
textLength="1.3043" font-size="1.7333" lengthAdjust="spacingAndGlyphs"
text-anchor="middle" opacity="0" stroke-opacity="0">A</text>
<g class="stroked-text"><desc>A</desc>
<path d="M10.6905 35.2222
L11.3095 35.2222
" />
<path d="M10.5667 35.5936
L11.0000 34.2936
" />
<path d="M11.0000 34.2936
L11.4333 35.5936
" />
</g></g>
<g style="fill:none; 
stroke:#000000; stroke-width:0.1500; stroke-opacity:1; 
stroke-linecap:round; stroke-linejoin:round;">
<text x="11.0000" y="85.6500"
textLength="1.4900" font-size="1.7333" lengthAdjust="spacingAndGlyphs"
text-anchor="middle" opacity="0" stroke-opacity="0">B</text>
<g class="stroked-text"><desc>B</desc>
<path d="M11.0929 84.9127
L11.2786 84.9746
" />
<path d="M11.2786 84.9746
L11.3405 85.0365
" />
<path d="M11.3405 85.0365
L11.4024 85.1603
" />
<path d="M11.4024 85.1603
L11.4024 85.3460
" />
<path d="M11.4024 85.3460
L11.3405 85.4698
" />
<path d="M11.3405 85.4698
L11.2786 85.5317
" />
<path d="M11.2786 85.5317
L11.1548 85.5936
" />
<path d="M11.1548 85.5936
L10.6595 85.5936
" />
<path d="M10.6595 85.5936
L10.6595 84.2936
" />
<path d="M10.6595 84.2936
L11.0929 84.2936
" />
<path d="M11.0929 84.2936
L11.2167 84.3555
" />
<path d="M11.2167 84.3555
L11.2786 84.4174
" />
<path d="M11.2786 84.4174
L11.3405 84.5412
" />
<path d="M11.3405 84.5412
L11.3405 84.6650
" />
<path d="M11.3405 84.6650
L11.2786 84.7888
" />
<path d="M11.2786 84.7888
L11.2167 84.8507
" />
<path d="M11.2167 84.8507
L11.0929 84.9127
" />
<path d="M11.0929 84.9127
L10.6595 84.9127
" />
</g></g>
<g style="fill:none; 
stroke:#000000; stroke-width:0.1500; stroke-opacity:1; 
stroke-linecap:round; stroke-linejoin:round;">
<text x="11.0000" y="135.6500"
textLength="1.4900" font-size="1.7333" lengthAdjust="spacingAndGlyphs"
text-anchor="middle" opacity="0" stroke-opacity="0">C</text>
<g class="stroked-text"><desc>C</desc>
<path d="M11.4024 135.4698
L11.3405 135.5317
" />
<path d="M11.3405 135.5317
L11.1548 135.5936
" />
<path d="M11.1548 135.5936
L11.0310 135.5936
" />
<path d="M11.0310 135.5936
L10.8452 135.5317
" />
<path d="M10.8452 135.5317
L10.7214 135.4079
" />
<path d="M10.7214 135.4079
L10.6595 135.2841
" />
<path d="M10.6595 135.2841
L10.5976 135.0365
" />
<path d="M10.5976 135.0365
L10.5976 134.8507
" />
<path d="M10.5976 134.8507
L10.6595 134.6031
" />
<path d="M10.6595 134.6031
L10.7214 134.4793
" />
<path d="M10.7214 134.4793
L10.8452 134.3555
" />
<path d="M10.8452 134.3555
L11.0310 134.2936
" />
<path d="M11.0310 134.2936
L11.1548 134.2936
" />
<path d="M11.1548 134.2936
L11.3405 134.3555
" />
<path d="M11.3405 134.3555
L11.4024 134.4174
" />
</g></g>
<g style="fill:none; 
stroke:#000000; stroke-width:0.1500; stroke-opacity:1; 
stroke-linecap:round; stroke-linejoin:round;">
<text x="11.0000" y="185.6500"
textLength="1.4900" font-size="1.7333" lengthAdjust="spacingAndGlyphs"
text-anchor="middle" opacity="0" stroke-opacity="0">D</text>
<g class="stroked-text"><desc>D</desc>
<path d="M10.6595 185.5936
L10.6595 184.2936
" />
<path d="M10.6595 184.2936
L10.9690 184.2936
" />
<path d="M10.9690 184.2936
L11.1548 184.3555
" />
<path d="M11.1548 184.3555
L11.2786 184.4793
" />
<path d="M11.2786 184.4793
L11.3405 184.6031
" />
<path d="M11.3405 184.6031
L11.4024 184.8507
" />
<path d="M11.4024 184.8507
L11.4024 185.0365
" />
<path d="M11.4024 185.0365
L11.3405 185.2841
" />
<path d="M11.3405 185.2841
L11.2786 185.4079
" />
<path d="M11.2786 185.4079
L11.1548 185.5317
" />
<path d="M11.1548 185.5317
L10.9690 185.5936
" />
<path d="M10.9690 185.5936
L10.6595 185.5936
" />
</g></g>
<g style="fill:none; 
stroke:#000000; stroke-width:0.1500; stroke-opacity:1; 
stroke-linecap:round; stroke-linejoin:round;">
<path d="M287.0022 60.0000
L285.0022 60.0000
" />
</g>
<g style="fill:none; 
stroke:#000000; stroke-width:0.1500; stroke-opacity:1; 
stroke-linecap:round; stroke-linejoin:round;">
<path d="M287.0022 110.0000
L285.0022 110.0000
" />
</g>
<g style="fill:none; 
stroke:#000000; stroke-width:0.1500; stroke-opacity:1; 
stroke-linecap:round; stroke-linejoin:round;">
<path d="M287.0022 160.0000
L285.0022 160.0000
" />
</g>
<g style="fill:none; 
stroke:#000000; stroke-width:0.1500; stroke-opacity:1; 
stroke-linecap:round; stroke-linejoin:round;">
<text x="286.0022" y="35.6500"
textLength="1.3043" font-size="1.7333" lengthAdjust="spacingAndGlyphs"
text-anchor="middle" opacity="0" stroke-opacity="0">A</text>
<g class="stroked-text"><desc>A</desc>
<path d="M285.6927 35.2222
L286.3117 35.2222
" />
<path d="M285.5689 35.5936
L286.0022 34.2936
" />
<path d="M286.0022 34.2936
L286.4355 35.5936
" />
</g></g>
<g style="fill:none; 
stroke:#000000; stroke-width:0.1500; stroke-opacity:1; 
stroke-linecap:round; stroke-linejoin:round;">
<text x="286.0022" y="85.6500"
textLength="1.4900" font-size="1.7333" lengthAdjust="spacingAndGlyphs"
text-anchor="middle" opacity="0" stroke-opacity="0">B</text>
<g class="stroked-text"><desc>B</desc>
<path d="M286.0951 84.9127
L286.2808 84.9746
" />
<path d="M286.2808 84.9746
L286.3427 85.0365
" />
<path d="M286.3427 85.0365
L286.4046 85.1603
" />
<path d="M286.4046 85.1603
L286.4046 85.3460
" />
<path d="M286.4046 85.3460
L286.3427 85.4698
" />
<path d="M286.3427 85.4698
L286.2808 85.5317
" />
<path d="M286.2808 85.5317
L286.1570 85.5936
" />
<path d="M286.1570 85.5936
L285.6617 85.5936
" />
<path d="M285.6617 85.5936
L285.6617 84.2936
" />
<path d="M285.6617 84.2936
L286.0951 84.2936
" />
<path d="M286.0951 84.2936
L286.2189 84.3555
" />
<path d="M286.2189 84.3555
L286.2808 84.4174
" />
<path d="M286.2808 84.4174
L286.3427 84.5412
" />
<path d="M286.3427 84.5412
L286.3427 84.6650
" />
<path d="M286.3427 84.6650
L286.2808 84.7888
" />
<path d="M286.2808 84.7888
L286.2189 84.8507
" />
<path d="M286.2189 84.8507
L286.0951 84.9127
" />
<path d="M286.0951 84.9127
L285.6617 84.9127
" />
</g></g>
<g style="fill:none; 
stroke:#000000; stroke-width:0.1500; stroke-opacity:1; 
stroke-linecap:round; stroke-linejoin:round;">
<text x="286.0022" y="135.6500"
textLength="1.4900" font-size="1.7333" lengthAdjust="spacingAndGlyphs"
text-anchor="middle" opacity="0" stroke-opacity="0">C</text>
<g class="stroked-text"><desc>C</desc>
<path d="M286.4046 135.4698
L286.3427 135.5317
" />
<path d="M286.3427 135.5317
L286.1570 135.5936
" />
<path d="M286.1570 135.5936
L286.0332 135.5936
" />
<path d="M286.0332 135.5936
L285.8474 135.5317
" />
<path d="M285.8474 135.5317
L285.7236 135.4079
" />
<path d="M285.7236 135.4079
L285.6617 135.2841
" />
<path d="M285.6617 135.2841
L285.5998 135.0365
" />
<path d="M285.5998 135.0365
L285.5998 134.8507
" />
<path d="M285.5998 134.8507
L285.6617 134.6031
" />
<path d="M285.6617 134.6031
L285.7236 134.4793
" />
<path d="M285.7236 134.4793
L285.8474 134.3555
" />
<path d="M285.8474 134.3555
L286.0332 134.2936
" />
<path d="M286.0332 134.2936
L286.1570 134.2936
" />
<path d="M286.1570 134.2936
L286.3427 134.3555
" />
<path d="M286.3427 134.3555
L286.4046 134.4174
" />
</g></g>
<g style="fill:none; 
stroke:#000000; stroke-width:0.1500; stroke-opacity:1; 
stroke-linecap:round; stroke-linejoin:round;">
<text x="286.0022" y="185.6500"
textLength="1.4900" font-size="1.7333" lengthAdjust="spacingAndGlyphs"
text-anchor="middle" opacity="0" stroke-opacity="0">D</text>
<g class="stroked-text"><desc>D</desc>
<path d="M285.6617 185.5936
L285.6617 184.2936
" />
<path d="M285.6617 184.2936
L285.9712 184.2936
" />
<path d="M285.9712 184.2936
L286.1570 184.3555
" />
<path d="M286.1570 184.3555
L286.2808 184.4793
" />
<path d="M286.2808 184.4793
L286.3427 184.6031
" />
<path d="M286.3427 184.6031
L286.4046 184.8507
" />
<path d="M286.4046 184.8507
L286.4046 185.0365
" />
<path d="M286.4046 185.0365
L286.3427 185.2841
" />
<path d="M286.3427 185.2841
L286.2808 185.4079
" />
<path d="M286.2808 185.4079
L286.1570 185.5317
" />
<path d="M286.1570 185.5317
L285.9712 185.5936
" />
<path d="M285.9712 185.5936
L285.6617 185.5936
" />
</g></g>
<g style="fill:none; 
stroke:#000000; stroke-width:0.1500; stroke-opacity:1; 
stroke-linecap:round; stroke-linejoin:round;">
<text x="200.0022" y="193.8572"
textLength="7.0071" font-size="2.0000" lengthAdjust="spacingAndGlyphs"
text-anchor="start" opacity="0" stroke-opacity="0">Date: </text>
<g class="stroked-text"><desc>Date: </desc>
<path d="M200.4580 193.7933
L200.4580 192.2933
" />
<path d="M200.4580 192.2933
L200.8152 192.2933
" />
<path d="M200.8152 192.2933
L201.0295 192.3648
" />
<path d="M201.0295 192.3648
L201.1723 192.5076
" />
<path d="M201.1723 192.5076
L201.2437 192.6505
" />
<path d="M201.2437 192.6505
L201.3152 192.9362
" />
<path d="M201.3152 192.9362
L201.3152 193.1505
" />
<path d="M201.3152 193.1505
L201.2437 193.4362
" />
<path d="M201.2437 193.4362
L201.1723 193.5790
" />
<path d="M201.1723 193.5790
L201.0295 193.7219
" />
<path d="M201.0295 193.7219
L200.8152 193.7933
" />
<path d="M200.8152 193.7933
L200.4580 193.7933
" />
<path d="M202.6009 193.7933
L202.6009 193.0076
" />
<path d="M202.6009 193.0076
L202.5295 192.8648
" />
<path d="M202.5295 192.8648
L202.3866 192.7933
" />
<path d="M202.3866 192.7933
L202.1009 192.7933
" />
<path d="M202.1009 192.7933
L201.9580 192.8648
" />
<path d="M202.6009 193.7219
L202.4580 193.7933
" />
<path d="M202.4580 193.7933
L202.1009 193.7933
" />
<path d="M202.1009 193.7933
L201.9580 193.7219
" />
<path d="M201.9580 193.7219
L201.8866 193.5790
" />
<path d="M201.8866 193.5790
L201.8866 193.4362
" />
<path d="M201.8866 193.4362
L201.9580 193.2933
" />
<path d="M201.9580 193.2933
L202.1009 193.2219
" />
<path d="M202.1009 193.2219
L202.4580 193.2219
" />
<path d="M202.4580 193.2219
L202.6009 193.1505
" />
<path d="M203.1009 192.7933
L203.6723 192.7933
" />
<path d="M203.3152 192.2933
L203.3152 193.5790
" />
<path d="M203.3152 193.5790
L203.3866 193.7219
" />
<path d="M203.3866 193.7219
L203.5295 193.7933
" />
<path d="M203.5295 193.7933
L203.6723 193.7933
" />
<path d="M204.7437 193.7219
L204.6009 193.7933
" />
<path d="M204.6009 193.7933
L204.3152 193.7933
" />
<path d="M204.3152 193.7933
L204.1723 193.7219
" />
<path d="M204.1723 193.7219
L204.1009 193.5790
" />
<path d="M204.1009 193.5790
L204.1009 193.0076
" />
<path d="M204.1009 193.0076
L204.1723 192.8648
" />
<path d="M204.1723 192.8648
L204.3152 192.7933
" />
<path d="M204.3152 192.7933
L204.6009 192.7933
" />
<path d="M204.6009 192.7933
L204.7437 192.8648
" />
<path d="M204.7437 192.8648
L204.8152 193.0076
" />
<path d="M204.8152 193.0076
L204.8152 193.1505
" />
<path d="M204.8152 193.1505
L204.1009 193.2933
" />
<path d="M205.4580 193.6505
L205.5295 193.7219
" />
<path d="M205.5295 193.7219
L205.4580 193.7933
" />
<path d="M205.4580 193.7933
L205.3866 193.7219
" />
<path d="M205.3866 193.7219
L205.4580 193.6505
" />
<path d="M205.4580 193.6505
L205.4580 193.7933
" />
<path d="M205.4580 192.8648
L205.5295 192.9362
" />
<path d="M205.5295 192.9362
L205.4580 193.0076
" />
<path d="M205.4580 193.0076
L205.3866 192.9362
" />
<path d="M205.3866 192.9362
L205.4580 192.8648
" />
<path d="M205.4580 192.8648
L205.4580 193.0076
" />
</g></g>
<g style="fill:none; 
stroke:#000000; stroke-width:0.1500; stroke-opacity:1; 
stroke-linecap:round; stroke-linejoin:round;">
<path d="M177.0022 194.5072
L285.0022 194.5072
" />
</g>
<g style="fill:none; 
stroke:#000000; stroke-width:0.1500; stroke-opacity:1; 
stroke-linecap:round; stroke-linejoin:round;">
<text x="178.0022" y="196.6572"
textLength="20.6500" font-size="2.0000" lengthAdjust="spacingAndGlyphs"
text-anchor="start" opacity="0" stroke-opacity="0">${KICAD_VERSION}</text>
<g class="stroked-text"><desc>${KICAD_VERSION}</desc>
<path d="M178.3866 196.5219
L178.6009 196.5933
" />
<path d="M178.6009 196.5933
L178.9580 196.5933
" />
<path d="M178.9580 196.5933
L179.1009 196.5219
" />
<path d="M179.1009 196.5219
L179.1723 196.4505
" />
<path d="M179.1723 196.4505
L179.2437 196.3076
" />
<path d="M179.2437 196.3076
L179.2437 196.1648
" />
<path d="M179.2437 196.1648
L179.1723 196.0219
" />
<path d="M179.1723 196.0219
L179.1009 195.9505
" />
<path d="M179.1009 195.9505
L178.9580 195.8790
" />
<path d="M178.9580 195.8790
L178.6723 195.8076
" />
<path d="M178.6723 195.8076
L178.5295 195.7362
" />
<path d="M178.5295 195.7362
L178.4580 195.6648
" />
<path d="M178.4580 195.6648
L178.3866 195.5219
" />
<path d="M178.3866 195.5219
L178.3866 195.3790
" />
<path d="M178.3866 195.3790
L178.4580 195.2362
" />
<path d="M178.4580 195.2362
L178.5295 195.1648
" />
<path d="M178.5295 195.1648
L178.6723 195.0933
" />
<path d="M178.6723 195.0933
L179.0295 195.0933
" />
<path d="M179.0295 195.0933
L179.2437 195.1648
" />
<path d="M178.8152 194.8790
L178.8152 196.8076
" />
<path d="M180.3152 197.1648
L180.2437 197.1648
" />
<path d="M180.2437 197.1648
L180.1009 197.0933
" />
<path d="M180.1009 197.0933
L180.0295 196.9505
" />
<path d="M180.0295 196.9505
L180.0295 196.2362
" />
<path d="M180.0295 196.2362
L179.9580 196.0933
" />
<path d="M179.9580 196.0933
L179.8152 196.0219
" />
<path d="M179.8152 196.0219
L179.9580 195.9505
" />
<path d="M179.9580 195.9505
L180.0295 195.8076
" />
<path d="M180.0295 195.8076
L180.0295 195.0933
" />
<path d="M180.0295 195.0933
L180.1009 194.9505
" />
<path d="M180.1009 194.9505
L180.2437 194.8790
" />
<path d="M180.2437 194.8790
L180.3152 194.8790
" />
<path d="M180.8866 196.5933
L180.8866 195.0933
" />
<path d="M181.7437 196.5933
L181.1009 195.7362
" />
<path d="M181.7437 195.0933
L180.8866 195.9505
" />
<path d="M182.3866 196.5933
L182.3866 195.0933
" />
<path d="M183.9580 196.4505
L183.8866 196.5219
" />
<path d="M183.8866 196.5219
L183.6723 196.5933
" />
<path d="M183.6723 196.5933
L183.5295 196.5933
" />
<path d="M183.5295 196.5933
L183.3152 196.5219
" />
<path d="M183.3152 196.5219
L183.1723 196.3790
" />
<path d="M183.1723 196.3790
L183.1009 196.2362
" />
<path d="M183.1009 196.2362
L183.0295 195.9505
" />
<path d="M183.0295 195.9505
L183.0295 195.7362
" />
<path d="M183.0295 195.7362
L183.1009 195.4505
" />
<path d="M183.1009 195.4505
L183.1723 195.3076
" />
<path d="M183.1723 195.3076
L183.3152 195.1648
" />
<path d="M183.3152 195.1648
L183.5295 195.0933
" />
<path d="M183.5295 195.0933
L183.6723 195.0933
" />
<path d="M183.6723 195.0933
L183.8866 195.1648
" />
<path d="M183.8866 195.1648
L183.9580 195.2362
" />
<path d="M184.5295 196.1648
L185.2437 196.1648
" />
<path d="M184.3866 196.5933
L184.8866 195.0933
" />
<path d="M184.8866 195.0933
L185.3866 196.5933
" />
<path d="M185.8866 196.5933
L185.8866 195.0933
" />
<path d="M185.8866 195.0933
L186.2437 195.0933
" />
<path d="M186.2437 195.0933
L186.4580 195.1648
" />
<path d="M186.4580 195.1648
L186.6009 195.3076
" />
<path d="M186.6009 195.3076
L186.6723 195.4505
" />
<path d="M186.6723 195.4505
L186.7437 195.7362
" />
<path d="M186.7437 195.7362
L186.7437 195.9505
" />
<path d="M186.7437 195.9505
L186.6723 196.2362
" />
<path d="M186.6723 196.2362
L186.6009 196.3790
" />
<path d="M186.6009 196.3790
L186.4580 196.5219
" />
<path d="M186.4580 196.5219
L186.2437 196.5933
" />
<path d="M186.2437 196.5933
L185.8866 196.5933
" />
<path d="M187.0295 196.7362
L188.1723 196.7362
" />
<path d="M188.3152 195.0933
L188.8152 196.5933
" />
<path d="M188.8152 196.5933
L189.3152 195.0933
" />
<path d="M189.8152 195.8076
L190.3152 195.8076
" />
<path d="M190.5295 196.5933
L189.8152 196.5933
" />
<path d="M189.8152 196.5933
L189.8152 195.0933
" />
<path d="M189.8152 195.0933
L190.5295 195.0933
" />
<path d="M192.0295 196.5933
L191.5295 195.8790
" />
<path d="M191.1723 196.5933
L191.1723 195.0933
" />
<path d="M191.1723 195.0933
L191.7437 195.0933
" />
<path d="M191.7437 195.0933
L191.8866 195.1648
" />
<path d="M191.8866 195.1648
L191.9580 195.2362
" />
<path d="M191.9580 195.2362
L192.0295 195.3790
" />
<path d="M192.0295 195.3790
L192.0295 195.5933
" />
<path d="M192.0295 195.5933
L191.9580 195.7362
" />
<path d="M191.9580 195.7362
L191.8866 195.8076
" />
<path d="M191.8866 195.8076
L191.7437 195.8790
" />
<path d="M191.7437 195.8790
L191.1723 195.8790
" />
<path d="M192.6009 196.5219
L192.8152 196.5933
" />
<path d="M192.8152 196.5933
L193.1723 196.5933
" />
<path d="M193.1723 196.5933
L193.3152 196.5219
" />
<path d="M193.3152 196.5219
L193.3866 196.4505
" />
<path d="M193.3866 196.4505
L193.4580 196.3076
" />
<path d="M193.4580 196.3076
L193.4580 196.1648
" />
<path d="M193.4580 196.1648
L193.3866 196.0219
" />
<path d="M193.3866 196.0219
L193.3152 195.9505
" />
<path d="M193.3152 195.9505
L193.1723 195.8790
" />
<path d="M193.1723 195.8790
L192.8866 195.8076
" />
<path d="M192.8866 195.8076
L192.7437 195.7362
" />
<path d="M192.7437 195.7362
L192.6723 195.6648
" />
<path d="M192.6723 195.6648
L192.6009 195.5219
" />
<path d="M192.6009 195.5219
L192.6009 195.3790
" />
<path d="M192.6009 195.3790
L192.6723 195.2362
" />
<path d="M192.6723 195.2362
L192.7437 195.1648
" />
<path d="M192.7437 195.1648
L192.8866 195.0933
" />
<path d="M192.8866 195.0933
L193.2437 195.0933
" />
<path d="M193.2437 195.0933
L193.4580 195.1648
" />
<path d="M194.1009 196.5933
L194.1009 195.0933
" />
<path d="M195.1009 195.0933
L195.3866 195.0933
" />
<path d="M195.3866 195.0933
L195.5295 195.1648
" />
<path d="M195.5295 195.1648
L195.6723 195.3076
" />
<path d="M195.6723 195.3076
L195.7437 195.5933
" />
<path d="M195.7437 195.5933
L195.7437 196.0933
" />
<path d="M195.7437 196.0933
L195.6723 196.3790
" />
<path d="M195.6723 196.3790
L195.5295 196.5219
" />
<path d="M195.5295 196.5219
L195.3866 196.5933
" />
<path d="M195.3866 196.5933
L195.1009 196.5933
" />
<path d="M195.1009 196.5933
L194.9580 196.5219
" />
<path d="M194.9580 196.5219
L194.8152 196.3790
" />
<path d="M194.8152 196.3790
L194.7437 196.0933
" />
<path d="M194.7437 196.0933
L194.7437 195.5933
" />
<path d="M194.7437 195.5933
L194.8152 195.3076
" />
<path d="M194.8152 195.3076
L194.9580 195.1648
" />
<path d="M194.9580 195.1648
L195.1009 195.0933
" />
<path d="M196.3866 196.5933
L196.3866 195.0933
" />
<path d="M196.3866 195.0933
L197.2437 196.5933
" />
<path d="M197.2437 196.5933
L197.2437 195.0933
" />
<path d="M197.8152 197.1648
L197.8866 197.1648
" />
<path d="M197.8866 197.1648
L198.0295 197.0933
" />
<path d="M198.0295 197.0933
L198.1009 196.9505
" />
<path d="M198.1009 196.9505
L198.1009 196.2362
" />
<path d="M198.1009 196.2362
L198.1723 196.0933
" />
<path d="M198.1723 196.0933
L198.3152 196.0219
" />
<path d="M198.3152 196.0219
L198.1723 195.9505
" />
<path d="M198.1723 195.9505
L198.1009 195.8076
" />
<path d="M198.1009 195.8076
L198.1009 195.0933
" />
<path d="M198.1009 195.0933
L198.0295 194.9505
" />
<path d="M198.0295 194.9505
L197.8866 194.8790
" />
<path d="M197.8866 194.8790
L197.8152 194.8790
" />
</g></g>
<g style="fill:none; 
stroke:#000000; stroke-width:0.1500; stroke-opacity:1; 
stroke-linecap:round; stroke-linejoin:round;">
<path d="M177.0022 191.5072
L285.0022 191.5072
" />
</g>
<g style="fill:none; 
stroke:#000000; stroke-width:0.3000; stroke-opacity:1; 
stroke-linecap:round; stroke-linejoin:round;">
<text x="263.0022" y="193.8572"
textLength="6.3857" font-size="2.0000" lengthAdjust="spacingAndGlyphs"
text-anchor="start" opacity="0" stroke-opacity="0">Rev: </text>
<g class="stroked-text"><desc>Rev: </desc>
<path d="M264.4139 193.7855
L263.9139 193.0712
" />
<path d="M263.5567 193.7855
L263.5567 192.2855
" />
<path d="M263.5567 192.2855
L264.1281 192.2855
" />
<path d="M264.1281 192.2855
L264.2710 192.3570
" />
<path d="M264.2710 192.3570
L264.3424 192.4284
" />
<path d="M264.3424 192.4284
L264.4139 192.5712
" />
<path d="M264.4139 192.5712
L264.4139 192.7855
" />
<path d="M264.4139 192.7855
L264.3424 192.9284
" />
<path d="M264.3424 192.9284
L264.2710 192.9998
" />
<path d="M264.2710 192.9998
L264.1281 193.0712
" />
<path d="M264.1281 193.0712
L263.5567 193.0712
" />
<path d="M265.6281 193.7141
L265.4853 193.7855
" />
<path d="M265.4853 193.7855
L265.1996 193.7855
" />
<path d="M265.1996 193.7855
L265.0567 193.7141
" />
<path d="M265.0567 193.7141
L264.9853 193.5712
" />
<path d="M264.9853 193.5712
L264.9853 192.9998
" />
<path d="M264.9853 192.9998
L265.0567 192.8570
" />
<path d="M265.0567 192.8570
L265.1996 192.7855
" />
<path d="M265.1996 192.7855
L265.4853 192.7855
" />
<path d="M265.4853 192.7855
L265.6281 192.8570
" />
<path d="M265.6281 192.8570
L265.6996 192.9998
" />
<path d="M265.6996 192.9998
L265.6996 193.1427
" />
<path d="M265.6996 193.1427
L264.9853 193.2855
" />
<path d="M266.1996 192.7855
L266.5567 193.7855
" />
<path d="M266.5567 193.7855
L266.9139 192.7855
" />
<path d="M267.4853 193.6427
L267.5567 193.7141
" />
<path d="M267.5567 193.7141
L267.4853 193.7855
" />
<path d="M267.4853 193.7855
L267.4139 193.7141
" />
<path d="M267.4139 193.7141
L267.4853 193.6427
" />
<path d="M267.4853 193.6427
L267.4853 193.7855
" />
<path d="M267.4853 192.8570
L267.5567 192.9284
" />
<path d="M267.5567 192.9284
L267.4853 192.9998
" />
<path d="M267.4853 192.9998
L267.4139 192.9284
" />
<path d="M267.4139 192.9284
L267.4853 192.8570
" />
<path d="M267.4853 192.8570
L267.4853 192.9998
" />
</g></g>
<g style="fill:none; 
stroke:#000000; stroke-width:0.1500; stroke-opacity:1; 
stroke-linecap:round; stroke-linejoin:round;">
<text x="178.0022" y="193.8572"
textLength="9.3643" font-size="2.0000" lengthAdjust="spacingAndGlyphs"
text-anchor="start" opacity="0" stroke-opacity="0">Size: A4</text>
<g class="stroked-text"><desc>Size: A4</desc>
<path d="M178.3866 193.7219
L178.6009 193.7933
" />
<path d="M178.6009 193.7933
L178.9580 193.7933
" />
<path d="M178.9580 193.7933
L179.1009 193.7219
" />
<path d="M179.1009 193.7219
L179.1723 193.6505
" />
<path d="M179.1723 193.6505
L179.2437 193.5076
" />
<path d="M179.2437 193.5076
L179.2437 193.3648
" />
<path d="M179.2437 193.3648
L179.1723 193.2219
" />
<path d="M179.1723 193.2219
L179.1009 193.1505
" />
<path d="M179.1009 193.1505
L178.9580 193.0790
" />
<path d="M178.9580 193.0790
L178.6723 193.0076
" />
<path d="M178.6723 193.0076
L178.5295 192.9362
" />
<path d="M178.5295 192.9362
L178.4580 192.8648
" />
<path d="M178.4580 192.8648
L178.3866 192.7219
" />
<path d="M178.3866 192.7219
L178.3866 192.5790
" />
<path d="M178.3866 192.5790
L178.4580 192.4362
" />
<path d="M178.4580 192.4362
L178.5295 192.3648
" />
<path d="M178.5295 192.3648
L178.6723 192.2933
" />
<path d="M178.6723 192.2933
L179.0295 192.2933
" />
<path d="M179.0295 192.2933
L179.2437 192.3648
" />
<path d="M179.8866 193.7933
L179.8866 192.7933
" />
<path d="M179.8866 192.2933
L179.8152 192.3648
" />
<path d="M179.8152 192.3648
L179.8866 192.4362
" />
<path d="M179.8866 192.4362
L179.9580 192.3648
" />
<path d="M179.9580 192.3648
L179.8866 192.2933
" />
<path d="M179.8866 192.2933
L179.8866 192.4362
" />
<path d="M180.4580 192.7933
L181.2437 192.7933
" />
<path d="M181.2437 192.7933
L180.4580 193.7933
" />
<path d="M180.4580 193.7933
L181.2437 193.7933
" />
<path d="M182.3866 193.7219
L182.2437 193.7933
" />
<path d="M182.2437 193.7933
L181.9580 193.7933
" />
<path d="M181.9580 193.7933
L181.8152 193.7219
" />
<path d="M181.8152 193.7219
L181.7437 193.5790
" />
<path d="M181.7437 193.5790
L181.7437 193.0076
" />
<path d="M181.7437 193.0076
L181.8152 192.8648
" />
<path d="M181.8152 192.8648
L181.9580 192.7933
" />
<path d="M181.9580 192.7933
L182.2437 192.7933
" />
<path d="M182.2437 192.7933
L182.3866 192.8648
" />
<path d="M182.3866 192.8648
L182.4580 193.0076
" />
<path d="M182.4580 193.0076
L182.4580 193.1505
" />
<path d="M182.4580 193.1505
L181.7437 193.2933
" />
<path d="M183.1009 193.6505
L183.1723 193.7219
" />
<path d="M183.1723 193.7219
L183.1009 193.7933
" />
<path d="M183.1009 193.7933
L183.0295 193.7219
" />
<path d="M183.0295 193.7219
L183.1009 193.6505
" />
<path d="M183.1009 193.6505
L183.1009 193.7933
" />
<path d="M183.1009 192.8648
L183.1723 192.9362
" />
<path d="M183.1723 192.9362
L183.1009 193.0076
" />
<path d="M183.1009 193.0076
L183.0295 192.9362
" />
<path d="M183.0295 192.9362
L183.1009 192.8648
" />
<path d="M183.1009 192.8648
L183.1009 193.0076
" />
<path d="M184.8866 193.3648
L185.6009 193.3648
" />
<path d="M184.7437 193.7933
L185.2437 192.2933
" />
<path d="M185.2437 192.2933
L185.7437 193.7933
" />
<path d="M186.8866 192.7933
L186.8866 193.7933
" />
<path d="M186.5295 192.2219
L186.1723 193.2933
" />
<path d="M186.1723 193.2933
L187.1009 193.2933
" />
</g></g>
<g style="fill:none; 
stroke:#000000; stroke-width:0.1500; stroke-opacity:1; 
stroke-linecap:round; stroke-linejoin:round;">
<text x="263.0022" y="196.6572"
textLength="7.0786" font-size="2.0000" lengthAdjust="spacingAndGlyphs"
text-anchor="start" opacity="0" stroke-opacity="0">Id: /1</text>
<g class="stroked-text"><desc>Id: /1</desc>
<path d="M263.4580 196.5933
L263.4580 195.0933
" />
<path d="M264.8152 196.5933
L264.8152 195.0933
" />
<path d="M264.8152 196.5219
L264.6723 196.5933
" />
<path d="M264.6723 196.5933
L264.3866 196.5933
" />
<path d="M264.3866 196.5933
L264.2437 196.5219
" />
<path d="M264.2437 196.5219
L264.1723 196.4505
" />
<path d="M264.1723 196.4505
L264.1009 196.3076
" />
<path d="M264.1009 196.3076
L264.1009 195.8790
" />
<path d="M264.1009 195.8790
L264.1723 195.7362
" />
<path d="M264.1723 195.7362
L264.2437 195.6648
" />
<path d="M264.2437 195.6648
L264.3866 195.5933
" />
<path d="M264.3866 195.5933
L264.6723 195.5933
" />
<path d="M264.6723 195.5933
L264.8152 195.6648
" />
<path d="M265.5295 196.4505
L265.6009 196.5219
" />
<path d="M265.6009 196.5219
L265.5295 196.5933
" />
<path d="M265.5295 196.5933
L265.4580 196.5219
" />
<path d="M265.4580 196.5219
L265.5295 196.4505
" />
<path d="M265.5295 196.4505
L265.5295 196.5933
" />
<path d="M265.5295 195.6648
L265.6009 195.7362
" />
<path d="M265.6009 195.7362
L265.5295 195.8076
" />
<path d="M265.5295 195.8076
L265.4580 195.7362
" />
<path d="M265.4580 195.7362
L265.5295 195.6648
" />
<path d="M265.5295 195.6648
L265.5295 195.8076
" />
<path d="M268.4580 195.0219
L267.1723 196.9505
" />
<path d="M269.7437 196.5933
L268.8866 196.5933
" />
<path d="M269.3152 196.5933
L269.3152 195.0933
" />
<path d="M269.3152 195.0933
L269.1723 195.3076
" />
<path d="M269.1723 195.3076
L269.0295 195.4505
" />
<path d="M269.0295 195.4505
L268.8866 195.5219
" />
</g></g>
<g style="fill:none; 
stroke:#000000; stroke-width:0.1500; stroke-opacity:1; 
stroke-linecap:round; stroke-linejoin:round;">
<path d="M177.0022 187.5072
L285.0022 187.5072
" />
</g>
<g style="fill:none; 
stroke:#000000; stroke-width:0.4000; stroke-opacity:1; 
stroke-linecap:round; stroke-linejoin:round;">
<text x="178.0022" y="190.3072"
textLength="9.6571" font-size="2.6667" lengthAdjust="spacingAndGlyphs"
text-anchor="start" opacity="0" stroke-opacity="0">Title: </text>
<g class="stroked-text"><desc>Title: </desc>
<path d="M178.6939 188.2116
L179.8368 188.2116
" />
<path d="M179.0154 190.2116
L179.2654 188.2116
" />
<path d="M180.2535 190.2116
L180.4201 188.8783
" />
<path d="M180.5035 188.2116
L180.3963 188.3069
" />
<path d="M180.3963 188.3069
L180.4796 188.4021
" />
<path d="M180.4796 188.4021
L180.5868 188.3069
" />
<path d="M180.5868 188.3069
L180.5035 188.2116
" />
<path d="M180.5035 188.2116
L180.4796 188.4021
" />
<path d="M181.0868 188.8783
L181.8487 188.8783
" />
<path d="M181.4558 188.2116
L181.2415 189.9259
" />
<path d="M181.2415 189.9259
L181.3130 190.1164
" />
<path d="M181.3130 190.1164
L181.4915 190.2116
" />
<path d="M181.4915 190.2116
L181.6820 190.2116
" />
<path d="M182.6344 190.2116
L182.4558 190.1164
" />
<path d="M182.4558 190.1164
L182.3844 189.9259
" />
<path d="M182.3844 189.9259
L182.5987 188.2116
" />
<path d="M184.1701 190.1164
L183.9677 190.2116
" />
<path d="M183.9677 190.2116
L183.5868 190.2116
" />
<path d="M183.5868 190.2116
L183.4082 190.1164
" />
<path d="M183.4082 190.1164
L183.3368 189.9259
" />
<path d="M183.3368 189.9259
L183.4320 189.1640
" />
<path d="M183.4320 189.1640
L183.5511 188.9735
" />
<path d="M183.5511 188.9735
L183.7535 188.8783
" />
<path d="M183.7535 188.8783
L184.1344 188.8783
" />
<path d="M184.1344 188.8783
L184.3130 188.9735
" />
<path d="M184.3130 188.9735
L184.3844 189.1640
" />
<path d="M184.3844 189.1640
L184.3606 189.3545
" />
<path d="M184.3606 189.3545
L183.3844 189.5450
" />
<path d="M185.1344 190.0212
L185.2177 190.1164
" />
<path d="M185.2177 190.1164
L185.1106 190.2116
" />
<path d="M185.1106 190.2116
L185.0273 190.1164
" />
<path d="M185.0273 190.1164
L185.1344 190.0212
" />
<path d="M185.1344 190.0212
L185.1106 190.2116
" />
<path d="M185.2654 188.9735
L185.3487 189.0688
" />
<path d="M185.3487 189.0688
L185.2415 189.1640
" />
<path d="M185.2415 189.1640
L185.1582 189.0688
" />
<path d="M185.1582 189.0688
L185.2654 188.9735
" />
<path d="M185.2654 188.9735
L185.2415 189.1640
" />
</g></g>
<g style="fill:none; 
stroke:#000000; stroke-width:0.1500; stroke-opacity:1; 
stroke-linecap:round; stroke-linejoin:round;">
<text x="178.0022" y="186.4572"
textLength="36.7929" font-size="2.0000" lengthAdjust="spacingAndGlyphs"
text-anchor="start" opacity="0" stroke-opacity="0">File: modulo_seguidor.kicad_pcb</text>
<g class="stroked-text"><desc>File: modulo_seguidor.kicad_pcb</desc>
<path d="M178.9580 185.6076
L178.4580 185.6076
" />
<path d="M178.4580 186.3933
L178.4580 184.8933
" />
<path d="M178.4580 184.8933
L179.1723 184.8933
" />
<path d="M179.7437 186.3933
L179.7437 185.3933
" />
<path d="M179.7437 184.8933
L179.6723 184.9648
" />
<path d="M179.6723 184.9648
L179.7437 185.0362
" />
<path d="M179.7437 185.0362
L179.8152 184.9648
" />
<path d="M179.8152 184.9648
L179.7437 184.8933
" />
<path d="M179.7437 184.8933
L179.7437 185.0362
" />
<path d="M180.6723 186.3933
L180.5295 186.3219
" />
<path d="M180.5295 186.3219
L180.4580 186.1790
" />
<path d="M180.4580 186.1790
L180.4580 184.8933
" />
<path d="M181.8152 186.3219
L181.6723 186.3933
" />
<path d="M181.6723 186.3933
L181.3866 186.3933
" />
<path d="M181.3866 186.3933
L181.2437 186.3219
" />
<path d="M181.2437 186.3219
L181.1723 186.1790
" />
<path d="M181.1723 186.1790
L181.1723 185.6076
" />
<path d="M181.1723 185.6076
L181.2437 185.4648
" />
<path d="M181.2437 185.4648
L181.3866 185.3933
" />
<path d="M181.3866 185.3933
L181.6723 185.3933
" />
<path d="M181.6723 185.3933
L181.8152 185.4648
" />
<path d="M181.8152 185.4648
L181.8866 185.6076
" />
<path d="M181.8866 185.6076
L181.8866 185.7505
" />
<path d="M181.8866 185.7505
L181.1723 185.8933
" />
<path d="M182.5295 186.2505
L182.6009 186.3219
" />
<path d="M182.6009 186.3219
L182.5295 186.3933
" />
<path d="M182.5295 186.3933
L182.4580 186.3219
" />
<path d="M182.4580 186.3219
L182.5295 186.2505
" />
<path d="M182.5295 186.2505
L182.5295 186.3933
" />
<path d="M182.5295 185.4648
L182.6009 185.5362
" />
<path d="M182.6009 185.5362
L182.5295 185.6076
" />
<path d="M182.5295 185.6076
L182.4580 185.5362
" />
<path d="M182.4580 185.5362
L182.5295 185.4648
" />
<path d="M182.5295 185.4648
L182.5295 185.6076
" />
<path d="M184.3866 186.3933
L184.3866 185.3933
" />
<path d="M184.3866 185.5362
L184.4580 185.4648
" />
<path d="M184.4580 185.4648
L184.6009 185.3933
" />
<path d="M184.6009 185.3933
L184.8152 185.3933
" />
<path d="M184.8152 185.3933
L184.9580 185.4648
" />
<path d="M184.9580 185.4648
L185.0295 185.6076
" />
<path d="M185.0295 185.6076
L185.0295 186.3933
" />
<path d="M185.0295 185.6076
L185.1009 185.4648
" />
<path d="M185.1009 185.4648
L185.2437 185.3933
" />
<path d="M185.2437 185.3933
L185.4580 185.3933
" />
<path d="M185.4580 185.3933
L185.6009 185.4648
" />
<path d="M185.6009 185.4648
L185.6723 185.6076
" />
<path d="M185.6723 185.6076
L185.6723 186.3933
" />
<path d="M186.6009 186.3933
L186.4580 186.3219
" />
<path d="M186.4580 186.3219
L186.3866 186.2505
" />
<path d="M186.3866 186.2505
L186.3152 186.1076
" />
<path d="M186.3152 186.1076
L186.3152 185.6790
" />
<path d="M186.3152 185.6790
L186.3866 185.5362
" />
<path d="M186.3866 185.5362
L186.4580 185.4648
" />
<path d="M186.4580 185.4648
L186.6009 185.3933
" />
<path d="M186.6009 185.3933
L186.8152 185.3933
" />
<path d="M186.8152 185.3933
L186.9580 185.4648
" />
<path d="M186.9580 185.4648
L187.0295 185.5362
" />
<path d="M187.0295 185.5362
L187.1009 185.6790
" />
<path d="M187.1009 185.6790
L187.1009 186.1076
" />
<path d="M187.1009 186.1076
L187.0295 186.2505
" />
<path d="M187.0295 186.2505
L186.9580 186.3219
" />
<path d="M186.9580 186.3219
L186.8152 186.3933
" />
<path d="M186.8152 186.3933
L186.6009 186.3933
" />
<path d="M188.3866 186.3933
L188.3866 184.8933
" />
<path d="M188.3866 186.3219
L188.2437 186.3933
" />
<path d="M188.2437 186.3933
L187.9580 186.3933
" />
<path d="M187.9580 186.3933
L187.8152 186.3219
" />
<path d="M187.8152 186.3219
L187.7437 186.2505
" />
<path d="M187.7437 186.2505
L187.6723 186.1076
" />
<path d="M187.6723 186.1076
L187.6723 185.6790
" />
<path d="M187.6723 185.6790
L187.7437 185.5362
" />
<path d="M187.7437 185.5362
L187.8152 185.4648
" />
<path d="M187.8152 185.4648
L187.9580 185.3933
" />
<path d="M187.9580 185.3933
L188.2437 185.3933
" />
<path d="M188.2437 185.3933
L188.3866 185.4648
" />
<path d="M189.7437 185.3933
L189.7437 186.3933
" />
<path d="M189.1009 185.3933
L189.1009 186.1790
" />
<path d="M189.1009 186.1790
L189.1723 186.3219
" />
<path d="M189.1723 186.3219
L189.3152 186.3933
" />
<path d="M189.3152 186.3933
L189.5295 186.3933
" />
<path d="M189.5295 186.3933
L189.6723 186.3219
" />
<path d="M189.6723 186.3219
L189.7437 186.2505
" />
<path d="M190.6723 186.3933
L190.5295 186.3219
" />
<path d="M190.5295 186.3219
L190.4580 186.1790
" />
<path d="M190.4580 186.1790
L190.4580 184.8933
" />
<path d="M191.4580 186.3933
L191.3152 186.3219
" />
<path d="M191.3152 186.3219
L191.2437 186.2505
" />
<path d="M191.2437 186.2505
L191.1723 186.1076
" />
<path d="M191.1723 186.1076
L191.1723 185.6790
" />
<path d="M191.1723 185.6790
L191.2437 185.5362
" />
<path d="M191.2437 185.5362
L191.3152 185.4648
" />
<path d="M191.3152 185.4648
L191.4580 185.3933
" />
<path d="M191.4580 185.3933
L191.6723 185.3933
" />
<path d="M191.6723 185.3933
L191.8152 185.4648
" />
<path d="M191.8152 185.4648
L191.8866 185.5362
" />
<path d="M191.8866 185.5362
L191.9580 185.6790
" />
<path d="M191.9580 185.6790
L191.9580 186.1076
" />
<path d="M191.9580 186.1076
L191.8866 186.2505
" />
<path d="M191.8866 186.2505
L191.8152 186.3219
" />
<path d="M191.8152 186.3219
L191.6723 186.3933
" />
<path d="M191.6723 186.3933
L191.4580 186.3933
" />
<path d="M192.2437 186.5362
L193.3866 186.5362
" />
<path d="M193.6723 186.3219
L193.8152 186.3933
" />
<path d="M193.8152 186.3933
L194.1009 186.3933
" />
<path d="M194.1009 186.3933
L194.2437 186.3219
" />
<path d="M194.2437 186.3219
L194.3152 186.1790
" />
<path d="M194.3152 186.1790
L194.3152 186.1076
" />
<path d="M194.3152 186.1076
L194.2437 185.9648
" />
<path d="M194.2437 185.9648
L194.1009 185.8933
" />
<path d="M194.1009 185.8933
L193.8866 185.8933
" />
<path d="M193.8866 185.8933
L193.7437 185.8219
" />
<path d="M193.7437 185.8219
L193.6723 185.6790
" />
<path d="M193.6723 185.6790
L193.6723 185.6076
" />
<path d="M193.6723 185.6076
L193.7437 185.4648
" />
<path d="M193.7437 185.4648
L193.8866 185.3933
" />
<path d="M193.8866 185.3933
L194.1009 185.3933
" />
<path d="M194.1009 185.3933
L194.2437 185.4648
" />
<path d="M195.5295 186.3219
L195.3866 186.3933
" />
<path d="M195.3866 186.3933
L195.1009 186.3933
" />
<path d="M195.1009 186.3933
L194.9580 186.3219
" />
<path d="M194.9580 186.3219
L194.8866 186.1790
" />
<path d="M194.8866 186.1790
L194.8866 185.6076
" />
<path d="M194.8866 185.6076
L194.9580 185.4648
" />
<path d="M194.9580 185.4648
L195.1009 185.3933
" />
<path d="M195.1009 185.3933
L195.3866 185.3933
" />
<path d="M195.3866 185.3933
L195.5295 185.4648
" />
<path d="M195.5295 185.4648
L195.6009 185.6076
" />
<path d="M195.6009 185.6076
L195.6009 185.7505
" />
<path d="M195.6009 185.7505
L194.8866 185.8933
" />
<path d="M196.8866 185.3933
L196.8866 186.6076
" />
<path d="M196.8866 186.6076
L196.8152 186.7505
" />
<path d="M196.8152 186.7505
L196.7437 186.8219
" />
<path d="M196.7437 186.8219
L196.6009 186.8933
" />
<path d="M196.6009 186.8933
L196.3866 186.8933
" />
<path d="M196.3866 186.8933
L196.2437 186.8219
" />
<path d="M196.8866 186.3219
L196.7437 186.3933
" />
<path d="M196.7437 186.3933
L196.4580 186.3933
" />
<path d="M196.4580 186.3933
L196.3152 186.3219
" />
<path d="M196.3152 186.3219
L196.2437 186.2505
" />
<path d="M196.2437 186.2505
L196.1723 186.1076
" />
<path d="M196.1723 186.1076
L196.1723 185.6790
" />
<path d="M196.1723 185.6790
L196.2437 185.5362
" />
<path d="M196.2437 185.5362
L196.3152 185.4648
" />
<path d="M196.3152 185.4648
L196.4580 185.3933
" />
<path d="M196.4580 185.3933
L196.7437 185.3933
" />
<path d="M196.7437 185.3933
L196.8866 185.4648
" />
<path d="M198.2437 185.3933
L198.2437 186.3933
" />
<path d="M197.6009 185.3933
L197.6009 186.1790
" />
<path d="M197.6009 186.1790
L197.6723 186.3219
" />
<path d="M197.6723 186.3219
L197.8152 186.3933
" />
<path d="M197.8152 186.3933
L198.0295 186.3933
" />
<path d="M198.0295 186.3933
L198.1723 186.3219
" />
<path d="M198.1723 186.3219
L198.2437 186.2505
" />
<path d="M198.9580 186.3933
L198.9580 185.3933
" />
<path d="M198.9580 184.8933
L198.8866 184.9648
" />
<path d="M198.8866 184.9648
L198.9580 185.0362
" />
<path d="M198.9580 185.0362
L199.0295 184.9648
" />
<path d="M199.0295 184.9648
L198.9580 184.8933
" />
<path d="M198.9580 184.8933
L198.9580 185.0362
" />
<path d="M200.3152 186.3933
L200.3152 184.8933
" />
<path d="M200.3152 186.3219
L200.1723 186.3933
" />
<path d="M200.1723 186.3933
L199.8866 186.3933
" />
<path d="M199.8866 186.3933
L199.7437 186.3219
" />
<path d="M199.7437 186.3219
L199.6723 186.2505
" />
<path d="M199.6723 186.2505
L199.6009 186.1076
" />
<path d="M199.6009 186.1076
L199.6009 185.6790
" />
<path d="M199.6009 185.6790
L199.6723 185.5362
" />
<path d="M199.6723 185.5362
L199.7437 185.4648
" />
<path d="M199.7437 185.4648
L199.8866 185.3933
" />
<path d="M199.8866 185.3933
L200.1723 185.3933
" />
<path d="M200.1723 185.3933
L200.3152 185.4648
" />
<path d="M201.2437 186.3933
L201.1009 186.3219
" />
<path d="M201.1009 186.3219
L201.0295 186.2505
" />
<path d="M201.0295 186.2505
L200.9580 186.1076
" />
<path d="M200.9580 186.1076
L200.9580 185.6790
" />
<path d="M200.9580 185.6790
L201.0295 185.5362
" />
<path d="M201.0295 185.5362
L201.1009 185.4648
" />
<path d="M201.1009 185.4648
L201.2437 185.3933
" />
<path d="M201.2437 185.3933
L201.4580 185.3933
" />
<path d="M201.4580 185.3933
L201.6009 185.4648
" />
<path d="M201.6009 185.4648
L201.6723 185.5362
" />
<path d="M201.6723 185.5362
L201.7437 185.6790
" />
<path d="M201.7437 185.6790
L201.7437 186.1076
" />
<path d="M201.7437 186.1076
L201.6723 186.2505
" />
<path d="M201.6723 186.2505
L201.6009 186.3219
" />
<path d="M201.6009 186.3219
L201.4580 186.3933
" />
<path d="M201.4580 186.3933
L201.2437 186.3933
" />
<path d="M202.3866 186.3933
L202.3866 185.3933
" />
<path d="M202.3866 185.6790
L202.4580 185.5362
" />
<path d="M202.4580 185.5362
L202.5295 185.4648
" />
<path d="M202.5295 185.4648
L202.6723 185.3933
" />
<path d="M202.6723 185.3933
L202.8152 185.3933
" />
<path d="M203.3152 186.2505
L203.3866 186.3219
" />
<path d="M203.3866 186.3219
L203.3152 186.3933
" />
<path d="M203.3152 186.3933
L203.2437 186.3219
" />
<path d="M203.2437 186.3219
L203.3152 186.2505
" />
<path d="M203.3152 186.2505
L203.3152 186.3933
" />
<path d="M204.0295 186.3933
L204.0295 184.8933
" />
<path d="M204.1723 185.8219
L204.6009 186.3933
" />
<path d="M204.6009 185.3933
L204.0295 185.9648
" />
<path d="M205.2437 186.3933
L205.2437 185.3933
" />
<path d="M205.2437 184.8933
L205.1723 184.9648
" />
<path d="M205.1723 184.9648
L205.2437 185.0362
" />
<path d="M205.2437 185.0362
L205.3152 184.9648
" />
<path d="M205.3152 184.9648
L205.2437 184.8933
" />
<path d="M205.2437 184.8933
L205.2437 185.0362
" />
<path d="M206.6009 186.3219
L206.4580 186.3933
" />
<path d="M206.4580 186.3933
L206.1723 186.3933
" />
<path d="M206.1723 186.3933
L206.0295 186.3219
" />
<path d="M206.0295 186.3219
L205.9580 186.2505
" />
<path d="M205.9580 186.2505
L205.8866 186.1076
" />
<path d="M205.8866 186.1076
L205.8866 185.6790
" />
<path d="M205.8866 185.6790
L205.9580 185.5362
" />
<path d="M205.9580 185.5362
L206.0295 185.4648
" />
<path d="M206.0295 185.4648
L206.1723 185.3933
" />
<path d="M206.1723 185.3933
L206.4580 185.3933
" />
<path d="M206.4580 185.3933
L206.6009 185.4648
" />
<path d="M207.8866 186.3933
L207.8866 185.6076
" />
<path d="M207.8866 185.6076
L207.8152 185.4648
" />
<path d="M207.8152 185.4648
L207.6723 185.3933
" />
<path d="M207.6723 185.3933
L207.3866 185.3933
" />
<path d="M207.3866 185.3933
L207.2437 185.4648
" />
<path d="M207.8866 186.3219
L207.7437 186.3933
" />
<path d="M207.7437 186.3933
L207.3866 186.3933
" />
<path d="M207.3866 186.3933
L207.2437 186.3219
" />
<path d="M207.2437 186.3219
L207.1723 186.1790
" />
<path d="M207.1723 186.1790
L207.1723 186.0362
" />
<path d="M207.1723 186.0362
L207.2437 185.8933
" />
<path d="M207.2437 185.8933
L207.3866 185.8219
" />
<path d="M207.3866 185.8219
L207.7437 185.8219
" />
<path d="M207.7437 185.8219
L207.8866 185.7505
" />
<path d="M209.2437 186.3933
L209.2437 184.8933
" />
<path d="M209.2437 186.3219
L209.1009 186.3933
" />
<path d="M209.1009 186.3933
L208.8152 186.3933
" />
<path d="M208.8152 186.3933
L208.6723 186.3219
" />
<path d="M208.6723 186.3219
L208.6009 186.2505
" />
<path d="M208.6009 186.2505
L208.5295 186.1076
" />
<path d="M208.5295 186.1076
L208.5295 185.6790
" />
<path d="M208.5295 185.6790
L208.6009 185.5362
" />
<path d="M208.6009 185.5362
L208.6723 185.4648
" />
<path d="M208.6723 185.4648
L208.8152 185.3933
" />
<path d="M208.8152 185.3933
L209.1009 185.3933
" />
<path d="M209.1009 185.3933
L209.2437 185.4648
" />
<path d="M209.6009 186.5362
L210.7437 186.5362
" />
<path d="M211.1009 185.3933
L211.1009 186.8933
" />
<path d="M211.1009 185.4648
L211.2437 185.3933
" />
<path d="M211.2437 185.3933
L211.5295 185.3933
" />
<path d="M211.5295 185.3933
L211.6723 185.4648
" />
<path d="M211.6723 185.4648
L211.7437 185.5362
" />
<path d="M211.7437 185.5362
L211.8152 185.6790
" />
<path d="M211.8152 185.6790
L211.8152 186.1076
" />
<path d="M211.8152 186.1076
L211.7437 186.2505
" />
<path d="M211.7437 186.2505
L211.6723 186.3219
" />
<path d="M211.6723 186.3219
L211.5295 186.3933
" />
<path d="M211.5295 186.3933
L211.2437 186.3933
" />
<path d="M211.2437 186.3933
L211.1009 186.3219
" />
<path d="M213.1009 186.3219
L212.9580 186.3933
" />
<path d="M212.9580 186.3933
L212.6723 186.3933
" />
<path d="M212.6723 186.3933
L212.5295 186.3219
" />
<path d="M212.5295 186.3219
L212.4580 186.2505
" />
<path d="M212.4580 186.2505
L212.3866 186.1076
" />
<path d="M212.3866 186.1076
L212.3866 185.6790
" />
<path d="M212.3866 185.6790
L212.4580 185.5362
" />
<path d="M212.4580 185.5362
L212.5295 185.4648
" />
<path d="M212.5295 185.4648
L212.6723 185.3933
" />
<path d="M212.6723 185.3933
L212.9580 185.3933
" />
<path d="M212.9580 185.3933
L213.1009 185.4648
" />
<path d="M213.7437 186.3933
L213.7437 184.8933
" />
<path d="M213.7437 185.4648
L213.8866 185.3933
" />
<path d="M213.8866 185.3933
L214.1723 185.3933
" />
<path d="M214.1723 185.3933
L214.3152 185.4648
" />
<path d="M214.3152 185.4648
L214.3866 185.5362
" />
<path d="M214.3866 185.5362
L214.4580 185.6790
" />
<path d="M214.4580 185.6790
L214.4580 186.1076
" />
<path d="M214.4580 186.1076
L214.3866 186.2505
" />
<path d="M214.3866 186.2505
L214.3152 186.3219
" />
<path d="M214.3152 186.3219
L214.1723 186.3933
" />
<path d="M214.1723 186.3933
L213.8866 186.3933
" />
<path d="M213.8866 186.3933
L213.7437 186.3219
" />
</g></g>
<g style="fill:none; 
stroke:#000000; stroke-width:0.1500; stroke-opacity:1; 
stroke-linecap:round; stroke-linejoin:round;">
<path d="M177.0022 181.5072
L285.0022 181.5072
" />
</g>
<g style="fill:none; 
stroke:#000000; stroke-width:0.1500; stroke-opacity:1; 
stroke-linecap:round; stroke-linejoin:round;">
<text x="178.0022" y="183.7572"
textLength="8.2214" font-size="2.0000" lengthAdjust="spacingAndGlyphs"
text-anchor="start" opacity="0" stroke-opacity="0">Sheet: </text>
<g class="stroked-text"><desc>Sheet: </desc>
<path d="M178.3866 183.6219
L178.6009 183.6933
" />
<path d="M178.6009 183.6933
L178.9580 183.6933
" />
<path d="M178.9580 183.6933
L179.1009 183.6219
" />
<path d="M179.1009 183.6219
L179.1723 183.5505
" />
<path d="M179.1723 183.5505
L179.2437 183.4076
" />
<path d="M179.2437 183.4076
L179.2437 183.2648
" />
<path d="M179.2437 183.2648
L179.1723 183.1219
" />
<path d="M179.1723 183.1219
L179.1009 183.0505
" />
<path d="M179.1009 183.0505
L178.9580 182.9790
" />
<path d="M178.9580 182.9790
L178.6723 182.9076
" />
<path d="M178.6723 182.9076
L178.5295 182.8362
" />
<path d="M178.5295 182.8362
L178.4580 182.7648
" />
<path d="M178.4580 182.7648
L178.3866 182.6219
" />
<path d="M178.3866 182.6219
L178.3866 182.4790
" />
<path d="M178.3866 182.4790
L178.4580 182.3362
" />
<path d="M178.4580 182.3362
L178.5295 182.2648
" />
<path d="M178.5295 182.2648
L178.6723 182.1933
" />
<path d="M178.6723 182.1933
L179.0295 182.1933
" />
<path d="M179.0295 182.1933
L179.2437 182.2648
" />
<path d="M179.8866 183.6933
L179.8866 182.1933
" />
<path d="M180.5295 183.6933
L180.5295 182.9076
" />
<path d="M180.5295 182.9076
L180.4580 182.7648
" />
<path d="M180.4580 182.7648
L180.3152 182.6933
" />
<path d="M180.3152 182.6933
L180.1009 182.6933
" />
<path d="M180.1009 182.6933
L179.9580 182.7648
" />
<path d="M179.9580 182.7648
L179.8866 182.8362
" />
<path d="M181.8152 183.6219
L181.6723 183.6933
" />
<path d="M181.6723 183.6933
L181.3866 183.6933
" />
<path d="M181.3866 183.6933
L181.2437 183.6219
" />
<path d="M181.2437 183.6219
L181.1723 183.4790
" />
<path d="M181.1723 183.4790
L181.1723 182.9076
" />
<path d="M181.1723 182.9076
L181.2437 182.7648
" />
<path d="M181.2437 182.7648
L181.3866 182.6933
" />
<path d="M181.3866 182.6933
L181.6723 182.6933
" />
<path d="M181.6723 182.6933
L181.8152 182.7648
" />
<path d="M181.8152 182.7648
L181.8866 182.9076
" />
<path d="M181.8866 182.9076
L181.8866 183.0505
" />
<path d="M181.8866 183.0505
L181.1723 183.1933
" />
<path d="M183.1009 183.6219
L182.9580 183.6933
" />
<path d="M182.9580 183.6933
L182.6723 183.6933
" />
<path d="M182.6723 183.6933
L182.5295 183.6219
" />
<path d="M182.5295 183.6219
L182.4580 183.4790
" />
<path d="M182.4580 183.4790
L182.4580 182.9076
" />
<path d="M182.4580 182.9076
L182.5295 182.7648
" />
<path d="M182.5295 182.7648
L182.6723 182.6933
" />
<path d="M182.6723 182.6933
L182.9580 182.6933
" />
<path d="M182.9580 182.6933
L183.1009 182.7648
" />
<path d="M183.1009 182.7648
L183.1723 182.9076
" />
<path d="M183.1723 182.9076
L183.1723 183.0505
" />
<path d="M183.1723 183.0505
L182.4580 183.1933
" />
<path d="M183.6009 182.6933
L184.1723 182.6933
" />
<path d="M183.8152 182.1933
L183.8152 183.4790
" />
<path d="M183.8152 183.4790
L183.8866 183.6219
" />
<path d="M183.8866 183.6219
L184.0295 183.6933
" />
<path d="M184.0295 183.6933
L184.1723 183.6933
" />
<path d="M184.6723 183.5505
L184.7437 183.6219
" />
<path d="M184.7437 183.6219
L184.6723 183.6933
" />
<path d="M184.6723 183.6933
L184.6009 183.6219
" />
<path d="M184.6009 183.6219
L184.6723 183.5505
" />
<path d="M184.6723 183.5505
L184.6723 183.6933
" />
<path d="M184.6723 182.7648
L184.7437 182.8362
" />
<path d="M184.7437 182.8362
L184.6723 182.9076
" />
<path d="M184.6723 182.9076
L184.6009 182.8362
" />
<path d="M184.6009 182.8362
L184.6723 182.7648
" />
<path d="M184.6723 182.7648
L184.6723 182.9076
" />
</g></g>
<g style="fill:none; 
stroke:#000000; stroke-width:0.3000; stroke-opacity:1; 
stroke-linecap:round; stroke-linejoin:round;">
<text x="178.0022" y="180.7572"
textLength="0.9000" font-size="2.0000" lengthAdjust="spacingAndGlyphs"
text-anchor="start" opacity="0" stroke-opacity="0"></text>
<g class="stroked-text"><desc></desc>
</g></g>
<g style="fill:none; 
stroke:#000000; stroke-width:0.1500; stroke-opacity:1; 
stroke-linecap:round; stroke-linejoin:round;">
<text x="178.0022" y="177.7572"
textLength="0.4500" font-size="2.0000" lengthAdjust="spacingAndGlyphs"
text-anchor="start" opacity="0" stroke-opacity="0"></text>
<g class="stroked-text"><desc></desc>
</g></g>
<g style="fill:none; 
stroke:#000000; stroke-width:0.1500; stroke-opacity:1; 
stroke-linecap:round; stroke-linejoin:round;">
<text x="178.0022" y="174.7572"
textLength="0.4500" font-size="2.0000" lengthAdjust="spacingAndGlyphs"
text-anchor="start" opacity="0" stroke-opacity="0"></text>
<g class="stroked-text"><desc></desc>
</g></g>
<g style="fill:none; 
stroke:#000000; stroke-width:0.1500; stroke-opacity:1; 
stroke-linecap:round; stroke-linejoin:round;">
<text x="178.0022" y="171.7572"
textLength="0.4500" font-size="2.0000" lengthAdjust="spacingAndGlyphs"
text-anchor="start" opacity="0" stroke-opacity="0"></text>
<g class="stroked-text"><desc></desc>
</g></g>
<g style="fill:none; 
stroke:#000000; stroke-width:0.1500; stroke-opacity:1; 
stroke-linecap:round; stroke-linejoin:round;">
<text x="178.0022" y="168.7572"
textLength="0.4500" font-size="2.0000" lengthAdjust="spacingAndGlyphs"
text-anchor="start" opacity="0" stroke-opacity="0"></text>
<g class="stroked-text"><desc></desc>
</g></g>
<g style="fill:none; 
stroke:#000000; stroke-width:0.1500; stroke-opacity:1; 
stroke-linecap:round; stroke-linejoin:round;">
<path d="M197.0022 191.5072
L197.0022 194.5072
" />
</g>
<g style="fill:none; 
stroke:#000000; stroke-width:0.1500; stroke-opacity:1; 
stroke-linecap:round; stroke-linejoin:round;">
<path d="M261.0022 191.5072
L261.0022 198.0072
" />
<path style="fill:none; 
stroke:#000000; stroke-width:0.2000; stroke-opacity:1; 
stroke-linecap:round; stroke-linejoin:round;fill:none"
d="M 167.6400,88.2360
224.6045,88.2360
224.6045,113.0300
167.6400,113.0300
139.7000,140.7288
74.6045,140.7288
74.6045,60.9696
142.2400,60.9696
Z" /> 
</g>
<g style="fill:none; 
stroke:#000000; stroke-width:0.1500; stroke-opacity:1; 
stroke-linecap:round; stroke-linejoin:round;">
<text x="113.6675" y="96.4679"
transform="scale(-1 1) translate(-227.335022 0)"
textLength="2.2024" font-size="1.3333" lengthAdjust="spacingAndGlyphs"
text-anchor="middle" opacity="0" stroke-opacity="0">C4</text>
<g class="stroked-text"><desc>C4</desc>
<path d="M113.8342 96.3275
L113.8818 96.3751
" />
<path d="M113.8818 96.3751
L114.0247 96.4227
" />
<path d="M114.0247 96.4227
L114.1199 96.4227
" />
<path d="M114.1199 96.4227
L114.2627 96.3751
" />
<path d="M114.2627 96.3751
L114.3580 96.2799
" />
<path d="M114.3580 96.2799
L114.4056 96.1846
" />
<path d="M114.4056 96.1846
L114.4532 95.9942
" />
<path d="M114.4532 95.9942
L114.4532 95.8513
" />
<path d="M114.4532 95.8513
L114.4056 95.6608
" />
<path d="M114.4056 95.6608
L114.3580 95.5656
" />
<path d="M114.3580 95.5656
L114.2627 95.4703
" />
<path d="M114.2627 95.4703
L114.1199 95.4227
" />
<path d="M114.1199 95.4227
L114.0247 95.4227
" />
<path d="M114.0247 95.4227
L113.8818 95.4703
" />
<path d="M113.8818 95.4703
L113.8342 95.5180
" />
<path d="M112.9770 95.7561
L112.9770 96.4227
" />
<path d="M113.2151 95.3751
L113.4532 96.0894
" />
<path d="M113.4532 96.0894
L112.8342 96.0894
" />
</g><g transform="rotate(-90.000000 126.2900 110.7700)">
<text x="126.2900" y="111.2700"
transform="scale(-1 1) translate(-252.580000 0)"
textLength="2.2024" font-size="1.3333" lengthAdjust="spacingAndGlyphs"
text-anchor="middle" opacity="0" stroke-opacity="0">R2</text>
</g>
<g class="stroked-text"><desc>R2</desc>
<path d="M126.7448 110.6033
L126.2686 110.2700
" />
<path d="M126.7448 110.0319
L125.7448 110.0319
" />
<path d="M125.7448 110.0319
L125.7448 110.4129
" />
<path d="M125.7448 110.4129
L125.7924 110.5081
" />
<path d="M125.7924 110.5081
L125.8401 110.5557
" />
<path d="M125.8401 110.5557
L125.9353 110.6033
" />
<path d="M125.9353 110.6033
L126.0782 110.6033
" />
<path d="M126.0782 110.6033
L126.1734 110.5557
" />
<path d="M126.1734 110.5557
L126.2210 110.5081
" />
<path d="M126.2210 110.5081
L126.2686 110.4129
" />
<path d="M126.2686 110.4129
L126.2686 110.0319
" />
<path d="M125.8401 110.9843
L125.7924 111.0319
" />
<path d="M125.7924 111.0319
L125.7448 111.1271
" />
<path d="M125.7448 111.1271
L125.7448 111.3652
" />
<path d="M125.7448 111.3652
L125.7924 111.4605
" />
<path d="M125.7924 111.4605
L125.8401 111.5081
" />
<path d="M125.8401 111.5081
L125.9353 111.5557
" />
<path d="M125.9353 111.5557
L126.0305 111.5557
" />
<path d="M126.0305 111.5557
L126.1734 111.5081
" />
<path d="M126.1734 111.5081
L126.7448 110.9367
" />
<path d="M126.7448 110.9367
L126.7448 111.5557
" />
</g><text x="84.2839" y="110.0460"
transform="scale(-1 1) translate(-168.567882 0)"
textLength="2.2024" font-size="1.3333" lengthAdjust="spacingAndGlyphs"
text-anchor="middle" opacity="0" stroke-opacity="0">C3</text>
<g class="stroked-text"><desc>C3</desc>
<path d="M84.4506 109.9056
L84.4982 109.9532
" />
<path d="M84.4982 109.9532
L84.6411 110.0008
" />
<path d="M84.6411 110.0008
L84.7363 110.0008
" />
<path d="M84.7363 110.0008
L84.8792 109.9532
" />
<path d="M84.8792 109.9532
L84.9744 109.8580
" />
<path d="M84.9744 109.8580
L85.0220 109.7627
" />
<path d="M85.0220 109.7627
L85.0697 109.5722
" />
<path d="M85.0697 109.5722
L85.0697 109.4294
" />
<path d="M85.0697 109.4294
L85.0220 109.2389
" />
<path d="M85.0220 109.2389
L84.9744 109.1437
" />
<path d="M84.9744 109.1437
L84.8792 109.0484
" />
<path d="M84.8792 109.0484
L84.7363 109.0008
" />
<path d="M84.7363 109.0008
L84.6411 109.0008
" />
<path d="M84.6411 109.0008
L84.4982 109.0484
" />
<path d="M84.4982 109.0484
L84.4506 109.0961
" />
<path d="M84.1173 109.0008
L83.4982 109.0008
" />
<path d="M83.4982 109.0008
L83.8316 109.3818
" />
<path d="M83.8316 109.3818
L83.6887 109.3818
" />
<path d="M83.6887 109.3818
L83.5935 109.4294
" />
<path d="M83.5935 109.4294
L83.5458 109.4770
" />
<path d="M83.5458 109.4770
L83.4982 109.5722
" />
<path d="M83.4982 109.5722
L83.4982 109.8103
" />
<path d="M83.4982 109.8103
L83.5458 109.9056
" />
<path d="M83.5458 109.9056
L83.5935 109.9532
" />
<path d="M83.5935 109.9532
L83.6887 110.0008
" />
<path d="M83.6887 110.0008
L83.9744 110.0008
" />
<path d="M83.9744 110.0008
L84.0697 109.9532
" />
<path d="M84.0697 109.9532
L84.1173 109.9056
" />
</g><text x="132.7936" y="118.0500"
transform="scale(-1 1) translate(-265.587134 0)"
textLength="2.2024" font-size="1.3333" lengthAdjust="spacingAndGlyphs"
text-anchor="middle" opacity="0" stroke-opacity="0">R1</text>
<g class="stroked-text"><desc>R1</desc>
<path d="M132.9602 118.0048
L133.2936 117.5286
" />
<path d="M133.5317 118.0048
L133.5317 117.0048
" />
<path d="M133.5317 117.0048
L133.1507 117.0048
" />
<path d="M133.1507 117.0048
L133.0555 117.0524
" />
<path d="M133.0555 117.0524
L133.0079 117.1001
" />
<path d="M133.0079 117.1001
L132.9602 117.1953
" />
<path d="M132.9602 117.1953
L132.9602 117.3382
" />
<path d="M132.9602 117.3382
L133.0079 117.4334
" />
<path d="M133.0079 117.4334
L133.0555 117.4810
" />
<path d="M133.0555 117.4810
L133.1507 117.5286
" />
<path d="M133.1507 117.5286
L133.5317 117.5286
" />
<path d="M132.0079 118.0048
L132.5793 118.0048
" />
<path d="M132.2936 118.0048
L132.2936 117.0048
" />
<path d="M132.2936 117.0048
L132.3888 117.1477
" />
<path d="M132.3888 117.1477
L132.4840 117.2429
" />
<path d="M132.4840 117.2429
L132.5793 117.2905
" />
</g><g transform="rotate(-90.000000 81.9029 116.3160)">
<text x="81.9029" y="116.8160"
transform="scale(-1 1) translate(-163.805764 0)"
textLength="2.2024" font-size="1.3333" lengthAdjust="spacingAndGlyphs"
text-anchor="middle" opacity="0" stroke-opacity="0">R4</text>
</g>
<g class="stroked-text"><desc>R4</desc>
<path d="M82.3577 116.1493
L81.8815 115.8160
" />
<path d="M82.3577 115.5779
L81.3577 115.5779
" />
<path d="M81.3577 115.5779
L81.3577 115.9589
" />
<path d="M81.3577 115.9589
L81.4053 116.0541
" />
<path d="M81.4053 116.0541
L81.4529 116.1017
" />
<path d="M81.4529 116.1017
L81.5482 116.1493
" />
<path d="M81.5482 116.1493
L81.6910 116.1493
" />
<path d="M81.6910 116.1493
L81.7863 116.1017
" />
<path d="M81.7863 116.1017
L81.8339 116.0541
" />
<path d="M81.8339 116.0541
L81.8815 115.9589
" />
<path d="M81.8815 115.9589
L81.8815 115.5779
" />
<path d="M81.6910 117.0065
L82.3577 117.0065
" />
<path d="M81.3101 116.7684
L82.0244 116.5303
" />
<path d="M82.0244 116.5303
L82.0244 117.1493
" />
</g><text x="90.4240" y="67.5264"
transform="scale(-1 1) translate(-180.848000 0)"
textLength="2.2024" font-size="1.3333" lengthAdjust="spacingAndGlyphs"
text-anchor="middle" opacity="0" stroke-opacity="0">C1</text>
<g class="stroked-text"><desc>C1</desc>
<path d="M90.5907 67.3860
L90.6383 67.4336
" />
<path d="M90.6383 67.4336
L90.7811 67.4812
" />
<path d="M90.7811 67.4812
L90.8764 67.4812
" />
<path d="M90.8764 67.4812
L91.0192 67.4336
" />
<path d="M91.0192 67.4336
L91.1145 67.3384
" />
<path d="M91.1145 67.3384
L91.1621 67.2431
" />
<path d="M91.1621 67.2431
L91.2097 67.0526
" />
<path d="M91.2097 67.0526
L91.2097 66.9098
" />
<path d="M91.2097 66.9098
L91.1621 66.7193
" />
<path d="M91.1621 66.7193
L91.1145 66.6241
" />
<path d="M91.1145 66.6241
L91.0192 66.5288
" />
<path d="M91.0192 66.5288
L90.8764 66.4812
" />
<path d="M90.8764 66.4812
L90.7811 66.4812
" />
<path d="M90.7811 66.4812
L90.6383 66.5288
" />
<path d="M90.6383 66.5288
L90.5907 66.5765
" />
<path d="M89.6383 67.4812
L90.2097 67.4812
" />
<path d="M89.9240 67.4812
L89.9240 66.4812
" />
<path d="M89.9240 66.4812
L90.0192 66.6241
" />
<path d="M90.0192 66.6241
L90.1145 66.7193
" />
<path d="M90.1145 66.7193
L90.2097 66.7669
" />
</g><text x="108.2807" y="96.4390"
transform="scale(-1 1) translate(-216.561448 0)"
textLength="2.2024" font-size="1.3333" lengthAdjust="spacingAndGlyphs"
text-anchor="middle" opacity="0" stroke-opacity="0">C2</text>
<g class="stroked-text"><desc>C2</desc>
<path d="M108.4474 96.2986
L108.4950 96.3462
" />
<path d="M108.4950 96.3462
L108.6379 96.3938
" />
<path d="M108.6379 96.3938
L108.7331 96.3938
" />
<path d="M108.7331 96.3938
L108.8760 96.3462
" />
<path d="M108.8760 96.3462
L108.9712 96.2510
" />
<path d="M108.9712 96.2510
L109.0188 96.1558
" />
<path d="M109.0188 96.1558
L109.0664 95.9653
" />
<path d="M109.0664 95.9653
L109.0664 95.8224
" />
<path d="M109.0664 95.8224
L109.0188 95.6319
" />
<path d="M109.0188 95.6319
L108.9712 95.5367
" />
<path d="M108.9712 95.5367
L108.8760 95.4415
" />
<path d="M108.8760 95.4415
L108.7331 95.3938
" />
<path d="M108.7331 95.3938
L108.6379 95.3938
" />
<path d="M108.6379 95.3938
L108.4950 95.4415
" />
<path d="M108.4950 95.4415
L108.4474 95.4891
" />
<path d="M108.0664 95.4891
L108.0188 95.4415
" />
<path d="M108.0188 95.4415
L107.9236 95.3938
" />
<path d="M107.9236 95.3938
L107.6855 95.3938
" />
<path d="M107.6855 95.3938
L107.5902 95.4415
" />
<path d="M107.5902 95.4415
L107.5426 95.4891
" />
<path d="M107.5426 95.4891
L107.4950 95.5843
" />
<path d="M107.4950 95.5843
L107.4950 95.6796
" />
<path d="M107.4950 95.6796
L107.5426 95.8224
" />
<path d="M107.5426 95.8224
L108.1141 96.3938
" />
<path d="M108.1141 96.3938
L107.4950 96.3938
" />
</g><text x="77.7129" y="86.2260"
transform="scale(-1 1) translate(-155.425764 0)"
textLength="2.2024" font-size="1.3333" lengthAdjust="spacingAndGlyphs"
text-anchor="middle" opacity="0" stroke-opacity="0">R3</text>
<g class="stroked-text"><desc>R3</desc>
<path d="M77.8795 86.1808
L78.2129 85.7046
" />
<path d="M78.4510 86.1808
L78.4510 85.1808
" />
<path d="M78.4510 85.1808
L78.0700 85.1808
" />
<path d="M78.0700 85.1808
L77.9748 85.2284
" />
<path d="M77.9748 85.2284
L77.9272 85.2761
" />
<path d="M77.9272 85.2761
L77.8795 85.3713
" />
<path d="M77.8795 85.3713
L77.8795 85.5142
" />
<path d="M77.8795 85.5142
L77.9272 85.6094
" />
<path d="M77.9272 85.6094
L77.9748 85.6570
" />
<path d="M77.9748 85.6570
L78.0700 85.7046
" />
<path d="M78.0700 85.7046
L78.4510 85.7046
" />
<path d="M77.5462 85.1808
L76.9272 85.1808
" />
<path d="M76.9272 85.1808
L77.2605 85.5618
" />
<path d="M77.2605 85.5618
L77.1176 85.5618
" />
<path d="M77.1176 85.5618
L77.0224 85.6094
" />
<path d="M77.0224 85.6094
L76.9748 85.6570
" />
<path d="M76.9748 85.6570
L76.9272 85.7522
" />
<path d="M76.9272 85.7522
L76.9272 85.9903
" />
<path d="M76.9272 85.9903
L76.9748 86.0856
" />
<path d="M76.9748 86.0856
L77.0224 86.1332
" />
<path d="M77.0224 86.1332
L77.1176 86.1808
" />
<path d="M77.1176 86.1808
L77.4034 86.1808
" />
<path d="M77.4034 86.1808
L77.4986 86.1332
" />
<path d="M77.4986 86.1332
L77.5462 86.0856
" />
</g></g>
<g style="fill:none; 
stroke:#000000; stroke-width:0.1200; stroke-opacity:1; 
stroke-linecap:round; stroke-linejoin:round;">
<path d="M112.9563 93.2079
L114.3788 93.2079
" />
<path d="M112.9563 95.0279
L114.3788 95.0279
" />
<path d="M123.5500 111.4971
L123.5500 110.0429
" />
<path d="M125.3700 111.4971
L125.3700 110.0429
" />
<path d="M83.5727 106.7860
L84.9952 106.7860
" />
<path d="M83.5727 108.6060
L84.9952 108.6060
" />
<path d="M133.5206 118.4700
L132.0665 118.4700
" />
<path d="M133.5206 120.2900
L132.0665 120.2900
" />
<path d="M79.5179 116.5431
L79.5179 116.0889
" />
<path d="M80.9879 116.5431
L80.9879 116.0889
" />
<path d="M89.7127 64.2664
L91.1353 64.2664
" />
<path d="M89.7127 66.0864
L91.1353 66.0864
" />
<path d="M107.5695 93.1790
L108.9920 93.1790
" />
<path d="M107.5695 94.9990
L108.9920 94.9990
" />
<path d="M77.9399 86.6410
L77.4858 86.6410
" />
<path d="M77.9399 88.1110
L77.4858 88.1110
" />
</g> 
</svg>
