<?xml version="1.0" standalone="no"?>
 <!DOCTYPE svg PUBLIC "-//W3C//DTD SVG 1.1//EN" 
 "http://www.w3.org/Graphics/SVG/1.1/DTD/svg11.dtd"> 
<svg
  xmlns:svg="http://www.w3.org/2000/svg"
  xmlns="http://www.w3.org/2000/svg"
  xmlns:xlink="http://www.w3.org/1999/xlink"
  version="1.1"
  width="297.0022mm" height="210.0072mm" viewBox="0.0000 0.0000 297.0022 210.0072">
<title>SVG Image created as modulo_seguidor-User_Drawings.svg date 2025/09/09 17:11:04 </title>
  <desc>Image generated by PCBNEW </desc>
<g style="fill:#000000; fill-opacity:1.0000;stroke:#000000; stroke-opacity:1.0000;
stroke-linecap:round; stroke-linejoin:round;"
 transform="translate(0 0) scale(1 1)">
</g>
<g style="fill:none; 
stroke:#000000; stroke-width:0.1500; stroke-opacity:1; 
stroke-linecap:round; stroke-linejoin:round;">
<path d="M177.0022 166.0072
L285.0022 166.0072
L285.0022 198.0072
L177.0022 198.0072
L177.0022 166.0072
" />
</g>
<g style="fill:none; 
stroke:#000000; stroke-width:0.1500; stroke-opacity:1; 
stroke-linecap:round; stroke-linejoin:round;">
<path d="M10.0000 10.0000
L287.0022 10.0000
L287.0022 200.0072
L10.0000 200.0072
L10.0000 10.0000
" />
</g>
<g style="fill:none; 
stroke:#000000; stroke-width:0.1500; stroke-opacity:1; 
stroke-linecap:round; stroke-linejoin:round;">
<path d="M12.0000 12.0000
L285.0022 12.0000
L285.0022 198.0072
L12.0000 198.0072
L12.0000 12.0000
" />
</g>
<g style="fill:none; 
stroke:#000000; stroke-width:0.1500; stroke-opacity:1; 
stroke-linecap:round; stroke-linejoin:round;">
<path d="M60.0000 12.0000
L60.0000 10.0000
" />
</g>
<g style="fill:none; 
stroke:#000000; stroke-width:0.1500; stroke-opacity:1; 
stroke-linecap:round; stroke-linejoin:round;">
<path d="M110.0000 12.0000
L110.0000 10.0000
" />
</g>
<g style="fill:none; 
stroke:#000000; stroke-width:0.1500; stroke-opacity:1; 
stroke-linecap:round; stroke-linejoin:round;">
<path d="M160.0000 12.0000
L160.0000 10.0000
" />
</g>
<g style="fill:none; 
stroke:#000000; stroke-width:0.1500; stroke-opacity:1; 
stroke-linecap:round; stroke-linejoin:round;">
<path d="M210.0000 12.0000
L210.0000 10.0000
" />
</g>
<g style="fill:none; 
stroke:#000000; stroke-width:0.1500; stroke-opacity:1; 
stroke-linecap:round; stroke-linejoin:round;">
<path d="M260.0000 12.0000
L260.0000 10.0000
" />
</g>
<g style="fill:none; 
stroke:#000000; stroke-width:0.1500; stroke-opacity:1; 
stroke-linecap:round; stroke-linejoin:round;">
<text x="35.0000" y="11.6500"
textLength="1.4281" font-size="1.7333" lengthAdjust="spacingAndGlyphs"
text-anchor="start" opacity="0" stroke-opacity="0">1</text>
<g class="stroked-text"><desc>1</desc>
<path d="M36.0892 11.5936
L35.3463 11.5936
" />
<path d="M35.7177 11.5936
L35.7177 10.2936
" />
<path d="M35.7177 10.2936
L35.5939 10.4793
" />
<path d="M35.5939 10.4793
L35.4701 10.6031
" />
<path d="M35.4701 10.6031
L35.3463 10.6650
" />
</g></g>
<g style="fill:none; 
stroke:#000000; stroke-width:0.1500; stroke-opacity:1; 
stroke-linecap:round; stroke-linejoin:round;">
<text x="85.0000" y="11.6500"
textLength="1.4281" font-size="1.7333" lengthAdjust="spacingAndGlyphs"
text-anchor="start" opacity="0" stroke-opacity="0">2</text>
<g class="stroked-text"><desc>2</desc>
<path d="M85.3463 10.4174
L85.4082 10.3555
" />
<path d="M85.4082 10.3555
L85.5320 10.2936
" />
<path d="M85.5320 10.2936
L85.8415 10.2936
" />
<path d="M85.8415 10.2936
L85.9654 10.3555
" />
<path d="M85.9654 10.3555
L86.0273 10.4174
" />
<path d="M86.0273 10.4174
L86.0892 10.5412
" />
<path d="M86.0892 10.5412
L86.0892 10.6650
" />
<path d="M86.0892 10.6650
L86.0273 10.8507
" />
<path d="M86.0273 10.8507
L85.2844 11.5936
" />
<path d="M85.2844 11.5936
L86.0892 11.5936
" />
</g></g>
<g style="fill:none; 
stroke:#000000; stroke-width:0.1500; stroke-opacity:1; 
stroke-linecap:round; stroke-linejoin:round;">
<text x="135.0000" y="11.6500"
textLength="1.4281" font-size="1.7333" lengthAdjust="spacingAndGlyphs"
text-anchor="start" opacity="0" stroke-opacity="0">3</text>
<g class="stroked-text"><desc>3</desc>
<path d="M135.2844 10.2936
L136.0892 10.2936
" />
<path d="M136.0892 10.2936
L135.6558 10.7888
" />
<path d="M135.6558 10.7888
L135.8415 10.7888
" />
<path d="M135.8415 10.7888
L135.9654 10.8507
" />
<path d="M135.9654 10.8507
L136.0273 10.9127
" />
<path d="M136.0273 10.9127
L136.0892 11.0365
" />
<path d="M136.0892 11.0365
L136.0892 11.3460
" />
<path d="M136.0892 11.3460
L136.0273 11.4698
" />
<path d="M136.0273 11.4698
L135.9654 11.5317
" />
<path d="M135.9654 11.5317
L135.8415 11.5936
" />
<path d="M135.8415 11.5936
L135.4701 11.5936
" />
<path d="M135.4701 11.5936
L135.3463 11.5317
" />
<path d="M135.3463 11.5317
L135.2844 11.4698
" />
</g></g>
<g style="fill:none; 
stroke:#000000; stroke-width:0.1500; stroke-opacity:1; 
stroke-linecap:round; stroke-linejoin:round;">
<text x="185.0000" y="11.6500"
textLength="1.4281" font-size="1.7333" lengthAdjust="spacingAndGlyphs"
text-anchor="start" opacity="0" stroke-opacity="0">4</text>
<g class="stroked-text"><desc>4</desc>
<path d="M185.9654 10.7269
L185.9654 11.5936
" />
<path d="M185.6558 10.2317
L185.3463 11.1603
" />
<path d="M185.3463 11.1603
L186.1511 11.1603
" />
</g></g>
<g style="fill:none; 
stroke:#000000; stroke-width:0.1500; stroke-opacity:1; 
stroke-linecap:round; stroke-linejoin:round;">
<text x="235.0000" y="11.6500"
textLength="1.4281" font-size="1.7333" lengthAdjust="spacingAndGlyphs"
text-anchor="start" opacity="0" stroke-opacity="0">5</text>
<g class="stroked-text"><desc>5</desc>
<path d="M236.0273 10.2936
L235.4082 10.2936
" />
<path d="M235.4082 10.2936
L235.3463 10.9127
" />
<path d="M235.3463 10.9127
L235.4082 10.8507
" />
<path d="M235.4082 10.8507
L235.5320 10.7888
" />
<path d="M235.5320 10.7888
L235.8415 10.7888
" />
<path d="M235.8415 10.7888
L235.9654 10.8507
" />
<path d="M235.9654 10.8507
L236.0273 10.9127
" />
<path d="M236.0273 10.9127
L236.0892 11.0365
" />
<path d="M236.0892 11.0365
L236.0892 11.3460
" />
<path d="M236.0892 11.3460
L236.0273 11.4698
" />
<path d="M236.0273 11.4698
L235.9654 11.5317
" />
<path d="M235.9654 11.5317
L235.8415 11.5936
" />
<path d="M235.8415 11.5936
L235.5320 11.5936
" />
<path d="M235.5320 11.5936
L235.4082 11.5317
" />
<path d="M235.4082 11.5317
L235.3463 11.4698
" />
</g></g>
<g style="fill:none; 
stroke:#000000; stroke-width:0.1500; stroke-opacity:1; 
stroke-linecap:round; stroke-linejoin:round;">
<text x="285.0000" y="11.6500"
textLength="1.4281" font-size="1.7333" lengthAdjust="spacingAndGlyphs"
text-anchor="start" opacity="0" stroke-opacity="0">6</text>
<g class="stroked-text"><desc>6</desc>
<path d="M285.9654 10.2936
L285.7177 10.2936
" />
<path d="M285.7177 10.2936
L285.5939 10.3555
" />
<path d="M285.5939 10.3555
L285.5320 10.4174
" />
<path d="M285.5320 10.4174
L285.4082 10.6031
" />
<path d="M285.4082 10.6031
L285.3463 10.8507
" />
<path d="M285.3463 10.8507
L285.3463 11.3460
" />
<path d="M285.3463 11.3460
L285.4082 11.4698
" />
<path d="M285.4082 11.4698
L285.4701 11.5317
" />
<path d="M285.4701 11.5317
L285.5939 11.5936
" />
<path d="M285.5939 11.5936
L285.8415 11.5936
" />
<path d="M285.8415 11.5936
L285.9654 11.5317
" />
<path d="M285.9654 11.5317
L286.0273 11.4698
" />
<path d="M286.0273 11.4698
L286.0892 11.3460
" />
<path d="M286.0892 11.3460
L286.0892 11.0365
" />
<path d="M286.0892 11.0365
L286.0273 10.9127
" />
<path d="M286.0273 10.9127
L285.9654 10.8507
" />
<path d="M285.9654 10.8507
L285.8415 10.7888
" />
<path d="M285.8415 10.7888
L285.5939 10.7888
" />
<path d="M285.5939 10.7888
L285.4701 10.8507
" />
<path d="M285.4701 10.8507
L285.4082 10.9127
" />
<path d="M285.4082 10.9127
L285.3463 11.0365
" />
</g></g>
<g style="fill:none; 
stroke:#000000; stroke-width:0.1500; stroke-opacity:1; 
stroke-linecap:round; stroke-linejoin:round;">
<path d="M60.0000 198.0072
L60.0000 200.0072
" />
</g>
<g style="fill:none; 
stroke:#000000; stroke-width:0.1500; stroke-opacity:1; 
stroke-linecap:round; stroke-linejoin:round;">
<path d="M110.0000 198.0072
L110.0000 200.0072
" />
</g>
<g style="fill:none; 
stroke:#000000; stroke-width:0.1500; stroke-opacity:1; 
stroke-linecap:round; stroke-linejoin:round;">
<path d="M160.0000 198.0072
L160.0000 200.0072
" />
</g>
<g style="fill:none; 
stroke:#000000; stroke-width:0.1500; stroke-opacity:1; 
stroke-linecap:round; stroke-linejoin:round;">
<path d="M210.0000 198.0072
L210.0000 200.0072
" />
</g>
<g style="fill:none; 
stroke:#000000; stroke-width:0.1500; stroke-opacity:1; 
stroke-linecap:round; stroke-linejoin:round;">
<path d="M260.0000 198.0072
L260.0000 200.0072
" />
</g>
<g style="fill:none; 
stroke:#000000; stroke-width:0.1500; stroke-opacity:1; 
stroke-linecap:round; stroke-linejoin:round;">
<text x="35.0000" y="199.6572"
textLength="1.4281" font-size="1.7333" lengthAdjust="spacingAndGlyphs"
text-anchor="start" opacity="0" stroke-opacity="0">1</text>
<g class="stroked-text"><desc>1</desc>
<path d="M36.0892 199.6008
L35.3463 199.6008
" />
<path d="M35.7177 199.6008
L35.7177 198.3008
" />
<path d="M35.7177 198.3008
L35.5939 198.4865
" />
<path d="M35.5939 198.4865
L35.4701 198.6103
" />
<path d="M35.4701 198.6103
L35.3463 198.6722
" />
</g></g>
<g style="fill:none; 
stroke:#000000; stroke-width:0.1500; stroke-opacity:1; 
stroke-linecap:round; stroke-linejoin:round;">
<text x="85.0000" y="199.6572"
textLength="1.4281" font-size="1.7333" lengthAdjust="spacingAndGlyphs"
text-anchor="start" opacity="0" stroke-opacity="0">2</text>
<g class="stroked-text"><desc>2</desc>
<path d="M85.3463 198.4246
L85.4082 198.3627
" />
<path d="M85.4082 198.3627
L85.5320 198.3008
" />
<path d="M85.5320 198.3008
L85.8415 198.3008
" />
<path d="M85.8415 198.3008
L85.9654 198.3627
" />
<path d="M85.9654 198.3627
L86.0273 198.4246
" />
<path d="M86.0273 198.4246
L86.0892 198.5484
" />
<path d="M86.0892 198.5484
L86.0892 198.6722
" />
<path d="M86.0892 198.6722
L86.0273 198.8579
" />
<path d="M86.0273 198.8579
L85.2844 199.6008
" />
<path d="M85.2844 199.6008
L86.0892 199.6008
" />
</g></g>
<g style="fill:none; 
stroke:#000000; stroke-width:0.1500; stroke-opacity:1; 
stroke-linecap:round; stroke-linejoin:round;">
<text x="135.0000" y="199.6572"
textLength="1.4281" font-size="1.7333" lengthAdjust="spacingAndGlyphs"
text-anchor="start" opacity="0" stroke-opacity="0">3</text>
<g class="stroked-text"><desc>3</desc>
<path d="M135.2844 198.3008
L136.0892 198.3008
" />
<path d="M136.0892 198.3008
L135.6558 198.7960
" />
<path d="M135.6558 198.7960
L135.8415 198.7960
" />
<path d="M135.8415 198.7960
L135.9654 198.8579
" />
<path d="M135.9654 198.8579
L136.0273 198.9199
" />
<path d="M136.0273 198.9199
L136.0892 199.0437
" />
<path d="M136.0892 199.0437
L136.0892 199.3532
" />
<path d="M136.0892 199.3532
L136.0273 199.4770
" />
<path d="M136.0273 199.4770
L135.9654 199.5389
" />
<path d="M135.9654 199.5389
L135.8415 199.6008
" />
<path d="M135.8415 199.6008
L135.4701 199.6008
" />
<path d="M135.4701 199.6008
L135.3463 199.5389
" />
<path d="M135.3463 199.5389
L135.2844 199.4770
" />
</g></g>
<g style="fill:none; 
stroke:#000000; stroke-width:0.1500; stroke-opacity:1; 
stroke-linecap:round; stroke-linejoin:round;">
<text x="185.0000" y="199.6572"
textLength="1.4281" font-size="1.7333" lengthAdjust="spacingAndGlyphs"
text-anchor="start" opacity="0" stroke-opacity="0">4</text>
<g class="stroked-text"><desc>4</desc>
<path d="M185.9654 198.7341
L185.9654 199.6008
" />
<path d="M185.6558 198.2389
L185.3463 199.1675
" />
<path d="M185.3463 199.1675
L186.1511 199.1675
" />
</g></g>
<g style="fill:none; 
stroke:#000000; stroke-width:0.1500; stroke-opacity:1; 
stroke-linecap:round; stroke-linejoin:round;">
<text x="235.0000" y="199.6572"
textLength="1.4281" font-size="1.7333" lengthAdjust="spacingAndGlyphs"
text-anchor="start" opacity="0" stroke-opacity="0">5</text>
<g class="stroked-text"><desc>5</desc>
<path d="M236.0273 198.3008
L235.4082 198.3008
" />
<path d="M235.4082 198.3008
L235.3463 198.9199
" />
<path d="M235.3463 198.9199
L235.4082 198.8579
" />
<path d="M235.4082 198.8579
L235.5320 198.7960
" />
<path d="M235.5320 198.7960
L235.8415 198.7960
" />
<path d="M235.8415 198.7960
L235.9654 198.8579
" />
<path d="M235.9654 198.8579
L236.0273 198.9199
" />
<path d="M236.0273 198.9199
L236.0892 199.0437
" />
<path d="M236.0892 199.0437
L236.0892 199.3532
" />
<path d="M236.0892 199.3532
L236.0273 199.4770
" />
<path d="M236.0273 199.4770
L235.9654 199.5389
" />
<path d="M235.9654 199.5389
L235.8415 199.6008
" />
<path d="M235.8415 199.6008
L235.5320 199.6008
" />
<path d="M235.5320 199.6008
L235.4082 199.5389
" />
<path d="M235.4082 199.5389
L235.3463 199.4770
" />
</g></g>
<g style="fill:none; 
stroke:#000000; stroke-width:0.1500; stroke-opacity:1; 
stroke-linecap:round; stroke-linejoin:round;">
<text x="285.0000" y="199.6572"
textLength="1.4281" font-size="1.7333" lengthAdjust="spacingAndGlyphs"
text-anchor="start" opacity="0" stroke-opacity="0">6</text>
<g class="stroked-text"><desc>6</desc>
<path d="M285.9654 198.3008
L285.7177 198.3008
" />
<path d="M285.7177 198.3008
L285.5939 198.3627
" />
<path d="M285.5939 198.3627
L285.5320 198.4246
" />
<path d="M285.5320 198.4246
L285.4082 198.6103
" />
<path d="M285.4082 198.6103
L285.3463 198.8579
" />
<path d="M285.3463 198.8579
L285.3463 199.3532
" />
<path d="M285.3463 199.3532
L285.4082 199.4770
" />
<path d="M285.4082 199.4770
L285.4701 199.5389
" />
<path d="M285.4701 199.5389
L285.5939 199.6008
" />
<path d="M285.5939 199.6008
L285.8415 199.6008
" />
<path d="M285.8415 199.6008
L285.9654 199.5389
" />
<path d="M285.9654 199.5389
L286.0273 199.4770
" />
<path d="M286.0273 199.4770
L286.0892 199.3532
" />
<path d="M286.0892 199.3532
L286.0892 199.0437
" />
<path d="M286.0892 199.0437
L286.0273 198.9199
" />
<path d="M286.0273 198.9199
L285.9654 198.8579
" />
<path d="M285.9654 198.8579
L285.8415 198.7960
" />
<path d="M285.8415 198.7960
L285.5939 198.7960
" />
<path d="M285.5939 198.7960
L285.4701 198.8579
" />
<path d="M285.4701 198.8579
L285.4082 198.9199
" />
<path d="M285.4082 198.9199
L285.3463 199.0437
" />
</g></g>
<g style="fill:none; 
stroke:#000000; stroke-width:0.1500; stroke-opacity:1; 
stroke-linecap:round; stroke-linejoin:round;">
<path d="M10.0000 60.0000
L12.0000 60.0000
" />
</g>
<g style="fill:none; 
stroke:#000000; stroke-width:0.1500; stroke-opacity:1; 
stroke-linecap:round; stroke-linejoin:round;">
<path d="M10.0000 110.0000
L12.0000 110.0000
" />
</g>
<g style="fill:none; 
stroke:#000000; stroke-width:0.1500; stroke-opacity:1; 
stroke-linecap:round; stroke-linejoin:round;">
<path d="M10.0000 160.0000
L12.0000 160.0000
" />
</g>
<g style="fill:none; 
stroke:#000000; stroke-width:0.1500; stroke-opacity:1; 
stroke-linecap:round; stroke-linejoin:round;">
<text x="11.0000" y="35.6500"
textLength="1.3043" font-size="1.7333" lengthAdjust="spacingAndGlyphs"
text-anchor="middle" opacity="0" stroke-opacity="0">A</text>
<g class="stroked-text"><desc>A</desc>
<path d="M10.6905 35.2222
L11.3095 35.2222
" />
<path d="M10.5667 35.5936
L11.0000 34.2936
" />
<path d="M11.0000 34.2936
L11.4333 35.5936
" />
</g></g>
<g style="fill:none; 
stroke:#000000; stroke-width:0.1500; stroke-opacity:1; 
stroke-linecap:round; stroke-linejoin:round;">
<text x="11.0000" y="85.6500"
textLength="1.4900" font-size="1.7333" lengthAdjust="spacingAndGlyphs"
text-anchor="middle" opacity="0" stroke-opacity="0">B</text>
<g class="stroked-text"><desc>B</desc>
<path d="M11.0929 84.9127
L11.2786 84.9746
" />
<path d="M11.2786 84.9746
L11.3405 85.0365
" />
<path d="M11.3405 85.0365
L11.4024 85.1603
" />
<path d="M11.4024 85.1603
L11.4024 85.3460
" />
<path d="M11.4024 85.3460
L11.3405 85.4698
" />
<path d="M11.3405 85.4698
L11.2786 85.5317
" />
<path d="M11.2786 85.5317
L11.1548 85.5936
" />
<path d="M11.1548 85.5936
L10.6595 85.5936
" />
<path d="M10.6595 85.5936
L10.6595 84.2936
" />
<path d="M10.6595 84.2936
L11.0929 84.2936
" />
<path d="M11.0929 84.2936
L11.2167 84.3555
" />
<path d="M11.2167 84.3555
L11.2786 84.4174
" />
<path d="M11.2786 84.4174
L11.3405 84.5412
" />
<path d="M11.3405 84.5412
L11.3405 84.6650
" />
<path d="M11.3405 84.6650
L11.2786 84.7888
" />
<path d="M11.2786 84.7888
L11.2167 84.8507
" />
<path d="M11.2167 84.8507
L11.0929 84.9127
" />
<path d="M11.0929 84.9127
L10.6595 84.9127
" />
</g></g>
<g style="fill:none; 
stroke:#000000; stroke-width:0.1500; stroke-opacity:1; 
stroke-linecap:round; stroke-linejoin:round;">
<text x="11.0000" y="135.6500"
textLength="1.4900" font-size="1.7333" lengthAdjust="spacingAndGlyphs"
text-anchor="middle" opacity="0" stroke-opacity="0">C</text>
<g class="stroked-text"><desc>C</desc>
<path d="M11.4024 135.4698
L11.3405 135.5317
" />
<path d="M11.3405 135.5317
L11.1548 135.5936
" />
<path d="M11.1548 135.5936
L11.0310 135.5936
" />
<path d="M11.0310 135.5936
L10.8452 135.5317
" />
<path d="M10.8452 135.5317
L10.7214 135.4079
" />
<path d="M10.7214 135.4079
L10.6595 135.2841
" />
<path d="M10.6595 135.2841
L10.5976 135.0365
" />
<path d="M10.5976 135.0365
L10.5976 134.8507
" />
<path d="M10.5976 134.8507
L10.6595 134.6031
" />
<path d="M10.6595 134.6031
L10.7214 134.4793
" />
<path d="M10.7214 134.4793
L10.8452 134.3555
" />
<path d="M10.8452 134.3555
L11.0310 134.2936
" />
<path d="M11.0310 134.2936
L11.1548 134.2936
" />
<path d="M11.1548 134.2936
L11.3405 134.3555
" />
<path d="M11.3405 134.3555
L11.4024 134.4174
" />
</g></g>
<g style="fill:none; 
stroke:#000000; stroke-width:0.1500; stroke-opacity:1; 
stroke-linecap:round; stroke-linejoin:round;">
<text x="11.0000" y="185.6500"
textLength="1.4900" font-size="1.7333" lengthAdjust="spacingAndGlyphs"
text-anchor="middle" opacity="0" stroke-opacity="0">D</text>
<g class="stroked-text"><desc>D</desc>
<path d="M10.6595 185.5936
L10.6595 184.2936
" />
<path d="M10.6595 184.2936
L10.9690 184.2936
" />
<path d="M10.9690 184.2936
L11.1548 184.3555
" />
<path d="M11.1548 184.3555
L11.2786 184.4793
" />
<path d="M11.2786 184.4793
L11.3405 184.6031
" />
<path d="M11.3405 184.6031
L11.4024 184.8507
" />
<path d="M11.4024 184.8507
L11.4024 185.0365
" />
<path d="M11.4024 185.0365
L11.3405 185.2841
" />
<path d="M11.3405 185.2841
L11.2786 185.4079
" />
<path d="M11.2786 185.4079
L11.1548 185.5317
" />
<path d="M11.1548 185.5317
L10.9690 185.5936
" />
<path d="M10.9690 185.5936
L10.6595 185.5936
" />
</g></g>
<g style="fill:none; 
stroke:#000000; stroke-width:0.1500; stroke-opacity:1; 
stroke-linecap:round; stroke-linejoin:round;">
<path d="M287.0022 60.0000
L285.0022 60.0000
" />
</g>
<g style="fill:none; 
stroke:#000000; stroke-width:0.1500; stroke-opacity:1; 
stroke-linecap:round; stroke-linejoin:round;">
<path d="M287.0022 110.0000
L285.0022 110.0000
" />
</g>
<g style="fill:none; 
stroke:#000000; stroke-width:0.1500; stroke-opacity:1; 
stroke-linecap:round; stroke-linejoin:round;">
<path d="M287.0022 160.0000
L285.0022 160.0000
" />
</g>
<g style="fill:none; 
stroke:#000000; stroke-width:0.1500; stroke-opacity:1; 
stroke-linecap:round; stroke-linejoin:round;">
<text x="286.0022" y="35.6500"
textLength="1.3043" font-size="1.7333" lengthAdjust="spacingAndGlyphs"
text-anchor="middle" opacity="0" stroke-opacity="0">A</text>
<g class="stroked-text"><desc>A</desc>
<path d="M285.6927 35.2222
L286.3117 35.2222
" />
<path d="M285.5689 35.5936
L286.0022 34.2936
" />
<path d="M286.0022 34.2936
L286.4355 35.5936
" />
</g></g>
<g style="fill:none; 
stroke:#000000; stroke-width:0.1500; stroke-opacity:1; 
stroke-linecap:round; stroke-linejoin:round;">
<text x="286.0022" y="85.6500"
textLength="1.4900" font-size="1.7333" lengthAdjust="spacingAndGlyphs"
text-anchor="middle" opacity="0" stroke-opacity="0">B</text>
<g class="stroked-text"><desc>B</desc>
<path d="M286.0951 84.9127
L286.2808 84.9746
" />
<path d="M286.2808 84.9746
L286.3427 85.0365
" />
<path d="M286.3427 85.0365
L286.4046 85.1603
" />
<path d="M286.4046 85.1603
L286.4046 85.3460
" />
<path d="M286.4046 85.3460
L286.3427 85.4698
" />
<path d="M286.3427 85.4698
L286.2808 85.5317
" />
<path d="M286.2808 85.5317
L286.1570 85.5936
" />
<path d="M286.1570 85.5936
L285.6617 85.5936
" />
<path d="M285.6617 85.5936
L285.6617 84.2936
" />
<path d="M285.6617 84.2936
L286.0951 84.2936
" />
<path d="M286.0951 84.2936
L286.2189 84.3555
" />
<path d="M286.2189 84.3555
L286.2808 84.4174
" />
<path d="M286.2808 84.4174
L286.3427 84.5412
" />
<path d="M286.3427 84.5412
L286.3427 84.6650
" />
<path d="M286.3427 84.6650
L286.2808 84.7888
" />
<path d="M286.2808 84.7888
L286.2189 84.8507
" />
<path d="M286.2189 84.8507
L286.0951 84.9127
" />
<path d="M286.0951 84.9127
L285.6617 84.9127
" />
</g></g>
<g style="fill:none; 
stroke:#000000; stroke-width:0.1500; stroke-opacity:1; 
stroke-linecap:round; stroke-linejoin:round;">
<text x="286.0022" y="135.6500"
textLength="1.4900" font-size="1.7333" lengthAdjust="spacingAndGlyphs"
text-anchor="middle" opacity="0" stroke-opacity="0">C</text>
<g class="stroked-text"><desc>C</desc>
<path d="M286.4046 135.4698
L286.3427 135.5317
" />
<path d="M286.3427 135.5317
L286.1570 135.5936
" />
<path d="M286.1570 135.5936
L286.0332 135.5936
" />
<path d="M286.0332 135.5936
L285.8474 135.5317
" />
<path d="M285.8474 135.5317
L285.7236 135.4079
" />
<path d="M285.7236 135.4079
L285.6617 135.2841
" />
<path d="M285.6617 135.2841
L285.5998 135.0365
" />
<path d="M285.5998 135.0365
L285.5998 134.8507
" />
<path d="M285.5998 134.8507
L285.6617 134.6031
" />
<path d="M285.6617 134.6031
L285.7236 134.4793
" />
<path d="M285.7236 134.4793
L285.8474 134.3555
" />
<path d="M285.8474 134.3555
L286.0332 134.2936
" />
<path d="M286.0332 134.2936
L286.1570 134.2936
" />
<path d="M286.1570 134.2936
L286.3427 134.3555
" />
<path d="M286.3427 134.3555
L286.4046 134.4174
" />
</g></g>
<g style="fill:none; 
stroke:#000000; stroke-width:0.1500; stroke-opacity:1; 
stroke-linecap:round; stroke-linejoin:round;">
<text x="286.0022" y="185.6500"
textLength="1.4900" font-size="1.7333" lengthAdjust="spacingAndGlyphs"
text-anchor="middle" opacity="0" stroke-opacity="0">D</text>
<g class="stroked-text"><desc>D</desc>
<path d="M285.6617 185.5936
L285.6617 184.2936
" />
<path d="M285.6617 184.2936
L285.9712 184.2936
" />
<path d="M285.9712 184.2936
L286.1570 184.3555
" />
<path d="M286.1570 184.3555
L286.2808 184.4793
" />
<path d="M286.2808 184.4793
L286.3427 184.6031
" />
<path d="M286.3427 184.6031
L286.4046 184.8507
" />
<path d="M286.4046 184.8507
L286.4046 185.0365
" />
<path d="M286.4046 185.0365
L286.3427 185.2841
" />
<path d="M286.3427 185.2841
L286.2808 185.4079
" />
<path d="M286.2808 185.4079
L286.1570 185.5317
" />
<path d="M286.1570 185.5317
L285.9712 185.5936
" />
<path d="M285.9712 185.5936
L285.6617 185.5936
" />
</g></g>
<g style="fill:none; 
stroke:#000000; stroke-width:0.1500; stroke-opacity:1; 
stroke-linecap:round; stroke-linejoin:round;">
<text x="200.0022" y="193.8572"
textLength="7.0071" font-size="2.0000" lengthAdjust="spacingAndGlyphs"
text-anchor="start" opacity="0" stroke-opacity="0">Date: </text>
<g class="stroked-text"><desc>Date: </desc>
<path d="M200.4580 193.7933
L200.4580 192.2933
" />
<path d="M200.4580 192.2933
L200.8152 192.2933
" />
<path d="M200.8152 192.2933
L201.0295 192.3648
" />
<path d="M201.0295 192.3648
L201.1723 192.5076
" />
<path d="M201.1723 192.5076
L201.2437 192.6505
" />
<path d="M201.2437 192.6505
L201.3152 192.9362
" />
<path d="M201.3152 192.9362
L201.3152 193.1505
" />
<path d="M201.3152 193.1505
L201.2437 193.4362
" />
<path d="M201.2437 193.4362
L201.1723 193.5790
" />
<path d="M201.1723 193.5790
L201.0295 193.7219
" />
<path d="M201.0295 193.7219
L200.8152 193.7933
" />
<path d="M200.8152 193.7933
L200.4580 193.7933
" />
<path d="M202.6009 193.7933
L202.6009 193.0076
" />
<path d="M202.6009 193.0076
L202.5295 192.8648
" />
<path d="M202.5295 192.8648
L202.3866 192.7933
" />
<path d="M202.3866 192.7933
L202.1009 192.7933
" />
<path d="M202.1009 192.7933
L201.9580 192.8648
" />
<path d="M202.6009 193.7219
L202.4580 193.7933
" />
<path d="M202.4580 193.7933
L202.1009 193.7933
" />
<path d="M202.1009 193.7933
L201.9580 193.7219
" />
<path d="M201.9580 193.7219
L201.8866 193.5790
" />
<path d="M201.8866 193.5790
L201.8866 193.4362
" />
<path d="M201.8866 193.4362
L201.9580 193.2933
" />
<path d="M201.9580 193.2933
L202.1009 193.2219
" />
<path d="M202.1009 193.2219
L202.4580 193.2219
" />
<path d="M202.4580 193.2219
L202.6009 193.1505
" />
<path d="M203.1009 192.7933
L203.6723 192.7933
" />
<path d="M203.3152 192.2933
L203.3152 193.5790
" />
<path d="M203.3152 193.5790
L203.3866 193.7219
" />
<path d="M203.3866 193.7219
L203.5295 193.7933
" />
<path d="M203.5295 193.7933
L203.6723 193.7933
" />
<path d="M204.7437 193.7219
L204.6009 193.7933
" />
<path d="M204.6009 193.7933
L204.3152 193.7933
" />
<path d="M204.3152 193.7933
L204.1723 193.7219
" />
<path d="M204.1723 193.7219
L204.1009 193.5790
" />
<path d="M204.1009 193.5790
L204.1009 193.0076
" />
<path d="M204.1009 193.0076
L204.1723 192.8648
" />
<path d="M204.1723 192.8648
L204.3152 192.7933
" />
<path d="M204.3152 192.7933
L204.6009 192.7933
" />
<path d="M204.6009 192.7933
L204.7437 192.8648
" />
<path d="M204.7437 192.8648
L204.8152 193.0076
" />
<path d="M204.8152 193.0076
L204.8152 193.1505
" />
<path d="M204.8152 193.1505
L204.1009 193.2933
" />
<path d="M205.4580 193.6505
L205.5295 193.7219
" />
<path d="M205.5295 193.7219
L205.4580 193.7933
" />
<path d="M205.4580 193.7933
L205.3866 193.7219
" />
<path d="M205.3866 193.7219
L205.4580 193.6505
" />
<path d="M205.4580 193.6505
L205.4580 193.7933
" />
<path d="M205.4580 192.8648
L205.5295 192.9362
" />
<path d="M205.5295 192.9362
L205.4580 193.0076
" />
<path d="M205.4580 193.0076
L205.3866 192.9362
" />
<path d="M205.3866 192.9362
L205.4580 192.8648
" />
<path d="M205.4580 192.8648
L205.4580 193.0076
" />
</g></g>
<g style="fill:none; 
stroke:#000000; stroke-width:0.1500; stroke-opacity:1; 
stroke-linecap:round; stroke-linejoin:round;">
<path d="M177.0022 194.5072
L285.0022 194.5072
" />
</g>
<g style="fill:none; 
stroke:#000000; stroke-width:0.1500; stroke-opacity:1; 
stroke-linecap:round; stroke-linejoin:round;">
<text x="178.0022" y="196.6572"
textLength="20.6500" font-size="2.0000" lengthAdjust="spacingAndGlyphs"
text-anchor="start" opacity="0" stroke-opacity="0">${KICAD_VERSION}</text>
<g class="stroked-text"><desc>${KICAD_VERSION}</desc>
<path d="M178.3866 196.5219
L178.6009 196.5933
" />
<path d="M178.6009 196.5933
L178.9580 196.5933
" />
<path d="M178.9580 196.5933
L179.1009 196.5219
" />
<path d="M179.1009 196.5219
L179.1723 196.4505
" />
<path d="M179.1723 196.4505
L179.2437 196.3076
" />
<path d="M179.2437 196.3076
L179.2437 196.1648
" />
<path d="M179.2437 196.1648
L179.1723 196.0219
" />
<path d="M179.1723 196.0219
L179.1009 195.9505
" />
<path d="M179.1009 195.9505
L178.9580 195.8790
" />
<path d="M178.9580 195.8790
L178.6723 195.8076
" />
<path d="M178.6723 195.8076
L178.5295 195.7362
" />
<path d="M178.5295 195.7362
L178.4580 195.6648
" />
<path d="M178.4580 195.6648
L178.3866 195.5219
" />
<path d="M178.3866 195.5219
L178.3866 195.3790
" />
<path d="M178.3866 195.3790
L178.4580 195.2362
" />
<path d="M178.4580 195.2362
L178.5295 195.1648
" />
<path d="M178.5295 195.1648
L178.6723 195.0933
" />
<path d="M178.6723 195.0933
L179.0295 195.0933
" />
<path d="M179.0295 195.0933
L179.2437 195.1648
" />
<path d="M178.8152 194.8790
L178.8152 196.8076
" />
<path d="M180.3152 197.1648
L180.2437 197.1648
" />
<path d="M180.2437 197.1648
L180.1009 197.0933
" />
<path d="M180.1009 197.0933
L180.0295 196.9505
" />
<path d="M180.0295 196.9505
L180.0295 196.2362
" />
<path d="M180.0295 196.2362
L179.9580 196.0933
" />
<path d="M179.9580 196.0933
L179.8152 196.0219
" />
<path d="M179.8152 196.0219
L179.9580 195.9505
" />
<path d="M179.9580 195.9505
L180.0295 195.8076
" />
<path d="M180.0295 195.8076
L180.0295 195.0933
" />
<path d="M180.0295 195.0933
L180.1009 194.9505
" />
<path d="M180.1009 194.9505
L180.2437 194.8790
" />
<path d="M180.2437 194.8790
L180.3152 194.8790
" />
<path d="M180.8866 196.5933
L180.8866 195.0933
" />
<path d="M181.7437 196.5933
L181.1009 195.7362
" />
<path d="M181.7437 195.0933
L180.8866 195.9505
" />
<path d="M182.3866 196.5933
L182.3866 195.0933
" />
<path d="M183.9580 196.4505
L183.8866 196.5219
" />
<path d="M183.8866 196.5219
L183.6723 196.5933
" />
<path d="M183.6723 196.5933
L183.5295 196.5933
" />
<path d="M183.5295 196.5933
L183.3152 196.5219
" />
<path d="M183.3152 196.5219
L183.1723 196.3790
" />
<path d="M183.1723 196.3790
L183.1009 196.2362
" />
<path d="M183.1009 196.2362
L183.0295 195.9505
" />
<path d="M183.0295 195.9505
L183.0295 195.7362
" />
<path d="M183.0295 195.7362
L183.1009 195.4505
" />
<path d="M183.1009 195.4505
L183.1723 195.3076
" />
<path d="M183.1723 195.3076
L183.3152 195.1648
" />
<path d="M183.3152 195.1648
L183.5295 195.0933
" />
<path d="M183.5295 195.0933
L183.6723 195.0933
" />
<path d="M183.6723 195.0933
L183.8866 195.1648
" />
<path d="M183.8866 195.1648
L183.9580 195.2362
" />
<path d="M184.5295 196.1648
L185.2437 196.1648
" />
<path d="M184.3866 196.5933
L184.8866 195.0933
" />
<path d="M184.8866 195.0933
L185.3866 196.5933
" />
<path d="M185.8866 196.5933
L185.8866 195.0933
" />
<path d="M185.8866 195.0933
L186.2437 195.0933
" />
<path d="M186.2437 195.0933
L186.4580 195.1648
" />
<path d="M186.4580 195.1648
L186.6009 195.3076
" />
<path d="M186.6009 195.3076
L186.6723 195.4505
" />
<path d="M186.6723 195.4505
L186.7437 195.7362
" />
<path d="M186.7437 195.7362
L186.7437 195.9505
" />
<path d="M186.7437 195.9505
L186.6723 196.2362
" />
<path d="M186.6723 196.2362
L186.6009 196.3790
" />
<path d="M186.6009 196.3790
L186.4580 196.5219
" />
<path d="M186.4580 196.5219
L186.2437 196.5933
" />
<path d="M186.2437 196.5933
L185.8866 196.5933
" />
<path d="M187.0295 196.7362
L188.1723 196.7362
" />
<path d="M188.3152 195.0933
L188.8152 196.5933
" />
<path d="M188.8152 196.5933
L189.3152 195.0933
" />
<path d="M189.8152 195.8076
L190.3152 195.8076
" />
<path d="M190.5295 196.5933
L189.8152 196.5933
" />
<path d="M189.8152 196.5933
L189.8152 195.0933
" />
<path d="M189.8152 195.0933
L190.5295 195.0933
" />
<path d="M192.0295 196.5933
L191.5295 195.8790
" />
<path d="M191.1723 196.5933
L191.1723 195.0933
" />
<path d="M191.1723 195.0933
L191.7437 195.0933
" />
<path d="M191.7437 195.0933
L191.8866 195.1648
" />
<path d="M191.8866 195.1648
L191.9580 195.2362
" />
<path d="M191.9580 195.2362
L192.0295 195.3790
" />
<path d="M192.0295 195.3790
L192.0295 195.5933
" />
<path d="M192.0295 195.5933
L191.9580 195.7362
" />
<path d="M191.9580 195.7362
L191.8866 195.8076
" />
<path d="M191.8866 195.8076
L191.7437 195.8790
" />
<path d="M191.7437 195.8790
L191.1723 195.8790
" />
<path d="M192.6009 196.5219
L192.8152 196.5933
" />
<path d="M192.8152 196.5933
L193.1723 196.5933
" />
<path d="M193.1723 196.5933
L193.3152 196.5219
" />
<path d="M193.3152 196.5219
L193.3866 196.4505
" />
<path d="M193.3866 196.4505
L193.4580 196.3076
" />
<path d="M193.4580 196.3076
L193.4580 196.1648
" />
<path d="M193.4580 196.1648
L193.3866 196.0219
" />
<path d="M193.3866 196.0219
L193.3152 195.9505
" />
<path d="M193.3152 195.9505
L193.1723 195.8790
" />
<path d="M193.1723 195.8790
L192.8866 195.8076
" />
<path d="M192.8866 195.8076
L192.7437 195.7362
" />
<path d="M192.7437 195.7362
L192.6723 195.6648
" />
<path d="M192.6723 195.6648
L192.6009 195.5219
" />
<path d="M192.6009 195.5219
L192.6009 195.3790
" />
<path d="M192.6009 195.3790
L192.6723 195.2362
" />
<path d="M192.6723 195.2362
L192.7437 195.1648
" />
<path d="M192.7437 195.1648
L192.8866 195.0933
" />
<path d="M192.8866 195.0933
L193.2437 195.0933
" />
<path d="M193.2437 195.0933
L193.4580 195.1648
" />
<path d="M194.1009 196.5933
L194.1009 195.0933
" />
<path d="M195.1009 195.0933
L195.3866 195.0933
" />
<path d="M195.3866 195.0933
L195.5295 195.1648
" />
<path d="M195.5295 195.1648
L195.6723 195.3076
" />
<path d="M195.6723 195.3076
L195.7437 195.5933
" />
<path d="M195.7437 195.5933
L195.7437 196.0933
" />
<path d="M195.7437 196.0933
L195.6723 196.3790
" />
<path d="M195.6723 196.3790
L195.5295 196.5219
" />
<path d="M195.5295 196.5219
L195.3866 196.5933
" />
<path d="M195.3866 196.5933
L195.1009 196.5933
" />
<path d="M195.1009 196.5933
L194.9580 196.5219
" />
<path d="M194.9580 196.5219
L194.8152 196.3790
" />
<path d="M194.8152 196.3790
L194.7437 196.0933
" />
<path d="M194.7437 196.0933
L194.7437 195.5933
" />
<path d="M194.7437 195.5933
L194.8152 195.3076
" />
<path d="M194.8152 195.3076
L194.9580 195.1648
" />
<path d="M194.9580 195.1648
L195.1009 195.0933
" />
<path d="M196.3866 196.5933
L196.3866 195.0933
" />
<path d="M196.3866 195.0933
L197.2437 196.5933
" />
<path d="M197.2437 196.5933
L197.2437 195.0933
" />
<path d="M197.8152 197.1648
L197.8866 197.1648
" />
<path d="M197.8866 197.1648
L198.0295 197.0933
" />
<path d="M198.0295 197.0933
L198.1009 196.9505
" />
<path d="M198.1009 196.9505
L198.1009 196.2362
" />
<path d="M198.1009 196.2362
L198.1723 196.0933
" />
<path d="M198.1723 196.0933
L198.3152 196.0219
" />
<path d="M198.3152 196.0219
L198.1723 195.9505
" />
<path d="M198.1723 195.9505
L198.1009 195.8076
" />
<path d="M198.1009 195.8076
L198.1009 195.0933
" />
<path d="M198.1009 195.0933
L198.0295 194.9505
" />
<path d="M198.0295 194.9505
L197.8866 194.8790
" />
<path d="M197.8866 194.8790
L197.8152 194.8790
" />
</g></g>
<g style="fill:none; 
stroke:#000000; stroke-width:0.1500; stroke-opacity:1; 
stroke-linecap:round; stroke-linejoin:round;">
<path d="M177.0022 191.5072
L285.0022 191.5072
" />
</g>
<g style="fill:none; 
stroke:#000000; stroke-width:0.3000; stroke-opacity:1; 
stroke-linecap:round; stroke-linejoin:round;">
<text x="263.0022" y="193.8572"
textLength="6.3857" font-size="2.0000" lengthAdjust="spacingAndGlyphs"
text-anchor="start" opacity="0" stroke-opacity="0">Rev: </text>
<g class="stroked-text"><desc>Rev: </desc>
<path d="M264.4139 193.7855
L263.9139 193.0712
" />
<path d="M263.5567 193.7855
L263.5567 192.2855
" />
<path d="M263.5567 192.2855
L264.1281 192.2855
" />
<path d="M264.1281 192.2855
L264.2710 192.3570
" />
<path d="M264.2710 192.3570
L264.3424 192.4284
" />
<path d="M264.3424 192.4284
L264.4139 192.5712
" />
<path d="M264.4139 192.5712
L264.4139 192.7855
" />
<path d="M264.4139 192.7855
L264.3424 192.9284
" />
<path d="M264.3424 192.9284
L264.2710 192.9998
" />
<path d="M264.2710 192.9998
L264.1281 193.0712
" />
<path d="M264.1281 193.0712
L263.5567 193.0712
" />
<path d="M265.6281 193.7141
L265.4853 193.7855
" />
<path d="M265.4853 193.7855
L265.1996 193.7855
" />
<path d="M265.1996 193.7855
L265.0567 193.7141
" />
<path d="M265.0567 193.7141
L264.9853 193.5712
" />
<path d="M264.9853 193.5712
L264.9853 192.9998
" />
<path d="M264.9853 192.9998
L265.0567 192.8570
" />
<path d="M265.0567 192.8570
L265.1996 192.7855
" />
<path d="M265.1996 192.7855
L265.4853 192.7855
" />
<path d="M265.4853 192.7855
L265.6281 192.8570
" />
<path d="M265.6281 192.8570
L265.6996 192.9998
" />
<path d="M265.6996 192.9998
L265.6996 193.1427
" />
<path d="M265.6996 193.1427
L264.9853 193.2855
" />
<path d="M266.1996 192.7855
L266.5567 193.7855
" />
<path d="M266.5567 193.7855
L266.9139 192.7855
" />
<path d="M267.4853 193.6427
L267.5567 193.7141
" />
<path d="M267.5567 193.7141
L267.4853 193.7855
" />
<path d="M267.4853 193.7855
L267.4139 193.7141
" />
<path d="M267.4139 193.7141
L267.4853 193.6427
" />
<path d="M267.4853 193.6427
L267.4853 193.7855
" />
<path d="M267.4853 192.8570
L267.5567 192.9284
" />
<path d="M267.5567 192.9284
L267.4853 192.9998
" />
<path d="M267.4853 192.9998
L267.4139 192.9284
" />
<path d="M267.4139 192.9284
L267.4853 192.8570
" />
<path d="M267.4853 192.8570
L267.4853 192.9998
" />
</g></g>
<g style="fill:none; 
stroke:#000000; stroke-width:0.1500; stroke-opacity:1; 
stroke-linecap:round; stroke-linejoin:round;">
<text x="178.0022" y="193.8572"
textLength="9.3643" font-size="2.0000" lengthAdjust="spacingAndGlyphs"
text-anchor="start" opacity="0" stroke-opacity="0">Size: A4</text>
<g class="stroked-text"><desc>Size: A4</desc>
<path d="M178.3866 193.7219
L178.6009 193.7933
" />
<path d="M178.6009 193.7933
L178.9580 193.7933
" />
<path d="M178.9580 193.7933
L179.1009 193.7219
" />
<path d="M179.1009 193.7219
L179.1723 193.6505
" />
<path d="M179.1723 193.6505
L179.2437 193.5076
" />
<path d="M179.2437 193.5076
L179.2437 193.3648
" />
<path d="M179.2437 193.3648
L179.1723 193.2219
" />
<path d="M179.1723 193.2219
L179.1009 193.1505
" />
<path d="M179.1009 193.1505
L178.9580 193.0790
" />
<path d="M178.9580 193.0790
L178.6723 193.0076
" />
<path d="M178.6723 193.0076
L178.5295 192.9362
" />
<path d="M178.5295 192.9362
L178.4580 192.8648
" />
<path d="M178.4580 192.8648
L178.3866 192.7219
" />
<path d="M178.3866 192.7219
L178.3866 192.5790
" />
<path d="M178.3866 192.5790
L178.4580 192.4362
" />
<path d="M178.4580 192.4362
L178.5295 192.3648
" />
<path d="M178.5295 192.3648
L178.6723 192.2933
" />
<path d="M178.6723 192.2933
L179.0295 192.2933
" />
<path d="M179.0295 192.2933
L179.2437 192.3648
" />
<path d="M179.8866 193.7933
L179.8866 192.7933
" />
<path d="M179.8866 192.2933
L179.8152 192.3648
" />
<path d="M179.8152 192.3648
L179.8866 192.4362
" />
<path d="M179.8866 192.4362
L179.9580 192.3648
" />
<path d="M179.9580 192.3648
L179.8866 192.2933
" />
<path d="M179.8866 192.2933
L179.8866 192.4362
" />
<path d="M180.4580 192.7933
L181.2437 192.7933
" />
<path d="M181.2437 192.7933
L180.4580 193.7933
" />
<path d="M180.4580 193.7933
L181.2437 193.7933
" />
<path d="M182.3866 193.7219
L182.2437 193.7933
" />
<path d="M182.2437 193.7933
L181.9580 193.7933
" />
<path d="M181.9580 193.7933
L181.8152 193.7219
" />
<path d="M181.8152 193.7219
L181.7437 193.5790
" />
<path d="M181.7437 193.5790
L181.7437 193.0076
" />
<path d="M181.7437 193.0076
L181.8152 192.8648
" />
<path d="M181.8152 192.8648
L181.9580 192.7933
" />
<path d="M181.9580 192.7933
L182.2437 192.7933
" />
<path d="M182.2437 192.7933
L182.3866 192.8648
" />
<path d="M182.3866 192.8648
L182.4580 193.0076
" />
<path d="M182.4580 193.0076
L182.4580 193.1505
" />
<path d="M182.4580 193.1505
L181.7437 193.2933
" />
<path d="M183.1009 193.6505
L183.1723 193.7219
" />
<path d="M183.1723 193.7219
L183.1009 193.7933
" />
<path d="M183.1009 193.7933
L183.0295 193.7219
" />
<path d="M183.0295 193.7219
L183.1009 193.6505
" />
<path d="M183.1009 193.6505
L183.1009 193.7933
" />
<path d="M183.1009 192.8648
L183.1723 192.9362
" />
<path d="M183.1723 192.9362
L183.1009 193.0076
" />
<path d="M183.1009 193.0076
L183.0295 192.9362
" />
<path d="M183.0295 192.9362
L183.1009 192.8648
" />
<path d="M183.1009 192.8648
L183.1009 193.0076
" />
<path d="M184.8866 193.3648
L185.6009 193.3648
" />
<path d="M184.7437 193.7933
L185.2437 192.2933
" />
<path d="M185.2437 192.2933
L185.7437 193.7933
" />
<path d="M186.8866 192.7933
L186.8866 193.7933
" />
<path d="M186.5295 192.2219
L186.1723 193.2933
" />
<path d="M186.1723 193.2933
L187.1009 193.2933
" />
</g></g>
<g style="fill:none; 
stroke:#000000; stroke-width:0.1500; stroke-opacity:1; 
stroke-linecap:round; stroke-linejoin:round;">
<text x="263.0022" y="196.6572"
textLength="7.0786" font-size="2.0000" lengthAdjust="spacingAndGlyphs"
text-anchor="start" opacity="0" stroke-opacity="0">Id: /1</text>
<g class="stroked-text"><desc>Id: /1</desc>
<path d="M263.4580 196.5933
L263.4580 195.0933
" />
<path d="M264.8152 196.5933
L264.8152 195.0933
" />
<path d="M264.8152 196.5219
L264.6723 196.5933
" />
<path d="M264.6723 196.5933
L264.3866 196.5933
" />
<path d="M264.3866 196.5933
L264.2437 196.5219
" />
<path d="M264.2437 196.5219
L264.1723 196.4505
" />
<path d="M264.1723 196.4505
L264.1009 196.3076
" />
<path d="M264.1009 196.3076
L264.1009 195.8790
" />
<path d="M264.1009 195.8790
L264.1723 195.7362
" />
<path d="M264.1723 195.7362
L264.2437 195.6648
" />
<path d="M264.2437 195.6648
L264.3866 195.5933
" />
<path d="M264.3866 195.5933
L264.6723 195.5933
" />
<path d="M264.6723 195.5933
L264.8152 195.6648
" />
<path d="M265.5295 196.4505
L265.6009 196.5219
" />
<path d="M265.6009 196.5219
L265.5295 196.5933
" />
<path d="M265.5295 196.5933
L265.4580 196.5219
" />
<path d="M265.4580 196.5219
L265.5295 196.4505
" />
<path d="M265.5295 196.4505
L265.5295 196.5933
" />
<path d="M265.5295 195.6648
L265.6009 195.7362
" />
<path d="M265.6009 195.7362
L265.5295 195.8076
" />
<path d="M265.5295 195.8076
L265.4580 195.7362
" />
<path d="M265.4580 195.7362
L265.5295 195.6648
" />
<path d="M265.5295 195.6648
L265.5295 195.8076
" />
<path d="M268.4580 195.0219
L267.1723 196.9505
" />
<path d="M269.7437 196.5933
L268.8866 196.5933
" />
<path d="M269.3152 196.5933
L269.3152 195.0933
" />
<path d="M269.3152 195.0933
L269.1723 195.3076
" />
<path d="M269.1723 195.3076
L269.0295 195.4505
" />
<path d="M269.0295 195.4505
L268.8866 195.5219
" />
</g></g>
<g style="fill:none; 
stroke:#000000; stroke-width:0.1500; stroke-opacity:1; 
stroke-linecap:round; stroke-linejoin:round;">
<path d="M177.0022 187.5072
L285.0022 187.5072
" />
</g>
<g style="fill:none; 
stroke:#000000; stroke-width:0.4000; stroke-opacity:1; 
stroke-linecap:round; stroke-linejoin:round;">
<text x="178.0022" y="190.3072"
textLength="9.6571" font-size="2.6667" lengthAdjust="spacingAndGlyphs"
text-anchor="start" opacity="0" stroke-opacity="0">Title: </text>
<g class="stroked-text"><desc>Title: </desc>
<path d="M178.6939 188.2116
L179.8368 188.2116
" />
<path d="M179.0154 190.2116
L179.2654 188.2116
" />
<path d="M180.2535 190.2116
L180.4201 188.8783
" />
<path d="M180.5035 188.2116
L180.3963 188.3069
" />
<path d="M180.3963 188.3069
L180.4796 188.4021
" />
<path d="M180.4796 188.4021
L180.5868 188.3069
" />
<path d="M180.5868 188.3069
L180.5035 188.2116
" />
<path d="M180.5035 188.2116
L180.4796 188.4021
" />
<path d="M181.0868 188.8783
L181.8487 188.8783
" />
<path d="M181.4558 188.2116
L181.2415 189.9259
" />
<path d="M181.2415 189.9259
L181.3130 190.1164
" />
<path d="M181.3130 190.1164
L181.4915 190.2116
" />
<path d="M181.4915 190.2116
L181.6820 190.2116
" />
<path d="M182.6344 190.2116
L182.4558 190.1164
" />
<path d="M182.4558 190.1164
L182.3844 189.9259
" />
<path d="M182.3844 189.9259
L182.5987 188.2116
" />
<path d="M184.1701 190.1164
L183.9677 190.2116
" />
<path d="M183.9677 190.2116
L183.5868 190.2116
" />
<path d="M183.5868 190.2116
L183.4082 190.1164
" />
<path d="M183.4082 190.1164
L183.3368 189.9259
" />
<path d="M183.3368 189.9259
L183.4320 189.1640
" />
<path d="M183.4320 189.1640
L183.5511 188.9735
" />
<path d="M183.5511 188.9735
L183.7535 188.8783
" />
<path d="M183.7535 188.8783
L184.1344 188.8783
" />
<path d="M184.1344 188.8783
L184.3130 188.9735
" />
<path d="M184.3130 188.9735
L184.3844 189.1640
" />
<path d="M184.3844 189.1640
L184.3606 189.3545
" />
<path d="M184.3606 189.3545
L183.3844 189.5450
" />
<path d="M185.1344 190.0212
L185.2177 190.1164
" />
<path d="M185.2177 190.1164
L185.1106 190.2116
" />
<path d="M185.1106 190.2116
L185.0273 190.1164
" />
<path d="M185.0273 190.1164
L185.1344 190.0212
" />
<path d="M185.1344 190.0212
L185.1106 190.2116
" />
<path d="M185.2654 188.9735
L185.3487 189.0688
" />
<path d="M185.3487 189.0688
L185.2415 189.1640
" />
<path d="M185.2415 189.1640
L185.1582 189.0688
" />
<path d="M185.1582 189.0688
L185.2654 188.9735
" />
<path d="M185.2654 188.9735
L185.2415 189.1640
" />
</g></g>
<g style="fill:none; 
stroke:#000000; stroke-width:0.1500; stroke-opacity:1; 
stroke-linecap:round; stroke-linejoin:round;">
<text x="178.0022" y="186.4572"
textLength="36.7929" font-size="2.0000" lengthAdjust="spacingAndGlyphs"
text-anchor="start" opacity="0" stroke-opacity="0">File: modulo_seguidor.kicad_pcb</text>
<g class="stroked-text"><desc>File: modulo_seguidor.kicad_pcb</desc>
<path d="M178.9580 185.6076
L178.4580 185.6076
" />
<path d="M178.4580 186.3933
L178.4580 184.8933
" />
<path d="M178.4580 184.8933
L179.1723 184.8933
" />
<path d="M179.7437 186.3933
L179.7437 185.3933
" />
<path d="M179.7437 184.8933
L179.6723 184.9648
" />
<path d="M179.6723 184.9648
L179.7437 185.0362
" />
<path d="M179.7437 185.0362
L179.8152 184.9648
" />
<path d="M179.8152 184.9648
L179.7437 184.8933
" />
<path d="M179.7437 184.8933
L179.7437 185.0362
" />
<path d="M180.6723 186.3933
L180.5295 186.3219
" />
<path d="M180.5295 186.3219
L180.4580 186.1790
" />
<path d="M180.4580 186.1790
L180.4580 184.8933
" />
<path d="M181.8152 186.3219
L181.6723 186.3933
" />
<path d="M181.6723 186.3933
L181.3866 186.3933
" />
<path d="M181.3866 186.3933
L181.2437 186.3219
" />
<path d="M181.2437 186.3219
L181.1723 186.1790
" />
<path d="M181.1723 186.1790
L181.1723 185.6076
" />
<path d="M181.1723 185.6076
L181.2437 185.4648
" />
<path d="M181.2437 185.4648
L181.3866 185.3933
" />
<path d="M181.3866 185.3933
L181.6723 185.3933
" />
<path d="M181.6723 185.3933
L181.8152 185.4648
" />
<path d="M181.8152 185.4648
L181.8866 185.6076
" />
<path d="M181.8866 185.6076
L181.8866 185.7505
" />
<path d="M181.8866 185.7505
L181.1723 185.8933
" />
<path d="M182.5295 186.2505
L182.6009 186.3219
" />
<path d="M182.6009 186.3219
L182.5295 186.3933
" />
<path d="M182.5295 186.3933
L182.4580 186.3219
" />
<path d="M182.4580 186.3219
L182.5295 186.2505
" />
<path d="M182.5295 186.2505
L182.5295 186.3933
" />
<path d="M182.5295 185.4648
L182.6009 185.5362
" />
<path d="M182.6009 185.5362
L182.5295 185.6076
" />
<path d="M182.5295 185.6076
L182.4580 185.5362
" />
<path d="M182.4580 185.5362
L182.5295 185.4648
" />
<path d="M182.5295 185.4648
L182.5295 185.6076
" />
<path d="M184.3866 186.3933
L184.3866 185.3933
" />
<path d="M184.3866 185.5362
L184.4580 185.4648
" />
<path d="M184.4580 185.4648
L184.6009 185.3933
" />
<path d="M184.6009 185.3933
L184.8152 185.3933
" />
<path d="M184.8152 185.3933
L184.9580 185.4648
" />
<path d="M184.9580 185.4648
L185.0295 185.6076
" />
<path d="M185.0295 185.6076
L185.0295 186.3933
" />
<path d="M185.0295 185.6076
L185.1009 185.4648
" />
<path d="M185.1009 185.4648
L185.2437 185.3933
" />
<path d="M185.2437 185.3933
L185.4580 185.3933
" />
<path d="M185.4580 185.3933
L185.6009 185.4648
" />
<path d="M185.6009 185.4648
L185.6723 185.6076
" />
<path d="M185.6723 185.6076
L185.6723 186.3933
" />
<path d="M186.6009 186.3933
L186.4580 186.3219
" />
<path d="M186.4580 186.3219
L186.3866 186.2505
" />
<path d="M186.3866 186.2505
L186.3152 186.1076
" />
<path d="M186.3152 186.1076
L186.3152 185.6790
" />
<path d="M186.3152 185.6790
L186.3866 185.5362
" />
<path d="M186.3866 185.5362
L186.4580 185.4648
" />
<path d="M186.4580 185.4648
L186.6009 185.3933
" />
<path d="M186.6009 185.3933
L186.8152 185.3933
" />
<path d="M186.8152 185.3933
L186.9580 185.4648
" />
<path d="M186.9580 185.4648
L187.0295 185.5362
" />
<path d="M187.0295 185.5362
L187.1009 185.6790
" />
<path d="M187.1009 185.6790
L187.1009 186.1076
" />
<path d="M187.1009 186.1076
L187.0295 186.2505
" />
<path d="M187.0295 186.2505
L186.9580 186.3219
" />
<path d="M186.9580 186.3219
L186.8152 186.3933
" />
<path d="M186.8152 186.3933
L186.6009 186.3933
" />
<path d="M188.3866 186.3933
L188.3866 184.8933
" />
<path d="M188.3866 186.3219
L188.2437 186.3933
" />
<path d="M188.2437 186.3933
L187.9580 186.3933
" />
<path d="M187.9580 186.3933
L187.8152 186.3219
" />
<path d="M187.8152 186.3219
L187.7437 186.2505
" />
<path d="M187.7437 186.2505
L187.6723 186.1076
" />
<path d="M187.6723 186.1076
L187.6723 185.6790
" />
<path d="M187.6723 185.6790
L187.7437 185.5362
" />
<path d="M187.7437 185.5362
L187.8152 185.4648
" />
<path d="M187.8152 185.4648
L187.9580 185.3933
" />
<path d="M187.9580 185.3933
L188.2437 185.3933
" />
<path d="M188.2437 185.3933
L188.3866 185.4648
" />
<path d="M189.7437 185.3933
L189.7437 186.3933
" />
<path d="M189.1009 185.3933
L189.1009 186.1790
" />
<path d="M189.1009 186.1790
L189.1723 186.3219
" />
<path d="M189.1723 186.3219
L189.3152 186.3933
" />
<path d="M189.3152 186.3933
L189.5295 186.3933
" />
<path d="M189.5295 186.3933
L189.6723 186.3219
" />
<path d="M189.6723 186.3219
L189.7437 186.2505
" />
<path d="M190.6723 186.3933
L190.5295 186.3219
" />
<path d="M190.5295 186.3219
L190.4580 186.1790
" />
<path d="M190.4580 186.1790
L190.4580 184.8933
" />
<path d="M191.4580 186.3933
L191.3152 186.3219
" />
<path d="M191.3152 186.3219
L191.2437 186.2505
" />
<path d="M191.2437 186.2505
L191.1723 186.1076
" />
<path d="M191.1723 186.1076
L191.1723 185.6790
" />
<path d="M191.1723 185.6790
L191.2437 185.5362
" />
<path d="M191.2437 185.5362
L191.3152 185.4648
" />
<path d="M191.3152 185.4648
L191.4580 185.3933
" />
<path d="M191.4580 185.3933
L191.6723 185.3933
" />
<path d="M191.6723 185.3933
L191.8152 185.4648
" />
<path d="M191.8152 185.4648
L191.8866 185.5362
" />
<path d="M191.8866 185.5362
L191.9580 185.6790
" />
<path d="M191.9580 185.6790
L191.9580 186.1076
" />
<path d="M191.9580 186.1076
L191.8866 186.2505
" />
<path d="M191.8866 186.2505
L191.8152 186.3219
" />
<path d="M191.8152 186.3219
L191.6723 186.3933
" />
<path d="M191.6723 186.3933
L191.4580 186.3933
" />
<path d="M192.2437 186.5362
L193.3866 186.5362
" />
<path d="M193.6723 186.3219
L193.8152 186.3933
" />
<path d="M193.8152 186.3933
L194.1009 186.3933
" />
<path d="M194.1009 186.3933
L194.2437 186.3219
" />
<path d="M194.2437 186.3219
L194.3152 186.1790
" />
<path d="M194.3152 186.1790
L194.3152 186.1076
" />
<path d="M194.3152 186.1076
L194.2437 185.9648
" />
<path d="M194.2437 185.9648
L194.1009 185.8933
" />
<path d="M194.1009 185.8933
L193.8866 185.8933
" />
<path d="M193.8866 185.8933
L193.7437 185.8219
" />
<path d="M193.7437 185.8219
L193.6723 185.6790
" />
<path d="M193.6723 185.6790
L193.6723 185.6076
" />
<path d="M193.6723 185.6076
L193.7437 185.4648
" />
<path d="M193.7437 185.4648
L193.8866 185.3933
" />
<path d="M193.8866 185.3933
L194.1009 185.3933
" />
<path d="M194.1009 185.3933
L194.2437 185.4648
" />
<path d="M195.5295 186.3219
L195.3866 186.3933
" />
<path d="M195.3866 186.3933
L195.1009 186.3933
" />
<path d="M195.1009 186.3933
L194.9580 186.3219
" />
<path d="M194.9580 186.3219
L194.8866 186.1790
" />
<path d="M194.8866 186.1790
L194.8866 185.6076
" />
<path d="M194.8866 185.6076
L194.9580 185.4648
" />
<path d="M194.9580 185.4648
L195.1009 185.3933
" />
<path d="M195.1009 185.3933
L195.3866 185.3933
" />
<path d="M195.3866 185.3933
L195.5295 185.4648
" />
<path d="M195.5295 185.4648
L195.6009 185.6076
" />
<path d="M195.6009 185.6076
L195.6009 185.7505
" />
<path d="M195.6009 185.7505
L194.8866 185.8933
" />
<path d="M196.8866 185.3933
L196.8866 186.6076
" />
<path d="M196.8866 186.6076
L196.8152 186.7505
" />
<path d="M196.8152 186.7505
L196.7437 186.8219
" />
<path d="M196.7437 186.8219
L196.6009 186.8933
" />
<path d="M196.6009 186.8933
L196.3866 186.8933
" />
<path d="M196.3866 186.8933
L196.2437 186.8219
" />
<path d="M196.8866 186.3219
L196.7437 186.3933
" />
<path d="M196.7437 186.3933
L196.4580 186.3933
" />
<path d="M196.4580 186.3933
L196.3152 186.3219
" />
<path d="M196.3152 186.3219
L196.2437 186.2505
" />
<path d="M196.2437 186.2505
L196.1723 186.1076
" />
<path d="M196.1723 186.1076
L196.1723 185.6790
" />
<path d="M196.1723 185.6790
L196.2437 185.5362
" />
<path d="M196.2437 185.5362
L196.3152 185.4648
" />
<path d="M196.3152 185.4648
L196.4580 185.3933
" />
<path d="M196.4580 185.3933
L196.7437 185.3933
" />
<path d="M196.7437 185.3933
L196.8866 185.4648
" />
<path d="M198.2437 185.3933
L198.2437 186.3933
" />
<path d="M197.6009 185.3933
L197.6009 186.1790
" />
<path d="M197.6009 186.1790
L197.6723 186.3219
" />
<path d="M197.6723 186.3219
L197.8152 186.3933
" />
<path d="M197.8152 186.3933
L198.0295 186.3933
" />
<path d="M198.0295 186.3933
L198.1723 186.3219
" />
<path d="M198.1723 186.3219
L198.2437 186.2505
" />
<path d="M198.9580 186.3933
L198.9580 185.3933
" />
<path d="M198.9580 184.8933
L198.8866 184.9648
" />
<path d="M198.8866 184.9648
L198.9580 185.0362
" />
<path d="M198.9580 185.0362
L199.0295 184.9648
" />
<path d="M199.0295 184.9648
L198.9580 184.8933
" />
<path d="M198.9580 184.8933
L198.9580 185.0362
" />
<path d="M200.3152 186.3933
L200.3152 184.8933
" />
<path d="M200.3152 186.3219
L200.1723 186.3933
" />
<path d="M200.1723 186.3933
L199.8866 186.3933
" />
<path d="M199.8866 186.3933
L199.7437 186.3219
" />
<path d="M199.7437 186.3219
L199.6723 186.2505
" />
<path d="M199.6723 186.2505
L199.6009 186.1076
" />
<path d="M199.6009 186.1076
L199.6009 185.6790
" />
<path d="M199.6009 185.6790
L199.6723 185.5362
" />
<path d="M199.6723 185.5362
L199.7437 185.4648
" />
<path d="M199.7437 185.4648
L199.8866 185.3933
" />
<path d="M199.8866 185.3933
L200.1723 185.3933
" />
<path d="M200.1723 185.3933
L200.3152 185.4648
" />
<path d="M201.2437 186.3933
L201.1009 186.3219
" />
<path d="M201.1009 186.3219
L201.0295 186.2505
" />
<path d="M201.0295 186.2505
L200.9580 186.1076
" />
<path d="M200.9580 186.1076
L200.9580 185.6790
" />
<path d="M200.9580 185.6790
L201.0295 185.5362
" />
<path d="M201.0295 185.5362
L201.1009 185.4648
" />
<path d="M201.1009 185.4648
L201.2437 185.3933
" />
<path d="M201.2437 185.3933
L201.4580 185.3933
" />
<path d="M201.4580 185.3933
L201.6009 185.4648
" />
<path d="M201.6009 185.4648
L201.6723 185.5362
" />
<path d="M201.6723 185.5362
L201.7437 185.6790
" />
<path d="M201.7437 185.6790
L201.7437 186.1076
" />
<path d="M201.7437 186.1076
L201.6723 186.2505
" />
<path d="M201.6723 186.2505
L201.6009 186.3219
" />
<path d="M201.6009 186.3219
L201.4580 186.3933
" />
<path d="M201.4580 186.3933
L201.2437 186.3933
" />
<path d="M202.3866 186.3933
L202.3866 185.3933
" />
<path d="M202.3866 185.6790
L202.4580 185.5362
" />
<path d="M202.4580 185.5362
L202.5295 185.4648
" />
<path d="M202.5295 185.4648
L202.6723 185.3933
" />
<path d="M202.6723 185.3933
L202.8152 185.3933
" />
<path d="M203.3152 186.2505
L203.3866 186.3219
" />
<path d="M203.3866 186.3219
L203.3152 186.3933
" />
<path d="M203.3152 186.3933
L203.2437 186.3219
" />
<path d="M203.2437 186.3219
L203.3152 186.2505
" />
<path d="M203.3152 186.2505
L203.3152 186.3933
" />
<path d="M204.0295 186.3933
L204.0295 184.8933
" />
<path d="M204.1723 185.8219
L204.6009 186.3933
" />
<path d="M204.6009 185.3933
L204.0295 185.9648
" />
<path d="M205.2437 186.3933
L205.2437 185.3933
" />
<path d="M205.2437 184.8933
L205.1723 184.9648
" />
<path d="M205.1723 184.9648
L205.2437 185.0362
" />
<path d="M205.2437 185.0362
L205.3152 184.9648
" />
<path d="M205.3152 184.9648
L205.2437 184.8933
" />
<path d="M205.2437 184.8933
L205.2437 185.0362
" />
<path d="M206.6009 186.3219
L206.4580 186.3933
" />
<path d="M206.4580 186.3933
L206.1723 186.3933
" />
<path d="M206.1723 186.3933
L206.0295 186.3219
" />
<path d="M206.0295 186.3219
L205.9580 186.2505
" />
<path d="M205.9580 186.2505
L205.8866 186.1076
" />
<path d="M205.8866 186.1076
L205.8866 185.6790
" />
<path d="M205.8866 185.6790
L205.9580 185.5362
" />
<path d="M205.9580 185.5362
L206.0295 185.4648
" />
<path d="M206.0295 185.4648
L206.1723 185.3933
" />
<path d="M206.1723 185.3933
L206.4580 185.3933
" />
<path d="M206.4580 185.3933
L206.6009 185.4648
" />
<path d="M207.8866 186.3933
L207.8866 185.6076
" />
<path d="M207.8866 185.6076
L207.8152 185.4648
" />
<path d="M207.8152 185.4648
L207.6723 185.3933
" />
<path d="M207.6723 185.3933
L207.3866 185.3933
" />
<path d="M207.3866 185.3933
L207.2437 185.4648
" />
<path d="M207.8866 186.3219
L207.7437 186.3933
" />
<path d="M207.7437 186.3933
L207.3866 186.3933
" />
<path d="M207.3866 186.3933
L207.2437 186.3219
" />
<path d="M207.2437 186.3219
L207.1723 186.1790
" />
<path d="M207.1723 186.1790
L207.1723 186.0362
" />
<path d="M207.1723 186.0362
L207.2437 185.8933
" />
<path d="M207.2437 185.8933
L207.3866 185.8219
" />
<path d="M207.3866 185.8219
L207.7437 185.8219
" />
<path d="M207.7437 185.8219
L207.8866 185.7505
" />
<path d="M209.2437 186.3933
L209.2437 184.8933
" />
<path d="M209.2437 186.3219
L209.1009 186.3933
" />
<path d="M209.1009 186.3933
L208.8152 186.3933
" />
<path d="M208.8152 186.3933
L208.6723 186.3219
" />
<path d="M208.6723 186.3219
L208.6009 186.2505
" />
<path d="M208.6009 186.2505
L208.5295 186.1076
" />
<path d="M208.5295 186.1076
L208.5295 185.6790
" />
<path d="M208.5295 185.6790
L208.6009 185.5362
" />
<path d="M208.6009 185.5362
L208.6723 185.4648
" />
<path d="M208.6723 185.4648
L208.8152 185.3933
" />
<path d="M208.8152 185.3933
L209.1009 185.3933
" />
<path d="M209.1009 185.3933
L209.2437 185.4648
" />
<path d="M209.6009 186.5362
L210.7437 186.5362
" />
<path d="M211.1009 185.3933
L211.1009 186.8933
" />
<path d="M211.1009 185.4648
L211.2437 185.3933
" />
<path d="M211.2437 185.3933
L211.5295 185.3933
" />
<path d="M211.5295 185.3933
L211.6723 185.4648
" />
<path d="M211.6723 185.4648
L211.7437 185.5362
" />
<path d="M211.7437 185.5362
L211.8152 185.6790
" />
<path d="M211.8152 185.6790
L211.8152 186.1076
" />
<path d="M211.8152 186.1076
L211.7437 186.2505
" />
<path d="M211.7437 186.2505
L211.6723 186.3219
" />
<path d="M211.6723 186.3219
L211.5295 186.3933
" />
<path d="M211.5295 186.3933
L211.2437 186.3933
" />
<path d="M211.2437 186.3933
L211.1009 186.3219
" />
<path d="M213.1009 186.3219
L212.9580 186.3933
" />
<path d="M212.9580 186.3933
L212.6723 186.3933
" />
<path d="M212.6723 186.3933
L212.5295 186.3219
" />
<path d="M212.5295 186.3219
L212.4580 186.2505
" />
<path d="M212.4580 186.2505
L212.3866 186.1076
" />
<path d="M212.3866 186.1076
L212.3866 185.6790
" />
<path d="M212.3866 185.6790
L212.4580 185.5362
" />
<path d="M212.4580 185.5362
L212.5295 185.4648
" />
<path d="M212.5295 185.4648
L212.6723 185.3933
" />
<path d="M212.6723 185.3933
L212.9580 185.3933
" />
<path d="M212.9580 185.3933
L213.1009 185.4648
" />
<path d="M213.7437 186.3933
L213.7437 184.8933
" />
<path d="M213.7437 185.4648
L213.8866 185.3933
" />
<path d="M213.8866 185.3933
L214.1723 185.3933
" />
<path d="M214.1723 185.3933
L214.3152 185.4648
" />
<path d="M214.3152 185.4648
L214.3866 185.5362
" />
<path d="M214.3866 185.5362
L214.4580 185.6790
" />
<path d="M214.4580 185.6790
L214.4580 186.1076
" />
<path d="M214.4580 186.1076
L214.3866 186.2505
" />
<path d="M214.3866 186.2505
L214.3152 186.3219
" />
<path d="M214.3152 186.3219
L214.1723 186.3933
" />
<path d="M214.1723 186.3933
L213.8866 186.3933
" />
<path d="M213.8866 186.3933
L213.7437 186.3219
" />
</g></g>
<g style="fill:none; 
stroke:#000000; stroke-width:0.1500; stroke-opacity:1; 
stroke-linecap:round; stroke-linejoin:round;">
<path d="M177.0022 181.5072
L285.0022 181.5072
" />
</g>
<g style="fill:none; 
stroke:#000000; stroke-width:0.1500; stroke-opacity:1; 
stroke-linecap:round; stroke-linejoin:round;">
<text x="178.0022" y="183.7572"
textLength="8.2214" font-size="2.0000" lengthAdjust="spacingAndGlyphs"
text-anchor="start" opacity="0" stroke-opacity="0">Sheet: </text>
<g class="stroked-text"><desc>Sheet: </desc>
<path d="M178.3866 183.6219
L178.6009 183.6933
" />
<path d="M178.6009 183.6933
L178.9580 183.6933
" />
<path d="M178.9580 183.6933
L179.1009 183.6219
" />
<path d="M179.1009 183.6219
L179.1723 183.5505
" />
<path d="M179.1723 183.5505
L179.2437 183.4076
" />
<path d="M179.2437 183.4076
L179.2437 183.2648
" />
<path d="M179.2437 183.2648
L179.1723 183.1219
" />
<path d="M179.1723 183.1219
L179.1009 183.0505
" />
<path d="M179.1009 183.0505
L178.9580 182.9790
" />
<path d="M178.9580 182.9790
L178.6723 182.9076
" />
<path d="M178.6723 182.9076
L178.5295 182.8362
" />
<path d="M178.5295 182.8362
L178.4580 182.7648
" />
<path d="M178.4580 182.7648
L178.3866 182.6219
" />
<path d="M178.3866 182.6219
L178.3866 182.4790
" />
<path d="M178.3866 182.4790
L178.4580 182.3362
" />
<path d="M178.4580 182.3362
L178.5295 182.2648
" />
<path d="M178.5295 182.2648
L178.6723 182.1933
" />
<path d="M178.6723 182.1933
L179.0295 182.1933
" />
<path d="M179.0295 182.1933
L179.2437 182.2648
" />
<path d="M179.8866 183.6933
L179.8866 182.1933
" />
<path d="M180.5295 183.6933
L180.5295 182.9076
" />
<path d="M180.5295 182.9076
L180.4580 182.7648
" />
<path d="M180.4580 182.7648
L180.3152 182.6933
" />
<path d="M180.3152 182.6933
L180.1009 182.6933
" />
<path d="M180.1009 182.6933
L179.9580 182.7648
" />
<path d="M179.9580 182.7648
L179.8866 182.8362
" />
<path d="M181.8152 183.6219
L181.6723 183.6933
" />
<path d="M181.6723 183.6933
L181.3866 183.6933
" />
<path d="M181.3866 183.6933
L181.2437 183.6219
" />
<path d="M181.2437 183.6219
L181.1723 183.4790
" />
<path d="M181.1723 183.4790
L181.1723 182.9076
" />
<path d="M181.1723 182.9076
L181.2437 182.7648
" />
<path d="M181.2437 182.7648
L181.3866 182.6933
" />
<path d="M181.3866 182.6933
L181.6723 182.6933
" />
<path d="M181.6723 182.6933
L181.8152 182.7648
" />
<path d="M181.8152 182.7648
L181.8866 182.9076
" />
<path d="M181.8866 182.9076
L181.8866 183.0505
" />
<path d="M181.8866 183.0505
L181.1723 183.1933
" />
<path d="M183.1009 183.6219
L182.9580 183.6933
" />
<path d="M182.9580 183.6933
L182.6723 183.6933
" />
<path d="M182.6723 183.6933
L182.5295 183.6219
" />
<path d="M182.5295 183.6219
L182.4580 183.4790
" />
<path d="M182.4580 183.4790
L182.4580 182.9076
" />
<path d="M182.4580 182.9076
L182.5295 182.7648
" />
<path d="M182.5295 182.7648
L182.6723 182.6933
" />
<path d="M182.6723 182.6933
L182.9580 182.6933
" />
<path d="M182.9580 182.6933
L183.1009 182.7648
" />
<path d="M183.1009 182.7648
L183.1723 182.9076
" />
<path d="M183.1723 182.9076
L183.1723 183.0505
" />
<path d="M183.1723 183.0505
L182.4580 183.1933
" />
<path d="M183.6009 182.6933
L184.1723 182.6933
" />
<path d="M183.8152 182.1933
L183.8152 183.4790
" />
<path d="M183.8152 183.4790
L183.8866 183.6219
" />
<path d="M183.8866 183.6219
L184.0295 183.6933
" />
<path d="M184.0295 183.6933
L184.1723 183.6933
" />
<path d="M184.6723 183.5505
L184.7437 183.6219
" />
<path d="M184.7437 183.6219
L184.6723 183.6933
" />
<path d="M184.6723 183.6933
L184.6009 183.6219
" />
<path d="M184.6009 183.6219
L184.6723 183.5505
" />
<path d="M184.6723 183.5505
L184.6723 183.6933
" />
<path d="M184.6723 182.7648
L184.7437 182.8362
" />
<path d="M184.7437 182.8362
L184.6723 182.9076
" />
<path d="M184.6723 182.9076
L184.6009 182.8362
" />
<path d="M184.6009 182.8362
L184.6723 182.7648
" />
<path d="M184.6723 182.7648
L184.6723 182.9076
" />
</g></g>
<g style="fill:none; 
stroke:#000000; stroke-width:0.3000; stroke-opacity:1; 
stroke-linecap:round; stroke-linejoin:round;">
<text x="178.0022" y="180.7572"
textLength="0.9000" font-size="2.0000" lengthAdjust="spacingAndGlyphs"
text-anchor="start" opacity="0" stroke-opacity="0"></text>
<g class="stroked-text"><desc></desc>
</g></g>
<g style="fill:none; 
stroke:#000000; stroke-width:0.1500; stroke-opacity:1; 
stroke-linecap:round; stroke-linejoin:round;">
<text x="178.0022" y="177.7572"
textLength="0.4500" font-size="2.0000" lengthAdjust="spacingAndGlyphs"
text-anchor="start" opacity="0" stroke-opacity="0"></text>
<g class="stroked-text"><desc></desc>
</g></g>
<g style="fill:none; 
stroke:#000000; stroke-width:0.1500; stroke-opacity:1; 
stroke-linecap:round; stroke-linejoin:round;">
<text x="178.0022" y="174.7572"
textLength="0.4500" font-size="2.0000" lengthAdjust="spacingAndGlyphs"
text-anchor="start" opacity="0" stroke-opacity="0"></text>
<g class="stroked-text"><desc></desc>
</g></g>
<g style="fill:none; 
stroke:#000000; stroke-width:0.1500; stroke-opacity:1; 
stroke-linecap:round; stroke-linejoin:round;">
<text x="178.0022" y="171.7572"
textLength="0.4500" font-size="2.0000" lengthAdjust="spacingAndGlyphs"
text-anchor="start" opacity="0" stroke-opacity="0"></text>
<g class="stroked-text"><desc></desc>
</g></g>
<g style="fill:none; 
stroke:#000000; stroke-width:0.1500; stroke-opacity:1; 
stroke-linecap:round; stroke-linejoin:round;">
<text x="178.0022" y="168.7572"
textLength="0.4500" font-size="2.0000" lengthAdjust="spacingAndGlyphs"
text-anchor="start" opacity="0" stroke-opacity="0"></text>
<g class="stroked-text"><desc></desc>
</g></g>
<g style="fill:none; 
stroke:#000000; stroke-width:0.1500; stroke-opacity:1; 
stroke-linecap:round; stroke-linejoin:round;">
<path d="M197.0022 191.5072
L197.0022 194.5072
" />
</g>
<g style="fill:none; 
stroke:#000000; stroke-width:0.1500; stroke-opacity:1; 
stroke-linecap:round; stroke-linejoin:round;">
<path d="M261.0022 191.5072
L261.0022 198.0072
" />
<path style="fill:none; 
stroke:#000000; stroke-width:0.2000; stroke-opacity:1; 
stroke-linecap:round; stroke-linejoin:round;fill:none"
d="M 138.0000,61.0000
157.0000,86.3600
218.6075,86.3600
218.6075,113.1159
157.0000,113.1159
139.7000,140.7288
74.6045,140.7288
74.6045,60.9696
Z" /> 
</g>
<g style="fill:none; 
stroke:#000000; stroke-width:0.1500; stroke-opacity:1; 
stroke-linecap:round; stroke-linejoin:round;">
<g transform="rotate(-90.000000 62.4008 100.8492)">
<text x="62.4008" y="101.3492"
textLength="9.8690" font-size="1.3333" lengthAdjust="spacingAndGlyphs"
text-anchor="middle" opacity="0" stroke-opacity="0">79.7592 mm</text>
</g>
<g class="stroked-text"><desc>79.7592 mm</desc>
<path d="M61.8556 105.5159
L61.8556 104.8492
" />
<path d="M61.8556 104.8492
L62.8556 105.2778
" />
<path d="M62.8556 104.4206
L62.8556 104.2302
" />
<path d="M62.8556 104.2302
L62.8080 104.1349
" />
<path d="M62.8080 104.1349
L62.7604 104.0873
" />
<path d="M62.7604 104.0873
L62.6175 103.9921
" />
<path d="M62.6175 103.9921
L62.4270 103.9444
" />
<path d="M62.4270 103.9444
L62.0461 103.9444
" />
<path d="M62.0461 103.9444
L61.9509 103.9921
" />
<path d="M61.9509 103.9921
L61.9032 104.0397
" />
<path d="M61.9032 104.0397
L61.8556 104.1349
" />
<path d="M61.8556 104.1349
L61.8556 104.3254
" />
<path d="M61.8556 104.3254
L61.9032 104.4206
" />
<path d="M61.9032 104.4206
L61.9509 104.4682
" />
<path d="M61.9509 104.4682
L62.0461 104.5159
" />
<path d="M62.0461 104.5159
L62.2842 104.5159
" />
<path d="M62.2842 104.5159
L62.3794 104.4682
" />
<path d="M62.3794 104.4682
L62.4270 104.4206
" />
<path d="M62.4270 104.4206
L62.4747 104.3254
" />
<path d="M62.4747 104.3254
L62.4747 104.1349
" />
<path d="M62.4747 104.1349
L62.4270 104.0397
" />
<path d="M62.4270 104.0397
L62.3794 103.9921
" />
<path d="M62.3794 103.9921
L62.2842 103.9444
" />
<path d="M62.7604 103.5159
L62.8080 103.4682
" />
<path d="M62.8080 103.4682
L62.8556 103.5159
" />
<path d="M62.8556 103.5159
L62.8080 103.5635
" />
<path d="M62.8080 103.5635
L62.7604 103.5159
" />
<path d="M62.7604 103.5159
L62.8556 103.5159
" />
<path d="M61.8556 103.1349
L61.8556 102.4682
" />
<path d="M61.8556 102.4682
L62.8556 102.8968
" />
<path d="M61.8556 101.6111
L61.8556 102.0873
" />
<path d="M61.8556 102.0873
L62.3318 102.1349
" />
<path d="M62.3318 102.1349
L62.2842 102.0873
" />
<path d="M62.2842 102.0873
L62.2366 101.9921
" />
<path d="M62.2366 101.9921
L62.2366 101.7540
" />
<path d="M62.2366 101.7540
L62.2842 101.6587
" />
<path d="M62.2842 101.6587
L62.3318 101.6111
" />
<path d="M62.3318 101.6111
L62.4270 101.5635
" />
<path d="M62.4270 101.5635
L62.6651 101.5635
" />
<path d="M62.6651 101.5635
L62.7604 101.6111
" />
<path d="M62.7604 101.6111
L62.8080 101.6587
" />
<path d="M62.8080 101.6587
L62.8556 101.7540
" />
<path d="M62.8556 101.7540
L62.8556 101.9921
" />
<path d="M62.8556 101.9921
L62.8080 102.0873
" />
<path d="M62.8080 102.0873
L62.7604 102.1349
" />
<path d="M62.8556 101.0873
L62.8556 100.8968
" />
<path d="M62.8556 100.8968
L62.8080 100.8016
" />
<path d="M62.8080 100.8016
L62.7604 100.7540
" />
<path d="M62.7604 100.7540
L62.6175 100.6587
" />
<path d="M62.6175 100.6587
L62.4270 100.6111
" />
<path d="M62.4270 100.6111
L62.0461 100.6111
" />
<path d="M62.0461 100.6111
L61.9509 100.6587
" />
<path d="M61.9509 100.6587
L61.9032 100.7063
" />
<path d="M61.9032 100.7063
L61.8556 100.8016
" />
<path d="M61.8556 100.8016
L61.8556 100.9921
" />
<path d="M61.8556 100.9921
L61.9032 101.0873
" />
<path d="M61.9032 101.0873
L61.9509 101.1349
" />
<path d="M61.9509 101.1349
L62.0461 101.1825
" />
<path d="M62.0461 101.1825
L62.2842 101.1825
" />
<path d="M62.2842 101.1825
L62.3794 101.1349
" />
<path d="M62.3794 101.1349
L62.4270 101.0873
" />
<path d="M62.4270 101.0873
L62.4747 100.9921
" />
<path d="M62.4747 100.9921
L62.4747 100.8016
" />
<path d="M62.4747 100.8016
L62.4270 100.7063
" />
<path d="M62.4270 100.7063
L62.3794 100.6587
" />
<path d="M62.3794 100.6587
L62.2842 100.6111
" />
<path d="M61.9509 100.2302
L61.9032 100.1825
" />
<path d="M61.9032 100.1825
L61.8556 100.0873
" />
<path d="M61.8556 100.0873
L61.8556 99.8492
" />
<path d="M61.8556 99.8492
L61.9032 99.7540
" />
<path d="M61.9032 99.7540
L61.9509 99.7063
" />
<path d="M61.9509 99.7063
L62.0461 99.6587
" />
<path d="M62.0461 99.6587
L62.1413 99.6587
" />
<path d="M62.1413 99.6587
L62.2842 99.7063
" />
<path d="M62.2842 99.7063
L62.8556 100.2778
" />
<path d="M62.8556 100.2778
L62.8556 99.6587
" />
<path d="M62.8556 98.4682
L62.1890 98.4682
" />
<path d="M62.2842 98.4682
L62.2366 98.4206
" />
<path d="M62.2366 98.4206
L62.1890 98.3254
" />
<path d="M62.1890 98.3254
L62.1890 98.1825
" />
<path d="M62.1890 98.1825
L62.2366 98.0873
" />
<path d="M62.2366 98.0873
L62.3318 98.0397
" />
<path d="M62.3318 98.0397
L62.8556 98.0397
" />
<path d="M62.3318 98.0397
L62.2366 97.9921
" />
<path d="M62.2366 97.9921
L62.1890 97.8968
" />
<path d="M62.1890 97.8968
L62.1890 97.7540
" />
<path d="M62.1890 97.7540
L62.2366 97.6587
" />
<path d="M62.2366 97.6587
L62.3318 97.6111
" />
<path d="M62.3318 97.6111
L62.8556 97.6111
" />
<path d="M62.8556 97.1349
L62.1890 97.1349
" />
<path d="M62.2842 97.1349
L62.2366 97.0873
" />
<path d="M62.2366 97.0873
L62.1890 96.9921
" />
<path d="M62.1890 96.9921
L62.1890 96.8492
" />
<path d="M62.1890 96.8492
L62.2366 96.7540
" />
<path d="M62.2366 96.7540
L62.3318 96.7063
" />
<path d="M62.3318 96.7063
L62.8556 96.7063
" />
<path d="M62.3318 96.7063
L62.2366 96.6587
" />
<path d="M62.2366 96.6587
L62.1890 96.5635
" />
<path d="M62.1890 96.5635
L62.1890 96.4206
" />
<path d="M62.1890 96.4206
L62.2366 96.3254
" />
<path d="M62.2366 96.3254
L62.3318 96.2778
" />
<path d="M62.3318 96.2778
L62.8556 96.2778
" />
</g></g>
<g style="fill:none; 
stroke:#000000; stroke-width:0.1000; stroke-opacity:1; 
stroke-linecap:round; stroke-linejoin:round;">
<path d="M74.1045 140.7288
L62.9644 140.7288
" />
<path d="M62.9644 60.9696
L74.1045 60.9696
" />
<path d="M63.5508 140.7288
L63.5508 60.9696
" />
<path d="M63.5508 140.7288
L62.9644 139.6023
" />
<path d="M63.5508 140.7288
L64.1372 139.6023
" />
<path d="M63.5508 60.9696
L64.1372 62.0961
" />
<path d="M63.5508 60.9696
L62.9644 62.0961
" />
</g>
<g style="fill:none; 
stroke:#000000; stroke-width:0.1500; stroke-opacity:1; 
stroke-linecap:round; stroke-linejoin:round;">
<text x="146.6164" y="157.3888"
textLength="10.8214" font-size="1.3333" lengthAdjust="spacingAndGlyphs"
text-anchor="middle" opacity="0" stroke-opacity="0">143.9823 mm</text>
<g class="stroked-text"><desc>143.9823 mm</desc>
<path d="M142.0925 157.3436
L141.5211 157.3436
" />
<path d="M141.8068 157.3436
L141.8068 156.3436
" />
<path d="M141.8068 156.3436
L141.7116 156.4865
" />
<path d="M141.7116 156.4865
L141.6164 156.5817
" />
<path d="M141.6164 156.5817
L141.5211 156.6293
" />
<path d="M142.9497 156.6770
L142.9497 157.3436
" />
<path d="M142.7116 156.2960
L142.4735 157.0103
" />
<path d="M142.4735 157.0103
L143.0925 157.0103
" />
<path d="M143.3783 156.3436
L143.9973 156.3436
" />
<path d="M143.9973 156.3436
L143.6640 156.7246
" />
<path d="M143.6640 156.7246
L143.8068 156.7246
" />
<path d="M143.8068 156.7246
L143.9021 156.7722
" />
<path d="M143.9021 156.7722
L143.9497 156.8198
" />
<path d="M143.9497 156.8198
L143.9973 156.9150
" />
<path d="M143.9973 156.9150
L143.9973 157.1531
" />
<path d="M143.9973 157.1531
L143.9497 157.2484
" />
<path d="M143.9497 157.2484
L143.9021 157.2960
" />
<path d="M143.9021 157.2960
L143.8068 157.3436
" />
<path d="M143.8068 157.3436
L143.5211 157.3436
" />
<path d="M143.5211 157.3436
L143.4259 157.2960
" />
<path d="M143.4259 157.2960
L143.3783 157.2484
" />
<path d="M144.4259 157.2484
L144.4735 157.2960
" />
<path d="M144.4735 157.2960
L144.4259 157.3436
" />
<path d="M144.4259 157.3436
L144.3783 157.2960
" />
<path d="M144.3783 157.2960
L144.4259 157.2484
" />
<path d="M144.4259 157.2484
L144.4259 157.3436
" />
<path d="M144.9497 157.3436
L145.1402 157.3436
" />
<path d="M145.1402 157.3436
L145.2354 157.2960
" />
<path d="M145.2354 157.2960
L145.2830 157.2484
" />
<path d="M145.2830 157.2484
L145.3783 157.1055
" />
<path d="M145.3783 157.1055
L145.4259 156.9150
" />
<path d="M145.4259 156.9150
L145.4259 156.5341
" />
<path d="M145.4259 156.5341
L145.3783 156.4389
" />
<path d="M145.3783 156.4389
L145.3306 156.3912
" />
<path d="M145.3306 156.3912
L145.2354 156.3436
" />
<path d="M145.2354 156.3436
L145.0449 156.3436
" />
<path d="M145.0449 156.3436
L144.9497 156.3912
" />
<path d="M144.9497 156.3912
L144.9021 156.4389
" />
<path d="M144.9021 156.4389
L144.8545 156.5341
" />
<path d="M144.8545 156.5341
L144.8545 156.7722
" />
<path d="M144.8545 156.7722
L144.9021 156.8674
" />
<path d="M144.9021 156.8674
L144.9497 156.9150
" />
<path d="M144.9497 156.9150
L145.0449 156.9627
" />
<path d="M145.0449 156.9627
L145.2354 156.9627
" />
<path d="M145.2354 156.9627
L145.3306 156.9150
" />
<path d="M145.3306 156.9150
L145.3783 156.8674
" />
<path d="M145.3783 156.8674
L145.4259 156.7722
" />
<path d="M145.9973 156.7722
L145.9021 156.7246
" />
<path d="M145.9021 156.7246
L145.8545 156.6770
" />
<path d="M145.8545 156.6770
L145.8068 156.5817
" />
<path d="M145.8068 156.5817
L145.8068 156.5341
" />
<path d="M145.8068 156.5341
L145.8545 156.4389
" />
<path d="M145.8545 156.4389
L145.9021 156.3912
" />
<path d="M145.9021 156.3912
L145.9973 156.3436
" />
<path d="M145.9973 156.3436
L146.1878 156.3436
" />
<path d="M146.1878 156.3436
L146.2830 156.3912
" />
<path d="M146.2830 156.3912
L146.3306 156.4389
" />
<path d="M146.3306 156.4389
L146.3783 156.5341
" />
<path d="M146.3783 156.5341
L146.3783 156.5817
" />
<path d="M146.3783 156.5817
L146.3306 156.6770
" />
<path d="M146.3306 156.6770
L146.2830 156.7246
" />
<path d="M146.2830 156.7246
L146.1878 156.7722
" />
<path d="M146.1878 156.7722
L145.9973 156.7722
" />
<path d="M145.9973 156.7722
L145.9021 156.8198
" />
<path d="M145.9021 156.8198
L145.8545 156.8674
" />
<path d="M145.8545 156.8674
L145.8068 156.9627
" />
<path d="M145.8068 156.9627
L145.8068 157.1531
" />
<path d="M145.8068 157.1531
L145.8545 157.2484
" />
<path d="M145.8545 157.2484
L145.9021 157.2960
" />
<path d="M145.9021 157.2960
L145.9973 157.3436
" />
<path d="M145.9973 157.3436
L146.1878 157.3436
" />
<path d="M146.1878 157.3436
L146.2830 157.2960
" />
<path d="M146.2830 157.2960
L146.3306 157.2484
" />
<path d="M146.3306 157.2484
L146.3783 157.1531
" />
<path d="M146.3783 157.1531
L146.3783 156.9627
" />
<path d="M146.3783 156.9627
L146.3306 156.8674
" />
<path d="M146.3306 156.8674
L146.2830 156.8198
" />
<path d="M146.2830 156.8198
L146.1878 156.7722
" />
<path d="M146.7592 156.4389
L146.8068 156.3912
" />
<path d="M146.8068 156.3912
L146.9021 156.3436
" />
<path d="M146.9021 156.3436
L147.1402 156.3436
" />
<path d="M147.1402 156.3436
L147.2354 156.3912
" />
<path d="M147.2354 156.3912
L147.2830 156.4389
" />
<path d="M147.2830 156.4389
L147.3306 156.5341
" />
<path d="M147.3306 156.5341
L147.3306 156.6293
" />
<path d="M147.3306 156.6293
L147.2830 156.7722
" />
<path d="M147.2830 156.7722
L146.7116 157.3436
" />
<path d="M146.7116 157.3436
L147.3306 157.3436
" />
<path d="M147.6640 156.3436
L148.2830 156.3436
" />
<path d="M148.2830 156.3436
L147.9497 156.7246
" />
<path d="M147.9497 156.7246
L148.0925 156.7246
" />
<path d="M148.0925 156.7246
L148.1878 156.7722
" />
<path d="M148.1878 156.7722
L148.2354 156.8198
" />
<path d="M148.2354 156.8198
L148.2830 156.9150
" />
<path d="M148.2830 156.9150
L148.2830 157.1531
" />
<path d="M148.2830 157.1531
L148.2354 157.2484
" />
<path d="M148.2354 157.2484
L148.1878 157.2960
" />
<path d="M148.1878 157.2960
L148.0925 157.3436
" />
<path d="M148.0925 157.3436
L147.8068 157.3436
" />
<path d="M147.8068 157.3436
L147.7116 157.2960
" />
<path d="M147.7116 157.2960
L147.6640 157.2484
" />
<path d="M149.4735 157.3436
L149.4735 156.6770
" />
<path d="M149.4735 156.7722
L149.5211 156.7246
" />
<path d="M149.5211 156.7246
L149.6164 156.6770
" />
<path d="M149.6164 156.6770
L149.7592 156.6770
" />
<path d="M149.7592 156.6770
L149.8545 156.7246
" />
<path d="M149.8545 156.7246
L149.9021 156.8198
" />
<path d="M149.9021 156.8198
L149.9021 157.3436
" />
<path d="M149.9021 156.8198
L149.9497 156.7246
" />
<path d="M149.9497 156.7246
L150.0449 156.6770
" />
<path d="M150.0449 156.6770
L150.1878 156.6770
" />
<path d="M150.1878 156.6770
L150.2830 156.7246
" />
<path d="M150.2830 156.7246
L150.3306 156.8198
" />
<path d="M150.3306 156.8198
L150.3306 157.3436
" />
<path d="M150.8068 157.3436
L150.8068 156.6770
" />
<path d="M150.8068 156.7722
L150.8545 156.7246
" />
<path d="M150.8545 156.7246
L150.9497 156.6770
" />
<path d="M150.9497 156.6770
L151.0925 156.6770
" />
<path d="M151.0925 156.6770
L151.1878 156.7246
" />
<path d="M151.1878 156.7246
L151.2354 156.8198
" />
<path d="M151.2354 156.8198
L151.2354 157.3436
" />
<path d="M151.2354 156.8198
L151.2830 156.7246
" />
<path d="M151.2830 156.7246
L151.3783 156.6770
" />
<path d="M151.3783 156.6770
L151.5211 156.6770
" />
<path d="M151.5211 156.6770
L151.6164 156.7246
" />
<path d="M151.6164 156.7246
L151.6640 156.8198
" />
<path d="M151.6640 156.8198
L151.6640 157.3436
" />
</g></g>
<g style="fill:none; 
stroke:#000000; stroke-width:0.1000; stroke-opacity:1; 
stroke-linecap:round; stroke-linejoin:round;">
<path d="M218.6075 113.6159
L218.6075 158.6252
" />
<path d="M74.6252 158.6252
L74.6252 116.6288
" />
<path d="M218.6075 158.0388
L74.6252 158.0388
" />
<path d="M218.6075 158.0388
L217.4810 158.6252
" />
<path d="M218.6075 158.0388
L217.4810 157.4524
" />
<path d="M74.6252 158.0388
L75.7517 157.4524
" />
<path d="M74.6252 158.0388
L75.7517 158.6252
" />
</g>
<g style="fill:none; 
stroke:#000000; stroke-width:0.1500; stroke-opacity:1; 
stroke-linecap:round; stroke-linejoin:round;">
<g transform="rotate(-90.000000 227.4500 99.6950)">
<text x="227.4500" y="100.1950"
textLength="9.8690" font-size="1.3333" lengthAdjust="spacingAndGlyphs"
text-anchor="middle" opacity="0" stroke-opacity="0">26.6700 mm</text>
</g>
<g class="stroked-text"><desc>26.6700 mm</desc>
<path d="M227.0001 104.3140
L226.9524 104.2664
" />
<path d="M226.9524 104.2664
L226.9048 104.1712
" />
<path d="M226.9048 104.1712
L226.9048 103.9331
" />
<path d="M226.9048 103.9331
L226.9524 103.8379
" />
<path d="M226.9524 103.8379
L227.0001 103.7902
" />
<path d="M227.0001 103.7902
L227.0953 103.7426
" />
<path d="M227.0953 103.7426
L227.1905 103.7426
" />
<path d="M227.1905 103.7426
L227.3334 103.7902
" />
<path d="M227.3334 103.7902
L227.9048 104.3617
" />
<path d="M227.9048 104.3617
L227.9048 103.7426
" />
<path d="M226.9048 102.8855
L226.9048 103.0760
" />
<path d="M226.9048 103.0760
L226.9524 103.1712
" />
<path d="M226.9524 103.1712
L227.0001 103.2188
" />
<path d="M227.0001 103.2188
L227.1429 103.3140
" />
<path d="M227.1429 103.3140
L227.3334 103.3617
" />
<path d="M227.3334 103.3617
L227.7143 103.3617
" />
<path d="M227.7143 103.3617
L227.8096 103.3140
" />
<path d="M227.8096 103.3140
L227.8572 103.2664
" />
<path d="M227.8572 103.2664
L227.9048 103.1712
" />
<path d="M227.9048 103.1712
L227.9048 102.9807
" />
<path d="M227.9048 102.9807
L227.8572 102.8855
" />
<path d="M227.8572 102.8855
L227.8096 102.8379
" />
<path d="M227.8096 102.8379
L227.7143 102.7902
" />
<path d="M227.7143 102.7902
L227.4762 102.7902
" />
<path d="M227.4762 102.7902
L227.3810 102.8379
" />
<path d="M227.3810 102.8379
L227.3334 102.8855
" />
<path d="M227.3334 102.8855
L227.2858 102.9807
" />
<path d="M227.2858 102.9807
L227.2858 103.1712
" />
<path d="M227.2858 103.1712
L227.3334 103.2664
" />
<path d="M227.3334 103.2664
L227.3810 103.3140
" />
<path d="M227.3810 103.3140
L227.4762 103.3617
" />
<path d="M227.8096 102.3617
L227.8572 102.3140
" />
<path d="M227.8572 102.3140
L227.9048 102.3617
" />
<path d="M227.9048 102.3617
L227.8572 102.4093
" />
<path d="M227.8572 102.4093
L227.8096 102.3617
" />
<path d="M227.8096 102.3617
L227.9048 102.3617
" />
<path d="M226.9048 101.4569
L226.9048 101.6474
" />
<path d="M226.9048 101.6474
L226.9524 101.7426
" />
<path d="M226.9524 101.7426
L227.0001 101.7902
" />
<path d="M227.0001 101.7902
L227.1429 101.8855
" />
<path d="M227.1429 101.8855
L227.3334 101.9331
" />
<path d="M227.3334 101.9331
L227.7143 101.9331
" />
<path d="M227.7143 101.9331
L227.8096 101.8855
" />
<path d="M227.8096 101.8855
L227.8572 101.8379
" />
<path d="M227.8572 101.8379
L227.9048 101.7426
" />
<path d="M227.9048 101.7426
L227.9048 101.5521
" />
<path d="M227.9048 101.5521
L227.8572 101.4569
" />
<path d="M227.8572 101.4569
L227.8096 101.4093
" />
<path d="M227.8096 101.4093
L227.7143 101.3617
" />
<path d="M227.7143 101.3617
L227.4762 101.3617
" />
<path d="M227.4762 101.3617
L227.3810 101.4093
" />
<path d="M227.3810 101.4093
L227.3334 101.4569
" />
<path d="M227.3334 101.4569
L227.2858 101.5521
" />
<path d="M227.2858 101.5521
L227.2858 101.7426
" />
<path d="M227.2858 101.7426
L227.3334 101.8379
" />
<path d="M227.3334 101.8379
L227.3810 101.8855
" />
<path d="M227.3810 101.8855
L227.4762 101.9331
" />
<path d="M226.9048 101.0283
L226.9048 100.3617
" />
<path d="M226.9048 100.3617
L227.9048 100.7902
" />
<path d="M226.9048 99.7902
L226.9048 99.6950
" />
<path d="M226.9048 99.6950
L226.9524 99.5998
" />
<path d="M226.9524 99.5998
L227.0001 99.5521
" />
<path d="M227.0001 99.5521
L227.0953 99.5045
" />
<path d="M227.0953 99.5045
L227.2858 99.4569
" />
<path d="M227.2858 99.4569
L227.5239 99.4569
" />
<path d="M227.5239 99.4569
L227.7143 99.5045
" />
<path d="M227.7143 99.5045
L227.8096 99.5521
" />
<path d="M227.8096 99.5521
L227.8572 99.5998
" />
<path d="M227.8572 99.5998
L227.9048 99.6950
" />
<path d="M227.9048 99.6950
L227.9048 99.7902
" />
<path d="M227.9048 99.7902
L227.8572 99.8855
" />
<path d="M227.8572 99.8855
L227.8096 99.9331
" />
<path d="M227.8096 99.9331
L227.7143 99.9807
" />
<path d="M227.7143 99.9807
L227.5239 100.0283
" />
<path d="M227.5239 100.0283
L227.2858 100.0283
" />
<path d="M227.2858 100.0283
L227.0953 99.9807
" />
<path d="M227.0953 99.9807
L227.0001 99.9331
" />
<path d="M227.0001 99.9331
L226.9524 99.8855
" />
<path d="M226.9524 99.8855
L226.9048 99.7902
" />
<path d="M226.9048 98.8379
L226.9048 98.7426
" />
<path d="M226.9048 98.7426
L226.9524 98.6474
" />
<path d="M226.9524 98.6474
L227.0001 98.5998
" />
<path d="M227.0001 98.5998
L227.0953 98.5521
" />
<path d="M227.0953 98.5521
L227.2858 98.5045
" />
<path d="M227.2858 98.5045
L227.5239 98.5045
" />
<path d="M227.5239 98.5045
L227.7143 98.5521
" />
<path d="M227.7143 98.5521
L227.8096 98.5998
" />
<path d="M227.8096 98.5998
L227.8572 98.6474
" />
<path d="M227.8572 98.6474
L227.9048 98.7426
" />
<path d="M227.9048 98.7426
L227.9048 98.8379
" />
<path d="M227.9048 98.8379
L227.8572 98.9331
" />
<path d="M227.8572 98.9331
L227.8096 98.9807
" />
<path d="M227.8096 98.9807
L227.7143 99.0283
" />
<path d="M227.7143 99.0283
L227.5239 99.0760
" />
<path d="M227.5239 99.0760
L227.2858 99.0760
" />
<path d="M227.2858 99.0760
L227.0953 99.0283
" />
<path d="M227.0953 99.0283
L227.0001 98.9807
" />
<path d="M227.0001 98.9807
L226.9524 98.9331
" />
<path d="M226.9524 98.9331
L226.9048 98.8379
" />
<path d="M227.9048 97.3140
L227.2382 97.3140
" />
<path d="M227.3334 97.3140
L227.2858 97.2664
" />
<path d="M227.2858 97.2664
L227.2382 97.1712
" />
<path d="M227.2382 97.1712
L227.2382 97.0283
" />
<path d="M227.2382 97.0283
L227.2858 96.9331
" />
<path d="M227.2858 96.9331
L227.3810 96.8855
" />
<path d="M227.3810 96.8855
L227.9048 96.8855
" />
<path d="M227.3810 96.8855
L227.2858 96.8379
" />
<path d="M227.2858 96.8379
L227.2382 96.7426
" />
<path d="M227.2382 96.7426
L227.2382 96.5998
" />
<path d="M227.2382 96.5998
L227.2858 96.5045
" />
<path d="M227.2858 96.5045
L227.3810 96.4569
" />
<path d="M227.3810 96.4569
L227.9048 96.4569
" />
<path d="M227.9048 95.9807
L227.2382 95.9807
" />
<path d="M227.3334 95.9807
L227.2858 95.9331
" />
<path d="M227.2858 95.9331
L227.2382 95.8379
" />
<path d="M227.2382 95.8379
L227.2382 95.6950
" />
<path d="M227.2382 95.6950
L227.2858 95.5998
" />
<path d="M227.2858 95.5998
L227.3810 95.5521
" />
<path d="M227.3810 95.5521
L227.9048 95.5521
" />
<path d="M227.3810 95.5521
L227.2858 95.5045
" />
<path d="M227.2858 95.5045
L227.2382 95.4093
" />
<path d="M227.2382 95.4093
L227.2382 95.2664
" />
<path d="M227.2382 95.2664
L227.2858 95.1712
" />
<path d="M227.2858 95.1712
L227.3810 95.1236
" />
<path d="M227.3810 95.1236
L227.9048 95.1236
" />
</g></g>
<g style="fill:none; 
stroke:#000000; stroke-width:0.1000; stroke-opacity:1; 
stroke-linecap:round; stroke-linejoin:round;">
<path d="M225.1045 86.3600
L229.1864 86.3600
" />
<path d="M229.1864 113.0300
L225.1045 113.0300
" />
<path d="M228.6000 86.3600
L228.6000 113.0300
" />
<path d="M228.6000 86.3600
L229.1864 87.4865
" />
<path d="M228.6000 86.3600
L228.0136 87.4865
" />
<path d="M228.6000 113.0300
L228.0136 111.9035
" />
<path d="M228.6000 113.0300
L229.1864 111.9035
" />
</g> 
</svg>
