<?xml version="1.0" standalone="no"?>
 <!DOCTYPE svg PUBLIC "-//W3C//DTD SVG 1.1//EN" 
 "http://www.w3.org/Graphics/SVG/1.1/DTD/svg11.dtd"> 
<svg
  xmlns:svg="http://www.w3.org/2000/svg"
  xmlns="http://www.w3.org/2000/svg"
  xmlns:xlink="http://www.w3.org/1999/xlink"
  version="1.1"
  width="297.0022mm" height="210.0072mm" viewBox="0.0000 0.0000 297.0022 210.0072">
<title>SVG Image created as modulo_seguidor-B_Fab.svg date 2025/09/09 17:11:46 </title>
  <desc>Image generated by PCBNEW </desc>
<g style="fill:#000000; fill-opacity:1.0000;stroke:#000000; stroke-opacity:1.0000;
stroke-linecap:round; stroke-linejoin:round;"
 transform="translate(0 0) scale(1 1)">
</g>
<g style="fill:none; 
stroke:#000000; stroke-width:0.1500; stroke-opacity:1; 
stroke-linecap:round; stroke-linejoin:round;">
<path d="M177.0022 166.0072
L285.0022 166.0072
L285.0022 198.0072
L177.0022 198.0072
L177.0022 166.0072
" />
</g>
<g style="fill:none; 
stroke:#000000; stroke-width:0.1500; stroke-opacity:1; 
stroke-linecap:round; stroke-linejoin:round;">
<path d="M10.0000 10.0000
L287.0022 10.0000
L287.0022 200.0072
L10.0000 200.0072
L10.0000 10.0000
" />
</g>
<g style="fill:none; 
stroke:#000000; stroke-width:0.1500; stroke-opacity:1; 
stroke-linecap:round; stroke-linejoin:round;">
<path d="M12.0000 12.0000
L285.0022 12.0000
L285.0022 198.0072
L12.0000 198.0072
L12.0000 12.0000
" />
</g>
<g style="fill:none; 
stroke:#000000; stroke-width:0.1500; stroke-opacity:1; 
stroke-linecap:round; stroke-linejoin:round;">
<path d="M60.0000 12.0000
L60.0000 10.0000
" />
</g>
<g style="fill:none; 
stroke:#000000; stroke-width:0.1500; stroke-opacity:1; 
stroke-linecap:round; stroke-linejoin:round;">
<path d="M110.0000 12.0000
L110.0000 10.0000
" />
</g>
<g style="fill:none; 
stroke:#000000; stroke-width:0.1500; stroke-opacity:1; 
stroke-linecap:round; stroke-linejoin:round;">
<path d="M160.0000 12.0000
L160.0000 10.0000
" />
</g>
<g style="fill:none; 
stroke:#000000; stroke-width:0.1500; stroke-opacity:1; 
stroke-linecap:round; stroke-linejoin:round;">
<path d="M210.0000 12.0000
L210.0000 10.0000
" />
</g>
<g style="fill:none; 
stroke:#000000; stroke-width:0.1500; stroke-opacity:1; 
stroke-linecap:round; stroke-linejoin:round;">
<path d="M260.0000 12.0000
L260.0000 10.0000
" />
</g>
<g style="fill:none; 
stroke:#000000; stroke-width:0.1500; stroke-opacity:1; 
stroke-linecap:round; stroke-linejoin:round;">
<text x="35.0000" y="11.6500"
textLength="1.4281" font-size="1.7333" lengthAdjust="spacingAndGlyphs"
text-anchor="start" opacity="0" stroke-opacity="0">1</text>
<g class="stroked-text"><desc>1</desc>
<path d="M36.0892 11.5936
L35.3463 11.5936
" />
<path d="M35.7177 11.5936
L35.7177 10.2936
" />
<path d="M35.7177 10.2936
L35.5939 10.4793
" />
<path d="M35.5939 10.4793
L35.4701 10.6031
" />
<path d="M35.4701 10.6031
L35.3463 10.6650
" />
</g></g>
<g style="fill:none; 
stroke:#000000; stroke-width:0.1500; stroke-opacity:1; 
stroke-linecap:round; stroke-linejoin:round;">
<text x="85.0000" y="11.6500"
textLength="1.4281" font-size="1.7333" lengthAdjust="spacingAndGlyphs"
text-anchor="start" opacity="0" stroke-opacity="0">2</text>
<g class="stroked-text"><desc>2</desc>
<path d="M85.3463 10.4174
L85.4082 10.3555
" />
<path d="M85.4082 10.3555
L85.5320 10.2936
" />
<path d="M85.5320 10.2936
L85.8415 10.2936
" />
<path d="M85.8415 10.2936
L85.9654 10.3555
" />
<path d="M85.9654 10.3555
L86.0273 10.4174
" />
<path d="M86.0273 10.4174
L86.0892 10.5412
" />
<path d="M86.0892 10.5412
L86.0892 10.6650
" />
<path d="M86.0892 10.6650
L86.0273 10.8507
" />
<path d="M86.0273 10.8507
L85.2844 11.5936
" />
<path d="M85.2844 11.5936
L86.0892 11.5936
" />
</g></g>
<g style="fill:none; 
stroke:#000000; stroke-width:0.1500; stroke-opacity:1; 
stroke-linecap:round; stroke-linejoin:round;">
<text x="135.0000" y="11.6500"
textLength="1.4281" font-size="1.7333" lengthAdjust="spacingAndGlyphs"
text-anchor="start" opacity="0" stroke-opacity="0">3</text>
<g class="stroked-text"><desc>3</desc>
<path d="M135.2844 10.2936
L136.0892 10.2936
" />
<path d="M136.0892 10.2936
L135.6558 10.7888
" />
<path d="M135.6558 10.7888
L135.8415 10.7888
" />
<path d="M135.8415 10.7888
L135.9654 10.8507
" />
<path d="M135.9654 10.8507
L136.0273 10.9127
" />
<path d="M136.0273 10.9127
L136.0892 11.0365
" />
<path d="M136.0892 11.0365
L136.0892 11.3460
" />
<path d="M136.0892 11.3460
L136.0273 11.4698
" />
<path d="M136.0273 11.4698
L135.9654 11.5317
" />
<path d="M135.9654 11.5317
L135.8415 11.5936
" />
<path d="M135.8415 11.5936
L135.4701 11.5936
" />
<path d="M135.4701 11.5936
L135.3463 11.5317
" />
<path d="M135.3463 11.5317
L135.2844 11.4698
" />
</g></g>
<g style="fill:none; 
stroke:#000000; stroke-width:0.1500; stroke-opacity:1; 
stroke-linecap:round; stroke-linejoin:round;">
<text x="185.0000" y="11.6500"
textLength="1.4281" font-size="1.7333" lengthAdjust="spacingAndGlyphs"
text-anchor="start" opacity="0" stroke-opacity="0">4</text>
<g class="stroked-text"><desc>4</desc>
<path d="M185.9654 10.7269
L185.9654 11.5936
" />
<path d="M185.6558 10.2317
L185.3463 11.1603
" />
<path d="M185.3463 11.1603
L186.1511 11.1603
" />
</g></g>
<g style="fill:none; 
stroke:#000000; stroke-width:0.1500; stroke-opacity:1; 
stroke-linecap:round; stroke-linejoin:round;">
<text x="235.0000" y="11.6500"
textLength="1.4281" font-size="1.7333" lengthAdjust="spacingAndGlyphs"
text-anchor="start" opacity="0" stroke-opacity="0">5</text>
<g class="stroked-text"><desc>5</desc>
<path d="M236.0273 10.2936
L235.4082 10.2936
" />
<path d="M235.4082 10.2936
L235.3463 10.9127
" />
<path d="M235.3463 10.9127
L235.4082 10.8507
" />
<path d="M235.4082 10.8507
L235.5320 10.7888
" />
<path d="M235.5320 10.7888
L235.8415 10.7888
" />
<path d="M235.8415 10.7888
L235.9654 10.8507
" />
<path d="M235.9654 10.8507
L236.0273 10.9127
" />
<path d="M236.0273 10.9127
L236.0892 11.0365
" />
<path d="M236.0892 11.0365
L236.0892 11.3460
" />
<path d="M236.0892 11.3460
L236.0273 11.4698
" />
<path d="M236.0273 11.4698
L235.9654 11.5317
" />
<path d="M235.9654 11.5317
L235.8415 11.5936
" />
<path d="M235.8415 11.5936
L235.5320 11.5936
" />
<path d="M235.5320 11.5936
L235.4082 11.5317
" />
<path d="M235.4082 11.5317
L235.3463 11.4698
" />
</g></g>
<g style="fill:none; 
stroke:#000000; stroke-width:0.1500; stroke-opacity:1; 
stroke-linecap:round; stroke-linejoin:round;">
<text x="285.0000" y="11.6500"
textLength="1.4281" font-size="1.7333" lengthAdjust="spacingAndGlyphs"
text-anchor="start" opacity="0" stroke-opacity="0">6</text>
<g class="stroked-text"><desc>6</desc>
<path d="M285.9654 10.2936
L285.7177 10.2936
" />
<path d="M285.7177 10.2936
L285.5939 10.3555
" />
<path d="M285.5939 10.3555
L285.5320 10.4174
" />
<path d="M285.5320 10.4174
L285.4082 10.6031
" />
<path d="M285.4082 10.6031
L285.3463 10.8507
" />
<path d="M285.3463 10.8507
L285.3463 11.3460
" />
<path d="M285.3463 11.3460
L285.4082 11.4698
" />
<path d="M285.4082 11.4698
L285.4701 11.5317
" />
<path d="M285.4701 11.5317
L285.5939 11.5936
" />
<path d="M285.5939 11.5936
L285.8415 11.5936
" />
<path d="M285.8415 11.5936
L285.9654 11.5317
" />
<path d="M285.9654 11.5317
L286.0273 11.4698
" />
<path d="M286.0273 11.4698
L286.0892 11.3460
" />
<path d="M286.0892 11.3460
L286.0892 11.0365
" />
<path d="M286.0892 11.0365
L286.0273 10.9127
" />
<path d="M286.0273 10.9127
L285.9654 10.8507
" />
<path d="M285.9654 10.8507
L285.8415 10.7888
" />
<path d="M285.8415 10.7888
L285.5939 10.7888
" />
<path d="M285.5939 10.7888
L285.4701 10.8507
" />
<path d="M285.4701 10.8507
L285.4082 10.9127
" />
<path d="M285.4082 10.9127
L285.3463 11.0365
" />
</g></g>
<g style="fill:none; 
stroke:#000000; stroke-width:0.1500; stroke-opacity:1; 
stroke-linecap:round; stroke-linejoin:round;">
<path d="M60.0000 198.0072
L60.0000 200.0072
" />
</g>
<g style="fill:none; 
stroke:#000000; stroke-width:0.1500; stroke-opacity:1; 
stroke-linecap:round; stroke-linejoin:round;">
<path d="M110.0000 198.0072
L110.0000 200.0072
" />
</g>
<g style="fill:none; 
stroke:#000000; stroke-width:0.1500; stroke-opacity:1; 
stroke-linecap:round; stroke-linejoin:round;">
<path d="M160.0000 198.0072
L160.0000 200.0072
" />
</g>
<g style="fill:none; 
stroke:#000000; stroke-width:0.1500; stroke-opacity:1; 
stroke-linecap:round; stroke-linejoin:round;">
<path d="M210.0000 198.0072
L210.0000 200.0072
" />
</g>
<g style="fill:none; 
stroke:#000000; stroke-width:0.1500; stroke-opacity:1; 
stroke-linecap:round; stroke-linejoin:round;">
<path d="M260.0000 198.0072
L260.0000 200.0072
" />
</g>
<g style="fill:none; 
stroke:#000000; stroke-width:0.1500; stroke-opacity:1; 
stroke-linecap:round; stroke-linejoin:round;">
<text x="35.0000" y="199.6572"
textLength="1.4281" font-size="1.7333" lengthAdjust="spacingAndGlyphs"
text-anchor="start" opacity="0" stroke-opacity="0">1</text>
<g class="stroked-text"><desc>1</desc>
<path d="M36.0892 199.6008
L35.3463 199.6008
" />
<path d="M35.7177 199.6008
L35.7177 198.3008
" />
<path d="M35.7177 198.3008
L35.5939 198.4865
" />
<path d="M35.5939 198.4865
L35.4701 198.6103
" />
<path d="M35.4701 198.6103
L35.3463 198.6722
" />
</g></g>
<g style="fill:none; 
stroke:#000000; stroke-width:0.1500; stroke-opacity:1; 
stroke-linecap:round; stroke-linejoin:round;">
<text x="85.0000" y="199.6572"
textLength="1.4281" font-size="1.7333" lengthAdjust="spacingAndGlyphs"
text-anchor="start" opacity="0" stroke-opacity="0">2</text>
<g class="stroked-text"><desc>2</desc>
<path d="M85.3463 198.4246
L85.4082 198.3627
" />
<path d="M85.4082 198.3627
L85.5320 198.3008
" />
<path d="M85.5320 198.3008
L85.8415 198.3008
" />
<path d="M85.8415 198.3008
L85.9654 198.3627
" />
<path d="M85.9654 198.3627
L86.0273 198.4246
" />
<path d="M86.0273 198.4246
L86.0892 198.5484
" />
<path d="M86.0892 198.5484
L86.0892 198.6722
" />
<path d="M86.0892 198.6722
L86.0273 198.8579
" />
<path d="M86.0273 198.8579
L85.2844 199.6008
" />
<path d="M85.2844 199.6008
L86.0892 199.6008
" />
</g></g>
<g style="fill:none; 
stroke:#000000; stroke-width:0.1500; stroke-opacity:1; 
stroke-linecap:round; stroke-linejoin:round;">
<text x="135.0000" y="199.6572"
textLength="1.4281" font-size="1.7333" lengthAdjust="spacingAndGlyphs"
text-anchor="start" opacity="0" stroke-opacity="0">3</text>
<g class="stroked-text"><desc>3</desc>
<path d="M135.2844 198.3008
L136.0892 198.3008
" />
<path d="M136.0892 198.3008
L135.6558 198.7960
" />
<path d="M135.6558 198.7960
L135.8415 198.7960
" />
<path d="M135.8415 198.7960
L135.9654 198.8579
" />
<path d="M135.9654 198.8579
L136.0273 198.9199
" />
<path d="M136.0273 198.9199
L136.0892 199.0437
" />
<path d="M136.0892 199.0437
L136.0892 199.3532
" />
<path d="M136.0892 199.3532
L136.0273 199.4770
" />
<path d="M136.0273 199.4770
L135.9654 199.5389
" />
<path d="M135.9654 199.5389
L135.8415 199.6008
" />
<path d="M135.8415 199.6008
L135.4701 199.6008
" />
<path d="M135.4701 199.6008
L135.3463 199.5389
" />
<path d="M135.3463 199.5389
L135.2844 199.4770
" />
</g></g>
<g style="fill:none; 
stroke:#000000; stroke-width:0.1500; stroke-opacity:1; 
stroke-linecap:round; stroke-linejoin:round;">
<text x="185.0000" y="199.6572"
textLength="1.4281" font-size="1.7333" lengthAdjust="spacingAndGlyphs"
text-anchor="start" opacity="0" stroke-opacity="0">4</text>
<g class="stroked-text"><desc>4</desc>
<path d="M185.9654 198.7341
L185.9654 199.6008
" />
<path d="M185.6558 198.2389
L185.3463 199.1675
" />
<path d="M185.3463 199.1675
L186.1511 199.1675
" />
</g></g>
<g style="fill:none; 
stroke:#000000; stroke-width:0.1500; stroke-opacity:1; 
stroke-linecap:round; stroke-linejoin:round;">
<text x="235.0000" y="199.6572"
textLength="1.4281" font-size="1.7333" lengthAdjust="spacingAndGlyphs"
text-anchor="start" opacity="0" stroke-opacity="0">5</text>
<g class="stroked-text"><desc>5</desc>
<path d="M236.0273 198.3008
L235.4082 198.3008
" />
<path d="M235.4082 198.3008
L235.3463 198.9199
" />
<path d="M235.3463 198.9199
L235.4082 198.8579
" />
<path d="M235.4082 198.8579
L235.5320 198.7960
" />
<path d="M235.5320 198.7960
L235.8415 198.7960
" />
<path d="M235.8415 198.7960
L235.9654 198.8579
" />
<path d="M235.9654 198.8579
L236.0273 198.9199
" />
<path d="M236.0273 198.9199
L236.0892 199.0437
" />
<path d="M236.0892 199.0437
L236.0892 199.3532
" />
<path d="M236.0892 199.3532
L236.0273 199.4770
" />
<path d="M236.0273 199.4770
L235.9654 199.5389
" />
<path d="M235.9654 199.5389
L235.8415 199.6008
" />
<path d="M235.8415 199.6008
L235.5320 199.6008
" />
<path d="M235.5320 199.6008
L235.4082 199.5389
" />
<path d="M235.4082 199.5389
L235.3463 199.4770
" />
</g></g>
<g style="fill:none; 
stroke:#000000; stroke-width:0.1500; stroke-opacity:1; 
stroke-linecap:round; stroke-linejoin:round;">
<text x="285.0000" y="199.6572"
textLength="1.4281" font-size="1.7333" lengthAdjust="spacingAndGlyphs"
text-anchor="start" opacity="0" stroke-opacity="0">6</text>
<g class="stroked-text"><desc>6</desc>
<path d="M285.9654 198.3008
L285.7177 198.3008
" />
<path d="M285.7177 198.3008
L285.5939 198.3627
" />
<path d="M285.5939 198.3627
L285.5320 198.4246
" />
<path d="M285.5320 198.4246
L285.4082 198.6103
" />
<path d="M285.4082 198.6103
L285.3463 198.8579
" />
<path d="M285.3463 198.8579
L285.3463 199.3532
" />
<path d="M285.3463 199.3532
L285.4082 199.4770
" />
<path d="M285.4082 199.4770
L285.4701 199.5389
" />
<path d="M285.4701 199.5389
L285.5939 199.6008
" />
<path d="M285.5939 199.6008
L285.8415 199.6008
" />
<path d="M285.8415 199.6008
L285.9654 199.5389
" />
<path d="M285.9654 199.5389
L286.0273 199.4770
" />
<path d="M286.0273 199.4770
L286.0892 199.3532
" />
<path d="M286.0892 199.3532
L286.0892 199.0437
" />
<path d="M286.0892 199.0437
L286.0273 198.9199
" />
<path d="M286.0273 198.9199
L285.9654 198.8579
" />
<path d="M285.9654 198.8579
L285.8415 198.7960
" />
<path d="M285.8415 198.7960
L285.5939 198.7960
" />
<path d="M285.5939 198.7960
L285.4701 198.8579
" />
<path d="M285.4701 198.8579
L285.4082 198.9199
" />
<path d="M285.4082 198.9199
L285.3463 199.0437
" />
</g></g>
<g style="fill:none; 
stroke:#000000; stroke-width:0.1500; stroke-opacity:1; 
stroke-linecap:round; stroke-linejoin:round;">
<path d="M10.0000 60.0000
L12.0000 60.0000
" />
</g>
<g style="fill:none; 
stroke:#000000; stroke-width:0.1500; stroke-opacity:1; 
stroke-linecap:round; stroke-linejoin:round;">
<path d="M10.0000 110.0000
L12.0000 110.0000
" />
</g>
<g style="fill:none; 
stroke:#000000; stroke-width:0.1500; stroke-opacity:1; 
stroke-linecap:round; stroke-linejoin:round;">
<path d="M10.0000 160.0000
L12.0000 160.0000
" />
</g>
<g style="fill:none; 
stroke:#000000; stroke-width:0.1500; stroke-opacity:1; 
stroke-linecap:round; stroke-linejoin:round;">
<text x="11.0000" y="35.6500"
textLength="1.3043" font-size="1.7333" lengthAdjust="spacingAndGlyphs"
text-anchor="middle" opacity="0" stroke-opacity="0">A</text>
<g class="stroked-text"><desc>A</desc>
<path d="M10.6905 35.2222
L11.3095 35.2222
" />
<path d="M10.5667 35.5936
L11.0000 34.2936
" />
<path d="M11.0000 34.2936
L11.4333 35.5936
" />
</g></g>
<g style="fill:none; 
stroke:#000000; stroke-width:0.1500; stroke-opacity:1; 
stroke-linecap:round; stroke-linejoin:round;">
<text x="11.0000" y="85.6500"
textLength="1.4900" font-size="1.7333" lengthAdjust="spacingAndGlyphs"
text-anchor="middle" opacity="0" stroke-opacity="0">B</text>
<g class="stroked-text"><desc>B</desc>
<path d="M11.0929 84.9127
L11.2786 84.9746
" />
<path d="M11.2786 84.9746
L11.3405 85.0365
" />
<path d="M11.3405 85.0365
L11.4024 85.1603
" />
<path d="M11.4024 85.1603
L11.4024 85.3460
" />
<path d="M11.4024 85.3460
L11.3405 85.4698
" />
<path d="M11.3405 85.4698
L11.2786 85.5317
" />
<path d="M11.2786 85.5317
L11.1548 85.5936
" />
<path d="M11.1548 85.5936
L10.6595 85.5936
" />
<path d="M10.6595 85.5936
L10.6595 84.2936
" />
<path d="M10.6595 84.2936
L11.0929 84.2936
" />
<path d="M11.0929 84.2936
L11.2167 84.3555
" />
<path d="M11.2167 84.3555
L11.2786 84.4174
" />
<path d="M11.2786 84.4174
L11.3405 84.5412
" />
<path d="M11.3405 84.5412
L11.3405 84.6650
" />
<path d="M11.3405 84.6650
L11.2786 84.7888
" />
<path d="M11.2786 84.7888
L11.2167 84.8507
" />
<path d="M11.2167 84.8507
L11.0929 84.9127
" />
<path d="M11.0929 84.9127
L10.6595 84.9127
" />
</g></g>
<g style="fill:none; 
stroke:#000000; stroke-width:0.1500; stroke-opacity:1; 
stroke-linecap:round; stroke-linejoin:round;">
<text x="11.0000" y="135.6500"
textLength="1.4900" font-size="1.7333" lengthAdjust="spacingAndGlyphs"
text-anchor="middle" opacity="0" stroke-opacity="0">C</text>
<g class="stroked-text"><desc>C</desc>
<path d="M11.4024 135.4698
L11.3405 135.5317
" />
<path d="M11.3405 135.5317
L11.1548 135.5936
" />
<path d="M11.1548 135.5936
L11.0310 135.5936
" />
<path d="M11.0310 135.5936
L10.8452 135.5317
" />
<path d="M10.8452 135.5317
L10.7214 135.4079
" />
<path d="M10.7214 135.4079
L10.6595 135.2841
" />
<path d="M10.6595 135.2841
L10.5976 135.0365
" />
<path d="M10.5976 135.0365
L10.5976 134.8507
" />
<path d="M10.5976 134.8507
L10.6595 134.6031
" />
<path d="M10.6595 134.6031
L10.7214 134.4793
" />
<path d="M10.7214 134.4793
L10.8452 134.3555
" />
<path d="M10.8452 134.3555
L11.0310 134.2936
" />
<path d="M11.0310 134.2936
L11.1548 134.2936
" />
<path d="M11.1548 134.2936
L11.3405 134.3555
" />
<path d="M11.3405 134.3555
L11.4024 134.4174
" />
</g></g>
<g style="fill:none; 
stroke:#000000; stroke-width:0.1500; stroke-opacity:1; 
stroke-linecap:round; stroke-linejoin:round;">
<text x="11.0000" y="185.6500"
textLength="1.4900" font-size="1.7333" lengthAdjust="spacingAndGlyphs"
text-anchor="middle" opacity="0" stroke-opacity="0">D</text>
<g class="stroked-text"><desc>D</desc>
<path d="M10.6595 185.5936
L10.6595 184.2936
" />
<path d="M10.6595 184.2936
L10.9690 184.2936
" />
<path d="M10.9690 184.2936
L11.1548 184.3555
" />
<path d="M11.1548 184.3555
L11.2786 184.4793
" />
<path d="M11.2786 184.4793
L11.3405 184.6031
" />
<path d="M11.3405 184.6031
L11.4024 184.8507
" />
<path d="M11.4024 184.8507
L11.4024 185.0365
" />
<path d="M11.4024 185.0365
L11.3405 185.2841
" />
<path d="M11.3405 185.2841
L11.2786 185.4079
" />
<path d="M11.2786 185.4079
L11.1548 185.5317
" />
<path d="M11.1548 185.5317
L10.9690 185.5936
" />
<path d="M10.9690 185.5936
L10.6595 185.5936
" />
</g></g>
<g style="fill:none; 
stroke:#000000; stroke-width:0.1500; stroke-opacity:1; 
stroke-linecap:round; stroke-linejoin:round;">
<path d="M287.0022 60.0000
L285.0022 60.0000
" />
</g>
<g style="fill:none; 
stroke:#000000; stroke-width:0.1500; stroke-opacity:1; 
stroke-linecap:round; stroke-linejoin:round;">
<path d="M287.0022 110.0000
L285.0022 110.0000
" />
</g>
<g style="fill:none; 
stroke:#000000; stroke-width:0.1500; stroke-opacity:1; 
stroke-linecap:round; stroke-linejoin:round;">
<path d="M287.0022 160.0000
L285.0022 160.0000
" />
</g>
<g style="fill:none; 
stroke:#000000; stroke-width:0.1500; stroke-opacity:1; 
stroke-linecap:round; stroke-linejoin:round;">
<text x="286.0022" y="35.6500"
textLength="1.3043" font-size="1.7333" lengthAdjust="spacingAndGlyphs"
text-anchor="middle" opacity="0" stroke-opacity="0">A</text>
<g class="stroked-text"><desc>A</desc>
<path d="M285.6927 35.2222
L286.3117 35.2222
" />
<path d="M285.5689 35.5936
L286.0022 34.2936
" />
<path d="M286.0022 34.2936
L286.4355 35.5936
" />
</g></g>
<g style="fill:none; 
stroke:#000000; stroke-width:0.1500; stroke-opacity:1; 
stroke-linecap:round; stroke-linejoin:round;">
<text x="286.0022" y="85.6500"
textLength="1.4900" font-size="1.7333" lengthAdjust="spacingAndGlyphs"
text-anchor="middle" opacity="0" stroke-opacity="0">B</text>
<g class="stroked-text"><desc>B</desc>
<path d="M286.0951 84.9127
L286.2808 84.9746
" />
<path d="M286.2808 84.9746
L286.3427 85.0365
" />
<path d="M286.3427 85.0365
L286.4046 85.1603
" />
<path d="M286.4046 85.1603
L286.4046 85.3460
" />
<path d="M286.4046 85.3460
L286.3427 85.4698
" />
<path d="M286.3427 85.4698
L286.2808 85.5317
" />
<path d="M286.2808 85.5317
L286.1570 85.5936
" />
<path d="M286.1570 85.5936
L285.6617 85.5936
" />
<path d="M285.6617 85.5936
L285.6617 84.2936
" />
<path d="M285.6617 84.2936
L286.0951 84.2936
" />
<path d="M286.0951 84.2936
L286.2189 84.3555
" />
<path d="M286.2189 84.3555
L286.2808 84.4174
" />
<path d="M286.2808 84.4174
L286.3427 84.5412
" />
<path d="M286.3427 84.5412
L286.3427 84.6650
" />
<path d="M286.3427 84.6650
L286.2808 84.7888
" />
<path d="M286.2808 84.7888
L286.2189 84.8507
" />
<path d="M286.2189 84.8507
L286.0951 84.9127
" />
<path d="M286.0951 84.9127
L285.6617 84.9127
" />
</g></g>
<g style="fill:none; 
stroke:#000000; stroke-width:0.1500; stroke-opacity:1; 
stroke-linecap:round; stroke-linejoin:round;">
<text x="286.0022" y="135.6500"
textLength="1.4900" font-size="1.7333" lengthAdjust="spacingAndGlyphs"
text-anchor="middle" opacity="0" stroke-opacity="0">C</text>
<g class="stroked-text"><desc>C</desc>
<path d="M286.4046 135.4698
L286.3427 135.5317
" />
<path d="M286.3427 135.5317
L286.1570 135.5936
" />
<path d="M286.1570 135.5936
L286.0332 135.5936
" />
<path d="M286.0332 135.5936
L285.8474 135.5317
" />
<path d="M285.8474 135.5317
L285.7236 135.4079
" />
<path d="M285.7236 135.4079
L285.6617 135.2841
" />
<path d="M285.6617 135.2841
L285.5998 135.0365
" />
<path d="M285.5998 135.0365
L285.5998 134.8507
" />
<path d="M285.5998 134.8507
L285.6617 134.6031
" />
<path d="M285.6617 134.6031
L285.7236 134.4793
" />
<path d="M285.7236 134.4793
L285.8474 134.3555
" />
<path d="M285.8474 134.3555
L286.0332 134.2936
" />
<path d="M286.0332 134.2936
L286.1570 134.2936
" />
<path d="M286.1570 134.2936
L286.3427 134.3555
" />
<path d="M286.3427 134.3555
L286.4046 134.4174
" />
</g></g>
<g style="fill:none; 
stroke:#000000; stroke-width:0.1500; stroke-opacity:1; 
stroke-linecap:round; stroke-linejoin:round;">
<text x="286.0022" y="185.6500"
textLength="1.4900" font-size="1.7333" lengthAdjust="spacingAndGlyphs"
text-anchor="middle" opacity="0" stroke-opacity="0">D</text>
<g class="stroked-text"><desc>D</desc>
<path d="M285.6617 185.5936
L285.6617 184.2936
" />
<path d="M285.6617 184.2936
L285.9712 184.2936
" />
<path d="M285.9712 184.2936
L286.1570 184.3555
" />
<path d="M286.1570 184.3555
L286.2808 184.4793
" />
<path d="M286.2808 184.4793
L286.3427 184.6031
" />
<path d="M286.3427 184.6031
L286.4046 184.8507
" />
<path d="M286.4046 184.8507
L286.4046 185.0365
" />
<path d="M286.4046 185.0365
L286.3427 185.2841
" />
<path d="M286.3427 185.2841
L286.2808 185.4079
" />
<path d="M286.2808 185.4079
L286.1570 185.5317
" />
<path d="M286.1570 185.5317
L285.9712 185.5936
" />
<path d="M285.9712 185.5936
L285.6617 185.5936
" />
</g></g>
<g style="fill:none; 
stroke:#000000; stroke-width:0.1500; stroke-opacity:1; 
stroke-linecap:round; stroke-linejoin:round;">
<text x="200.0022" y="193.8572"
textLength="7.0071" font-size="2.0000" lengthAdjust="spacingAndGlyphs"
text-anchor="start" opacity="0" stroke-opacity="0">Date: </text>
<g class="stroked-text"><desc>Date: </desc>
<path d="M200.4580 193.7933
L200.4580 192.2933
" />
<path d="M200.4580 192.2933
L200.8152 192.2933
" />
<path d="M200.8152 192.2933
L201.0295 192.3648
" />
<path d="M201.0295 192.3648
L201.1723 192.5076
" />
<path d="M201.1723 192.5076
L201.2437 192.6505
" />
<path d="M201.2437 192.6505
L201.3152 192.9362
" />
<path d="M201.3152 192.9362
L201.3152 193.1505
" />
<path d="M201.3152 193.1505
L201.2437 193.4362
" />
<path d="M201.2437 193.4362
L201.1723 193.5790
" />
<path d="M201.1723 193.5790
L201.0295 193.7219
" />
<path d="M201.0295 193.7219
L200.8152 193.7933
" />
<path d="M200.8152 193.7933
L200.4580 193.7933
" />
<path d="M202.6009 193.7933
L202.6009 193.0076
" />
<path d="M202.6009 193.0076
L202.5295 192.8648
" />
<path d="M202.5295 192.8648
L202.3866 192.7933
" />
<path d="M202.3866 192.7933
L202.1009 192.7933
" />
<path d="M202.1009 192.7933
L201.9580 192.8648
" />
<path d="M202.6009 193.7219
L202.4580 193.7933
" />
<path d="M202.4580 193.7933
L202.1009 193.7933
" />
<path d="M202.1009 193.7933
L201.9580 193.7219
" />
<path d="M201.9580 193.7219
L201.8866 193.5790
" />
<path d="M201.8866 193.5790
L201.8866 193.4362
" />
<path d="M201.8866 193.4362
L201.9580 193.2933
" />
<path d="M201.9580 193.2933
L202.1009 193.2219
" />
<path d="M202.1009 193.2219
L202.4580 193.2219
" />
<path d="M202.4580 193.2219
L202.6009 193.1505
" />
<path d="M203.1009 192.7933
L203.6723 192.7933
" />
<path d="M203.3152 192.2933
L203.3152 193.5790
" />
<path d="M203.3152 193.5790
L203.3866 193.7219
" />
<path d="M203.3866 193.7219
L203.5295 193.7933
" />
<path d="M203.5295 193.7933
L203.6723 193.7933
" />
<path d="M204.7437 193.7219
L204.6009 193.7933
" />
<path d="M204.6009 193.7933
L204.3152 193.7933
" />
<path d="M204.3152 193.7933
L204.1723 193.7219
" />
<path d="M204.1723 193.7219
L204.1009 193.5790
" />
<path d="M204.1009 193.5790
L204.1009 193.0076
" />
<path d="M204.1009 193.0076
L204.1723 192.8648
" />
<path d="M204.1723 192.8648
L204.3152 192.7933
" />
<path d="M204.3152 192.7933
L204.6009 192.7933
" />
<path d="M204.6009 192.7933
L204.7437 192.8648
" />
<path d="M204.7437 192.8648
L204.8152 193.0076
" />
<path d="M204.8152 193.0076
L204.8152 193.1505
" />
<path d="M204.8152 193.1505
L204.1009 193.2933
" />
<path d="M205.4580 193.6505
L205.5295 193.7219
" />
<path d="M205.5295 193.7219
L205.4580 193.7933
" />
<path d="M205.4580 193.7933
L205.3866 193.7219
" />
<path d="M205.3866 193.7219
L205.4580 193.6505
" />
<path d="M205.4580 193.6505
L205.4580 193.7933
" />
<path d="M205.4580 192.8648
L205.5295 192.9362
" />
<path d="M205.5295 192.9362
L205.4580 193.0076
" />
<path d="M205.4580 193.0076
L205.3866 192.9362
" />
<path d="M205.3866 192.9362
L205.4580 192.8648
" />
<path d="M205.4580 192.8648
L205.4580 193.0076
" />
</g></g>
<g style="fill:none; 
stroke:#000000; stroke-width:0.1500; stroke-opacity:1; 
stroke-linecap:round; stroke-linejoin:round;">
<path d="M177.0022 194.5072
L285.0022 194.5072
" />
</g>
<g style="fill:none; 
stroke:#000000; stroke-width:0.1500; stroke-opacity:1; 
stroke-linecap:round; stroke-linejoin:round;">
<text x="178.0022" y="196.6572"
textLength="20.6500" font-size="2.0000" lengthAdjust="spacingAndGlyphs"
text-anchor="start" opacity="0" stroke-opacity="0">${KICAD_VERSION}</text>
<g class="stroked-text"><desc>${KICAD_VERSION}</desc>
<path d="M178.3866 196.5219
L178.6009 196.5933
" />
<path d="M178.6009 196.5933
L178.9580 196.5933
" />
<path d="M178.9580 196.5933
L179.1009 196.5219
" />
<path d="M179.1009 196.5219
L179.1723 196.4505
" />
<path d="M179.1723 196.4505
L179.2437 196.3076
" />
<path d="M179.2437 196.3076
L179.2437 196.1648
" />
<path d="M179.2437 196.1648
L179.1723 196.0219
" />
<path d="M179.1723 196.0219
L179.1009 195.9505
" />
<path d="M179.1009 195.9505
L178.9580 195.8790
" />
<path d="M178.9580 195.8790
L178.6723 195.8076
" />
<path d="M178.6723 195.8076
L178.5295 195.7362
" />
<path d="M178.5295 195.7362
L178.4580 195.6648
" />
<path d="M178.4580 195.6648
L178.3866 195.5219
" />
<path d="M178.3866 195.5219
L178.3866 195.3790
" />
<path d="M178.3866 195.3790
L178.4580 195.2362
" />
<path d="M178.4580 195.2362
L178.5295 195.1648
" />
<path d="M178.5295 195.1648
L178.6723 195.0933
" />
<path d="M178.6723 195.0933
L179.0295 195.0933
" />
<path d="M179.0295 195.0933
L179.2437 195.1648
" />
<path d="M178.8152 194.8790
L178.8152 196.8076
" />
<path d="M180.3152 197.1648
L180.2437 197.1648
" />
<path d="M180.2437 197.1648
L180.1009 197.0933
" />
<path d="M180.1009 197.0933
L180.0295 196.9505
" />
<path d="M180.0295 196.9505
L180.0295 196.2362
" />
<path d="M180.0295 196.2362
L179.9580 196.0933
" />
<path d="M179.9580 196.0933
L179.8152 196.0219
" />
<path d="M179.8152 196.0219
L179.9580 195.9505
" />
<path d="M179.9580 195.9505
L180.0295 195.8076
" />
<path d="M180.0295 195.8076
L180.0295 195.0933
" />
<path d="M180.0295 195.0933
L180.1009 194.9505
" />
<path d="M180.1009 194.9505
L180.2437 194.8790
" />
<path d="M180.2437 194.8790
L180.3152 194.8790
" />
<path d="M180.8866 196.5933
L180.8866 195.0933
" />
<path d="M181.7437 196.5933
L181.1009 195.7362
" />
<path d="M181.7437 195.0933
L180.8866 195.9505
" />
<path d="M182.3866 196.5933
L182.3866 195.0933
" />
<path d="M183.9580 196.4505
L183.8866 196.5219
" />
<path d="M183.8866 196.5219
L183.6723 196.5933
" />
<path d="M183.6723 196.5933
L183.5295 196.5933
" />
<path d="M183.5295 196.5933
L183.3152 196.5219
" />
<path d="M183.3152 196.5219
L183.1723 196.3790
" />
<path d="M183.1723 196.3790
L183.1009 196.2362
" />
<path d="M183.1009 196.2362
L183.0295 195.9505
" />
<path d="M183.0295 195.9505
L183.0295 195.7362
" />
<path d="M183.0295 195.7362
L183.1009 195.4505
" />
<path d="M183.1009 195.4505
L183.1723 195.3076
" />
<path d="M183.1723 195.3076
L183.3152 195.1648
" />
<path d="M183.3152 195.1648
L183.5295 195.0933
" />
<path d="M183.5295 195.0933
L183.6723 195.0933
" />
<path d="M183.6723 195.0933
L183.8866 195.1648
" />
<path d="M183.8866 195.1648
L183.9580 195.2362
" />
<path d="M184.5295 196.1648
L185.2437 196.1648
" />
<path d="M184.3866 196.5933
L184.8866 195.0933
" />
<path d="M184.8866 195.0933
L185.3866 196.5933
" />
<path d="M185.8866 196.5933
L185.8866 195.0933
" />
<path d="M185.8866 195.0933
L186.2437 195.0933
" />
<path d="M186.2437 195.0933
L186.4580 195.1648
" />
<path d="M186.4580 195.1648
L186.6009 195.3076
" />
<path d="M186.6009 195.3076
L186.6723 195.4505
" />
<path d="M186.6723 195.4505
L186.7437 195.7362
" />
<path d="M186.7437 195.7362
L186.7437 195.9505
" />
<path d="M186.7437 195.9505
L186.6723 196.2362
" />
<path d="M186.6723 196.2362
L186.6009 196.3790
" />
<path d="M186.6009 196.3790
L186.4580 196.5219
" />
<path d="M186.4580 196.5219
L186.2437 196.5933
" />
<path d="M186.2437 196.5933
L185.8866 196.5933
" />
<path d="M187.0295 196.7362
L188.1723 196.7362
" />
<path d="M188.3152 195.0933
L188.8152 196.5933
" />
<path d="M188.8152 196.5933
L189.3152 195.0933
" />
<path d="M189.8152 195.8076
L190.3152 195.8076
" />
<path d="M190.5295 196.5933
L189.8152 196.5933
" />
<path d="M189.8152 196.5933
L189.8152 195.0933
" />
<path d="M189.8152 195.0933
L190.5295 195.0933
" />
<path d="M192.0295 196.5933
L191.5295 195.8790
" />
<path d="M191.1723 196.5933
L191.1723 195.0933
" />
<path d="M191.1723 195.0933
L191.7437 195.0933
" />
<path d="M191.7437 195.0933
L191.8866 195.1648
" />
<path d="M191.8866 195.1648
L191.9580 195.2362
" />
<path d="M191.9580 195.2362
L192.0295 195.3790
" />
<path d="M192.0295 195.3790
L192.0295 195.5933
" />
<path d="M192.0295 195.5933
L191.9580 195.7362
" />
<path d="M191.9580 195.7362
L191.8866 195.8076
" />
<path d="M191.8866 195.8076
L191.7437 195.8790
" />
<path d="M191.7437 195.8790
L191.1723 195.8790
" />
<path d="M192.6009 196.5219
L192.8152 196.5933
" />
<path d="M192.8152 196.5933
L193.1723 196.5933
" />
<path d="M193.1723 196.5933
L193.3152 196.5219
" />
<path d="M193.3152 196.5219
L193.3866 196.4505
" />
<path d="M193.3866 196.4505
L193.4580 196.3076
" />
<path d="M193.4580 196.3076
L193.4580 196.1648
" />
<path d="M193.4580 196.1648
L193.3866 196.0219
" />
<path d="M193.3866 196.0219
L193.3152 195.9505
" />
<path d="M193.3152 195.9505
L193.1723 195.8790
" />
<path d="M193.1723 195.8790
L192.8866 195.8076
" />
<path d="M192.8866 195.8076
L192.7437 195.7362
" />
<path d="M192.7437 195.7362
L192.6723 195.6648
" />
<path d="M192.6723 195.6648
L192.6009 195.5219
" />
<path d="M192.6009 195.5219
L192.6009 195.3790
" />
<path d="M192.6009 195.3790
L192.6723 195.2362
" />
<path d="M192.6723 195.2362
L192.7437 195.1648
" />
<path d="M192.7437 195.1648
L192.8866 195.0933
" />
<path d="M192.8866 195.0933
L193.2437 195.0933
" />
<path d="M193.2437 195.0933
L193.4580 195.1648
" />
<path d="M194.1009 196.5933
L194.1009 195.0933
" />
<path d="M195.1009 195.0933
L195.3866 195.0933
" />
<path d="M195.3866 195.0933
L195.5295 195.1648
" />
<path d="M195.5295 195.1648
L195.6723 195.3076
" />
<path d="M195.6723 195.3076
L195.7437 195.5933
" />
<path d="M195.7437 195.5933
L195.7437 196.0933
" />
<path d="M195.7437 196.0933
L195.6723 196.3790
" />
<path d="M195.6723 196.3790
L195.5295 196.5219
" />
<path d="M195.5295 196.5219
L195.3866 196.5933
" />
<path d="M195.3866 196.5933
L195.1009 196.5933
" />
<path d="M195.1009 196.5933
L194.9580 196.5219
" />
<path d="M194.9580 196.5219
L194.8152 196.3790
" />
<path d="M194.8152 196.3790
L194.7437 196.0933
" />
<path d="M194.7437 196.0933
L194.7437 195.5933
" />
<path d="M194.7437 195.5933
L194.8152 195.3076
" />
<path d="M194.8152 195.3076
L194.9580 195.1648
" />
<path d="M194.9580 195.1648
L195.1009 195.0933
" />
<path d="M196.3866 196.5933
L196.3866 195.0933
" />
<path d="M196.3866 195.0933
L197.2437 196.5933
" />
<path d="M197.2437 196.5933
L197.2437 195.0933
" />
<path d="M197.8152 197.1648
L197.8866 197.1648
" />
<path d="M197.8866 197.1648
L198.0295 197.0933
" />
<path d="M198.0295 197.0933
L198.1009 196.9505
" />
<path d="M198.1009 196.9505
L198.1009 196.2362
" />
<path d="M198.1009 196.2362
L198.1723 196.0933
" />
<path d="M198.1723 196.0933
L198.3152 196.0219
" />
<path d="M198.3152 196.0219
L198.1723 195.9505
" />
<path d="M198.1723 195.9505
L198.1009 195.8076
" />
<path d="M198.1009 195.8076
L198.1009 195.0933
" />
<path d="M198.1009 195.0933
L198.0295 194.9505
" />
<path d="M198.0295 194.9505
L197.8866 194.8790
" />
<path d="M197.8866 194.8790
L197.8152 194.8790
" />
</g></g>
<g style="fill:none; 
stroke:#000000; stroke-width:0.1500; stroke-opacity:1; 
stroke-linecap:round; stroke-linejoin:round;">
<path d="M177.0022 191.5072
L285.0022 191.5072
" />
</g>
<g style="fill:none; 
stroke:#000000; stroke-width:0.3000; stroke-opacity:1; 
stroke-linecap:round; stroke-linejoin:round;">
<text x="263.0022" y="193.8572"
textLength="6.3857" font-size="2.0000" lengthAdjust="spacingAndGlyphs"
text-anchor="start" opacity="0" stroke-opacity="0">Rev: </text>
<g class="stroked-text"><desc>Rev: </desc>
<path d="M264.4139 193.7855
L263.9139 193.0712
" />
<path d="M263.5567 193.7855
L263.5567 192.2855
" />
<path d="M263.5567 192.2855
L264.1281 192.2855
" />
<path d="M264.1281 192.2855
L264.2710 192.3570
" />
<path d="M264.2710 192.3570
L264.3424 192.4284
" />
<path d="M264.3424 192.4284
L264.4139 192.5712
" />
<path d="M264.4139 192.5712
L264.4139 192.7855
" />
<path d="M264.4139 192.7855
L264.3424 192.9284
" />
<path d="M264.3424 192.9284
L264.2710 192.9998
" />
<path d="M264.2710 192.9998
L264.1281 193.0712
" />
<path d="M264.1281 193.0712
L263.5567 193.0712
" />
<path d="M265.6281 193.7141
L265.4853 193.7855
" />
<path d="M265.4853 193.7855
L265.1996 193.7855
" />
<path d="M265.1996 193.7855
L265.0567 193.7141
" />
<path d="M265.0567 193.7141
L264.9853 193.5712
" />
<path d="M264.9853 193.5712
L264.9853 192.9998
" />
<path d="M264.9853 192.9998
L265.0567 192.8570
" />
<path d="M265.0567 192.8570
L265.1996 192.7855
" />
<path d="M265.1996 192.7855
L265.4853 192.7855
" />
<path d="M265.4853 192.7855
L265.6281 192.8570
" />
<path d="M265.6281 192.8570
L265.6996 192.9998
" />
<path d="M265.6996 192.9998
L265.6996 193.1427
" />
<path d="M265.6996 193.1427
L264.9853 193.2855
" />
<path d="M266.1996 192.7855
L266.5567 193.7855
" />
<path d="M266.5567 193.7855
L266.9139 192.7855
" />
<path d="M267.4853 193.6427
L267.5567 193.7141
" />
<path d="M267.5567 193.7141
L267.4853 193.7855
" />
<path d="M267.4853 193.7855
L267.4139 193.7141
" />
<path d="M267.4139 193.7141
L267.4853 193.6427
" />
<path d="M267.4853 193.6427
L267.4853 193.7855
" />
<path d="M267.4853 192.8570
L267.5567 192.9284
" />
<path d="M267.5567 192.9284
L267.4853 192.9998
" />
<path d="M267.4853 192.9998
L267.4139 192.9284
" />
<path d="M267.4139 192.9284
L267.4853 192.8570
" />
<path d="M267.4853 192.8570
L267.4853 192.9998
" />
</g></g>
<g style="fill:none; 
stroke:#000000; stroke-width:0.1500; stroke-opacity:1; 
stroke-linecap:round; stroke-linejoin:round;">
<text x="178.0022" y="193.8572"
textLength="9.3643" font-size="2.0000" lengthAdjust="spacingAndGlyphs"
text-anchor="start" opacity="0" stroke-opacity="0">Size: A4</text>
<g class="stroked-text"><desc>Size: A4</desc>
<path d="M178.3866 193.7219
L178.6009 193.7933
" />
<path d="M178.6009 193.7933
L178.9580 193.7933
" />
<path d="M178.9580 193.7933
L179.1009 193.7219
" />
<path d="M179.1009 193.7219
L179.1723 193.6505
" />
<path d="M179.1723 193.6505
L179.2437 193.5076
" />
<path d="M179.2437 193.5076
L179.2437 193.3648
" />
<path d="M179.2437 193.3648
L179.1723 193.2219
" />
<path d="M179.1723 193.2219
L179.1009 193.1505
" />
<path d="M179.1009 193.1505
L178.9580 193.0790
" />
<path d="M178.9580 193.0790
L178.6723 193.0076
" />
<path d="M178.6723 193.0076
L178.5295 192.9362
" />
<path d="M178.5295 192.9362
L178.4580 192.8648
" />
<path d="M178.4580 192.8648
L178.3866 192.7219
" />
<path d="M178.3866 192.7219
L178.3866 192.5790
" />
<path d="M178.3866 192.5790
L178.4580 192.4362
" />
<path d="M178.4580 192.4362
L178.5295 192.3648
" />
<path d="M178.5295 192.3648
L178.6723 192.2933
" />
<path d="M178.6723 192.2933
L179.0295 192.2933
" />
<path d="M179.0295 192.2933
L179.2437 192.3648
" />
<path d="M179.8866 193.7933
L179.8866 192.7933
" />
<path d="M179.8866 192.2933
L179.8152 192.3648
" />
<path d="M179.8152 192.3648
L179.8866 192.4362
" />
<path d="M179.8866 192.4362
L179.9580 192.3648
" />
<path d="M179.9580 192.3648
L179.8866 192.2933
" />
<path d="M179.8866 192.2933
L179.8866 192.4362
" />
<path d="M180.4580 192.7933
L181.2437 192.7933
" />
<path d="M181.2437 192.7933
L180.4580 193.7933
" />
<path d="M180.4580 193.7933
L181.2437 193.7933
" />
<path d="M182.3866 193.7219
L182.2437 193.7933
" />
<path d="M182.2437 193.7933
L181.9580 193.7933
" />
<path d="M181.9580 193.7933
L181.8152 193.7219
" />
<path d="M181.8152 193.7219
L181.7437 193.5790
" />
<path d="M181.7437 193.5790
L181.7437 193.0076
" />
<path d="M181.7437 193.0076
L181.8152 192.8648
" />
<path d="M181.8152 192.8648
L181.9580 192.7933
" />
<path d="M181.9580 192.7933
L182.2437 192.7933
" />
<path d="M182.2437 192.7933
L182.3866 192.8648
" />
<path d="M182.3866 192.8648
L182.4580 193.0076
" />
<path d="M182.4580 193.0076
L182.4580 193.1505
" />
<path d="M182.4580 193.1505
L181.7437 193.2933
" />
<path d="M183.1009 193.6505
L183.1723 193.7219
" />
<path d="M183.1723 193.7219
L183.1009 193.7933
" />
<path d="M183.1009 193.7933
L183.0295 193.7219
" />
<path d="M183.0295 193.7219
L183.1009 193.6505
" />
<path d="M183.1009 193.6505
L183.1009 193.7933
" />
<path d="M183.1009 192.8648
L183.1723 192.9362
" />
<path d="M183.1723 192.9362
L183.1009 193.0076
" />
<path d="M183.1009 193.0076
L183.0295 192.9362
" />
<path d="M183.0295 192.9362
L183.1009 192.8648
" />
<path d="M183.1009 192.8648
L183.1009 193.0076
" />
<path d="M184.8866 193.3648
L185.6009 193.3648
" />
<path d="M184.7437 193.7933
L185.2437 192.2933
" />
<path d="M185.2437 192.2933
L185.7437 193.7933
" />
<path d="M186.8866 192.7933
L186.8866 193.7933
" />
<path d="M186.5295 192.2219
L186.1723 193.2933
" />
<path d="M186.1723 193.2933
L187.1009 193.2933
" />
</g></g>
<g style="fill:none; 
stroke:#000000; stroke-width:0.1500; stroke-opacity:1; 
stroke-linecap:round; stroke-linejoin:round;">
<text x="263.0022" y="196.6572"
textLength="7.0786" font-size="2.0000" lengthAdjust="spacingAndGlyphs"
text-anchor="start" opacity="0" stroke-opacity="0">Id: /1</text>
<g class="stroked-text"><desc>Id: /1</desc>
<path d="M263.4580 196.5933
L263.4580 195.0933
" />
<path d="M264.8152 196.5933
L264.8152 195.0933
" />
<path d="M264.8152 196.5219
L264.6723 196.5933
" />
<path d="M264.6723 196.5933
L264.3866 196.5933
" />
<path d="M264.3866 196.5933
L264.2437 196.5219
" />
<path d="M264.2437 196.5219
L264.1723 196.4505
" />
<path d="M264.1723 196.4505
L264.1009 196.3076
" />
<path d="M264.1009 196.3076
L264.1009 195.8790
" />
<path d="M264.1009 195.8790
L264.1723 195.7362
" />
<path d="M264.1723 195.7362
L264.2437 195.6648
" />
<path d="M264.2437 195.6648
L264.3866 195.5933
" />
<path d="M264.3866 195.5933
L264.6723 195.5933
" />
<path d="M264.6723 195.5933
L264.8152 195.6648
" />
<path d="M265.5295 196.4505
L265.6009 196.5219
" />
<path d="M265.6009 196.5219
L265.5295 196.5933
" />
<path d="M265.5295 196.5933
L265.4580 196.5219
" />
<path d="M265.4580 196.5219
L265.5295 196.4505
" />
<path d="M265.5295 196.4505
L265.5295 196.5933
" />
<path d="M265.5295 195.6648
L265.6009 195.7362
" />
<path d="M265.6009 195.7362
L265.5295 195.8076
" />
<path d="M265.5295 195.8076
L265.4580 195.7362
" />
<path d="M265.4580 195.7362
L265.5295 195.6648
" />
<path d="M265.5295 195.6648
L265.5295 195.8076
" />
<path d="M268.4580 195.0219
L267.1723 196.9505
" />
<path d="M269.7437 196.5933
L268.8866 196.5933
" />
<path d="M269.3152 196.5933
L269.3152 195.0933
" />
<path d="M269.3152 195.0933
L269.1723 195.3076
" />
<path d="M269.1723 195.3076
L269.0295 195.4505
" />
<path d="M269.0295 195.4505
L268.8866 195.5219
" />
</g></g>
<g style="fill:none; 
stroke:#000000; stroke-width:0.1500; stroke-opacity:1; 
stroke-linecap:round; stroke-linejoin:round;">
<path d="M177.0022 187.5072
L285.0022 187.5072
" />
</g>
<g style="fill:none; 
stroke:#000000; stroke-width:0.4000; stroke-opacity:1; 
stroke-linecap:round; stroke-linejoin:round;">
<text x="178.0022" y="190.3072"
textLength="9.6571" font-size="2.6667" lengthAdjust="spacingAndGlyphs"
text-anchor="start" opacity="0" stroke-opacity="0">Title: </text>
<g class="stroked-text"><desc>Title: </desc>
<path d="M178.6939 188.2116
L179.8368 188.2116
" />
<path d="M179.0154 190.2116
L179.2654 188.2116
" />
<path d="M180.2535 190.2116
L180.4201 188.8783
" />
<path d="M180.5035 188.2116
L180.3963 188.3069
" />
<path d="M180.3963 188.3069
L180.4796 188.4021
" />
<path d="M180.4796 188.4021
L180.5868 188.3069
" />
<path d="M180.5868 188.3069
L180.5035 188.2116
" />
<path d="M180.5035 188.2116
L180.4796 188.4021
" />
<path d="M181.0868 188.8783
L181.8487 188.8783
" />
<path d="M181.4558 188.2116
L181.2415 189.9259
" />
<path d="M181.2415 189.9259
L181.3130 190.1164
" />
<path d="M181.3130 190.1164
L181.4915 190.2116
" />
<path d="M181.4915 190.2116
L181.6820 190.2116
" />
<path d="M182.6344 190.2116
L182.4558 190.1164
" />
<path d="M182.4558 190.1164
L182.3844 189.9259
" />
<path d="M182.3844 189.9259
L182.5987 188.2116
" />
<path d="M184.1701 190.1164
L183.9677 190.2116
" />
<path d="M183.9677 190.2116
L183.5868 190.2116
" />
<path d="M183.5868 190.2116
L183.4082 190.1164
" />
<path d="M183.4082 190.1164
L183.3368 189.9259
" />
<path d="M183.3368 189.9259
L183.4320 189.1640
" />
<path d="M183.4320 189.1640
L183.5511 188.9735
" />
<path d="M183.5511 188.9735
L183.7535 188.8783
" />
<path d="M183.7535 188.8783
L184.1344 188.8783
" />
<path d="M184.1344 188.8783
L184.3130 188.9735
" />
<path d="M184.3130 188.9735
L184.3844 189.1640
" />
<path d="M184.3844 189.1640
L184.3606 189.3545
" />
<path d="M184.3606 189.3545
L183.3844 189.5450
" />
<path d="M185.1344 190.0212
L185.2177 190.1164
" />
<path d="M185.2177 190.1164
L185.1106 190.2116
" />
<path d="M185.1106 190.2116
L185.0273 190.1164
" />
<path d="M185.0273 190.1164
L185.1344 190.0212
" />
<path d="M185.1344 190.0212
L185.1106 190.2116
" />
<path d="M185.2654 188.9735
L185.3487 189.0688
" />
<path d="M185.3487 189.0688
L185.2415 189.1640
" />
<path d="M185.2415 189.1640
L185.1582 189.0688
" />
<path d="M185.1582 189.0688
L185.2654 188.9735
" />
<path d="M185.2654 188.9735
L185.2415 189.1640
" />
</g></g>
<g style="fill:none; 
stroke:#000000; stroke-width:0.1500; stroke-opacity:1; 
stroke-linecap:round; stroke-linejoin:round;">
<text x="178.0022" y="186.4572"
textLength="36.7929" font-size="2.0000" lengthAdjust="spacingAndGlyphs"
text-anchor="start" opacity="0" stroke-opacity="0">File: modulo_seguidor.kicad_pcb</text>
<g class="stroked-text"><desc>File: modulo_seguidor.kicad_pcb</desc>
<path d="M178.9580 185.6076
L178.4580 185.6076
" />
<path d="M178.4580 186.3933
L178.4580 184.8933
" />
<path d="M178.4580 184.8933
L179.1723 184.8933
" />
<path d="M179.7437 186.3933
L179.7437 185.3933
" />
<path d="M179.7437 184.8933
L179.6723 184.9648
" />
<path d="M179.6723 184.9648
L179.7437 185.0362
" />
<path d="M179.7437 185.0362
L179.8152 184.9648
" />
<path d="M179.8152 184.9648
L179.7437 184.8933
" />
<path d="M179.7437 184.8933
L179.7437 185.0362
" />
<path d="M180.6723 186.3933
L180.5295 186.3219
" />
<path d="M180.5295 186.3219
L180.4580 186.1790
" />
<path d="M180.4580 186.1790
L180.4580 184.8933
" />
<path d="M181.8152 186.3219
L181.6723 186.3933
" />
<path d="M181.6723 186.3933
L181.3866 186.3933
" />
<path d="M181.3866 186.3933
L181.2437 186.3219
" />
<path d="M181.2437 186.3219
L181.1723 186.1790
" />
<path d="M181.1723 186.1790
L181.1723 185.6076
" />
<path d="M181.1723 185.6076
L181.2437 185.4648
" />
<path d="M181.2437 185.4648
L181.3866 185.3933
" />
<path d="M181.3866 185.3933
L181.6723 185.3933
" />
<path d="M181.6723 185.3933
L181.8152 185.4648
" />
<path d="M181.8152 185.4648
L181.8866 185.6076
" />
<path d="M181.8866 185.6076
L181.8866 185.7505
" />
<path d="M181.8866 185.7505
L181.1723 185.8933
" />
<path d="M182.5295 186.2505
L182.6009 186.3219
" />
<path d="M182.6009 186.3219
L182.5295 186.3933
" />
<path d="M182.5295 186.3933
L182.4580 186.3219
" />
<path d="M182.4580 186.3219
L182.5295 186.2505
" />
<path d="M182.5295 186.2505
L182.5295 186.3933
" />
<path d="M182.5295 185.4648
L182.6009 185.5362
" />
<path d="M182.6009 185.5362
L182.5295 185.6076
" />
<path d="M182.5295 185.6076
L182.4580 185.5362
" />
<path d="M182.4580 185.5362
L182.5295 185.4648
" />
<path d="M182.5295 185.4648
L182.5295 185.6076
" />
<path d="M184.3866 186.3933
L184.3866 185.3933
" />
<path d="M184.3866 185.5362
L184.4580 185.4648
" />
<path d="M184.4580 185.4648
L184.6009 185.3933
" />
<path d="M184.6009 185.3933
L184.8152 185.3933
" />
<path d="M184.8152 185.3933
L184.9580 185.4648
" />
<path d="M184.9580 185.4648
L185.0295 185.6076
" />
<path d="M185.0295 185.6076
L185.0295 186.3933
" />
<path d="M185.0295 185.6076
L185.1009 185.4648
" />
<path d="M185.1009 185.4648
L185.2437 185.3933
" />
<path d="M185.2437 185.3933
L185.4580 185.3933
" />
<path d="M185.4580 185.3933
L185.6009 185.4648
" />
<path d="M185.6009 185.4648
L185.6723 185.6076
" />
<path d="M185.6723 185.6076
L185.6723 186.3933
" />
<path d="M186.6009 186.3933
L186.4580 186.3219
" />
<path d="M186.4580 186.3219
L186.3866 186.2505
" />
<path d="M186.3866 186.2505
L186.3152 186.1076
" />
<path d="M186.3152 186.1076
L186.3152 185.6790
" />
<path d="M186.3152 185.6790
L186.3866 185.5362
" />
<path d="M186.3866 185.5362
L186.4580 185.4648
" />
<path d="M186.4580 185.4648
L186.6009 185.3933
" />
<path d="M186.6009 185.3933
L186.8152 185.3933
" />
<path d="M186.8152 185.3933
L186.9580 185.4648
" />
<path d="M186.9580 185.4648
L187.0295 185.5362
" />
<path d="M187.0295 185.5362
L187.1009 185.6790
" />
<path d="M187.1009 185.6790
L187.1009 186.1076
" />
<path d="M187.1009 186.1076
L187.0295 186.2505
" />
<path d="M187.0295 186.2505
L186.9580 186.3219
" />
<path d="M186.9580 186.3219
L186.8152 186.3933
" />
<path d="M186.8152 186.3933
L186.6009 186.3933
" />
<path d="M188.3866 186.3933
L188.3866 184.8933
" />
<path d="M188.3866 186.3219
L188.2437 186.3933
" />
<path d="M188.2437 186.3933
L187.9580 186.3933
" />
<path d="M187.9580 186.3933
L187.8152 186.3219
" />
<path d="M187.8152 186.3219
L187.7437 186.2505
" />
<path d="M187.7437 186.2505
L187.6723 186.1076
" />
<path d="M187.6723 186.1076
L187.6723 185.6790
" />
<path d="M187.6723 185.6790
L187.7437 185.5362
" />
<path d="M187.7437 185.5362
L187.8152 185.4648
" />
<path d="M187.8152 185.4648
L187.9580 185.3933
" />
<path d="M187.9580 185.3933
L188.2437 185.3933
" />
<path d="M188.2437 185.3933
L188.3866 185.4648
" />
<path d="M189.7437 185.3933
L189.7437 186.3933
" />
<path d="M189.1009 185.3933
L189.1009 186.1790
" />
<path d="M189.1009 186.1790
L189.1723 186.3219
" />
<path d="M189.1723 186.3219
L189.3152 186.3933
" />
<path d="M189.3152 186.3933
L189.5295 186.3933
" />
<path d="M189.5295 186.3933
L189.6723 186.3219
" />
<path d="M189.6723 186.3219
L189.7437 186.2505
" />
<path d="M190.6723 186.3933
L190.5295 186.3219
" />
<path d="M190.5295 186.3219
L190.4580 186.1790
" />
<path d="M190.4580 186.1790
L190.4580 184.8933
" />
<path d="M191.4580 186.3933
L191.3152 186.3219
" />
<path d="M191.3152 186.3219
L191.2437 186.2505
" />
<path d="M191.2437 186.2505
L191.1723 186.1076
" />
<path d="M191.1723 186.1076
L191.1723 185.6790
" />
<path d="M191.1723 185.6790
L191.2437 185.5362
" />
<path d="M191.2437 185.5362
L191.3152 185.4648
" />
<path d="M191.3152 185.4648
L191.4580 185.3933
" />
<path d="M191.4580 185.3933
L191.6723 185.3933
" />
<path d="M191.6723 185.3933
L191.8152 185.4648
" />
<path d="M191.8152 185.4648
L191.8866 185.5362
" />
<path d="M191.8866 185.5362
L191.9580 185.6790
" />
<path d="M191.9580 185.6790
L191.9580 186.1076
" />
<path d="M191.9580 186.1076
L191.8866 186.2505
" />
<path d="M191.8866 186.2505
L191.8152 186.3219
" />
<path d="M191.8152 186.3219
L191.6723 186.3933
" />
<path d="M191.6723 186.3933
L191.4580 186.3933
" />
<path d="M192.2437 186.5362
L193.3866 186.5362
" />
<path d="M193.6723 186.3219
L193.8152 186.3933
" />
<path d="M193.8152 186.3933
L194.1009 186.3933
" />
<path d="M194.1009 186.3933
L194.2437 186.3219
" />
<path d="M194.2437 186.3219
L194.3152 186.1790
" />
<path d="M194.3152 186.1790
L194.3152 186.1076
" />
<path d="M194.3152 186.1076
L194.2437 185.9648
" />
<path d="M194.2437 185.9648
L194.1009 185.8933
" />
<path d="M194.1009 185.8933
L193.8866 185.8933
" />
<path d="M193.8866 185.8933
L193.7437 185.8219
" />
<path d="M193.7437 185.8219
L193.6723 185.6790
" />
<path d="M193.6723 185.6790
L193.6723 185.6076
" />
<path d="M193.6723 185.6076
L193.7437 185.4648
" />
<path d="M193.7437 185.4648
L193.8866 185.3933
" />
<path d="M193.8866 185.3933
L194.1009 185.3933
" />
<path d="M194.1009 185.3933
L194.2437 185.4648
" />
<path d="M195.5295 186.3219
L195.3866 186.3933
" />
<path d="M195.3866 186.3933
L195.1009 186.3933
" />
<path d="M195.1009 186.3933
L194.9580 186.3219
" />
<path d="M194.9580 186.3219
L194.8866 186.1790
" />
<path d="M194.8866 186.1790
L194.8866 185.6076
" />
<path d="M194.8866 185.6076
L194.9580 185.4648
" />
<path d="M194.9580 185.4648
L195.1009 185.3933
" />
<path d="M195.1009 185.3933
L195.3866 185.3933
" />
<path d="M195.3866 185.3933
L195.5295 185.4648
" />
<path d="M195.5295 185.4648
L195.6009 185.6076
" />
<path d="M195.6009 185.6076
L195.6009 185.7505
" />
<path d="M195.6009 185.7505
L194.8866 185.8933
" />
<path d="M196.8866 185.3933
L196.8866 186.6076
" />
<path d="M196.8866 186.6076
L196.8152 186.7505
" />
<path d="M196.8152 186.7505
L196.7437 186.8219
" />
<path d="M196.7437 186.8219
L196.6009 186.8933
" />
<path d="M196.6009 186.8933
L196.3866 186.8933
" />
<path d="M196.3866 186.8933
L196.2437 186.8219
" />
<path d="M196.8866 186.3219
L196.7437 186.3933
" />
<path d="M196.7437 186.3933
L196.4580 186.3933
" />
<path d="M196.4580 186.3933
L196.3152 186.3219
" />
<path d="M196.3152 186.3219
L196.2437 186.2505
" />
<path d="M196.2437 186.2505
L196.1723 186.1076
" />
<path d="M196.1723 186.1076
L196.1723 185.6790
" />
<path d="M196.1723 185.6790
L196.2437 185.5362
" />
<path d="M196.2437 185.5362
L196.3152 185.4648
" />
<path d="M196.3152 185.4648
L196.4580 185.3933
" />
<path d="M196.4580 185.3933
L196.7437 185.3933
" />
<path d="M196.7437 185.3933
L196.8866 185.4648
" />
<path d="M198.2437 185.3933
L198.2437 186.3933
" />
<path d="M197.6009 185.3933
L197.6009 186.1790
" />
<path d="M197.6009 186.1790
L197.6723 186.3219
" />
<path d="M197.6723 186.3219
L197.8152 186.3933
" />
<path d="M197.8152 186.3933
L198.0295 186.3933
" />
<path d="M198.0295 186.3933
L198.1723 186.3219
" />
<path d="M198.1723 186.3219
L198.2437 186.2505
" />
<path d="M198.9580 186.3933
L198.9580 185.3933
" />
<path d="M198.9580 184.8933
L198.8866 184.9648
" />
<path d="M198.8866 184.9648
L198.9580 185.0362
" />
<path d="M198.9580 185.0362
L199.0295 184.9648
" />
<path d="M199.0295 184.9648
L198.9580 184.8933
" />
<path d="M198.9580 184.8933
L198.9580 185.0362
" />
<path d="M200.3152 186.3933
L200.3152 184.8933
" />
<path d="M200.3152 186.3219
L200.1723 186.3933
" />
<path d="M200.1723 186.3933
L199.8866 186.3933
" />
<path d="M199.8866 186.3933
L199.7437 186.3219
" />
<path d="M199.7437 186.3219
L199.6723 186.2505
" />
<path d="M199.6723 186.2505
L199.6009 186.1076
" />
<path d="M199.6009 186.1076
L199.6009 185.6790
" />
<path d="M199.6009 185.6790
L199.6723 185.5362
" />
<path d="M199.6723 185.5362
L199.7437 185.4648
" />
<path d="M199.7437 185.4648
L199.8866 185.3933
" />
<path d="M199.8866 185.3933
L200.1723 185.3933
" />
<path d="M200.1723 185.3933
L200.3152 185.4648
" />
<path d="M201.2437 186.3933
L201.1009 186.3219
" />
<path d="M201.1009 186.3219
L201.0295 186.2505
" />
<path d="M201.0295 186.2505
L200.9580 186.1076
" />
<path d="M200.9580 186.1076
L200.9580 185.6790
" />
<path d="M200.9580 185.6790
L201.0295 185.5362
" />
<path d="M201.0295 185.5362
L201.1009 185.4648
" />
<path d="M201.1009 185.4648
L201.2437 185.3933
" />
<path d="M201.2437 185.3933
L201.4580 185.3933
" />
<path d="M201.4580 185.3933
L201.6009 185.4648
" />
<path d="M201.6009 185.4648
L201.6723 185.5362
" />
<path d="M201.6723 185.5362
L201.7437 185.6790
" />
<path d="M201.7437 185.6790
L201.7437 186.1076
" />
<path d="M201.7437 186.1076
L201.6723 186.2505
" />
<path d="M201.6723 186.2505
L201.6009 186.3219
" />
<path d="M201.6009 186.3219
L201.4580 186.3933
" />
<path d="M201.4580 186.3933
L201.2437 186.3933
" />
<path d="M202.3866 186.3933
L202.3866 185.3933
" />
<path d="M202.3866 185.6790
L202.4580 185.5362
" />
<path d="M202.4580 185.5362
L202.5295 185.4648
" />
<path d="M202.5295 185.4648
L202.6723 185.3933
" />
<path d="M202.6723 185.3933
L202.8152 185.3933
" />
<path d="M203.3152 186.2505
L203.3866 186.3219
" />
<path d="M203.3866 186.3219
L203.3152 186.3933
" />
<path d="M203.3152 186.3933
L203.2437 186.3219
" />
<path d="M203.2437 186.3219
L203.3152 186.2505
" />
<path d="M203.3152 186.2505
L203.3152 186.3933
" />
<path d="M204.0295 186.3933
L204.0295 184.8933
" />
<path d="M204.1723 185.8219
L204.6009 186.3933
" />
<path d="M204.6009 185.3933
L204.0295 185.9648
" />
<path d="M205.2437 186.3933
L205.2437 185.3933
" />
<path d="M205.2437 184.8933
L205.1723 184.9648
" />
<path d="M205.1723 184.9648
L205.2437 185.0362
" />
<path d="M205.2437 185.0362
L205.3152 184.9648
" />
<path d="M205.3152 184.9648
L205.2437 184.8933
" />
<path d="M205.2437 184.8933
L205.2437 185.0362
" />
<path d="M206.6009 186.3219
L206.4580 186.3933
" />
<path d="M206.4580 186.3933
L206.1723 186.3933
" />
<path d="M206.1723 186.3933
L206.0295 186.3219
" />
<path d="M206.0295 186.3219
L205.9580 186.2505
" />
<path d="M205.9580 186.2505
L205.8866 186.1076
" />
<path d="M205.8866 186.1076
L205.8866 185.6790
" />
<path d="M205.8866 185.6790
L205.9580 185.5362
" />
<path d="M205.9580 185.5362
L206.0295 185.4648
" />
<path d="M206.0295 185.4648
L206.1723 185.3933
" />
<path d="M206.1723 185.3933
L206.4580 185.3933
" />
<path d="M206.4580 185.3933
L206.6009 185.4648
" />
<path d="M207.8866 186.3933
L207.8866 185.6076
" />
<path d="M207.8866 185.6076
L207.8152 185.4648
" />
<path d="M207.8152 185.4648
L207.6723 185.3933
" />
<path d="M207.6723 185.3933
L207.3866 185.3933
" />
<path d="M207.3866 185.3933
L207.2437 185.4648
" />
<path d="M207.8866 186.3219
L207.7437 186.3933
" />
<path d="M207.7437 186.3933
L207.3866 186.3933
" />
<path d="M207.3866 186.3933
L207.2437 186.3219
" />
<path d="M207.2437 186.3219
L207.1723 186.1790
" />
<path d="M207.1723 186.1790
L207.1723 186.0362
" />
<path d="M207.1723 186.0362
L207.2437 185.8933
" />
<path d="M207.2437 185.8933
L207.3866 185.8219
" />
<path d="M207.3866 185.8219
L207.7437 185.8219
" />
<path d="M207.7437 185.8219
L207.8866 185.7505
" />
<path d="M209.2437 186.3933
L209.2437 184.8933
" />
<path d="M209.2437 186.3219
L209.1009 186.3933
" />
<path d="M209.1009 186.3933
L208.8152 186.3933
" />
<path d="M208.8152 186.3933
L208.6723 186.3219
" />
<path d="M208.6723 186.3219
L208.6009 186.2505
" />
<path d="M208.6009 186.2505
L208.5295 186.1076
" />
<path d="M208.5295 186.1076
L208.5295 185.6790
" />
<path d="M208.5295 185.6790
L208.6009 185.5362
" />
<path d="M208.6009 185.5362
L208.6723 185.4648
" />
<path d="M208.6723 185.4648
L208.8152 185.3933
" />
<path d="M208.8152 185.3933
L209.1009 185.3933
" />
<path d="M209.1009 185.3933
L209.2437 185.4648
" />
<path d="M209.6009 186.5362
L210.7437 186.5362
" />
<path d="M211.1009 185.3933
L211.1009 186.8933
" />
<path d="M211.1009 185.4648
L211.2437 185.3933
" />
<path d="M211.2437 185.3933
L211.5295 185.3933
" />
<path d="M211.5295 185.3933
L211.6723 185.4648
" />
<path d="M211.6723 185.4648
L211.7437 185.5362
" />
<path d="M211.7437 185.5362
L211.8152 185.6790
" />
<path d="M211.8152 185.6790
L211.8152 186.1076
" />
<path d="M211.8152 186.1076
L211.7437 186.2505
" />
<path d="M211.7437 186.2505
L211.6723 186.3219
" />
<path d="M211.6723 186.3219
L211.5295 186.3933
" />
<path d="M211.5295 186.3933
L211.2437 186.3933
" />
<path d="M211.2437 186.3933
L211.1009 186.3219
" />
<path d="M213.1009 186.3219
L212.9580 186.3933
" />
<path d="M212.9580 186.3933
L212.6723 186.3933
" />
<path d="M212.6723 186.3933
L212.5295 186.3219
" />
<path d="M212.5295 186.3219
L212.4580 186.2505
" />
<path d="M212.4580 186.2505
L212.3866 186.1076
" />
<path d="M212.3866 186.1076
L212.3866 185.6790
" />
<path d="M212.3866 185.6790
L212.4580 185.5362
" />
<path d="M212.4580 185.5362
L212.5295 185.4648
" />
<path d="M212.5295 185.4648
L212.6723 185.3933
" />
<path d="M212.6723 185.3933
L212.9580 185.3933
" />
<path d="M212.9580 185.3933
L213.1009 185.4648
" />
<path d="M213.7437 186.3933
L213.7437 184.8933
" />
<path d="M213.7437 185.4648
L213.8866 185.3933
" />
<path d="M213.8866 185.3933
L214.1723 185.3933
" />
<path d="M214.1723 185.3933
L214.3152 185.4648
" />
<path d="M214.3152 185.4648
L214.3866 185.5362
" />
<path d="M214.3866 185.5362
L214.4580 185.6790
" />
<path d="M214.4580 185.6790
L214.4580 186.1076
" />
<path d="M214.4580 186.1076
L214.3866 186.2505
" />
<path d="M214.3866 186.2505
L214.3152 186.3219
" />
<path d="M214.3152 186.3219
L214.1723 186.3933
" />
<path d="M214.1723 186.3933
L213.8866 186.3933
" />
<path d="M213.8866 186.3933
L213.7437 186.3219
" />
</g></g>
<g style="fill:none; 
stroke:#000000; stroke-width:0.1500; stroke-opacity:1; 
stroke-linecap:round; stroke-linejoin:round;">
<path d="M177.0022 181.5072
L285.0022 181.5072
" />
</g>
<g style="fill:none; 
stroke:#000000; stroke-width:0.1500; stroke-opacity:1; 
stroke-linecap:round; stroke-linejoin:round;">
<text x="178.0022" y="183.7572"
textLength="8.2214" font-size="2.0000" lengthAdjust="spacingAndGlyphs"
text-anchor="start" opacity="0" stroke-opacity="0">Sheet: </text>
<g class="stroked-text"><desc>Sheet: </desc>
<path d="M178.3866 183.6219
L178.6009 183.6933
" />
<path d="M178.6009 183.6933
L178.9580 183.6933
" />
<path d="M178.9580 183.6933
L179.1009 183.6219
" />
<path d="M179.1009 183.6219
L179.1723 183.5505
" />
<path d="M179.1723 183.5505
L179.2437 183.4076
" />
<path d="M179.2437 183.4076
L179.2437 183.2648
" />
<path d="M179.2437 183.2648
L179.1723 183.1219
" />
<path d="M179.1723 183.1219
L179.1009 183.0505
" />
<path d="M179.1009 183.0505
L178.9580 182.9790
" />
<path d="M178.9580 182.9790
L178.6723 182.9076
" />
<path d="M178.6723 182.9076
L178.5295 182.8362
" />
<path d="M178.5295 182.8362
L178.4580 182.7648
" />
<path d="M178.4580 182.7648
L178.3866 182.6219
" />
<path d="M178.3866 182.6219
L178.3866 182.4790
" />
<path d="M178.3866 182.4790
L178.4580 182.3362
" />
<path d="M178.4580 182.3362
L178.5295 182.2648
" />
<path d="M178.5295 182.2648
L178.6723 182.1933
" />
<path d="M178.6723 182.1933
L179.0295 182.1933
" />
<path d="M179.0295 182.1933
L179.2437 182.2648
" />
<path d="M179.8866 183.6933
L179.8866 182.1933
" />
<path d="M180.5295 183.6933
L180.5295 182.9076
" />
<path d="M180.5295 182.9076
L180.4580 182.7648
" />
<path d="M180.4580 182.7648
L180.3152 182.6933
" />
<path d="M180.3152 182.6933
L180.1009 182.6933
" />
<path d="M180.1009 182.6933
L179.9580 182.7648
" />
<path d="M179.9580 182.7648
L179.8866 182.8362
" />
<path d="M181.8152 183.6219
L181.6723 183.6933
" />
<path d="M181.6723 183.6933
L181.3866 183.6933
" />
<path d="M181.3866 183.6933
L181.2437 183.6219
" />
<path d="M181.2437 183.6219
L181.1723 183.4790
" />
<path d="M181.1723 183.4790
L181.1723 182.9076
" />
<path d="M181.1723 182.9076
L181.2437 182.7648
" />
<path d="M181.2437 182.7648
L181.3866 182.6933
" />
<path d="M181.3866 182.6933
L181.6723 182.6933
" />
<path d="M181.6723 182.6933
L181.8152 182.7648
" />
<path d="M181.8152 182.7648
L181.8866 182.9076
" />
<path d="M181.8866 182.9076
L181.8866 183.0505
" />
<path d="M181.8866 183.0505
L181.1723 183.1933
" />
<path d="M183.1009 183.6219
L182.9580 183.6933
" />
<path d="M182.9580 183.6933
L182.6723 183.6933
" />
<path d="M182.6723 183.6933
L182.5295 183.6219
" />
<path d="M182.5295 183.6219
L182.4580 183.4790
" />
<path d="M182.4580 183.4790
L182.4580 182.9076
" />
<path d="M182.4580 182.9076
L182.5295 182.7648
" />
<path d="M182.5295 182.7648
L182.6723 182.6933
" />
<path d="M182.6723 182.6933
L182.9580 182.6933
" />
<path d="M182.9580 182.6933
L183.1009 182.7648
" />
<path d="M183.1009 182.7648
L183.1723 182.9076
" />
<path d="M183.1723 182.9076
L183.1723 183.0505
" />
<path d="M183.1723 183.0505
L182.4580 183.1933
" />
<path d="M183.6009 182.6933
L184.1723 182.6933
" />
<path d="M183.8152 182.1933
L183.8152 183.4790
" />
<path d="M183.8152 183.4790
L183.8866 183.6219
" />
<path d="M183.8866 183.6219
L184.0295 183.6933
" />
<path d="M184.0295 183.6933
L184.1723 183.6933
" />
<path d="M184.6723 183.5505
L184.7437 183.6219
" />
<path d="M184.7437 183.6219
L184.6723 183.6933
" />
<path d="M184.6723 183.6933
L184.6009 183.6219
" />
<path d="M184.6009 183.6219
L184.6723 183.5505
" />
<path d="M184.6723 183.5505
L184.6723 183.6933
" />
<path d="M184.6723 182.7648
L184.7437 182.8362
" />
<path d="M184.7437 182.8362
L184.6723 182.9076
" />
<path d="M184.6723 182.9076
L184.6009 182.8362
" />
<path d="M184.6009 182.8362
L184.6723 182.7648
" />
<path d="M184.6723 182.7648
L184.6723 182.9076
" />
</g></g>
<g style="fill:none; 
stroke:#000000; stroke-width:0.3000; stroke-opacity:1; 
stroke-linecap:round; stroke-linejoin:round;">
<text x="178.0022" y="180.7572"
textLength="0.9000" font-size="2.0000" lengthAdjust="spacingAndGlyphs"
text-anchor="start" opacity="0" stroke-opacity="0"></text>
<g class="stroked-text"><desc></desc>
</g></g>
<g style="fill:none; 
stroke:#000000; stroke-width:0.1500; stroke-opacity:1; 
stroke-linecap:round; stroke-linejoin:round;">
<text x="178.0022" y="177.7572"
textLength="0.4500" font-size="2.0000" lengthAdjust="spacingAndGlyphs"
text-anchor="start" opacity="0" stroke-opacity="0"></text>
<g class="stroked-text"><desc></desc>
</g></g>
<g style="fill:none; 
stroke:#000000; stroke-width:0.1500; stroke-opacity:1; 
stroke-linecap:round; stroke-linejoin:round;">
<text x="178.0022" y="174.7572"
textLength="0.4500" font-size="2.0000" lengthAdjust="spacingAndGlyphs"
text-anchor="start" opacity="0" stroke-opacity="0"></text>
<g class="stroked-text"><desc></desc>
</g></g>
<g style="fill:none; 
stroke:#000000; stroke-width:0.1500; stroke-opacity:1; 
stroke-linecap:round; stroke-linejoin:round;">
<text x="178.0022" y="171.7572"
textLength="0.4500" font-size="2.0000" lengthAdjust="spacingAndGlyphs"
text-anchor="start" opacity="0" stroke-opacity="0"></text>
<g class="stroked-text"><desc></desc>
</g></g>
<g style="fill:none; 
stroke:#000000; stroke-width:0.1500; stroke-opacity:1; 
stroke-linecap:round; stroke-linejoin:round;">
<text x="178.0022" y="168.7572"
textLength="0.4500" font-size="2.0000" lengthAdjust="spacingAndGlyphs"
text-anchor="start" opacity="0" stroke-opacity="0"></text>
<g class="stroked-text"><desc></desc>
</g></g>
<g style="fill:none; 
stroke:#000000; stroke-width:0.1500; stroke-opacity:1; 
stroke-linecap:round; stroke-linejoin:round;">
<path d="M197.0022 191.5072
L197.0022 194.5072
" />
</g>
<g style="fill:none; 
stroke:#000000; stroke-width:0.1500; stroke-opacity:1; 
stroke-linecap:round; stroke-linejoin:round;">
<path d="M261.0022 191.5072
L261.0022 198.0072
" />
<path style="fill:none; 
stroke:#000000; stroke-width:0.2000; stroke-opacity:1; 
stroke-linecap:round; stroke-linejoin:round;fill:none"
d="M 136.5000,61.0000
155.5000,86.3600
220.8925,86.3600
220.8925,113.1159
155.0000,113.1159
136.5000,140.7288
74.6045,140.7288
74.6045,60.9696
Z" /> 
</g>
<g style="fill:none; 
stroke:#000000; stroke-width:0.1500; stroke-opacity:1; 
stroke-linecap:round; stroke-linejoin:round;">
<g transform="rotate(-90.000000 122.1500 97.5625)">
<text x="122.1500" y="98.0625"
transform="scale(-1 1) translate(-244.300000 0)"
textLength="4.8690" font-size="1.3333" lengthAdjust="spacingAndGlyphs"
text-anchor="middle" opacity="0" stroke-opacity="0">100nF</text>
</g>
<g class="stroked-text"><desc>100nF</desc>
<path d="M122.6048 96.0149
L122.6048 95.4435
" />
<path d="M122.6048 95.7292
L121.6048 95.7292
" />
<path d="M121.6048 95.7292
L121.7477 95.6339
" />
<path d="M121.7477 95.6339
L121.8429 95.5387
" />
<path d="M121.8429 95.5387
L121.8905 95.4435
" />
<path d="M121.6048 96.6339
L121.6048 96.7292
" />
<path d="M121.6048 96.7292
L121.6524 96.8244
" />
<path d="M121.6524 96.8244
L121.7001 96.8720
" />
<path d="M121.7001 96.8720
L121.7953 96.9196
" />
<path d="M121.7953 96.9196
L121.9858 96.9673
" />
<path d="M121.9858 96.9673
L122.2239 96.9673
" />
<path d="M122.2239 96.9673
L122.4143 96.9196
" />
<path d="M122.4143 96.9196
L122.5096 96.8720
" />
<path d="M122.5096 96.8720
L122.5572 96.8244
" />
<path d="M122.5572 96.8244
L122.6048 96.7292
" />
<path d="M122.6048 96.7292
L122.6048 96.6339
" />
<path d="M122.6048 96.6339
L122.5572 96.5387
" />
<path d="M122.5572 96.5387
L122.5096 96.4911
" />
<path d="M122.5096 96.4911
L122.4143 96.4435
" />
<path d="M122.4143 96.4435
L122.2239 96.3958
" />
<path d="M122.2239 96.3958
L121.9858 96.3958
" />
<path d="M121.9858 96.3958
L121.7953 96.4435
" />
<path d="M121.7953 96.4435
L121.7001 96.4911
" />
<path d="M121.7001 96.4911
L121.6524 96.5387
" />
<path d="M121.6524 96.5387
L121.6048 96.6339
" />
<path d="M121.6048 97.5863
L121.6048 97.6815
" />
<path d="M121.6048 97.6815
L121.6524 97.7768
" />
<path d="M121.6524 97.7768
L121.7001 97.8244
" />
<path d="M121.7001 97.8244
L121.7953 97.8720
" />
<path d="M121.7953 97.8720
L121.9858 97.9196
" />
<path d="M121.9858 97.9196
L122.2239 97.9196
" />
<path d="M122.2239 97.9196
L122.4143 97.8720
" />
<path d="M122.4143 97.8720
L122.5096 97.8244
" />
<path d="M122.5096 97.8244
L122.5572 97.7768
" />
<path d="M122.5572 97.7768
L122.6048 97.6815
" />
<path d="M122.6048 97.6815
L122.6048 97.5863
" />
<path d="M122.6048 97.5863
L122.5572 97.4911
" />
<path d="M122.5572 97.4911
L122.5096 97.4435
" />
<path d="M122.5096 97.4435
L122.4143 97.3958
" />
<path d="M122.4143 97.3958
L122.2239 97.3482
" />
<path d="M122.2239 97.3482
L121.9858 97.3482
" />
<path d="M121.9858 97.3482
L121.7953 97.3958
" />
<path d="M121.7953 97.3958
L121.7001 97.4435
" />
<path d="M121.7001 97.4435
L121.6524 97.4911
" />
<path d="M121.6524 97.4911
L121.6048 97.5863
" />
<path d="M121.9382 98.3482
L122.6048 98.3482
" />
<path d="M122.0334 98.3482
L121.9858 98.3958
" />
<path d="M121.9858 98.3958
L121.9382 98.4911
" />
<path d="M121.9382 98.4911
L121.9382 98.6339
" />
<path d="M121.9382 98.6339
L121.9858 98.7292
" />
<path d="M121.9858 98.7292
L122.0810 98.7768
" />
<path d="M122.0810 98.7768
L122.6048 98.7768
" />
<path d="M122.0810 99.5863
L122.0810 99.2530
" />
<path d="M122.6048 99.2530
L121.6048 99.2530
" />
<path d="M121.6048 99.2530
L121.6048 99.7292
" />
</g></g>
<g style="fill:none; 
stroke:#000000; stroke-width:0.1200; stroke-opacity:1; 
stroke-linecap:round; stroke-linejoin:round;">
<g transform="rotate(-90.000000 124.0000 97.5625)">
<text x="124.0000" y="97.9625"
transform="scale(-1 1) translate(-248.000000 0)"
textLength="1.7619" font-size="1.0667" lengthAdjust="spacingAndGlyphs"
text-anchor="middle" opacity="0" stroke-opacity="0">C4</text>
</g>
<g class="stroked-text"><desc>C4</desc>
<path d="M124.2877 97.4292
L124.3258 97.3911
" />
<path d="M124.3258 97.3911
L124.3639 97.2768
" />
<path d="M124.3639 97.2768
L124.3639 97.2006
" />
<path d="M124.3639 97.2006
L124.3258 97.0863
" />
<path d="M124.3258 97.0863
L124.2496 97.0101
" />
<path d="M124.2496 97.0101
L124.1734 96.9720
" />
<path d="M124.1734 96.9720
L124.0210 96.9339
" />
<path d="M124.0210 96.9339
L123.9067 96.9339
" />
<path d="M123.9067 96.9339
L123.7543 96.9720
" />
<path d="M123.7543 96.9720
L123.6781 97.0101
" />
<path d="M123.6781 97.0101
L123.6019 97.0863
" />
<path d="M123.6019 97.0863
L123.5639 97.2006
" />
<path d="M123.5639 97.2006
L123.5639 97.2768
" />
<path d="M123.5639 97.2768
L123.6019 97.3911
" />
<path d="M123.6019 97.3911
L123.6400 97.4292
" />
<path d="M123.8305 98.1149
L124.3639 98.1149
" />
<path d="M123.5258 97.9244
L124.0972 97.7339
" />
<path d="M124.0972 97.7339
L124.0972 98.2292
" />
</g></g>
<g style="fill:none; 
stroke:#000000; stroke-width:0.1500; stroke-opacity:1; 
stroke-linecap:round; stroke-linejoin:round;">
<text x="160.5493" y="106.4268"
transform="scale(-1 1) translate(-321.098590 0)"
textLength="3.1071" font-size="1.3333" lengthAdjust="spacingAndGlyphs"
text-anchor="middle" opacity="0" stroke-opacity="0">330</text>
<g class="stroked-text"><desc>330</desc>
<path d="M161.8350 105.3816
L161.2160 105.3816
" />
<path d="M161.2160 105.3816
L161.5493 105.7625
" />
<path d="M161.5493 105.7625
L161.4064 105.7625
" />
<path d="M161.4064 105.7625
L161.3112 105.8101
" />
<path d="M161.3112 105.8101
L161.2636 105.8578
" />
<path d="M161.2636 105.8578
L161.2160 105.9530
" />
<path d="M161.2160 105.9530
L161.2160 106.1911
" />
<path d="M161.2160 106.1911
L161.2636 106.2863
" />
<path d="M161.2636 106.2863
L161.3112 106.3340
" />
<path d="M161.3112 106.3340
L161.4064 106.3816
" />
<path d="M161.4064 106.3816
L161.6922 106.3816
" />
<path d="M161.6922 106.3816
L161.7874 106.3340
" />
<path d="M161.7874 106.3340
L161.8350 106.2863
" />
<path d="M160.8826 105.3816
L160.2636 105.3816
" />
<path d="M160.2636 105.3816
L160.5969 105.7625
" />
<path d="M160.5969 105.7625
L160.4541 105.7625
" />
<path d="M160.4541 105.7625
L160.3588 105.8101
" />
<path d="M160.3588 105.8101
L160.3112 105.8578
" />
<path d="M160.3112 105.8578
L160.2636 105.9530
" />
<path d="M160.2636 105.9530
L160.2636 106.1911
" />
<path d="M160.2636 106.1911
L160.3112 106.2863
" />
<path d="M160.3112 106.2863
L160.3588 106.3340
" />
<path d="M160.3588 106.3340
L160.4541 106.3816
" />
<path d="M160.4541 106.3816
L160.7398 106.3816
" />
<path d="M160.7398 106.3816
L160.8350 106.3340
" />
<path d="M160.8350 106.3340
L160.8826 106.2863
" />
<path d="M159.6445 105.3816
L159.5493 105.3816
" />
<path d="M159.5493 105.3816
L159.4541 105.4292
" />
<path d="M159.4541 105.4292
L159.4064 105.4768
" />
<path d="M159.4064 105.4768
L159.3588 105.5721
" />
<path d="M159.3588 105.5721
L159.3112 105.7625
" />
<path d="M159.3112 105.7625
L159.3112 106.0006
" />
<path d="M159.3112 106.0006
L159.3588 106.1911
" />
<path d="M159.3588 106.1911
L159.4064 106.2863
" />
<path d="M159.4064 106.2863
L159.4541 106.3340
" />
<path d="M159.4541 106.3340
L159.5493 106.3816
" />
<path d="M159.5493 106.3816
L159.6445 106.3816
" />
<path d="M159.6445 106.3816
L159.7398 106.3340
" />
<path d="M159.7398 106.3340
L159.7874 106.2863
" />
<path d="M159.7874 106.2863
L159.8350 106.1911
" />
<path d="M159.8350 106.1911
L159.8826 106.0006
" />
<path d="M159.8826 106.0006
L159.8826 105.7625
" />
<path d="M159.8826 105.7625
L159.8350 105.5721
" />
<path d="M159.8350 105.5721
L159.7874 105.4768
" />
<path d="M159.7874 105.4768
L159.7398 105.4292
" />
<path d="M159.7398 105.4292
L159.6445 105.3816
" />
</g></g>
<g style="fill:none; 
stroke:#000000; stroke-width:0.1200; stroke-opacity:1; 
stroke-linecap:round; stroke-linejoin:round;">
<text x="160.5493" y="108.1568"
transform="scale(-1 1) translate(-321.098590 0)"
textLength="1.7619" font-size="1.0667" lengthAdjust="spacingAndGlyphs"
text-anchor="middle" opacity="0" stroke-opacity="0">R2</text>
<g class="stroked-text"><desc>R2</desc>
<path d="M160.6826 108.1206
L160.9493 107.7397
" />
<path d="M161.1398 108.1206
L161.1398 107.3206
" />
<path d="M161.1398 107.3206
L160.8350 107.3206
" />
<path d="M160.8350 107.3206
L160.7588 107.3587
" />
<path d="M160.7588 107.3587
L160.7207 107.3968
" />
<path d="M160.7207 107.3968
L160.6826 107.4730
" />
<path d="M160.6826 107.4730
L160.6826 107.5873
" />
<path d="M160.6826 107.5873
L160.7207 107.6635
" />
<path d="M160.7207 107.6635
L160.7588 107.7016
" />
<path d="M160.7588 107.7016
L160.8350 107.7397
" />
<path d="M160.8350 107.7397
L161.1398 107.7397
" />
<path d="M160.3779 107.3968
L160.3398 107.3587
" />
<path d="M160.3398 107.3587
L160.2636 107.3206
" />
<path d="M160.2636 107.3206
L160.0731 107.3206
" />
<path d="M160.0731 107.3206
L159.9969 107.3587
" />
<path d="M159.9969 107.3587
L159.9588 107.3968
" />
<path d="M159.9588 107.3968
L159.9207 107.4730
" />
<path d="M159.9207 107.4730
L159.9207 107.5492
" />
<path d="M159.9207 107.5492
L159.9588 107.6635
" />
<path d="M159.9588 107.6635
L160.4160 108.1206
" />
<path d="M160.4160 108.1206
L159.9207 108.1206
" />
</g></g>
<g style="fill:none; 
stroke:#000000; stroke-width:0.1500; stroke-opacity:1; 
stroke-linecap:round; stroke-linejoin:round;">
<g transform="rotate(-90.000000 100.6862 106.0015)">
<text x="100.6862" y="106.5015"
transform="scale(-1 1) translate(-201.372462 0)"
textLength="4.8690" font-size="1.3333" lengthAdjust="spacingAndGlyphs"
text-anchor="middle" opacity="0" stroke-opacity="0">100nF</text>
</g>
<g class="stroked-text"><desc>100nF</desc>
<path d="M101.1410 104.4539
L101.1410 103.8824
" />
<path d="M101.1410 104.1681
L100.1410 104.1681
" />
<path d="M100.1410 104.1681
L100.2839 104.0729
" />
<path d="M100.2839 104.0729
L100.3791 103.9777
" />
<path d="M100.3791 103.9777
L100.4268 103.8824
" />
<path d="M100.1410 105.0729
L100.1410 105.1681
" />
<path d="M100.1410 105.1681
L100.1887 105.2634
" />
<path d="M100.1887 105.2634
L100.2363 105.3110
" />
<path d="M100.2363 105.3110
L100.3315 105.3586
" />
<path d="M100.3315 105.3586
L100.5220 105.4062
" />
<path d="M100.5220 105.4062
L100.7601 105.4062
" />
<path d="M100.7601 105.4062
L100.9506 105.3586
" />
<path d="M100.9506 105.3586
L101.0458 105.3110
" />
<path d="M101.0458 105.3110
L101.0934 105.2634
" />
<path d="M101.0934 105.2634
L101.1410 105.1681
" />
<path d="M101.1410 105.1681
L101.1410 105.0729
" />
<path d="M101.1410 105.0729
L101.0934 104.9777
" />
<path d="M101.0934 104.9777
L101.0458 104.9300
" />
<path d="M101.0458 104.9300
L100.9506 104.8824
" />
<path d="M100.9506 104.8824
L100.7601 104.8348
" />
<path d="M100.7601 104.8348
L100.5220 104.8348
" />
<path d="M100.5220 104.8348
L100.3315 104.8824
" />
<path d="M100.3315 104.8824
L100.2363 104.9300
" />
<path d="M100.2363 104.9300
L100.1887 104.9777
" />
<path d="M100.1887 104.9777
L100.1410 105.0729
" />
<path d="M100.1410 106.0253
L100.1410 106.1205
" />
<path d="M100.1410 106.1205
L100.1887 106.2158
" />
<path d="M100.1887 106.2158
L100.2363 106.2634
" />
<path d="M100.2363 106.2634
L100.3315 106.3110
" />
<path d="M100.3315 106.3110
L100.5220 106.3586
" />
<path d="M100.5220 106.3586
L100.7601 106.3586
" />
<path d="M100.7601 106.3586
L100.9506 106.3110
" />
<path d="M100.9506 106.3110
L101.0458 106.2634
" />
<path d="M101.0458 106.2634
L101.0934 106.2158
" />
<path d="M101.0934 106.2158
L101.1410 106.1205
" />
<path d="M101.1410 106.1205
L101.1410 106.0253
" />
<path d="M101.1410 106.0253
L101.0934 105.9300
" />
<path d="M101.0934 105.9300
L101.0458 105.8824
" />
<path d="M101.0458 105.8824
L100.9506 105.8348
" />
<path d="M100.9506 105.8348
L100.7601 105.7872
" />
<path d="M100.7601 105.7872
L100.5220 105.7872
" />
<path d="M100.5220 105.7872
L100.3315 105.8348
" />
<path d="M100.3315 105.8348
L100.2363 105.8824
" />
<path d="M100.2363 105.8824
L100.1887 105.9300
" />
<path d="M100.1887 105.9300
L100.1410 106.0253
" />
<path d="M100.4744 106.7872
L101.1410 106.7872
" />
<path d="M100.5696 106.7872
L100.5220 106.8348
" />
<path d="M100.5220 106.8348
L100.4744 106.9300
" />
<path d="M100.4744 106.9300
L100.4744 107.0729
" />
<path d="M100.4744 107.0729
L100.5220 107.1681
" />
<path d="M100.5220 107.1681
L100.6172 107.2158
" />
<path d="M100.6172 107.2158
L101.1410 107.2158
" />
<path d="M100.6172 108.0253
L100.6172 107.6919
" />
<path d="M101.1410 107.6919
L100.1410 107.6919
" />
<path d="M100.1410 107.6919
L100.1410 108.1681
" />
</g></g>
<g style="fill:none; 
stroke:#000000; stroke-width:0.1200; stroke-opacity:1; 
stroke-linecap:round; stroke-linejoin:round;">
<g transform="rotate(-90.000000 102.5362 106.0015)">
<text x="102.5362" y="106.4015"
transform="scale(-1 1) translate(-205.072462 0)"
textLength="1.7619" font-size="1.0667" lengthAdjust="spacingAndGlyphs"
text-anchor="middle" opacity="0" stroke-opacity="0">C3</text>
</g>
<g class="stroked-text"><desc>C3</desc>
<path d="M102.8239 105.8681
L102.8620 105.8300
" />
<path d="M102.8620 105.8300
L102.9001 105.7158
" />
<path d="M102.9001 105.7158
L102.9001 105.6396
" />
<path d="M102.9001 105.6396
L102.8620 105.5253
" />
<path d="M102.8620 105.5253
L102.7858 105.4491
" />
<path d="M102.7858 105.4491
L102.7096 105.4110
" />
<path d="M102.7096 105.4110
L102.5572 105.3729
" />
<path d="M102.5572 105.3729
L102.4429 105.3729
" />
<path d="M102.4429 105.3729
L102.2906 105.4110
" />
<path d="M102.2906 105.4110
L102.2144 105.4491
" />
<path d="M102.2144 105.4491
L102.1382 105.5253
" />
<path d="M102.1382 105.5253
L102.1001 105.6396
" />
<path d="M102.1001 105.6396
L102.1001 105.7158
" />
<path d="M102.1001 105.7158
L102.1382 105.8300
" />
<path d="M102.1382 105.8300
L102.1763 105.8681
" />
<path d="M102.1001 106.1348
L102.1001 106.6300
" />
<path d="M102.1001 106.6300
L102.4048 106.3634
" />
<path d="M102.4048 106.3634
L102.4048 106.4777
" />
<path d="M102.4048 106.4777
L102.4429 106.5539
" />
<path d="M102.4429 106.5539
L102.4810 106.5919
" />
<path d="M102.4810 106.5919
L102.5572 106.6300
" />
<path d="M102.5572 106.6300
L102.7477 106.6300
" />
<path d="M102.7477 106.6300
L102.8239 106.5919
" />
<path d="M102.8239 106.5919
L102.8620 106.5539
" />
<path d="M102.8620 106.5539
L102.9001 106.4777
" />
<path d="M102.9001 106.4777
L102.9001 106.2491
" />
<path d="M102.9001 106.2491
L102.8620 106.1729
" />
<path d="M102.8620 106.1729
L102.8239 106.1348
" />
</g></g>
<g style="fill:none; 
stroke:#000000; stroke-width:0.1500; stroke-opacity:1; 
stroke-linecap:round; stroke-linejoin:round;">
<text x="134.5000" y="119.6700"
transform="scale(-1 1) translate(-269.000000 0)"
textLength="2.0119" font-size="1.3333" lengthAdjust="spacingAndGlyphs"
text-anchor="middle" opacity="0" stroke-opacity="0">1k</text>
<g class="stroked-text"><desc>1k</desc>
<path d="M134.6190 119.6248
L135.1905 119.6248
" />
<path d="M134.9048 119.6248
L134.9048 118.6248
" />
<path d="M134.9048 118.6248
L135.0000 118.7677
" />
<path d="M135.0000 118.7677
L135.0952 118.8629
" />
<path d="M135.0952 118.8629
L135.1905 118.9105
" />
<path d="M134.1905 119.6248
L134.1905 118.6248
" />
<path d="M134.0952 119.2439
L133.8095 119.6248
" />
<path d="M133.8095 118.9582
L134.1905 119.3391
" />
</g></g>
<g style="fill:none; 
stroke:#000000; stroke-width:0.1200; stroke-opacity:1; 
stroke-linecap:round; stroke-linejoin:round;">
<text x="134.5000" y="121.4000"
transform="scale(-1 1) translate(-269.000000 0)"
textLength="1.7619" font-size="1.0667" lengthAdjust="spacingAndGlyphs"
text-anchor="middle" opacity="0" stroke-opacity="0">R1</text>
<g class="stroked-text"><desc>R1</desc>
<path d="M134.6333 121.3639
L134.9000 120.9829
" />
<path d="M135.0905 121.3639
L135.0905 120.5639
" />
<path d="M135.0905 120.5639
L134.7857 120.5639
" />
<path d="M134.7857 120.5639
L134.7095 120.6019
" />
<path d="M134.7095 120.6019
L134.6714 120.6400
" />
<path d="M134.6714 120.6400
L134.6333 120.7162
" />
<path d="M134.6333 120.7162
L134.6333 120.8305
" />
<path d="M134.6333 120.8305
L134.6714 120.9067
" />
<path d="M134.6714 120.9067
L134.7095 120.9448
" />
<path d="M134.7095 120.9448
L134.7857 120.9829
" />
<path d="M134.7857 120.9829
L135.0905 120.9829
" />
<path d="M133.8714 121.3639
L134.3286 121.3639
" />
<path d="M134.1000 121.3639
L134.1000 120.5639
" />
<path d="M134.1000 120.5639
L134.1762 120.6781
" />
<path d="M134.1762 120.6781
L134.2524 120.7543
" />
<path d="M134.2524 120.7543
L134.3286 120.7924
" />
</g></g>
<g style="fill:none; 
stroke:#000000; stroke-width:0.1500; stroke-opacity:1; 
stroke-linecap:round; stroke-linejoin:round;">
<g transform="rotate(-90.000000 102.0656 112.5595)">
<text x="102.0656" y="113.0595"
transform="scale(-1 1) translate(-204.131266 0)"
textLength="2.1548" font-size="1.3333" lengthAdjust="spacingAndGlyphs"
text-anchor="middle" opacity="0" stroke-opacity="0">33</text>
</g>
<g class="stroked-text"><desc>33</desc>
<path d="M101.5205 111.7499
L101.5205 112.3690
" />
<path d="M101.5205 112.3690
L101.9014 112.0356
" />
<path d="M101.9014 112.0356
L101.9014 112.1785
" />
<path d="M101.9014 112.1785
L101.9490 112.2737
" />
<path d="M101.9490 112.2737
L101.9966 112.3214
" />
<path d="M101.9966 112.3214
L102.0919 112.3690
" />
<path d="M102.0919 112.3690
L102.3300 112.3690
" />
<path d="M102.3300 112.3690
L102.4252 112.3214
" />
<path d="M102.4252 112.3214
L102.4728 112.2737
" />
<path d="M102.4728 112.2737
L102.5205 112.1785
" />
<path d="M102.5205 112.1785
L102.5205 111.8928
" />
<path d="M102.5205 111.8928
L102.4728 111.7975
" />
<path d="M102.4728 111.7975
L102.4252 111.7499
" />
<path d="M101.5205 112.7023
L101.5205 113.3214
" />
<path d="M101.5205 113.3214
L101.9014 112.9880
" />
<path d="M101.9014 112.9880
L101.9014 113.1309
" />
<path d="M101.9014 113.1309
L101.9490 113.2261
" />
<path d="M101.9490 113.2261
L101.9966 113.2737
" />
<path d="M101.9966 113.2737
L102.0919 113.3214
" />
<path d="M102.0919 113.3214
L102.3300 113.3214
" />
<path d="M102.3300 113.3214
L102.4252 113.2737
" />
<path d="M102.4252 113.2737
L102.4728 113.2261
" />
<path d="M102.4728 113.2261
L102.5205 113.1309
" />
<path d="M102.5205 113.1309
L102.5205 112.8452
" />
<path d="M102.5205 112.8452
L102.4728 112.7499
" />
<path d="M102.4728 112.7499
L102.4252 112.7023
" />
</g></g>
<g style="fill:none; 
stroke:#000000; stroke-width:0.0800; stroke-opacity:1; 
stroke-linecap:round; stroke-linejoin:round;">
<g transform="rotate(-90.000000 103.7156 112.5595)">
<text x="103.7156" y="112.8095"
transform="scale(-1 1) translate(-207.431266 0)"
textLength="1.1162" font-size="0.6667" lengthAdjust="spacingAndGlyphs"
text-anchor="middle" opacity="0" stroke-opacity="0">R4</text>
</g>
<g class="stroked-text"><desc>R4</desc>
<path d="M103.9428 112.4761
L103.7047 112.3095
" />
<path d="M103.9428 112.1904
L103.4428 112.1904
" />
<path d="M103.4428 112.1904
L103.4428 112.3809
" />
<path d="M103.4428 112.3809
L103.4666 112.4285
" />
<path d="M103.4666 112.4285
L103.4904 112.4523
" />
<path d="M103.4904 112.4523
L103.5380 112.4761
" />
<path d="M103.5380 112.4761
L103.6094 112.4761
" />
<path d="M103.6094 112.4761
L103.6571 112.4523
" />
<path d="M103.6571 112.4523
L103.6809 112.4285
" />
<path d="M103.6809 112.4285
L103.7047 112.3809
" />
<path d="M103.7047 112.3809
L103.7047 112.1904
" />
<path d="M103.6094 112.9047
L103.9428 112.9047
" />
<path d="M103.4190 112.7856
L103.7761 112.6666
" />
<path d="M103.7761 112.6666
L103.7761 112.9761
" />
</g></g>
<g style="fill:none; 
stroke:#000000; stroke-width:0.1500; stroke-opacity:1; 
stroke-linecap:round; stroke-linejoin:round;">
<text x="91.5000" y="113.5000"
transform="scale(-1 1) translate(-183.000000 0)"
textLength="2.1071" font-size="1.3333" lengthAdjust="spacingAndGlyphs"
text-anchor="middle" opacity="0" stroke-opacity="0">1u</text>
<g class="stroked-text"><desc>1u</desc>
<path d="M91.6667 113.4548
L92.2381 113.4548
" />
<path d="M91.9524 113.4548
L91.9524 112.4548
" />
<path d="M91.9524 112.4548
L92.0476 112.5977
" />
<path d="M92.0476 112.5977
L92.1429 112.6929
" />
<path d="M92.1429 112.6929
L92.2381 112.7405
" />
<path d="M90.8095 112.7882
L90.8095 113.4548
" />
<path d="M91.2381 112.7882
L91.2381 113.3120
" />
<path d="M91.2381 113.3120
L91.1905 113.4072
" />
<path d="M91.1905 113.4072
L91.0952 113.4548
" />
<path d="M91.0952 113.4548
L90.9524 113.4548
" />
<path d="M90.9524 113.4548
L90.8571 113.4072
" />
<path d="M90.8571 113.4072
L90.8095 113.3596
" />
</g></g>
<g style="fill:none; 
stroke:#000000; stroke-width:0.1200; stroke-opacity:1; 
stroke-linecap:round; stroke-linejoin:round;">
<text x="96.0000" y="110.4000"
transform="scale(-1 1) translate(-192.000000 0)"
textLength="1.7619" font-size="1.0667" lengthAdjust="spacingAndGlyphs"
text-anchor="middle" opacity="0" stroke-opacity="0">C1</text>
<g class="stroked-text"><desc>C1</desc>
<path d="M96.1333 110.2877
L96.1714 110.3258
" />
<path d="M96.1714 110.3258
L96.2857 110.3639
" />
<path d="M96.2857 110.3639
L96.3619 110.3639
" />
<path d="M96.3619 110.3639
L96.4762 110.3258
" />
<path d="M96.4762 110.3258
L96.5524 110.2496
" />
<path d="M96.5524 110.2496
L96.5905 110.1734
" />
<path d="M96.5905 110.1734
L96.6286 110.0210
" />
<path d="M96.6286 110.0210
L96.6286 109.9067
" />
<path d="M96.6286 109.9067
L96.5905 109.7543
" />
<path d="M96.5905 109.7543
L96.5524 109.6781
" />
<path d="M96.5524 109.6781
L96.4762 109.6019
" />
<path d="M96.4762 109.6019
L96.3619 109.5639
" />
<path d="M96.3619 109.5639
L96.2857 109.5639
" />
<path d="M96.2857 109.5639
L96.1714 109.6019
" />
<path d="M96.1714 109.6019
L96.1333 109.6400
" />
<path d="M95.3714 110.3639
L95.8286 110.3639
" />
<path d="M95.6000 110.3639
L95.6000 109.5639
" />
<path d="M95.6000 109.5639
L95.6762 109.6781
" />
<path d="M95.6762 109.6781
L95.7524 109.7543
" />
<path d="M95.7524 109.7543
L95.8286 109.7924
" />
</g></g>
<g style="fill:none; 
stroke:#000000; stroke-width:0.1500; stroke-opacity:1; 
stroke-linecap:round; stroke-linejoin:round;">
<g transform="rotate(-90.000000 108.0307 106.1604)">
<text x="108.0307" y="106.6604"
transform="scale(-1 1) translate(-216.061476 0)"
textLength="2.1071" font-size="1.3333" lengthAdjust="spacingAndGlyphs"
text-anchor="middle" opacity="0" stroke-opacity="0">1u</text>
</g>
<g class="stroked-text"><desc>1u</desc>
<path d="M108.4856 105.9937
L108.4856 105.4223
" />
<path d="M108.4856 105.7080
L107.4856 105.7080
" />
<path d="M107.4856 105.7080
L107.6284 105.6127
" />
<path d="M107.6284 105.6127
L107.7237 105.5175
" />
<path d="M107.7237 105.5175
L107.7713 105.4223
" />
<path d="M107.8189 106.8508
L108.4856 106.8508
" />
<path d="M107.8189 106.4223
L108.3427 106.4223
" />
<path d="M108.3427 106.4223
L108.4379 106.4699
" />
<path d="M108.4379 106.4699
L108.4856 106.5651
" />
<path d="M108.4856 106.5651
L108.4856 106.7080
" />
<path d="M108.4856 106.7080
L108.4379 106.8032
" />
<path d="M108.4379 106.8032
L108.3903 106.8508
" />
</g></g>
<g style="fill:none; 
stroke:#000000; stroke-width:0.1200; stroke-opacity:1; 
stroke-linecap:round; stroke-linejoin:round;">
<g transform="rotate(-90.000000 106.1807 106.1604)">
<text x="106.1807" y="106.5604"
transform="scale(-1 1) translate(-212.361476 0)"
textLength="1.7619" font-size="1.0667" lengthAdjust="spacingAndGlyphs"
text-anchor="middle" opacity="0" stroke-opacity="0">C2</text>
</g>
<g class="stroked-text"><desc>C2</desc>
<path d="M106.4684 106.0270
L106.5065 105.9889
" />
<path d="M106.5065 105.9889
L106.5446 105.8746
" />
<path d="M106.5446 105.8746
L106.5446 105.7985
" />
<path d="M106.5446 105.7985
L106.5065 105.6842
" />
<path d="M106.5065 105.6842
L106.4303 105.6080
" />
<path d="M106.4303 105.6080
L106.3541 105.5699
" />
<path d="M106.3541 105.5699
L106.2017 105.5318
" />
<path d="M106.2017 105.5318
L106.0874 105.5318
" />
<path d="M106.0874 105.5318
L105.9351 105.5699
" />
<path d="M105.9351 105.5699
L105.8589 105.6080
" />
<path d="M105.8589 105.6080
L105.7827 105.6842
" />
<path d="M105.7827 105.6842
L105.7446 105.7985
" />
<path d="M105.7446 105.7985
L105.7446 105.8746
" />
<path d="M105.7446 105.8746
L105.7827 105.9889
" />
<path d="M105.7827 105.9889
L105.8208 106.0270
" />
<path d="M105.8208 106.3318
L105.7827 106.3699
" />
<path d="M105.7827 106.3699
L105.7446 106.4461
" />
<path d="M105.7446 106.4461
L105.7446 106.6365
" />
<path d="M105.7446 106.6365
L105.7827 106.7127
" />
<path d="M105.7827 106.7127
L105.8208 106.7508
" />
<path d="M105.8208 106.7508
L105.8970 106.7889
" />
<path d="M105.8970 106.7889
L105.9732 106.7889
" />
<path d="M105.9732 106.7889
L106.0874 106.7508
" />
<path d="M106.0874 106.7508
L106.5446 106.2937
" />
<path d="M106.5446 106.2937
L106.5446 106.7889
" />
</g></g>
<g style="fill:none; 
stroke:#000000; stroke-width:0.1500; stroke-opacity:1; 
stroke-linecap:round; stroke-linejoin:round;">
<g transform="rotate(-90.000000 102.5307 89.6604)">
<text x="102.5307" y="90.1604"
transform="scale(-1 1) translate(-205.061476 0)"
textLength="2.1548" font-size="1.3333" lengthAdjust="spacingAndGlyphs"
text-anchor="middle" opacity="0" stroke-opacity="0">33</text>
</g>
<g class="stroked-text"><desc>33</desc>
<path d="M101.9856 88.8508
L101.9856 89.4699
" />
<path d="M101.9856 89.4699
L102.3665 89.1365
" />
<path d="M102.3665 89.1365
L102.3665 89.2794
" />
<path d="M102.3665 89.2794
L102.4141 89.3746
" />
<path d="M102.4141 89.3746
L102.4617 89.4223
" />
<path d="M102.4617 89.4223
L102.5570 89.4699
" />
<path d="M102.5570 89.4699
L102.7951 89.4699
" />
<path d="M102.7951 89.4699
L102.8903 89.4223
" />
<path d="M102.8903 89.4223
L102.9379 89.3746
" />
<path d="M102.9379 89.3746
L102.9856 89.2794
" />
<path d="M102.9856 89.2794
L102.9856 88.9937
" />
<path d="M102.9856 88.9937
L102.9379 88.8985
" />
<path d="M102.9379 88.8985
L102.8903 88.8508
" />
<path d="M101.9856 89.8032
L101.9856 90.4223
" />
<path d="M101.9856 90.4223
L102.3665 90.0889
" />
<path d="M102.3665 90.0889
L102.3665 90.2318
" />
<path d="M102.3665 90.2318
L102.4141 90.3270
" />
<path d="M102.4141 90.3270
L102.4617 90.3746
" />
<path d="M102.4617 90.3746
L102.5570 90.4223
" />
<path d="M102.5570 90.4223
L102.7951 90.4223
" />
<path d="M102.7951 90.4223
L102.8903 90.3746
" />
<path d="M102.8903 90.3746
L102.9379 90.3270
" />
<path d="M102.9379 90.3270
L102.9856 90.2318
" />
<path d="M102.9856 90.2318
L102.9856 89.9461
" />
<path d="M102.9856 89.9461
L102.9379 89.8508
" />
<path d="M102.9379 89.8508
L102.8903 89.8032
" />
</g></g>
<g style="fill:none; 
stroke:#000000; stroke-width:0.0800; stroke-opacity:1; 
stroke-linecap:round; stroke-linejoin:round;">
<g transform="rotate(-90.000000 104.1807 89.6604)">
<text x="104.1807" y="89.9104"
transform="scale(-1 1) translate(-208.361476 0)"
textLength="1.1162" font-size="0.6667" lengthAdjust="spacingAndGlyphs"
text-anchor="middle" opacity="0" stroke-opacity="0">R3</text>
</g>
<g class="stroked-text"><desc>R3</desc>
<path d="M104.4079 89.5770
L104.1698 89.4104
" />
<path d="M104.4079 89.2913
L103.9079 89.2913
" />
<path d="M103.9079 89.2913
L103.9079 89.4818
" />
<path d="M103.9079 89.4818
L103.9317 89.5294
" />
<path d="M103.9317 89.5294
L103.9555 89.5532
" />
<path d="M103.9555 89.5532
L104.0031 89.5770
" />
<path d="M104.0031 89.5770
L104.0746 89.5770
" />
<path d="M104.0746 89.5770
L104.1222 89.5532
" />
<path d="M104.1222 89.5532
L104.1460 89.5294
" />
<path d="M104.1460 89.5294
L104.1698 89.4818
" />
<path d="M104.1698 89.4818
L104.1698 89.2913
" />
<path d="M103.9079 89.7437
L103.9079 90.0532
" />
<path d="M103.9079 90.0532
L104.0984 89.8865
" />
<path d="M104.0984 89.8865
L104.0984 89.9580
" />
<path d="M104.0984 89.9580
L104.1222 90.0056
" />
<path d="M104.1222 90.0056
L104.1460 90.0294
" />
<path d="M104.1460 90.0294
L104.1936 90.0532
" />
<path d="M104.1936 90.0532
L104.3126 90.0532
" />
<path d="M104.3126 90.0532
L104.3603 90.0294
" />
<path d="M104.3603 90.0294
L104.3841 90.0056
" />
<path d="M104.3841 90.0056
L104.4079 89.9580
" />
<path d="M104.4079 89.9580
L104.4079 89.8151
" />
<path d="M104.4079 89.8151
L104.3841 89.7675
" />
<path d="M104.3841 89.7675
L104.3603 89.7437
" />
</g></g>
<g style="fill:none; 
stroke:#000000; stroke-width:0.1000; stroke-opacity:1; 
stroke-linecap:round; stroke-linejoin:round;">
<path d="M123.2000 95.9625
L123.2000 99.1625
" />
<path d="M123.2000 99.1625
L124.8000 99.1625
" />
<path d="M124.8000 95.9625
L123.2000 95.9625
" />
<path d="M124.8000 99.1625
L124.8000 95.9625
" />
<path d="M158.9493 106.9568
L158.9493 108.5568
" />
<path d="M158.9493 108.5568
L162.1493 108.5568
" />
<path d="M162.1493 106.9568
L158.9493 106.9568
" />
<path d="M162.1493 108.5568
L162.1493 106.9568
" />
<path d="M101.7362 104.4015
L101.7362 107.6015
" />
<path d="M101.7362 107.6015
L103.3362 107.6015
" />
<path d="M103.3362 104.4015
L101.7362 104.4015
" />
<path d="M103.3362 107.6015
L103.3362 104.4015
" />
<path d="M132.9000 120.2000
L132.9000 121.8000
" />
<path d="M132.9000 121.8000
L136.1000 121.8000
" />
<path d="M136.1000 120.2000
L132.9000 120.2000
" />
<path d="M136.1000 121.8000
L136.1000 120.2000
" />
<path d="M103.0906 111.5595
L103.0906 113.5595
" />
<path d="M103.0906 113.5595
L104.3406 113.5595
" />
<path d="M104.3406 111.5595
L103.0906 111.5595
" />
<path d="M104.3406 113.5595
L104.3406 111.5595
" />
<path d="M89.9000 109.2000
L89.9000 110.8000
" />
<path d="M89.9000 110.8000
L93.1000 110.8000
" />
<path d="M93.1000 109.2000
L89.9000 109.2000
" />
<path d="M93.1000 110.8000
L93.1000 109.2000
" />
<path d="M105.3807 104.5604
L105.3807 107.7604
" />
<path d="M105.3807 107.7604
L106.9807 107.7604
" />
<path d="M106.9807 104.5604
L105.3807 104.5604
" />
<path d="M106.9807 107.7604
L106.9807 104.5604
" />
<path d="M103.5557 88.6604
L103.5557 90.6604
" />
<path d="M103.5557 90.6604
L104.8057 90.6604
" />
<path d="M104.8057 88.6604
L103.5557 88.6604
" />
<path d="M104.8057 90.6604
L104.8057 88.6604
" />
</g> 
</svg>
